<?xml version="1.0" encoding="utf-8"?>
<svg xmlns="http://www.w3.org/2000/svg" xmlns:xlink="http://www.w3.org/1999/xlink" width="600" height="400" viewBox="0 0 2400 1600">
<defs>
  <clipPath id="clip710">
    <rect x="0" y="0" width="2400" height="1600"/>
  </clipPath>
</defs>
<path clip-path="url(#clip710)" d="M0 1600 L2400 1600 L2400 0 L0 0  Z" fill="#ffffff" fill-rule="evenodd" fill-opacity="1"/>
<defs>
  <clipPath id="clip711">
    <rect x="480" y="0" width="1681" height="1600"/>
  </clipPath>
</defs>
<path clip-path="url(#clip710)" d="M202.227 1423.18 L2352.76 1423.18 L2352.76 47.2441 L202.227 47.2441  Z" fill="#ffffff" fill-rule="evenodd" fill-opacity="1"/>
<defs>
  <clipPath id="clip712">
    <rect x="202" y="47" width="2152" height="1377"/>
  </clipPath>
</defs>
<polyline clip-path="url(#clip712)" style="stroke:#000000; stroke-linecap:round; stroke-linejoin:round; stroke-width:2; stroke-opacity:0.1; fill:none" points="252.897,1423.18 252.897,47.2441 "/>
<polyline clip-path="url(#clip712)" style="stroke:#000000; stroke-linecap:round; stroke-linejoin:round; stroke-width:2; stroke-opacity:0.1; fill:none" points="762.645,1423.18 762.645,47.2441 "/>
<polyline clip-path="url(#clip712)" style="stroke:#000000; stroke-linecap:round; stroke-linejoin:round; stroke-width:2; stroke-opacity:0.1; fill:none" points="1272.39,1423.18 1272.39,47.2441 "/>
<polyline clip-path="url(#clip712)" style="stroke:#000000; stroke-linecap:round; stroke-linejoin:round; stroke-width:2; stroke-opacity:0.1; fill:none" points="1782.14,1423.18 1782.14,47.2441 "/>
<polyline clip-path="url(#clip712)" style="stroke:#000000; stroke-linecap:round; stroke-linejoin:round; stroke-width:2; stroke-opacity:0.1; fill:none" points="2291.89,1423.18 2291.89,47.2441 "/>
<polyline clip-path="url(#clip710)" style="stroke:#000000; stroke-linecap:round; stroke-linejoin:round; stroke-width:4; stroke-opacity:1; fill:none" points="202.227,1423.18 2352.76,1423.18 "/>
<polyline clip-path="url(#clip710)" style="stroke:#000000; stroke-linecap:round; stroke-linejoin:round; stroke-width:4; stroke-opacity:1; fill:none" points="252.897,1423.18 252.897,1404.28 "/>
<polyline clip-path="url(#clip710)" style="stroke:#000000; stroke-linecap:round; stroke-linejoin:round; stroke-width:4; stroke-opacity:1; fill:none" points="762.645,1423.18 762.645,1404.28 "/>
<polyline clip-path="url(#clip710)" style="stroke:#000000; stroke-linecap:round; stroke-linejoin:round; stroke-width:4; stroke-opacity:1; fill:none" points="1272.39,1423.18 1272.39,1404.28 "/>
<polyline clip-path="url(#clip710)" style="stroke:#000000; stroke-linecap:round; stroke-linejoin:round; stroke-width:4; stroke-opacity:1; fill:none" points="1782.14,1423.18 1782.14,1404.28 "/>
<polyline clip-path="url(#clip710)" style="stroke:#000000; stroke-linecap:round; stroke-linejoin:round; stroke-width:4; stroke-opacity:1; fill:none" points="2291.89,1423.18 2291.89,1404.28 "/>
<path clip-path="url(#clip710)" d="M252.897 1454.1 Q249.285 1454.1 247.457 1457.66 Q245.651 1461.2 245.651 1468.33 Q245.651 1475.44 247.457 1479.01 Q249.285 1482.55 252.897 1482.55 Q256.531 1482.55 258.336 1479.01 Q260.165 1475.44 260.165 1468.33 Q260.165 1461.2 258.336 1457.66 Q256.531 1454.1 252.897 1454.1 M252.897 1450.39 Q258.707 1450.39 261.762 1455 Q264.841 1459.58 264.841 1468.33 Q264.841 1477.06 261.762 1481.67 Q258.707 1486.25 252.897 1486.25 Q247.086 1486.25 244.008 1481.67 Q240.952 1477.06 240.952 1468.33 Q240.952 1459.58 244.008 1455 Q247.086 1450.39 252.897 1450.39 Z" fill="#000000" fill-rule="nonzero" fill-opacity="1" /><path clip-path="url(#clip710)" d="M737.345 1451.02 L755.701 1451.02 L755.701 1454.96 L741.627 1454.96 L741.627 1463.43 Q742.645 1463.08 743.664 1462.92 Q744.682 1462.73 745.701 1462.73 Q751.488 1462.73 754.868 1465.9 Q758.247 1469.08 758.247 1474.49 Q758.247 1480.07 754.775 1483.17 Q751.303 1486.25 744.983 1486.25 Q742.807 1486.25 740.539 1485.88 Q738.294 1485.51 735.886 1484.77 L735.886 1480.07 Q737.97 1481.2 740.192 1481.76 Q742.414 1482.32 744.891 1482.32 Q748.895 1482.32 751.233 1480.21 Q753.571 1478.1 753.571 1474.49 Q753.571 1470.88 751.233 1468.77 Q748.895 1466.67 744.891 1466.67 Q743.016 1466.67 741.141 1467.08 Q739.289 1467.5 737.345 1468.38 L737.345 1451.02 Z" fill="#000000" fill-rule="nonzero" fill-opacity="1" /><path clip-path="url(#clip710)" d="M777.46 1454.1 Q773.849 1454.1 772.02 1457.66 Q770.215 1461.2 770.215 1468.33 Q770.215 1475.44 772.02 1479.01 Q773.849 1482.55 777.46 1482.55 Q781.094 1482.55 782.9 1479.01 Q784.729 1475.44 784.729 1468.33 Q784.729 1461.2 782.9 1457.66 Q781.094 1454.1 777.46 1454.1 M777.46 1450.39 Q783.27 1450.39 786.326 1455 Q789.404 1459.58 789.404 1468.33 Q789.404 1477.06 786.326 1481.67 Q783.27 1486.25 777.46 1486.25 Q771.65 1486.25 768.571 1481.67 Q765.516 1477.06 765.516 1468.33 Q765.516 1459.58 768.571 1455 Q771.65 1450.39 777.46 1450.39 Z" fill="#000000" fill-rule="nonzero" fill-opacity="1" /><path clip-path="url(#clip710)" d="M1232 1481.64 L1239.64 1481.64 L1239.64 1455.28 L1231.33 1456.95 L1231.33 1452.69 L1239.59 1451.02 L1244.27 1451.02 L1244.27 1481.64 L1251.91 1481.64 L1251.91 1485.58 L1232 1485.58 L1232 1481.64 Z" fill="#000000" fill-rule="nonzero" fill-opacity="1" /><path clip-path="url(#clip710)" d="M1271.35 1454.1 Q1267.74 1454.1 1265.91 1457.66 Q1264.11 1461.2 1264.11 1468.33 Q1264.11 1475.44 1265.91 1479.01 Q1267.74 1482.55 1271.35 1482.55 Q1274.99 1482.55 1276.79 1479.01 Q1278.62 1475.44 1278.62 1468.33 Q1278.62 1461.2 1276.79 1457.66 Q1274.99 1454.1 1271.35 1454.1 M1271.35 1450.39 Q1277.16 1450.39 1280.22 1455 Q1283.3 1459.58 1283.3 1468.33 Q1283.3 1477.06 1280.22 1481.67 Q1277.16 1486.25 1271.35 1486.25 Q1265.54 1486.25 1262.46 1481.67 Q1259.41 1477.06 1259.41 1468.33 Q1259.41 1459.58 1262.46 1455 Q1265.54 1450.39 1271.35 1450.39 Z" fill="#000000" fill-rule="nonzero" fill-opacity="1" /><path clip-path="url(#clip710)" d="M1301.51 1454.1 Q1297.9 1454.1 1296.07 1457.66 Q1294.27 1461.2 1294.27 1468.33 Q1294.27 1475.44 1296.07 1479.01 Q1297.9 1482.55 1301.51 1482.55 Q1305.15 1482.55 1306.95 1479.01 Q1308.78 1475.44 1308.78 1468.33 Q1308.78 1461.2 1306.95 1457.66 Q1305.15 1454.1 1301.51 1454.1 M1301.51 1450.39 Q1307.32 1450.39 1310.38 1455 Q1313.46 1459.58 1313.46 1468.33 Q1313.46 1477.06 1310.38 1481.67 Q1307.32 1486.25 1301.51 1486.25 Q1295.7 1486.25 1292.63 1481.67 Q1289.57 1477.06 1289.57 1468.33 Q1289.57 1459.58 1292.63 1455 Q1295.7 1450.39 1301.51 1450.39 Z" fill="#000000" fill-rule="nonzero" fill-opacity="1" /><path clip-path="url(#clip710)" d="M1741.75 1481.64 L1749.39 1481.64 L1749.39 1455.28 L1741.08 1456.95 L1741.08 1452.69 L1749.34 1451.02 L1754.02 1451.02 L1754.02 1481.64 L1761.66 1481.64 L1761.66 1485.58 L1741.75 1485.58 L1741.75 1481.64 Z" fill="#000000" fill-rule="nonzero" fill-opacity="1" /><path clip-path="url(#clip710)" d="M1771.15 1451.02 L1789.5 1451.02 L1789.5 1454.96 L1775.43 1454.96 L1775.43 1463.43 Q1776.45 1463.08 1777.47 1462.92 Q1778.49 1462.73 1779.5 1462.73 Q1785.29 1462.73 1788.67 1465.9 Q1792.05 1469.08 1792.05 1474.49 Q1792.05 1480.07 1788.58 1483.17 Q1785.11 1486.25 1778.79 1486.25 Q1776.61 1486.25 1774.34 1485.88 Q1772.1 1485.51 1769.69 1484.77 L1769.69 1480.07 Q1771.77 1481.2 1773.99 1481.76 Q1776.22 1482.32 1778.69 1482.32 Q1782.7 1482.32 1785.04 1480.21 Q1787.37 1478.1 1787.37 1474.49 Q1787.37 1470.88 1785.04 1468.77 Q1782.7 1466.67 1778.69 1466.67 Q1776.82 1466.67 1774.94 1467.08 Q1773.09 1467.5 1771.15 1468.38 L1771.15 1451.02 Z" fill="#000000" fill-rule="nonzero" fill-opacity="1" /><path clip-path="url(#clip710)" d="M1811.26 1454.1 Q1807.65 1454.1 1805.82 1457.66 Q1804.02 1461.2 1804.02 1468.33 Q1804.02 1475.44 1805.82 1479.01 Q1807.65 1482.55 1811.26 1482.55 Q1814.9 1482.55 1816.7 1479.01 Q1818.53 1475.44 1818.53 1468.33 Q1818.53 1461.2 1816.7 1457.66 Q1814.9 1454.1 1811.26 1454.1 M1811.26 1450.39 Q1817.07 1450.39 1820.13 1455 Q1823.21 1459.58 1823.21 1468.33 Q1823.21 1477.06 1820.13 1481.67 Q1817.07 1486.25 1811.26 1486.25 Q1805.45 1486.25 1802.37 1481.67 Q1799.32 1477.06 1799.32 1468.33 Q1799.32 1459.58 1802.37 1455 Q1805.45 1450.39 1811.26 1450.39 Z" fill="#000000" fill-rule="nonzero" fill-opacity="1" /><path clip-path="url(#clip710)" d="M2255.58 1481.64 L2271.9 1481.64 L2271.9 1485.58 L2249.96 1485.58 L2249.96 1481.64 Q2252.62 1478.89 2257.2 1474.26 Q2261.81 1469.61 2262.99 1468.27 Q2265.24 1465.74 2266.12 1464.01 Q2267.02 1462.25 2267.02 1460.56 Q2267.02 1457.8 2265.07 1456.07 Q2263.15 1454.33 2260.05 1454.33 Q2257.85 1454.33 2255.4 1455.09 Q2252.97 1455.86 2250.19 1457.41 L2250.19 1452.69 Q2253.01 1451.55 2255.47 1450.97 Q2257.92 1450.39 2259.96 1450.39 Q2265.33 1450.39 2268.52 1453.08 Q2271.72 1455.77 2271.72 1460.26 Q2271.72 1462.39 2270.91 1464.31 Q2270.12 1466.2 2268.01 1468.8 Q2267.44 1469.47 2264.33 1472.69 Q2261.23 1475.88 2255.58 1481.64 Z" fill="#000000" fill-rule="nonzero" fill-opacity="1" /><path clip-path="url(#clip710)" d="M2291.72 1454.1 Q2288.11 1454.1 2286.28 1457.66 Q2284.47 1461.2 2284.47 1468.33 Q2284.47 1475.44 2286.28 1479.01 Q2288.11 1482.55 2291.72 1482.55 Q2295.35 1482.55 2297.16 1479.01 Q2298.99 1475.44 2298.99 1468.33 Q2298.99 1461.2 2297.16 1457.66 Q2295.35 1454.1 2291.72 1454.1 M2291.72 1450.39 Q2297.53 1450.39 2300.58 1455 Q2303.66 1459.58 2303.66 1468.33 Q2303.66 1477.06 2300.58 1481.67 Q2297.53 1486.25 2291.72 1486.25 Q2285.91 1486.25 2282.83 1481.67 Q2279.77 1477.06 2279.77 1468.33 Q2279.77 1459.58 2282.83 1455 Q2285.91 1450.39 2291.72 1450.39 Z" fill="#000000" fill-rule="nonzero" fill-opacity="1" /><path clip-path="url(#clip710)" d="M2321.88 1454.1 Q2318.27 1454.1 2316.44 1457.66 Q2314.63 1461.2 2314.63 1468.33 Q2314.63 1475.44 2316.44 1479.01 Q2318.27 1482.55 2321.88 1482.55 Q2325.51 1482.55 2327.32 1479.01 Q2329.15 1475.44 2329.15 1468.33 Q2329.15 1461.2 2327.32 1457.66 Q2325.51 1454.1 2321.88 1454.1 M2321.88 1450.39 Q2327.69 1450.39 2330.75 1455 Q2333.82 1459.58 2333.82 1468.33 Q2333.82 1477.06 2330.75 1481.67 Q2327.69 1486.25 2321.88 1486.25 Q2316.07 1486.25 2312.99 1481.67 Q2309.94 1477.06 2309.94 1468.33 Q2309.94 1459.58 2312.99 1455 Q2316.07 1450.39 2321.88 1450.39 Z" fill="#000000" fill-rule="nonzero" fill-opacity="1" /><path clip-path="url(#clip710)" d="M1203.06 1545.76 Q1205.13 1546.46 1207.07 1548.76 Q1209.04 1551.05 1211.02 1555.06 L1217.54 1568.04 L1210.64 1568.04 L1204.56 1555.85 Q1202.2 1551.08 1199.97 1549.52 Q1197.78 1547.96 1193.96 1547.96 L1186.96 1547.96 L1186.96 1568.04 L1180.53 1568.04 L1180.53 1520.52 L1195.04 1520.52 Q1203.19 1520.52 1207.2 1523.93 Q1211.21 1527.34 1211.21 1534.21 Q1211.21 1538.7 1209.11 1541.66 Q1207.04 1544.62 1203.06 1545.76 M1186.96 1525.81 L1186.96 1542.68 L1195.04 1542.68 Q1199.69 1542.68 1202.04 1540.54 Q1204.43 1538.38 1204.43 1534.21 Q1204.43 1530.04 1202.04 1527.94 Q1199.69 1525.81 1195.04 1525.81 L1186.96 1525.81 Z" fill="#000000" fill-rule="nonzero" fill-opacity="1" /><path clip-path="url(#clip710)" d="M1236.45 1536.5 Q1231.74 1536.5 1229 1540.19 Q1226.26 1543.85 1226.26 1550.25 Q1226.26 1556.65 1228.97 1560.34 Q1231.71 1564 1236.45 1564 Q1241.13 1564 1243.86 1560.31 Q1246.6 1556.62 1246.6 1550.25 Q1246.6 1543.92 1243.86 1540.23 Q1241.13 1536.5 1236.45 1536.5 M1236.45 1531.54 Q1244.09 1531.54 1248.45 1536.5 Q1252.81 1541.47 1252.81 1550.25 Q1252.81 1559 1248.45 1564 Q1244.09 1568.97 1236.45 1568.97 Q1228.78 1568.97 1224.42 1564 Q1220.09 1559 1220.09 1550.25 Q1220.09 1541.47 1224.42 1536.5 Q1228.78 1531.54 1236.45 1531.54 Z" fill="#000000" fill-rule="nonzero" fill-opacity="1" /><path clip-path="url(#clip710)" d="M1261.91 1553.98 L1261.91 1532.4 L1267.77 1532.4 L1267.77 1553.75 Q1267.77 1558.81 1269.74 1561.36 Q1271.71 1563.87 1275.66 1563.87 Q1280.4 1563.87 1283.14 1560.85 Q1285.91 1557.83 1285.91 1552.61 L1285.91 1532.4 L1291.77 1532.4 L1291.77 1568.04 L1285.91 1568.04 L1285.91 1562.57 Q1283.78 1565.82 1280.95 1567.41 Q1278.14 1568.97 1274.42 1568.97 Q1268.28 1568.97 1265.09 1565.15 Q1261.91 1561.33 1261.91 1553.98 M1276.65 1531.54 L1276.65 1531.54 Z" fill="#000000" fill-rule="nonzero" fill-opacity="1" /><path clip-path="url(#clip710)" d="M1333.46 1546.53 L1333.46 1568.04 L1327.61 1568.04 L1327.61 1546.72 Q1327.61 1541.66 1325.63 1539.14 Q1323.66 1536.63 1319.71 1536.63 Q1314.97 1536.63 1312.23 1539.65 Q1309.5 1542.68 1309.5 1547.9 L1309.5 1568.04 L1303.61 1568.04 L1303.61 1532.4 L1309.5 1532.4 L1309.5 1537.93 Q1311.6 1534.72 1314.43 1533.13 Q1317.29 1531.54 1321.02 1531.54 Q1327.16 1531.54 1330.31 1535.36 Q1333.46 1539.14 1333.46 1546.53 Z" fill="#000000" fill-rule="nonzero" fill-opacity="1" /><path clip-path="url(#clip710)" d="M1368.6 1537.81 L1368.6 1518.52 L1374.46 1518.52 L1374.46 1568.04 L1368.6 1568.04 L1368.6 1562.7 Q1366.75 1565.88 1363.92 1567.44 Q1361.12 1568.97 1357.17 1568.97 Q1350.71 1568.97 1346.64 1563.81 Q1342.6 1558.65 1342.6 1550.25 Q1342.6 1541.85 1346.64 1536.69 Q1350.71 1531.54 1357.17 1531.54 Q1361.12 1531.54 1363.92 1533.1 Q1366.75 1534.62 1368.6 1537.81 M1348.64 1550.25 Q1348.64 1556.71 1351.29 1560.4 Q1353.96 1564.07 1358.61 1564.07 Q1363.25 1564.07 1365.93 1560.4 Q1368.6 1556.71 1368.6 1550.25 Q1368.6 1543.79 1365.93 1540.13 Q1363.25 1536.44 1358.61 1536.44 Q1353.96 1536.44 1351.29 1540.13 Q1348.64 1543.79 1348.64 1550.25 Z" fill="#000000" fill-rule="nonzero" fill-opacity="1" /><polyline clip-path="url(#clip712)" style="stroke:#000000; stroke-linecap:round; stroke-linejoin:round; stroke-width:2; stroke-opacity:0.1; fill:none" points="202.227,1384.24 2352.76,1384.24 "/>
<polyline clip-path="url(#clip712)" style="stroke:#000000; stroke-linecap:round; stroke-linejoin:round; stroke-width:2; stroke-opacity:0.1; fill:none" points="202.227,1167.9 2352.76,1167.9 "/>
<polyline clip-path="url(#clip712)" style="stroke:#000000; stroke-linecap:round; stroke-linejoin:round; stroke-width:2; stroke-opacity:0.1; fill:none" points="202.227,951.554 2352.76,951.554 "/>
<polyline clip-path="url(#clip712)" style="stroke:#000000; stroke-linecap:round; stroke-linejoin:round; stroke-width:2; stroke-opacity:0.1; fill:none" points="202.227,735.212 2352.76,735.212 "/>
<polyline clip-path="url(#clip712)" style="stroke:#000000; stroke-linecap:round; stroke-linejoin:round; stroke-width:2; stroke-opacity:0.1; fill:none" points="202.227,518.87 2352.76,518.87 "/>
<polyline clip-path="url(#clip712)" style="stroke:#000000; stroke-linecap:round; stroke-linejoin:round; stroke-width:2; stroke-opacity:0.1; fill:none" points="202.227,302.528 2352.76,302.528 "/>
<polyline clip-path="url(#clip712)" style="stroke:#000000; stroke-linecap:round; stroke-linejoin:round; stroke-width:2; stroke-opacity:0.1; fill:none" points="202.227,86.1857 2352.76,86.1857 "/>
<polyline clip-path="url(#clip710)" style="stroke:#000000; stroke-linecap:round; stroke-linejoin:round; stroke-width:4; stroke-opacity:1; fill:none" points="202.227,1423.18 202.227,47.2441 "/>
<polyline clip-path="url(#clip710)" style="stroke:#000000; stroke-linecap:round; stroke-linejoin:round; stroke-width:4; stroke-opacity:1; fill:none" points="202.227,1384.24 221.125,1384.24 "/>
<polyline clip-path="url(#clip710)" style="stroke:#000000; stroke-linecap:round; stroke-linejoin:round; stroke-width:4; stroke-opacity:1; fill:none" points="202.227,1167.9 221.125,1167.9 "/>
<polyline clip-path="url(#clip710)" style="stroke:#000000; stroke-linecap:round; stroke-linejoin:round; stroke-width:4; stroke-opacity:1; fill:none" points="202.227,951.554 221.125,951.554 "/>
<polyline clip-path="url(#clip710)" style="stroke:#000000; stroke-linecap:round; stroke-linejoin:round; stroke-width:4; stroke-opacity:1; fill:none" points="202.227,735.212 221.125,735.212 "/>
<polyline clip-path="url(#clip710)" style="stroke:#000000; stroke-linecap:round; stroke-linejoin:round; stroke-width:4; stroke-opacity:1; fill:none" points="202.227,518.87 221.125,518.87 "/>
<polyline clip-path="url(#clip710)" style="stroke:#000000; stroke-linecap:round; stroke-linejoin:round; stroke-width:4; stroke-opacity:1; fill:none" points="202.227,302.528 221.125,302.528 "/>
<polyline clip-path="url(#clip710)" style="stroke:#000000; stroke-linecap:round; stroke-linejoin:round; stroke-width:4; stroke-opacity:1; fill:none" points="202.227,86.1857 221.125,86.1857 "/>
<path clip-path="url(#clip710)" d="M145.325 1366.96 L163.681 1366.96 L163.681 1370.89 L149.607 1370.89 L149.607 1379.37 Q150.626 1379.02 151.644 1378.86 Q152.663 1378.67 153.681 1378.67 Q159.468 1378.67 162.848 1381.84 Q166.227 1385.01 166.227 1390.43 Q166.227 1396.01 162.755 1399.11 Q159.283 1402.19 152.964 1402.19 Q150.788 1402.19 148.519 1401.82 Q146.274 1401.45 143.866 1400.71 L143.866 1396.01 Q145.95 1397.14 148.172 1397.7 Q150.394 1398.25 152.871 1398.25 Q156.876 1398.25 159.214 1396.15 Q161.552 1394.04 161.552 1390.43 Q161.552 1386.82 159.214 1384.71 Q156.876 1382.61 152.871 1382.61 Q150.996 1382.61 149.121 1383.02 Q147.269 1383.44 145.325 1384.32 L145.325 1366.96 Z" fill="#000000" fill-rule="nonzero" fill-opacity="1" /><path clip-path="url(#clip710)" d="M154.7 1166.03 Q151.552 1166.03 149.7 1168.19 Q147.871 1170.34 147.871 1174.09 Q147.871 1177.82 149.7 1179.99 Q151.552 1182.14 154.7 1182.14 Q157.848 1182.14 159.677 1179.99 Q161.528 1177.82 161.528 1174.09 Q161.528 1170.34 159.677 1168.19 Q157.848 1166.03 154.7 1166.03 M163.982 1151.38 L163.982 1155.64 Q162.223 1154.81 160.417 1154.37 Q158.635 1153.93 156.876 1153.93 Q152.246 1153.93 149.792 1157.05 Q147.362 1160.18 147.015 1166.5 Q148.38 1164.48 150.441 1163.42 Q152.501 1162.33 154.978 1162.33 Q160.186 1162.33 163.195 1165.5 Q166.227 1168.65 166.227 1174.09 Q166.227 1179.41 163.079 1182.63 Q159.931 1185.85 154.7 1185.85 Q148.704 1185.85 145.533 1181.26 Q142.362 1176.66 142.362 1167.93 Q142.362 1159.74 146.251 1154.88 Q150.14 1149.99 156.69 1149.99 Q158.45 1149.99 160.232 1150.34 Q162.038 1150.69 163.982 1151.38 Z" fill="#000000" fill-rule="nonzero" fill-opacity="1" /><path clip-path="url(#clip710)" d="M144.005 934.274 L166.227 934.274 L166.227 936.265 L153.681 968.834 L148.797 968.834 L160.603 938.209 L144.005 938.209 L144.005 934.274 Z" fill="#000000" fill-rule="nonzero" fill-opacity="1" /><path clip-path="url(#clip710)" d="M154.376 736.08 Q151.042 736.08 149.121 737.862 Q147.223 739.645 147.223 742.77 Q147.223 745.895 149.121 747.677 Q151.042 749.46 154.376 749.46 Q157.709 749.46 159.63 747.677 Q161.552 745.872 161.552 742.77 Q161.552 739.645 159.63 737.862 Q157.732 736.08 154.376 736.08 M149.7 734.089 Q146.691 733.349 145.001 731.288 Q143.334 729.228 143.334 726.265 Q143.334 722.122 146.274 719.714 Q149.237 717.307 154.376 717.307 Q159.538 717.307 162.477 719.714 Q165.417 722.122 165.417 726.265 Q165.417 729.228 163.727 731.288 Q162.061 733.349 159.075 734.089 Q162.454 734.876 164.329 737.168 Q166.227 739.46 166.227 742.77 Q166.227 747.793 163.149 750.478 Q160.093 753.163 154.376 753.163 Q148.658 753.163 145.579 750.478 Q142.524 747.793 142.524 742.77 Q142.524 739.46 144.422 737.168 Q146.32 734.876 149.7 734.089 M147.987 726.705 Q147.987 729.39 149.653 730.895 Q151.343 732.399 154.376 732.399 Q157.385 732.399 159.075 730.895 Q160.788 729.39 160.788 726.705 Q160.788 724.02 159.075 722.515 Q157.385 721.011 154.376 721.011 Q151.343 721.011 149.653 722.515 Q147.987 724.02 147.987 726.705 Z" fill="#000000" fill-rule="nonzero" fill-opacity="1" /><path clip-path="url(#clip710)" d="M144.607 535.432 L144.607 531.173 Q146.366 532.006 148.172 532.446 Q149.978 532.886 151.714 532.886 Q156.343 532.886 158.774 529.784 Q161.227 526.659 161.575 520.317 Q160.232 522.307 158.172 523.372 Q156.112 524.437 153.612 524.437 Q148.427 524.437 145.394 521.312 Q142.385 518.164 142.385 512.724 Q142.385 507.4 145.533 504.182 Q148.681 500.965 153.913 500.965 Q159.908 500.965 163.056 505.571 Q166.227 510.155 166.227 518.905 Q166.227 527.076 162.339 531.96 Q158.473 536.821 151.922 536.821 Q150.163 536.821 148.357 536.474 Q146.552 536.127 144.607 535.432 M153.913 520.78 Q157.061 520.78 158.89 518.627 Q160.741 516.474 160.741 512.724 Q160.741 508.997 158.89 506.844 Q157.061 504.669 153.913 504.669 Q150.765 504.669 148.913 506.844 Q147.084 508.997 147.084 512.724 Q147.084 516.474 148.913 518.627 Q150.765 520.78 153.913 520.78 Z" fill="#000000" fill-rule="nonzero" fill-opacity="1" /><path clip-path="url(#clip710)" d="M114.931 315.873 L122.57 315.873 L122.57 289.507 L114.26 291.174 L114.26 286.914 L122.524 285.248 L127.2 285.248 L127.2 315.873 L134.839 315.873 L134.839 319.808 L114.931 319.808 L114.931 315.873 Z" fill="#000000" fill-rule="nonzero" fill-opacity="1" /><path clip-path="url(#clip710)" d="M154.283 288.326 Q150.672 288.326 148.843 291.891 Q147.038 295.433 147.038 302.562 Q147.038 309.669 148.843 313.234 Q150.672 316.775 154.283 316.775 Q157.917 316.775 159.723 313.234 Q161.552 309.669 161.552 302.562 Q161.552 295.433 159.723 291.891 Q157.917 288.326 154.283 288.326 M154.283 284.623 Q160.093 284.623 163.149 289.229 Q166.227 293.813 166.227 302.562 Q166.227 311.289 163.149 315.896 Q160.093 320.479 154.283 320.479 Q148.473 320.479 145.394 315.896 Q142.339 311.289 142.339 302.562 Q142.339 293.813 145.394 289.229 Q148.473 284.623 154.283 284.623 Z" fill="#000000" fill-rule="nonzero" fill-opacity="1" /><path clip-path="url(#clip710)" d="M116.158 99.5305 L123.797 99.5305 L123.797 73.1649 L115.487 74.8316 L115.487 70.5723 L123.751 68.9057 L128.427 68.9057 L128.427 99.5305 L136.066 99.5305 L136.066 103.466 L116.158 103.466 L116.158 99.5305 Z" fill="#000000" fill-rule="nonzero" fill-opacity="1" /><path clip-path="url(#clip710)" d="M146.32 99.5305 L153.959 99.5305 L153.959 73.1649 L145.649 74.8316 L145.649 70.5723 L153.913 68.9057 L158.589 68.9057 L158.589 99.5305 L166.227 99.5305 L166.227 103.466 L146.32 103.466 L146.32 99.5305 Z" fill="#000000" fill-rule="nonzero" fill-opacity="1" /><path clip-path="url(#clip710)" d="M16.4842 893.798 L16.4842 884.217 L48.8219 872.091 L16.4842 859.9 L16.4842 850.32 L64.0042 850.32 L64.0042 856.59 L22.277 856.59 L54.8694 868.844 L54.8694 875.305 L22.277 887.559 L64.0042 887.559 L64.0042 893.798 L16.4842 893.798 Z" fill="#000000" fill-rule="nonzero" fill-opacity="1" /><path clip-path="url(#clip710)" d="M32.4621 823.998 Q32.4621 828.708 36.1542 831.446 Q39.8145 834.183 46.212 834.183 Q52.6095 834.183 56.3017 831.477 Q59.9619 828.74 59.9619 823.998 Q59.9619 819.319 56.2698 816.582 Q52.5777 813.844 46.212 813.844 Q39.8781 813.844 36.186 816.582 Q32.4621 819.319 32.4621 823.998 M27.4968 823.998 Q27.4968 816.359 32.4621 811.998 Q37.4273 807.638 46.212 807.638 Q54.9649 807.638 59.9619 811.998 Q64.9272 816.359 64.9272 823.998 Q64.9272 831.668 59.9619 836.029 Q54.9649 840.358 46.212 840.358 Q37.4273 840.358 32.4621 836.029 Q27.4968 831.668 27.4968 823.998 Z" fill="#000000" fill-rule="nonzero" fill-opacity="1" /><path clip-path="url(#clip710)" d="M42.4881 768.298 L64.0042 768.298 L64.0042 774.154 L42.679 774.154 Q37.6183 774.154 35.1038 776.128 Q32.5894 778.101 32.5894 782.048 Q32.5894 786.79 35.6131 789.527 Q38.6368 792.265 43.8567 792.265 L64.0042 792.265 L64.0042 798.153 L28.3562 798.153 L28.3562 792.265 L33.8944 792.265 Q30.6797 790.164 29.0883 787.331 Q27.4968 784.467 27.4968 780.743 Q27.4968 774.6 31.3163 771.449 Q35.1038 768.298 42.4881 768.298 Z" fill="#000000" fill-rule="nonzero" fill-opacity="1" /><path clip-path="url(#clip710)" d="M44.7161 726.125 L47.5806 726.125 L47.5806 753.052 Q53.6281 752.67 56.8109 749.423 Q59.9619 746.145 59.9619 740.32 Q59.9619 736.947 59.1344 733.796 Q58.3069 730.613 56.6518 727.494 L62.1899 727.494 Q63.5267 730.645 64.227 733.955 Q64.9272 737.265 64.9272 740.671 Q64.9272 749.201 59.9619 754.198 Q54.9967 759.163 46.5303 759.163 Q37.7774 759.163 32.6531 754.452 Q27.4968 749.71 27.4968 741.689 Q27.4968 734.496 32.1438 730.326 Q36.7589 726.125 44.7161 726.125 M42.9973 731.981 Q38.1912 732.045 35.3266 734.687 Q32.4621 737.297 32.4621 741.625 Q32.4621 746.527 35.2312 749.487 Q38.0002 752.415 43.0292 752.861 L42.9973 731.981 Z" fill="#000000" fill-rule="nonzero" fill-opacity="1" /><path clip-path="url(#clip710)" d="M67.3143 701.681 Q73.68 704.163 75.6216 706.519 Q77.5631 708.874 77.5631 712.821 L77.5631 717.499 L72.6615 717.499 L72.6615 714.062 Q72.6615 711.643 71.5157 710.306 Q70.3699 708.969 66.1048 707.346 L63.4312 706.296 L28.3562 720.714 L28.3562 714.508 L56.238 703.368 L28.3562 692.228 L28.3562 686.021 L67.3143 701.681 Z" fill="#000000" fill-rule="nonzero" fill-opacity="1" /><path clip-path="url(#clip710)" d="M14.5426 643.148 Q21.8632 647.413 29.0246 649.482 Q36.186 651.551 43.5384 651.551 Q50.8908 651.551 58.1159 649.482 Q65.3091 647.381 72.5979 643.148 L72.5979 648.241 Q65.1182 653.015 57.8931 655.402 Q50.668 657.757 43.5384 657.757 Q36.4406 657.757 29.2474 655.402 Q22.0542 653.047 14.5426 648.241 L14.5426 643.148 Z" fill="#000000" fill-rule="nonzero" fill-opacity="1" /><path clip-path="url(#clip710)" d="M73.5845 615.903 L73.5845 619.086 L64.0042 619.117 Q63.9405 622.459 63.2403 625.801 Q62.5082 629.143 61.0759 632.517 L55.3468 632.517 Q57.3838 629.271 58.4342 625.961 Q59.4527 622.619 59.4845 619.086 L44.9707 619.086 Q43.8249 626.12 41.0876 629.334 Q38.3504 632.517 33.5761 632.517 Q28.388 632.517 25.3961 629.048 Q22.4043 625.579 21.9587 619.086 L14.479 619.086 L14.479 615.903 L21.8632 615.903 Q21.9905 612.943 22.4998 610.174 Q22.9772 607.404 23.8365 604.763 L29.4065 604.763 Q28.0697 607.404 27.3377 610.205 Q26.6056 612.974 26.4783 615.903 L40.0691 615.903 Q41.1831 608.678 44.0477 605.272 Q46.9122 601.866 51.8775 601.866 Q57.2565 601.866 60.3757 605.495 Q63.4631 609.091 63.9405 615.903 L73.5845 615.903 M39.4962 619.086 L26.4465 619.086 Q26.8603 622.778 28.5472 624.719 Q30.2341 626.661 33.035 626.661 Q35.7722 626.661 37.3 624.878 Q38.8278 623.064 39.4962 619.086 M45.6073 615.903 L59.389 615.903 Q58.8479 611.86 57.0974 609.823 Q55.3468 607.755 52.4822 607.755 Q49.6813 607.755 48.0262 609.728 Q46.3712 611.67 45.6073 615.903 Z" fill="#000000" fill-rule="nonzero" fill-opacity="1" /><path clip-path="url(#clip710)" d="M14.5426 591.236 L14.5426 586.143 Q22.0542 581.369 29.2474 579.013 Q36.4406 576.626 43.5384 576.626 Q50.668 576.626 57.8931 579.013 Q65.1182 581.369 72.5979 586.143 L72.5979 591.236 Q65.3091 587.002 58.1159 584.934 Q50.8908 582.833 43.5384 582.833 Q36.186 582.833 29.0246 584.934 Q21.8632 587.002 14.5426 591.236 Z" fill="#000000" fill-rule="nonzero" fill-opacity="1" /><polyline clip-path="url(#clip712)" style="stroke:#009af9; stroke-linecap:round; stroke-linejoin:round; stroke-width:4; stroke-opacity:1; fill:none" points="263.091,302.528 273.286,86.1857 283.481,302.528 293.676,518.87 303.871,302.528 314.066,518.87 324.261,302.528 334.456,86.1857 344.651,302.528 354.846,86.1857 365.041,302.528 375.236,86.1857 385.431,302.528 395.626,86.1857 405.821,302.528 416.016,86.1857 426.211,302.528 436.406,86.1857 446.601,302.528 456.796,86.1857 466.991,302.528 477.186,86.1857 487.381,302.528 497.576,86.1857 507.771,302.528 517.966,86.1857 528.161,302.528 538.356,518.87 548.551,302.528 558.746,518.87 568.941,302.528 579.136,86.1857 589.331,302.528 599.526,86.1857 609.721,302.528 619.916,86.1857 630.111,302.528 640.306,86.1857 650.501,302.528 660.696,86.1857 670.891,302.528 681.086,86.1857 691.281,302.528 701.475,86.1857 711.67,302.528 721.865,302.528 732.06,302.528 742.255,518.87 752.45,302.528 762.645,86.1857 772.84,302.528 783.035,86.1857 793.23,302.528 803.425,86.1857 813.62,302.528 823.815,86.1857 834.01,302.528 844.205,86.1857 854.4,302.528 864.595,518.87 874.79,302.528 884.985,518.87 895.18,302.528 905.375,518.87 915.57,302.528 925.765,518.87 935.96,302.528 946.155,518.87 956.35,302.528 966.545,518.87 976.74,302.528 986.935,518.87 997.13,302.528 1007.32,518.87 1017.52,302.528 1027.71,518.87 1037.91,302.528 1048.1,518.87 1058.3,302.528 1068.49,518.87 1078.69,302.528 1088.88,518.87 1099.08,302.528 1109.27,518.87 1119.47,302.528 1129.66,518.87 1139.86,302.528 1150.05,518.87 1160.25,302.528 1170.44,518.87 1180.64,302.528 1190.83,518.87 1201.03,302.528 1211.22,518.87 1221.42,302.528 1231.61,518.87 1241.81,302.528 1252,518.87 1262.2,302.528 1272.39,518.87 1282.59,302.528 1292.78,518.87 1302.98,302.528 1313.17,518.87 1323.37,302.528 1333.56,518.87 1343.76,302.528 1353.95,518.87 1364.15,302.528 1374.34,518.87 1384.54,302.528 1394.73,518.87 1404.93,302.528 1415.12,518.87 1425.32,302.528 1435.51,518.87 1445.71,302.528 1455.9,518.87 1466.1,735.212 1476.29,518.87 1486.49,735.212 1496.68,518.87 1506.88,735.212 1517.07,518.87 1527.27,735.212 1537.46,518.87 1547.66,735.212 1557.85,518.87 1568.05,735.212 1578.24,518.87 1588.44,735.212 1598.63,518.87 1608.83,735.212 1619.02,518.87 1629.22,735.212 1639.41,518.87 1649.61,735.212 1659.8,518.87 1670,735.212 1680.19,518.87 1690.39,735.212 1700.58,518.87 1710.78,735.212 1720.97,518.87 1731.17,735.212 1741.36,518.87 1751.56,735.212 1761.75,518.87 1771.95,735.212 1782.14,518.87 1792.34,735.212 1802.53,518.87 1812.73,735.212 1822.92,951.554 1833.12,735.212 1843.31,951.554 1853.51,735.212 1863.7,951.554 1873.9,735.212 1884.09,951.554 1894.29,735.212 1904.48,951.554 1914.68,735.212 1924.87,951.554 1935.07,735.212 1945.26,951.554 1955.46,735.212 1965.65,951.554 1975.85,735.212 1986.04,951.554 1996.24,735.212 2006.43,951.554 2016.63,1167.9 2026.82,951.554 2037.02,1167.9 2047.21,951.554 2057.41,1167.9 2067.6,951.554 2077.8,1167.9 2087.99,951.554 2098.19,1167.9 2108.38,951.554 2118.58,1167.9 2128.77,951.554 2138.97,1167.9 2149.16,951.554 2159.36,1167.9 2169.55,951.554 2179.75,1167.9 2189.94,1384.24 2200.14,1167.9 2210.33,1384.24 2220.53,1167.9 2230.72,1384.24 2240.92,1167.9 2251.11,1384.24 2261.31,1167.9 2271.5,1384.24 2281.7,1167.9 2291.89,1384.24 "/>
<path clip-path="url(#clip710)" d="M1902.27 196.789 L2281.07 196.789 L2281.07 93.1086 L1902.27 93.1086  Z" fill="#ffffff" fill-rule="evenodd" fill-opacity="1"/>
<polyline clip-path="url(#clip710)" style="stroke:#000000; stroke-linecap:round; stroke-linejoin:round; stroke-width:4; stroke-opacity:1; fill:none" points="1902.27,196.789 2281.07,196.789 2281.07,93.1086 1902.27,93.1086 1902.27,196.789 "/>
<polyline clip-path="url(#clip710)" style="stroke:#009af9; stroke-linecap:round; stroke-linejoin:round; stroke-width:4; stroke-opacity:1; fill:none" points="1926.16,144.949 2069.53,144.949 "/>
<path clip-path="url(#clip710)" d="M2093.43 127.669 L2100.4 127.669 L2109.21 151.187 L2118.08 127.669 L2125.05 127.669 L2125.05 162.229 L2120.49 162.229 L2120.49 131.882 L2111.58 155.585 L2106.88 155.585 L2097.96 131.882 L2097.96 162.229 L2093.43 162.229 L2093.43 127.669 Z" fill="#000000" fill-rule="nonzero" fill-opacity="1" /><path clip-path="url(#clip710)" d="M2156.32 148.201 L2156.32 150.284 L2136.74 150.284 Q2137.02 154.682 2139.38 156.997 Q2141.76 159.289 2146 159.289 Q2148.45 159.289 2150.74 158.687 Q2153.06 158.085 2155.33 156.881 L2155.33 160.909 Q2153.03 161.881 2150.63 162.391 Q2148.22 162.9 2145.74 162.9 Q2139.54 162.9 2135.9 159.289 Q2132.29 155.678 2132.29 149.52 Q2132.29 143.155 2135.72 139.428 Q2139.17 135.678 2145 135.678 Q2150.23 135.678 2153.27 139.057 Q2156.32 142.414 2156.32 148.201 M2152.06 146.951 Q2152.02 143.456 2150.09 141.372 Q2148.2 139.289 2145.05 139.289 Q2141.48 139.289 2139.33 141.303 Q2137.2 143.317 2136.88 146.974 L2152.06 146.951 Z" fill="#000000" fill-rule="nonzero" fill-opacity="1" /><path clip-path="url(#clip710)" d="M2180.37 140.238 L2180.37 126.21 L2184.63 126.21 L2184.63 162.229 L2180.37 162.229 L2180.37 158.34 Q2179.03 160.655 2176.97 161.789 Q2174.93 162.9 2172.06 162.9 Q2167.36 162.9 2164.4 159.15 Q2161.46 155.4 2161.46 149.289 Q2161.46 143.178 2164.4 139.428 Q2167.36 135.678 2172.06 135.678 Q2174.93 135.678 2176.97 136.812 Q2179.03 137.923 2180.37 140.238 M2165.86 149.289 Q2165.86 153.988 2167.78 156.673 Q2169.72 159.335 2173.1 159.335 Q2176.48 159.335 2178.43 156.673 Q2180.37 153.988 2180.37 149.289 Q2180.37 144.59 2178.43 141.928 Q2176.48 139.243 2173.1 139.243 Q2169.72 139.243 2167.78 141.928 Q2165.86 144.59 2165.86 149.289 Z" fill="#000000" fill-rule="nonzero" fill-opacity="1" /><path clip-path="url(#clip710)" d="M2193.4 136.303 L2197.66 136.303 L2197.66 162.229 L2193.4 162.229 L2193.4 136.303 M2193.4 126.21 L2197.66 126.21 L2197.66 131.604 L2193.4 131.604 L2193.4 126.21 Z" fill="#000000" fill-rule="nonzero" fill-opacity="1" /><path clip-path="url(#clip710)" d="M2218.36 149.196 Q2213.2 149.196 2211.2 150.377 Q2209.21 151.557 2209.21 154.405 Q2209.21 156.673 2210.7 158.016 Q2212.2 159.335 2214.77 159.335 Q2218.31 159.335 2220.44 156.835 Q2222.59 154.312 2222.59 150.145 L2222.59 149.196 L2218.36 149.196 M2226.85 147.437 L2226.85 162.229 L2222.59 162.229 L2222.59 158.293 Q2221.14 160.655 2218.96 161.789 Q2216.78 162.9 2213.64 162.9 Q2209.65 162.9 2207.29 160.678 Q2204.95 158.432 2204.95 154.682 Q2204.95 150.307 2207.87 148.085 Q2210.81 145.863 2216.62 145.863 L2222.59 145.863 L2222.59 145.446 Q2222.59 142.507 2220.65 140.909 Q2218.73 139.289 2215.23 139.289 Q2213.01 139.289 2210.9 139.821 Q2208.8 140.354 2206.85 141.419 L2206.85 137.483 Q2209.19 136.581 2211.39 136.141 Q2213.59 135.678 2215.67 135.678 Q2221.3 135.678 2224.08 138.594 Q2226.85 141.511 2226.85 147.437 Z" fill="#000000" fill-rule="nonzero" fill-opacity="1" /><path clip-path="url(#clip710)" d="M2257.18 146.581 L2257.18 162.229 L2252.92 162.229 L2252.92 146.719 Q2252.92 143.039 2251.48 141.21 Q2250.05 139.382 2247.18 139.382 Q2243.73 139.382 2241.74 141.581 Q2239.75 143.78 2239.75 147.576 L2239.75 162.229 L2235.46 162.229 L2235.46 136.303 L2239.75 136.303 L2239.75 140.331 Q2241.27 137.993 2243.33 136.835 Q2245.42 135.678 2248.13 135.678 Q2252.59 135.678 2254.89 138.456 Q2257.18 141.21 2257.18 146.581 Z" fill="#000000" fill-rule="nonzero" fill-opacity="1" /></svg>
