<?xml version="1.0" encoding="utf-8"?>
<svg xmlns="http://www.w3.org/2000/svg" xmlns:xlink="http://www.w3.org/1999/xlink" width="600" height="400" viewBox="0 0 2400 1600">
<defs>
  <clipPath id="clip620">
    <rect x="0" y="0" width="2400" height="1600"/>
  </clipPath>
</defs>
<path clip-path="url(#clip620)" d="M0 1600 L2400 1600 L2400 0 L0 0  Z" fill="#ffffff" fill-rule="evenodd" fill-opacity="1"/>
<defs>
  <clipPath id="clip621">
    <rect x="480" y="0" width="1681" height="1600"/>
  </clipPath>
</defs>
<path clip-path="url(#clip620)" d="M219.38 1423.18 L2352.76 1423.18 L2352.76 123.472 L219.38 123.472  Z" fill="#ffffff" fill-rule="evenodd" fill-opacity="1"/>
<defs>
  <clipPath id="clip622">
    <rect x="219" y="123" width="2134" height="1301"/>
  </clipPath>
</defs>
<polyline clip-path="url(#clip622)" style="stroke:#000000; stroke-linecap:round; stroke-linejoin:round; stroke-width:2; stroke-opacity:0.1; fill:none" points="336.72,1423.18 336.72,123.472 "/>
<polyline clip-path="url(#clip622)" style="stroke:#000000; stroke-linecap:round; stroke-linejoin:round; stroke-width:2; stroke-opacity:0.1; fill:none" points="681.937,1423.18 681.937,123.472 "/>
<polyline clip-path="url(#clip622)" style="stroke:#000000; stroke-linecap:round; stroke-linejoin:round; stroke-width:2; stroke-opacity:0.1; fill:none" points="1027.15,1423.18 1027.15,123.472 "/>
<polyline clip-path="url(#clip622)" style="stroke:#000000; stroke-linecap:round; stroke-linejoin:round; stroke-width:2; stroke-opacity:0.1; fill:none" points="1372.37,1423.18 1372.37,123.472 "/>
<polyline clip-path="url(#clip622)" style="stroke:#000000; stroke-linecap:round; stroke-linejoin:round; stroke-width:2; stroke-opacity:0.1; fill:none" points="1717.59,1423.18 1717.59,123.472 "/>
<polyline clip-path="url(#clip622)" style="stroke:#000000; stroke-linecap:round; stroke-linejoin:round; stroke-width:2; stroke-opacity:0.1; fill:none" points="2062.81,1423.18 2062.81,123.472 "/>
<polyline clip-path="url(#clip620)" style="stroke:#000000; stroke-linecap:round; stroke-linejoin:round; stroke-width:4; stroke-opacity:1; fill:none" points="219.38,1423.18 2352.76,1423.18 "/>
<polyline clip-path="url(#clip620)" style="stroke:#000000; stroke-linecap:round; stroke-linejoin:round; stroke-width:4; stroke-opacity:1; fill:none" points="336.72,1423.18 336.72,1404.28 "/>
<polyline clip-path="url(#clip620)" style="stroke:#000000; stroke-linecap:round; stroke-linejoin:round; stroke-width:4; stroke-opacity:1; fill:none" points="681.937,1423.18 681.937,1404.28 "/>
<polyline clip-path="url(#clip620)" style="stroke:#000000; stroke-linecap:round; stroke-linejoin:round; stroke-width:4; stroke-opacity:1; fill:none" points="1027.15,1423.18 1027.15,1404.28 "/>
<polyline clip-path="url(#clip620)" style="stroke:#000000; stroke-linecap:round; stroke-linejoin:round; stroke-width:4; stroke-opacity:1; fill:none" points="1372.37,1423.18 1372.37,1404.28 "/>
<polyline clip-path="url(#clip620)" style="stroke:#000000; stroke-linecap:round; stroke-linejoin:round; stroke-width:4; stroke-opacity:1; fill:none" points="1717.59,1423.18 1717.59,1404.28 "/>
<polyline clip-path="url(#clip620)" style="stroke:#000000; stroke-linecap:round; stroke-linejoin:round; stroke-width:4; stroke-opacity:1; fill:none" points="2062.81,1423.18 2062.81,1404.28 "/>
<path clip-path="url(#clip620)" d="M336.72 1454.1 Q333.109 1454.1 331.28 1457.66 Q329.474 1461.2 329.474 1468.33 Q329.474 1475.44 331.28 1479.01 Q333.109 1482.55 336.72 1482.55 Q340.354 1482.55 342.159 1479.01 Q343.988 1475.44 343.988 1468.33 Q343.988 1461.2 342.159 1457.66 Q340.354 1454.1 336.72 1454.1 M336.72 1450.39 Q342.53 1450.39 345.585 1455 Q348.664 1459.58 348.664 1468.33 Q348.664 1477.06 345.585 1481.67 Q342.53 1486.25 336.72 1486.25 Q330.909 1486.25 327.831 1481.67 Q324.775 1477.06 324.775 1468.33 Q324.775 1459.58 327.831 1455 Q330.909 1450.39 336.72 1450.39 Z" fill="#000000" fill-rule="nonzero" fill-opacity="1" /><path clip-path="url(#clip620)" d="M672.215 1451.02 L690.571 1451.02 L690.571 1454.96 L676.497 1454.96 L676.497 1463.43 Q677.516 1463.08 678.534 1462.92 Q679.553 1462.73 680.571 1462.73 Q686.358 1462.73 689.738 1465.9 Q693.118 1469.08 693.118 1474.49 Q693.118 1480.07 689.646 1483.17 Q686.173 1486.25 679.854 1486.25 Q677.678 1486.25 675.409 1485.88 Q673.164 1485.51 670.757 1484.77 L670.757 1480.07 Q672.84 1481.2 675.062 1481.76 Q677.284 1482.32 679.761 1482.32 Q683.766 1482.32 686.104 1480.21 Q688.442 1478.1 688.442 1474.49 Q688.442 1470.88 686.104 1468.77 Q683.766 1466.67 679.761 1466.67 Q677.886 1466.67 676.011 1467.08 Q674.159 1467.5 672.215 1468.38 L672.215 1451.02 Z" fill="#000000" fill-rule="nonzero" fill-opacity="1" /><path clip-path="url(#clip620)" d="M1001.84 1481.64 L1009.48 1481.64 L1009.48 1455.28 L1001.17 1456.95 L1001.17 1452.69 L1009.44 1451.02 L1014.11 1451.02 L1014.11 1481.64 L1021.75 1481.64 L1021.75 1485.58 L1001.84 1485.58 L1001.84 1481.64 Z" fill="#000000" fill-rule="nonzero" fill-opacity="1" /><path clip-path="url(#clip620)" d="M1041.19 1454.1 Q1037.58 1454.1 1035.75 1457.66 Q1033.95 1461.2 1033.95 1468.33 Q1033.95 1475.44 1035.75 1479.01 Q1037.58 1482.55 1041.19 1482.55 Q1044.83 1482.55 1046.63 1479.01 Q1048.46 1475.44 1048.46 1468.33 Q1048.46 1461.2 1046.63 1457.66 Q1044.83 1454.1 1041.19 1454.1 M1041.19 1450.39 Q1047 1450.39 1050.06 1455 Q1053.14 1459.58 1053.14 1468.33 Q1053.14 1477.06 1050.06 1481.67 Q1047 1486.25 1041.19 1486.25 Q1035.38 1486.25 1032.31 1481.67 Q1029.25 1477.06 1029.25 1468.33 Q1029.25 1459.58 1032.31 1455 Q1035.38 1450.39 1041.19 1450.39 Z" fill="#000000" fill-rule="nonzero" fill-opacity="1" /><path clip-path="url(#clip620)" d="M1347.56 1481.64 L1355.2 1481.64 L1355.2 1455.28 L1346.89 1456.95 L1346.89 1452.69 L1355.15 1451.02 L1359.83 1451.02 L1359.83 1481.64 L1367.47 1481.64 L1367.47 1485.58 L1347.56 1485.58 L1347.56 1481.64 Z" fill="#000000" fill-rule="nonzero" fill-opacity="1" /><path clip-path="url(#clip620)" d="M1376.96 1451.02 L1395.31 1451.02 L1395.31 1454.96 L1381.24 1454.96 L1381.24 1463.43 Q1382.26 1463.08 1383.28 1462.92 Q1384.29 1462.73 1385.31 1462.73 Q1391.1 1462.73 1394.48 1465.9 Q1397.86 1469.08 1397.86 1474.49 Q1397.86 1480.07 1394.39 1483.17 Q1390.91 1486.25 1384.59 1486.25 Q1382.42 1486.25 1380.15 1485.88 Q1377.9 1485.51 1375.5 1484.77 L1375.5 1480.07 Q1377.58 1481.2 1379.8 1481.76 Q1382.03 1482.32 1384.5 1482.32 Q1388.51 1482.32 1390.84 1480.21 Q1393.18 1478.1 1393.18 1474.49 Q1393.18 1470.88 1390.84 1468.77 Q1388.51 1466.67 1384.5 1466.67 Q1382.63 1466.67 1380.75 1467.08 Q1378.9 1467.5 1376.96 1468.38 L1376.96 1451.02 Z" fill="#000000" fill-rule="nonzero" fill-opacity="1" /><path clip-path="url(#clip620)" d="M1696.36 1481.64 L1712.68 1481.64 L1712.68 1485.58 L1690.74 1485.58 L1690.74 1481.64 Q1693.4 1478.89 1697.98 1474.26 Q1702.59 1469.61 1703.77 1468.27 Q1706.02 1465.74 1706.9 1464.01 Q1707.8 1462.25 1707.8 1460.56 Q1707.8 1457.8 1705.85 1456.07 Q1703.93 1454.33 1700.83 1454.33 Q1698.63 1454.33 1696.18 1455.09 Q1693.75 1455.86 1690.97 1457.41 L1690.97 1452.69 Q1693.79 1451.55 1696.25 1450.97 Q1698.7 1450.39 1700.74 1450.39 Q1706.11 1450.39 1709.3 1453.08 Q1712.5 1455.77 1712.5 1460.26 Q1712.5 1462.39 1711.69 1464.31 Q1710.9 1466.2 1708.79 1468.8 Q1708.22 1469.47 1705.11 1472.69 Q1702.01 1475.88 1696.36 1481.64 Z" fill="#000000" fill-rule="nonzero" fill-opacity="1" /><path clip-path="url(#clip620)" d="M1732.5 1454.1 Q1728.89 1454.1 1727.06 1457.66 Q1725.25 1461.2 1725.25 1468.33 Q1725.25 1475.44 1727.06 1479.01 Q1728.89 1482.55 1732.5 1482.55 Q1736.13 1482.55 1737.94 1479.01 Q1739.77 1475.44 1739.77 1468.33 Q1739.77 1461.2 1737.94 1457.66 Q1736.13 1454.1 1732.5 1454.1 M1732.5 1450.39 Q1738.31 1450.39 1741.36 1455 Q1744.44 1459.58 1744.44 1468.33 Q1744.44 1477.06 1741.36 1481.67 Q1738.31 1486.25 1732.5 1486.25 Q1726.69 1486.25 1723.61 1481.67 Q1720.55 1477.06 1720.55 1468.33 Q1720.55 1459.58 1723.61 1455 Q1726.69 1450.39 1732.5 1450.39 Z" fill="#000000" fill-rule="nonzero" fill-opacity="1" /><path clip-path="url(#clip620)" d="M2042.08 1481.64 L2058.4 1481.64 L2058.4 1485.58 L2036.45 1485.58 L2036.45 1481.64 Q2039.12 1478.89 2043.7 1474.26 Q2048.31 1469.61 2049.49 1468.27 Q2051.73 1465.74 2052.61 1464.01 Q2053.51 1462.25 2053.51 1460.56 Q2053.51 1457.8 2051.57 1456.07 Q2049.65 1454.33 2046.55 1454.33 Q2044.35 1454.33 2041.89 1455.09 Q2039.46 1455.86 2036.69 1457.41 L2036.69 1452.69 Q2039.51 1451.55 2041.96 1450.97 Q2044.42 1450.39 2046.45 1450.39 Q2051.82 1450.39 2055.02 1453.08 Q2058.21 1455.77 2058.21 1460.26 Q2058.21 1462.39 2057.4 1464.31 Q2056.62 1466.2 2054.51 1468.8 Q2053.93 1469.47 2050.83 1472.69 Q2047.73 1475.88 2042.08 1481.64 Z" fill="#000000" fill-rule="nonzero" fill-opacity="1" /><path clip-path="url(#clip620)" d="M2068.26 1451.02 L2086.62 1451.02 L2086.62 1454.96 L2072.54 1454.96 L2072.54 1463.43 Q2073.56 1463.08 2074.58 1462.92 Q2075.6 1462.73 2076.62 1462.73 Q2082.4 1462.73 2085.78 1465.9 Q2089.16 1469.08 2089.16 1474.49 Q2089.16 1480.07 2085.69 1483.17 Q2082.22 1486.25 2075.9 1486.25 Q2073.72 1486.25 2071.45 1485.88 Q2069.21 1485.51 2066.8 1484.77 L2066.8 1480.07 Q2068.88 1481.2 2071.11 1481.76 Q2073.33 1482.32 2075.81 1482.32 Q2079.81 1482.32 2082.15 1480.21 Q2084.49 1478.1 2084.49 1474.49 Q2084.49 1470.88 2082.15 1468.77 Q2079.81 1466.67 2075.81 1466.67 Q2073.93 1466.67 2072.06 1467.08 Q2070.2 1467.5 2068.26 1468.38 L2068.26 1451.02 Z" fill="#000000" fill-rule="nonzero" fill-opacity="1" /><path clip-path="url(#clip620)" d="M1137.84 1520.52 L1147.42 1520.52 L1159.55 1552.86 L1171.74 1520.52 L1181.32 1520.52 L1181.32 1568.04 L1175.05 1568.04 L1175.05 1526.32 L1162.8 1558.91 L1156.33 1558.91 L1144.08 1526.32 L1144.08 1568.04 L1137.84 1568.04 L1137.84 1520.52 Z" fill="#000000" fill-rule="nonzero" fill-opacity="1" /><path clip-path="url(#clip620)" d="M1207.64 1536.5 Q1202.93 1536.5 1200.19 1540.19 Q1197.46 1543.85 1197.46 1550.25 Q1197.46 1556.65 1200.16 1560.34 Q1202.9 1564 1207.64 1564 Q1212.32 1564 1215.06 1560.31 Q1217.8 1556.62 1217.8 1550.25 Q1217.8 1543.92 1215.06 1540.23 Q1212.32 1536.5 1207.64 1536.5 M1207.64 1531.54 Q1215.28 1531.54 1219.64 1536.5 Q1224 1541.47 1224 1550.25 Q1224 1559 1219.64 1564 Q1215.28 1568.97 1207.64 1568.97 Q1199.97 1568.97 1195.61 1564 Q1191.28 1559 1191.28 1550.25 Q1191.28 1541.47 1195.61 1536.5 Q1199.97 1531.54 1207.64 1531.54 Z" fill="#000000" fill-rule="nonzero" fill-opacity="1" /><path clip-path="url(#clip620)" d="M1263.34 1546.53 L1263.34 1568.04 L1257.49 1568.04 L1257.49 1546.72 Q1257.49 1541.66 1255.51 1539.14 Q1253.54 1536.63 1249.59 1536.63 Q1244.85 1536.63 1242.11 1539.65 Q1239.38 1542.68 1239.38 1547.9 L1239.38 1568.04 L1233.49 1568.04 L1233.49 1532.4 L1239.38 1532.4 L1239.38 1537.93 Q1241.48 1534.72 1244.31 1533.13 Q1247.17 1531.54 1250.9 1531.54 Q1257.04 1531.54 1260.19 1535.36 Q1263.34 1539.14 1263.34 1546.53 Z" fill="#000000" fill-rule="nonzero" fill-opacity="1" /><path clip-path="url(#clip620)" d="M1305.52 1548.76 L1305.52 1551.62 L1278.59 1551.62 Q1278.97 1557.67 1282.22 1560.85 Q1285.5 1564 1291.32 1564 Q1294.69 1564 1297.84 1563.17 Q1301.03 1562.35 1304.15 1560.69 L1304.15 1566.23 Q1301 1567.57 1297.69 1568.27 Q1294.38 1568.97 1290.97 1568.97 Q1282.44 1568.97 1277.44 1564 Q1272.48 1559.04 1272.48 1550.57 Q1272.48 1541.82 1277.19 1536.69 Q1281.93 1531.54 1289.95 1531.54 Q1297.14 1531.54 1301.31 1536.18 Q1305.52 1540.8 1305.52 1548.76 M1299.66 1547.04 Q1299.6 1542.23 1296.95 1539.37 Q1294.34 1536.5 1290.01 1536.5 Q1285.11 1536.5 1282.15 1539.27 Q1279.22 1542.04 1278.78 1547.07 L1299.66 1547.04 Z" fill="#000000" fill-rule="nonzero" fill-opacity="1" /><path clip-path="url(#clip620)" d="M1329.96 1571.35 Q1327.48 1577.72 1325.12 1579.66 Q1322.77 1581.6 1318.82 1581.6 L1314.14 1581.6 L1314.14 1576.7 L1317.58 1576.7 Q1320 1576.7 1321.33 1575.56 Q1322.67 1574.41 1324.29 1570.14 L1325.34 1567.47 L1310.93 1532.4 L1317.13 1532.4 L1328.27 1560.28 L1339.41 1532.4 L1345.62 1532.4 L1329.96 1571.35 Z" fill="#000000" fill-rule="nonzero" fill-opacity="1" /><path clip-path="url(#clip620)" d="M1367.77 1518.58 Q1363.51 1525.9 1361.44 1533.06 Q1359.37 1540.23 1359.37 1547.58 Q1359.37 1554.93 1361.44 1562.16 Q1363.54 1569.35 1367.77 1576.64 L1362.68 1576.64 Q1357.91 1569.16 1355.52 1561.93 Q1353.16 1554.71 1353.16 1547.58 Q1353.16 1540.48 1355.52 1533.29 Q1357.87 1526.09 1362.68 1518.58 L1367.77 1518.58 Z" fill="#000000" fill-rule="nonzero" fill-opacity="1" /><path clip-path="url(#clip620)" d="M1395.02 1577.62 L1391.83 1577.62 L1391.8 1568.04 Q1388.46 1567.98 1385.12 1567.28 Q1381.78 1566.55 1378.4 1565.12 L1378.4 1559.39 Q1381.65 1561.42 1384.96 1562.47 Q1388.3 1563.49 1391.83 1563.52 L1391.83 1549.01 Q1384.8 1547.86 1381.59 1545.13 Q1378.4 1542.39 1378.4 1537.62 Q1378.4 1532.43 1381.87 1529.44 Q1385.34 1526.44 1391.83 1526 L1391.83 1518.52 L1395.02 1518.52 L1395.02 1525.9 Q1397.98 1526.03 1400.75 1526.54 Q1403.52 1527.02 1406.16 1527.88 L1406.16 1533.45 Q1403.52 1532.11 1400.71 1531.38 Q1397.95 1530.65 1395.02 1530.52 L1395.02 1544.11 Q1402.24 1545.22 1405.65 1548.09 Q1409.05 1550.95 1409.05 1555.92 Q1409.05 1561.3 1405.43 1564.42 Q1401.83 1567.5 1395.02 1567.98 L1395.02 1577.62 M1391.83 1543.54 L1391.83 1530.49 Q1388.14 1530.9 1386.2 1532.59 Q1384.26 1534.27 1384.26 1537.07 Q1384.26 1539.81 1386.04 1541.34 Q1387.86 1542.87 1391.83 1543.54 M1395.02 1549.65 L1395.02 1563.43 Q1399.06 1562.89 1401.1 1561.14 Q1403.17 1559.39 1403.17 1556.52 Q1403.17 1553.72 1401.19 1552.07 Q1399.25 1550.41 1395.02 1549.65 Z" fill="#000000" fill-rule="nonzero" fill-opacity="1" /><path clip-path="url(#clip620)" d="M1419.68 1518.58 L1424.78 1518.58 Q1429.55 1526.09 1431.91 1533.29 Q1434.29 1540.48 1434.29 1547.58 Q1434.29 1554.71 1431.91 1561.93 Q1429.55 1569.16 1424.78 1576.64 L1419.68 1576.64 Q1423.92 1569.35 1425.99 1562.16 Q1428.09 1554.93 1428.09 1547.58 Q1428.09 1540.23 1425.99 1533.06 Q1423.92 1525.9 1419.68 1518.58 Z" fill="#000000" fill-rule="nonzero" fill-opacity="1" /><polyline clip-path="url(#clip622)" style="stroke:#000000; stroke-linecap:round; stroke-linejoin:round; stroke-width:2; stroke-opacity:0.1; fill:none" points="219.38,1423.18 2352.76,1423.18 "/>
<polyline clip-path="url(#clip622)" style="stroke:#000000; stroke-linecap:round; stroke-linejoin:round; stroke-width:2; stroke-opacity:0.1; fill:none" points="219.38,1062.15 2352.76,1062.15 "/>
<polyline clip-path="url(#clip622)" style="stroke:#000000; stroke-linecap:round; stroke-linejoin:round; stroke-width:2; stroke-opacity:0.1; fill:none" points="219.38,701.12 2352.76,701.12 "/>
<polyline clip-path="url(#clip622)" style="stroke:#000000; stroke-linecap:round; stroke-linejoin:round; stroke-width:2; stroke-opacity:0.1; fill:none" points="219.38,340.09 2352.76,340.09 "/>
<polyline clip-path="url(#clip620)" style="stroke:#000000; stroke-linecap:round; stroke-linejoin:round; stroke-width:4; stroke-opacity:1; fill:none" points="219.38,1423.18 219.38,123.472 "/>
<polyline clip-path="url(#clip620)" style="stroke:#000000; stroke-linecap:round; stroke-linejoin:round; stroke-width:4; stroke-opacity:1; fill:none" points="219.38,1423.18 238.278,1423.18 "/>
<polyline clip-path="url(#clip620)" style="stroke:#000000; stroke-linecap:round; stroke-linejoin:round; stroke-width:4; stroke-opacity:1; fill:none" points="219.38,1062.15 238.278,1062.15 "/>
<polyline clip-path="url(#clip620)" style="stroke:#000000; stroke-linecap:round; stroke-linejoin:round; stroke-width:4; stroke-opacity:1; fill:none" points="219.38,701.12 238.278,701.12 "/>
<polyline clip-path="url(#clip620)" style="stroke:#000000; stroke-linecap:round; stroke-linejoin:round; stroke-width:4; stroke-opacity:1; fill:none" points="219.38,340.09 238.278,340.09 "/>
<path clip-path="url(#clip620)" d="M126.205 1408.98 Q122.593 1408.98 120.765 1412.54 Q118.959 1416.08 118.959 1423.21 Q118.959 1430.32 120.765 1433.89 Q122.593 1437.43 126.205 1437.43 Q129.839 1437.43 131.644 1433.89 Q133.473 1430.32 133.473 1423.21 Q133.473 1416.08 131.644 1412.54 Q129.839 1408.98 126.205 1408.98 M126.205 1405.27 Q132.015 1405.27 135.07 1409.88 Q138.149 1414.46 138.149 1423.21 Q138.149 1431.94 135.07 1436.55 Q132.015 1441.13 126.205 1441.13 Q120.394 1441.13 117.316 1436.55 Q114.26 1431.94 114.26 1423.21 Q114.26 1414.46 117.316 1409.88 Q120.394 1405.27 126.205 1405.27 Z" fill="#000000" fill-rule="nonzero" fill-opacity="1" /><path clip-path="url(#clip620)" d="M146.366 1434.58 L151.251 1434.58 L151.251 1440.46 L146.366 1440.46 L146.366 1434.58 Z" fill="#000000" fill-rule="nonzero" fill-opacity="1" /><path clip-path="url(#clip620)" d="M171.436 1408.98 Q167.825 1408.98 165.996 1412.54 Q164.19 1416.08 164.19 1423.21 Q164.19 1430.32 165.996 1433.89 Q167.825 1437.43 171.436 1437.43 Q175.07 1437.43 176.876 1433.89 Q178.704 1430.32 178.704 1423.21 Q178.704 1416.08 176.876 1412.54 Q175.07 1408.98 171.436 1408.98 M171.436 1405.27 Q177.246 1405.27 180.301 1409.88 Q183.38 1414.46 183.38 1423.21 Q183.38 1431.94 180.301 1436.55 Q177.246 1441.13 171.436 1441.13 Q165.626 1441.13 162.547 1436.55 Q159.491 1431.94 159.491 1423.21 Q159.491 1414.46 162.547 1409.88 Q165.626 1405.27 171.436 1405.27 Z" fill="#000000" fill-rule="nonzero" fill-opacity="1" /><path clip-path="url(#clip620)" d="M127.431 1047.95 Q123.82 1047.95 121.992 1051.51 Q120.186 1055.06 120.186 1062.18 Q120.186 1069.29 121.992 1072.86 Q123.82 1076.4 127.431 1076.4 Q131.066 1076.4 132.871 1072.86 Q134.7 1069.29 134.7 1062.18 Q134.7 1055.06 132.871 1051.51 Q131.066 1047.95 127.431 1047.95 M127.431 1044.24 Q133.242 1044.24 136.297 1048.85 Q139.376 1053.43 139.376 1062.18 Q139.376 1070.91 136.297 1075.52 Q133.242 1080.1 127.431 1080.1 Q121.621 1080.1 118.543 1075.52 Q115.487 1070.91 115.487 1062.18 Q115.487 1053.43 118.543 1048.85 Q121.621 1044.24 127.431 1044.24 Z" fill="#000000" fill-rule="nonzero" fill-opacity="1" /><path clip-path="url(#clip620)" d="M147.593 1073.55 L152.478 1073.55 L152.478 1079.43 L147.593 1079.43 L147.593 1073.55 Z" fill="#000000" fill-rule="nonzero" fill-opacity="1" /><path clip-path="url(#clip620)" d="M163.473 1075.49 L171.112 1075.49 L171.112 1049.13 L162.802 1050.8 L162.802 1046.54 L171.065 1044.87 L175.741 1044.87 L175.741 1075.49 L183.38 1075.49 L183.38 1079.43 L163.473 1079.43 L163.473 1075.49 Z" fill="#000000" fill-rule="nonzero" fill-opacity="1" /><path clip-path="url(#clip620)" d="M127.802 686.919 Q124.191 686.919 122.362 690.483 Q120.556 694.025 120.556 701.155 Q120.556 708.261 122.362 711.826 Q124.191 715.368 127.802 715.368 Q131.436 715.368 133.242 711.826 Q135.07 708.261 135.07 701.155 Q135.07 694.025 133.242 690.483 Q131.436 686.919 127.802 686.919 M127.802 683.215 Q133.612 683.215 136.667 687.821 Q139.746 692.405 139.746 701.155 Q139.746 709.882 136.667 714.488 Q133.612 719.071 127.802 719.071 Q121.992 719.071 118.913 714.488 Q115.857 709.882 115.857 701.155 Q115.857 692.405 118.913 687.821 Q121.992 683.215 127.802 683.215 Z" fill="#000000" fill-rule="nonzero" fill-opacity="1" /><path clip-path="url(#clip620)" d="M147.964 712.52 L152.848 712.52 L152.848 718.4 L147.964 718.4 L147.964 712.52 Z" fill="#000000" fill-rule="nonzero" fill-opacity="1" /><path clip-path="url(#clip620)" d="M167.061 714.465 L183.38 714.465 L183.38 718.4 L161.436 718.4 L161.436 714.465 Q164.098 711.71 168.681 707.081 Q173.288 702.428 174.468 701.085 Q176.714 698.562 177.593 696.826 Q178.496 695.067 178.496 693.377 Q178.496 690.622 176.551 688.886 Q174.63 687.15 171.528 687.15 Q169.329 687.15 166.876 687.914 Q164.445 688.678 161.667 690.229 L161.667 685.507 Q164.491 684.372 166.945 683.794 Q169.399 683.215 171.436 683.215 Q176.806 683.215 180.001 685.9 Q183.195 688.585 183.195 693.076 Q183.195 695.206 182.385 697.127 Q181.598 699.025 179.491 701.618 Q178.913 702.289 175.811 705.507 Q172.709 708.701 167.061 714.465 Z" fill="#000000" fill-rule="nonzero" fill-opacity="1" /><path clip-path="url(#clip620)" d="M126.853 325.889 Q123.242 325.889 121.413 329.454 Q119.607 332.995 119.607 340.125 Q119.607 347.231 121.413 350.796 Q123.242 354.338 126.853 354.338 Q130.487 354.338 132.292 350.796 Q134.121 347.231 134.121 340.125 Q134.121 332.995 132.292 329.454 Q130.487 325.889 126.853 325.889 M126.853 322.185 Q132.663 322.185 135.718 326.792 Q138.797 331.375 138.797 340.125 Q138.797 348.852 135.718 353.458 Q132.663 358.041 126.853 358.041 Q121.043 358.041 117.964 353.458 Q114.908 348.852 114.908 340.125 Q114.908 331.375 117.964 326.792 Q121.043 322.185 126.853 322.185 Z" fill="#000000" fill-rule="nonzero" fill-opacity="1" /><path clip-path="url(#clip620)" d="M147.015 351.49 L151.899 351.49 L151.899 357.37 L147.015 357.37 L147.015 351.49 Z" fill="#000000" fill-rule="nonzero" fill-opacity="1" /><path clip-path="url(#clip620)" d="M176.251 338.736 Q179.607 339.454 181.482 341.722 Q183.38 343.991 183.38 347.324 Q183.38 352.44 179.862 355.24 Q176.343 358.041 169.862 358.041 Q167.686 358.041 165.371 357.602 Q163.079 357.185 160.626 356.328 L160.626 351.815 Q162.57 352.949 164.885 353.528 Q167.2 354.106 169.723 354.106 Q174.121 354.106 176.413 352.37 Q178.727 350.634 178.727 347.324 Q178.727 344.268 176.575 342.555 Q174.445 340.819 170.626 340.819 L166.598 340.819 L166.598 336.977 L170.811 336.977 Q174.26 336.977 176.089 335.611 Q177.917 334.222 177.917 331.629 Q177.917 328.967 176.019 327.555 Q174.144 326.12 170.626 326.12 Q168.704 326.12 166.505 326.537 Q164.306 326.954 161.667 327.833 L161.667 323.667 Q164.329 322.926 166.644 322.555 Q168.982 322.185 171.042 322.185 Q176.366 322.185 179.468 324.616 Q182.57 327.023 182.57 331.143 Q182.57 334.014 180.926 336.004 Q179.283 337.972 176.251 338.736 Z" fill="#000000" fill-rule="nonzero" fill-opacity="1" /><path clip-path="url(#clip620)" d="M58.657 937.402 L77.5631 937.402 L77.5631 943.29 L28.3562 943.29 L28.3562 937.402 L33.7671 937.402 Q30.5842 935.556 29.0564 932.755 Q27.4968 929.922 27.4968 926.007 Q27.4968 919.514 32.6531 915.472 Q37.8093 911.398 46.212 911.398 Q54.6147 911.398 59.771 915.472 Q64.9272 919.514 64.9272 926.007 Q64.9272 929.922 63.3994 932.755 Q61.8398 935.556 58.657 937.402 M46.212 917.477 Q39.7508 917.477 36.0905 920.151 Q32.3984 922.793 32.3984 927.44 Q32.3984 932.087 36.0905 934.76 Q39.7508 937.402 46.212 937.402 Q52.6732 937.402 56.3653 934.76 Q60.0256 932.087 60.0256 927.44 Q60.0256 922.793 56.3653 920.151 Q52.6732 917.477 46.212 917.477 Z" fill="#000000" fill-rule="nonzero" fill-opacity="1" /><path clip-path="url(#clip620)" d="M33.8307 881.034 Q33.2578 882.02 33.0032 883.198 Q32.7167 884.344 32.7167 885.744 Q32.7167 890.71 35.9632 893.383 Q39.1779 896.025 45.2253 896.025 L64.0042 896.025 L64.0042 901.913 L28.3562 901.913 L28.3562 896.025 L33.8944 896.025 Q30.6479 894.179 29.0883 891.219 Q27.4968 888.259 27.4968 884.026 Q27.4968 883.421 27.5923 882.689 Q27.656 881.957 27.8151 881.066 L33.8307 881.034 Z" fill="#000000" fill-rule="nonzero" fill-opacity="1" /><path clip-path="url(#clip620)" d="M32.4621 862.51 Q32.4621 867.22 36.1542 869.957 Q39.8145 872.695 46.212 872.695 Q52.6095 872.695 56.3017 869.989 Q59.9619 867.252 59.9619 862.51 Q59.9619 857.831 56.2698 855.093 Q52.5777 852.356 46.212 852.356 Q39.8781 852.356 36.186 855.093 Q32.4621 857.831 32.4621 862.51 M27.4968 862.51 Q27.4968 854.871 32.4621 850.51 Q37.4273 846.15 46.212 846.15 Q54.9649 846.15 59.9619 850.51 Q64.9272 854.871 64.9272 862.51 Q64.9272 870.18 59.9619 874.541 Q54.9649 878.869 46.212 878.869 Q37.4273 878.869 32.4621 874.541 Q27.4968 870.18 27.4968 862.51 Z" fill="#000000" fill-rule="nonzero" fill-opacity="1" /><path clip-path="url(#clip620)" d="M46.212 810.852 Q39.7508 810.852 36.0905 813.525 Q32.3984 816.167 32.3984 820.814 Q32.3984 825.461 36.0905 828.135 Q39.7508 830.776 46.212 830.776 Q52.6732 830.776 56.3653 828.135 Q60.0256 825.461 60.0256 820.814 Q60.0256 816.167 56.3653 813.525 Q52.6732 810.852 46.212 810.852 M33.7671 830.776 Q30.5842 828.93 29.0564 826.13 Q27.4968 823.297 27.4968 819.382 Q27.4968 812.889 32.6531 808.847 Q37.8093 804.773 46.212 804.773 Q54.6147 804.773 59.771 808.847 Q64.9272 812.889 64.9272 819.382 Q64.9272 823.297 63.3994 826.13 Q61.8398 828.93 58.657 830.776 L64.0042 830.776 L64.0042 836.665 L14.479 836.665 L14.479 830.776 L33.7671 830.776 Z" fill="#000000" fill-rule="nonzero" fill-opacity="1" /><path clip-path="url(#clip620)" d="M46.0847 778.864 Q46.0847 785.962 47.7079 788.699 Q49.3312 791.436 53.2461 791.436 Q56.3653 791.436 58.2114 789.399 Q60.0256 787.331 60.0256 783.798 Q60.0256 778.928 56.5881 776 Q53.1188 773.04 47.3897 773.04 L46.0847 773.04 L46.0847 778.864 M43.6657 767.183 L64.0042 767.183 L64.0042 773.04 L58.5933 773.04 Q61.8398 775.045 63.3994 778.037 Q64.9272 781.028 64.9272 785.357 Q64.9272 790.832 61.8716 794.078 Q58.7843 797.293 53.6281 797.293 Q47.6125 797.293 44.5569 793.282 Q41.5014 789.24 41.5014 781.251 L41.5014 773.04 L40.9285 773.04 Q36.8862 773.04 34.6901 775.713 Q32.4621 778.355 32.4621 783.161 Q32.4621 786.217 33.1941 789.113 Q33.9262 792.009 35.3903 794.683 L29.9795 794.683 Q28.7381 791.468 28.1334 788.445 Q27.4968 785.421 27.4968 782.556 Q27.4968 774.822 31.5072 771.003 Q35.5176 767.183 43.6657 767.183 Z" fill="#000000" fill-rule="nonzero" fill-opacity="1" /><path clip-path="url(#clip620)" d="M46.212 729.53 Q39.7508 729.53 36.0905 732.204 Q32.3984 734.845 32.3984 739.492 Q32.3984 744.139 36.0905 746.813 Q39.7508 749.455 46.212 749.455 Q52.6732 749.455 56.3653 746.813 Q60.0256 744.139 60.0256 739.492 Q60.0256 734.845 56.3653 732.204 Q52.6732 729.53 46.212 729.53 M33.7671 749.455 Q30.5842 747.609 29.0564 744.808 Q27.4968 741.975 27.4968 738.06 Q27.4968 731.567 32.6531 727.525 Q37.8093 723.451 46.212 723.451 Q54.6147 723.451 59.771 727.525 Q64.9272 731.567 64.9272 738.06 Q64.9272 741.975 63.3994 744.808 Q61.8398 747.609 58.657 749.455 L64.0042 749.455 L64.0042 755.343 L14.479 755.343 L14.479 749.455 L33.7671 749.455 Z" fill="#000000" fill-rule="nonzero" fill-opacity="1" /><path clip-path="url(#clip620)" d="M28.3562 713.743 L28.3562 707.887 L64.0042 707.887 L64.0042 713.743 L28.3562 713.743 M14.479 713.743 L14.479 707.887 L21.895 707.887 L21.895 713.743 L14.479 713.743 Z" fill="#000000" fill-rule="nonzero" fill-opacity="1" /><path clip-path="url(#clip620)" d="M14.479 695.633 L14.479 689.776 L64.0042 689.776 L64.0042 695.633 L14.479 695.633 Z" fill="#000000" fill-rule="nonzero" fill-opacity="1" /><path clip-path="url(#clip620)" d="M28.3562 677.522 L28.3562 671.666 L64.0042 671.666 L64.0042 677.522 L28.3562 677.522 M14.479 677.522 L14.479 671.666 L21.895 671.666 L21.895 677.522 L14.479 677.522 Z" fill="#000000" fill-rule="nonzero" fill-opacity="1" /><path clip-path="url(#clip620)" d="M18.2347 653.619 L28.3562 653.619 L28.3562 641.556 L32.9077 641.556 L32.9077 653.619 L52.2594 653.619 Q56.6199 653.619 57.8613 652.441 Q59.1026 651.232 59.1026 647.571 L59.1026 641.556 L64.0042 641.556 L64.0042 647.571 Q64.0042 654.351 61.4897 656.929 Q58.9434 659.507 52.2594 659.507 L32.9077 659.507 L32.9077 663.804 L28.3562 663.804 L28.3562 659.507 L18.2347 659.507 L18.2347 653.619 Z" fill="#000000" fill-rule="nonzero" fill-opacity="1" /><path clip-path="url(#clip620)" d="M67.3143 619.021 Q73.68 621.504 75.6216 623.859 Q77.5631 626.215 77.5631 630.161 L77.5631 634.84 L72.6615 634.84 L72.6615 631.403 Q72.6615 628.984 71.5157 627.647 Q70.3699 626.31 66.1048 624.687 L63.4312 623.636 L28.3562 638.055 L28.3562 631.848 L56.238 620.708 L28.3562 609.568 L28.3562 603.362 L67.3143 619.021 Z" fill="#000000" fill-rule="nonzero" fill-opacity="1" /><path clip-path="url(#clip620)" d="M356.001 12.096 L364.184 12.096 L364.184 36.8875 L393.917 36.8875 L393.917 12.096 L402.1 12.096 L402.1 72.576 L393.917 72.576 L393.917 43.7741 L364.184 43.7741 L364.184 72.576 L356.001 72.576 L356.001 12.096 Z" fill="#000000" fill-rule="nonzero" fill-opacity="1" /><path clip-path="url(#clip620)" d="M418.061 27.2059 L425.514 27.2059 L425.514 72.576 L418.061 72.576 L418.061 27.2059 M418.061 9.54393 L425.514 9.54393 L425.514 18.9825 L418.061 18.9825 L418.061 9.54393 Z" fill="#000000" fill-rule="nonzero" fill-opacity="1" /><path clip-path="url(#clip620)" d="M470.034 28.5427 L470.034 35.5912 Q466.874 33.9709 463.471 33.1607 Q460.068 32.3505 456.423 32.3505 Q450.873 32.3505 448.078 34.0519 Q445.323 35.7533 445.323 39.156 Q445.323 41.7486 447.308 43.2475 Q449.293 44.7058 455.288 46.0426 L457.84 46.6097 Q465.78 48.3111 469.102 51.4303 Q472.464 54.509 472.464 60.0587 Q472.464 66.3781 467.441 70.0644 Q462.458 73.7508 453.708 73.7508 Q450.063 73.7508 446.093 73.0216 Q442.163 72.3329 437.788 70.9151 L437.788 63.2184 Q441.92 65.3654 445.931 66.4591 Q449.941 67.5124 453.871 67.5124 Q459.137 67.5124 461.972 65.73 Q464.808 63.9071 464.808 60.6258 Q464.808 57.5877 462.742 55.9673 Q460.717 54.3469 453.79 52.8481 L451.197 52.2405 Q444.27 50.7821 441.191 47.7845 Q438.113 44.7463 438.113 39.4801 Q438.113 33.0797 442.65 29.5959 Q447.187 26.1121 455.531 26.1121 Q459.663 26.1121 463.309 26.7198 Q466.955 27.3274 470.034 28.5427 Z" fill="#000000" fill-rule="nonzero" fill-opacity="1" /><path clip-path="url(#clip620)" d="M491.706 14.324 L491.706 27.2059 L507.059 27.2059 L507.059 32.9987 L491.706 32.9987 L491.706 57.6282 Q491.706 63.1779 493.205 64.7578 Q494.744 66.3376 499.403 66.3376 L507.059 66.3376 L507.059 72.576 L499.403 72.576 Q490.774 72.576 487.493 69.3758 Q484.212 66.1351 484.212 57.6282 L484.212 32.9987 L478.743 32.9987 L478.743 27.2059 L484.212 27.2059 L484.212 14.324 L491.706 14.324 Z" fill="#000000" fill-rule="nonzero" fill-opacity="1" /><path clip-path="url(#clip620)" d="M534.443 32.4315 Q528.448 32.4315 524.964 37.1306 Q521.48 41.7891 521.48 49.9314 Q521.48 58.0738 524.923 62.7728 Q528.407 67.4314 534.443 67.4314 Q540.398 67.4314 543.882 62.7323 Q547.365 58.0333 547.365 49.9314 Q547.365 41.8701 543.882 37.1711 Q540.398 32.4315 534.443 32.4315 M534.443 26.1121 Q544.165 26.1121 549.715 32.4315 Q555.265 38.7509 555.265 49.9314 Q555.265 61.0714 549.715 67.4314 Q544.165 73.7508 534.443 73.7508 Q524.68 73.7508 519.131 67.4314 Q513.621 61.0714 513.621 49.9314 Q513.621 38.7509 519.131 32.4315 Q524.68 26.1121 534.443 26.1121 Z" fill="#000000" fill-rule="nonzero" fill-opacity="1" /><path clip-path="url(#clip620)" d="M597.475 49.3643 Q597.475 41.2625 594.113 36.8065 Q590.791 32.3505 584.755 32.3505 Q578.76 32.3505 575.398 36.8065 Q572.076 41.2625 572.076 49.3643 Q572.076 57.4256 575.398 61.8816 Q578.76 66.3376 584.755 66.3376 Q590.791 66.3376 594.113 61.8816 Q597.475 57.4256 597.475 49.3643 M604.929 66.9452 Q604.929 78.5308 599.784 84.1616 Q594.639 89.8329 584.026 89.8329 Q580.097 89.8329 576.613 89.2252 Q573.129 88.6581 569.848 87.4428 L569.848 80.1917 Q573.129 81.9741 576.329 82.8248 Q579.53 83.6755 582.851 83.6755 Q590.183 83.6755 593.829 79.8271 Q597.475 76.0193 597.475 68.282 L597.475 64.5957 Q595.166 68.6061 591.561 70.5911 Q587.955 72.576 582.932 72.576 Q574.587 72.576 569.483 66.2161 Q564.379 59.8562 564.379 49.3643 Q564.379 38.832 569.483 32.472 Q574.587 26.1121 582.932 26.1121 Q587.955 26.1121 591.561 28.0971 Q595.166 30.082 597.475 34.0924 L597.475 27.2059 L604.929 27.2059 L604.929 66.9452 Z" fill="#000000" fill-rule="nonzero" fill-opacity="1" /><path clip-path="url(#clip620)" d="M646.572 34.1734 Q645.316 33.4443 643.817 33.1202 Q642.359 32.7556 640.577 32.7556 Q634.257 32.7556 630.855 36.8875 Q627.492 40.9789 627.492 48.6757 L627.492 72.576 L619.998 72.576 L619.998 27.2059 L627.492 27.2059 L627.492 34.2544 Q629.842 30.1225 633.609 28.1376 Q637.376 26.1121 642.764 26.1121 Q643.534 26.1121 644.466 26.2337 Q645.397 26.3147 646.532 26.5172 L646.572 34.1734 Z" fill="#000000" fill-rule="nonzero" fill-opacity="1" /><path clip-path="url(#clip620)" d="M675.009 49.7694 Q665.976 49.7694 662.492 51.8354 Q659.008 53.9013 659.008 58.8839 Q659.008 62.8538 661.601 65.2034 Q664.234 67.5124 668.73 67.5124 Q674.928 67.5124 678.655 63.1374 Q682.423 58.7219 682.423 51.4303 L682.423 49.7694 L675.009 49.7694 M689.876 46.6907 L689.876 72.576 L682.423 72.576 L682.423 65.6895 Q679.87 69.8214 676.063 71.8063 Q672.255 73.7508 666.746 73.7508 Q659.778 73.7508 655.646 69.8619 Q651.555 65.9325 651.555 59.3701 Q651.555 51.7138 656.659 47.825 Q661.803 43.9361 671.971 43.9361 L682.423 43.9361 L682.423 43.2069 Q682.423 38.0623 679.02 35.2672 Q675.658 32.4315 669.541 32.4315 Q665.652 32.4315 661.965 33.3632 Q658.279 34.295 654.876 36.1584 L654.876 29.2718 Q658.968 27.692 662.816 26.9223 Q666.665 26.1121 670.31 26.1121 Q680.154 26.1121 685.015 31.2163 Q689.876 36.3204 689.876 46.6907 Z" fill="#000000" fill-rule="nonzero" fill-opacity="1" /><path clip-path="url(#clip620)" d="M740.553 35.9153 Q743.348 30.8922 747.237 28.5022 Q751.126 26.1121 756.392 26.1121 Q763.481 26.1121 767.329 31.0947 Q771.178 36.0368 771.178 45.1919 L771.178 72.576 L763.684 72.576 L763.684 45.4349 Q763.684 38.913 761.375 35.7533 Q759.066 32.5936 754.326 32.5936 Q748.533 32.5936 745.171 36.4419 Q741.809 40.2903 741.809 46.9338 L741.809 72.576 L734.315 72.576 L734.315 45.4349 Q734.315 38.8725 732.006 35.7533 Q729.697 32.5936 724.876 32.5936 Q719.164 32.5936 715.802 36.4824 Q712.44 40.3308 712.44 46.9338 L712.44 72.576 L704.946 72.576 L704.946 27.2059 L712.44 27.2059 L712.44 34.2544 Q714.992 30.082 718.557 28.0971 Q722.121 26.1121 727.023 26.1121 Q731.965 26.1121 735.408 28.6237 Q738.892 31.1352 740.553 35.9153 Z" fill="#000000" fill-rule="nonzero" fill-opacity="1" /><path clip-path="url(#clip620)" d="M829.997 32.4315 Q824.002 32.4315 820.518 37.1306 Q817.034 41.7891 817.034 49.9314 Q817.034 58.0738 820.477 62.7728 Q823.961 67.4314 829.997 67.4314 Q835.952 67.4314 839.436 62.7323 Q842.919 58.0333 842.919 49.9314 Q842.919 41.8701 839.436 37.1711 Q835.952 32.4315 829.997 32.4315 M829.997 26.1121 Q839.719 26.1121 845.269 32.4315 Q850.819 38.7509 850.819 49.9314 Q850.819 61.0714 845.269 67.4314 Q839.719 73.7508 829.997 73.7508 Q820.234 73.7508 814.685 67.4314 Q809.175 61.0714 809.175 49.9314 Q809.175 38.7509 814.685 32.4315 Q820.234 26.1121 829.997 26.1121 Z" fill="#000000" fill-rule="nonzero" fill-opacity="1" /><path clip-path="url(#clip620)" d="M886.143 9.54393 L886.143 15.7418 L879.013 15.7418 Q875.003 15.7418 873.423 17.3622 Q871.883 18.9825 871.883 23.1955 L871.883 27.2059 L884.158 27.2059 L884.158 32.9987 L871.883 32.9987 L871.883 72.576 L864.389 72.576 L864.389 32.9987 L857.26 32.9987 L857.26 27.2059 L864.389 27.2059 L864.389 24.0462 Q864.389 16.471 867.913 13.0277 Q871.438 9.54393 879.094 9.54393 L886.143 9.54393 Z" fill="#000000" fill-rule="nonzero" fill-opacity="1" /><path clip-path="url(#clip620)" d="M954.076 35.9153 Q956.871 30.8922 960.76 28.5022 Q964.649 26.1121 969.915 26.1121 Q977.004 26.1121 980.853 31.0947 Q984.701 36.0368 984.701 45.1919 L984.701 72.576 L977.207 72.576 L977.207 45.4349 Q977.207 38.913 974.898 35.7533 Q972.589 32.5936 967.849 32.5936 Q962.056 32.5936 958.694 36.4419 Q955.332 40.2903 955.332 46.9338 L955.332 72.576 L947.838 72.576 L947.838 45.4349 Q947.838 38.8725 945.529 35.7533 Q943.22 32.5936 938.399 32.5936 Q932.687 32.5936 929.325 36.4824 Q925.963 40.3308 925.963 46.9338 L925.963 72.576 L918.469 72.576 L918.469 27.2059 L925.963 27.2059 L925.963 34.2544 Q928.515 30.082 932.08 28.0971 Q935.645 26.1121 940.546 26.1121 Q945.488 26.1121 948.932 28.6237 Q952.415 31.1352 954.076 35.9153 Z" fill="#000000" fill-rule="nonzero" fill-opacity="1" /><path clip-path="url(#clip620)" d="M1017.15 32.4315 Q1011.15 32.4315 1007.67 37.1306 Q1004.19 41.7891 1004.19 49.9314 Q1004.19 58.0738 1007.63 62.7728 Q1011.11 67.4314 1017.15 67.4314 Q1023.1 67.4314 1026.59 62.7323 Q1030.07 58.0333 1030.07 49.9314 Q1030.07 41.8701 1026.59 37.1711 Q1023.1 32.4315 1017.15 32.4315 M1017.15 26.1121 Q1026.87 26.1121 1032.42 32.4315 Q1037.97 38.7509 1037.97 49.9314 Q1037.97 61.0714 1032.42 67.4314 Q1026.87 73.7508 1017.15 73.7508 Q1007.39 73.7508 1001.84 67.4314 Q996.327 61.0714 996.327 49.9314 Q996.327 38.7509 1001.84 32.4315 Q1007.39 26.1121 1017.15 26.1121 Z" fill="#000000" fill-rule="nonzero" fill-opacity="1" /><path clip-path="url(#clip620)" d="M1088.04 45.1919 L1088.04 72.576 L1080.59 72.576 L1080.59 45.4349 Q1080.59 38.994 1078.07 35.7938 Q1075.56 32.5936 1070.54 32.5936 Q1064.5 32.5936 1061.02 36.4419 Q1057.54 40.2903 1057.54 46.9338 L1057.54 72.576 L1050.04 72.576 L1050.04 27.2059 L1057.54 27.2059 L1057.54 34.2544 Q1060.21 30.163 1063.82 28.1376 Q1067.46 26.1121 1072.2 26.1121 Q1080.02 26.1121 1084.03 30.9732 Q1088.04 35.7938 1088.04 45.1919 Z" fill="#000000" fill-rule="nonzero" fill-opacity="1" /><path clip-path="url(#clip620)" d="M1141.71 48.0275 L1141.71 51.6733 L1107.44 51.6733 Q1107.93 59.3701 1112.06 63.421 Q1116.23 67.4314 1123.65 67.4314 Q1127.94 67.4314 1131.95 66.3781 Q1136 65.3249 1139.97 63.2184 L1139.97 70.267 Q1135.96 71.9684 1131.75 72.8596 Q1127.54 73.7508 1123.2 73.7508 Q1112.35 73.7508 1105.99 67.4314 Q1099.67 61.1119 1099.67 50.3365 Q1099.67 39.1965 1105.66 32.6746 Q1111.7 26.1121 1121.91 26.1121 Q1131.06 26.1121 1136.37 32.0264 Q1141.71 37.9003 1141.71 48.0275 M1134.26 45.84 Q1134.18 39.7232 1130.82 36.0774 Q1127.5 32.4315 1121.99 32.4315 Q1115.75 32.4315 1111.98 35.9558 Q1108.25 39.4801 1107.69 45.8805 L1134.26 45.84 Z" fill="#000000" fill-rule="nonzero" fill-opacity="1" /><path clip-path="url(#clip620)" d="M1172.83 76.7889 Q1169.67 84.8907 1166.67 87.3618 Q1163.67 89.8329 1158.65 89.8329 L1152.69 89.8329 L1152.69 83.5945 L1157.07 83.5945 Q1160.15 83.5945 1161.85 82.1361 Q1163.55 80.6778 1165.61 75.2496 L1166.95 71.8468 L1148.6 27.2059 L1156.5 27.2059 L1170.68 62.6918 L1184.86 27.2059 L1192.76 27.2059 L1172.83 76.7889 Z" fill="#000000" fill-rule="nonzero" fill-opacity="1" /><path clip-path="url(#clip620)" d="M1247.32 9.62495 Q1241.89 18.942 1239.26 28.0566 Q1236.63 37.1711 1236.63 46.5287 Q1236.63 55.8863 1239.26 65.0818 Q1241.93 74.2369 1247.32 83.5134 L1240.84 83.5134 Q1234.76 73.9938 1231.73 64.7983 Q1228.73 55.6027 1228.73 46.5287 Q1228.73 37.4952 1231.73 28.3401 Q1234.72 19.1851 1240.84 9.62495 L1247.32 9.62495 Z" fill="#000000" fill-rule="nonzero" fill-opacity="1" /><path clip-path="url(#clip620)" d="M1288.07 34.1734 Q1286.82 33.4443 1285.32 33.1202 Q1283.86 32.7556 1282.08 32.7556 Q1275.76 32.7556 1272.36 36.8875 Q1268.99 40.9789 1268.99 48.6757 L1268.99 72.576 L1261.5 72.576 L1261.5 27.2059 L1268.99 27.2059 L1268.99 34.2544 Q1271.34 30.1225 1275.11 28.1376 Q1278.88 26.1121 1284.27 26.1121 Q1285.04 26.1121 1285.97 26.2337 Q1286.9 26.3147 1288.03 26.5172 L1288.07 34.1734 Z" fill="#000000" fill-rule="nonzero" fill-opacity="1" /><path clip-path="url(#clip620)" d="M1311.65 32.4315 Q1305.65 32.4315 1302.17 37.1306 Q1298.69 41.7891 1298.69 49.9314 Q1298.69 58.0738 1302.13 62.7728 Q1305.61 67.4314 1311.65 67.4314 Q1317.6 67.4314 1321.09 62.7323 Q1324.57 58.0333 1324.57 49.9314 Q1324.57 41.8701 1321.09 37.1711 Q1317.6 32.4315 1311.65 32.4315 M1311.65 26.1121 Q1321.37 26.1121 1326.92 32.4315 Q1332.47 38.7509 1332.47 49.9314 Q1332.47 61.0714 1326.92 67.4314 Q1321.37 73.7508 1311.65 73.7508 Q1301.89 73.7508 1296.34 67.4314 Q1290.83 61.0714 1290.83 49.9314 Q1290.83 38.7509 1296.34 32.4315 Q1301.89 26.1121 1311.65 26.1121 Z" fill="#000000" fill-rule="nonzero" fill-opacity="1" /><path clip-path="url(#clip620)" d="M1344.06 54.671 L1344.06 27.2059 L1351.51 27.2059 L1351.51 54.3874 Q1351.51 60.8284 1354.02 64.0691 Q1356.53 67.2693 1361.56 67.2693 Q1367.59 67.2693 1371.08 63.421 Q1374.6 59.5726 1374.6 52.9291 L1374.6 27.2059 L1382.05 27.2059 L1382.05 72.576 L1374.6 72.576 L1374.6 65.6084 Q1371.89 69.7404 1368.28 71.7658 Q1364.72 73.7508 1359.98 73.7508 Q1352.16 73.7508 1348.11 68.8897 Q1344.06 64.0286 1344.06 54.671 M1362.81 26.1121 L1362.81 26.1121 Z" fill="#000000" fill-rule="nonzero" fill-opacity="1" /><path clip-path="url(#clip620)" d="M1435.12 45.1919 L1435.12 72.576 L1427.67 72.576 L1427.67 45.4349 Q1427.67 38.994 1425.16 35.7938 Q1422.64 32.5936 1417.62 32.5936 Q1411.59 32.5936 1408.1 36.4419 Q1404.62 40.2903 1404.62 46.9338 L1404.62 72.576 L1397.12 72.576 L1397.12 27.2059 L1404.62 27.2059 L1404.62 34.2544 Q1407.29 30.163 1410.9 28.1376 Q1414.54 26.1121 1419.28 26.1121 Q1427.1 26.1121 1431.11 30.9732 Q1435.12 35.7938 1435.12 45.1919 Z" fill="#000000" fill-rule="nonzero" fill-opacity="1" /><path clip-path="url(#clip620)" d="M1479.84 34.0924 L1479.84 9.54393 L1487.3 9.54393 L1487.3 72.576 L1479.84 72.576 L1479.84 65.7705 Q1477.49 69.8214 1473.89 71.8063 Q1470.32 73.7508 1465.3 73.7508 Q1457.08 73.7508 1451.89 67.1883 Q1446.75 60.6258 1446.75 49.9314 Q1446.75 39.2371 1451.89 32.6746 Q1457.08 26.1121 1465.3 26.1121 Q1470.32 26.1121 1473.89 28.0971 Q1477.49 30.0415 1479.84 34.0924 M1454.44 49.9314 Q1454.44 58.1548 1457.81 62.8538 Q1461.21 67.5124 1467.12 67.5124 Q1473.04 67.5124 1476.44 62.8538 Q1479.84 58.1548 1479.84 49.9314 Q1479.84 41.7081 1476.44 37.0496 Q1473.04 32.3505 1467.12 32.3505 Q1461.21 32.3505 1457.81 37.0496 Q1454.44 41.7081 1454.44 49.9314 Z" fill="#000000" fill-rule="nonzero" fill-opacity="1" /><path clip-path="url(#clip620)" d="M1537.12 65.6895 L1565.68 65.6895 L1565.68 72.576 L1527.28 72.576 L1527.28 65.6895 Q1531.94 60.8689 1539.96 52.7671 Q1548.02 44.6248 1550.09 42.2752 Q1554.02 37.8598 1555.55 34.8216 Q1557.13 31.7429 1557.13 28.7857 Q1557.13 23.9651 1553.73 20.927 Q1550.37 17.8888 1544.94 17.8888 Q1541.09 17.8888 1536.8 19.2256 Q1532.55 20.5624 1527.68 23.2765 L1527.68 15.0127 Q1532.63 13.0277 1536.92 12.015 Q1541.21 11.0023 1544.78 11.0023 Q1554.18 11.0023 1559.77 15.7013 Q1565.36 20.4004 1565.36 28.2591 Q1565.36 31.9859 1563.94 35.3482 Q1562.56 38.6699 1558.88 43.2069 Q1557.86 44.3817 1552.44 50.0125 Q1547.01 55.6027 1537.12 65.6895 Z" fill="#000000" fill-rule="nonzero" fill-opacity="1" /><path clip-path="url(#clip620)" d="M1600.36 17.4837 Q1594.04 17.4837 1590.84 23.7221 Q1587.68 29.92 1587.68 42.3968 Q1587.68 54.833 1590.84 61.0714 Q1594.04 67.2693 1600.36 67.2693 Q1606.72 67.2693 1609.88 61.0714 Q1613.08 54.833 1613.08 42.3968 Q1613.08 29.92 1609.88 23.7221 Q1606.72 17.4837 1600.36 17.4837 M1600.36 11.0023 Q1610.53 11.0023 1615.87 19.0636 Q1621.26 27.0843 1621.26 42.3968 Q1621.26 57.6687 1615.87 65.73 Q1610.53 73.7508 1600.36 73.7508 Q1590.19 73.7508 1584.8 65.73 Q1579.45 57.6687 1579.45 42.3968 Q1579.45 27.0843 1584.8 19.0636 Q1590.19 11.0023 1600.36 11.0023 Z" fill="#000000" fill-rule="nonzero" fill-opacity="1" /><path clip-path="url(#clip620)" d="M1636.49 62.2867 L1645.04 62.2867 L1645.04 69.2543 L1638.4 82.2172 L1633.17 82.2172 L1636.49 69.2543 L1636.49 62.2867 Z" fill="#000000" fill-rule="nonzero" fill-opacity="1" /><path clip-path="url(#clip620)" d="M1687.33 27.2059 L1694.78 27.2059 L1694.78 72.576 L1687.33 72.576 L1687.33 27.2059 M1687.33 9.54393 L1694.78 9.54393 L1694.78 18.9825 L1687.33 18.9825 L1687.33 9.54393 Z" fill="#000000" fill-rule="nonzero" fill-opacity="1" /><path clip-path="url(#clip620)" d="M1748.09 45.1919 L1748.09 72.576 L1740.64 72.576 L1740.64 45.4349 Q1740.64 38.994 1738.13 35.7938 Q1735.62 32.5936 1730.59 32.5936 Q1724.56 32.5936 1721.07 36.4419 Q1717.59 40.2903 1717.59 46.9338 L1717.59 72.576 L1710.1 72.576 L1710.1 27.2059 L1717.59 27.2059 L1717.59 34.2544 Q1720.26 30.163 1723.87 28.1376 Q1727.52 26.1121 1732.25 26.1121 Q1740.07 26.1121 1744.08 30.9732 Q1748.09 35.7938 1748.09 45.1919 Z" fill="#000000" fill-rule="nonzero" fill-opacity="1" /><path clip-path="url(#clip620)" d="M1762.96 27.2059 L1770.41 27.2059 L1770.41 72.576 L1762.96 72.576 L1762.96 27.2059 M1762.96 9.54393 L1770.41 9.54393 L1770.41 18.9825 L1762.96 18.9825 L1762.96 9.54393 Z" fill="#000000" fill-rule="nonzero" fill-opacity="1" /><path clip-path="url(#clip620)" d="M1793.38 14.324 L1793.38 27.2059 L1808.74 27.2059 L1808.74 32.9987 L1793.38 32.9987 L1793.38 57.6282 Q1793.38 63.1779 1794.88 64.7578 Q1796.42 66.3376 1801.08 66.3376 L1808.74 66.3376 L1808.74 72.576 L1801.08 72.576 Q1792.45 72.576 1789.17 69.3758 Q1785.89 66.1351 1785.89 57.6282 L1785.89 32.9987 L1780.42 32.9987 L1780.42 27.2059 L1785.89 27.2059 L1785.89 14.324 L1793.38 14.324 Z" fill="#000000" fill-rule="nonzero" fill-opacity="1" /><path clip-path="url(#clip620)" d="M1818.54 27.2059 L1825.99 27.2059 L1825.99 72.576 L1818.54 72.576 L1818.54 27.2059 M1818.54 9.54393 L1825.99 9.54393 L1825.99 18.9825 L1818.54 18.9825 L1818.54 9.54393 Z" fill="#000000" fill-rule="nonzero" fill-opacity="1" /><path clip-path="url(#clip620)" d="M1862.21 49.7694 Q1853.17 49.7694 1849.69 51.8354 Q1846.21 53.9013 1846.21 58.8839 Q1846.21 62.8538 1848.8 65.2034 Q1851.43 67.5124 1855.93 67.5124 Q1862.13 67.5124 1865.85 63.1374 Q1869.62 58.7219 1869.62 51.4303 L1869.62 49.7694 L1862.21 49.7694 M1877.07 46.6907 L1877.07 72.576 L1869.62 72.576 L1869.62 65.6895 Q1867.07 69.8214 1863.26 71.8063 Q1859.45 73.7508 1853.94 73.7508 Q1846.98 73.7508 1842.84 69.8619 Q1838.75 65.9325 1838.75 59.3701 Q1838.75 51.7138 1843.86 47.825 Q1849 43.9361 1859.17 43.9361 L1869.62 43.9361 L1869.62 43.2069 Q1869.62 38.0623 1866.22 35.2672 Q1862.86 32.4315 1856.74 32.4315 Q1852.85 32.4315 1849.16 33.3632 Q1845.48 34.295 1842.07 36.1584 L1842.07 29.2718 Q1846.17 27.692 1850.01 26.9223 Q1853.86 26.1121 1857.51 26.1121 Q1867.35 26.1121 1872.21 31.2163 Q1877.07 36.3204 1877.07 46.6907 Z" fill="#000000" fill-rule="nonzero" fill-opacity="1" /><path clip-path="url(#clip620)" d="M1892.43 9.54393 L1899.88 9.54393 L1899.88 72.576 L1892.43 72.576 L1892.43 9.54393 Z" fill="#000000" fill-rule="nonzero" fill-opacity="1" /><path clip-path="url(#clip620)" d="M1915.48 9.54393 L1922.93 9.54393 L1922.93 72.576 L1915.48 72.576 L1915.48 9.54393 Z" fill="#000000" fill-rule="nonzero" fill-opacity="1" /><path clip-path="url(#clip620)" d="M1957.4 76.7889 Q1954.24 84.8907 1951.25 87.3618 Q1948.25 89.8329 1943.23 89.8329 L1937.27 89.8329 L1937.27 83.5945 L1941.65 83.5945 Q1944.72 83.5945 1946.43 82.1361 Q1948.13 80.6778 1950.19 75.2496 L1951.53 71.8468 L1933.18 27.2059 L1941.08 27.2059 L1955.26 62.6918 L1969.44 27.2059 L1977.33 27.2059 L1957.4 76.7889 Z" fill="#000000" fill-rule="nonzero" fill-opacity="1" /><path clip-path="url(#clip620)" d="M2016.47 65.6895 L2029.83 65.6895 L2029.83 19.5497 L2015.29 22.4663 L2015.29 15.0127 L2029.75 12.096 L2037.94 12.096 L2037.94 65.6895 L2051.3 65.6895 L2051.3 72.576 L2016.47 72.576 L2016.47 65.6895 Z" fill="#000000" fill-rule="nonzero" fill-opacity="1" /><path clip-path="url(#clip620)" d="M2085.33 17.4837 Q2079.01 17.4837 2075.81 23.7221 Q2072.65 29.92 2072.65 42.3968 Q2072.65 54.833 2075.81 61.0714 Q2079.01 67.2693 2085.33 67.2693 Q2091.69 67.2693 2094.85 61.0714 Q2098.05 54.833 2098.05 42.3968 Q2098.05 29.92 2094.85 23.7221 Q2091.69 17.4837 2085.33 17.4837 M2085.33 11.0023 Q2095.5 11.0023 2100.85 19.0636 Q2106.23 27.0843 2106.23 42.3968 Q2106.23 57.6687 2100.85 65.73 Q2095.5 73.7508 2085.33 73.7508 Q2075.16 73.7508 2069.78 65.73 Q2064.43 57.6687 2064.43 42.3968 Q2064.43 27.0843 2069.78 19.0636 Q2075.16 11.0023 2085.33 11.0023 Z" fill="#000000" fill-rule="nonzero" fill-opacity="1" /><path clip-path="url(#clip620)" d="M2166.15 84.7692 L2162.1 84.7692 L2162.06 72.576 Q2157.8 72.495 2153.55 71.6038 Q2149.3 70.6721 2145 68.8492 L2145 61.5575 Q2149.13 64.1501 2153.35 65.4869 Q2157.6 66.7832 2162.1 66.8237 L2162.1 48.3516 Q2153.14 46.8933 2149.05 43.4095 Q2145 39.9257 2145 33.8494 Q2145 27.2464 2149.42 23.4385 Q2153.83 19.6307 2162.1 19.0636 L2162.1 9.54393 L2166.15 9.54393 L2166.15 18.942 Q2169.91 19.1041 2173.44 19.7522 Q2176.96 20.3598 2180.33 21.4536 L2180.33 28.5427 Q2176.96 26.8413 2173.4 25.9096 Q2169.87 24.9779 2166.15 24.8158 L2166.15 42.1132 Q2175.34 43.531 2179.68 47.1768 Q2184.01 50.8226 2184.01 57.1421 Q2184.01 63.9881 2179.39 67.958 Q2174.82 71.8873 2166.15 72.495 L2166.15 84.7692 M2162.1 41.384 L2162.1 24.7753 Q2157.4 25.3019 2154.93 27.4489 Q2152.46 29.5959 2152.46 33.1607 Q2152.46 36.6445 2154.72 38.5889 Q2157.03 40.5333 2162.1 41.384 M2166.15 49.1618 L2166.15 66.7022 Q2171.29 66.0135 2173.88 63.7855 Q2176.52 61.5575 2176.52 57.9117 Q2176.52 54.3469 2174.01 52.2405 Q2171.53 50.134 2166.15 49.1618 Z" fill="#000000" fill-rule="nonzero" fill-opacity="1" /><path clip-path="url(#clip620)" d="M2197.54 9.62495 L2204.02 9.62495 Q2210.1 19.1851 2213.1 28.3401 Q2216.14 37.4952 2216.14 46.5287 Q2216.14 55.6027 2213.1 64.7983 Q2210.1 73.9938 2204.02 83.5134 L2197.54 83.5134 Q2202.93 74.2369 2205.56 65.0818 Q2208.24 55.8863 2208.24 46.5287 Q2208.24 37.1711 2205.56 28.0566 Q2202.93 18.942 2197.54 9.62495 Z" fill="#000000" fill-rule="nonzero" fill-opacity="1" /><path clip-path="url(#clip622)" d="M336.72 1276.24 L336.72 1423.18 L371.241 1423.18 L371.241 1276.24 L336.72 1276.24 L336.72 1276.24  Z" fill="#009af9" fill-rule="evenodd" fill-opacity="1"/>
<polyline clip-path="url(#clip622)" style="stroke:#000000; stroke-linecap:round; stroke-linejoin:round; stroke-width:4; stroke-opacity:1; fill:none" points="336.72,1276.24 336.72,1423.18 371.241,1423.18 371.241,1276.24 336.72,1276.24 "/>
<path clip-path="url(#clip622)" d="M371.241 1423.18 L371.241 1423.18 L405.763 1423.18 L405.763 1423.18 L371.241 1423.18 L371.241 1423.18  Z" fill="#009af9" fill-rule="evenodd" fill-opacity="1"/>
<polyline clip-path="url(#clip622)" style="stroke:#000000; stroke-linecap:round; stroke-linejoin:round; stroke-width:4; stroke-opacity:1; fill:none" points="371.241,1423.18 371.241,1423.18 405.763,1423.18 371.241,1423.18 "/>
<path clip-path="url(#clip622)" d="M405.763 1319.93 L405.763 1423.18 L440.285 1423.18 L440.285 1319.93 L405.763 1319.93 L405.763 1319.93  Z" fill="#009af9" fill-rule="evenodd" fill-opacity="1"/>
<polyline clip-path="url(#clip622)" style="stroke:#000000; stroke-linecap:round; stroke-linejoin:round; stroke-width:4; stroke-opacity:1; fill:none" points="405.763,1319.93 405.763,1423.18 440.285,1423.18 440.285,1319.93 405.763,1319.93 "/>
<path clip-path="url(#clip622)" d="M440.285 1423.18 L440.285 1423.18 L474.807 1423.18 L474.807 1423.18 L440.285 1423.18 L440.285 1423.18  Z" fill="#009af9" fill-rule="evenodd" fill-opacity="1"/>
<polyline clip-path="url(#clip622)" style="stroke:#000000; stroke-linecap:round; stroke-linejoin:round; stroke-width:4; stroke-opacity:1; fill:none" points="440.285,1423.18 440.285,1423.18 474.807,1423.18 440.285,1423.18 "/>
<path clip-path="url(#clip622)" d="M474.807 1423.18 L474.807 1423.18 L509.328 1423.18 L509.328 1423.18 L474.807 1423.18 L474.807 1423.18  Z" fill="#009af9" fill-rule="evenodd" fill-opacity="1"/>
<polyline clip-path="url(#clip622)" style="stroke:#000000; stroke-linecap:round; stroke-linejoin:round; stroke-width:4; stroke-opacity:1; fill:none" points="474.807,1423.18 474.807,1423.18 509.328,1423.18 474.807,1423.18 "/>
<path clip-path="url(#clip622)" d="M509.328 1423.18 L509.328 1423.18 L543.85 1423.18 L543.85 1423.18 L509.328 1423.18 L509.328 1423.18  Z" fill="#009af9" fill-rule="evenodd" fill-opacity="1"/>
<polyline clip-path="url(#clip622)" style="stroke:#000000; stroke-linecap:round; stroke-linejoin:round; stroke-width:4; stroke-opacity:1; fill:none" points="509.328,1423.18 509.328,1423.18 543.85,1423.18 509.328,1423.18 "/>
<path clip-path="url(#clip622)" d="M543.85 1079.84 L543.85 1423.18 L578.372 1423.18 L578.372 1079.84 L543.85 1079.84 L543.85 1079.84  Z" fill="#009af9" fill-rule="evenodd" fill-opacity="1"/>
<polyline clip-path="url(#clip622)" style="stroke:#000000; stroke-linecap:round; stroke-linejoin:round; stroke-width:4; stroke-opacity:1; fill:none" points="543.85,1079.84 543.85,1423.18 578.372,1423.18 578.372,1079.84 543.85,1079.84 "/>
<path clip-path="url(#clip622)" d="M578.372 1423.18 L578.372 1423.18 L612.894 1423.18 L612.894 1423.18 L578.372 1423.18 L578.372 1423.18  Z" fill="#009af9" fill-rule="evenodd" fill-opacity="1"/>
<polyline clip-path="url(#clip622)" style="stroke:#000000; stroke-linecap:round; stroke-linejoin:round; stroke-width:4; stroke-opacity:1; fill:none" points="578.372,1423.18 578.372,1423.18 612.894,1423.18 578.372,1423.18 "/>
<path clip-path="url(#clip622)" d="M612.894 1423.18 L612.894 1423.18 L647.415 1423.18 L647.415 1423.18 L612.894 1423.18 L612.894 1423.18  Z" fill="#009af9" fill-rule="evenodd" fill-opacity="1"/>
<polyline clip-path="url(#clip622)" style="stroke:#000000; stroke-linecap:round; stroke-linejoin:round; stroke-width:4; stroke-opacity:1; fill:none" points="612.894,1423.18 612.894,1423.18 647.415,1423.18 612.894,1423.18 "/>
<path clip-path="url(#clip622)" d="M647.415 1423.18 L647.415 1423.18 L681.937 1423.18 L681.937 1423.18 L647.415 1423.18 L647.415 1423.18  Z" fill="#009af9" fill-rule="evenodd" fill-opacity="1"/>
<polyline clip-path="url(#clip622)" style="stroke:#000000; stroke-linecap:round; stroke-linejoin:round; stroke-width:4; stroke-opacity:1; fill:none" points="647.415,1423.18 647.415,1423.18 681.937,1423.18 647.415,1423.18 "/>
<path clip-path="url(#clip622)" d="M681.937 732.53 L681.937 1423.18 L716.459 1423.18 L716.459 732.53 L681.937 732.53 L681.937 732.53  Z" fill="#009af9" fill-rule="evenodd" fill-opacity="1"/>
<polyline clip-path="url(#clip622)" style="stroke:#000000; stroke-linecap:round; stroke-linejoin:round; stroke-width:4; stroke-opacity:1; fill:none" points="681.937,732.53 681.937,1423.18 716.459,1423.18 716.459,732.53 681.937,732.53 "/>
<path clip-path="url(#clip622)" d="M716.459 1423.18 L716.459 1423.18 L750.981 1423.18 L750.981 1423.18 L716.459 1423.18 L716.459 1423.18  Z" fill="#009af9" fill-rule="evenodd" fill-opacity="1"/>
<polyline clip-path="url(#clip622)" style="stroke:#000000; stroke-linecap:round; stroke-linejoin:round; stroke-width:4; stroke-opacity:1; fill:none" points="716.459,1423.18 716.459,1423.18 750.981,1423.18 716.459,1423.18 "/>
<path clip-path="url(#clip622)" d="M750.981 1423.18 L750.981 1423.18 L785.503 1423.18 L785.503 1423.18 L750.981 1423.18 L750.981 1423.18  Z" fill="#009af9" fill-rule="evenodd" fill-opacity="1"/>
<polyline clip-path="url(#clip622)" style="stroke:#000000; stroke-linecap:round; stroke-linejoin:round; stroke-width:4; stroke-opacity:1; fill:none" points="750.981,1423.18 750.981,1423.18 785.503,1423.18 750.981,1423.18 "/>
<path clip-path="url(#clip622)" d="M785.503 1423.18 L785.503 1423.18 L820.024 1423.18 L820.024 1423.18 L785.503 1423.18 L785.503 1423.18  Z" fill="#009af9" fill-rule="evenodd" fill-opacity="1"/>
<polyline clip-path="url(#clip622)" style="stroke:#000000; stroke-linecap:round; stroke-linejoin:round; stroke-width:4; stroke-opacity:1; fill:none" points="785.503,1423.18 785.503,1423.18 820.024,1423.18 785.503,1423.18 "/>
<path clip-path="url(#clip622)" d="M820.024 384.136 L820.024 1423.18 L854.546 1423.18 L854.546 384.136 L820.024 384.136 L820.024 384.136  Z" fill="#009af9" fill-rule="evenodd" fill-opacity="1"/>
<polyline clip-path="url(#clip622)" style="stroke:#000000; stroke-linecap:round; stroke-linejoin:round; stroke-width:4; stroke-opacity:1; fill:none" points="820.024,384.136 820.024,1423.18 854.546,1423.18 854.546,384.136 820.024,384.136 "/>
<path clip-path="url(#clip622)" d="M854.546 1423.18 L854.546 1423.18 L889.068 1423.18 L889.068 1423.18 L854.546 1423.18 L854.546 1423.18  Z" fill="#009af9" fill-rule="evenodd" fill-opacity="1"/>
<polyline clip-path="url(#clip622)" style="stroke:#000000; stroke-linecap:round; stroke-linejoin:round; stroke-width:4; stroke-opacity:1; fill:none" points="854.546,1423.18 854.546,1423.18 889.068,1423.18 854.546,1423.18 "/>
<path clip-path="url(#clip622)" d="M889.068 1423.18 L889.068 1423.18 L923.59 1423.18 L923.59 1423.18 L889.068 1423.18 L889.068 1423.18  Z" fill="#009af9" fill-rule="evenodd" fill-opacity="1"/>
<polyline clip-path="url(#clip622)" style="stroke:#000000; stroke-linecap:round; stroke-linejoin:round; stroke-width:4; stroke-opacity:1; fill:none" points="889.068,1423.18 889.068,1423.18 923.59,1423.18 889.068,1423.18 "/>
<path clip-path="url(#clip622)" d="M923.59 1423.18 L923.59 1423.18 L958.111 1423.18 L958.111 1423.18 L923.59 1423.18 L923.59 1423.18  Z" fill="#009af9" fill-rule="evenodd" fill-opacity="1"/>
<polyline clip-path="url(#clip622)" style="stroke:#000000; stroke-linecap:round; stroke-linejoin:round; stroke-width:4; stroke-opacity:1; fill:none" points="923.59,1423.18 923.59,1423.18 958.111,1423.18 923.59,1423.18 "/>
<path clip-path="url(#clip622)" d="M958.111 163.907 L958.111 1423.18 L992.633 1423.18 L992.633 163.907 L958.111 163.907 L958.111 163.907  Z" fill="#009af9" fill-rule="evenodd" fill-opacity="1"/>
<polyline clip-path="url(#clip622)" style="stroke:#000000; stroke-linecap:round; stroke-linejoin:round; stroke-width:4; stroke-opacity:1; fill:none" points="958.111,163.907 958.111,1423.18 992.633,1423.18 992.633,163.907 958.111,163.907 "/>
<path clip-path="url(#clip622)" d="M992.633 1423.18 L992.633 1423.18 L1027.15 1423.18 L1027.15 1423.18 L992.633 1423.18 L992.633 1423.18  Z" fill="#009af9" fill-rule="evenodd" fill-opacity="1"/>
<polyline clip-path="url(#clip622)" style="stroke:#000000; stroke-linecap:round; stroke-linejoin:round; stroke-width:4; stroke-opacity:1; fill:none" points="992.633,1423.18 992.633,1423.18 1027.15,1423.18 992.633,1423.18 "/>
<path clip-path="url(#clip622)" d="M1027.15 1423.18 L1027.15 1423.18 L1061.68 1423.18 L1061.68 1423.18 L1027.15 1423.18 L1027.15 1423.18  Z" fill="#009af9" fill-rule="evenodd" fill-opacity="1"/>
<polyline clip-path="url(#clip622)" style="stroke:#000000; stroke-linecap:round; stroke-linejoin:round; stroke-width:4; stroke-opacity:1; fill:none" points="1027.15,1423.18 1027.15,1423.18 1061.68,1423.18 1027.15,1423.18 "/>
<path clip-path="url(#clip622)" d="M1061.68 1423.18 L1061.68 1423.18 L1096.2 1423.18 L1096.2 1423.18 L1061.68 1423.18 L1061.68 1423.18  Z" fill="#009af9" fill-rule="evenodd" fill-opacity="1"/>
<polyline clip-path="url(#clip622)" style="stroke:#000000; stroke-linecap:round; stroke-linejoin:round; stroke-width:4; stroke-opacity:1; fill:none" points="1061.68,1423.18 1061.68,1423.18 1096.2,1423.18 1061.68,1423.18 "/>
<path clip-path="url(#clip622)" d="M1096.2 123.472 L1096.2 1423.18 L1130.72 1423.18 L1130.72 123.472 L1096.2 123.472 L1096.2 123.472  Z" fill="#009af9" fill-rule="evenodd" fill-opacity="1"/>
<polyline clip-path="url(#clip622)" style="stroke:#000000; stroke-linecap:round; stroke-linejoin:round; stroke-width:4; stroke-opacity:1; fill:none" points="1096.2,123.472 1096.2,1423.18 1130.72,1423.18 1130.72,123.472 1096.2,123.472 "/>
<path clip-path="url(#clip622)" d="M1130.72 1423.18 L1130.72 1423.18 L1165.24 1423.18 L1165.24 1423.18 L1130.72 1423.18 L1130.72 1423.18  Z" fill="#009af9" fill-rule="evenodd" fill-opacity="1"/>
<polyline clip-path="url(#clip622)" style="stroke:#000000; stroke-linecap:round; stroke-linejoin:round; stroke-width:4; stroke-opacity:1; fill:none" points="1130.72,1423.18 1130.72,1423.18 1165.24,1423.18 1130.72,1423.18 "/>
<path clip-path="url(#clip622)" d="M1165.24 1423.18 L1165.24 1423.18 L1199.76 1423.18 L1199.76 1423.18 L1165.24 1423.18 L1165.24 1423.18  Z" fill="#009af9" fill-rule="evenodd" fill-opacity="1"/>
<polyline clip-path="url(#clip622)" style="stroke:#000000; stroke-linecap:round; stroke-linejoin:round; stroke-width:4; stroke-opacity:1; fill:none" points="1165.24,1423.18 1165.24,1423.18 1199.76,1423.18 1165.24,1423.18 "/>
<path clip-path="url(#clip622)" d="M1199.76 1423.18 L1199.76 1423.18 L1234.29 1423.18 L1234.29 1423.18 L1199.76 1423.18 L1199.76 1423.18  Z" fill="#009af9" fill-rule="evenodd" fill-opacity="1"/>
<polyline clip-path="url(#clip622)" style="stroke:#000000; stroke-linecap:round; stroke-linejoin:round; stroke-width:4; stroke-opacity:1; fill:none" points="1199.76,1423.18 1199.76,1423.18 1234.29,1423.18 1199.76,1423.18 "/>
<path clip-path="url(#clip622)" d="M1234.29 367.528 L1234.29 1423.18 L1268.81 1423.18 L1268.81 367.528 L1234.29 367.528 L1234.29 367.528  Z" fill="#009af9" fill-rule="evenodd" fill-opacity="1"/>
<polyline clip-path="url(#clip622)" style="stroke:#000000; stroke-linecap:round; stroke-linejoin:round; stroke-width:4; stroke-opacity:1; fill:none" points="1234.29,367.528 1234.29,1423.18 1268.81,1423.18 1268.81,367.528 1234.29,367.528 "/>
<path clip-path="url(#clip622)" d="M1268.81 1423.18 L1268.81 1423.18 L1303.33 1423.18 L1303.33 1423.18 L1268.81 1423.18 L1268.81 1423.18  Z" fill="#009af9" fill-rule="evenodd" fill-opacity="1"/>
<polyline clip-path="url(#clip622)" style="stroke:#000000; stroke-linecap:round; stroke-linejoin:round; stroke-width:4; stroke-opacity:1; fill:none" points="1268.81,1423.18 1268.81,1423.18 1303.33,1423.18 1268.81,1423.18 "/>
<path clip-path="url(#clip622)" d="M1303.33 1423.18 L1303.33 1423.18 L1337.85 1423.18 L1337.85 1423.18 L1303.33 1423.18 L1303.33 1423.18  Z" fill="#009af9" fill-rule="evenodd" fill-opacity="1"/>
<polyline clip-path="url(#clip622)" style="stroke:#000000; stroke-linecap:round; stroke-linejoin:round; stroke-width:4; stroke-opacity:1; fill:none" points="1303.33,1423.18 1303.33,1423.18 1337.85,1423.18 1303.33,1423.18 "/>
<path clip-path="url(#clip622)" d="M1337.85 1423.18 L1337.85 1423.18 L1372.37 1423.18 L1372.37 1423.18 L1337.85 1423.18 L1337.85 1423.18  Z" fill="#009af9" fill-rule="evenodd" fill-opacity="1"/>
<polyline clip-path="url(#clip622)" style="stroke:#000000; stroke-linecap:round; stroke-linejoin:round; stroke-width:4; stroke-opacity:1; fill:none" points="1337.85,1423.18 1337.85,1423.18 1372.37,1423.18 1337.85,1423.18 "/>
<path clip-path="url(#clip622)" d="M1372.37 762.134 L1372.37 1423.18 L1406.89 1423.18 L1406.89 762.134 L1372.37 762.134 L1372.37 762.134  Z" fill="#009af9" fill-rule="evenodd" fill-opacity="1"/>
<polyline clip-path="url(#clip622)" style="stroke:#000000; stroke-linecap:round; stroke-linejoin:round; stroke-width:4; stroke-opacity:1; fill:none" points="1372.37,762.134 1372.37,1423.18 1406.89,1423.18 1406.89,762.134 1372.37,762.134 "/>
<path clip-path="url(#clip622)" d="M1406.89 1423.18 L1406.89 1423.18 L1441.42 1423.18 L1441.42 1423.18 L1406.89 1423.18 L1406.89 1423.18  Z" fill="#009af9" fill-rule="evenodd" fill-opacity="1"/>
<polyline clip-path="url(#clip622)" style="stroke:#000000; stroke-linecap:round; stroke-linejoin:round; stroke-width:4; stroke-opacity:1; fill:none" points="1406.89,1423.18 1406.89,1423.18 1441.42,1423.18 1406.89,1423.18 "/>
<path clip-path="url(#clip622)" d="M1441.42 1423.18 L1441.42 1423.18 L1475.94 1423.18 L1475.94 1423.18 L1441.42 1423.18 L1441.42 1423.18  Z" fill="#009af9" fill-rule="evenodd" fill-opacity="1"/>
<polyline clip-path="url(#clip622)" style="stroke:#000000; stroke-linecap:round; stroke-linejoin:round; stroke-width:4; stroke-opacity:1; fill:none" points="1441.42,1423.18 1441.42,1423.18 1475.94,1423.18 1441.42,1423.18 "/>
<path clip-path="url(#clip622)" d="M1475.94 1423.18 L1475.94 1423.18 L1510.46 1423.18 L1510.46 1423.18 L1475.94 1423.18 L1475.94 1423.18  Z" fill="#009af9" fill-rule="evenodd" fill-opacity="1"/>
<polyline clip-path="url(#clip622)" style="stroke:#000000; stroke-linecap:round; stroke-linejoin:round; stroke-width:4; stroke-opacity:1; fill:none" points="1475.94,1423.18 1475.94,1423.18 1510.46,1423.18 1475.94,1423.18 "/>
<path clip-path="url(#clip622)" d="M1510.46 1029.3 L1510.46 1423.18 L1544.98 1423.18 L1544.98 1029.3 L1510.46 1029.3 L1510.46 1029.3  Z" fill="#009af9" fill-rule="evenodd" fill-opacity="1"/>
<polyline clip-path="url(#clip622)" style="stroke:#000000; stroke-linecap:round; stroke-linejoin:round; stroke-width:4; stroke-opacity:1; fill:none" points="1510.46,1029.3 1510.46,1423.18 1544.98,1423.18 1544.98,1029.3 1510.46,1029.3 "/>
<path clip-path="url(#clip622)" d="M1544.98 1423.18 L1544.98 1423.18 L1579.5 1423.18 L1579.5 1423.18 L1544.98 1423.18 L1544.98 1423.18  Z" fill="#009af9" fill-rule="evenodd" fill-opacity="1"/>
<polyline clip-path="url(#clip622)" style="stroke:#000000; stroke-linecap:round; stroke-linejoin:round; stroke-width:4; stroke-opacity:1; fill:none" points="1544.98,1423.18 1544.98,1423.18 1579.5,1423.18 1544.98,1423.18 "/>
<path clip-path="url(#clip622)" d="M1579.5 1423.18 L1579.5 1423.18 L1614.02 1423.18 L1614.02 1423.18 L1579.5 1423.18 L1579.5 1423.18  Z" fill="#009af9" fill-rule="evenodd" fill-opacity="1"/>
<polyline clip-path="url(#clip622)" style="stroke:#000000; stroke-linecap:round; stroke-linejoin:round; stroke-width:4; stroke-opacity:1; fill:none" points="1579.5,1423.18 1579.5,1423.18 1614.02,1423.18 1579.5,1423.18 "/>
<path clip-path="url(#clip622)" d="M1614.02 1423.18 L1614.02 1423.18 L1648.55 1423.18 L1648.55 1423.18 L1614.02 1423.18 L1614.02 1423.18  Z" fill="#009af9" fill-rule="evenodd" fill-opacity="1"/>
<polyline clip-path="url(#clip622)" style="stroke:#000000; stroke-linecap:round; stroke-linejoin:round; stroke-width:4; stroke-opacity:1; fill:none" points="1614.02,1423.18 1614.02,1423.18 1648.55,1423.18 1614.02,1423.18 "/>
<path clip-path="url(#clip622)" d="M1648.55 1256.75 L1648.55 1423.18 L1683.07 1423.18 L1683.07 1256.75 L1648.55 1256.75 L1648.55 1256.75  Z" fill="#009af9" fill-rule="evenodd" fill-opacity="1"/>
<polyline clip-path="url(#clip622)" style="stroke:#000000; stroke-linecap:round; stroke-linejoin:round; stroke-width:4; stroke-opacity:1; fill:none" points="1648.55,1256.75 1648.55,1423.18 1683.07,1423.18 1683.07,1256.75 1648.55,1256.75 "/>
<path clip-path="url(#clip622)" d="M1683.07 1423.18 L1683.07 1423.18 L1717.59 1423.18 L1717.59 1423.18 L1683.07 1423.18 L1683.07 1423.18  Z" fill="#009af9" fill-rule="evenodd" fill-opacity="1"/>
<polyline clip-path="url(#clip622)" style="stroke:#000000; stroke-linecap:round; stroke-linejoin:round; stroke-width:4; stroke-opacity:1; fill:none" points="1683.07,1423.18 1683.07,1423.18 1717.59,1423.18 1683.07,1423.18 "/>
<path clip-path="url(#clip622)" d="M1717.59 1423.18 L1717.59 1423.18 L1752.11 1423.18 L1752.11 1423.18 L1717.59 1423.18 L1717.59 1423.18  Z" fill="#009af9" fill-rule="evenodd" fill-opacity="1"/>
<polyline clip-path="url(#clip622)" style="stroke:#000000; stroke-linecap:round; stroke-linejoin:round; stroke-width:4; stroke-opacity:1; fill:none" points="1717.59,1423.18 1717.59,1423.18 1752.11,1423.18 1717.59,1423.18 "/>
<path clip-path="url(#clip622)" d="M1752.11 1423.18 L1752.11 1423.18 L1786.63 1423.18 L1786.63 1423.18 L1752.11 1423.18 L1752.11 1423.18  Z" fill="#009af9" fill-rule="evenodd" fill-opacity="1"/>
<polyline clip-path="url(#clip622)" style="stroke:#000000; stroke-linecap:round; stroke-linejoin:round; stroke-width:4; stroke-opacity:1; fill:none" points="1752.11,1423.18 1752.11,1423.18 1786.63,1423.18 1752.11,1423.18 "/>
<path clip-path="url(#clip622)" d="M1786.63 1375.52 L1786.63 1423.18 L1821.16 1423.18 L1821.16 1375.52 L1786.63 1375.52 L1786.63 1375.52  Z" fill="#009af9" fill-rule="evenodd" fill-opacity="1"/>
<polyline clip-path="url(#clip622)" style="stroke:#000000; stroke-linecap:round; stroke-linejoin:round; stroke-width:4; stroke-opacity:1; fill:none" points="1786.63,1375.52 1786.63,1423.18 1821.16,1423.18 1821.16,1375.52 1786.63,1375.52 "/>
<path clip-path="url(#clip622)" d="M1821.16 1423.18 L1821.16 1423.18 L1855.68 1423.18 L1855.68 1423.18 L1821.16 1423.18 L1821.16 1423.18  Z" fill="#009af9" fill-rule="evenodd" fill-opacity="1"/>
<polyline clip-path="url(#clip622)" style="stroke:#000000; stroke-linecap:round; stroke-linejoin:round; stroke-width:4; stroke-opacity:1; fill:none" points="1821.16,1423.18 1821.16,1423.18 1855.68,1423.18 1821.16,1423.18 "/>
<path clip-path="url(#clip622)" d="M1855.68 1423.18 L1855.68 1423.18 L1890.2 1423.18 L1890.2 1423.18 L1855.68 1423.18 L1855.68 1423.18  Z" fill="#009af9" fill-rule="evenodd" fill-opacity="1"/>
<polyline clip-path="url(#clip622)" style="stroke:#000000; stroke-linecap:round; stroke-linejoin:round; stroke-width:4; stroke-opacity:1; fill:none" points="1855.68,1423.18 1855.68,1423.18 1890.2,1423.18 1855.68,1423.18 "/>
<path clip-path="url(#clip622)" d="M1890.2 1423.18 L1890.2 1423.18 L1924.72 1423.18 L1924.72 1423.18 L1890.2 1423.18 L1890.2 1423.18  Z" fill="#009af9" fill-rule="evenodd" fill-opacity="1"/>
<polyline clip-path="url(#clip622)" style="stroke:#000000; stroke-linecap:round; stroke-linejoin:round; stroke-width:4; stroke-opacity:1; fill:none" points="1890.2,1423.18 1890.2,1423.18 1924.72,1423.18 1890.2,1423.18 "/>
<path clip-path="url(#clip622)" d="M1924.72 1410.9 L1924.72 1423.18 L1959.24 1423.18 L1959.24 1410.9 L1924.72 1410.9 L1924.72 1410.9  Z" fill="#009af9" fill-rule="evenodd" fill-opacity="1"/>
<polyline clip-path="url(#clip622)" style="stroke:#000000; stroke-linecap:round; stroke-linejoin:round; stroke-width:4; stroke-opacity:1; fill:none" points="1924.72,1410.9 1924.72,1423.18 1959.24,1423.18 1959.24,1410.9 1924.72,1410.9 "/>
<path clip-path="url(#clip622)" d="M1959.24 1423.18 L1959.24 1423.18 L1993.76 1423.18 L1993.76 1423.18 L1959.24 1423.18 L1959.24 1423.18  Z" fill="#009af9" fill-rule="evenodd" fill-opacity="1"/>
<polyline clip-path="url(#clip622)" style="stroke:#000000; stroke-linecap:round; stroke-linejoin:round; stroke-width:4; stroke-opacity:1; fill:none" points="1959.24,1423.18 1959.24,1423.18 1993.76,1423.18 1959.24,1423.18 "/>
<path clip-path="url(#clip622)" d="M1993.76 1423.18 L1993.76 1423.18 L2028.29 1423.18 L2028.29 1423.18 L1993.76 1423.18 L1993.76 1423.18  Z" fill="#009af9" fill-rule="evenodd" fill-opacity="1"/>
<polyline clip-path="url(#clip622)" style="stroke:#000000; stroke-linecap:round; stroke-linejoin:round; stroke-width:4; stroke-opacity:1; fill:none" points="1993.76,1423.18 1993.76,1423.18 2028.29,1423.18 1993.76,1423.18 "/>
<path clip-path="url(#clip622)" d="M2028.29 1423.18 L2028.29 1423.18 L2062.81 1423.18 L2062.81 1423.18 L2028.29 1423.18 L2028.29 1423.18  Z" fill="#009af9" fill-rule="evenodd" fill-opacity="1"/>
<polyline clip-path="url(#clip622)" style="stroke:#000000; stroke-linecap:round; stroke-linejoin:round; stroke-width:4; stroke-opacity:1; fill:none" points="2028.29,1423.18 2028.29,1423.18 2062.81,1423.18 2028.29,1423.18 "/>
<path clip-path="url(#clip622)" d="M2062.81 1422.1 L2062.81 1423.18 L2097.33 1423.18 L2097.33 1422.1 L2062.81 1422.1 L2062.81 1422.1  Z" fill="#009af9" fill-rule="evenodd" fill-opacity="1"/>
<polyline clip-path="url(#clip622)" style="stroke:#000000; stroke-linecap:round; stroke-linejoin:round; stroke-width:4; stroke-opacity:1; fill:none" points="2062.81,1422.1 2062.81,1423.18 2097.33,1423.18 2097.33,1422.1 2062.81,1422.1 "/>
<path clip-path="url(#clip622)" d="M2097.33 1423.18 L2097.33 1423.18 L2131.85 1423.18 L2131.85 1423.18 L2097.33 1423.18 L2097.33 1423.18  Z" fill="#009af9" fill-rule="evenodd" fill-opacity="1"/>
<polyline clip-path="url(#clip622)" style="stroke:#000000; stroke-linecap:round; stroke-linejoin:round; stroke-width:4; stroke-opacity:1; fill:none" points="2097.33,1423.18 2097.33,1423.18 2131.85,1423.18 2097.33,1423.18 "/>
<path clip-path="url(#clip622)" d="M2131.85 1423.18 L2131.85 1423.18 L2166.37 1423.18 L2166.37 1423.18 L2131.85 1423.18 L2131.85 1423.18  Z" fill="#009af9" fill-rule="evenodd" fill-opacity="1"/>
<polyline clip-path="url(#clip622)" style="stroke:#000000; stroke-linecap:round; stroke-linejoin:round; stroke-width:4; stroke-opacity:1; fill:none" points="2131.85,1423.18 2131.85,1423.18 2166.37,1423.18 2131.85,1423.18 "/>
<path clip-path="url(#clip622)" d="M2166.37 1423.18 L2166.37 1423.18 L2200.89 1423.18 L2200.89 1423.18 L2166.37 1423.18 L2166.37 1423.18  Z" fill="#009af9" fill-rule="evenodd" fill-opacity="1"/>
<polyline clip-path="url(#clip622)" style="stroke:#000000; stroke-linecap:round; stroke-linejoin:round; stroke-width:4; stroke-opacity:1; fill:none" points="2166.37,1423.18 2166.37,1423.18 2200.89,1423.18 2166.37,1423.18 "/>
<path clip-path="url(#clip622)" d="M2200.89 1422.82 L2200.89 1423.18 L2235.42 1423.18 L2235.42 1422.82 L2200.89 1422.82 L2200.89 1422.82  Z" fill="#009af9" fill-rule="evenodd" fill-opacity="1"/>
<polyline clip-path="url(#clip622)" style="stroke:#000000; stroke-linecap:round; stroke-linejoin:round; stroke-width:4; stroke-opacity:1; fill:none" points="2200.89,1422.82 2200.89,1423.18 2235.42,1423.18 2235.42,1422.82 2200.89,1422.82 "/>
<circle clip-path="url(#clip622)" style="fill:#009af9; stroke:none; fill-opacity:0" cx="353.981" cy="1276.24" r="2"/>
<circle clip-path="url(#clip622)" style="fill:#009af9; stroke:none; fill-opacity:0" cx="388.502" cy="1423.18" r="2"/>
<circle clip-path="url(#clip622)" style="fill:#009af9; stroke:none; fill-opacity:0" cx="423.024" cy="1319.93" r="2"/>
<circle clip-path="url(#clip622)" style="fill:#009af9; stroke:none; fill-opacity:0" cx="457.546" cy="1423.18" r="2"/>
<circle clip-path="url(#clip622)" style="fill:#009af9; stroke:none; fill-opacity:0" cx="492.068" cy="1423.18" r="2"/>
<circle clip-path="url(#clip622)" style="fill:#009af9; stroke:none; fill-opacity:0" cx="526.589" cy="1423.18" r="2"/>
<circle clip-path="url(#clip622)" style="fill:#009af9; stroke:none; fill-opacity:0" cx="561.111" cy="1079.84" r="2"/>
<circle clip-path="url(#clip622)" style="fill:#009af9; stroke:none; fill-opacity:0" cx="595.633" cy="1423.18" r="2"/>
<circle clip-path="url(#clip622)" style="fill:#009af9; stroke:none; fill-opacity:0" cx="630.155" cy="1423.18" r="2"/>
<circle clip-path="url(#clip622)" style="fill:#009af9; stroke:none; fill-opacity:0" cx="664.676" cy="1423.18" r="2"/>
<circle clip-path="url(#clip622)" style="fill:#009af9; stroke:none; fill-opacity:0" cx="699.198" cy="732.53" r="2"/>
<circle clip-path="url(#clip622)" style="fill:#009af9; stroke:none; fill-opacity:0" cx="733.72" cy="1423.18" r="2"/>
<circle clip-path="url(#clip622)" style="fill:#009af9; stroke:none; fill-opacity:0" cx="768.242" cy="1423.18" r="2"/>
<circle clip-path="url(#clip622)" style="fill:#009af9; stroke:none; fill-opacity:0" cx="802.763" cy="1423.18" r="2"/>
<circle clip-path="url(#clip622)" style="fill:#009af9; stroke:none; fill-opacity:0" cx="837.285" cy="384.136" r="2"/>
<circle clip-path="url(#clip622)" style="fill:#009af9; stroke:none; fill-opacity:0" cx="871.807" cy="1423.18" r="2"/>
<circle clip-path="url(#clip622)" style="fill:#009af9; stroke:none; fill-opacity:0" cx="906.329" cy="1423.18" r="2"/>
<circle clip-path="url(#clip622)" style="fill:#009af9; stroke:none; fill-opacity:0" cx="940.85" cy="1423.18" r="2"/>
<circle clip-path="url(#clip622)" style="fill:#009af9; stroke:none; fill-opacity:0" cx="975.372" cy="163.907" r="2"/>
<circle clip-path="url(#clip622)" style="fill:#009af9; stroke:none; fill-opacity:0" cx="1009.89" cy="1423.18" r="2"/>
<circle clip-path="url(#clip622)" style="fill:#009af9; stroke:none; fill-opacity:0" cx="1044.42" cy="1423.18" r="2"/>
<circle clip-path="url(#clip622)" style="fill:#009af9; stroke:none; fill-opacity:0" cx="1078.94" cy="1423.18" r="2"/>
<circle clip-path="url(#clip622)" style="fill:#009af9; stroke:none; fill-opacity:0" cx="1113.46" cy="123.472" r="2"/>
<circle clip-path="url(#clip622)" style="fill:#009af9; stroke:none; fill-opacity:0" cx="1147.98" cy="1423.18" r="2"/>
<circle clip-path="url(#clip622)" style="fill:#009af9; stroke:none; fill-opacity:0" cx="1182.5" cy="1423.18" r="2"/>
<circle clip-path="url(#clip622)" style="fill:#009af9; stroke:none; fill-opacity:0" cx="1217.02" cy="1423.18" r="2"/>
<circle clip-path="url(#clip622)" style="fill:#009af9; stroke:none; fill-opacity:0" cx="1251.55" cy="367.528" r="2"/>
<circle clip-path="url(#clip622)" style="fill:#009af9; stroke:none; fill-opacity:0" cx="1286.07" cy="1423.18" r="2"/>
<circle clip-path="url(#clip622)" style="fill:#009af9; stroke:none; fill-opacity:0" cx="1320.59" cy="1423.18" r="2"/>
<circle clip-path="url(#clip622)" style="fill:#009af9; stroke:none; fill-opacity:0" cx="1355.11" cy="1423.18" r="2"/>
<circle clip-path="url(#clip622)" style="fill:#009af9; stroke:none; fill-opacity:0" cx="1389.63" cy="762.134" r="2"/>
<circle clip-path="url(#clip622)" style="fill:#009af9; stroke:none; fill-opacity:0" cx="1424.16" cy="1423.18" r="2"/>
<circle clip-path="url(#clip622)" style="fill:#009af9; stroke:none; fill-opacity:0" cx="1458.68" cy="1423.18" r="2"/>
<circle clip-path="url(#clip622)" style="fill:#009af9; stroke:none; fill-opacity:0" cx="1493.2" cy="1423.18" r="2"/>
<circle clip-path="url(#clip622)" style="fill:#009af9; stroke:none; fill-opacity:0" cx="1527.72" cy="1029.3" r="2"/>
<circle clip-path="url(#clip622)" style="fill:#009af9; stroke:none; fill-opacity:0" cx="1562.24" cy="1423.18" r="2"/>
<circle clip-path="url(#clip622)" style="fill:#009af9; stroke:none; fill-opacity:0" cx="1596.76" cy="1423.18" r="2"/>
<circle clip-path="url(#clip622)" style="fill:#009af9; stroke:none; fill-opacity:0" cx="1631.29" cy="1423.18" r="2"/>
<circle clip-path="url(#clip622)" style="fill:#009af9; stroke:none; fill-opacity:0" cx="1665.81" cy="1256.75" r="2"/>
<circle clip-path="url(#clip622)" style="fill:#009af9; stroke:none; fill-opacity:0" cx="1700.33" cy="1423.18" r="2"/>
<circle clip-path="url(#clip622)" style="fill:#009af9; stroke:none; fill-opacity:0" cx="1734.85" cy="1423.18" r="2"/>
<circle clip-path="url(#clip622)" style="fill:#009af9; stroke:none; fill-opacity:0" cx="1769.37" cy="1423.18" r="2"/>
<circle clip-path="url(#clip622)" style="fill:#009af9; stroke:none; fill-opacity:0" cx="1803.89" cy="1375.52" r="2"/>
<circle clip-path="url(#clip622)" style="fill:#009af9; stroke:none; fill-opacity:0" cx="1838.42" cy="1423.18" r="2"/>
<circle clip-path="url(#clip622)" style="fill:#009af9; stroke:none; fill-opacity:0" cx="1872.94" cy="1423.18" r="2"/>
<circle clip-path="url(#clip622)" style="fill:#009af9; stroke:none; fill-opacity:0" cx="1907.46" cy="1423.18" r="2"/>
<circle clip-path="url(#clip622)" style="fill:#009af9; stroke:none; fill-opacity:0" cx="1941.98" cy="1410.9" r="2"/>
<circle clip-path="url(#clip622)" style="fill:#009af9; stroke:none; fill-opacity:0" cx="1976.5" cy="1423.18" r="2"/>
<circle clip-path="url(#clip622)" style="fill:#009af9; stroke:none; fill-opacity:0" cx="2011.02" cy="1423.18" r="2"/>
<circle clip-path="url(#clip622)" style="fill:#009af9; stroke:none; fill-opacity:0" cx="2045.55" cy="1423.18" r="2"/>
<circle clip-path="url(#clip622)" style="fill:#009af9; stroke:none; fill-opacity:0" cx="2080.07" cy="1422.1" r="2"/>
<circle clip-path="url(#clip622)" style="fill:#009af9; stroke:none; fill-opacity:0" cx="2114.59" cy="1423.18" r="2"/>
<circle clip-path="url(#clip622)" style="fill:#009af9; stroke:none; fill-opacity:0" cx="2149.11" cy="1423.18" r="2"/>
<circle clip-path="url(#clip622)" style="fill:#009af9; stroke:none; fill-opacity:0" cx="2183.63" cy="1423.18" r="2"/>
<circle clip-path="url(#clip622)" style="fill:#009af9; stroke:none; fill-opacity:0" cx="2218.16" cy="1422.82" r="2"/>
</svg>
