<?xml version="1.0" encoding="utf-8"?>
<svg xmlns="http://www.w3.org/2000/svg" xmlns:xlink="http://www.w3.org/1999/xlink" width="600" height="400" viewBox="0 0 2400 1600">
<defs>
  <clipPath id="clip330">
    <rect x="0" y="0" width="2400" height="1600"/>
  </clipPath>
</defs>
<path clip-path="url(#clip330)" d="M0 1600 L2400 1600 L2400 0 L0 0  Z" fill="#ffffff" fill-rule="evenodd" fill-opacity="1"/>
<defs>
  <clipPath id="clip331">
    <rect x="480" y="0" width="1681" height="1600"/>
  </clipPath>
</defs>
<path clip-path="url(#clip330)" d="M232.389 1423.18 L2352.76 1423.18 L2352.76 47.2441 L232.389 47.2441  Z" fill="#ffffff" fill-rule="evenodd" fill-opacity="1"/>
<defs>
  <clipPath id="clip332">
    <rect x="232" y="47" width="2121" height="1377"/>
  </clipPath>
</defs>
<polyline clip-path="url(#clip332)" style="stroke:#000000; stroke-linecap:round; stroke-linejoin:round; stroke-width:2; stroke-opacity:0.1; fill:none" points="290.397,1423.18 290.397,47.2441 "/>
<polyline clip-path="url(#clip332)" style="stroke:#000000; stroke-linecap:round; stroke-linejoin:round; stroke-width:2; stroke-opacity:0.1; fill:none" points="790.984,1423.18 790.984,47.2441 "/>
<polyline clip-path="url(#clip332)" style="stroke:#000000; stroke-linecap:round; stroke-linejoin:round; stroke-width:2; stroke-opacity:0.1; fill:none" points="1291.57,1423.18 1291.57,47.2441 "/>
<polyline clip-path="url(#clip332)" style="stroke:#000000; stroke-linecap:round; stroke-linejoin:round; stroke-width:2; stroke-opacity:0.1; fill:none" points="1792.16,1423.18 1792.16,47.2441 "/>
<polyline clip-path="url(#clip332)" style="stroke:#000000; stroke-linecap:round; stroke-linejoin:round; stroke-width:2; stroke-opacity:0.1; fill:none" points="2292.75,1423.18 2292.75,47.2441 "/>
<polyline clip-path="url(#clip330)" style="stroke:#000000; stroke-linecap:round; stroke-linejoin:round; stroke-width:4; stroke-opacity:1; fill:none" points="232.389,1423.18 2352.76,1423.18 "/>
<polyline clip-path="url(#clip330)" style="stroke:#000000; stroke-linecap:round; stroke-linejoin:round; stroke-width:4; stroke-opacity:1; fill:none" points="290.397,1423.18 290.397,1404.28 "/>
<polyline clip-path="url(#clip330)" style="stroke:#000000; stroke-linecap:round; stroke-linejoin:round; stroke-width:4; stroke-opacity:1; fill:none" points="790.984,1423.18 790.984,1404.28 "/>
<polyline clip-path="url(#clip330)" style="stroke:#000000; stroke-linecap:round; stroke-linejoin:round; stroke-width:4; stroke-opacity:1; fill:none" points="1291.57,1423.18 1291.57,1404.28 "/>
<polyline clip-path="url(#clip330)" style="stroke:#000000; stroke-linecap:round; stroke-linejoin:round; stroke-width:4; stroke-opacity:1; fill:none" points="1792.16,1423.18 1792.16,1404.28 "/>
<polyline clip-path="url(#clip330)" style="stroke:#000000; stroke-linecap:round; stroke-linejoin:round; stroke-width:4; stroke-opacity:1; fill:none" points="2292.75,1423.18 2292.75,1404.28 "/>
<path clip-path="url(#clip330)" d="M290.397 1454.1 Q286.786 1454.1 284.958 1457.66 Q283.152 1461.2 283.152 1468.33 Q283.152 1475.44 284.958 1479.01 Q286.786 1482.55 290.397 1482.55 Q294.032 1482.55 295.837 1479.01 Q297.666 1475.44 297.666 1468.33 Q297.666 1461.2 295.837 1457.66 Q294.032 1454.1 290.397 1454.1 M290.397 1450.39 Q296.208 1450.39 299.263 1455 Q302.342 1459.58 302.342 1468.33 Q302.342 1477.06 299.263 1481.67 Q296.208 1486.25 290.397 1486.25 Q284.587 1486.25 281.509 1481.67 Q278.453 1477.06 278.453 1468.33 Q278.453 1459.58 281.509 1455 Q284.587 1450.39 290.397 1450.39 Z" fill="#000000" fill-rule="nonzero" fill-opacity="1" /><path clip-path="url(#clip330)" d="M754.677 1481.64 L770.996 1481.64 L770.996 1485.58 L749.052 1485.58 L749.052 1481.64 Q751.714 1478.89 756.297 1474.26 Q760.904 1469.61 762.084 1468.27 Q764.329 1465.74 765.209 1464.01 Q766.112 1462.25 766.112 1460.56 Q766.112 1457.8 764.167 1456.07 Q762.246 1454.33 759.144 1454.33 Q756.945 1454.33 754.492 1455.09 Q752.061 1455.86 749.283 1457.41 L749.283 1452.69 Q752.107 1451.55 754.561 1450.97 Q757.015 1450.39 759.052 1450.39 Q764.422 1450.39 767.616 1453.08 Q770.811 1455.77 770.811 1460.26 Q770.811 1462.39 770.001 1464.31 Q769.214 1466.2 767.107 1468.8 Q766.529 1469.47 763.427 1472.69 Q760.325 1475.88 754.677 1481.64 Z" fill="#000000" fill-rule="nonzero" fill-opacity="1" /><path clip-path="url(#clip330)" d="M780.857 1451.02 L799.214 1451.02 L799.214 1454.96 L785.14 1454.96 L785.14 1463.43 Q786.158 1463.08 787.177 1462.92 Q788.195 1462.73 789.214 1462.73 Q795.001 1462.73 798.38 1465.9 Q801.76 1469.08 801.76 1474.49 Q801.76 1480.07 798.288 1483.17 Q794.815 1486.25 788.496 1486.25 Q786.32 1486.25 784.052 1485.88 Q781.806 1485.51 779.399 1484.77 L779.399 1480.07 Q781.482 1481.2 783.704 1481.76 Q785.927 1482.32 788.403 1482.32 Q792.408 1482.32 794.746 1480.21 Q797.084 1478.1 797.084 1474.49 Q797.084 1470.88 794.746 1468.77 Q792.408 1466.67 788.403 1466.67 Q786.528 1466.67 784.653 1467.08 Q782.802 1467.5 780.857 1468.38 L780.857 1451.02 Z" fill="#000000" fill-rule="nonzero" fill-opacity="1" /><path clip-path="url(#clip330)" d="M820.973 1454.1 Q817.362 1454.1 815.533 1457.66 Q813.727 1461.2 813.727 1468.33 Q813.727 1475.44 815.533 1479.01 Q817.362 1482.55 820.973 1482.55 Q824.607 1482.55 826.412 1479.01 Q828.241 1475.44 828.241 1468.33 Q828.241 1461.2 826.412 1457.66 Q824.607 1454.1 820.973 1454.1 M820.973 1450.39 Q826.783 1450.39 829.838 1455 Q832.917 1459.58 832.917 1468.33 Q832.917 1477.06 829.838 1481.67 Q826.783 1486.25 820.973 1486.25 Q815.163 1486.25 812.084 1481.67 Q809.028 1477.06 809.028 1468.33 Q809.028 1459.58 812.084 1455 Q815.163 1450.39 820.973 1450.39 Z" fill="#000000" fill-rule="nonzero" fill-opacity="1" /><path clip-path="url(#clip330)" d="M1251.19 1451.02 L1269.55 1451.02 L1269.55 1454.96 L1255.47 1454.96 L1255.47 1463.43 Q1256.49 1463.08 1257.51 1462.92 Q1258.53 1462.73 1259.55 1462.73 Q1265.33 1462.73 1268.71 1465.9 Q1272.09 1469.08 1272.09 1474.49 Q1272.09 1480.07 1268.62 1483.17 Q1265.15 1486.25 1258.83 1486.25 Q1256.65 1486.25 1254.38 1485.88 Q1252.14 1485.51 1249.73 1484.77 L1249.73 1480.07 Q1251.81 1481.2 1254.04 1481.76 Q1256.26 1482.32 1258.74 1482.32 Q1262.74 1482.32 1265.08 1480.21 Q1267.42 1478.1 1267.42 1474.49 Q1267.42 1470.88 1265.08 1468.77 Q1262.74 1466.67 1258.74 1466.67 Q1256.86 1466.67 1254.99 1467.08 Q1253.13 1467.5 1251.19 1468.38 L1251.19 1451.02 Z" fill="#000000" fill-rule="nonzero" fill-opacity="1" /><path clip-path="url(#clip330)" d="M1291.31 1454.1 Q1287.69 1454.1 1285.87 1457.66 Q1284.06 1461.2 1284.06 1468.33 Q1284.06 1475.44 1285.87 1479.01 Q1287.69 1482.55 1291.31 1482.55 Q1294.94 1482.55 1296.75 1479.01 Q1298.57 1475.44 1298.57 1468.33 Q1298.57 1461.2 1296.75 1457.66 Q1294.94 1454.1 1291.31 1454.1 M1291.31 1450.39 Q1297.12 1450.39 1300.17 1455 Q1303.25 1459.58 1303.25 1468.33 Q1303.25 1477.06 1300.17 1481.67 Q1297.12 1486.25 1291.31 1486.25 Q1285.5 1486.25 1282.42 1481.67 Q1279.36 1477.06 1279.36 1468.33 Q1279.36 1459.58 1282.42 1455 Q1285.5 1450.39 1291.31 1450.39 Z" fill="#000000" fill-rule="nonzero" fill-opacity="1" /><path clip-path="url(#clip330)" d="M1321.47 1454.1 Q1317.86 1454.1 1316.03 1457.66 Q1314.22 1461.2 1314.22 1468.33 Q1314.22 1475.44 1316.03 1479.01 Q1317.86 1482.55 1321.47 1482.55 Q1325.1 1482.55 1326.91 1479.01 Q1328.74 1475.44 1328.74 1468.33 Q1328.74 1461.2 1326.91 1457.66 Q1325.1 1454.1 1321.47 1454.1 M1321.47 1450.39 Q1327.28 1450.39 1330.33 1455 Q1333.41 1459.58 1333.41 1468.33 Q1333.41 1477.06 1330.33 1481.67 Q1327.28 1486.25 1321.47 1486.25 Q1315.66 1486.25 1312.58 1481.67 Q1309.52 1477.06 1309.52 1468.33 Q1309.52 1459.58 1312.58 1455 Q1315.66 1450.39 1321.47 1450.39 Z" fill="#000000" fill-rule="nonzero" fill-opacity="1" /><path clip-path="url(#clip330)" d="M1750.43 1451.02 L1772.66 1451.02 L1772.66 1453.01 L1760.11 1485.58 L1755.23 1485.58 L1767.03 1454.96 L1750.43 1454.96 L1750.43 1451.02 Z" fill="#000000" fill-rule="nonzero" fill-opacity="1" /><path clip-path="url(#clip330)" d="M1781.82 1451.02 L1800.18 1451.02 L1800.18 1454.96 L1786.11 1454.96 L1786.11 1463.43 Q1787.12 1463.08 1788.14 1462.92 Q1789.16 1462.73 1790.18 1462.73 Q1795.97 1462.73 1799.35 1465.9 Q1802.73 1469.08 1802.73 1474.49 Q1802.73 1480.07 1799.25 1483.17 Q1795.78 1486.25 1789.46 1486.25 Q1787.29 1486.25 1785.02 1485.88 Q1782.77 1485.51 1780.36 1484.77 L1780.36 1480.07 Q1782.45 1481.2 1784.67 1481.76 Q1786.89 1482.32 1789.37 1482.32 Q1793.37 1482.32 1795.71 1480.21 Q1798.05 1478.1 1798.05 1474.49 Q1798.05 1470.88 1795.71 1468.77 Q1793.37 1466.67 1789.37 1466.67 Q1787.49 1466.67 1785.62 1467.08 Q1783.77 1467.5 1781.82 1468.38 L1781.82 1451.02 Z" fill="#000000" fill-rule="nonzero" fill-opacity="1" /><path clip-path="url(#clip330)" d="M1821.94 1454.1 Q1818.33 1454.1 1816.5 1457.66 Q1814.69 1461.2 1814.69 1468.33 Q1814.69 1475.44 1816.5 1479.01 Q1818.33 1482.55 1821.94 1482.55 Q1825.57 1482.55 1827.38 1479.01 Q1829.21 1475.44 1829.21 1468.33 Q1829.21 1461.2 1827.38 1457.66 Q1825.57 1454.1 1821.94 1454.1 M1821.94 1450.39 Q1827.75 1450.39 1830.8 1455 Q1833.88 1459.58 1833.88 1468.33 Q1833.88 1477.06 1830.8 1481.67 Q1827.75 1486.25 1821.94 1486.25 Q1816.13 1486.25 1813.05 1481.67 Q1809.99 1477.06 1809.99 1468.33 Q1809.99 1459.58 1813.05 1455 Q1816.13 1450.39 1821.94 1450.39 Z" fill="#000000" fill-rule="nonzero" fill-opacity="1" /><path clip-path="url(#clip330)" d="M2237.27 1481.64 L2244.91 1481.64 L2244.91 1455.28 L2236.6 1456.95 L2236.6 1452.69 L2244.86 1451.02 L2249.54 1451.02 L2249.54 1481.64 L2257.18 1481.64 L2257.18 1485.58 L2237.27 1485.58 L2237.27 1481.64 Z" fill="#000000" fill-rule="nonzero" fill-opacity="1" /><path clip-path="url(#clip330)" d="M2276.62 1454.1 Q2273.01 1454.1 2271.18 1457.66 Q2269.38 1461.2 2269.38 1468.33 Q2269.38 1475.44 2271.18 1479.01 Q2273.01 1482.55 2276.62 1482.55 Q2280.26 1482.55 2282.06 1479.01 Q2283.89 1475.44 2283.89 1468.33 Q2283.89 1461.2 2282.06 1457.66 Q2280.26 1454.1 2276.62 1454.1 M2276.62 1450.39 Q2282.43 1450.39 2285.49 1455 Q2288.57 1459.58 2288.57 1468.33 Q2288.57 1477.06 2285.49 1481.67 Q2282.43 1486.25 2276.62 1486.25 Q2270.81 1486.25 2267.73 1481.67 Q2264.68 1477.06 2264.68 1468.33 Q2264.68 1459.58 2267.73 1455 Q2270.81 1450.39 2276.62 1450.39 Z" fill="#000000" fill-rule="nonzero" fill-opacity="1" /><path clip-path="url(#clip330)" d="M2306.78 1454.1 Q2303.17 1454.1 2301.35 1457.66 Q2299.54 1461.2 2299.54 1468.33 Q2299.54 1475.44 2301.35 1479.01 Q2303.17 1482.55 2306.78 1482.55 Q2310.42 1482.55 2312.22 1479.01 Q2314.05 1475.44 2314.05 1468.33 Q2314.05 1461.2 2312.22 1457.66 Q2310.42 1454.1 2306.78 1454.1 M2306.78 1450.39 Q2312.59 1450.39 2315.65 1455 Q2318.73 1459.58 2318.73 1468.33 Q2318.73 1477.06 2315.65 1481.67 Q2312.59 1486.25 2306.78 1486.25 Q2300.97 1486.25 2297.9 1481.67 Q2294.84 1477.06 2294.84 1468.33 Q2294.84 1459.58 2297.9 1455 Q2300.97 1450.39 2306.78 1450.39 Z" fill="#000000" fill-rule="nonzero" fill-opacity="1" /><path clip-path="url(#clip330)" d="M2336.95 1454.1 Q2333.34 1454.1 2331.51 1457.66 Q2329.7 1461.2 2329.7 1468.33 Q2329.7 1475.44 2331.51 1479.01 Q2333.34 1482.55 2336.95 1482.55 Q2340.58 1482.55 2342.39 1479.01 Q2344.22 1475.44 2344.22 1468.33 Q2344.22 1461.2 2342.39 1457.66 Q2340.58 1454.1 2336.95 1454.1 M2336.95 1450.39 Q2342.76 1450.39 2345.81 1455 Q2348.89 1459.58 2348.89 1468.33 Q2348.89 1477.06 2345.81 1481.67 Q2342.76 1486.25 2336.95 1486.25 Q2331.14 1486.25 2328.06 1481.67 Q2325 1477.06 2325 1468.33 Q2325 1459.58 2328.06 1455 Q2331.14 1450.39 2336.95 1450.39 Z" fill="#000000" fill-rule="nonzero" fill-opacity="1" /><path clip-path="url(#clip330)" d="M1218.14 1545.76 Q1220.21 1546.46 1222.15 1548.76 Q1224.13 1551.05 1226.1 1555.06 L1232.62 1568.04 L1225.72 1568.04 L1219.64 1555.85 Q1217.28 1551.08 1215.05 1549.52 Q1212.86 1547.96 1209.04 1547.96 L1202.04 1547.96 L1202.04 1568.04 L1195.61 1568.04 L1195.61 1520.52 L1210.12 1520.52 Q1218.27 1520.52 1222.28 1523.93 Q1226.29 1527.34 1226.29 1534.21 Q1226.29 1538.7 1224.19 1541.66 Q1222.12 1544.62 1218.14 1545.76 M1202.04 1525.81 L1202.04 1542.68 L1210.12 1542.68 Q1214.77 1542.68 1217.12 1540.54 Q1219.51 1538.38 1219.51 1534.21 Q1219.51 1530.04 1217.12 1527.94 Q1214.77 1525.81 1210.12 1525.81 L1202.04 1525.81 Z" fill="#000000" fill-rule="nonzero" fill-opacity="1" /><path clip-path="url(#clip330)" d="M1251.53 1536.5 Q1246.82 1536.5 1244.08 1540.19 Q1241.34 1543.85 1241.34 1550.25 Q1241.34 1556.65 1244.05 1560.34 Q1246.79 1564 1251.53 1564 Q1256.21 1564 1258.95 1560.31 Q1261.68 1556.62 1261.68 1550.25 Q1261.68 1543.92 1258.95 1540.23 Q1256.21 1536.5 1251.53 1536.5 M1251.53 1531.54 Q1259.17 1531.54 1263.53 1536.5 Q1267.89 1541.47 1267.89 1550.25 Q1267.89 1559 1263.53 1564 Q1259.17 1568.97 1251.53 1568.97 Q1243.86 1568.97 1239.5 1564 Q1235.17 1559 1235.17 1550.25 Q1235.17 1541.47 1239.5 1536.5 Q1243.86 1531.54 1251.53 1531.54 Z" fill="#000000" fill-rule="nonzero" fill-opacity="1" /><path clip-path="url(#clip330)" d="M1276.99 1553.98 L1276.99 1532.4 L1282.85 1532.4 L1282.85 1553.75 Q1282.85 1558.81 1284.82 1561.36 Q1286.8 1563.87 1290.74 1563.87 Q1295.48 1563.87 1298.22 1560.85 Q1300.99 1557.83 1300.99 1552.61 L1300.99 1532.4 L1306.85 1532.4 L1306.85 1568.04 L1300.99 1568.04 L1300.99 1562.57 Q1298.86 1565.82 1296.03 1567.41 Q1293.23 1568.97 1289.5 1568.97 Q1283.36 1568.97 1280.18 1565.15 Q1276.99 1561.33 1276.99 1553.98 M1291.73 1531.54 L1291.73 1531.54 Z" fill="#000000" fill-rule="nonzero" fill-opacity="1" /><path clip-path="url(#clip330)" d="M1348.54 1546.53 L1348.54 1568.04 L1342.69 1568.04 L1342.69 1546.72 Q1342.69 1541.66 1340.71 1539.14 Q1338.74 1536.63 1334.79 1536.63 Q1330.05 1536.63 1327.31 1539.65 Q1324.58 1542.68 1324.58 1547.9 L1324.58 1568.04 L1318.69 1568.04 L1318.69 1532.4 L1324.58 1532.4 L1324.58 1537.93 Q1326.68 1534.72 1329.51 1533.13 Q1332.37 1531.54 1336.1 1531.54 Q1342.24 1531.54 1345.39 1535.36 Q1348.54 1539.14 1348.54 1546.53 Z" fill="#000000" fill-rule="nonzero" fill-opacity="1" /><path clip-path="url(#clip330)" d="M1383.68 1537.81 L1383.68 1518.52 L1389.54 1518.52 L1389.54 1568.04 L1383.68 1568.04 L1383.68 1562.7 Q1381.84 1565.88 1379 1567.44 Q1376.2 1568.97 1372.26 1568.97 Q1365.79 1568.97 1361.72 1563.81 Q1357.68 1558.65 1357.68 1550.25 Q1357.68 1541.85 1361.72 1536.69 Q1365.79 1531.54 1372.26 1531.54 Q1376.2 1531.54 1379 1533.1 Q1381.84 1534.62 1383.68 1537.81 M1363.73 1550.25 Q1363.73 1556.71 1366.37 1560.4 Q1369.04 1564.07 1373.69 1564.07 Q1378.33 1564.07 1381.01 1560.4 Q1383.68 1556.71 1383.68 1550.25 Q1383.68 1543.79 1381.01 1540.13 Q1378.33 1536.44 1373.69 1536.44 Q1369.04 1536.44 1366.37 1540.13 Q1363.73 1543.79 1363.73 1550.25 Z" fill="#000000" fill-rule="nonzero" fill-opacity="1" /><polyline clip-path="url(#clip332)" style="stroke:#000000; stroke-linecap:round; stroke-linejoin:round; stroke-width:2; stroke-opacity:0.1; fill:none" points="232.389,1270.12 2352.76,1270.12 "/>
<polyline clip-path="url(#clip332)" style="stroke:#000000; stroke-linecap:round; stroke-linejoin:round; stroke-width:2; stroke-opacity:0.1; fill:none" points="232.389,984.837 2352.76,984.837 "/>
<polyline clip-path="url(#clip332)" style="stroke:#000000; stroke-linecap:round; stroke-linejoin:round; stroke-width:2; stroke-opacity:0.1; fill:none" points="232.389,699.551 2352.76,699.551 "/>
<polyline clip-path="url(#clip332)" style="stroke:#000000; stroke-linecap:round; stroke-linejoin:round; stroke-width:2; stroke-opacity:0.1; fill:none" points="232.389,414.265 2352.76,414.265 "/>
<polyline clip-path="url(#clip332)" style="stroke:#000000; stroke-linecap:round; stroke-linejoin:round; stroke-width:2; stroke-opacity:0.1; fill:none" points="232.389,128.979 2352.76,128.979 "/>
<polyline clip-path="url(#clip330)" style="stroke:#000000; stroke-linecap:round; stroke-linejoin:round; stroke-width:4; stroke-opacity:1; fill:none" points="232.389,1423.18 232.389,47.2441 "/>
<polyline clip-path="url(#clip330)" style="stroke:#000000; stroke-linecap:round; stroke-linejoin:round; stroke-width:4; stroke-opacity:1; fill:none" points="232.389,1270.12 251.287,1270.12 "/>
<polyline clip-path="url(#clip330)" style="stroke:#000000; stroke-linecap:round; stroke-linejoin:round; stroke-width:4; stroke-opacity:1; fill:none" points="232.389,984.837 251.287,984.837 "/>
<polyline clip-path="url(#clip330)" style="stroke:#000000; stroke-linecap:round; stroke-linejoin:round; stroke-width:4; stroke-opacity:1; fill:none" points="232.389,699.551 251.287,699.551 "/>
<polyline clip-path="url(#clip330)" style="stroke:#000000; stroke-linecap:round; stroke-linejoin:round; stroke-width:4; stroke-opacity:1; fill:none" points="232.389,414.265 251.287,414.265 "/>
<polyline clip-path="url(#clip330)" style="stroke:#000000; stroke-linecap:round; stroke-linejoin:round; stroke-width:4; stroke-opacity:1; fill:none" points="232.389,128.979 251.287,128.979 "/>
<path clip-path="url(#clip330)" d="M154.862 1268.26 Q151.714 1268.26 149.862 1270.41 Q148.033 1272.57 148.033 1276.32 Q148.033 1280.04 149.862 1282.22 Q151.714 1284.37 154.862 1284.37 Q158.01 1284.37 159.839 1282.22 Q161.69 1280.04 161.69 1276.32 Q161.69 1272.57 159.839 1270.41 Q158.01 1268.26 154.862 1268.26 M164.144 1253.61 L164.144 1257.87 Q162.385 1257.03 160.579 1256.59 Q158.797 1256.15 157.038 1256.15 Q152.408 1256.15 149.954 1259.28 Q147.524 1262.4 147.177 1268.72 Q148.542 1266.71 150.603 1265.64 Q152.663 1264.56 155.14 1264.56 Q160.348 1264.56 163.357 1267.73 Q166.39 1270.88 166.39 1276.32 Q166.39 1281.64 163.241 1284.86 Q160.093 1288.08 154.862 1288.08 Q148.866 1288.08 145.695 1283.49 Q142.524 1278.89 142.524 1270.16 Q142.524 1261.96 146.413 1257.1 Q150.302 1252.22 156.853 1252.22 Q158.612 1252.22 160.394 1252.57 Q162.2 1252.91 164.144 1253.61 Z" fill="#000000" fill-rule="nonzero" fill-opacity="1" /><path clip-path="url(#clip330)" d="M184.445 1255.92 Q180.834 1255.92 179.005 1259.49 Q177.2 1263.03 177.2 1270.16 Q177.2 1277.26 179.005 1280.83 Q180.834 1284.37 184.445 1284.37 Q188.079 1284.37 189.885 1280.83 Q191.713 1277.26 191.713 1270.16 Q191.713 1263.03 189.885 1259.49 Q188.079 1255.92 184.445 1255.92 M184.445 1252.22 Q190.255 1252.22 193.311 1256.83 Q196.389 1261.41 196.389 1270.16 Q196.389 1278.89 193.311 1283.49 Q190.255 1288.08 184.445 1288.08 Q178.635 1288.08 175.556 1283.49 Q172.501 1278.89 172.501 1270.16 Q172.501 1261.41 175.556 1256.83 Q178.635 1252.22 184.445 1252.22 Z" fill="#000000" fill-rule="nonzero" fill-opacity="1" /><path clip-path="url(#clip330)" d="M154.283 985.706 Q150.95 985.706 149.028 987.488 Q147.13 989.27 147.13 992.395 Q147.13 995.52 149.028 997.303 Q150.95 999.085 154.283 999.085 Q157.616 999.085 159.538 997.303 Q161.459 995.497 161.459 992.395 Q161.459 989.27 159.538 987.488 Q157.64 985.706 154.283 985.706 M149.607 983.715 Q146.598 982.974 144.908 980.914 Q143.241 978.854 143.241 975.891 Q143.241 971.747 146.181 969.34 Q149.144 966.932 154.283 966.932 Q159.445 966.932 162.385 969.34 Q165.325 971.747 165.325 975.891 Q165.325 978.854 163.635 980.914 Q161.968 982.974 158.982 983.715 Q162.362 984.502 164.237 986.793 Q166.135 989.085 166.135 992.395 Q166.135 997.418 163.056 1000.1 Q160.001 1002.79 154.283 1002.79 Q148.566 1002.79 145.487 1000.1 Q142.431 997.418 142.431 992.395 Q142.431 989.085 144.329 986.793 Q146.228 984.502 149.607 983.715 M147.894 976.331 Q147.894 979.016 149.561 980.52 Q151.251 982.025 154.283 982.025 Q157.292 982.025 158.982 980.52 Q160.695 979.016 160.695 976.331 Q160.695 973.645 158.982 972.141 Q157.292 970.636 154.283 970.636 Q151.251 970.636 149.561 972.141 Q147.894 973.645 147.894 976.331 Z" fill="#000000" fill-rule="nonzero" fill-opacity="1" /><path clip-path="url(#clip330)" d="M184.445 970.636 Q180.834 970.636 179.005 974.201 Q177.2 977.743 177.2 984.872 Q177.2 991.979 179.005 995.543 Q180.834 999.085 184.445 999.085 Q188.079 999.085 189.885 995.543 Q191.713 991.979 191.713 984.872 Q191.713 977.743 189.885 974.201 Q188.079 970.636 184.445 970.636 M184.445 966.932 Q190.255 966.932 193.311 971.539 Q196.389 976.122 196.389 984.872 Q196.389 993.599 193.311 998.205 Q190.255 1002.79 184.445 1002.79 Q178.635 1002.79 175.556 998.205 Q172.501 993.599 172.501 984.872 Q172.501 976.122 175.556 971.539 Q178.635 966.932 184.445 966.932 Z" fill="#000000" fill-rule="nonzero" fill-opacity="1" /><path clip-path="url(#clip330)" d="M114.931 712.896 L122.57 712.896 L122.57 686.53 L114.26 688.197 L114.26 683.938 L122.524 682.271 L127.2 682.271 L127.2 712.896 L134.839 712.896 L134.839 716.831 L114.931 716.831 L114.931 712.896 Z" fill="#000000" fill-rule="nonzero" fill-opacity="1" /><path clip-path="url(#clip330)" d="M154.283 685.35 Q150.672 685.35 148.843 688.915 Q147.038 692.456 147.038 699.586 Q147.038 706.692 148.843 710.257 Q150.672 713.799 154.283 713.799 Q157.917 713.799 159.723 710.257 Q161.552 706.692 161.552 699.586 Q161.552 692.456 159.723 688.915 Q157.917 685.35 154.283 685.35 M154.283 681.646 Q160.093 681.646 163.149 686.253 Q166.227 690.836 166.227 699.586 Q166.227 708.313 163.149 712.919 Q160.093 717.502 154.283 717.502 Q148.473 717.502 145.394 712.919 Q142.339 708.313 142.339 699.586 Q142.339 690.836 145.394 686.253 Q148.473 681.646 154.283 681.646 Z" fill="#000000" fill-rule="nonzero" fill-opacity="1" /><path clip-path="url(#clip330)" d="M184.445 685.35 Q180.834 685.35 179.005 688.915 Q177.2 692.456 177.2 699.586 Q177.2 706.692 179.005 710.257 Q180.834 713.799 184.445 713.799 Q188.079 713.799 189.885 710.257 Q191.713 706.692 191.713 699.586 Q191.713 692.456 189.885 688.915 Q188.079 685.35 184.445 685.35 M184.445 681.646 Q190.255 681.646 193.311 686.253 Q196.389 690.836 196.389 699.586 Q196.389 708.313 193.311 712.919 Q190.255 717.502 184.445 717.502 Q178.635 717.502 175.556 712.919 Q172.501 708.313 172.501 699.586 Q172.501 690.836 175.556 686.253 Q178.635 681.646 184.445 681.646 Z" fill="#000000" fill-rule="nonzero" fill-opacity="1" /><path clip-path="url(#clip330)" d="M114.931 427.61 L122.57 427.61 L122.57 401.244 L114.26 402.911 L114.26 398.652 L122.524 396.985 L127.2 396.985 L127.2 427.61 L134.839 427.61 L134.839 431.545 L114.931 431.545 L114.931 427.61 Z" fill="#000000" fill-rule="nonzero" fill-opacity="1" /><path clip-path="url(#clip330)" d="M148.311 427.61 L164.63 427.61 L164.63 431.545 L142.686 431.545 L142.686 427.61 Q145.348 424.855 149.931 420.226 Q154.538 415.573 155.718 414.23 Q157.964 411.707 158.843 409.971 Q159.746 408.212 159.746 406.522 Q159.746 403.767 157.802 402.031 Q155.88 400.295 152.778 400.295 Q150.579 400.295 148.126 401.059 Q145.695 401.823 142.917 403.374 L142.917 398.652 Q145.741 397.517 148.195 396.939 Q150.649 396.36 152.686 396.36 Q158.056 396.36 161.251 399.045 Q164.445 401.73 164.445 406.221 Q164.445 408.351 163.635 410.272 Q162.848 412.17 160.741 414.763 Q160.163 415.434 157.061 418.651 Q153.959 421.846 148.311 427.61 Z" fill="#000000" fill-rule="nonzero" fill-opacity="1" /><path clip-path="url(#clip330)" d="M184.445 400.064 Q180.834 400.064 179.005 403.628 Q177.2 407.17 177.2 414.3 Q177.2 421.406 179.005 424.971 Q180.834 428.513 184.445 428.513 Q188.079 428.513 189.885 424.971 Q191.713 421.406 191.713 414.3 Q191.713 407.17 189.885 403.628 Q188.079 400.064 184.445 400.064 M184.445 396.36 Q190.255 396.36 193.311 400.966 Q196.389 405.55 196.389 414.3 Q196.389 423.026 193.311 427.633 Q190.255 432.216 184.445 432.216 Q178.635 432.216 175.556 427.633 Q172.501 423.026 172.501 414.3 Q172.501 405.55 175.556 400.966 Q178.635 396.36 184.445 396.36 Z" fill="#000000" fill-rule="nonzero" fill-opacity="1" /><path clip-path="url(#clip330)" d="M114.931 142.323 L122.57 142.323 L122.57 115.958 L114.26 117.625 L114.26 113.365 L122.524 111.699 L127.2 111.699 L127.2 142.323 L134.839 142.323 L134.839 146.259 L114.931 146.259 L114.931 142.323 Z" fill="#000000" fill-rule="nonzero" fill-opacity="1" /><path clip-path="url(#clip330)" d="M157.13 115.773 L145.325 134.222 L157.13 134.222 L157.13 115.773 M155.903 111.699 L161.783 111.699 L161.783 134.222 L166.714 134.222 L166.714 138.111 L161.783 138.111 L161.783 146.259 L157.13 146.259 L157.13 138.111 L141.529 138.111 L141.529 133.597 L155.903 111.699 Z" fill="#000000" fill-rule="nonzero" fill-opacity="1" /><path clip-path="url(#clip330)" d="M184.445 114.777 Q180.834 114.777 179.005 118.342 Q177.2 121.884 177.2 129.013 Q177.2 136.12 179.005 139.685 Q180.834 143.226 184.445 143.226 Q188.079 143.226 189.885 139.685 Q191.713 136.12 191.713 129.013 Q191.713 121.884 189.885 118.342 Q188.079 114.777 184.445 114.777 M184.445 111.074 Q190.255 111.074 193.311 115.68 Q196.389 120.263 196.389 129.013 Q196.389 137.74 193.311 142.347 Q190.255 146.93 184.445 146.93 Q178.635 146.93 175.556 142.347 Q172.501 137.74 172.501 129.013 Q172.501 120.263 175.556 115.68 Q178.635 111.074 184.445 111.074 Z" fill="#000000" fill-rule="nonzero" fill-opacity="1" /><path clip-path="url(#clip330)" d="M16.4842 893.798 L16.4842 884.217 L48.8219 872.091 L16.4842 859.9 L16.4842 850.32 L64.0042 850.32 L64.0042 856.59 L22.277 856.59 L54.8694 868.844 L54.8694 875.305 L22.277 887.559 L64.0042 887.559 L64.0042 893.798 L16.4842 893.798 Z" fill="#000000" fill-rule="nonzero" fill-opacity="1" /><path clip-path="url(#clip330)" d="M32.4621 823.998 Q32.4621 828.708 36.1542 831.446 Q39.8145 834.183 46.212 834.183 Q52.6095 834.183 56.3017 831.477 Q59.9619 828.74 59.9619 823.998 Q59.9619 819.319 56.2698 816.582 Q52.5777 813.844 46.212 813.844 Q39.8781 813.844 36.186 816.582 Q32.4621 819.319 32.4621 823.998 M27.4968 823.998 Q27.4968 816.359 32.4621 811.998 Q37.4273 807.638 46.212 807.638 Q54.9649 807.638 59.9619 811.998 Q64.9272 816.359 64.9272 823.998 Q64.9272 831.668 59.9619 836.029 Q54.9649 840.358 46.212 840.358 Q37.4273 840.358 32.4621 836.029 Q27.4968 831.668 27.4968 823.998 Z" fill="#000000" fill-rule="nonzero" fill-opacity="1" /><path clip-path="url(#clip330)" d="M42.4881 768.298 L64.0042 768.298 L64.0042 774.154 L42.679 774.154 Q37.6183 774.154 35.1038 776.128 Q32.5894 778.101 32.5894 782.048 Q32.5894 786.79 35.6131 789.527 Q38.6368 792.265 43.8567 792.265 L64.0042 792.265 L64.0042 798.153 L28.3562 798.153 L28.3562 792.265 L33.8944 792.265 Q30.6797 790.164 29.0883 787.331 Q27.4968 784.467 27.4968 780.743 Q27.4968 774.6 31.3163 771.449 Q35.1038 768.298 42.4881 768.298 Z" fill="#000000" fill-rule="nonzero" fill-opacity="1" /><path clip-path="url(#clip330)" d="M44.7161 726.125 L47.5806 726.125 L47.5806 753.052 Q53.6281 752.67 56.8109 749.423 Q59.9619 746.145 59.9619 740.32 Q59.9619 736.947 59.1344 733.796 Q58.3069 730.613 56.6518 727.494 L62.1899 727.494 Q63.5267 730.645 64.227 733.955 Q64.9272 737.265 64.9272 740.671 Q64.9272 749.201 59.9619 754.198 Q54.9967 759.163 46.5303 759.163 Q37.7774 759.163 32.6531 754.452 Q27.4968 749.71 27.4968 741.689 Q27.4968 734.496 32.1438 730.326 Q36.7589 726.125 44.7161 726.125 M42.9973 731.981 Q38.1912 732.045 35.3266 734.687 Q32.4621 737.297 32.4621 741.625 Q32.4621 746.527 35.2312 749.487 Q38.0002 752.415 43.0292 752.861 L42.9973 731.981 Z" fill="#000000" fill-rule="nonzero" fill-opacity="1" /><path clip-path="url(#clip330)" d="M67.3143 701.681 Q73.68 704.163 75.6216 706.519 Q77.5631 708.874 77.5631 712.821 L77.5631 717.499 L72.6615 717.499 L72.6615 714.062 Q72.6615 711.643 71.5157 710.306 Q70.3699 708.969 66.1048 707.346 L63.4312 706.296 L28.3562 720.714 L28.3562 714.508 L56.238 703.368 L28.3562 692.228 L28.3562 686.021 L67.3143 701.681 Z" fill="#000000" fill-rule="nonzero" fill-opacity="1" /><path clip-path="url(#clip330)" d="M14.5426 643.148 Q21.8632 647.413 29.0246 649.482 Q36.186 651.551 43.5384 651.551 Q50.8908 651.551 58.1159 649.482 Q65.3091 647.381 72.5979 643.148 L72.5979 648.241 Q65.1182 653.015 57.8931 655.402 Q50.668 657.757 43.5384 657.757 Q36.4406 657.757 29.2474 655.402 Q22.0542 653.047 14.5426 648.241 L14.5426 643.148 Z" fill="#000000" fill-rule="nonzero" fill-opacity="1" /><path clip-path="url(#clip330)" d="M73.5845 615.903 L73.5845 619.086 L64.0042 619.117 Q63.9405 622.459 63.2403 625.801 Q62.5082 629.143 61.0759 632.517 L55.3468 632.517 Q57.3838 629.271 58.4342 625.961 Q59.4527 622.619 59.4845 619.086 L44.9707 619.086 Q43.8249 626.12 41.0876 629.334 Q38.3504 632.517 33.5761 632.517 Q28.388 632.517 25.3961 629.048 Q22.4043 625.579 21.9587 619.086 L14.479 619.086 L14.479 615.903 L21.8632 615.903 Q21.9905 612.943 22.4998 610.174 Q22.9772 607.404 23.8365 604.763 L29.4065 604.763 Q28.0697 607.404 27.3377 610.205 Q26.6056 612.974 26.4783 615.903 L40.0691 615.903 Q41.1831 608.678 44.0477 605.272 Q46.9122 601.866 51.8775 601.866 Q57.2565 601.866 60.3757 605.495 Q63.4631 609.091 63.9405 615.903 L73.5845 615.903 M39.4962 619.086 L26.4465 619.086 Q26.8603 622.778 28.5472 624.719 Q30.2341 626.661 33.035 626.661 Q35.7722 626.661 37.3 624.878 Q38.8278 623.064 39.4962 619.086 M45.6073 615.903 L59.389 615.903 Q58.8479 611.86 57.0974 609.823 Q55.3468 607.755 52.4822 607.755 Q49.6813 607.755 48.0262 609.728 Q46.3712 611.67 45.6073 615.903 Z" fill="#000000" fill-rule="nonzero" fill-opacity="1" /><path clip-path="url(#clip330)" d="M14.5426 591.236 L14.5426 586.143 Q22.0542 581.369 29.2474 579.013 Q36.4406 576.626 43.5384 576.626 Q50.668 576.626 57.8931 579.013 Q65.1182 581.369 72.5979 586.143 L72.5979 591.236 Q65.3091 587.002 58.1159 584.934 Q50.8908 582.833 43.5384 582.833 Q36.186 582.833 29.0246 584.934 Q21.8632 587.002 14.5426 591.236 Z" fill="#000000" fill-rule="nonzero" fill-opacity="1" /><polyline clip-path="url(#clip332)" style="stroke:#009af9; stroke-linecap:round; stroke-linejoin:round; stroke-width:4; stroke-opacity:1; fill:none" points="292.4,699.551 294.402,685.287 296.404,699.551 298.407,685.287 300.409,685.287 302.411,671.023 304.414,671.023 306.416,656.758 308.419,656.758 310.421,642.494 312.423,642.494 314.426,628.23 316.428,628.23 318.43,613.965 320.433,613.965 322.435,599.701 324.437,599.701 326.44,585.437 328.442,585.437 330.444,571.172 332.447,571.172 334.449,571.172 336.451,556.908 338.454,556.908 340.456,542.644 342.458,542.644 344.461,528.379 346.463,528.379 348.465,514.115 350.468,514.115 352.47,499.851 354.473,499.851 356.475,499.851 358.477,485.586 360.48,485.586 362.482,471.322 364.484,471.322 366.487,457.058 368.489,457.058 370.491,442.794 372.494,442.794 374.496,428.529 376.498,428.529 378.501,428.529 380.503,414.265 382.505,414.265 384.508,400.001 386.51,400.001 388.512,385.736 390.515,385.736 392.517,385.736 394.519,371.472 396.522,371.472 398.524,357.208 400.527,357.208 402.529,357.208 404.531,342.943 406.534,342.943 408.536,328.679 410.538,328.679 412.541,314.415 414.543,314.415 416.545,314.415 418.548,300.15 420.55,300.15 422.552,285.886 424.555,285.886 426.557,271.622 428.559,271.622 430.562,271.622 432.564,257.357 434.566,257.357 436.569,243.093 438.571,243.093 440.573,228.829 442.576,228.829 444.578,228.829 446.581,214.565 448.583,214.565 450.585,200.3 452.588,200.3 454.59,200.3 456.592,186.036 458.595,186.036 460.597,186.036 462.599,171.772 464.602,171.772 466.604,157.507 468.606,157.507 470.609,157.507 472.611,157.507 474.613,143.243 476.616,143.243 478.618,128.979 480.62,128.979 482.623,128.979 484.625,114.714 486.627,114.714 488.63,114.714 490.632,114.714 492.635,100.45 494.637,100.45 496.639,100.45 498.642,100.45 500.644,86.1857 502.646,86.1857 504.649,86.1857 506.651,100.45 508.653,100.45 510.656,86.1857 512.658,86.1857 514.66,100.45 516.663,100.45 518.665,100.45 520.667,114.714 522.67,86.1857 524.672,114.714 526.674,157.507 528.677,157.507 530.679,243.093 532.682,307.283 534.684,350.075 536.686,621.097 538.689,713.815 540.691,792.269 542.693,1227.33 544.696,1227.33 546.698,1227.33 548.7,1227.33 550.703,1227.33 552.705,1227.33 554.707,1241.6 556.71,1241.6 558.712,1241.6 560.714,1241.6 562.717,1241.6 564.719,1255.86 566.721,1255.86 568.724,1255.86 570.726,1255.86 572.728,1255.86 574.731,1270.12 576.733,1270.12 578.736,1270.12 580.738,1270.12 582.74,1270.12 584.743,1284.39 586.745,1284.39 588.747,1284.39 590.75,1284.39 592.752,1284.39 594.754,1284.39 596.757,1298.65 598.759,1298.65 600.761,1298.65 602.764,1298.65 604.766,1298.65 606.768,1298.65 608.771,1298.65 610.773,1298.65 612.775,1312.92 614.778,1312.92 616.78,1312.92 618.782,1312.92 620.785,1312.92 622.787,1312.92 624.79,1312.92 626.792,1312.92 628.794,1312.92 630.797,1312.92 632.799,1312.92 634.801,1327.18 636.804,1327.18 638.806,1327.18 640.808,1327.18 642.811,1327.18 644.813,1327.18 646.815,1327.18 648.818,1327.18 650.82,1327.18 652.822,1327.18 654.825,1327.18 656.827,1327.18 658.829,1327.18 660.832,1327.18 662.834,1327.18 664.836,1327.18 666.839,1327.18 668.841,1327.18 670.844,1327.18 672.846,1327.18 674.848,1327.18 676.851,1327.18 678.853,1327.18 680.855,1327.18 682.858,1327.18 684.86,1327.18 686.862,1327.18 688.865,1327.18 690.867,1327.18 692.869,1327.18 694.872,1327.18 696.874,1327.18 698.876,1327.18 700.879,1327.18 702.881,1327.18 704.883,1327.18 706.886,1327.18 708.888,1327.18 710.89,1327.18 712.893,1327.18 714.895,1327.18 716.898,1327.18 718.9,1327.18 720.902,1327.18 722.905,1327.18 724.907,1327.18 726.909,1327.18 728.912,1327.18 730.914,1327.18 732.916,1327.18 734.919,1327.18 736.921,1327.18 738.923,1327.18 740.926,1327.18 742.928,1327.18 744.93,1327.18 746.933,1327.18 748.935,1327.18 750.937,1327.18 752.94,1327.18 754.942,1327.18 756.944,1327.18 758.947,1327.18 760.949,1327.18 762.952,1327.18 764.954,1327.18 766.956,1327.18 768.959,1327.18 770.961,1327.18 772.963,1327.18 774.966,1327.18 776.968,1327.18 778.97,1327.18 780.973,1327.18 782.975,1327.18 784.977,1327.18 786.98,1327.18 788.982,1327.18 790.984,1327.18 792.987,1327.18 794.989,1327.18 796.991,1327.18 798.994,1327.18 800.996,1327.18 802.999,1327.18 805.001,1327.18 807.003,1327.18 809.006,1327.18 811.008,1327.18 813.01,1327.18 815.013,1327.18 817.015,1327.18 819.017,1327.18 821.02,1327.18 823.022,1327.18 825.024,1327.18 827.027,1327.18 829.029,1327.18 831.031,1327.18 833.034,1327.18 835.036,1327.18 837.038,1327.18 839.041,1327.18 841.043,1327.18 843.045,1327.18 845.048,1327.18 847.05,1327.18 849.053,1327.18 851.055,1327.18 853.057,1327.18 855.06,1327.18 857.062,1327.18 859.064,1327.18 861.067,1327.18 863.069,1327.18 865.071,1327.18 867.074,1327.18 869.076,1327.18 871.078,1327.18 873.081,1327.18 875.083,1327.18 877.085,1327.18 879.088,1327.18 881.09,1327.18 883.092,1327.18 885.095,1327.18 887.097,1327.18 889.099,1327.18 891.102,1327.18 893.104,1327.18 895.107,1327.18 897.109,1327.18 899.111,1327.18 901.114,1327.18 903.116,1327.18 905.118,1327.18 907.121,1327.18 909.123,1327.18 911.125,1327.18 913.128,1327.18 915.13,1327.18 917.132,1327.18 919.135,1327.18 921.137,1327.18 923.139,1327.18 925.142,1327.18 927.144,1327.18 929.146,1327.18 931.149,1327.18 933.151,1327.18 935.153,1327.18 937.156,1327.18 939.158,1327.18 941.161,1327.18 943.163,1327.18 945.165,1327.18 947.168,1327.18 949.17,1341.45 951.172,1341.45 953.175,1341.45 955.177,1341.45 957.179,1341.45 959.182,1341.45 961.184,1341.45 963.186,1341.45 965.189,1341.45 967.191,1341.45 969.193,1341.45 971.196,1341.45 973.198,1341.45 975.2,1341.45 977.203,1341.45 979.205,1341.45 981.207,1341.45 983.21,1341.45 985.212,1341.45 987.215,1341.45 989.217,1341.45 991.219,1341.45 993.222,1341.45 995.224,1341.45 997.226,1341.45 999.229,1341.45 1001.23,1341.45 1003.23,1341.45 1005.24,1341.45 1007.24,1341.45 1009.24,1341.45 1011.24,1341.45 1013.25,1355.71 1015.25,1355.71 1017.25,1355.71 1019.25,1355.71 1021.25,1355.71 1023.26,1355.71 1025.26,1355.71 1027.26,1355.71 1029.26,1355.71 1031.27,1355.71 1033.27,1355.71 1035.27,1355.71 1037.27,1355.71 1039.28,1355.71 1041.28,1355.71 1043.28,1355.71 1045.28,1355.71 1047.28,1355.71 1049.29,1355.71 1051.29,1355.71 1053.29,1355.71 1055.29,1355.71 1057.3,1355.71 1059.3,1355.71 1061.3,1355.71 1063.3,1355.71 1065.31,1355.71 1067.31,1355.71 1069.31,1355.71 1071.31,1355.71 1073.32,1355.71 1075.32,1355.71 1077.32,1355.71 1079.32,1355.71 1081.32,1355.71 1083.33,1355.71 1085.33,1362.84 1087.33,1369.97 1089.33,1369.97 1091.34,1369.97 1093.34,1369.97 1095.34,1369.97 1097.34,1369.97 1099.35,1369.97 1101.35,1369.97 1103.35,1369.97 1105.35,1369.97 1107.36,1369.97 1109.36,1369.97 1111.36,1369.97 1113.36,1369.97 1115.36,1369.97 1117.37,1369.97 1119.37,1369.97 1121.37,1369.97 1123.37,1369.97 1125.38,1369.97 1127.38,1369.97 1129.38,1369.97 1131.38,1369.97 1133.39,1369.97 1135.39,1369.97 1137.39,1369.97 1139.39,1369.97 1141.4,1369.97 1143.4,1369.97 1145.4,1369.97 1147.4,1369.97 1149.4,1369.97 1151.41,1369.97 1153.41,1369.97 1155.41,1369.97 1157.41,1369.97 1159.42,1369.97 1161.42,1369.97 1163.42,1369.97 1165.42,1369.97 1167.43,1369.97 1169.43,1369.97 1171.43,1369.97 1173.43,1369.97 1175.44,1369.97 1177.44,1369.97 1179.44,1369.97 1181.44,1369.97 1183.44,1369.97 1185.45,1369.97 1187.45,1369.97 1189.45,1369.97 1191.45,1369.97 1193.46,1369.97 1195.46,1369.97 1197.46,1369.97 1199.46,1369.97 1201.47,1369.97 1203.47,1369.97 1205.47,1369.97 1207.47,1369.97 1209.48,1369.97 1211.48,1369.97 1213.48,1369.97 1215.48,1369.97 1217.48,1369.97 1219.49,1369.97 1221.49,1369.97 1223.49,1369.97 1225.49,1369.97 1227.5,1369.97 1229.5,1369.97 1231.5,1369.97 1233.5,1369.97 1235.51,1369.97 1237.51,1369.97 1239.51,1369.97 1241.51,1369.97 1243.52,1369.97 1245.52,1369.97 1247.52,1369.97 1249.52,1369.97 1251.52,1369.97 1253.53,1369.97 1255.53,1369.97 1257.53,1369.97 1259.53,1369.97 1261.54,1369.97 1263.54,1369.97 1265.54,1369.97 1267.54,1369.97 1269.55,1369.97 1271.55,1369.97 1273.55,1369.97 1275.55,1369.97 1277.56,1369.97 1279.56,1369.97 1281.56,1369.97 1283.56,1369.97 1285.56,1369.97 1287.57,1369.97 1289.57,1369.97 1291.57,1369.97 1293.57,1369.97 1295.58,1369.97 1297.58,1369.97 1299.58,1369.97 1301.58,1369.97 1303.59,1369.97 1305.59,1369.97 1307.59,1369.97 1309.59,1369.97 1311.59,1369.97 1313.6,1369.97 1315.6,1369.97 1317.6,1369.97 1319.6,1369.97 1321.61,1369.97 1323.61,1369.97 1325.61,1369.97 1327.61,1369.97 1329.62,1369.97 1331.62,1369.97 1333.62,1369.97 1335.62,1369.97 1337.63,1369.97 1339.63,1369.97 1341.63,1369.97 1343.63,1369.97 1345.63,1369.97 1347.64,1369.97 1349.64,1369.97 1351.64,1369.97 1353.64,1369.97 1355.65,1369.97 1357.65,1369.97 1359.65,1369.97 1361.65,1369.97 1363.66,1369.97 1365.66,1369.97 1367.66,1369.97 1369.66,1369.97 1371.67,1369.97 1373.67,1369.97 1375.67,1369.97 1377.67,1369.97 1379.67,1369.97 1381.68,1369.97 1383.68,1369.97 1385.68,1369.97 1387.68,1369.97 1389.69,1369.97 1391.69,1369.97 1393.69,1369.97 1395.69,1369.97 1397.7,1369.97 1399.7,1369.97 1401.7,1369.97 1403.7,1369.97 1405.71,1369.97 1407.71,1369.97 1409.71,1369.97 1411.71,1369.97 1413.71,1369.97 1415.72,1369.97 1417.72,1369.97 1419.72,1369.97 1421.72,1369.97 1423.73,1369.97 1425.73,1369.97 1427.73,1369.97 1429.73,1369.97 1431.74,1369.97 1433.74,1369.97 1435.74,1369.97 1437.74,1369.97 1439.75,1369.97 1441.75,1369.97 1443.75,1369.97 1445.75,1369.97 1447.75,1369.97 1449.76,1369.97 1451.76,1369.97 1453.76,1369.97 1455.76,1369.97 1457.77,1369.97 1459.77,1369.97 1461.77,1369.97 1463.77,1369.97 1465.78,1369.97 1467.78,1369.97 1469.78,1369.97 1471.78,1369.97 1473.79,1369.97 1475.79,1369.97 1477.79,1369.97 1479.79,1369.97 1481.79,1369.97 1483.8,1369.97 1485.8,1369.97 1487.8,1369.97 1489.8,1369.97 1491.81,1369.97 1493.81,1369.97 1495.81,1369.97 1497.81,1369.97 1499.82,1369.97 1501.82,1369.97 1503.82,1369.97 1505.82,1369.97 1507.83,1369.97 1509.83,1369.97 1511.83,1369.97 1513.83,1369.97 1515.83,1369.97 1517.84,1369.97 1519.84,1369.97 1521.84,1369.97 1523.84,1369.97 1525.85,1369.97 1527.85,1369.97 1529.85,1369.97 1531.85,1369.97 1533.86,1369.97 1535.86,1369.97 1537.86,1369.97 1539.86,1369.97 1541.86,1369.97 1543.87,1369.97 1545.87,1369.97 1547.87,1369.97 1549.87,1369.97 1551.88,1369.97 1553.88,1369.97 1555.88,1369.97 1557.88,1369.97 1559.89,1369.97 1561.89,1369.97 1563.89,1369.97 1565.89,1369.97 1567.9,1369.97 1569.9,1369.97 1571.9,1369.97 1573.9,1369.97 1575.9,1369.97 1577.91,1369.97 1579.91,1369.97 1581.91,1369.97 1583.91,1369.97 1585.92,1369.97 1587.92,1369.97 1589.92,1369.97 1591.92,1369.97 1593.93,1369.97 1595.93,1369.97 1597.93,1369.97 1599.93,1369.97 1601.94,1369.97 1603.94,1369.97 1605.94,1369.97 1607.94,1369.97 1609.94,1369.97 1611.95,1369.97 1613.95,1369.97 1615.95,1369.97 1617.95,1369.97 1619.96,1369.97 1621.96,1369.97 1623.96,1369.97 1625.96,1369.97 1627.97,1369.97 1629.97,1369.97 1631.97,1369.97 1633.97,1369.97 1635.98,1369.97 1637.98,1369.97 1639.98,1369.97 1641.98,1369.97 1643.98,1369.97 1645.99,1369.97 1647.99,1369.97 1649.99,1369.97 1651.99,1369.97 1654,1369.97 1656,1369.97 1658,1369.97 1660,1369.97 1662.01,1369.97 1664.01,1369.97 1666.01,1369.97 1668.01,1369.97 1670.02,1369.97 1672.02,1369.97 1674.02,1369.97 1676.02,1369.97 1678.02,1369.97 1680.03,1369.97 1682.03,1369.97 1684.03,1369.97 1686.03,1369.97 1688.04,1369.97 1690.04,1369.97 1692.04,1369.97 1694.04,1369.97 1696.05,1369.97 1698.05,1369.97 1700.05,1369.97 1702.05,1369.97 1704.06,1369.97 1706.06,1369.97 1708.06,1369.97 1710.06,1369.97 1712.06,1369.97 1714.07,1369.97 1716.07,1369.97 1718.07,1369.97 1720.07,1369.97 1722.08,1369.97 1724.08,1369.97 1726.08,1369.97 1728.08,1369.97 1730.09,1369.97 1732.09,1369.97 1734.09,1369.97 1736.09,1369.97 1738.1,1369.97 1740.1,1369.97 1742.1,1369.97 1744.1,1369.97 1746.1,1369.97 1748.11,1369.97 1750.11,1369.97 1752.11,1369.97 1754.11,1369.97 1756.12,1369.97 1758.12,1369.97 1760.12,1369.97 1762.12,1369.97 1764.13,1369.97 1766.13,1369.97 1768.13,1369.97 1770.13,1369.97 1772.14,1369.97 1774.14,1369.97 1776.14,1369.97 1778.14,1369.97 1780.14,1369.97 1782.15,1369.97 1784.15,1369.97 1786.15,1369.97 1788.15,1369.97 1790.16,1369.97 1792.16,1369.97 1794.16,1369.97 1796.16,1369.97 1798.17,1369.97 1800.17,1369.97 1802.17,1369.97 1804.17,1369.97 1806.17,1369.97 1808.18,1369.97 1810.18,1369.97 1812.18,1369.97 1814.18,1369.97 1816.19,1369.97 1818.19,1369.97 1820.19,1369.97 1822.19,1369.97 1824.2,1369.97 1826.2,1369.97 1828.2,1369.97 1830.2,1369.97 1832.21,1369.97 1834.21,1369.97 1836.21,1369.97 1838.21,1369.97 1840.21,1369.97 1842.22,1369.97 1844.22,1369.97 1846.22,1369.97 1848.22,1369.97 1850.23,1369.97 1852.23,1369.97 1854.23,1369.97 1856.23,1369.97 1858.24,1369.97 1860.24,1369.97 1862.24,1369.97 1864.24,1369.97 1866.25,1369.97 1868.25,1369.97 1870.25,1369.97 1872.25,1369.97 1874.25,1369.97 1876.26,1369.97 1878.26,1369.97 1880.26,1369.97 1882.26,1369.97 1884.27,1369.97 1886.27,1369.97 1888.27,1369.97 1890.27,1369.97 1892.28,1369.97 1894.28,1369.97 1896.28,1369.97 1898.28,1369.97 1900.29,1369.97 1902.29,1369.97 1904.29,1369.97 1906.29,1369.97 1908.29,1369.97 1910.3,1369.97 1912.3,1369.97 1914.3,1369.97 1916.3,1369.97 1918.31,1369.97 1920.31,1369.97 1922.31,1369.97 1924.31,1369.97 1926.32,1369.97 1928.32,1369.97 1930.32,1369.97 1932.32,1369.97 1934.33,1369.97 1936.33,1369.97 1938.33,1369.97 1940.33,1369.97 1942.33,1369.97 1944.34,1369.97 1946.34,1369.97 1948.34,1369.97 1950.34,1369.97 1952.35,1369.97 1954.35,1369.97 1956.35,1369.97 1958.35,1369.97 1960.36,1369.97 1962.36,1369.97 1964.36,1369.97 1966.36,1369.97 1968.37,1369.97 1970.37,1369.97 1972.37,1369.97 1974.37,1369.97 1976.37,1369.97 1978.38,1369.97 1980.38,1369.97 1982.38,1369.97 1984.38,1369.97 1986.39,1369.97 1988.39,1369.97 1990.39,1369.97 1992.39,1369.97 1994.4,1369.97 1996.4,1369.97 1998.4,1369.97 2000.4,1369.97 2002.41,1369.97 2004.41,1369.97 2006.41,1369.97 2008.41,1369.97 2010.41,1369.97 2012.42,1369.97 2014.42,1369.97 2016.42,1369.97 2018.42,1369.97 2020.43,1369.97 2022.43,1369.97 2024.43,1369.97 2026.43,1369.97 2028.44,1369.97 2030.44,1369.97 2032.44,1369.97 2034.44,1369.97 2036.44,1369.97 2038.45,1369.97 2040.45,1369.97 2042.45,1369.97 2044.45,1369.97 2046.46,1369.97 2048.46,1369.97 2050.46,1369.97 2052.46,1369.97 2054.47,1369.97 2056.47,1369.97 2058.47,1369.97 2060.47,1369.97 2062.48,1369.97 2064.48,1369.97 2066.48,1369.97 2068.48,1369.97 2070.48,1369.97 2072.49,1369.97 2074.49,1369.97 2076.49,1369.97 2078.49,1369.97 2080.5,1369.97 2082.5,1369.97 2084.5,1369.97 2086.5,1369.97 2088.51,1369.97 2090.51,1369.97 2092.51,1369.97 2094.51,1369.97 2096.52,1369.97 2098.52,1369.97 2100.52,1369.97 2102.52,1369.97 2104.52,1369.97 2106.53,1369.97 2108.53,1369.97 2110.53,1369.97 2112.53,1369.97 2114.54,1369.97 2116.54,1369.97 2118.54,1369.97 2120.54,1369.97 2122.55,1369.97 2124.55,1369.97 2126.55,1369.97 2128.55,1369.97 2130.56,1369.97 2132.56,1369.97 2134.56,1369.97 2136.56,1369.97 2138.56,1377.11 2140.57,1377.11 2142.57,1377.11 2144.57,1377.11 2146.57,1377.11 2148.58,1377.11 2150.58,1377.11 2152.58,1377.11 2154.58,1377.11 2156.59,1377.11 2158.59,1377.11 2160.59,1377.11 2162.59,1377.11 2164.6,1377.11 2166.6,1377.11 2168.6,1377.11 2170.6,1377.11 2172.6,1384.24 2174.61,1384.24 2176.61,1384.24 2178.61,1384.24 2180.61,1384.24 2182.62,1384.24 2184.62,1384.24 2186.62,1384.24 2188.62,1384.24 2190.63,1384.24 2192.63,1384.24 2194.63,1384.24 2196.63,1384.24 2198.64,1384.24 2200.64,1384.24 2202.64,1384.24 2204.64,1384.24 2206.64,1384.24 2208.65,1384.24 2210.65,1384.24 2212.65,1384.24 2214.65,1384.24 2216.66,1384.24 2218.66,1384.24 2220.66,1384.24 2222.66,1384.24 2224.67,1384.24 2226.67,1384.24 2228.67,1384.24 2230.67,1384.24 2232.68,1384.24 2234.68,1384.24 2236.68,1384.24 2238.68,1384.24 2240.68,1384.24 2242.69,1384.24 2244.69,1384.24 2246.69,1384.24 2248.69,1384.24 2250.7,1384.24 2252.7,1384.24 2254.7,1384.24 2256.7,1384.24 2258.71,1384.24 2260.71,1384.24 2262.71,1384.24 2264.71,1384.24 2266.72,1384.24 2268.72,1384.24 2270.72,1384.24 2272.72,1384.24 2274.72,1384.24 2276.73,1384.24 2278.73,1384.24 2280.73,1384.24 2282.73,1384.24 2284.74,1384.24 2286.74,1384.24 2288.74,1384.24 2290.74,1384.24 2292.75,1384.24 "/>
<polyline clip-path="url(#clip332)" style="stroke:#e26f46; stroke-linecap:round; stroke-linejoin:round; stroke-width:4; stroke-opacity:1; fill:none" points="292.4,699.551 294.402,699.454 296.404,699.56 298.407,700.339 300.409,699.524 302.411,700.196 304.414,699.758 306.416,700.243 308.419,699.759 310.421,699.105 312.423,698.583 314.426,698.861 316.428,698.839 318.43,698.51 320.433,698.081 322.435,698.449 324.437,699.662 326.44,699.389 328.442,700.015 330.444,698.879 332.447,698.65 334.449,697.513 336.451,697.78 338.454,698.212 340.456,698.391 342.458,698.685 344.461,698.931 346.463,699.65 348.465,700.022 350.468,701.232 352.47,700.772 354.473,701.1 356.475,699.654 358.477,699.737 360.48,698.47 362.482,698.192 364.484,697.45 366.487,697.24 368.489,696.084 370.491,695.43 372.494,695.199 374.496,695.787 376.498,696.429 378.501,695.328 380.503,694.611 382.505,695.246 384.508,695.372 386.51,694.678 388.512,694.631 390.515,694.232 392.517,694.292 394.519,694.751 396.522,693.225 398.524,692.995 400.527,695.28 402.529,696.042 404.531,695.447 406.534,695.938 408.536,696.088 410.538,694.517 412.541,694.168 414.543,695.071 416.545,695.071 418.548,693.881 420.55,692.081 422.552,693.717 424.555,693.997 426.557,694.596 428.559,695.146 430.562,695.731 432.564,696.032 434.566,695.745 436.569,696.345 438.571,696.159 440.573,694.771 442.576,695.425 444.578,695.763 446.581,696.674 448.583,694.417 450.585,694.627 452.588,694.325 454.59,692.637 456.592,692.557 458.595,692.64 460.597,692.499 462.599,692.925 464.602,693.037 466.604,692.529 468.606,692.791 470.609,693.271 472.611,693.482 474.613,693.838 476.616,694.111 478.618,694.299 480.62,694.243 482.623,694.447 484.625,694.68 486.627,695.522 488.63,696.315 490.632,696.698 492.635,695.105 494.637,695.603 496.639,696.389 498.642,697.938 500.644,697.024 502.646,696.924 504.649,697.732 506.651,699.012 508.653,699.456 510.656,700.082 512.658,700.192 514.66,699.986 516.663,699.329 518.665,699.001 520.667,698.192 522.67,697.352 524.672,696.631 526.674,697.2 528.677,696.452 530.679,697.182 532.682,698.885 534.684,699.009 536.686,698.17 538.689,697.687 540.691,697.287 542.693,696.242 544.696,696.125 546.698,696.35 548.7,697.128 550.703,697.242 552.705,696.259 554.707,695.436 556.71,695.888 558.712,695.636 560.714,696.385 562.717,697.128 564.719,697.728 566.721,697.829 568.724,697.38 570.726,698.543 572.728,697.974 574.731,697.821 576.733,697.931 578.736,698.042 580.738,697.946 582.74,697.884 584.743,698.172 586.745,697.966 588.747,698.62 590.75,699.334 592.752,698.824 594.754,698.876 596.757,699.292 598.759,697.648 600.761,698.029 602.764,698.841 604.766,700.058 606.768,700.423 608.771,699.063 610.773,698.061 612.775,697.036 614.778,697.071 616.78,697.837 618.782,697.015 620.785,697.517 622.787,697.296 624.79,698.59 626.792,698.202 628.794,698.49 630.797,698.225 632.799,697.453 634.801,697.208 636.804,696.918 638.806,697.071 640.808,696.855 642.811,696.346 644.813,695.867 646.815,696.085 648.818,695.309 650.82,696.312 652.822,696.921 654.825,696.892 656.827,696.898 658.829,696.982 660.832,696.628 662.834,695.433 664.836,694.878 666.839,695.068 668.841,693.971 670.844,693.971 672.846,692.95 674.848,692.729 676.851,692.537 678.853,691.636 680.855,691.475 682.858,692.557 684.86,692.151 686.862,691.396 688.865,692.058 690.867,691.255 692.869,690.683 694.872,690.985 696.874,690.306 698.876,690.234 700.879,688.67 702.881,687.639 704.883,687.444 706.886,687.906 708.888,688.098 710.89,689.62 712.893,690.229 714.895,691.199 716.898,689.957 718.9,688.792 720.902,688.745 722.905,687.476 724.907,688.208 726.909,687.686 728.912,688.017 730.914,688.713 732.916,688.64 734.919,688.365 736.921,689.12 738.923,689.697 740.926,689.084 742.928,689.737 744.93,689.58 746.933,689.787 748.935,689.727 750.937,688.66 752.94,687.05 754.942,686.332 756.944,686.777 758.947,686.745 760.949,686.187 762.952,686.671 764.954,686.759 766.956,687.227 768.959,686.34 770.961,686.407 772.963,688.431 774.966,687.317 776.968,687.823 778.97,687.906 780.973,687.723 782.975,688.854 784.977,688.171 786.98,688.185 788.982,687.924 790.984,687.708 792.987,688.114 794.989,687.611 796.991,688.26 798.994,688.893 800.996,688.951 802.999,689.395 805.001,688.827 807.003,689.231 809.006,688.578 811.008,688.194 813.01,688.07 815.013,688.297 817.015,689.593 819.017,690.296 821.02,689.829 823.022,688.93 825.024,688.456 827.027,688.705 829.029,688.911 831.031,689.596 833.034,688.715 835.036,688.339 837.038,688.16 839.041,687.489 841.043,687.533 843.045,688.372 845.048,688.863 847.05,688.167 849.053,687.397 851.055,687.394 853.057,686.407 855.06,686.569 857.062,686.882 859.064,687.397 861.067,686.896 863.069,685.974 865.071,686.351 867.074,687.884 869.076,686.98 871.078,686.819 873.081,687.078 875.083,687.29 877.085,687.28 879.088,687.706 881.09,688.202 883.092,688.435 885.095,687.282 887.097,686.973 889.099,686.539 891.102,685.877 893.104,686.054 895.107,686.9 897.109,688.328 899.111,687.171 901.114,686.583 903.116,685.934 905.118,686.285 907.121,685.932 909.123,685.244 911.125,686.039 913.128,686.817 915.13,687.425 917.132,687.415 919.135,687.8 921.137,687.341 923.139,687.96 925.142,688.495 927.144,690.135 929.146,689.435 931.149,688.1 933.151,687.65 935.153,687.913 937.156,688.68 939.158,688.441 941.161,688.251 943.163,689.175 945.165,688.609 947.168,688.505 949.17,690.167 951.172,689.217 953.175,689.155 955.177,689.469 957.179,690.319 959.182,690.055 961.184,689.763 963.186,689.177 965.189,689.626 967.191,689.063 969.193,688.154 971.196,689.15 973.198,688.85 975.2,689.053 977.203,690.826 979.205,691.115 981.207,689.513 983.21,689.307 985.212,689.566 987.215,689.381 989.217,687.779 991.219,688.476 993.222,687.609 995.224,686.541 997.226,686.081 999.229,686.157 1001.23,686.932 1003.23,685.418 1005.24,685.561 1007.24,686.819 1009.24,686.188 1011.24,687.223 1013.25,687.357 1015.25,687.823 1017.25,689.224 1019.25,689.097 1021.25,689.445 1023.26,689.041 1025.26,688.745 1027.26,688.673 1029.26,689.047 1031.27,690.595 1033.27,690.569 1035.27,690.893 1037.27,691.319 1039.28,691.836 1041.28,691.973 1043.28,691.72 1045.28,690.787 1047.28,690.956 1049.29,691.091 1051.29,691.908 1053.29,690.445 1055.29,690.281 1057.3,689.67 1059.3,689.265 1061.3,689.946 1063.3,690.315 1065.31,690.141 1067.31,690.324 1069.31,690.034 1071.31,689.623 1073.32,690.011 1075.32,690.395 1077.32,689.996 1079.32,690.325 1081.32,691.286 1083.33,692.105 1085.33,692.012 1087.33,692.654 1089.33,693.777 1091.34,694.271 1093.34,693.475 1095.34,693.798 1097.34,693.489 1099.35,693.018 1101.35,692.669 1103.35,692.614 1105.35,691.77 1107.36,692.385 1109.36,692.719 1111.36,693.048 1113.36,692.898 1115.36,692.907 1117.37,692.458 1119.37,692.313 1121.37,692.242 1123.37,690.8 1125.38,690.436 1127.38,690.131 1129.38,689.074 1131.38,689.121 1133.39,690.432 1135.39,691.914 1137.39,689.974 1139.39,689.622 1141.4,688.639 1143.4,689.282 1145.4,688.171 1147.4,687.2 1149.4,685.902 1151.41,686.248 1153.41,687.559 1155.41,686.923 1157.41,687.401 1159.42,687.672 1161.42,687.532 1163.42,687.031 1165.42,685.866 1167.43,686.606 1169.43,686.571 1171.43,687.06 1173.43,686.924 1175.44,686.462 1177.44,686.418 1179.44,686.736 1181.44,688.371 1183.44,687.154 1185.45,687.091 1187.45,686.599 1189.45,685.481 1191.45,685.444 1193.46,685.576 1195.46,685.171 1197.46,685.05 1199.46,684.365 1201.47,683.276 1203.47,683.602 1205.47,682.838 1207.47,682.591 1209.48,683.206 1211.48,683.326 1213.48,683.491 1215.48,683.46 1217.48,682.831 1219.49,682.143 1221.49,682.866 1223.49,682.655 1225.49,682.805 1227.5,682.219 1229.5,681.106 1231.5,680.555 1233.5,680.565 1235.51,680.001 1237.51,680.04 1239.51,681.096 1241.51,680.207 1243.52,680.771 1245.52,681.423 1247.52,681.471 1249.52,681.642 1251.52,682.973 1253.53,682.764 1255.53,682.02 1257.53,683.434 1259.53,684.444 1261.54,684.836 1263.54,684.828 1265.54,684.728 1267.54,683.752 1269.55,684.368 1271.55,684.344 1273.55,684.989 1275.55,683.882 1277.56,683.985 1279.56,684.542 1281.56,683.892 1283.56,683.103 1285.56,682.688 1287.57,681.966 1289.57,682.598 1291.57,682.958 1293.57,683.33 1295.58,684.768 1297.58,684.217 1299.58,684.586 1301.58,684.314 1303.59,684.39 1305.59,683.602 1307.59,683.608 1309.59,683.607 1311.59,684.713 1313.6,685.184 1315.6,686.538 1317.6,686.739 1319.6,686.85 1321.61,687.302 1323.61,687.535 1325.61,687.465 1327.61,687.031 1329.62,687.971 1331.62,687.847 1333.62,686.833 1335.62,686.274 1337.63,686.447 1339.63,686.558 1341.63,688.043 1343.63,688.762 1345.63,689 1347.64,689.128 1349.64,688.836 1351.64,688.88 1353.64,688.827 1355.65,689.697 1357.65,689.958 1359.65,688.225 1361.65,688.891 1363.66,688.593 1365.66,687.682 1367.66,688.03 1369.66,686.947 1371.67,687.039 1373.67,686.949 1375.67,687.359 1377.67,688.205 1379.67,687.934 1381.68,688.468 1383.68,687.906 1385.68,687.384 1387.68,686.378 1389.69,686.076 1391.69,684.596 1393.69,684.417 1395.69,684.341 1397.7,684.044 1399.7,683.706 1401.7,684.213 1403.7,685.052 1405.71,685.207 1407.71,685.198 1409.71,685.255 1411.71,684.277 1413.71,683.739 1415.72,683.809 1417.72,683.749 1419.72,683.574 1421.72,684.256 1423.73,685.039 1425.73,685.571 1427.73,687.174 1429.73,686.852 1431.74,687.889 1433.74,687.223 1435.74,687.927 1437.74,687.601 1439.75,687.95 1441.75,689.493 1443.75,688.659 1445.75,687.749 1447.75,688.127 1449.76,687.304 1451.76,686.813 1453.76,687.826 1455.76,688.227 1457.77,688.03 1459.77,687.464 1461.77,687.307 1463.77,687.004 1465.78,686.822 1467.78,686.863 1469.78,687.394 1471.78,688.22 1473.79,687.683 1475.79,688.277 1477.79,687.883 1479.79,687.579 1481.79,687.916 1483.8,688.281 1485.8,688.971 1487.8,689.108 1489.8,688.493 1491.81,689.402 1493.81,688.523 1495.81,688.65 1497.81,689.232 1499.82,688.312 1501.82,687.061 1503.82,686.762 1505.82,686.514 1507.83,687.053 1509.83,687.009 1511.83,686.837 1513.83,687.465 1515.83,687.78 1517.84,688.314 1519.84,687.285 1521.84,686.454 1523.84,685.745 1525.85,684.909 1527.85,684.689 1529.85,683.999 1531.85,682.882 1533.86,682.612 1535.86,682.662 1537.86,682.651 1539.86,684.117 1541.86,684.307 1543.87,683.701 1545.87,684.301 1547.87,684.067 1549.87,684.819 1551.88,684.922 1553.88,685.35 1555.88,686.23 1557.88,685.686 1559.89,685.482 1561.89,686.27 1563.89,685.36 1565.89,685.323 1567.9,684.986 1569.9,684.779 1571.9,684.509 1573.9,684.385 1575.9,685.057 1577.91,684.858 1579.91,684.428 1581.91,684.688 1583.91,684.645 1585.92,684.499 1587.92,683.257 1589.92,683.913 1591.92,684.625 1593.93,685.271 1595.93,685.398 1597.93,684.521 1599.93,684.82 1601.94,685.584 1603.94,686.445 1605.94,686.852 1607.94,686.847 1609.94,687.367 1611.95,687.425 1613.95,687.862 1615.95,687.134 1617.95,687.508 1619.96,687.602 1621.96,687.225 1623.96,688.021 1625.96,688.275 1627.97,688.523 1629.97,688.807 1631.97,688.894 1633.97,688.89 1635.98,689.214 1637.98,688.304 1639.98,688.586 1641.98,688.115 1643.98,687.951 1645.99,688.378 1647.99,689.221 1649.99,689.736 1651.99,689.954 1654,689.917 1656,689.883 1658,690.14 1660,689.733 1662.01,690.385 1664.01,689.366 1666.01,689.415 1668.01,689.234 1670.02,689.067 1672.02,689.299 1674.02,689.426 1676.02,690.439 1678.02,690.479 1680.03,689.803 1682.03,689.521 1684.03,689.439 1686.03,688.693 1688.04,689.167 1690.04,689.255 1692.04,689.402 1694.04,688.774 1696.05,688.802 1698.05,688.155 1700.05,687.941 1702.05,687.9 1704.06,687.137 1706.06,687.164 1708.06,688.251 1710.06,687.766 1712.06,687.044 1714.07,686.455 1716.07,686.519 1718.07,687.049 1720.07,686.612 1722.08,686.188 1724.08,686.15 1726.08,685.87 1728.08,685.331 1730.09,685.609 1732.09,686.071 1734.09,686.505 1736.09,687.094 1738.1,686.79 1740.1,687.669 1742.1,687.969 1744.1,689.095 1746.1,690.602 1748.11,692.626 1750.11,691.844 1752.11,690.281 1754.11,690.583 1756.12,690.483 1758.12,690.546 1760.12,691.179 1762.12,690.364 1764.13,690.615 1766.13,691.345 1768.13,691.61 1770.13,691.913 1772.14,692.075 1774.14,692.295 1776.14,692.797 1778.14,693.576 1780.14,693.567 1782.15,692.908 1784.15,693.456 1786.15,693.824 1788.15,693.747 1790.16,694.35 1792.16,694.132 1794.16,694.413 1796.16,694.49 1798.17,693.546 1800.17,693.449 1802.17,693.967 1804.17,694.336 1806.17,693.888 1808.18,693.386 1810.18,693.419 1812.18,693.559 1814.18,693.432 1816.19,693.593 1818.19,693.75 1820.19,694.713 1822.19,693.569 1824.2,693.05 1826.2,693.398 1828.2,693.927 1830.2,693.984 1832.21,693.868 1834.21,694.272 1836.21,693.904 1838.21,693.633 1840.21,692.436 1842.22,692.545 1844.22,691.449 1846.22,691.314 1848.22,690.873 1850.23,691.318 1852.23,690.965 1854.23,691.202 1856.23,691.925 1858.24,692.179 1860.24,691.891 1862.24,692.212 1864.24,691.589 1866.25,692.284 1868.25,692.806 1870.25,692.868 1872.25,692.947 1874.25,693.573 1876.26,693.701 1878.26,694.002 1880.26,693.808 1882.26,692.593 1884.27,693.111 1886.27,693.463 1888.27,693.981 1890.27,693.868 1892.28,692.312 1894.28,692.78 1896.28,693.145 1898.28,692.299 1900.29,692.406 1902.29,693.082 1904.29,692.881 1906.29,692.857 1908.29,692.894 1910.3,692.575 1912.3,692.766 1914.3,692.81 1916.3,693.059 1918.31,693.602 1920.31,694.318 1922.31,694.484 1924.31,694.897 1926.32,695.288 1928.32,696.337 1930.32,695.243 1932.32,695.034 1934.33,693.664 1936.33,693.694 1938.33,693.544 1940.33,693.771 1942.33,694.567 1944.34,694.338 1946.34,694.863 1948.34,695.634 1950.34,696.52 1952.35,697.354 1954.35,696.636 1956.35,695.964 1958.35,695.648 1960.36,696.158 1962.36,697.198 1964.36,697.548 1966.36,697.075 1968.37,697.673 1970.37,697.255 1972.37,697.476 1974.37,697.544 1976.37,698.976 1978.38,698.125 1980.38,699.183 1982.38,699.245 1984.38,699.791 1986.39,698.26 1988.39,698.546 1990.39,697.737 1992.39,697.641 1994.4,697.212 1996.4,696.954 1998.4,696.982 2000.4,696.607 2002.41,696.038 2004.41,696.346 2006.41,696.336 2008.41,695.483 2010.41,695.233 2012.42,695.969 2014.42,695.369 2016.42,695.004 2018.42,695.042 2020.43,695.432 2022.43,696.761 2024.43,697.916 2026.43,697.805 2028.44,697.638 2030.44,697.159 2032.44,696.604 2034.44,696.908 2036.44,697.68 2038.45,696.988 2040.45,696.482 2042.45,695.939 2044.45,695.524 2046.46,695.139 2048.46,694.947 2050.46,694.603 2052.46,695.188 2054.47,694.941 2056.47,694.53 2058.47,695.037 2060.47,695.382 2062.48,695.272 2064.48,694.4 2066.48,694.743 2068.48,694.072 2070.48,693.271 2072.49,693.727 2074.49,693.828 2076.49,693.613 2078.49,693.102 2080.5,693.748 2082.5,693.994 2084.5,693.848 2086.5,694.161 2088.51,694.504 2090.51,694.242 2092.51,694.022 2094.51,694.035 2096.52,694.152 2098.52,693.701 2100.52,691.874 2102.52,691.252 2104.52,692.03 2106.53,691.241 2108.53,690.675 2110.53,691.035 2112.53,690.933 2114.54,691.011 2116.54,690.873 2118.54,691.696 2120.54,691.642 2122.55,692.944 2124.55,693.472 2126.55,692.804 2128.55,693.071 2130.56,692.429 2132.56,693.496 2134.56,694.001 2136.56,693.286 2138.56,692.984 2140.57,692.757 2142.57,692.493 2144.57,692.189 2146.57,691.843 2148.58,691.736 2150.58,690.985 2152.58,690.953 2154.58,691.212 2156.59,690.656 2158.59,689.829 2160.59,689.843 2162.59,689.438 2164.6,689.633 2166.6,689.769 2168.6,689.926 2170.6,689.703 2172.6,689.095 2174.61,688.833 2176.61,688.419 2178.61,688.255 2180.61,688.847 2182.62,689.093 2184.62,689.522 2186.62,689.18 2188.62,689.311 2190.63,689.356 2192.63,689.06 2194.63,689.251 2196.63,688.596 2198.64,688.709 2200.64,688.267 2202.64,688.024 2204.64,688.227 2206.64,689.458 2208.65,689.689 2210.65,689.747 2212.65,689.546 2214.65,689.744 2216.66,689.662 2218.66,688.707 2220.66,688.185 2222.66,687.653 2224.67,686.768 2226.67,686.596 2228.67,686.368 2230.67,686.666 2232.68,685.892 2234.68,685.522 2236.68,686.158 2238.68,686.815 2240.68,686.2 2242.69,685.859 2244.69,684.936 2246.69,684.902 2248.69,685.323 2250.7,685.725 2252.7,685.166 2254.7,686.429 2256.7,686.556 2258.71,687.405 2260.71,687.134 2262.71,686.966 2264.71,687.237 2266.72,687.287 2268.72,687.673 2270.72,688.046 2272.72,687.001 2274.72,687.719 2276.73,686.361 2278.73,685.768 2280.73,685.431 2282.73,684.895 2284.74,684.474 2286.74,684.989 2288.74,685.127 2290.74,685.835 2292.75,684.394 "/>
<path clip-path="url(#clip330)" d="M1906.29 248.629 L2282.08 248.629 L2282.08 93.1086 L1906.29 93.1086  Z" fill="#ffffff" fill-rule="evenodd" fill-opacity="1"/>
<polyline clip-path="url(#clip330)" style="stroke:#000000; stroke-linecap:round; stroke-linejoin:round; stroke-width:4; stroke-opacity:1; fill:none" points="1906.29,248.629 2282.08,248.629 2282.08,93.1086 1906.29,93.1086 1906.29,248.629 "/>
<polyline clip-path="url(#clip330)" style="stroke:#009af9; stroke-linecap:round; stroke-linejoin:round; stroke-width:4; stroke-opacity:1; fill:none" points="1929.85,144.949 2071.21,144.949 "/>
<path clip-path="url(#clip330)" d="M2094.77 127.669 L2101.74 127.669 L2110.56 151.187 L2119.42 127.669 L2126.39 127.669 L2126.39 162.229 L2121.83 162.229 L2121.83 131.882 L2112.92 155.585 L2108.22 155.585 L2099.31 131.882 L2099.31 162.229 L2094.77 162.229 L2094.77 127.669 Z" fill="#000000" fill-rule="nonzero" fill-opacity="1" /><path clip-path="url(#clip330)" d="M2157.66 148.201 L2157.66 150.284 L2138.08 150.284 Q2138.36 154.682 2140.72 156.997 Q2143.1 159.289 2147.34 159.289 Q2149.79 159.289 2152.08 158.687 Q2154.4 158.085 2156.67 156.881 L2156.67 160.909 Q2154.37 161.881 2151.97 162.391 Q2149.56 162.9 2147.08 162.9 Q2140.88 162.9 2137.24 159.289 Q2133.63 155.678 2133.63 149.52 Q2133.63 143.155 2137.06 139.428 Q2140.51 135.678 2146.34 135.678 Q2151.57 135.678 2154.61 139.057 Q2157.66 142.414 2157.66 148.201 M2153.4 146.951 Q2153.36 143.456 2151.43 141.372 Q2149.54 139.289 2146.39 139.289 Q2142.82 139.289 2140.67 141.303 Q2138.54 143.317 2138.22 146.974 L2153.4 146.951 Z" fill="#000000" fill-rule="nonzero" fill-opacity="1" /><path clip-path="url(#clip330)" d="M2181.71 140.238 L2181.71 126.21 L2185.97 126.21 L2185.97 162.229 L2181.71 162.229 L2181.71 158.34 Q2180.37 160.655 2178.31 161.789 Q2176.27 162.9 2173.4 162.9 Q2168.7 162.9 2165.74 159.15 Q2162.8 155.4 2162.8 149.289 Q2162.8 143.178 2165.74 139.428 Q2168.7 135.678 2173.4 135.678 Q2176.27 135.678 2178.31 136.812 Q2180.37 137.923 2181.71 140.238 M2167.2 149.289 Q2167.2 153.988 2169.12 156.673 Q2171.06 159.335 2174.44 159.335 Q2177.82 159.335 2179.77 156.673 Q2181.71 153.988 2181.71 149.289 Q2181.71 144.59 2179.77 141.928 Q2177.82 139.243 2174.44 139.243 Q2171.06 139.243 2169.12 141.928 Q2167.2 144.59 2167.2 149.289 Z" fill="#000000" fill-rule="nonzero" fill-opacity="1" /><path clip-path="url(#clip330)" d="M2194.74 136.303 L2199 136.303 L2199 162.229 L2194.74 162.229 L2194.74 136.303 M2194.74 126.21 L2199 126.21 L2199 131.604 L2194.74 131.604 L2194.74 126.21 Z" fill="#000000" fill-rule="nonzero" fill-opacity="1" /><path clip-path="url(#clip330)" d="M2219.7 149.196 Q2214.54 149.196 2212.55 150.377 Q2210.55 151.557 2210.55 154.405 Q2210.55 156.673 2212.04 158.016 Q2213.54 159.335 2216.11 159.335 Q2219.65 159.335 2221.78 156.835 Q2223.93 154.312 2223.93 150.145 L2223.93 149.196 L2219.7 149.196 M2228.19 147.437 L2228.19 162.229 L2223.93 162.229 L2223.93 158.293 Q2222.48 160.655 2220.3 161.789 Q2218.12 162.9 2214.98 162.9 Q2210.99 162.9 2208.63 160.678 Q2206.3 158.432 2206.3 154.682 Q2206.3 150.307 2209.21 148.085 Q2212.15 145.863 2217.96 145.863 L2223.93 145.863 L2223.93 145.446 Q2223.93 142.507 2221.99 140.909 Q2220.07 139.289 2216.57 139.289 Q2214.35 139.289 2212.24 139.821 Q2210.14 140.354 2208.19 141.419 L2208.19 137.483 Q2210.53 136.581 2212.73 136.141 Q2214.93 135.678 2217.01 135.678 Q2222.64 135.678 2225.42 138.594 Q2228.19 141.511 2228.19 147.437 Z" fill="#000000" fill-rule="nonzero" fill-opacity="1" /><path clip-path="url(#clip330)" d="M2258.52 146.581 L2258.52 162.229 L2254.26 162.229 L2254.26 146.719 Q2254.26 143.039 2252.82 141.21 Q2251.39 139.382 2248.52 139.382 Q2245.07 139.382 2243.08 141.581 Q2241.09 143.78 2241.09 147.576 L2241.09 162.229 L2236.8 162.229 L2236.8 136.303 L2241.09 136.303 L2241.09 140.331 Q2242.61 137.993 2244.67 136.835 Q2246.76 135.678 2249.47 135.678 Q2253.93 135.678 2256.23 138.456 Q2258.52 141.21 2258.52 146.581 Z" fill="#000000" fill-rule="nonzero" fill-opacity="1" /><polyline clip-path="url(#clip330)" style="stroke:#e26f46; stroke-linecap:round; stroke-linejoin:round; stroke-width:4; stroke-opacity:1; fill:none" points="1929.85,196.789 2071.21,196.789 "/>
<path clip-path="url(#clip330)" d="M2094.77 179.509 L2101.74 179.509 L2110.56 203.027 L2119.42 179.509 L2126.39 179.509 L2126.39 214.069 L2121.83 214.069 L2121.83 183.722 L2112.92 207.425 L2108.22 207.425 L2099.31 183.722 L2099.31 214.069 L2094.77 214.069 L2094.77 179.509 Z" fill="#000000" fill-rule="nonzero" fill-opacity="1" /><path clip-path="url(#clip330)" d="M2157.66 200.041 L2157.66 202.124 L2138.08 202.124 Q2138.36 206.522 2140.72 208.837 Q2143.1 211.129 2147.34 211.129 Q2149.79 211.129 2152.08 210.527 Q2154.4 209.925 2156.67 208.721 L2156.67 212.749 Q2154.37 213.721 2151.97 214.231 Q2149.56 214.74 2147.08 214.74 Q2140.88 214.74 2137.24 211.129 Q2133.63 207.518 2133.63 201.36 Q2133.63 194.995 2137.06 191.268 Q2140.51 187.518 2146.34 187.518 Q2151.57 187.518 2154.61 190.897 Q2157.66 194.254 2157.66 200.041 M2153.4 198.791 Q2153.36 195.296 2151.43 193.212 Q2149.54 191.129 2146.39 191.129 Q2142.82 191.129 2140.67 193.143 Q2138.54 195.157 2138.22 198.814 L2153.4 198.791 Z" fill="#000000" fill-rule="nonzero" fill-opacity="1" /><path clip-path="url(#clip330)" d="M2176.43 201.036 Q2171.27 201.036 2169.28 202.217 Q2167.29 203.397 2167.29 206.245 Q2167.29 208.513 2168.77 209.856 Q2170.28 211.175 2172.85 211.175 Q2176.39 211.175 2178.52 208.675 Q2180.67 206.152 2180.67 201.985 L2180.67 201.036 L2176.43 201.036 M2184.93 199.277 L2184.93 214.069 L2180.67 214.069 L2180.67 210.133 Q2179.21 212.495 2177.04 213.629 Q2174.86 214.74 2171.71 214.74 Q2167.73 214.74 2165.37 212.518 Q2163.03 210.272 2163.03 206.522 Q2163.03 202.147 2165.95 199.925 Q2168.89 197.703 2174.7 197.703 L2180.67 197.703 L2180.67 197.286 Q2180.67 194.347 2178.73 192.749 Q2176.8 191.129 2173.31 191.129 Q2171.09 191.129 2168.98 191.661 Q2166.87 192.194 2164.93 193.259 L2164.93 189.323 Q2167.27 188.421 2169.47 187.981 Q2171.67 187.518 2173.75 187.518 Q2179.37 187.518 2182.15 190.434 Q2184.93 193.351 2184.93 199.277 Z" fill="#000000" fill-rule="nonzero" fill-opacity="1" /><path clip-path="url(#clip330)" d="M2215.25 198.421 L2215.25 214.069 L2210.99 214.069 L2210.99 198.559 Q2210.99 194.879 2209.56 193.05 Q2208.12 191.222 2205.25 191.222 Q2201.8 191.222 2199.81 193.421 Q2197.82 195.62 2197.82 199.416 L2197.82 214.069 L2193.54 214.069 L2193.54 188.143 L2197.82 188.143 L2197.82 192.171 Q2199.35 189.833 2201.41 188.675 Q2203.49 187.518 2206.2 187.518 Q2210.67 187.518 2212.96 190.296 Q2215.25 193.05 2215.25 198.421 Z" fill="#000000" fill-rule="nonzero" fill-opacity="1" /></svg>
