<?xml version="1.0" encoding="utf-8"?>
<svg xmlns="http://www.w3.org/2000/svg" xmlns:xlink="http://www.w3.org/1999/xlink" width="600" height="400" viewBox="0 0 2400 1600">
<defs>
  <clipPath id="clip820">
    <rect x="0" y="0" width="2400" height="1600"/>
  </clipPath>
</defs>
<path clip-path="url(#clip820)" d="M0 1600 L2400 1600 L2400 0 L0 0  Z" fill="#ffffff" fill-rule="evenodd" fill-opacity="1"/>
<defs>
  <clipPath id="clip821">
    <rect x="480" y="0" width="1681" height="1600"/>
  </clipPath>
</defs>
<path clip-path="url(#clip820)" d="M219.866 1423.18 L2352.76 1423.18 L2352.76 47.2441 L219.866 47.2441  Z" fill="#ffffff" fill-rule="evenodd" fill-opacity="1"/>
<defs>
  <clipPath id="clip822">
    <rect x="219" y="47" width="2134" height="1377"/>
  </clipPath>
</defs>
<polyline clip-path="url(#clip822)" style="stroke:#000000; stroke-linecap:round; stroke-linejoin:round; stroke-width:2; stroke-opacity:0.1; fill:none" points="278.217,1423.18 278.217,47.2441 "/>
<polyline clip-path="url(#clip822)" style="stroke:#000000; stroke-linecap:round; stroke-linejoin:round; stroke-width:2; stroke-opacity:0.1; fill:none" points="781.76,1423.18 781.76,47.2441 "/>
<polyline clip-path="url(#clip822)" style="stroke:#000000; stroke-linecap:round; stroke-linejoin:round; stroke-width:2; stroke-opacity:0.1; fill:none" points="1285.3,1423.18 1285.3,47.2441 "/>
<polyline clip-path="url(#clip822)" style="stroke:#000000; stroke-linecap:round; stroke-linejoin:round; stroke-width:2; stroke-opacity:0.1; fill:none" points="1788.85,1423.18 1788.85,47.2441 "/>
<polyline clip-path="url(#clip822)" style="stroke:#000000; stroke-linecap:round; stroke-linejoin:round; stroke-width:2; stroke-opacity:0.1; fill:none" points="2292.39,1423.18 2292.39,47.2441 "/>
<polyline clip-path="url(#clip820)" style="stroke:#000000; stroke-linecap:round; stroke-linejoin:round; stroke-width:4; stroke-opacity:1; fill:none" points="219.866,1423.18 2352.76,1423.18 "/>
<polyline clip-path="url(#clip820)" style="stroke:#000000; stroke-linecap:round; stroke-linejoin:round; stroke-width:4; stroke-opacity:1; fill:none" points="278.217,1423.18 278.217,1404.28 "/>
<polyline clip-path="url(#clip820)" style="stroke:#000000; stroke-linecap:round; stroke-linejoin:round; stroke-width:4; stroke-opacity:1; fill:none" points="781.76,1423.18 781.76,1404.28 "/>
<polyline clip-path="url(#clip820)" style="stroke:#000000; stroke-linecap:round; stroke-linejoin:round; stroke-width:4; stroke-opacity:1; fill:none" points="1285.3,1423.18 1285.3,1404.28 "/>
<polyline clip-path="url(#clip820)" style="stroke:#000000; stroke-linecap:round; stroke-linejoin:round; stroke-width:4; stroke-opacity:1; fill:none" points="1788.85,1423.18 1788.85,1404.28 "/>
<polyline clip-path="url(#clip820)" style="stroke:#000000; stroke-linecap:round; stroke-linejoin:round; stroke-width:4; stroke-opacity:1; fill:none" points="2292.39,1423.18 2292.39,1404.28 "/>
<path clip-path="url(#clip820)" d="M278.217 1454.1 Q274.606 1454.1 272.777 1457.66 Q270.972 1461.2 270.972 1468.33 Q270.972 1475.44 272.777 1479.01 Q274.606 1482.55 278.217 1482.55 Q281.851 1482.55 283.657 1479.01 Q285.485 1475.44 285.485 1468.33 Q285.485 1461.2 283.657 1457.66 Q281.851 1454.1 278.217 1454.1 M278.217 1450.39 Q284.027 1450.39 287.083 1455 Q290.161 1459.58 290.161 1468.33 Q290.161 1477.06 287.083 1481.67 Q284.027 1486.25 278.217 1486.25 Q272.407 1486.25 269.328 1481.67 Q266.273 1477.06 266.273 1468.33 Q266.273 1459.58 269.328 1455 Q272.407 1450.39 278.217 1450.39 Z" fill="#000000" fill-rule="nonzero" fill-opacity="1" /><path clip-path="url(#clip820)" d="M745.453 1481.64 L761.772 1481.64 L761.772 1485.58 L739.828 1485.58 L739.828 1481.64 Q742.49 1478.89 747.073 1474.26 Q751.68 1469.61 752.86 1468.27 Q755.105 1465.74 755.985 1464.01 Q756.888 1462.25 756.888 1460.56 Q756.888 1457.8 754.943 1456.07 Q753.022 1454.33 749.92 1454.33 Q747.721 1454.33 745.268 1455.09 Q742.837 1455.86 740.059 1457.41 L740.059 1452.69 Q742.883 1451.55 745.337 1450.97 Q747.791 1450.39 749.828 1450.39 Q755.198 1450.39 758.393 1453.08 Q761.587 1455.77 761.587 1460.26 Q761.587 1462.39 760.777 1464.31 Q759.99 1466.2 757.883 1468.8 Q757.305 1469.47 754.203 1472.69 Q751.101 1475.88 745.453 1481.64 Z" fill="#000000" fill-rule="nonzero" fill-opacity="1" /><path clip-path="url(#clip820)" d="M771.633 1451.02 L789.99 1451.02 L789.99 1454.96 L775.916 1454.96 L775.916 1463.43 Q776.934 1463.08 777.953 1462.92 Q778.971 1462.73 779.99 1462.73 Q785.777 1462.73 789.156 1465.9 Q792.536 1469.08 792.536 1474.49 Q792.536 1480.07 789.064 1483.17 Q785.591 1486.25 779.272 1486.25 Q777.096 1486.25 774.828 1485.88 Q772.582 1485.51 770.175 1484.77 L770.175 1480.07 Q772.258 1481.2 774.48 1481.76 Q776.703 1482.32 779.179 1482.32 Q783.184 1482.32 785.522 1480.21 Q787.86 1478.1 787.86 1474.49 Q787.86 1470.88 785.522 1468.77 Q783.184 1466.67 779.179 1466.67 Q777.304 1466.67 775.429 1467.08 Q773.578 1467.5 771.633 1468.38 L771.633 1451.02 Z" fill="#000000" fill-rule="nonzero" fill-opacity="1" /><path clip-path="url(#clip820)" d="M811.749 1454.1 Q808.138 1454.1 806.309 1457.66 Q804.503 1461.2 804.503 1468.33 Q804.503 1475.44 806.309 1479.01 Q808.138 1482.55 811.749 1482.55 Q815.383 1482.55 817.188 1479.01 Q819.017 1475.44 819.017 1468.33 Q819.017 1461.2 817.188 1457.66 Q815.383 1454.1 811.749 1454.1 M811.749 1450.39 Q817.559 1450.39 820.614 1455 Q823.693 1459.58 823.693 1468.33 Q823.693 1477.06 820.614 1481.67 Q817.559 1486.25 811.749 1486.25 Q805.939 1486.25 802.86 1481.67 Q799.804 1477.06 799.804 1468.33 Q799.804 1459.58 802.86 1455 Q805.939 1450.39 811.749 1450.39 Z" fill="#000000" fill-rule="nonzero" fill-opacity="1" /><path clip-path="url(#clip820)" d="M1244.92 1451.02 L1263.28 1451.02 L1263.28 1454.96 L1249.2 1454.96 L1249.2 1463.43 Q1250.22 1463.08 1251.24 1462.92 Q1252.26 1462.73 1253.28 1462.73 Q1259.07 1462.73 1262.45 1465.9 Q1265.82 1469.08 1265.82 1474.49 Q1265.82 1480.07 1262.35 1483.17 Q1258.88 1486.25 1252.56 1486.25 Q1250.39 1486.25 1248.12 1485.88 Q1245.87 1485.51 1243.46 1484.77 L1243.46 1480.07 Q1245.55 1481.2 1247.77 1481.76 Q1249.99 1482.32 1252.47 1482.32 Q1256.47 1482.32 1258.81 1480.21 Q1261.15 1478.1 1261.15 1474.49 Q1261.15 1470.88 1258.81 1468.77 Q1256.47 1466.67 1252.47 1466.67 Q1250.59 1466.67 1248.72 1467.08 Q1246.87 1467.5 1244.92 1468.38 L1244.92 1451.02 Z" fill="#000000" fill-rule="nonzero" fill-opacity="1" /><path clip-path="url(#clip820)" d="M1285.04 1454.1 Q1281.43 1454.1 1279.6 1457.66 Q1277.79 1461.2 1277.79 1468.33 Q1277.79 1475.44 1279.6 1479.01 Q1281.43 1482.55 1285.04 1482.55 Q1288.67 1482.55 1290.48 1479.01 Q1292.31 1475.44 1292.31 1468.33 Q1292.31 1461.2 1290.48 1457.66 Q1288.67 1454.1 1285.04 1454.1 M1285.04 1450.39 Q1290.85 1450.39 1293.9 1455 Q1296.98 1459.58 1296.98 1468.33 Q1296.98 1477.06 1293.9 1481.67 Q1290.85 1486.25 1285.04 1486.25 Q1279.23 1486.25 1276.15 1481.67 Q1273.09 1477.06 1273.09 1468.33 Q1273.09 1459.58 1276.15 1455 Q1279.23 1450.39 1285.04 1450.39 Z" fill="#000000" fill-rule="nonzero" fill-opacity="1" /><path clip-path="url(#clip820)" d="M1315.2 1454.1 Q1311.59 1454.1 1309.76 1457.66 Q1307.95 1461.2 1307.95 1468.33 Q1307.95 1475.44 1309.76 1479.01 Q1311.59 1482.55 1315.2 1482.55 Q1318.83 1482.55 1320.64 1479.01 Q1322.47 1475.44 1322.47 1468.33 Q1322.47 1461.2 1320.64 1457.66 Q1318.83 1454.1 1315.2 1454.1 M1315.2 1450.39 Q1321.01 1450.39 1324.07 1455 Q1327.14 1459.58 1327.14 1468.33 Q1327.14 1477.06 1324.07 1481.67 Q1321.01 1486.25 1315.2 1486.25 Q1309.39 1486.25 1306.31 1481.67 Q1303.26 1477.06 1303.26 1468.33 Q1303.26 1459.58 1306.31 1455 Q1309.39 1450.39 1315.2 1450.39 Z" fill="#000000" fill-rule="nonzero" fill-opacity="1" /><path clip-path="url(#clip820)" d="M1747.12 1451.02 L1769.35 1451.02 L1769.35 1453.01 L1756.8 1485.58 L1751.91 1485.58 L1763.72 1454.96 L1747.12 1454.96 L1747.12 1451.02 Z" fill="#000000" fill-rule="nonzero" fill-opacity="1" /><path clip-path="url(#clip820)" d="M1778.51 1451.02 L1796.87 1451.02 L1796.87 1454.96 L1782.79 1454.96 L1782.79 1463.43 Q1783.81 1463.08 1784.83 1462.92 Q1785.85 1462.73 1786.87 1462.73 Q1792.66 1462.73 1796.04 1465.9 Q1799.41 1469.08 1799.41 1474.49 Q1799.41 1480.07 1795.94 1483.17 Q1792.47 1486.25 1786.15 1486.25 Q1783.97 1486.25 1781.71 1485.88 Q1779.46 1485.51 1777.05 1484.77 L1777.05 1480.07 Q1779.14 1481.2 1781.36 1481.76 Q1783.58 1482.32 1786.06 1482.32 Q1790.06 1482.32 1792.4 1480.21 Q1794.74 1478.1 1794.74 1474.49 Q1794.74 1470.88 1792.4 1468.77 Q1790.06 1466.67 1786.06 1466.67 Q1784.18 1466.67 1782.31 1467.08 Q1780.46 1467.5 1778.51 1468.38 L1778.51 1451.02 Z" fill="#000000" fill-rule="nonzero" fill-opacity="1" /><path clip-path="url(#clip820)" d="M1818.63 1454.1 Q1815.02 1454.1 1813.19 1457.66 Q1811.38 1461.2 1811.38 1468.33 Q1811.38 1475.44 1813.19 1479.01 Q1815.02 1482.55 1818.63 1482.55 Q1822.26 1482.55 1824.07 1479.01 Q1825.9 1475.44 1825.9 1468.33 Q1825.9 1461.2 1824.07 1457.66 Q1822.26 1454.1 1818.63 1454.1 M1818.63 1450.39 Q1824.44 1450.39 1827.49 1455 Q1830.57 1459.58 1830.57 1468.33 Q1830.57 1477.06 1827.49 1481.67 Q1824.44 1486.25 1818.63 1486.25 Q1812.82 1486.25 1809.74 1481.67 Q1806.68 1477.06 1806.68 1468.33 Q1806.68 1459.58 1809.74 1455 Q1812.82 1450.39 1818.63 1450.39 Z" fill="#000000" fill-rule="nonzero" fill-opacity="1" /><path clip-path="url(#clip820)" d="M2236.92 1481.64 L2244.56 1481.64 L2244.56 1455.28 L2236.25 1456.95 L2236.25 1452.69 L2244.51 1451.02 L2249.19 1451.02 L2249.19 1481.64 L2256.82 1481.64 L2256.82 1485.58 L2236.92 1485.58 L2236.92 1481.64 Z" fill="#000000" fill-rule="nonzero" fill-opacity="1" /><path clip-path="url(#clip820)" d="M2276.27 1454.1 Q2272.66 1454.1 2270.83 1457.66 Q2269.02 1461.2 2269.02 1468.33 Q2269.02 1475.44 2270.83 1479.01 Q2272.66 1482.55 2276.27 1482.55 Q2279.9 1482.55 2281.71 1479.01 Q2283.54 1475.44 2283.54 1468.33 Q2283.54 1461.2 2281.71 1457.66 Q2279.9 1454.1 2276.27 1454.1 M2276.27 1450.39 Q2282.08 1450.39 2285.13 1455 Q2288.21 1459.58 2288.21 1468.33 Q2288.21 1477.06 2285.13 1481.67 Q2282.08 1486.25 2276.27 1486.25 Q2270.46 1486.25 2267.38 1481.67 Q2264.32 1477.06 2264.32 1468.33 Q2264.32 1459.58 2267.38 1455 Q2270.46 1450.39 2276.27 1450.39 Z" fill="#000000" fill-rule="nonzero" fill-opacity="1" /><path clip-path="url(#clip820)" d="M2306.43 1454.1 Q2302.82 1454.1 2300.99 1457.66 Q2299.19 1461.2 2299.19 1468.33 Q2299.19 1475.44 2300.99 1479.01 Q2302.82 1482.55 2306.43 1482.55 Q2310.06 1482.55 2311.87 1479.01 Q2313.7 1475.44 2313.7 1468.33 Q2313.7 1461.2 2311.87 1457.66 Q2310.06 1454.1 2306.43 1454.1 M2306.43 1450.39 Q2312.24 1450.39 2315.3 1455 Q2318.37 1459.58 2318.37 1468.33 Q2318.37 1477.06 2315.3 1481.67 Q2312.24 1486.25 2306.43 1486.25 Q2300.62 1486.25 2297.54 1481.67 Q2294.49 1477.06 2294.49 1468.33 Q2294.49 1459.58 2297.54 1455 Q2300.62 1450.39 2306.43 1450.39 Z" fill="#000000" fill-rule="nonzero" fill-opacity="1" /><path clip-path="url(#clip820)" d="M2336.59 1454.1 Q2332.98 1454.1 2331.15 1457.66 Q2329.35 1461.2 2329.35 1468.33 Q2329.35 1475.44 2331.15 1479.01 Q2332.98 1482.55 2336.59 1482.55 Q2340.23 1482.55 2342.03 1479.01 Q2343.86 1475.44 2343.86 1468.33 Q2343.86 1461.2 2342.03 1457.66 Q2340.23 1454.1 2336.59 1454.1 M2336.59 1450.39 Q2342.4 1450.39 2345.46 1455 Q2348.54 1459.58 2348.54 1468.33 Q2348.54 1477.06 2345.46 1481.67 Q2342.4 1486.25 2336.59 1486.25 Q2330.78 1486.25 2327.7 1481.67 Q2324.65 1477.06 2324.65 1468.33 Q2324.65 1459.58 2327.7 1455 Q2330.78 1450.39 2336.59 1450.39 Z" fill="#000000" fill-rule="nonzero" fill-opacity="1" /><path clip-path="url(#clip820)" d="M1211.88 1545.76 Q1213.95 1546.46 1215.89 1548.76 Q1217.86 1551.05 1219.84 1555.06 L1226.36 1568.04 L1219.46 1568.04 L1213.38 1555.85 Q1211.02 1551.08 1208.79 1549.52 Q1206.6 1547.96 1202.78 1547.96 L1195.77 1547.96 L1195.77 1568.04 L1189.35 1568.04 L1189.35 1520.52 L1203.86 1520.52 Q1212.01 1520.52 1216.02 1523.93 Q1220.03 1527.34 1220.03 1534.21 Q1220.03 1538.7 1217.93 1541.66 Q1215.86 1544.62 1211.88 1545.76 M1195.77 1525.81 L1195.77 1542.68 L1203.86 1542.68 Q1208.51 1542.68 1210.86 1540.54 Q1213.25 1538.38 1213.25 1534.21 Q1213.25 1530.04 1210.86 1527.94 Q1208.51 1525.81 1203.86 1525.81 L1195.77 1525.81 Z" fill="#000000" fill-rule="nonzero" fill-opacity="1" /><path clip-path="url(#clip820)" d="M1245.27 1536.5 Q1240.56 1536.5 1237.82 1540.19 Q1235.08 1543.85 1235.08 1550.25 Q1235.08 1556.65 1237.79 1560.34 Q1240.53 1564 1245.27 1564 Q1249.95 1564 1252.68 1560.31 Q1255.42 1556.62 1255.42 1550.25 Q1255.42 1543.92 1252.68 1540.23 Q1249.95 1536.5 1245.27 1536.5 M1245.27 1531.54 Q1252.91 1531.54 1257.27 1536.5 Q1261.63 1541.47 1261.63 1550.25 Q1261.63 1559 1257.27 1564 Q1252.91 1568.97 1245.27 1568.97 Q1237.6 1568.97 1233.24 1564 Q1228.91 1559 1228.91 1550.25 Q1228.91 1541.47 1233.24 1536.5 Q1237.6 1531.54 1245.27 1531.54 Z" fill="#000000" fill-rule="nonzero" fill-opacity="1" /><path clip-path="url(#clip820)" d="M1270.73 1553.98 L1270.73 1532.4 L1276.59 1532.4 L1276.59 1553.75 Q1276.59 1558.81 1278.56 1561.36 Q1280.53 1563.87 1284.48 1563.87 Q1289.22 1563.87 1291.96 1560.85 Q1294.73 1557.83 1294.73 1552.61 L1294.73 1532.4 L1300.59 1532.4 L1300.59 1568.04 L1294.73 1568.04 L1294.73 1562.57 Q1292.6 1565.82 1289.76 1567.41 Q1286.96 1568.97 1283.24 1568.97 Q1277.1 1568.97 1273.91 1565.15 Q1270.73 1561.33 1270.73 1553.98 M1285.47 1531.54 L1285.47 1531.54 Z" fill="#000000" fill-rule="nonzero" fill-opacity="1" /><path clip-path="url(#clip820)" d="M1342.28 1546.53 L1342.28 1568.04 L1336.43 1568.04 L1336.43 1546.72 Q1336.43 1541.66 1334.45 1539.14 Q1332.48 1536.63 1328.53 1536.63 Q1323.79 1536.63 1321.05 1539.65 Q1318.31 1542.68 1318.31 1547.9 L1318.31 1568.04 L1312.43 1568.04 L1312.43 1532.4 L1318.31 1532.4 L1318.31 1537.93 Q1320.42 1534.72 1323.25 1533.13 Q1326.11 1531.54 1329.84 1531.54 Q1335.98 1531.54 1339.13 1535.36 Q1342.28 1539.14 1342.28 1546.53 Z" fill="#000000" fill-rule="nonzero" fill-opacity="1" /><path clip-path="url(#clip820)" d="M1377.42 1537.81 L1377.42 1518.52 L1383.28 1518.52 L1383.28 1568.04 L1377.42 1568.04 L1377.42 1562.7 Q1375.57 1565.88 1372.74 1567.44 Q1369.94 1568.97 1365.99 1568.97 Q1359.53 1568.97 1355.46 1563.81 Q1351.42 1558.65 1351.42 1550.25 Q1351.42 1541.85 1355.46 1536.69 Q1359.53 1531.54 1365.99 1531.54 Q1369.94 1531.54 1372.74 1533.1 Q1375.57 1534.62 1377.42 1537.81 M1357.46 1550.25 Q1357.46 1556.71 1360.11 1560.4 Q1362.78 1564.07 1367.43 1564.07 Q1372.07 1564.07 1374.75 1560.4 Q1377.42 1556.71 1377.42 1550.25 Q1377.42 1543.79 1374.75 1540.13 Q1372.07 1536.44 1367.43 1536.44 Q1362.78 1536.44 1360.11 1540.13 Q1357.46 1543.79 1357.46 1550.25 Z" fill="#000000" fill-rule="nonzero" fill-opacity="1" /><polyline clip-path="url(#clip822)" style="stroke:#000000; stroke-linecap:round; stroke-linejoin:round; stroke-width:2; stroke-opacity:0.1; fill:none" points="219.866,1384.24 2352.76,1384.24 "/>
<polyline clip-path="url(#clip822)" style="stroke:#000000; stroke-linecap:round; stroke-linejoin:round; stroke-width:2; stroke-opacity:0.1; fill:none" points="219.866,1074.29 2352.76,1074.29 "/>
<polyline clip-path="url(#clip822)" style="stroke:#000000; stroke-linecap:round; stroke-linejoin:round; stroke-width:2; stroke-opacity:0.1; fill:none" points="219.866,764.347 2352.76,764.347 "/>
<polyline clip-path="url(#clip822)" style="stroke:#000000; stroke-linecap:round; stroke-linejoin:round; stroke-width:2; stroke-opacity:0.1; fill:none" points="219.866,454.401 2352.76,454.401 "/>
<polyline clip-path="url(#clip822)" style="stroke:#000000; stroke-linecap:round; stroke-linejoin:round; stroke-width:2; stroke-opacity:0.1; fill:none" points="219.866,144.455 2352.76,144.455 "/>
<polyline clip-path="url(#clip820)" style="stroke:#000000; stroke-linecap:round; stroke-linejoin:round; stroke-width:4; stroke-opacity:1; fill:none" points="219.866,1423.18 219.866,47.2441 "/>
<polyline clip-path="url(#clip820)" style="stroke:#000000; stroke-linecap:round; stroke-linejoin:round; stroke-width:4; stroke-opacity:1; fill:none" points="219.866,1384.24 238.764,1384.24 "/>
<polyline clip-path="url(#clip820)" style="stroke:#000000; stroke-linecap:round; stroke-linejoin:round; stroke-width:4; stroke-opacity:1; fill:none" points="219.866,1074.29 238.764,1074.29 "/>
<polyline clip-path="url(#clip820)" style="stroke:#000000; stroke-linecap:round; stroke-linejoin:round; stroke-width:4; stroke-opacity:1; fill:none" points="219.866,764.347 238.764,764.347 "/>
<polyline clip-path="url(#clip820)" style="stroke:#000000; stroke-linecap:round; stroke-linejoin:round; stroke-width:4; stroke-opacity:1; fill:none" points="219.866,454.401 238.764,454.401 "/>
<polyline clip-path="url(#clip820)" style="stroke:#000000; stroke-linecap:round; stroke-linejoin:round; stroke-width:4; stroke-opacity:1; fill:none" points="219.866,144.455 238.764,144.455 "/>
<path clip-path="url(#clip820)" d="M126.691 1370.04 Q123.08 1370.04 121.251 1373.6 Q119.445 1377.14 119.445 1384.27 Q119.445 1391.38 121.251 1394.94 Q123.08 1398.49 126.691 1398.49 Q130.325 1398.49 132.13 1394.94 Q133.959 1391.38 133.959 1384.27 Q133.959 1377.14 132.13 1373.6 Q130.325 1370.04 126.691 1370.04 M126.691 1366.33 Q132.501 1366.33 135.556 1370.94 Q138.635 1375.52 138.635 1384.27 Q138.635 1393 135.556 1397.61 Q132.501 1402.19 126.691 1402.19 Q120.88 1402.19 117.802 1397.61 Q114.746 1393 114.746 1384.27 Q114.746 1375.52 117.802 1370.94 Q120.88 1366.33 126.691 1366.33 Z" fill="#000000" fill-rule="nonzero" fill-opacity="1" /><path clip-path="url(#clip820)" d="M146.853 1395.64 L151.737 1395.64 L151.737 1401.52 L146.853 1401.52 L146.853 1395.64 Z" fill="#000000" fill-rule="nonzero" fill-opacity="1" /><path clip-path="url(#clip820)" d="M171.922 1370.04 Q168.311 1370.04 166.482 1373.6 Q164.677 1377.14 164.677 1384.27 Q164.677 1391.38 166.482 1394.94 Q168.311 1398.49 171.922 1398.49 Q175.556 1398.49 177.362 1394.94 Q179.19 1391.38 179.19 1384.27 Q179.19 1377.14 177.362 1373.6 Q175.556 1370.04 171.922 1370.04 M171.922 1366.33 Q177.732 1366.33 180.788 1370.94 Q183.866 1375.52 183.866 1384.27 Q183.866 1393 180.788 1397.61 Q177.732 1402.19 171.922 1402.19 Q166.112 1402.19 163.033 1397.61 Q159.978 1393 159.978 1384.27 Q159.978 1375.52 163.033 1370.94 Q166.112 1366.33 171.922 1366.33 Z" fill="#000000" fill-rule="nonzero" fill-opacity="1" /><path clip-path="url(#clip820)" d="M128.288 1060.09 Q124.677 1060.09 122.848 1063.66 Q121.043 1067.2 121.043 1074.33 Q121.043 1081.43 122.848 1085 Q124.677 1088.54 128.288 1088.54 Q131.922 1088.54 133.728 1085 Q135.556 1081.43 135.556 1074.33 Q135.556 1067.2 133.728 1063.66 Q131.922 1060.09 128.288 1060.09 M128.288 1056.39 Q134.098 1056.39 137.154 1060.99 Q140.232 1065.58 140.232 1074.33 Q140.232 1083.05 137.154 1087.66 Q134.098 1092.24 128.288 1092.24 Q122.478 1092.24 119.399 1087.66 Q116.343 1083.05 116.343 1074.33 Q116.343 1065.58 119.399 1060.99 Q122.478 1056.39 128.288 1056.39 Z" fill="#000000" fill-rule="nonzero" fill-opacity="1" /><path clip-path="url(#clip820)" d="M148.45 1085.69 L153.334 1085.69 L153.334 1091.57 L148.45 1091.57 L148.45 1085.69 Z" fill="#000000" fill-rule="nonzero" fill-opacity="1" /><path clip-path="url(#clip820)" d="M167.547 1087.64 L183.866 1087.64 L183.866 1091.57 L161.922 1091.57 L161.922 1087.64 Q164.584 1084.88 169.167 1080.25 Q173.774 1075.6 174.954 1074.26 Q177.2 1071.73 178.079 1070 Q178.982 1068.24 178.982 1066.55 Q178.982 1063.79 177.038 1062.06 Q175.116 1060.32 172.014 1060.32 Q169.815 1060.32 167.362 1061.09 Q164.931 1061.85 162.153 1063.4 L162.153 1058.68 Q164.977 1057.54 167.431 1056.97 Q169.885 1056.39 171.922 1056.39 Q177.292 1056.39 180.487 1059.07 Q183.681 1061.76 183.681 1066.25 Q183.681 1068.38 182.871 1070.3 Q182.084 1072.2 179.977 1074.79 Q179.399 1075.46 176.297 1078.68 Q173.195 1081.87 167.547 1087.64 Z" fill="#000000" fill-rule="nonzero" fill-opacity="1" /><path clip-path="url(#clip820)" d="M126.205 750.146 Q122.593 750.146 120.765 753.71 Q118.959 757.252 118.959 764.382 Q118.959 771.488 120.765 775.053 Q122.593 778.594 126.205 778.594 Q129.839 778.594 131.644 775.053 Q133.473 771.488 133.473 764.382 Q133.473 757.252 131.644 753.71 Q129.839 750.146 126.205 750.146 M126.205 746.442 Q132.015 746.442 135.07 751.048 Q138.149 755.632 138.149 764.382 Q138.149 773.108 135.07 777.715 Q132.015 782.298 126.205 782.298 Q120.394 782.298 117.316 777.715 Q114.26 773.108 114.26 764.382 Q114.26 755.632 117.316 751.048 Q120.394 746.442 126.205 746.442 Z" fill="#000000" fill-rule="nonzero" fill-opacity="1" /><path clip-path="url(#clip820)" d="M146.366 775.747 L151.251 775.747 L151.251 781.627 L146.366 781.627 L146.366 775.747 Z" fill="#000000" fill-rule="nonzero" fill-opacity="1" /><path clip-path="url(#clip820)" d="M174.283 751.141 L162.477 769.59 L174.283 769.59 L174.283 751.141 M173.056 747.067 L178.936 747.067 L178.936 769.59 L183.866 769.59 L183.866 773.479 L178.936 773.479 L178.936 781.627 L174.283 781.627 L174.283 773.479 L158.681 773.479 L158.681 768.965 L173.056 747.067 Z" fill="#000000" fill-rule="nonzero" fill-opacity="1" /><path clip-path="url(#clip820)" d="M126.529 440.2 Q122.918 440.2 121.089 443.765 Q119.283 447.306 119.283 454.436 Q119.283 461.542 121.089 465.107 Q122.918 468.649 126.529 468.649 Q130.163 468.649 131.968 465.107 Q133.797 461.542 133.797 454.436 Q133.797 447.306 131.968 443.765 Q130.163 440.2 126.529 440.2 M126.529 436.496 Q132.339 436.496 135.394 441.103 Q138.473 445.686 138.473 454.436 Q138.473 463.163 135.394 467.769 Q132.339 472.352 126.529 472.352 Q120.718 472.352 117.64 467.769 Q114.584 463.163 114.584 454.436 Q114.584 445.686 117.64 441.103 Q120.718 436.496 126.529 436.496 Z" fill="#000000" fill-rule="nonzero" fill-opacity="1" /><path clip-path="url(#clip820)" d="M146.691 465.802 L151.575 465.802 L151.575 471.681 L146.691 471.681 L146.691 465.802 Z" fill="#000000" fill-rule="nonzero" fill-opacity="1" /><path clip-path="url(#clip820)" d="M172.339 452.538 Q169.19 452.538 167.339 454.691 Q165.51 456.843 165.51 460.593 Q165.51 464.32 167.339 466.496 Q169.19 468.649 172.339 468.649 Q175.487 468.649 177.315 466.496 Q179.167 464.32 179.167 460.593 Q179.167 456.843 177.315 454.691 Q175.487 452.538 172.339 452.538 M181.621 437.885 L181.621 442.144 Q179.862 441.311 178.056 440.871 Q176.274 440.431 174.514 440.431 Q169.885 440.431 167.431 443.556 Q165.001 446.681 164.653 453.001 Q166.019 450.987 168.079 449.922 Q170.139 448.834 172.616 448.834 Q177.825 448.834 180.834 452.005 Q183.866 455.153 183.866 460.593 Q183.866 465.917 180.718 469.135 Q177.57 472.352 172.339 472.352 Q166.343 472.352 163.172 467.769 Q160.001 463.163 160.001 454.436 Q160.001 446.241 163.89 441.38 Q167.778 436.496 174.329 436.496 Q176.089 436.496 177.871 436.843 Q179.676 437.191 181.621 437.885 Z" fill="#000000" fill-rule="nonzero" fill-opacity="1" /><path clip-path="url(#clip820)" d="M126.783 130.254 Q123.172 130.254 121.343 133.819 Q119.538 137.361 119.538 144.49 Q119.538 151.597 121.343 155.161 Q123.172 158.703 126.783 158.703 Q130.417 158.703 132.223 155.161 Q134.052 151.597 134.052 144.49 Q134.052 137.361 132.223 133.819 Q130.417 130.254 126.783 130.254 M126.783 126.55 Q132.593 126.55 135.649 131.157 Q138.728 135.74 138.728 144.49 Q138.728 153.217 135.649 157.823 Q132.593 162.407 126.783 162.407 Q120.973 162.407 117.894 157.823 Q114.839 153.217 114.839 144.49 Q114.839 135.74 117.894 131.157 Q120.973 126.55 126.783 126.55 Z" fill="#000000" fill-rule="nonzero" fill-opacity="1" /><path clip-path="url(#clip820)" d="M146.945 155.856 L151.829 155.856 L151.829 161.735 L146.945 161.735 L146.945 155.856 Z" fill="#000000" fill-rule="nonzero" fill-opacity="1" /><path clip-path="url(#clip820)" d="M172.014 145.324 Q168.681 145.324 166.76 147.106 Q164.862 148.888 164.862 152.013 Q164.862 155.138 166.76 156.921 Q168.681 158.703 172.014 158.703 Q175.348 158.703 177.269 156.921 Q179.19 155.115 179.19 152.013 Q179.19 148.888 177.269 147.106 Q175.371 145.324 172.014 145.324 M167.339 143.333 Q164.329 142.592 162.64 140.532 Q160.973 138.472 160.973 135.509 Q160.973 131.365 163.913 128.958 Q166.876 126.55 172.014 126.55 Q177.176 126.55 180.116 128.958 Q183.056 131.365 183.056 135.509 Q183.056 138.472 181.366 140.532 Q179.7 142.592 176.714 143.333 Q180.093 144.12 181.968 146.411 Q183.866 148.703 183.866 152.013 Q183.866 157.036 180.788 159.722 Q177.732 162.407 172.014 162.407 Q166.297 162.407 163.218 159.722 Q160.163 157.036 160.163 152.013 Q160.163 148.703 162.061 146.411 Q163.959 144.12 167.339 143.333 M165.626 135.949 Q165.626 138.634 167.292 140.138 Q168.982 141.643 172.014 141.643 Q175.024 141.643 176.714 140.138 Q178.426 138.634 178.426 135.949 Q178.426 133.263 176.714 131.759 Q175.024 130.254 172.014 130.254 Q168.982 130.254 167.292 131.759 Q165.626 133.263 165.626 135.949 Z" fill="#000000" fill-rule="nonzero" fill-opacity="1" /><path clip-path="url(#clip820)" d="M21.7677 907.197 L39.6235 907.197 L39.6235 899.113 Q39.6235 894.625 37.3 892.174 Q34.9765 889.724 30.6797 889.724 Q26.4147 889.724 24.0912 892.174 Q21.7677 894.625 21.7677 899.113 L21.7677 907.197 M16.4842 913.627 L16.4842 899.113 Q16.4842 891.124 20.1126 887.05 Q23.7092 882.944 30.6797 882.944 Q37.7138 882.944 41.3104 887.05 Q44.907 891.124 44.907 899.113 L44.907 907.197 L64.0042 907.197 L64.0042 913.627 L16.4842 913.627 Z" fill="#000000" fill-rule="nonzero" fill-opacity="1" /><path clip-path="url(#clip820)" d="M44.7161 846.405 L47.5806 846.405 L47.5806 873.332 Q53.6281 872.95 56.8109 869.703 Q59.9619 866.425 59.9619 860.6 Q59.9619 857.227 59.1344 854.076 Q58.3069 850.893 56.6518 847.774 L62.1899 847.774 Q63.5267 850.925 64.227 854.235 Q64.9272 857.545 64.9272 860.951 Q64.9272 869.481 59.9619 874.478 Q54.9967 879.443 46.5303 879.443 Q37.7774 879.443 32.6531 874.732 Q27.4968 869.99 27.4968 861.969 Q27.4968 854.776 32.1438 850.606 Q36.7589 846.405 44.7161 846.405 M42.9973 852.261 Q38.1912 852.325 35.3266 854.967 Q32.4621 857.577 32.4621 861.905 Q32.4621 866.807 35.2312 869.767 Q38.0002 872.695 43.0292 873.141 L42.9973 852.261 Z" fill="#000000" fill-rule="nonzero" fill-opacity="1" /><path clip-path="url(#clip820)" d="M33.8307 816.136 Q33.2578 817.123 33.0032 818.3 Q32.7167 819.446 32.7167 820.847 Q32.7167 825.812 35.9632 828.485 Q39.1779 831.127 45.2253 831.127 L64.0042 831.127 L64.0042 837.016 L28.3562 837.016 L28.3562 831.127 L33.8944 831.127 Q30.6479 829.281 29.0883 826.321 Q27.4968 823.361 27.4968 819.128 Q27.4968 818.523 27.5923 817.791 Q27.656 817.059 27.8151 816.168 L33.8307 816.136 Z" fill="#000000" fill-rule="nonzero" fill-opacity="1" /><path clip-path="url(#clip820)" d="M29.7248 785.772 L35.1993 785.772 Q33.8307 788.254 33.1623 790.769 Q32.4621 793.251 32.4621 795.798 Q32.4621 801.495 36.0905 804.646 Q39.6872 807.797 46.212 807.797 Q52.7369 807.797 56.3653 804.646 Q59.9619 801.495 59.9619 795.798 Q59.9619 793.251 59.2935 790.769 Q58.5933 788.254 57.2247 785.772 L62.6355 785.772 Q63.7814 788.222 64.3543 790.864 Q64.9272 793.474 64.9272 796.434 Q64.9272 804.487 59.8664 809.229 Q54.8057 813.972 46.212 813.972 Q37.491 813.972 32.4939 809.197 Q27.4968 804.391 27.4968 796.052 Q27.4968 793.347 28.0697 790.769 Q28.6108 788.191 29.7248 785.772 Z" fill="#000000" fill-rule="nonzero" fill-opacity="1" /><path clip-path="url(#clip820)" d="M44.7161 745.095 L47.5806 745.095 L47.5806 772.022 Q53.6281 771.64 56.8109 768.393 Q59.9619 765.115 59.9619 759.29 Q59.9619 755.916 59.1344 752.765 Q58.3069 749.583 56.6518 746.463 L62.1899 746.463 Q63.5267 749.614 64.227 752.925 Q64.9272 756.235 64.9272 759.64 Q64.9272 768.17 59.9619 773.167 Q54.9967 778.133 46.5303 778.133 Q37.7774 778.133 32.6531 773.422 Q27.4968 768.68 27.4968 760.659 Q27.4968 753.466 32.1438 749.296 Q36.7589 745.095 44.7161 745.095 M42.9973 750.951 Q38.1912 751.015 35.3266 753.657 Q32.4621 756.267 32.4621 760.595 Q32.4621 765.497 35.2312 768.457 Q38.0002 771.385 43.0292 771.831 L42.9973 750.951 Z" fill="#000000" fill-rule="nonzero" fill-opacity="1" /><path clip-path="url(#clip820)" d="M42.4881 705.85 L64.0042 705.85 L64.0042 711.707 L42.679 711.707 Q37.6183 711.707 35.1038 713.68 Q32.5894 715.653 32.5894 719.6 Q32.5894 724.343 35.6131 727.08 Q38.6368 729.817 43.8567 729.817 L64.0042 729.817 L64.0042 735.705 L28.3562 735.705 L28.3562 729.817 L33.8944 729.817 Q30.6797 727.716 29.0883 724.884 Q27.4968 722.019 27.4968 718.295 Q27.4968 712.152 31.3163 709.001 Q35.1038 705.85 42.4881 705.85 Z" fill="#000000" fill-rule="nonzero" fill-opacity="1" /><path clip-path="url(#clip820)" d="M18.2347 688.376 L28.3562 688.376 L28.3562 676.313 L32.9077 676.313 L32.9077 688.376 L52.2594 688.376 Q56.6199 688.376 57.8613 687.199 Q59.1026 685.989 59.1026 682.329 L59.1026 676.313 L64.0042 676.313 L64.0042 682.329 Q64.0042 689.108 61.4897 691.686 Q58.9434 694.265 52.2594 694.265 L32.9077 694.265 L32.9077 698.561 L28.3562 698.561 L28.3562 694.265 L18.2347 694.265 L18.2347 688.376 Z" fill="#000000" fill-rule="nonzero" fill-opacity="1" /><path clip-path="url(#clip820)" d="M46.0847 652.41 Q46.0847 659.508 47.7079 662.245 Q49.3312 664.982 53.2461 664.982 Q56.3653 664.982 58.2114 662.945 Q60.0256 660.876 60.0256 657.343 Q60.0256 652.474 56.5881 649.545 Q53.1188 646.585 47.3897 646.585 L46.0847 646.585 L46.0847 652.41 M43.6657 640.729 L64.0042 640.729 L64.0042 646.585 L58.5933 646.585 Q61.8398 648.591 63.3994 651.582 Q64.9272 654.574 64.9272 658.903 Q64.9272 664.378 61.8716 667.624 Q58.7843 670.839 53.6281 670.839 Q47.6125 670.839 44.5569 666.828 Q41.5014 662.786 41.5014 654.797 L41.5014 646.585 L40.9285 646.585 Q36.8862 646.585 34.6901 649.259 Q32.4621 651.901 32.4621 656.707 Q32.4621 659.762 33.1941 662.659 Q33.9262 665.555 35.3903 668.229 L29.9795 668.229 Q28.7381 665.014 28.1334 661.99 Q27.4968 658.967 27.4968 656.102 Q27.4968 648.368 31.5072 644.548 Q35.5176 640.729 43.6657 640.729 Z" fill="#000000" fill-rule="nonzero" fill-opacity="1" /><path clip-path="url(#clip820)" d="M45.7664 605.208 Q39.4007 605.208 35.8996 607.85 Q32.3984 610.46 32.3984 615.202 Q32.3984 619.913 35.8996 622.555 Q39.4007 625.165 45.7664 625.165 Q52.1003 625.165 55.6014 622.555 Q59.1026 619.913 59.1026 615.202 Q59.1026 610.46 55.6014 607.85 Q52.1003 605.208 45.7664 605.208 M59.58 599.352 Q68.683 599.352 73.1071 603.394 Q77.5631 607.436 77.5631 615.775 Q77.5631 618.863 77.0857 621.6 Q76.6401 624.337 75.6852 626.915 L69.9879 626.915 Q71.3884 624.337 72.0568 621.823 Q72.7252 619.308 72.7252 616.698 Q72.7252 610.937 69.7015 608.073 Q66.7096 605.208 60.6303 605.208 L57.7339 605.208 Q60.885 607.023 62.4446 609.855 Q64.0042 612.688 64.0042 616.635 Q64.0042 623.191 59.0071 627.202 Q54.01 631.212 45.7664 631.212 Q37.491 631.212 32.4939 627.202 Q27.4968 623.191 27.4968 616.635 Q27.4968 612.688 29.0564 609.855 Q30.616 607.023 33.7671 605.208 L28.3562 605.208 L28.3562 599.352 L59.58 599.352 Z" fill="#000000" fill-rule="nonzero" fill-opacity="1" /><path clip-path="url(#clip820)" d="M44.7161 556.797 L47.5806 556.797 L47.5806 583.724 Q53.6281 583.342 56.8109 580.096 Q59.9619 576.817 59.9619 570.993 Q59.9619 567.619 59.1344 564.468 Q58.3069 561.285 56.6518 558.166 L62.1899 558.166 Q63.5267 561.317 64.227 564.627 Q64.9272 567.937 64.9272 571.343 Q64.9272 579.873 59.9619 584.87 Q54.9967 589.835 46.5303 589.835 Q37.7774 589.835 32.6531 585.125 Q27.4968 580.382 27.4968 572.361 Q27.4968 565.168 32.1438 560.998 Q36.7589 556.797 44.7161 556.797 M42.9973 562.654 Q38.1912 562.717 35.3266 565.359 Q32.4621 567.969 32.4621 572.298 Q32.4621 577.199 35.2312 580.159 Q38.0002 583.087 43.0292 583.533 L42.9973 562.654 Z" fill="#000000" fill-rule="nonzero" fill-opacity="1" /><polyline clip-path="url(#clip822)" style="stroke:#009af9; stroke-linecap:round; stroke-linejoin:round; stroke-width:4; stroke-opacity:1; fill:none" points="280.231,1384.24 282.245,612.318 284.259,605.81 286.274,410.234 288.288,326.549 290.302,274.478 292.316,224.886 294.33,184.593 296.344,153.444 298.359,127.253 300.373,108.967 302.387,93.7793 304.401,97.9636 306.415,99.6683 308.43,97.8086 310.444,90.8349 312.458,89.1302 314.472,90.9898 316.486,86.1857 318.5,89.2851 320.515,99.8233 322.529,101.373 324.543,108.037 326.557,112.531 328.571,121.984 330.585,134.692 332.6,147.245 334.614,154.529 336.628,158.403 338.642,165.067 340.656,175.605 342.67,185.833 344.685,194.047 346.699,197.921 348.713,204.585 350.727,216.673 352.741,221.322 354.756,227.831 356.77,236.509 358.784,241.933 360.798,252.781 362.812,260.22 364.826,268.124 366.841,277.267 368.855,284.861 370.869,294.934 372.883,303.613 374.897,308.417 376.911,318.025 378.926,327.788 380.94,333.677 382.954,342.821 384.968,348.865 386.982,355.064 388.996,365.447 391.011,370.871 393.025,379.239 395.039,384.198 397.053,391.017 399.067,397.836 401.082,402.175 403.096,403.57 405.11,407.599 407.124,412.249 409.138,417.673 411.152,423.097 413.167,425.266 415.181,426.661 417.195,430.38 419.209,434.41 421.223,438.904 423.237,442.933 425.252,445.568 427.266,450.217 429.28,453.471 431.294,457.191 433.308,460.755 435.322,465.714 437.337,470.983 439.351,472.223 441.365,477.647 443.379,481.986 445.393,485.706 447.408,488.65 449.422,491.285 451.436,496.089 453.45,499.498 455.464,503.992 457.478,506.472 459.493,509.571 461.507,511.896 463.521,516.08 465.535,520.265 467.549,524.914 469.563,527.703 471.578,529.873 473.592,534.057 475.606,539.791 477.62,542.116 479.634,547.54 481.648,548.935 483.663,554.204 485.677,556.218 487.691,558.698 489.705,563.812 491.719,565.982 493.734,568.461 495.748,571.716 497.762,574.97 499.776,577.14 501.79,580.084 503.804,583.184 505.819,587.058 507.833,588.763 509.847,591.397 511.861,595.581 513.875,596.976 515.889,600.851 517.904,604.57 519.918,605.5 521.932,610.149 523.946,612.473 525.96,614.798 527.974,617.588 529.989,619.602 532.003,625.026 534.017,625.801 536.031,627.661 538.045,631.38 540.06,635.719 542.074,638.044 544.088,640.834 546.102,642.228 548.116,645.018 550.13,647.187 552.145,649.512 554.159,653.386 556.173,655.556 558.187,658.345 560.201,660.98 562.215,664.079 564.23,665.784 566.244,668.729 568.258,671.983 570.272,673.843 572.286,677.407 574.301,681.126 576.315,684.071 578.329,686.086 580.343,687.945 582.357,691.355 584.371,694.454 586.386,697.089 588.4,700.033 590.414,702.668 592.428,705.457 594.442,708.092 596.456,710.726 598.471,712.431 600.485,714.601 602.499,717.39 604.513,720.49 606.527,722.349 608.541,724.364 610.556,727.618 612.57,731.648 614.584,735.522 616.598,739.551 618.612,742.031 620.627,744.51 622.641,745.75 624.655,748.23 626.669,750.709 628.683,754.584 630.697,756.908 632.712,758.923 634.726,761.402 636.74,764.657 638.754,768.841 640.768,771.631 642.782,774.575 644.797,776.435 646.811,779.224 648.825,781.704 650.839,783.718 652.853,785.578 654.867,788.833 656.882,791.002 658.896,792.707 660.91,795.961 662.924,798.906 664.938,800.611 666.953,803.555 668.967,804.795 670.981,808.049 672.995,810.219 675.009,812.388 677.023,814.713 679.038,817.503 681.052,819.672 683.066,822.307 685.08,824.786 687.094,826.646 689.108,828.506 691.123,830.21 693.137,832.38 695.151,833.62 697.165,835.479 699.179,837.959 701.193,840.129 703.208,841.988 705.222,844.468 707.236,846.018 709.25,848.342 711.264,851.132 713.279,853.766 715.293,855.006 717.307,857.331 719.321,859.5 721.335,861.205 723.349,862.755 725.364,863.994 727.378,865.544 729.392,868.954 731.406,872.208 733.42,873.603 735.434,875.617 737.449,877.632 739.463,880.112 741.477,881.816 743.491,883.986 745.505,885.846 747.519,887.085 749.534,889.1 751.548,891.58 753.562,892.664 755.576,894.679 757.59,895.919 759.605,898.088 761.619,900.258 763.633,901.808 765.647,902.583 767.661,903.512 769.675,905.992 771.69,908.472 773.704,909.556 775.718,910.486 777.732,911.726 779.746,913.121 781.76,914.671 783.775,916.065 785.789,917.15 787.803,918.235 789.817,919.01 791.831,920.405 793.845,921.024 795.86,921.644 797.874,922.109 799.888,922.264 801.902,923.039 803.916,923.349 805.931,924.124 807.945,924.279 809.959,925.054 811.973,925.364 813.987,926.139 816.001,926.758 818.016,926.913 820.03,926.913 822.044,927.068 824.058,927.223 826.072,927.688 828.086,927.998 830.101,927.998 832.115,928.308 834.129,928.308 836.143,928.308 838.157,928.308 840.171,928.308 842.186,928.308 844.2,928.463 846.214,928.463 848.228,928.463 850.242,928.618 852.257,928.928 854.271,929.083 856.285,929.083 858.299,929.238 860.313,929.393 862.327,929.548 864.342,929.548 866.356,929.548 868.37,929.548 870.384,929.548 872.398,929.548 874.412,929.703 876.427,930.168 878.441,930.478 880.455,930.788 882.469,930.943 884.483,930.943 886.498,931.408 888.512,931.563 890.526,931.873 892.54,932.337 894.554,932.337 896.568,932.492 898.583,932.492 900.597,932.802 902.611,932.957 904.625,933.422 906.639,933.732 908.653,934.972 910.668,935.902 912.682,936.212 914.696,936.677 916.71,937.452 918.724,938.071 920.738,939.311 922.753,939.931 924.767,940.086 926.781,940.241 928.795,940.551 930.809,941.326 932.824,941.636 934.838,942.256 936.852,942.876 938.866,943.805 940.88,944.27 942.894,944.27 944.909,944.27 946.923,944.89 948.937,945.355 950.951,946.595 952.965,947.215 954.979,947.68 956.994,948.455 959.008,949.694 961.022,950.779 963.036,951.244 965.05,952.174 967.064,952.949 969.079,954.034 971.093,954.034 973.107,955.583 975.121,956.668 977.135,957.133 979.15,957.443 981.164,958.218 983.178,958.683 985.192,959.148 987.206,960.233 989.22,961.317 991.235,962.402 993.249,963.177 995.263,963.487 997.277,963.797 999.291,964.262 1001.31,964.417 1003.32,965.502 1005.33,965.967 1007.35,966.586 1009.36,967.206 1011.38,967.516 1013.39,968.446 1015.4,969.066 1017.42,969.686 1019.43,970.616 1021.45,971.081 1023.46,972.165 1025.48,972.94 1027.49,973.715 1029.5,974.335 1031.52,975.42 1033.53,975.885 1035.55,977.125 1037.56,977.59 1039.57,978.674 1041.59,978.984 1043.6,979.449 1045.62,979.449 1047.63,980.689 1049.65,981.619 1051.66,982.704 1053.67,983.324 1055.69,983.943 1057.7,983.943 1059.72,984.718 1061.73,985.183 1063.74,985.803 1065.76,986.578 1067.77,987.973 1069.79,988.283 1071.8,988.593 1073.82,989.367 1075.83,990.297 1077.84,990.607 1079.86,991.072 1081.87,992.157 1083.89,992.777 1085.9,993.397 1087.91,993.707 1089.93,994.172 1091.94,994.946 1093.96,995.876 1095.97,996.496 1097.99,997.426 1100,998.046 1102.01,998.666 1104.03,999.441 1106.04,999.906 1108.06,1000.53 1110.07,1001.3 1112.09,1002.08 1114.1,1002.7 1116.11,1003.31 1118.13,1004.09 1120.14,1004.86 1122.16,1005.33 1124.17,1005.79 1126.18,1006.88 1128.2,1007.19 1130.21,1007.65 1132.23,1008.27 1134.24,1009.05 1136.26,1009.67 1138.27,1009.82 1140.28,1010.44 1142.3,1010.91 1144.31,1011.68 1146.33,1012.61 1148.34,1013.54 1150.35,1013.85 1152.37,1014.01 1154.38,1014.32 1156.4,1014.78 1158.41,1014.94 1160.43,1016.02 1162.44,1016.18 1164.45,1016.18 1166.47,1016.33 1168.48,1016.64 1170.5,1017.57 1172.51,1018.66 1174.52,1019.12 1176.54,1019.9 1178.55,1020.52 1180.57,1020.52 1182.58,1020.83 1184.6,1021.45 1186.61,1022.38 1188.62,1022.53 1190.64,1022.84 1192.65,1023.46 1194.67,1024.08 1196.68,1024.39 1198.69,1025.01 1200.71,1025.63 1202.72,1026.1 1204.74,1026.56 1206.75,1026.87 1208.77,1027.18 1210.78,1027.65 1212.79,1028.27 1214.81,1028.58 1216.82,1028.89 1218.84,1029.04 1220.85,1029.35 1222.86,1029.66 1224.88,1029.97 1226.89,1030.59 1228.91,1030.9 1230.92,1031.37 1232.94,1031.98 1234.95,1032.76 1236.96,1033.22 1238.98,1033.69 1240.99,1034.31 1243.01,1034.77 1245.02,1035.39 1247.03,1035.7 1249.05,1036.01 1251.06,1036.48 1253.08,1036.94 1255.09,1037.87 1257.11,1038.65 1259.12,1039.42 1261.13,1039.42 1263.15,1040.2 1265.16,1041.44 1267.18,1042.06 1269.19,1042.21 1271.2,1042.99 1273.22,1043.45 1275.23,1043.45 1277.25,1043.45 1279.26,1043.45 1281.28,1043.61 1283.29,1043.61 1285.3,1043.92 1287.32,1044.07 1289.33,1044.38 1291.35,1044.69 1293.36,1045.16 1295.37,1045.31 1297.39,1045.31 1299.4,1045.62 1301.42,1046.24 1303.43,1046.4 1305.45,1046.4 1307.46,1047.02 1309.47,1047.48 1311.49,1047.48 1313.5,1047.48 1315.52,1047.64 1317.53,1047.79 1319.54,1047.79 1321.56,1048.1 1323.57,1048.26 1325.59,1048.57 1327.6,1048.57 1329.62,1048.88 1331.63,1049.19 1333.64,1049.19 1335.66,1049.5 1337.67,1049.65 1339.69,1049.65 1341.7,1049.65 1343.72,1049.65 1345.73,1050.12 1347.74,1050.12 1349.76,1050.27 1351.77,1050.27 1353.79,1050.27 1355.8,1050.27 1357.81,1050.27 1359.83,1050.27 1361.84,1050.27 1363.86,1050.27 1365.87,1050.43 1367.89,1050.43 1369.9,1050.43 1371.91,1050.58 1373.93,1050.58 1375.94,1050.58 1377.96,1050.58 1379.97,1050.58 1381.98,1050.58 1384,1050.58 1386.01,1050.58 1388.03,1050.58 1390.04,1050.58 1392.06,1050.58 1394.07,1050.58 1396.08,1050.58 1398.1,1050.58 1400.11,1050.58 1402.13,1050.58 1404.14,1050.58 1406.15,1050.58 1408.17,1050.58 1410.18,1050.58 1412.2,1050.58 1414.21,1050.58 1416.23,1050.58 1418.24,1050.58 1420.25,1050.58 1422.27,1050.58 1424.28,1050.58 1426.3,1050.58 1428.31,1050.58 1430.32,1050.58 1432.34,1050.58 1434.35,1050.58 1436.37,1050.58 1438.38,1050.58 1440.4,1050.58 1442.41,1050.58 1444.42,1050.58 1446.44,1050.58 1448.45,1050.58 1450.47,1050.58 1452.48,1050.58 1454.49,1050.58 1456.51,1050.58 1458.52,1050.58 1460.54,1050.58 1462.55,1050.58 1464.57,1050.58 1466.58,1050.58 1468.59,1050.58 1470.61,1050.58 1472.62,1050.58 1474.64,1050.58 1476.65,1050.58 1478.66,1050.58 1480.68,1050.58 1482.69,1050.58 1484.71,1050.58 1486.72,1050.58 1488.74,1050.58 1490.75,1050.58 1492.76,1050.58 1494.78,1050.58 1496.79,1050.58 1498.81,1050.58 1500.82,1050.58 1502.83,1050.58 1504.85,1050.58 1506.86,1050.58 1508.88,1050.58 1510.89,1050.58 1512.91,1050.58 1514.92,1050.58 1516.93,1050.58 1518.95,1050.58 1520.96,1050.58 1522.98,1050.58 1524.99,1050.58 1527,1050.58 1529.02,1050.58 1531.03,1050.58 1533.05,1050.58 1535.06,1050.58 1537.08,1050.58 1539.09,1050.58 1541.1,1050.58 1543.12,1050.58 1545.13,1050.58 1547.15,1050.58 1549.16,1050.58 1551.17,1050.58 1553.19,1050.58 1555.2,1050.58 1557.22,1050.58 1559.23,1050.58 1561.25,1050.58 1563.26,1050.58 1565.27,1050.58 1567.29,1050.58 1569.3,1050.58 1571.32,1050.58 1573.33,1050.58 1575.35,1050.58 1577.36,1050.58 1579.37,1050.58 1581.39,1050.58 1583.4,1050.58 1585.42,1050.58 1587.43,1050.58 1589.44,1050.58 1591.46,1050.58 1593.47,1050.58 1595.49,1050.58 1597.5,1050.58 1599.52,1050.58 1601.53,1050.58 1603.54,1050.58 1605.56,1050.58 1607.57,1050.58 1609.59,1050.58 1611.6,1050.58 1613.61,1050.58 1615.63,1050.58 1617.64,1050.58 1619.66,1050.58 1621.67,1050.58 1623.69,1050.58 1625.7,1050.58 1627.71,1050.58 1629.73,1050.58 1631.74,1050.58 1633.76,1050.58 1635.77,1050.58 1637.78,1050.58 1639.8,1050.58 1641.81,1050.58 1643.83,1050.58 1645.84,1050.58 1647.86,1050.58 1649.87,1050.58 1651.88,1050.58 1653.9,1050.58 1655.91,1050.58 1657.93,1050.58 1659.94,1050.58 1661.95,1050.58 1663.97,1050.58 1665.98,1050.58 1668,1050.58 1670.01,1050.58 1672.03,1050.58 1674.04,1050.58 1676.05,1050.58 1678.07,1050.58 1680.08,1050.58 1682.1,1050.58 1684.11,1050.58 1686.12,1050.58 1688.14,1050.58 1690.15,1050.58 1692.17,1050.58 1694.18,1050.58 1696.2,1050.58 1698.21,1050.58 1700.22,1050.58 1702.24,1050.58 1704.25,1050.58 1706.27,1050.58 1708.28,1050.58 1710.29,1050.58 1712.31,1050.58 1714.32,1050.58 1716.34,1050.58 1718.35,1050.58 1720.37,1050.58 1722.38,1050.58 1724.39,1050.58 1726.41,1050.58 1728.42,1050.58 1730.44,1050.58 1732.45,1050.58 1734.46,1050.58 1736.48,1050.58 1738.49,1050.58 1740.51,1050.58 1742.52,1050.58 1744.54,1050.58 1746.55,1050.58 1748.56,1050.58 1750.58,1050.58 1752.59,1050.58 1754.61,1050.58 1756.62,1050.58 1758.63,1050.58 1760.65,1050.58 1762.66,1050.58 1764.68,1050.58 1766.69,1050.58 1768.71,1050.58 1770.72,1050.58 1772.73,1050.58 1774.75,1050.58 1776.76,1050.58 1778.78,1050.58 1780.79,1050.58 1782.81,1050.58 1784.82,1050.58 1786.83,1050.58 1788.85,1050.58 1790.86,1050.58 1792.88,1050.58 1794.89,1050.58 1796.9,1050.58 1798.92,1050.58 1800.93,1050.58 1802.95,1050.58 1804.96,1050.58 1806.98,1050.58 1808.99,1050.58 1811,1050.58 1813.02,1050.58 1815.03,1050.58 1817.05,1050.58 1819.06,1050.58 1821.07,1050.58 1823.09,1050.58 1825.1,1050.74 1827.12,1050.74 1829.13,1050.74 1831.15,1050.74 1833.16,1050.89 1835.17,1050.89 1837.19,1050.89 1839.2,1050.89 1841.22,1050.89 1843.23,1050.89 1845.24,1050.89 1847.26,1050.89 1849.27,1050.89 1851.29,1050.89 1853.3,1050.89 1855.32,1050.89 1857.33,1050.89 1859.34,1050.89 1861.36,1050.89 1863.37,1050.89 1865.39,1050.89 1867.4,1050.89 1869.41,1051.05 1871.43,1051.05 1873.44,1051.2 1875.46,1051.2 1877.47,1051.2 1879.49,1051.2 1881.5,1051.36 1883.51,1051.67 1885.53,1051.67 1887.54,1051.67 1889.56,1051.67 1891.57,1051.67 1893.58,1051.67 1895.6,1051.67 1897.61,1051.67 1899.63,1051.67 1901.64,1051.67 1903.66,1051.67 1905.67,1051.82 1907.68,1051.82 1909.7,1051.82 1911.71,1051.82 1913.73,1051.98 1915.74,1052.13 1917.75,1052.29 1919.77,1052.44 1921.78,1052.44 1923.8,1052.44 1925.81,1052.44 1927.83,1052.44 1929.84,1052.44 1931.85,1052.44 1933.87,1052.44 1935.88,1052.44 1937.9,1052.44 1939.91,1052.44 1941.92,1052.44 1943.94,1052.44 1945.95,1052.44 1947.97,1052.44 1949.98,1052.6 1952,1052.6 1954.01,1052.75 1956.02,1052.75 1958.04,1052.75 1960.05,1052.91 1962.07,1052.91 1964.08,1052.91 1966.09,1052.91 1968.11,1053.37 1970.12,1053.37 1972.14,1053.53 1974.15,1053.84 1976.17,1053.99 1978.18,1054.15 1980.19,1054.15 1982.21,1054.3 1984.22,1054.77 1986.24,1054.92 1988.25,1054.92 1990.26,1054.92 1992.28,1054.92 1994.29,1054.92 1996.31,1055.08 1998.32,1055.08 2000.34,1055.23 2002.35,1055.39 2004.36,1055.39 2006.38,1055.39 2008.39,1055.39 2010.41,1055.39 2012.42,1055.39 2014.44,1055.39 2016.45,1055.54 2018.46,1055.54 2020.48,1055.7 2022.49,1055.7 2024.51,1055.85 2026.52,1055.85 2028.53,1056.47 2030.55,1056.63 2032.56,1056.78 2034.58,1057.09 2036.59,1057.25 2038.61,1057.4 2040.62,1057.56 2042.63,1057.56 2044.65,1057.56 2046.66,1057.56 2048.68,1057.56 2050.69,1057.71 2052.7,1058.02 2054.72,1058.02 2056.73,1058.18 2058.75,1058.18 2060.76,1058.18 2062.78,1058.18 2064.79,1058.18 2066.8,1058.33 2068.82,1058.33 2070.83,1058.33 2072.85,1058.64 2074.86,1058.8 2076.87,1058.95 2078.89,1059.11 2080.9,1059.11 2082.92,1059.11 2084.93,1059.11 2086.95,1059.11 2088.96,1059.26 2090.97,1059.57 2092.99,1059.57 2095,1059.73 2097.02,1059.73 2099.03,1059.73 2101.04,1060.04 2103.06,1060.04 2105.07,1060.19 2107.09,1060.19 2109.1,1060.35 2111.12,1060.5 2113.13,1060.5 2115.14,1060.5 2117.16,1060.65 2119.17,1060.81 2121.19,1060.96 2123.2,1060.96 2125.21,1061.12 2127.23,1061.27 2129.24,1061.27 2131.26,1061.27 2133.27,1061.27 2135.29,1061.27 2137.3,1061.27 2139.31,1061.58 2141.33,1061.58 2143.34,1062.05 2145.36,1062.2 2147.37,1062.2 2149.38,1062.2 2151.4,1062.2 2153.41,1062.36 2155.43,1062.51 2157.44,1062.51 2159.46,1062.51 2161.47,1062.67 2163.48,1062.82 2165.5,1062.98 2167.51,1063.29 2169.53,1063.44 2171.54,1063.44 2173.55,1063.44 2175.57,1063.44 2177.58,1063.75 2179.6,1063.75 2181.61,1063.75 2183.63,1063.91 2185.64,1064.06 2187.65,1064.06 2189.67,1064.22 2191.68,1064.37 2193.7,1064.37 2195.71,1064.37 2197.72,1064.37 2199.74,1064.53 2201.75,1064.53 2203.77,1064.68 2205.78,1064.68 2207.8,1064.84 2209.81,1064.99 2211.82,1065.15 2213.84,1065.3 2215.85,1065.61 2217.87,1065.92 2219.88,1066.23 2221.9,1066.23 2223.91,1066.39 2225.92,1066.39 2227.94,1066.39 2229.95,1066.39 2231.97,1066.39 2233.98,1066.39 2235.99,1066.54 2238.01,1066.54 2240.02,1066.54 2242.04,1066.54 2244.05,1066.7 2246.07,1066.85 2248.08,1067.16 2250.09,1067.16 2252.11,1067.78 2254.12,1067.78 2256.14,1067.78 2258.15,1067.78 2260.16,1067.78 2262.18,1068.09 2264.19,1068.09 2266.21,1068.25 2268.22,1068.25 2270.24,1068.25 2272.25,1068.25 2274.26,1068.25 2276.28,1068.25 2278.29,1068.25 2280.31,1068.4 2282.32,1068.4 2284.33,1068.4 2286.35,1068.4 2288.36,1068.71 2290.38,1068.87 2292.39,1069.02 "/>
<path clip-path="url(#clip820)" d="M789.165 196.789 L2281.66 196.789 L2281.66 93.1086 L789.165 93.1086  Z" fill="#ffffff" fill-rule="evenodd" fill-opacity="1"/>
<polyline clip-path="url(#clip820)" style="stroke:#000000; stroke-linecap:round; stroke-linejoin:round; stroke-width:4; stroke-opacity:1; fill:none" points="789.165,196.789 2281.66,196.789 2281.66,93.1086 789.165,93.1086 789.165,196.789 "/>
<polyline clip-path="url(#clip820)" style="stroke:#009af9; stroke-linecap:round; stroke-linejoin:round; stroke-width:4; stroke-opacity:1; fill:none" points="812.863,144.949 955.056,144.949 "/>
<path clip-path="url(#clip820)" d="M983.431 131.511 L983.431 144.497 L989.31 144.497 Q992.574 144.497 994.356 142.807 Q996.139 141.118 996.139 137.993 Q996.139 134.891 994.356 133.201 Q992.574 131.511 989.31 131.511 L983.431 131.511 M978.755 127.669 L989.31 127.669 Q995.12 127.669 998.083 130.307 Q1001.07 132.923 1001.07 137.993 Q1001.07 143.108 998.083 145.724 Q995.12 148.34 989.31 148.34 L983.431 148.34 L983.431 162.229 L978.755 162.229 L978.755 127.669 Z" fill="#000000" fill-rule="nonzero" fill-opacity="1" /><path clip-path="url(#clip820)" d="M1027.64 148.201 L1027.64 150.284 L1008.06 150.284 Q1008.34 154.682 1010.7 156.997 Q1013.08 159.289 1017.32 159.289 Q1019.77 159.289 1022.06 158.687 Q1024.38 158.085 1026.65 156.881 L1026.65 160.909 Q1024.36 161.881 1021.95 162.391 Q1019.54 162.9 1017.06 162.9 Q1010.86 162.9 1007.23 159.289 Q1003.62 155.678 1003.62 149.52 Q1003.62 143.155 1007.04 139.428 Q1010.49 135.678 1016.32 135.678 Q1021.56 135.678 1024.59 139.057 Q1027.64 142.414 1027.64 148.201 M1023.38 146.951 Q1023.34 143.456 1021.42 141.372 Q1019.52 139.289 1016.37 139.289 Q1012.81 139.289 1010.65 141.303 Q1008.52 143.317 1008.2 146.974 L1023.38 146.951 Z" fill="#000000" fill-rule="nonzero" fill-opacity="1" /><path clip-path="url(#clip820)" d="M1049.66 140.284 Q1048.94 139.868 1048.08 139.682 Q1047.25 139.474 1046.23 139.474 Q1042.62 139.474 1040.68 141.835 Q1038.75 144.173 1038.75 148.571 L1038.75 162.229 L1034.47 162.229 L1034.47 136.303 L1038.75 136.303 L1038.75 140.331 Q1040.1 137.969 1042.25 136.835 Q1044.4 135.678 1047.48 135.678 Q1047.92 135.678 1048.45 135.747 Q1048.99 135.794 1049.63 135.909 L1049.66 140.284 Z" fill="#000000" fill-rule="nonzero" fill-opacity="1" /><path clip-path="url(#clip820)" d="M1071.74 137.298 L1071.74 141.28 Q1069.93 140.284 1068.11 139.798 Q1066.3 139.289 1064.45 139.289 Q1060.31 139.289 1058.01 141.928 Q1055.72 144.544 1055.72 149.289 Q1055.72 154.034 1058.01 156.673 Q1060.31 159.289 1064.45 159.289 Q1066.3 159.289 1068.11 158.803 Q1069.93 158.293 1071.74 157.298 L1071.74 161.233 Q1069.96 162.067 1068.04 162.483 Q1066.14 162.9 1063.99 162.9 Q1058.13 162.9 1054.68 159.219 Q1051.23 155.539 1051.23 149.289 Q1051.23 142.946 1054.7 139.312 Q1058.2 135.678 1064.26 135.678 Q1066.23 135.678 1068.11 136.095 Q1069.98 136.488 1071.74 137.298 Z" fill="#000000" fill-rule="nonzero" fill-opacity="1" /><path clip-path="url(#clip820)" d="M1101.32 148.201 L1101.32 150.284 L1081.74 150.284 Q1082.02 154.682 1084.38 156.997 Q1086.76 159.289 1091 159.289 Q1093.45 159.289 1095.74 158.687 Q1098.06 158.085 1100.33 156.881 L1100.33 160.909 Q1098.04 161.881 1095.63 162.391 Q1093.22 162.9 1090.74 162.9 Q1084.54 162.9 1080.91 159.289 Q1077.3 155.678 1077.3 149.52 Q1077.3 143.155 1080.72 139.428 Q1084.17 135.678 1090 135.678 Q1095.24 135.678 1098.27 139.057 Q1101.32 142.414 1101.32 148.201 M1097.06 146.951 Q1097.02 143.456 1095.1 141.372 Q1093.2 139.289 1090.05 139.289 Q1086.49 139.289 1084.33 141.303 Q1082.2 143.317 1081.88 146.974 L1097.06 146.951 Z" fill="#000000" fill-rule="nonzero" fill-opacity="1" /><path clip-path="url(#clip820)" d="M1129.87 146.581 L1129.87 162.229 L1125.61 162.229 L1125.61 146.719 Q1125.61 143.039 1124.17 141.21 Q1122.74 139.382 1119.87 139.382 Q1116.42 139.382 1114.43 141.581 Q1112.43 143.78 1112.43 147.576 L1112.43 162.229 L1108.15 162.229 L1108.15 136.303 L1112.43 136.303 L1112.43 140.331 Q1113.96 137.993 1116.02 136.835 Q1118.11 135.678 1120.81 135.678 Q1125.28 135.678 1127.57 138.456 Q1129.87 141.21 1129.87 146.581 Z" fill="#000000" fill-rule="nonzero" fill-opacity="1" /><path clip-path="url(#clip820)" d="M1142.57 128.942 L1142.57 136.303 L1151.35 136.303 L1151.35 139.613 L1142.57 139.613 L1142.57 153.687 Q1142.57 156.858 1143.43 157.761 Q1144.31 158.664 1146.97 158.664 L1151.35 158.664 L1151.35 162.229 L1146.97 162.229 Q1142.04 162.229 1140.17 160.4 Q1138.29 158.548 1138.29 153.687 L1138.29 139.613 L1135.17 139.613 L1135.17 136.303 L1138.29 136.303 L1138.29 128.942 L1142.57 128.942 Z" fill="#000000" fill-rule="nonzero" fill-opacity="1" /><path clip-path="url(#clip820)" d="M1168.73 149.196 Q1163.57 149.196 1161.58 150.377 Q1159.59 151.557 1159.59 154.405 Q1159.59 156.673 1161.07 158.016 Q1162.57 159.335 1165.14 159.335 Q1168.68 159.335 1170.81 156.835 Q1172.97 154.312 1172.97 150.145 L1172.97 149.196 L1168.73 149.196 M1177.23 147.437 L1177.23 162.229 L1172.97 162.229 L1172.97 158.293 Q1171.51 160.655 1169.33 161.789 Q1167.16 162.9 1164.01 162.9 Q1160.03 162.9 1157.67 160.678 Q1155.33 158.432 1155.33 154.682 Q1155.33 150.307 1158.24 148.085 Q1161.18 145.863 1166.99 145.863 L1172.97 145.863 L1172.97 145.446 Q1172.97 142.507 1171.02 140.909 Q1169.1 139.289 1165.61 139.289 Q1163.38 139.289 1161.28 139.821 Q1159.17 140.354 1157.23 141.419 L1157.23 137.483 Q1159.56 136.581 1161.76 136.141 Q1163.96 135.678 1166.05 135.678 Q1171.67 135.678 1174.45 138.594 Q1177.23 141.511 1177.23 147.437 Z" fill="#000000" fill-rule="nonzero" fill-opacity="1" /><path clip-path="url(#clip820)" d="M1203.06 148.965 Q1203.06 144.335 1201.14 141.789 Q1199.24 139.243 1195.79 139.243 Q1192.36 139.243 1190.44 141.789 Q1188.55 144.335 1188.55 148.965 Q1188.55 153.571 1190.44 156.118 Q1192.36 158.664 1195.79 158.664 Q1199.24 158.664 1201.14 156.118 Q1203.06 153.571 1203.06 148.965 M1207.32 159.011 Q1207.32 165.631 1204.38 168.849 Q1201.44 172.09 1195.37 172.09 Q1193.13 172.09 1191.14 171.742 Q1189.15 171.418 1187.27 170.724 L1187.27 166.58 Q1189.15 167.599 1190.98 168.085 Q1192.8 168.571 1194.7 168.571 Q1198.89 168.571 1200.98 166.372 Q1203.06 164.196 1203.06 159.775 L1203.06 157.668 Q1201.74 159.96 1199.68 161.094 Q1197.62 162.229 1194.75 162.229 Q1189.98 162.229 1187.06 158.594 Q1184.15 154.96 1184.15 148.965 Q1184.15 142.946 1187.06 139.312 Q1189.98 135.678 1194.75 135.678 Q1197.62 135.678 1199.68 136.812 Q1201.74 137.946 1203.06 140.238 L1203.06 136.303 L1207.32 136.303 L1207.32 159.011 Z" fill="#000000" fill-rule="nonzero" fill-opacity="1" /><path clip-path="url(#clip820)" d="M1238.27 148.201 L1238.27 150.284 L1218.68 150.284 Q1218.96 154.682 1221.32 156.997 Q1223.71 159.289 1227.94 159.289 Q1230.4 159.289 1232.69 158.687 Q1235 158.085 1237.27 156.881 L1237.27 160.909 Q1234.98 161.881 1232.57 162.391 Q1230.17 162.9 1227.69 162.9 Q1221.48 162.9 1217.85 159.289 Q1214.24 155.678 1214.24 149.52 Q1214.24 143.155 1217.67 139.428 Q1221.11 135.678 1226.95 135.678 Q1232.18 135.678 1235.21 139.057 Q1238.27 142.414 1238.27 148.201 M1234.01 146.951 Q1233.96 143.456 1232.04 141.372 Q1230.14 139.289 1226.99 139.289 Q1223.43 139.289 1221.28 141.303 Q1219.15 143.317 1218.82 146.974 L1234.01 146.951 Z" fill="#000000" fill-rule="nonzero" fill-opacity="1" /><path clip-path="url(#clip820)" d="M1270.37 139.289 Q1266.95 139.289 1264.96 141.974 Q1262.97 144.636 1262.97 149.289 Q1262.97 153.942 1264.93 156.627 Q1266.92 159.289 1270.37 159.289 Q1273.78 159.289 1275.77 156.604 Q1277.76 153.918 1277.76 149.289 Q1277.76 144.682 1275.77 141.997 Q1273.78 139.289 1270.37 139.289 M1270.37 135.678 Q1275.93 135.678 1279.1 139.289 Q1282.27 142.9 1282.27 149.289 Q1282.27 155.655 1279.1 159.289 Q1275.93 162.9 1270.37 162.9 Q1264.79 162.9 1261.62 159.289 Q1258.48 155.655 1258.48 149.289 Q1258.48 142.9 1261.62 139.289 Q1264.79 135.678 1270.37 135.678 Z" fill="#000000" fill-rule="nonzero" fill-opacity="1" /><path clip-path="url(#clip820)" d="M1302.46 126.21 L1302.46 129.752 L1298.38 129.752 Q1296.09 129.752 1295.19 130.678 Q1294.31 131.604 1294.31 134.011 L1294.31 136.303 L1301.32 136.303 L1301.32 139.613 L1294.31 139.613 L1294.31 162.229 L1290.03 162.229 L1290.03 139.613 L1285.95 139.613 L1285.95 136.303 L1290.03 136.303 L1290.03 134.497 Q1290.03 130.169 1292.04 128.201 Q1294.05 126.21 1298.43 126.21 L1302.46 126.21 Z" fill="#000000" fill-rule="nonzero" fill-opacity="1" /><path clip-path="url(#clip820)" d="M1337.62 137.067 L1337.62 141.094 Q1335.81 140.169 1333.87 139.706 Q1331.92 139.243 1329.84 139.243 Q1326.67 139.243 1325.07 140.215 Q1323.5 141.187 1323.5 143.131 Q1323.5 144.613 1324.63 145.469 Q1325.77 146.303 1329.19 147.067 L1330.65 147.391 Q1335.19 148.363 1337.09 150.145 Q1339.01 151.905 1339.01 155.076 Q1339.01 158.687 1336.14 160.793 Q1333.29 162.9 1328.29 162.9 Q1326.21 162.9 1323.94 162.483 Q1321.69 162.09 1319.19 161.28 L1319.19 156.881 Q1321.55 158.108 1323.85 158.733 Q1326.14 159.335 1328.38 159.335 Q1331.39 159.335 1333.01 158.317 Q1334.63 157.275 1334.63 155.4 Q1334.63 153.664 1333.45 152.738 Q1332.29 151.812 1328.34 150.956 L1326.85 150.608 Q1322.9 149.775 1321.14 148.062 Q1319.38 146.326 1319.38 143.317 Q1319.38 139.659 1321.97 137.669 Q1324.56 135.678 1329.33 135.678 Q1331.69 135.678 1333.78 136.025 Q1335.86 136.372 1337.62 137.067 Z" fill="#000000" fill-rule="nonzero" fill-opacity="1" /><path clip-path="url(#clip820)" d="M1345.79 136.303 L1350.05 136.303 L1350.05 162.229 L1345.79 162.229 L1345.79 136.303 M1345.79 126.21 L1350.05 126.21 L1350.05 131.604 L1345.79 131.604 L1345.79 126.21 Z" fill="#000000" fill-rule="nonzero" fill-opacity="1" /><path clip-path="url(#clip820)" d="M1379.15 141.28 Q1380.74 138.409 1382.97 137.044 Q1385.19 135.678 1388.2 135.678 Q1392.25 135.678 1394.45 138.525 Q1396.65 141.349 1396.65 146.581 L1396.65 162.229 L1392.36 162.229 L1392.36 146.719 Q1392.36 142.993 1391.04 141.187 Q1389.72 139.382 1387.02 139.382 Q1383.71 139.382 1381.78 141.581 Q1379.86 143.78 1379.86 147.576 L1379.86 162.229 L1375.58 162.229 L1375.58 146.719 Q1375.58 142.969 1374.26 141.187 Q1372.94 139.382 1370.19 139.382 Q1366.92 139.382 1365 141.604 Q1363.08 143.803 1363.08 147.576 L1363.08 162.229 L1358.8 162.229 L1358.8 136.303 L1363.08 136.303 L1363.08 140.331 Q1364.54 137.946 1366.58 136.812 Q1368.61 135.678 1371.41 135.678 Q1374.24 135.678 1376.21 137.113 Q1378.2 138.548 1379.15 141.28 Z" fill="#000000" fill-rule="nonzero" fill-opacity="1" /><path clip-path="url(#clip820)" d="M1404.7 151.997 L1404.7 136.303 L1408.96 136.303 L1408.96 151.835 Q1408.96 155.516 1410.4 157.368 Q1411.83 159.196 1414.7 159.196 Q1418.15 159.196 1420.14 156.997 Q1422.16 154.798 1422.16 151.002 L1422.16 136.303 L1426.41 136.303 L1426.41 162.229 L1422.16 162.229 L1422.16 158.247 Q1420.6 160.608 1418.54 161.766 Q1416.51 162.9 1413.8 162.9 Q1409.33 162.9 1407.02 160.122 Q1404.7 157.344 1404.7 151.997 M1415.42 135.678 L1415.42 135.678 Z" fill="#000000" fill-rule="nonzero" fill-opacity="1" /><path clip-path="url(#clip820)" d="M1435.19 126.21 L1439.45 126.21 L1439.45 162.229 L1435.19 162.229 L1435.19 126.21 Z" fill="#000000" fill-rule="nonzero" fill-opacity="1" /><path clip-path="url(#clip820)" d="M1460.14 149.196 Q1454.98 149.196 1452.99 150.377 Q1451 151.557 1451 154.405 Q1451 156.673 1452.48 158.016 Q1453.98 159.335 1456.55 159.335 Q1460.09 159.335 1462.22 156.835 Q1464.38 154.312 1464.38 150.145 L1464.38 149.196 L1460.14 149.196 M1468.64 147.437 L1468.64 162.229 L1464.38 162.229 L1464.38 158.293 Q1462.92 160.655 1460.74 161.789 Q1458.57 162.9 1455.42 162.9 Q1451.44 162.9 1449.08 160.678 Q1446.74 158.432 1446.74 154.682 Q1446.74 150.307 1449.65 148.085 Q1452.59 145.863 1458.4 145.863 L1464.38 145.863 L1464.38 145.446 Q1464.38 142.507 1462.43 140.909 Q1460.51 139.289 1457.02 139.289 Q1454.79 139.289 1452.69 139.821 Q1450.58 140.354 1448.64 141.419 L1448.64 137.483 Q1450.97 136.581 1453.17 136.141 Q1455.37 135.678 1457.46 135.678 Q1463.08 135.678 1465.86 138.594 Q1468.64 141.511 1468.64 147.437 Z" fill="#000000" fill-rule="nonzero" fill-opacity="1" /><path clip-path="url(#clip820)" d="M1481.62 128.942 L1481.62 136.303 L1490.4 136.303 L1490.4 139.613 L1481.62 139.613 L1481.62 153.687 Q1481.62 156.858 1482.48 157.761 Q1483.36 158.664 1486.02 158.664 L1490.4 158.664 L1490.4 162.229 L1486.02 162.229 Q1481.09 162.229 1479.21 160.4 Q1477.34 158.548 1477.34 153.687 L1477.34 139.613 L1474.22 139.613 L1474.22 136.303 L1477.34 136.303 L1477.34 128.942 L1481.62 128.942 Z" fill="#000000" fill-rule="nonzero" fill-opacity="1" /><path clip-path="url(#clip820)" d="M1496 136.303 L1500.26 136.303 L1500.26 162.229 L1496 162.229 L1496 136.303 M1496 126.21 L1500.26 126.21 L1500.26 131.604 L1496 131.604 L1496 126.21 Z" fill="#000000" fill-rule="nonzero" fill-opacity="1" /><path clip-path="url(#clip820)" d="M1519.21 139.289 Q1515.79 139.289 1513.8 141.974 Q1511.81 144.636 1511.81 149.289 Q1511.81 153.942 1513.77 156.627 Q1515.77 159.289 1519.21 159.289 Q1522.62 159.289 1524.61 156.604 Q1526.6 153.918 1526.6 149.289 Q1526.6 144.682 1524.61 141.997 Q1522.62 139.289 1519.21 139.289 M1519.21 135.678 Q1524.77 135.678 1527.94 139.289 Q1531.11 142.9 1531.11 149.289 Q1531.11 155.655 1527.94 159.289 Q1524.77 162.9 1519.21 162.9 Q1513.64 162.9 1510.46 159.289 Q1507.32 155.655 1507.32 149.289 Q1507.32 142.9 1510.46 139.289 Q1513.64 135.678 1519.21 135.678 Z" fill="#000000" fill-rule="nonzero" fill-opacity="1" /><path clip-path="url(#clip820)" d="M1559.72 146.581 L1559.72 162.229 L1555.46 162.229 L1555.46 146.719 Q1555.46 143.039 1554.03 141.21 Q1552.59 139.382 1549.72 139.382 Q1546.27 139.382 1544.28 141.581 Q1542.29 143.78 1542.29 147.576 L1542.29 162.229 L1538.01 162.229 L1538.01 136.303 L1542.29 136.303 L1542.29 140.331 Q1543.82 137.993 1545.88 136.835 Q1547.96 135.678 1550.67 135.678 Q1555.14 135.678 1557.43 138.456 Q1559.72 141.21 1559.72 146.581 Z" fill="#000000" fill-rule="nonzero" fill-opacity="1" /><path clip-path="url(#clip820)" d="M1584.75 137.067 L1584.75 141.094 Q1582.94 140.169 1581 139.706 Q1579.05 139.243 1576.97 139.243 Q1573.8 139.243 1572.2 140.215 Q1570.63 141.187 1570.63 143.131 Q1570.63 144.613 1571.76 145.469 Q1572.9 146.303 1576.32 147.067 L1577.78 147.391 Q1582.32 148.363 1584.21 150.145 Q1586.14 151.905 1586.14 155.076 Q1586.14 158.687 1583.27 160.793 Q1580.42 162.9 1575.42 162.9 Q1573.33 162.9 1571.07 162.483 Q1568.82 162.09 1566.32 161.28 L1566.32 156.881 Q1568.68 158.108 1570.97 158.733 Q1573.27 159.335 1575.51 159.335 Q1578.52 159.335 1580.14 158.317 Q1581.76 157.275 1581.76 155.4 Q1581.76 153.664 1580.58 152.738 Q1579.42 151.812 1575.46 150.956 L1573.98 150.608 Q1570.02 149.775 1568.27 148.062 Q1566.51 146.326 1566.51 143.317 Q1566.51 139.659 1569.1 137.669 Q1571.69 135.678 1576.46 135.678 Q1578.82 135.678 1580.9 136.025 Q1582.99 136.372 1584.75 137.067 Z" fill="#000000" fill-rule="nonzero" fill-opacity="1" /><path clip-path="url(#clip820)" d="M1605.51 136.303 L1609.77 136.303 L1615.09 156.534 L1620.39 136.303 L1625.42 136.303 L1630.74 156.534 L1636.04 136.303 L1640.3 136.303 L1633.52 162.229 L1628.5 162.229 L1622.92 140.979 L1617.32 162.229 L1612.29 162.229 L1605.51 136.303 Z" fill="#000000" fill-rule="nonzero" fill-opacity="1" /><path clip-path="url(#clip820)" d="M1646.76 136.303 L1651.02 136.303 L1651.02 162.229 L1646.76 162.229 L1646.76 136.303 M1646.76 126.21 L1651.02 126.21 L1651.02 131.604 L1646.76 131.604 L1646.76 126.21 Z" fill="#000000" fill-rule="nonzero" fill-opacity="1" /><path clip-path="url(#clip820)" d="M1664.14 128.942 L1664.14 136.303 L1672.92 136.303 L1672.92 139.613 L1664.14 139.613 L1664.14 153.687 Q1664.14 156.858 1665 157.761 Q1665.88 158.664 1668.54 158.664 L1672.92 158.664 L1672.92 162.229 L1668.54 162.229 Q1663.61 162.229 1661.74 160.4 Q1659.86 158.548 1659.86 153.687 L1659.86 139.613 L1656.74 139.613 L1656.74 136.303 L1659.86 136.303 L1659.86 128.942 L1664.14 128.942 Z" fill="#000000" fill-rule="nonzero" fill-opacity="1" /><path clip-path="url(#clip820)" d="M1700.07 146.581 L1700.07 162.229 L1695.81 162.229 L1695.81 146.719 Q1695.81 143.039 1694.38 141.21 Q1692.94 139.382 1690.07 139.382 Q1686.62 139.382 1684.63 141.581 Q1682.64 143.78 1682.64 147.576 L1682.64 162.229 L1678.36 162.229 L1678.36 126.21 L1682.64 126.21 L1682.64 140.331 Q1684.17 137.993 1686.23 136.835 Q1688.31 135.678 1691.02 135.678 Q1695.49 135.678 1697.78 138.456 Q1700.07 141.21 1700.07 146.581 Z" fill="#000000" fill-rule="nonzero" fill-opacity="1" /><path clip-path="url(#clip820)" d="M1743.82 141.28 Q1745.42 138.409 1747.64 137.044 Q1749.86 135.678 1752.87 135.678 Q1756.92 135.678 1759.12 138.525 Q1761.32 141.349 1761.32 146.581 L1761.32 162.229 L1757.04 162.229 L1757.04 146.719 Q1757.04 142.993 1755.72 141.187 Q1754.4 139.382 1751.69 139.382 Q1748.38 139.382 1746.46 141.581 Q1744.54 143.78 1744.54 147.576 L1744.54 162.229 L1740.26 162.229 L1740.26 146.719 Q1740.26 142.969 1738.94 141.187 Q1737.62 139.382 1734.86 139.382 Q1731.6 139.382 1729.68 141.604 Q1727.76 143.803 1727.76 147.576 L1727.76 162.229 L1723.47 162.229 L1723.47 136.303 L1727.76 136.303 L1727.76 140.331 Q1729.21 137.946 1731.25 136.812 Q1733.29 135.678 1736.09 135.678 Q1738.91 135.678 1740.88 137.113 Q1742.87 138.548 1743.82 141.28 Z" fill="#000000" fill-rule="nonzero" fill-opacity="1" /><path clip-path="url(#clip820)" d="M1779.86 139.289 Q1776.44 139.289 1774.44 141.974 Q1772.45 144.636 1772.45 149.289 Q1772.45 153.942 1774.42 156.627 Q1776.41 159.289 1779.86 159.289 Q1783.26 159.289 1785.26 156.604 Q1787.25 153.918 1787.25 149.289 Q1787.25 144.682 1785.26 141.997 Q1783.26 139.289 1779.86 139.289 M1779.86 135.678 Q1785.42 135.678 1788.59 139.289 Q1791.76 142.9 1791.76 149.289 Q1791.76 155.655 1788.59 159.289 Q1785.42 162.9 1779.86 162.9 Q1774.28 162.9 1771.11 159.289 Q1767.96 155.655 1767.96 149.289 Q1767.96 142.9 1771.11 139.289 Q1774.28 135.678 1779.86 135.678 Z" fill="#000000" fill-rule="nonzero" fill-opacity="1" /><path clip-path="url(#clip820)" d="M1820.37 146.581 L1820.37 162.229 L1816.11 162.229 L1816.11 146.719 Q1816.11 143.039 1814.68 141.21 Q1813.24 139.382 1810.37 139.382 Q1806.92 139.382 1804.93 141.581 Q1802.94 143.78 1802.94 147.576 L1802.94 162.229 L1798.66 162.229 L1798.66 136.303 L1802.94 136.303 L1802.94 140.331 Q1804.47 137.993 1806.53 136.835 Q1808.61 135.678 1811.32 135.678 Q1815.79 135.678 1818.08 138.456 Q1820.37 141.21 1820.37 146.581 Z" fill="#000000" fill-rule="nonzero" fill-opacity="1" /><path clip-path="url(#clip820)" d="M1851.04 148.201 L1851.04 150.284 L1831.46 150.284 Q1831.74 154.682 1834.1 156.997 Q1836.48 159.289 1840.72 159.289 Q1843.17 159.289 1845.46 158.687 Q1847.78 158.085 1850.05 156.881 L1850.05 160.909 Q1847.75 161.881 1845.35 162.391 Q1842.94 162.9 1840.46 162.9 Q1834.26 162.9 1830.63 159.289 Q1827.01 155.678 1827.01 149.52 Q1827.01 143.155 1830.44 139.428 Q1833.89 135.678 1839.72 135.678 Q1844.95 135.678 1847.99 139.057 Q1851.04 142.414 1851.04 148.201 M1846.78 146.951 Q1846.74 143.456 1844.81 141.372 Q1842.92 139.289 1839.77 139.289 Q1836.2 139.289 1834.05 141.303 Q1831.92 143.317 1831.6 146.974 L1846.78 146.951 Z" fill="#000000" fill-rule="nonzero" fill-opacity="1" /><path clip-path="url(#clip820)" d="M1868.82 164.636 Q1867.01 169.266 1865.3 170.678 Q1863.59 172.09 1860.72 172.09 L1857.31 172.09 L1857.31 168.525 L1859.81 168.525 Q1861.57 168.525 1862.55 167.692 Q1863.52 166.858 1864.7 163.756 L1865.46 161.812 L1854.98 136.303 L1859.49 136.303 L1867.59 156.581 L1875.69 136.303 L1880.21 136.303 L1868.82 164.636 Z" fill="#000000" fill-rule="nonzero" fill-opacity="1" /><path clip-path="url(#clip820)" d="M1901.71 138.895 L1901.71 134.682 L1931.39 145.446 L1931.39 149.289 L1901.71 160.053 L1901.71 155.84 L1925.56 147.391 L1901.71 138.895 Z" fill="#000000" fill-rule="nonzero" fill-opacity="1" /><path clip-path="url(#clip820)" d="M1955.95 136.303 L1960.21 136.303 L1960.21 162.229 L1955.95 162.229 L1955.95 136.303 M1955.95 126.21 L1960.21 126.21 L1960.21 131.604 L1955.95 131.604 L1955.95 126.21 Z" fill="#000000" fill-rule="nonzero" fill-opacity="1" /><path clip-path="url(#clip820)" d="M1990.67 146.581 L1990.67 162.229 L1986.41 162.229 L1986.41 146.719 Q1986.41 143.039 1984.98 141.21 Q1983.54 139.382 1980.67 139.382 Q1977.22 139.382 1975.23 141.581 Q1973.24 143.78 1973.24 147.576 L1973.24 162.229 L1968.96 162.229 L1968.96 136.303 L1973.24 136.303 L1973.24 140.331 Q1974.77 137.993 1976.83 136.835 Q1978.91 135.678 1981.62 135.678 Q1986.09 135.678 1988.38 138.456 Q1990.67 141.21 1990.67 146.581 Z" fill="#000000" fill-rule="nonzero" fill-opacity="1" /><path clip-path="url(#clip820)" d="M1999.17 136.303 L2003.43 136.303 L2003.43 162.229 L1999.17 162.229 L1999.17 136.303 M1999.17 126.21 L2003.43 126.21 L2003.43 131.604 L1999.17 131.604 L1999.17 126.21 Z" fill="#000000" fill-rule="nonzero" fill-opacity="1" /><path clip-path="url(#clip820)" d="M2016.55 128.942 L2016.55 136.303 L2025.32 136.303 L2025.32 139.613 L2016.55 139.613 L2016.55 153.687 Q2016.55 156.858 2017.41 157.761 Q2018.29 158.664 2020.95 158.664 L2025.32 158.664 L2025.32 162.229 L2020.95 162.229 Q2016.02 162.229 2014.14 160.4 Q2012.27 158.548 2012.27 153.687 L2012.27 139.613 L2009.14 139.613 L2009.14 136.303 L2012.27 136.303 L2012.27 128.942 L2016.55 128.942 Z" fill="#000000" fill-rule="nonzero" fill-opacity="1" /><path clip-path="url(#clip820)" d="M2030.92 136.303 L2035.18 136.303 L2035.18 162.229 L2030.92 162.229 L2030.92 136.303 M2030.92 126.21 L2035.18 126.21 L2035.18 131.604 L2030.92 131.604 L2030.92 126.21 Z" fill="#000000" fill-rule="nonzero" fill-opacity="1" /><path clip-path="url(#clip820)" d="M2055.88 149.196 Q2050.72 149.196 2048.73 150.377 Q2046.74 151.557 2046.74 154.405 Q2046.74 156.673 2048.22 158.016 Q2049.72 159.335 2052.29 159.335 Q2055.83 159.335 2057.96 156.835 Q2060.11 154.312 2060.11 150.145 L2060.11 149.196 L2055.88 149.196 M2064.37 147.437 L2064.37 162.229 L2060.11 162.229 L2060.11 158.293 Q2058.66 160.655 2056.48 161.789 Q2054.3 162.9 2051.16 162.9 Q2047.17 162.9 2044.81 160.678 Q2042.48 158.432 2042.48 154.682 Q2042.48 150.307 2045.39 148.085 Q2048.33 145.863 2054.14 145.863 L2060.11 145.863 L2060.11 145.446 Q2060.11 142.507 2058.17 140.909 Q2056.25 139.289 2052.75 139.289 Q2050.53 139.289 2048.42 139.821 Q2046.32 140.354 2044.37 141.419 L2044.37 137.483 Q2046.71 136.581 2048.91 136.141 Q2051.11 135.678 2053.19 135.678 Q2058.82 135.678 2061.6 138.594 Q2064.37 141.511 2064.37 147.437 Z" fill="#000000" fill-rule="nonzero" fill-opacity="1" /><path clip-path="url(#clip820)" d="M2073.15 126.21 L2077.41 126.21 L2077.41 162.229 L2073.15 162.229 L2073.15 126.21 Z" fill="#000000" fill-rule="nonzero" fill-opacity="1" /><path clip-path="url(#clip820)" d="M2121.57 141.28 Q2123.17 138.409 2125.39 137.044 Q2127.61 135.678 2130.62 135.678 Q2134.67 135.678 2136.87 138.525 Q2139.07 141.349 2139.07 146.581 L2139.07 162.229 L2134.79 162.229 L2134.79 146.719 Q2134.79 142.993 2133.47 141.187 Q2132.15 139.382 2129.44 139.382 Q2126.13 139.382 2124.21 141.581 Q2122.29 143.78 2122.29 147.576 L2122.29 162.229 L2118.01 162.229 L2118.01 146.719 Q2118.01 142.969 2116.69 141.187 Q2115.37 139.382 2112.61 139.382 Q2109.35 139.382 2107.43 141.604 Q2105.51 143.803 2105.51 147.576 L2105.51 162.229 L2101.23 162.229 L2101.23 136.303 L2105.51 136.303 L2105.51 140.331 Q2106.97 137.946 2109 136.812 Q2111.04 135.678 2113.84 135.678 Q2116.67 135.678 2118.63 137.113 Q2120.62 138.548 2121.57 141.28 Z" fill="#000000" fill-rule="nonzero" fill-opacity="1" /><path clip-path="url(#clip820)" d="M2157.61 139.289 Q2154.19 139.289 2152.2 141.974 Q2150.21 144.636 2150.21 149.289 Q2150.21 153.942 2152.17 156.627 Q2154.17 159.289 2157.61 159.289 Q2161.02 159.289 2163.01 156.604 Q2165 153.918 2165 149.289 Q2165 144.682 2163.01 141.997 Q2161.02 139.289 2157.61 139.289 M2157.61 135.678 Q2163.17 135.678 2166.34 139.289 Q2169.51 142.9 2169.51 149.289 Q2169.51 155.655 2166.34 159.289 Q2163.17 162.9 2157.61 162.9 Q2152.04 162.9 2148.86 159.289 Q2145.72 155.655 2145.72 149.289 Q2145.72 142.9 2148.86 139.289 Q2152.04 135.678 2157.61 135.678 Z" fill="#000000" fill-rule="nonzero" fill-opacity="1" /><path clip-path="url(#clip820)" d="M2198.12 146.581 L2198.12 162.229 L2193.86 162.229 L2193.86 146.719 Q2193.86 143.039 2192.43 141.21 Q2190.99 139.382 2188.12 139.382 Q2184.67 139.382 2182.68 141.581 Q2180.69 143.78 2180.69 147.576 L2180.69 162.229 L2176.41 162.229 L2176.41 136.303 L2180.69 136.303 L2180.69 140.331 Q2182.22 137.993 2184.28 136.835 Q2186.36 135.678 2189.07 135.678 Q2193.54 135.678 2195.83 138.456 Q2198.12 141.21 2198.12 146.581 Z" fill="#000000" fill-rule="nonzero" fill-opacity="1" /><path clip-path="url(#clip820)" d="M2228.79 148.201 L2228.79 150.284 L2209.21 150.284 Q2209.49 154.682 2211.85 156.997 Q2214.23 159.289 2218.47 159.289 Q2220.92 159.289 2223.22 158.687 Q2225.53 158.085 2227.8 156.881 L2227.8 160.909 Q2225.51 161.881 2223.1 162.391 Q2220.69 162.9 2218.22 162.9 Q2212.01 162.9 2208.38 159.289 Q2204.77 155.678 2204.77 149.52 Q2204.77 143.155 2208.19 139.428 Q2211.64 135.678 2217.47 135.678 Q2222.71 135.678 2225.74 139.057 Q2228.79 142.414 2228.79 148.201 M2224.54 146.951 Q2224.49 143.456 2222.57 141.372 Q2220.67 139.289 2217.52 139.289 Q2213.96 139.289 2211.8 141.303 Q2209.67 143.317 2209.35 146.974 L2224.54 146.951 Z" fill="#000000" fill-rule="nonzero" fill-opacity="1" /><path clip-path="url(#clip820)" d="M2246.57 164.636 Q2244.77 169.266 2243.05 170.678 Q2241.34 172.09 2238.47 172.09 L2235.07 172.09 L2235.07 168.525 L2237.57 168.525 Q2239.33 168.525 2240.3 167.692 Q2241.27 166.858 2242.45 163.756 L2243.22 161.812 L2232.73 136.303 L2237.24 136.303 L2245.35 156.581 L2253.45 136.303 L2257.96 136.303 L2246.57 164.636 Z" fill="#000000" fill-rule="nonzero" fill-opacity="1" /></svg>
