<?xml version="1.0" encoding="utf-8"?>
<svg xmlns="http://www.w3.org/2000/svg" xmlns:xlink="http://www.w3.org/1999/xlink" width="600" height="400" viewBox="0 0 2400 1600">
<defs>
  <clipPath id="clip510">
    <rect x="0" y="0" width="2400" height="1600"/>
  </clipPath>
</defs>
<path clip-path="url(#clip510)" d="M0 1600 L2400 1600 L2400 0 L0 0  Z" fill="#ffffff" fill-rule="evenodd" fill-opacity="1"/>
<defs>
  <clipPath id="clip511">
    <rect x="480" y="0" width="1681" height="1600"/>
  </clipPath>
</defs>
<path clip-path="url(#clip510)" d="M219.866 1423.18 L2352.76 1423.18 L2352.76 47.2441 L219.866 47.2441  Z" fill="#ffffff" fill-rule="evenodd" fill-opacity="1"/>
<defs>
  <clipPath id="clip512">
    <rect x="219" y="47" width="2134" height="1377"/>
  </clipPath>
</defs>
<polyline clip-path="url(#clip512)" style="stroke:#000000; stroke-linecap:round; stroke-linejoin:round; stroke-width:2; stroke-opacity:0.1; fill:none" points="278.217,1423.18 278.217,47.2441 "/>
<polyline clip-path="url(#clip512)" style="stroke:#000000; stroke-linecap:round; stroke-linejoin:round; stroke-width:2; stroke-opacity:0.1; fill:none" points="781.76,1423.18 781.76,47.2441 "/>
<polyline clip-path="url(#clip512)" style="stroke:#000000; stroke-linecap:round; stroke-linejoin:round; stroke-width:2; stroke-opacity:0.1; fill:none" points="1285.3,1423.18 1285.3,47.2441 "/>
<polyline clip-path="url(#clip512)" style="stroke:#000000; stroke-linecap:round; stroke-linejoin:round; stroke-width:2; stroke-opacity:0.1; fill:none" points="1788.85,1423.18 1788.85,47.2441 "/>
<polyline clip-path="url(#clip512)" style="stroke:#000000; stroke-linecap:round; stroke-linejoin:round; stroke-width:2; stroke-opacity:0.1; fill:none" points="2292.39,1423.18 2292.39,47.2441 "/>
<polyline clip-path="url(#clip510)" style="stroke:#000000; stroke-linecap:round; stroke-linejoin:round; stroke-width:4; stroke-opacity:1; fill:none" points="219.866,1423.18 2352.76,1423.18 "/>
<polyline clip-path="url(#clip510)" style="stroke:#000000; stroke-linecap:round; stroke-linejoin:round; stroke-width:4; stroke-opacity:1; fill:none" points="278.217,1423.18 278.217,1404.28 "/>
<polyline clip-path="url(#clip510)" style="stroke:#000000; stroke-linecap:round; stroke-linejoin:round; stroke-width:4; stroke-opacity:1; fill:none" points="781.76,1423.18 781.76,1404.28 "/>
<polyline clip-path="url(#clip510)" style="stroke:#000000; stroke-linecap:round; stroke-linejoin:round; stroke-width:4; stroke-opacity:1; fill:none" points="1285.3,1423.18 1285.3,1404.28 "/>
<polyline clip-path="url(#clip510)" style="stroke:#000000; stroke-linecap:round; stroke-linejoin:round; stroke-width:4; stroke-opacity:1; fill:none" points="1788.85,1423.18 1788.85,1404.28 "/>
<polyline clip-path="url(#clip510)" style="stroke:#000000; stroke-linecap:round; stroke-linejoin:round; stroke-width:4; stroke-opacity:1; fill:none" points="2292.39,1423.18 2292.39,1404.28 "/>
<path clip-path="url(#clip510)" d="M278.217 1454.1 Q274.606 1454.1 272.777 1457.66 Q270.972 1461.2 270.972 1468.33 Q270.972 1475.44 272.777 1479.01 Q274.606 1482.55 278.217 1482.55 Q281.851 1482.55 283.657 1479.01 Q285.485 1475.44 285.485 1468.33 Q285.485 1461.2 283.657 1457.66 Q281.851 1454.1 278.217 1454.1 M278.217 1450.39 Q284.027 1450.39 287.083 1455 Q290.161 1459.58 290.161 1468.33 Q290.161 1477.06 287.083 1481.67 Q284.027 1486.25 278.217 1486.25 Q272.407 1486.25 269.328 1481.67 Q266.273 1477.06 266.273 1468.33 Q266.273 1459.58 269.328 1455 Q272.407 1450.39 278.217 1450.39 Z" fill="#000000" fill-rule="nonzero" fill-opacity="1" /><path clip-path="url(#clip510)" d="M745.453 1481.64 L761.772 1481.64 L761.772 1485.58 L739.828 1485.58 L739.828 1481.64 Q742.49 1478.89 747.073 1474.26 Q751.68 1469.61 752.86 1468.27 Q755.105 1465.74 755.985 1464.01 Q756.888 1462.25 756.888 1460.56 Q756.888 1457.8 754.943 1456.07 Q753.022 1454.33 749.92 1454.33 Q747.721 1454.33 745.268 1455.09 Q742.837 1455.86 740.059 1457.41 L740.059 1452.69 Q742.883 1451.55 745.337 1450.97 Q747.791 1450.39 749.828 1450.39 Q755.198 1450.39 758.393 1453.08 Q761.587 1455.77 761.587 1460.26 Q761.587 1462.39 760.777 1464.31 Q759.99 1466.2 757.883 1468.8 Q757.305 1469.47 754.203 1472.69 Q751.101 1475.88 745.453 1481.64 Z" fill="#000000" fill-rule="nonzero" fill-opacity="1" /><path clip-path="url(#clip510)" d="M771.633 1451.02 L789.99 1451.02 L789.99 1454.96 L775.916 1454.96 L775.916 1463.43 Q776.934 1463.08 777.953 1462.92 Q778.971 1462.73 779.99 1462.73 Q785.777 1462.73 789.156 1465.9 Q792.536 1469.08 792.536 1474.49 Q792.536 1480.07 789.064 1483.17 Q785.591 1486.25 779.272 1486.25 Q777.096 1486.25 774.828 1485.88 Q772.582 1485.51 770.175 1484.77 L770.175 1480.07 Q772.258 1481.2 774.48 1481.76 Q776.703 1482.32 779.179 1482.32 Q783.184 1482.32 785.522 1480.21 Q787.86 1478.1 787.86 1474.49 Q787.86 1470.88 785.522 1468.77 Q783.184 1466.67 779.179 1466.67 Q777.304 1466.67 775.429 1467.08 Q773.578 1467.5 771.633 1468.38 L771.633 1451.02 Z" fill="#000000" fill-rule="nonzero" fill-opacity="1" /><path clip-path="url(#clip510)" d="M811.749 1454.1 Q808.138 1454.1 806.309 1457.66 Q804.503 1461.2 804.503 1468.33 Q804.503 1475.44 806.309 1479.01 Q808.138 1482.55 811.749 1482.55 Q815.383 1482.55 817.188 1479.01 Q819.017 1475.44 819.017 1468.33 Q819.017 1461.2 817.188 1457.66 Q815.383 1454.1 811.749 1454.1 M811.749 1450.39 Q817.559 1450.39 820.614 1455 Q823.693 1459.58 823.693 1468.33 Q823.693 1477.06 820.614 1481.67 Q817.559 1486.25 811.749 1486.25 Q805.939 1486.25 802.86 1481.67 Q799.804 1477.06 799.804 1468.33 Q799.804 1459.58 802.86 1455 Q805.939 1450.39 811.749 1450.39 Z" fill="#000000" fill-rule="nonzero" fill-opacity="1" /><path clip-path="url(#clip510)" d="M1244.92 1451.02 L1263.28 1451.02 L1263.28 1454.96 L1249.2 1454.96 L1249.2 1463.43 Q1250.22 1463.08 1251.24 1462.92 Q1252.26 1462.73 1253.28 1462.73 Q1259.07 1462.73 1262.45 1465.9 Q1265.82 1469.08 1265.82 1474.49 Q1265.82 1480.07 1262.35 1483.17 Q1258.88 1486.25 1252.56 1486.25 Q1250.39 1486.25 1248.12 1485.88 Q1245.87 1485.51 1243.46 1484.77 L1243.46 1480.07 Q1245.55 1481.2 1247.77 1481.76 Q1249.99 1482.32 1252.47 1482.32 Q1256.47 1482.32 1258.81 1480.21 Q1261.15 1478.1 1261.15 1474.49 Q1261.15 1470.88 1258.81 1468.77 Q1256.47 1466.67 1252.47 1466.67 Q1250.59 1466.67 1248.72 1467.08 Q1246.87 1467.5 1244.92 1468.38 L1244.92 1451.02 Z" fill="#000000" fill-rule="nonzero" fill-opacity="1" /><path clip-path="url(#clip510)" d="M1285.04 1454.1 Q1281.43 1454.1 1279.6 1457.66 Q1277.79 1461.2 1277.79 1468.33 Q1277.79 1475.44 1279.6 1479.01 Q1281.43 1482.55 1285.04 1482.55 Q1288.67 1482.55 1290.48 1479.01 Q1292.31 1475.44 1292.31 1468.33 Q1292.31 1461.2 1290.48 1457.66 Q1288.67 1454.1 1285.04 1454.1 M1285.04 1450.39 Q1290.85 1450.39 1293.9 1455 Q1296.98 1459.58 1296.98 1468.33 Q1296.98 1477.06 1293.9 1481.67 Q1290.85 1486.25 1285.04 1486.25 Q1279.23 1486.25 1276.15 1481.67 Q1273.09 1477.06 1273.09 1468.33 Q1273.09 1459.58 1276.15 1455 Q1279.23 1450.39 1285.04 1450.39 Z" fill="#000000" fill-rule="nonzero" fill-opacity="1" /><path clip-path="url(#clip510)" d="M1315.2 1454.1 Q1311.59 1454.1 1309.76 1457.66 Q1307.95 1461.2 1307.95 1468.33 Q1307.95 1475.44 1309.76 1479.01 Q1311.59 1482.55 1315.2 1482.55 Q1318.83 1482.55 1320.64 1479.01 Q1322.47 1475.44 1322.47 1468.33 Q1322.47 1461.2 1320.64 1457.66 Q1318.83 1454.1 1315.2 1454.1 M1315.2 1450.39 Q1321.01 1450.39 1324.07 1455 Q1327.14 1459.58 1327.14 1468.33 Q1327.14 1477.06 1324.07 1481.67 Q1321.01 1486.25 1315.2 1486.25 Q1309.39 1486.25 1306.31 1481.67 Q1303.26 1477.06 1303.26 1468.33 Q1303.26 1459.58 1306.31 1455 Q1309.39 1450.39 1315.2 1450.39 Z" fill="#000000" fill-rule="nonzero" fill-opacity="1" /><path clip-path="url(#clip510)" d="M1747.12 1451.02 L1769.35 1451.02 L1769.35 1453.01 L1756.8 1485.58 L1751.91 1485.58 L1763.72 1454.96 L1747.12 1454.96 L1747.12 1451.02 Z" fill="#000000" fill-rule="nonzero" fill-opacity="1" /><path clip-path="url(#clip510)" d="M1778.51 1451.02 L1796.87 1451.02 L1796.87 1454.96 L1782.79 1454.96 L1782.79 1463.43 Q1783.81 1463.08 1784.83 1462.92 Q1785.85 1462.73 1786.87 1462.73 Q1792.66 1462.73 1796.04 1465.9 Q1799.41 1469.08 1799.41 1474.49 Q1799.41 1480.07 1795.94 1483.17 Q1792.47 1486.25 1786.15 1486.25 Q1783.97 1486.25 1781.71 1485.88 Q1779.46 1485.51 1777.05 1484.77 L1777.05 1480.07 Q1779.14 1481.2 1781.36 1481.76 Q1783.58 1482.32 1786.06 1482.32 Q1790.06 1482.32 1792.4 1480.21 Q1794.74 1478.1 1794.74 1474.49 Q1794.74 1470.88 1792.4 1468.77 Q1790.06 1466.67 1786.06 1466.67 Q1784.18 1466.67 1782.31 1467.08 Q1780.46 1467.5 1778.51 1468.38 L1778.51 1451.02 Z" fill="#000000" fill-rule="nonzero" fill-opacity="1" /><path clip-path="url(#clip510)" d="M1818.63 1454.1 Q1815.02 1454.1 1813.19 1457.66 Q1811.38 1461.2 1811.38 1468.33 Q1811.38 1475.44 1813.19 1479.01 Q1815.02 1482.55 1818.63 1482.55 Q1822.26 1482.55 1824.07 1479.01 Q1825.9 1475.44 1825.9 1468.33 Q1825.9 1461.2 1824.07 1457.66 Q1822.26 1454.1 1818.63 1454.1 M1818.63 1450.39 Q1824.44 1450.39 1827.49 1455 Q1830.57 1459.58 1830.57 1468.33 Q1830.57 1477.06 1827.49 1481.67 Q1824.44 1486.25 1818.63 1486.25 Q1812.82 1486.25 1809.74 1481.67 Q1806.68 1477.06 1806.68 1468.33 Q1806.68 1459.58 1809.74 1455 Q1812.82 1450.39 1818.63 1450.39 Z" fill="#000000" fill-rule="nonzero" fill-opacity="1" /><path clip-path="url(#clip510)" d="M2236.92 1481.64 L2244.56 1481.64 L2244.56 1455.28 L2236.25 1456.95 L2236.25 1452.69 L2244.51 1451.02 L2249.19 1451.02 L2249.19 1481.64 L2256.82 1481.64 L2256.82 1485.58 L2236.92 1485.58 L2236.92 1481.64 Z" fill="#000000" fill-rule="nonzero" fill-opacity="1" /><path clip-path="url(#clip510)" d="M2276.27 1454.1 Q2272.66 1454.1 2270.83 1457.66 Q2269.02 1461.2 2269.02 1468.33 Q2269.02 1475.44 2270.83 1479.01 Q2272.66 1482.55 2276.27 1482.55 Q2279.9 1482.55 2281.71 1479.01 Q2283.54 1475.44 2283.54 1468.33 Q2283.54 1461.2 2281.71 1457.66 Q2279.9 1454.1 2276.27 1454.1 M2276.27 1450.39 Q2282.08 1450.39 2285.13 1455 Q2288.21 1459.58 2288.21 1468.33 Q2288.21 1477.06 2285.13 1481.67 Q2282.08 1486.25 2276.27 1486.25 Q2270.46 1486.25 2267.38 1481.67 Q2264.32 1477.06 2264.32 1468.33 Q2264.32 1459.58 2267.38 1455 Q2270.46 1450.39 2276.27 1450.39 Z" fill="#000000" fill-rule="nonzero" fill-opacity="1" /><path clip-path="url(#clip510)" d="M2306.43 1454.1 Q2302.82 1454.1 2300.99 1457.66 Q2299.19 1461.2 2299.19 1468.33 Q2299.19 1475.44 2300.99 1479.01 Q2302.82 1482.55 2306.43 1482.55 Q2310.06 1482.55 2311.87 1479.01 Q2313.7 1475.44 2313.7 1468.33 Q2313.7 1461.2 2311.87 1457.66 Q2310.06 1454.1 2306.43 1454.1 M2306.43 1450.39 Q2312.24 1450.39 2315.3 1455 Q2318.37 1459.58 2318.37 1468.33 Q2318.37 1477.06 2315.3 1481.67 Q2312.24 1486.25 2306.43 1486.25 Q2300.62 1486.25 2297.54 1481.67 Q2294.49 1477.06 2294.49 1468.33 Q2294.49 1459.58 2297.54 1455 Q2300.62 1450.39 2306.43 1450.39 Z" fill="#000000" fill-rule="nonzero" fill-opacity="1" /><path clip-path="url(#clip510)" d="M2336.59 1454.1 Q2332.98 1454.1 2331.15 1457.66 Q2329.35 1461.2 2329.35 1468.33 Q2329.35 1475.44 2331.15 1479.01 Q2332.98 1482.55 2336.59 1482.55 Q2340.23 1482.55 2342.03 1479.01 Q2343.86 1475.44 2343.86 1468.33 Q2343.86 1461.2 2342.03 1457.66 Q2340.23 1454.1 2336.59 1454.1 M2336.59 1450.39 Q2342.4 1450.39 2345.46 1455 Q2348.54 1459.58 2348.54 1468.33 Q2348.54 1477.06 2345.46 1481.67 Q2342.4 1486.25 2336.59 1486.25 Q2330.78 1486.25 2327.7 1481.67 Q2324.65 1477.06 2324.65 1468.33 Q2324.65 1459.58 2327.7 1455 Q2330.78 1450.39 2336.59 1450.39 Z" fill="#000000" fill-rule="nonzero" fill-opacity="1" /><path clip-path="url(#clip510)" d="M1211.88 1545.76 Q1213.95 1546.46 1215.89 1548.76 Q1217.86 1551.05 1219.84 1555.06 L1226.36 1568.04 L1219.46 1568.04 L1213.38 1555.85 Q1211.02 1551.08 1208.79 1549.52 Q1206.6 1547.96 1202.78 1547.96 L1195.77 1547.96 L1195.77 1568.04 L1189.35 1568.04 L1189.35 1520.52 L1203.86 1520.52 Q1212.01 1520.52 1216.02 1523.93 Q1220.03 1527.34 1220.03 1534.21 Q1220.03 1538.7 1217.93 1541.66 Q1215.86 1544.62 1211.88 1545.76 M1195.77 1525.81 L1195.77 1542.68 L1203.86 1542.68 Q1208.51 1542.68 1210.86 1540.54 Q1213.25 1538.38 1213.25 1534.21 Q1213.25 1530.04 1210.86 1527.94 Q1208.51 1525.81 1203.86 1525.81 L1195.77 1525.81 Z" fill="#000000" fill-rule="nonzero" fill-opacity="1" /><path clip-path="url(#clip510)" d="M1245.27 1536.5 Q1240.56 1536.5 1237.82 1540.19 Q1235.08 1543.85 1235.08 1550.25 Q1235.08 1556.65 1237.79 1560.34 Q1240.53 1564 1245.27 1564 Q1249.95 1564 1252.68 1560.31 Q1255.42 1556.62 1255.42 1550.25 Q1255.42 1543.92 1252.68 1540.23 Q1249.95 1536.5 1245.27 1536.5 M1245.27 1531.54 Q1252.91 1531.54 1257.27 1536.5 Q1261.63 1541.47 1261.63 1550.25 Q1261.63 1559 1257.27 1564 Q1252.91 1568.97 1245.27 1568.97 Q1237.6 1568.97 1233.24 1564 Q1228.91 1559 1228.91 1550.25 Q1228.91 1541.47 1233.24 1536.5 Q1237.6 1531.54 1245.27 1531.54 Z" fill="#000000" fill-rule="nonzero" fill-opacity="1" /><path clip-path="url(#clip510)" d="M1270.73 1553.98 L1270.73 1532.4 L1276.59 1532.4 L1276.59 1553.75 Q1276.59 1558.81 1278.56 1561.36 Q1280.53 1563.87 1284.48 1563.87 Q1289.22 1563.87 1291.96 1560.85 Q1294.73 1557.83 1294.73 1552.61 L1294.73 1532.4 L1300.59 1532.4 L1300.59 1568.04 L1294.73 1568.04 L1294.73 1562.57 Q1292.6 1565.82 1289.76 1567.41 Q1286.96 1568.97 1283.24 1568.97 Q1277.1 1568.97 1273.91 1565.15 Q1270.73 1561.33 1270.73 1553.98 M1285.47 1531.54 L1285.47 1531.54 Z" fill="#000000" fill-rule="nonzero" fill-opacity="1" /><path clip-path="url(#clip510)" d="M1342.28 1546.53 L1342.28 1568.04 L1336.43 1568.04 L1336.43 1546.72 Q1336.43 1541.66 1334.45 1539.14 Q1332.48 1536.63 1328.53 1536.63 Q1323.79 1536.63 1321.05 1539.65 Q1318.31 1542.68 1318.31 1547.9 L1318.31 1568.04 L1312.43 1568.04 L1312.43 1532.4 L1318.31 1532.4 L1318.31 1537.93 Q1320.42 1534.72 1323.25 1533.13 Q1326.11 1531.54 1329.84 1531.54 Q1335.98 1531.54 1339.13 1535.36 Q1342.28 1539.14 1342.28 1546.53 Z" fill="#000000" fill-rule="nonzero" fill-opacity="1" /><path clip-path="url(#clip510)" d="M1377.42 1537.81 L1377.42 1518.52 L1383.28 1518.52 L1383.28 1568.04 L1377.42 1568.04 L1377.42 1562.7 Q1375.57 1565.88 1372.74 1567.44 Q1369.94 1568.97 1365.99 1568.97 Q1359.53 1568.97 1355.46 1563.81 Q1351.42 1558.65 1351.42 1550.25 Q1351.42 1541.85 1355.46 1536.69 Q1359.53 1531.54 1365.99 1531.54 Q1369.94 1531.54 1372.74 1533.1 Q1375.57 1534.62 1377.42 1537.81 M1357.46 1550.25 Q1357.46 1556.71 1360.11 1560.4 Q1362.78 1564.07 1367.43 1564.07 Q1372.07 1564.07 1374.75 1560.4 Q1377.42 1556.71 1377.42 1550.25 Q1377.42 1543.79 1374.75 1540.13 Q1372.07 1536.44 1367.43 1536.44 Q1362.78 1536.44 1360.11 1540.13 Q1357.46 1543.79 1357.46 1550.25 Z" fill="#000000" fill-rule="nonzero" fill-opacity="1" /><polyline clip-path="url(#clip512)" style="stroke:#000000; stroke-linecap:round; stroke-linejoin:round; stroke-width:2; stroke-opacity:0.1; fill:none" points="219.866,1384.24 2352.76,1384.24 "/>
<polyline clip-path="url(#clip512)" style="stroke:#000000; stroke-linecap:round; stroke-linejoin:round; stroke-width:2; stroke-opacity:0.1; fill:none" points="219.866,1071.42 2352.76,1071.42 "/>
<polyline clip-path="url(#clip512)" style="stroke:#000000; stroke-linecap:round; stroke-linejoin:round; stroke-width:2; stroke-opacity:0.1; fill:none" points="219.866,758.595 2352.76,758.595 "/>
<polyline clip-path="url(#clip512)" style="stroke:#000000; stroke-linecap:round; stroke-linejoin:round; stroke-width:2; stroke-opacity:0.1; fill:none" points="219.866,445.774 2352.76,445.774 "/>
<polyline clip-path="url(#clip512)" style="stroke:#000000; stroke-linecap:round; stroke-linejoin:round; stroke-width:2; stroke-opacity:0.1; fill:none" points="219.866,132.952 2352.76,132.952 "/>
<polyline clip-path="url(#clip510)" style="stroke:#000000; stroke-linecap:round; stroke-linejoin:round; stroke-width:4; stroke-opacity:1; fill:none" points="219.866,1423.18 219.866,47.2441 "/>
<polyline clip-path="url(#clip510)" style="stroke:#000000; stroke-linecap:round; stroke-linejoin:round; stroke-width:4; stroke-opacity:1; fill:none" points="219.866,1384.24 238.764,1384.24 "/>
<polyline clip-path="url(#clip510)" style="stroke:#000000; stroke-linecap:round; stroke-linejoin:round; stroke-width:4; stroke-opacity:1; fill:none" points="219.866,1071.42 238.764,1071.42 "/>
<polyline clip-path="url(#clip510)" style="stroke:#000000; stroke-linecap:round; stroke-linejoin:round; stroke-width:4; stroke-opacity:1; fill:none" points="219.866,758.595 238.764,758.595 "/>
<polyline clip-path="url(#clip510)" style="stroke:#000000; stroke-linecap:round; stroke-linejoin:round; stroke-width:4; stroke-opacity:1; fill:none" points="219.866,445.774 238.764,445.774 "/>
<polyline clip-path="url(#clip510)" style="stroke:#000000; stroke-linecap:round; stroke-linejoin:round; stroke-width:4; stroke-opacity:1; fill:none" points="219.866,132.952 238.764,132.952 "/>
<path clip-path="url(#clip510)" d="M126.691 1370.04 Q123.08 1370.04 121.251 1373.6 Q119.445 1377.14 119.445 1384.27 Q119.445 1391.38 121.251 1394.94 Q123.08 1398.49 126.691 1398.49 Q130.325 1398.49 132.13 1394.94 Q133.959 1391.38 133.959 1384.27 Q133.959 1377.14 132.13 1373.6 Q130.325 1370.04 126.691 1370.04 M126.691 1366.33 Q132.501 1366.33 135.556 1370.94 Q138.635 1375.52 138.635 1384.27 Q138.635 1393 135.556 1397.61 Q132.501 1402.19 126.691 1402.19 Q120.88 1402.19 117.802 1397.61 Q114.746 1393 114.746 1384.27 Q114.746 1375.52 117.802 1370.94 Q120.88 1366.33 126.691 1366.33 Z" fill="#000000" fill-rule="nonzero" fill-opacity="1" /><path clip-path="url(#clip510)" d="M146.853 1395.64 L151.737 1395.64 L151.737 1401.52 L146.853 1401.52 L146.853 1395.64 Z" fill="#000000" fill-rule="nonzero" fill-opacity="1" /><path clip-path="url(#clip510)" d="M171.922 1370.04 Q168.311 1370.04 166.482 1373.6 Q164.677 1377.14 164.677 1384.27 Q164.677 1391.38 166.482 1394.94 Q168.311 1398.49 171.922 1398.49 Q175.556 1398.49 177.362 1394.94 Q179.19 1391.38 179.19 1384.27 Q179.19 1377.14 177.362 1373.6 Q175.556 1370.04 171.922 1370.04 M171.922 1366.33 Q177.732 1366.33 180.788 1370.94 Q183.866 1375.52 183.866 1384.27 Q183.866 1393 180.788 1397.61 Q177.732 1402.19 171.922 1402.19 Q166.112 1402.19 163.033 1397.61 Q159.978 1393 159.978 1384.27 Q159.978 1375.52 163.033 1370.94 Q166.112 1366.33 171.922 1366.33 Z" fill="#000000" fill-rule="nonzero" fill-opacity="1" /><path clip-path="url(#clip510)" d="M128.288 1057.22 Q124.677 1057.22 122.848 1060.78 Q121.043 1064.32 121.043 1071.45 Q121.043 1078.56 122.848 1082.12 Q124.677 1085.66 128.288 1085.66 Q131.922 1085.66 133.728 1082.12 Q135.556 1078.56 135.556 1071.45 Q135.556 1064.32 133.728 1060.78 Q131.922 1057.22 128.288 1057.22 M128.288 1053.51 Q134.098 1053.51 137.154 1058.12 Q140.232 1062.7 140.232 1071.45 Q140.232 1080.18 137.154 1084.78 Q134.098 1089.37 128.288 1089.37 Q122.478 1089.37 119.399 1084.78 Q116.343 1080.18 116.343 1071.45 Q116.343 1062.7 119.399 1058.12 Q122.478 1053.51 128.288 1053.51 Z" fill="#000000" fill-rule="nonzero" fill-opacity="1" /><path clip-path="url(#clip510)" d="M148.45 1082.82 L153.334 1082.82 L153.334 1088.7 L148.45 1088.7 L148.45 1082.82 Z" fill="#000000" fill-rule="nonzero" fill-opacity="1" /><path clip-path="url(#clip510)" d="M167.547 1084.76 L183.866 1084.76 L183.866 1088.7 L161.922 1088.7 L161.922 1084.76 Q164.584 1082.01 169.167 1077.38 Q173.774 1072.72 174.954 1071.38 Q177.2 1068.86 178.079 1067.12 Q178.982 1065.36 178.982 1063.67 Q178.982 1060.92 177.038 1059.18 Q175.116 1057.45 172.014 1057.45 Q169.815 1057.45 167.362 1058.21 Q164.931 1058.97 162.153 1060.53 L162.153 1055.8 Q164.977 1054.67 167.431 1054.09 Q169.885 1053.51 171.922 1053.51 Q177.292 1053.51 180.487 1056.2 Q183.681 1058.88 183.681 1063.37 Q183.681 1065.5 182.871 1067.42 Q182.084 1069.32 179.977 1071.91 Q179.399 1072.59 176.297 1075.8 Q173.195 1079 167.547 1084.76 Z" fill="#000000" fill-rule="nonzero" fill-opacity="1" /><path clip-path="url(#clip510)" d="M126.205 744.394 Q122.593 744.394 120.765 747.959 Q118.959 751.501 118.959 758.63 Q118.959 765.737 120.765 769.301 Q122.593 772.843 126.205 772.843 Q129.839 772.843 131.644 769.301 Q133.473 765.737 133.473 758.63 Q133.473 751.501 131.644 747.959 Q129.839 744.394 126.205 744.394 M126.205 740.69 Q132.015 740.69 135.07 745.297 Q138.149 749.88 138.149 758.63 Q138.149 767.357 135.07 771.963 Q132.015 776.547 126.205 776.547 Q120.394 776.547 117.316 771.963 Q114.26 767.357 114.26 758.63 Q114.26 749.88 117.316 745.297 Q120.394 740.69 126.205 740.69 Z" fill="#000000" fill-rule="nonzero" fill-opacity="1" /><path clip-path="url(#clip510)" d="M146.366 769.996 L151.251 769.996 L151.251 775.875 L146.366 775.875 L146.366 769.996 Z" fill="#000000" fill-rule="nonzero" fill-opacity="1" /><path clip-path="url(#clip510)" d="M174.283 745.389 L162.477 763.838 L174.283 763.838 L174.283 745.389 M173.056 741.315 L178.936 741.315 L178.936 763.838 L183.866 763.838 L183.866 767.727 L178.936 767.727 L178.936 775.875 L174.283 775.875 L174.283 767.727 L158.681 767.727 L158.681 763.213 L173.056 741.315 Z" fill="#000000" fill-rule="nonzero" fill-opacity="1" /><path clip-path="url(#clip510)" d="M126.529 431.573 Q122.918 431.573 121.089 435.137 Q119.283 438.679 119.283 445.809 Q119.283 452.915 121.089 456.48 Q122.918 460.022 126.529 460.022 Q130.163 460.022 131.968 456.48 Q133.797 452.915 133.797 445.809 Q133.797 438.679 131.968 435.137 Q130.163 431.573 126.529 431.573 M126.529 427.869 Q132.339 427.869 135.394 432.475 Q138.473 437.059 138.473 445.809 Q138.473 454.535 135.394 459.142 Q132.339 463.725 126.529 463.725 Q120.718 463.725 117.64 459.142 Q114.584 454.535 114.584 445.809 Q114.584 437.059 117.64 432.475 Q120.718 427.869 126.529 427.869 Z" fill="#000000" fill-rule="nonzero" fill-opacity="1" /><path clip-path="url(#clip510)" d="M146.691 457.174 L151.575 457.174 L151.575 463.054 L146.691 463.054 L146.691 457.174 Z" fill="#000000" fill-rule="nonzero" fill-opacity="1" /><path clip-path="url(#clip510)" d="M172.339 443.911 Q169.19 443.911 167.339 446.063 Q165.51 448.216 165.51 451.966 Q165.51 455.693 167.339 457.869 Q169.19 460.022 172.339 460.022 Q175.487 460.022 177.315 457.869 Q179.167 455.693 179.167 451.966 Q179.167 448.216 177.315 446.063 Q175.487 443.911 172.339 443.911 M181.621 429.258 L181.621 433.517 Q179.862 432.684 178.056 432.244 Q176.274 431.804 174.514 431.804 Q169.885 431.804 167.431 434.929 Q165.001 438.054 164.653 444.373 Q166.019 442.36 168.079 441.295 Q170.139 440.207 172.616 440.207 Q177.825 440.207 180.834 443.378 Q183.866 446.526 183.866 451.966 Q183.866 457.29 180.718 460.508 Q177.57 463.725 172.339 463.725 Q166.343 463.725 163.172 459.142 Q160.001 454.535 160.001 445.809 Q160.001 437.614 163.89 432.753 Q167.778 427.869 174.329 427.869 Q176.089 427.869 177.871 428.216 Q179.676 428.563 181.621 429.258 Z" fill="#000000" fill-rule="nonzero" fill-opacity="1" /><path clip-path="url(#clip510)" d="M126.783 118.751 Q123.172 118.751 121.343 122.316 Q119.538 125.858 119.538 132.987 Q119.538 140.094 121.343 143.658 Q123.172 147.2 126.783 147.2 Q130.417 147.2 132.223 143.658 Q134.052 140.094 134.052 132.987 Q134.052 125.858 132.223 122.316 Q130.417 118.751 126.783 118.751 M126.783 115.047 Q132.593 115.047 135.649 119.654 Q138.728 124.237 138.728 132.987 Q138.728 141.714 135.649 146.32 Q132.593 150.904 126.783 150.904 Q120.973 150.904 117.894 146.32 Q114.839 141.714 114.839 132.987 Q114.839 124.237 117.894 119.654 Q120.973 115.047 126.783 115.047 Z" fill="#000000" fill-rule="nonzero" fill-opacity="1" /><path clip-path="url(#clip510)" d="M146.945 144.353 L151.829 144.353 L151.829 150.232 L146.945 150.232 L146.945 144.353 Z" fill="#000000" fill-rule="nonzero" fill-opacity="1" /><path clip-path="url(#clip510)" d="M172.014 133.821 Q168.681 133.821 166.76 135.603 Q164.862 137.385 164.862 140.51 Q164.862 143.635 166.76 145.418 Q168.681 147.2 172.014 147.2 Q175.348 147.2 177.269 145.418 Q179.19 143.612 179.19 140.51 Q179.19 137.385 177.269 135.603 Q175.371 133.821 172.014 133.821 M167.339 131.83 Q164.329 131.089 162.64 129.029 Q160.973 126.969 160.973 124.006 Q160.973 119.862 163.913 117.455 Q166.876 115.047 172.014 115.047 Q177.176 115.047 180.116 117.455 Q183.056 119.862 183.056 124.006 Q183.056 126.969 181.366 129.029 Q179.7 131.089 176.714 131.83 Q180.093 132.617 181.968 134.908 Q183.866 137.2 183.866 140.51 Q183.866 145.533 180.788 148.219 Q177.732 150.904 172.014 150.904 Q166.297 150.904 163.218 148.219 Q160.163 145.533 160.163 140.51 Q160.163 137.2 162.061 134.908 Q163.959 132.617 167.339 131.83 M165.626 124.446 Q165.626 127.131 167.292 128.635 Q168.982 130.14 172.014 130.14 Q175.024 130.14 176.714 128.635 Q178.426 127.131 178.426 124.446 Q178.426 121.76 176.714 120.256 Q175.024 118.751 172.014 118.751 Q168.982 118.751 167.292 120.256 Q165.626 121.76 165.626 124.446 Z" fill="#000000" fill-rule="nonzero" fill-opacity="1" /><path clip-path="url(#clip510)" d="M21.7677 907.197 L39.6235 907.197 L39.6235 899.113 Q39.6235 894.625 37.3 892.174 Q34.9765 889.724 30.6797 889.724 Q26.4147 889.724 24.0912 892.174 Q21.7677 894.625 21.7677 899.113 L21.7677 907.197 M16.4842 913.627 L16.4842 899.113 Q16.4842 891.124 20.1126 887.05 Q23.7092 882.944 30.6797 882.944 Q37.7138 882.944 41.3104 887.05 Q44.907 891.124 44.907 899.113 L44.907 907.197 L64.0042 907.197 L64.0042 913.627 L16.4842 913.627 Z" fill="#000000" fill-rule="nonzero" fill-opacity="1" /><path clip-path="url(#clip510)" d="M44.7161 846.405 L47.5806 846.405 L47.5806 873.332 Q53.6281 872.95 56.8109 869.703 Q59.9619 866.425 59.9619 860.6 Q59.9619 857.227 59.1344 854.076 Q58.3069 850.893 56.6518 847.774 L62.1899 847.774 Q63.5267 850.925 64.227 854.235 Q64.9272 857.545 64.9272 860.951 Q64.9272 869.481 59.9619 874.478 Q54.9967 879.443 46.5303 879.443 Q37.7774 879.443 32.6531 874.732 Q27.4968 869.99 27.4968 861.969 Q27.4968 854.776 32.1438 850.606 Q36.7589 846.405 44.7161 846.405 M42.9973 852.261 Q38.1912 852.325 35.3266 854.967 Q32.4621 857.577 32.4621 861.905 Q32.4621 866.807 35.2312 869.767 Q38.0002 872.695 43.0292 873.141 L42.9973 852.261 Z" fill="#000000" fill-rule="nonzero" fill-opacity="1" /><path clip-path="url(#clip510)" d="M33.8307 816.136 Q33.2578 817.123 33.0032 818.3 Q32.7167 819.446 32.7167 820.847 Q32.7167 825.812 35.9632 828.485 Q39.1779 831.127 45.2253 831.127 L64.0042 831.127 L64.0042 837.016 L28.3562 837.016 L28.3562 831.127 L33.8944 831.127 Q30.6479 829.281 29.0883 826.321 Q27.4968 823.361 27.4968 819.128 Q27.4968 818.523 27.5923 817.791 Q27.656 817.059 27.8151 816.168 L33.8307 816.136 Z" fill="#000000" fill-rule="nonzero" fill-opacity="1" /><path clip-path="url(#clip510)" d="M29.7248 785.772 L35.1993 785.772 Q33.8307 788.254 33.1623 790.769 Q32.4621 793.251 32.4621 795.798 Q32.4621 801.495 36.0905 804.646 Q39.6872 807.797 46.212 807.797 Q52.7369 807.797 56.3653 804.646 Q59.9619 801.495 59.9619 795.798 Q59.9619 793.251 59.2935 790.769 Q58.5933 788.254 57.2247 785.772 L62.6355 785.772 Q63.7814 788.222 64.3543 790.864 Q64.9272 793.474 64.9272 796.434 Q64.9272 804.487 59.8664 809.229 Q54.8057 813.972 46.212 813.972 Q37.491 813.972 32.4939 809.197 Q27.4968 804.391 27.4968 796.052 Q27.4968 793.347 28.0697 790.769 Q28.6108 788.191 29.7248 785.772 Z" fill="#000000" fill-rule="nonzero" fill-opacity="1" /><path clip-path="url(#clip510)" d="M44.7161 745.095 L47.5806 745.095 L47.5806 772.022 Q53.6281 771.64 56.8109 768.393 Q59.9619 765.115 59.9619 759.29 Q59.9619 755.916 59.1344 752.765 Q58.3069 749.583 56.6518 746.463 L62.1899 746.463 Q63.5267 749.614 64.227 752.925 Q64.9272 756.235 64.9272 759.64 Q64.9272 768.17 59.9619 773.167 Q54.9967 778.133 46.5303 778.133 Q37.7774 778.133 32.6531 773.422 Q27.4968 768.68 27.4968 760.659 Q27.4968 753.466 32.1438 749.296 Q36.7589 745.095 44.7161 745.095 M42.9973 750.951 Q38.1912 751.015 35.3266 753.657 Q32.4621 756.267 32.4621 760.595 Q32.4621 765.497 35.2312 768.457 Q38.0002 771.385 43.0292 771.831 L42.9973 750.951 Z" fill="#000000" fill-rule="nonzero" fill-opacity="1" /><path clip-path="url(#clip510)" d="M42.4881 705.85 L64.0042 705.85 L64.0042 711.707 L42.679 711.707 Q37.6183 711.707 35.1038 713.68 Q32.5894 715.653 32.5894 719.6 Q32.5894 724.343 35.6131 727.08 Q38.6368 729.817 43.8567 729.817 L64.0042 729.817 L64.0042 735.705 L28.3562 735.705 L28.3562 729.817 L33.8944 729.817 Q30.6797 727.716 29.0883 724.884 Q27.4968 722.019 27.4968 718.295 Q27.4968 712.152 31.3163 709.001 Q35.1038 705.85 42.4881 705.85 Z" fill="#000000" fill-rule="nonzero" fill-opacity="1" /><path clip-path="url(#clip510)" d="M18.2347 688.376 L28.3562 688.376 L28.3562 676.313 L32.9077 676.313 L32.9077 688.376 L52.2594 688.376 Q56.6199 688.376 57.8613 687.199 Q59.1026 685.989 59.1026 682.329 L59.1026 676.313 L64.0042 676.313 L64.0042 682.329 Q64.0042 689.108 61.4897 691.686 Q58.9434 694.265 52.2594 694.265 L32.9077 694.265 L32.9077 698.561 L28.3562 698.561 L28.3562 694.265 L18.2347 694.265 L18.2347 688.376 Z" fill="#000000" fill-rule="nonzero" fill-opacity="1" /><path clip-path="url(#clip510)" d="M46.0847 652.41 Q46.0847 659.508 47.7079 662.245 Q49.3312 664.982 53.2461 664.982 Q56.3653 664.982 58.2114 662.945 Q60.0256 660.876 60.0256 657.343 Q60.0256 652.474 56.5881 649.545 Q53.1188 646.585 47.3897 646.585 L46.0847 646.585 L46.0847 652.41 M43.6657 640.729 L64.0042 640.729 L64.0042 646.585 L58.5933 646.585 Q61.8398 648.591 63.3994 651.582 Q64.9272 654.574 64.9272 658.903 Q64.9272 664.378 61.8716 667.624 Q58.7843 670.839 53.6281 670.839 Q47.6125 670.839 44.5569 666.828 Q41.5014 662.786 41.5014 654.797 L41.5014 646.585 L40.9285 646.585 Q36.8862 646.585 34.6901 649.259 Q32.4621 651.901 32.4621 656.707 Q32.4621 659.762 33.1941 662.659 Q33.9262 665.555 35.3903 668.229 L29.9795 668.229 Q28.7381 665.014 28.1334 661.99 Q27.4968 658.967 27.4968 656.102 Q27.4968 648.368 31.5072 644.548 Q35.5176 640.729 43.6657 640.729 Z" fill="#000000" fill-rule="nonzero" fill-opacity="1" /><path clip-path="url(#clip510)" d="M45.7664 605.208 Q39.4007 605.208 35.8996 607.85 Q32.3984 610.46 32.3984 615.202 Q32.3984 619.913 35.8996 622.555 Q39.4007 625.165 45.7664 625.165 Q52.1003 625.165 55.6014 622.555 Q59.1026 619.913 59.1026 615.202 Q59.1026 610.46 55.6014 607.85 Q52.1003 605.208 45.7664 605.208 M59.58 599.352 Q68.683 599.352 73.1071 603.394 Q77.5631 607.436 77.5631 615.775 Q77.5631 618.863 77.0857 621.6 Q76.6401 624.337 75.6852 626.915 L69.9879 626.915 Q71.3884 624.337 72.0568 621.823 Q72.7252 619.308 72.7252 616.698 Q72.7252 610.937 69.7015 608.073 Q66.7096 605.208 60.6303 605.208 L57.7339 605.208 Q60.885 607.023 62.4446 609.855 Q64.0042 612.688 64.0042 616.635 Q64.0042 623.191 59.0071 627.202 Q54.01 631.212 45.7664 631.212 Q37.491 631.212 32.4939 627.202 Q27.4968 623.191 27.4968 616.635 Q27.4968 612.688 29.0564 609.855 Q30.616 607.023 33.7671 605.208 L28.3562 605.208 L28.3562 599.352 L59.58 599.352 Z" fill="#000000" fill-rule="nonzero" fill-opacity="1" /><path clip-path="url(#clip510)" d="M44.7161 556.797 L47.5806 556.797 L47.5806 583.724 Q53.6281 583.342 56.8109 580.096 Q59.9619 576.817 59.9619 570.993 Q59.9619 567.619 59.1344 564.468 Q58.3069 561.285 56.6518 558.166 L62.1899 558.166 Q63.5267 561.317 64.227 564.627 Q64.9272 567.937 64.9272 571.343 Q64.9272 579.873 59.9619 584.87 Q54.9967 589.835 46.5303 589.835 Q37.7774 589.835 32.6531 585.125 Q27.4968 580.382 27.4968 572.361 Q27.4968 565.168 32.1438 560.998 Q36.7589 556.797 44.7161 556.797 M42.9973 562.654 Q38.1912 562.717 35.3266 565.359 Q32.4621 567.969 32.4621 572.298 Q32.4621 577.199 35.2312 580.159 Q38.0002 583.087 43.0292 583.533 L42.9973 562.654 Z" fill="#000000" fill-rule="nonzero" fill-opacity="1" /><polyline clip-path="url(#clip512)" style="stroke:#009af9; stroke-linecap:round; stroke-linejoin:round; stroke-width:4; stroke-opacity:1; fill:none" points="280.231,1384.24 282.245,596.867 284.259,607.815 286.274,426.379 288.288,307.82 290.302,264.963 292.316,215.381 294.33,184.255 296.344,144.058 298.359,118.563 300.373,100.888 302.387,95.2575 304.401,88.3754 306.415,88.6882 308.43,86.1857 310.444,88.8447 312.458,94.4754 314.472,87.437 316.486,88.3754 318.5,87.437 320.515,95.2575 322.529,92.9113 324.543,101.201 326.557,112.619 328.571,121.222 330.585,128.886 332.6,136.081 334.614,152.191 336.628,156.727 338.642,169.865 340.656,176.122 342.67,182.378 344.685,183.786 346.699,191.763 348.713,196.924 350.727,200.835 352.741,209.437 354.756,212.409 356.77,219.76 358.784,224.453 360.798,234.619 362.812,244.317 364.826,253.858 366.841,261.679 368.855,267.153 370.869,279.509 372.883,289.207 374.897,293.43 376.911,302.658 378.926,309.697 380.94,320.958 382.954,329.874 384.968,334.566 386.982,340.979 388.996,350.52 391.011,357.245 393.025,364.597 395.039,373.199 397.053,377.892 399.067,378.987 401.082,382.897 403.096,389.622 405.11,393.533 407.124,396.348 409.138,396.817 411.152,403.074 413.167,406.671 415.181,411.051 417.195,413.397 419.209,419.184 421.223,422.938 423.237,423.876 425.252,428.725 427.266,432.166 429.28,432.479 431.294,437.641 433.308,442.176 435.322,445.93 437.337,447.651 439.351,450.935 441.365,455.002 443.379,456.879 445.393,460.007 447.408,463.761 449.422,468.453 451.436,472.989 453.45,475.336 455.464,479.246 457.478,483.469 459.493,486.91 461.507,489.725 463.521,494.261 465.535,498.015 467.549,501.613 469.563,505.992 471.578,509.902 473.592,513.969 475.606,517.879 477.62,521.633 479.634,525.074 481.648,527.42 483.663,531.174 485.677,536.336 487.691,540.402 489.705,541.497 491.719,546.659 493.734,550.256 495.748,554.949 497.762,558.077 499.776,562.613 501.79,565.115 503.804,567.461 505.819,571.528 507.833,574.813 509.847,576.377 511.861,580.287 513.875,581.538 515.889,584.51 517.904,587.638 519.918,590.141 521.932,594.99 523.946,597.962 525.96,601.246 527.974,602.654 529.989,606.251 532.003,607.346 534.017,611.256 536.031,612.977 538.045,616.105 540.06,619.859 542.074,622.674 544.088,625.803 546.102,628.305 548.116,630.339 550.13,634.092 552.145,636.751 554.159,639.567 556.173,643.79 558.187,644.885 560.201,649.421 562.215,652.236 564.23,654.269 566.244,657.241 568.258,660.682 570.272,663.185 572.286,666.313 574.301,669.598 576.315,672.413 578.329,674.759 580.343,677.418 582.357,681.485 584.371,683.675 586.386,687.116 588.4,688.836 590.414,691.339 592.428,695.093 594.442,698.221 596.456,700.411 598.471,702.757 600.485,704.477 602.499,707.762 604.513,709.952 606.527,714.175 608.541,716.052 610.556,718.085 612.57,719.336 614.584,723.716 616.598,725.906 618.612,728.252 620.627,731.536 622.641,734.665 624.655,737.011 626.669,738.888 628.683,741.39 630.697,744.049 632.712,745.613 634.726,748.429 636.74,750.306 638.754,752.339 640.768,755.936 642.782,758.908 644.797,761.098 646.811,764.383 648.825,766.885 650.839,768.918 652.853,770.952 654.867,772.829 656.882,774.706 658.896,776.583 660.91,778.772 662.924,780.493 664.938,782.213 666.953,784.716 668.967,786.906 670.981,788.939 672.995,792.536 675.009,794.257 677.023,795.508 679.038,798.324 681.052,800.201 683.066,802.234 685.08,805.206 687.094,806.613 689.108,808.021 691.123,809.116 693.137,811.306 695.151,814.121 697.165,815.842 699.179,818.344 701.193,821.785 703.208,824.444 705.222,826.947 707.236,829.606 709.25,831.483 711.264,833.36 713.279,834.924 715.293,837.896 717.307,838.521 719.321,840.398 721.335,842.744 723.349,844.621 725.364,847.28 727.378,850.408 729.392,853.067 731.406,854.632 733.42,857.291 735.434,859.637 737.449,861.514 739.463,863.234 741.477,864.955 743.491,865.893 745.505,866.988 747.519,868.552 749.534,870.585 751.548,872.775 753.562,874.183 755.576,876.216 757.59,878.719 759.605,879.97 761.619,881.378 763.633,883.724 765.647,885.132 767.661,887.791 769.675,889.355 771.69,891.075 773.704,892.17 775.718,893.891 777.732,895.298 779.746,896.55 781.76,896.706 783.775,897.175 785.789,898.114 787.803,899.365 789.817,901.242 791.831,901.868 793.845,902.65 795.86,903.119 797.874,903.901 799.888,904.214 801.902,904.527 803.916,904.996 805.931,905.621 807.945,906.716 809.959,907.811 811.973,907.811 813.987,907.968 816.001,907.968 818.016,908.437 820.03,908.593 822.044,909.375 824.058,909.532 826.072,909.845 828.086,910.157 830.101,910.157 832.115,910.47 834.129,910.47 836.143,910.627 838.157,910.627 840.171,910.627 842.186,910.627 844.2,910.627 846.214,910.627 848.228,910.627 850.242,910.627 852.257,910.627 854.271,910.627 856.285,910.627 858.299,910.627 860.313,910.627 862.327,911.096 864.342,911.409 866.356,911.409 868.37,911.409 870.384,911.409 872.398,911.565 874.412,911.721 876.427,911.721 878.441,911.878 880.455,912.034 882.469,912.034 884.483,912.191 886.498,912.66 888.512,912.973 890.526,913.286 892.54,913.598 894.554,913.598 896.568,913.755 898.583,913.755 900.597,914.068 902.611,914.537 904.625,915.006 906.639,915.945 908.653,916.257 910.668,916.883 912.682,917.665 914.696,917.978 916.71,918.604 918.724,919.542 920.738,920.324 922.753,920.793 924.767,920.793 926.781,921.575 928.795,922.983 930.809,922.983 932.824,923.609 934.838,924.547 936.852,924.86 938.866,925.329 940.88,926.424 942.894,926.737 944.909,927.519 946.923,928.301 948.937,929.396 950.951,929.865 952.965,930.491 954.979,931.273 956.994,931.742 959.008,932.368 961.022,932.681 963.036,933.619 965.05,933.932 967.064,935.027 969.079,935.965 971.093,937.06 973.107,937.216 975.121,937.842 977.135,938.624 979.15,939.406 981.164,939.719 983.178,940.657 985.192,940.814 987.206,940.814 989.22,941.283 991.235,942.222 993.249,943.004 995.263,943.629 997.277,944.255 999.291,945.193 1001.31,945.663 1003.32,946.445 1005.33,947.696 1007.35,948.322 1009.36,949.104 1011.38,949.573 1013.39,951.137 1015.4,951.763 1017.42,951.919 1019.43,953.327 1021.45,953.64 1023.46,954.578 1025.48,955.516 1027.49,955.986 1029.5,956.611 1031.52,957.863 1033.53,958.645 1035.55,959.427 1037.56,960.052 1039.57,960.522 1041.59,961.46 1043.6,961.929 1045.62,962.242 1047.63,962.555 1049.65,962.711 1051.66,963.181 1053.67,964.275 1055.69,965.214 1057.7,965.84 1059.72,966.152 1061.73,966.934 1063.74,967.404 1065.76,968.342 1067.77,968.811 1069.79,969.75 1071.8,970.063 1073.82,971.001 1075.83,972.252 1077.84,972.722 1079.86,973.817 1081.87,974.442 1083.89,975.537 1085.9,976.163 1087.91,976.632 1089.93,977.414 1091.94,978.352 1093.96,978.509 1095.97,978.978 1097.99,979.291 1100,979.917 1102.01,980.386 1104.03,980.855 1106.04,981.481 1108.06,982.576 1110.07,983.045 1112.09,983.358 1114.1,983.827 1116.11,984.296 1118.13,984.609 1120.14,984.922 1122.16,985.235 1124.17,985.86 1126.18,987.268 1128.2,987.737 1130.21,988.206 1132.23,988.363 1134.24,988.519 1136.26,988.832 1138.27,989.614 1140.28,989.927 1142.3,990.24 1144.31,990.396 1146.33,991.647 1148.34,992.273 1150.35,992.899 1152.37,993.524 1154.38,993.524 1156.4,994.15 1158.41,994.619 1160.43,994.932 1162.44,996.183 1164.45,996.652 1166.47,997.591 1168.48,997.904 1170.5,998.373 1172.51,998.999 1174.52,999.781 1176.54,1000.25 1178.55,1000.88 1180.57,1001.03 1182.58,1001.81 1184.6,1002.13 1186.61,1002.75 1188.62,1002.91 1190.64,1003.38 1192.65,1003.53 1194.67,1004 1196.68,1004.32 1198.69,1004.79 1200.71,1005.57 1202.72,1006.04 1204.74,1006.51 1206.75,1007.13 1208.77,1007.76 1210.78,1008.07 1212.79,1008.54 1214.81,1009.01 1216.82,1009.01 1218.84,1009.32 1220.85,1010.57 1222.86,1011.04 1224.88,1011.51 1226.89,1011.82 1228.91,1012.14 1230.92,1012.45 1232.94,1013.54 1234.95,1013.7 1236.96,1014.17 1238.98,1014.95 1240.99,1015.27 1243.01,1015.89 1245.02,1016.83 1247.03,1017.46 1249.05,1017.77 1251.06,1018.24 1253.08,1019.18 1255.09,1019.64 1257.11,1020.43 1259.12,1020.9 1261.13,1020.9 1263.15,1021.68 1265.16,1021.83 1267.18,1022.3 1269.19,1022.62 1271.2,1022.77 1273.22,1024.02 1275.23,1024.02 1277.25,1024.49 1279.26,1024.81 1281.28,1024.81 1283.29,1024.96 1285.3,1025.43 1287.32,1025.43 1289.33,1025.59 1291.35,1025.9 1293.36,1026.53 1295.37,1026.84 1297.39,1027.31 1299.4,1027.31 1301.42,1027.31 1303.43,1027.31 1305.45,1027.62 1307.46,1027.93 1309.47,1028.25 1311.49,1028.25 1313.5,1028.56 1315.52,1028.72 1317.53,1029.03 1319.54,1029.19 1321.56,1029.19 1323.57,1029.5 1325.59,1029.66 1327.6,1029.66 1329.62,1029.66 1331.63,1029.81 1333.64,1030.12 1335.66,1030.44 1337.67,1030.75 1339.69,1030.75 1341.7,1030.91 1343.72,1031.06 1345.73,1031.22 1347.74,1031.22 1349.76,1031.22 1351.77,1031.22 1353.79,1031.22 1355.8,1031.22 1357.81,1031.22 1359.83,1031.38 1361.84,1031.53 1363.86,1031.53 1365.87,1031.53 1367.89,1031.53 1369.9,1031.53 1371.91,1031.53 1373.93,1031.53 1375.94,1031.69 1377.96,1031.69 1379.97,1031.69 1381.98,1031.69 1384,1031.69 1386.01,1031.69 1388.03,1031.69 1390.04,1031.69 1392.06,1031.69 1394.07,1031.69 1396.08,1031.69 1398.1,1031.69 1400.11,1031.69 1402.13,1031.69 1404.14,1031.69 1406.15,1031.69 1408.17,1031.69 1410.18,1031.69 1412.2,1031.69 1414.21,1031.69 1416.23,1031.69 1418.24,1031.69 1420.25,1031.69 1422.27,1031.69 1424.28,1031.69 1426.3,1031.69 1428.31,1031.69 1430.32,1031.69 1432.34,1031.69 1434.35,1031.69 1436.37,1031.69 1438.38,1031.69 1440.4,1031.69 1442.41,1031.69 1444.42,1031.69 1446.44,1031.69 1448.45,1031.69 1450.47,1031.69 1452.48,1031.69 1454.49,1031.69 1456.51,1031.69 1458.52,1031.69 1460.54,1031.69 1462.55,1031.69 1464.57,1031.69 1466.58,1031.69 1468.59,1031.69 1470.61,1031.69 1472.62,1031.69 1474.64,1031.69 1476.65,1031.69 1478.66,1031.69 1480.68,1031.69 1482.69,1031.69 1484.71,1031.69 1486.72,1031.69 1488.74,1031.69 1490.75,1031.69 1492.76,1031.69 1494.78,1031.69 1496.79,1031.69 1498.81,1031.69 1500.82,1031.69 1502.83,1031.69 1504.85,1031.69 1506.86,1031.69 1508.88,1031.69 1510.89,1031.69 1512.91,1031.69 1514.92,1031.69 1516.93,1031.69 1518.95,1031.69 1520.96,1031.69 1522.98,1031.69 1524.99,1031.69 1527,1031.69 1529.02,1031.69 1531.03,1031.69 1533.05,1031.69 1535.06,1031.69 1537.08,1031.69 1539.09,1031.69 1541.1,1031.69 1543.12,1031.69 1545.13,1031.69 1547.15,1031.69 1549.16,1031.69 1551.17,1031.69 1553.19,1031.69 1555.2,1031.69 1557.22,1031.69 1559.23,1031.69 1561.25,1031.69 1563.26,1031.69 1565.27,1031.69 1567.29,1031.69 1569.3,1031.69 1571.32,1031.69 1573.33,1031.69 1575.35,1031.69 1577.36,1031.69 1579.37,1031.69 1581.39,1031.69 1583.4,1031.69 1585.42,1031.69 1587.43,1031.69 1589.44,1031.69 1591.46,1031.69 1593.47,1031.69 1595.49,1031.69 1597.5,1031.69 1599.52,1031.69 1601.53,1031.69 1603.54,1031.69 1605.56,1031.69 1607.57,1031.69 1609.59,1031.69 1611.6,1031.69 1613.61,1031.69 1615.63,1031.69 1617.64,1031.69 1619.66,1031.69 1621.67,1031.69 1623.69,1031.69 1625.7,1031.69 1627.71,1031.69 1629.73,1031.69 1631.74,1031.69 1633.76,1031.69 1635.77,1031.69 1637.78,1031.69 1639.8,1031.69 1641.81,1031.69 1643.83,1031.69 1645.84,1031.69 1647.86,1031.69 1649.87,1031.69 1651.88,1031.69 1653.9,1031.69 1655.91,1031.69 1657.93,1031.69 1659.94,1031.69 1661.95,1031.69 1663.97,1031.69 1665.98,1031.69 1668,1031.69 1670.01,1031.69 1672.03,1031.69 1674.04,1031.69 1676.05,1031.69 1678.07,1031.69 1680.08,1031.69 1682.1,1031.69 1684.11,1031.69 1686.12,1031.69 1688.14,1031.69 1690.15,1031.69 1692.17,1031.69 1694.18,1031.69 1696.2,1031.69 1698.21,1031.69 1700.22,1031.69 1702.24,1031.69 1704.25,1031.69 1706.27,1031.69 1708.28,1031.69 1710.29,1031.69 1712.31,1031.69 1714.32,1031.69 1716.34,1031.69 1718.35,1031.69 1720.37,1031.69 1722.38,1031.69 1724.39,1031.69 1726.41,1031.69 1728.42,1031.69 1730.44,1031.69 1732.45,1031.69 1734.46,1031.69 1736.48,1031.69 1738.49,1031.69 1740.51,1031.69 1742.52,1031.69 1744.54,1031.69 1746.55,1031.69 1748.56,1031.69 1750.58,1031.69 1752.59,1031.69 1754.61,1031.69 1756.62,1031.69 1758.63,1031.69 1760.65,1031.69 1762.66,1031.69 1764.68,1031.69 1766.69,1031.69 1768.71,1031.69 1770.72,1031.69 1772.73,1031.69 1774.75,1031.69 1776.76,1031.69 1778.78,1031.69 1780.79,1031.69 1782.81,1031.69 1784.82,1031.69 1786.83,1031.69 1788.85,1031.69 1790.86,1031.69 1792.88,1031.69 1794.89,1031.69 1796.9,1031.69 1798.92,1031.69 1800.93,1031.69 1802.95,1031.69 1804.96,1031.69 1806.98,1031.69 1808.99,1031.69 1811,1031.69 1813.02,1031.69 1815.03,1031.69 1817.05,1031.69 1819.06,1031.69 1821.07,1031.69 1823.09,1031.69 1825.1,1031.69 1827.12,1031.69 1829.13,1031.69 1831.15,1031.69 1833.16,1031.69 1835.17,1031.69 1837.19,1031.69 1839.2,1031.69 1841.22,1031.69 1843.23,1031.69 1845.24,1031.69 1847.26,1031.69 1849.27,1031.69 1851.29,1031.69 1853.3,1031.84 1855.32,1031.84 1857.33,1031.84 1859.34,1031.84 1861.36,1031.84 1863.37,1031.84 1865.39,1032 1867.4,1032 1869.41,1032.16 1871.43,1032.16 1873.44,1032.16 1875.46,1032.16 1877.47,1032.16 1879.49,1032.16 1881.5,1032.31 1883.51,1032.31 1885.53,1032.31 1887.54,1032.47 1889.56,1032.47 1891.57,1032.47 1893.58,1032.47 1895.6,1032.47 1897.61,1032.63 1899.63,1032.63 1901.64,1032.63 1903.66,1032.63 1905.67,1032.78 1907.68,1032.78 1909.7,1032.78 1911.71,1032.94 1913.73,1033.1 1915.74,1033.41 1917.75,1033.41 1919.77,1033.57 1921.78,1033.57 1923.8,1033.72 1925.81,1033.88 1927.83,1033.88 1929.84,1034.03 1931.85,1034.03 1933.87,1034.03 1935.88,1034.19 1937.9,1034.19 1939.91,1034.35 1941.92,1034.35 1943.94,1034.35 1945.95,1034.5 1947.97,1034.82 1949.98,1035.13 1952,1035.29 1954.01,1035.44 1956.02,1035.44 1958.04,1035.6 1960.05,1035.91 1962.07,1036.07 1964.08,1036.07 1966.09,1036.22 1968.11,1036.22 1970.12,1036.22 1972.14,1036.54 1974.15,1036.85 1976.17,1036.85 1978.18,1037.16 1980.19,1037.32 1982.21,1037.48 1984.22,1037.48 1986.24,1037.48 1988.25,1037.48 1990.26,1037.63 1992.28,1037.63 1994.29,1037.63 1996.31,1037.63 1998.32,1037.79 2000.34,1037.94 2002.35,1037.94 2004.36,1038.1 2006.38,1038.1 2008.39,1038.1 2010.41,1038.26 2012.42,1038.41 2014.44,1038.41 2016.45,1038.57 2018.46,1038.73 2020.48,1038.88 2022.49,1039.51 2024.51,1039.51 2026.52,1039.51 2028.53,1039.82 2030.55,1039.82 2032.56,1039.82 2034.58,1039.98 2036.59,1040.13 2038.61,1040.13 2040.62,1040.13 2042.63,1040.13 2044.65,1040.29 2046.66,1040.29 2048.68,1040.29 2050.69,1040.6 2052.7,1040.76 2054.72,1040.76 2056.73,1040.92 2058.75,1041.07 2060.76,1041.23 2062.78,1041.39 2064.79,1041.54 2066.8,1041.54 2068.82,1041.54 2070.83,1041.54 2072.85,1041.7 2074.86,1041.86 2076.87,1041.86 2078.89,1042.01 2080.9,1042.17 2082.92,1042.32 2084.93,1042.64 2086.95,1042.79 2088.96,1042.79 2090.97,1042.95 2092.99,1043.11 2095,1043.11 2097.02,1043.11 2099.03,1043.11 2101.04,1043.11 2103.06,1043.26 2105.07,1043.26 2107.09,1043.26 2109.1,1043.26 2111.12,1043.42 2113.13,1043.58 2115.14,1043.89 2117.16,1043.89 2119.17,1044.04 2121.19,1044.2 2123.2,1044.67 2125.21,1044.67 2127.23,1044.83 2129.24,1044.83 2131.26,1045.3 2133.27,1045.45 2135.29,1045.45 2137.3,1045.61 2139.31,1045.61 2141.33,1045.61 2143.34,1045.61 2145.36,1045.61 2147.37,1045.92 2149.38,1045.92 2151.4,1045.92 2153.41,1046.08 2155.43,1046.08 2157.44,1046.23 2159.46,1046.23 2161.47,1046.23 2163.48,1046.39 2165.5,1046.39 2167.51,1046.39 2169.53,1046.55 2171.54,1046.7 2173.55,1046.86 2175.57,1046.86 2177.58,1047.02 2179.6,1047.17 2181.61,1047.17 2183.63,1047.49 2185.64,1047.49 2187.65,1047.64 2189.67,1047.8 2191.68,1047.8 2193.7,1048.11 2195.71,1048.11 2197.72,1048.11 2199.74,1048.27 2201.75,1048.27 2203.77,1048.42 2205.78,1048.58 2207.8,1049.05 2209.81,1049.05 2211.82,1049.21 2213.84,1049.36 2215.85,1049.36 2217.87,1049.36 2219.88,1049.36 2221.9,1049.36 2223.91,1049.36 2225.92,1049.36 2227.94,1049.36 2229.95,1049.52 2231.97,1049.52 2233.98,1049.52 2235.99,1049.83 2238.01,1049.99 2240.02,1050.14 2242.04,1050.14 2244.05,1050.14 2246.07,1050.14 2248.08,1050.14 2250.09,1050.3 2252.11,1050.3 2254.12,1050.61 2256.14,1050.61 2258.15,1050.93 2260.16,1050.93 2262.18,1051.08 2264.19,1051.08 2266.21,1051.4 2268.22,1051.4 2270.24,1051.71 2272.25,1051.87 2274.26,1052.02 2276.28,1052.02 2278.29,1052.02 2280.31,1052.02 2282.32,1052.02 2284.33,1052.02 2286.35,1052.18 2288.36,1052.18 2290.38,1052.49 2292.39,1052.49 "/>
<path clip-path="url(#clip510)" d="M789.165 196.789 L2281.66 196.789 L2281.66 93.1086 L789.165 93.1086  Z" fill="#ffffff" fill-rule="evenodd" fill-opacity="1"/>
<polyline clip-path="url(#clip510)" style="stroke:#000000; stroke-linecap:round; stroke-linejoin:round; stroke-width:4; stroke-opacity:1; fill:none" points="789.165,196.789 2281.66,196.789 2281.66,93.1086 789.165,93.1086 789.165,196.789 "/>
<polyline clip-path="url(#clip510)" style="stroke:#009af9; stroke-linecap:round; stroke-linejoin:round; stroke-width:4; stroke-opacity:1; fill:none" points="812.863,144.949 955.056,144.949 "/>
<path clip-path="url(#clip510)" d="M983.431 131.511 L983.431 144.497 L989.31 144.497 Q992.574 144.497 994.356 142.807 Q996.139 141.118 996.139 137.993 Q996.139 134.891 994.356 133.201 Q992.574 131.511 989.31 131.511 L983.431 131.511 M978.755 127.669 L989.31 127.669 Q995.12 127.669 998.083 130.307 Q1001.07 132.923 1001.07 137.993 Q1001.07 143.108 998.083 145.724 Q995.12 148.34 989.31 148.34 L983.431 148.34 L983.431 162.229 L978.755 162.229 L978.755 127.669 Z" fill="#000000" fill-rule="nonzero" fill-opacity="1" /><path clip-path="url(#clip510)" d="M1027.64 148.201 L1027.64 150.284 L1008.06 150.284 Q1008.34 154.682 1010.7 156.997 Q1013.08 159.289 1017.32 159.289 Q1019.77 159.289 1022.06 158.687 Q1024.38 158.085 1026.65 156.881 L1026.65 160.909 Q1024.36 161.881 1021.95 162.391 Q1019.54 162.9 1017.06 162.9 Q1010.86 162.9 1007.23 159.289 Q1003.62 155.678 1003.62 149.52 Q1003.62 143.155 1007.04 139.428 Q1010.49 135.678 1016.32 135.678 Q1021.56 135.678 1024.59 139.057 Q1027.64 142.414 1027.64 148.201 M1023.38 146.951 Q1023.34 143.456 1021.42 141.372 Q1019.52 139.289 1016.37 139.289 Q1012.81 139.289 1010.65 141.303 Q1008.52 143.317 1008.2 146.974 L1023.38 146.951 Z" fill="#000000" fill-rule="nonzero" fill-opacity="1" /><path clip-path="url(#clip510)" d="M1049.66 140.284 Q1048.94 139.868 1048.08 139.682 Q1047.25 139.474 1046.23 139.474 Q1042.62 139.474 1040.68 141.835 Q1038.75 144.173 1038.75 148.571 L1038.75 162.229 L1034.47 162.229 L1034.47 136.303 L1038.75 136.303 L1038.75 140.331 Q1040.1 137.969 1042.25 136.835 Q1044.4 135.678 1047.48 135.678 Q1047.92 135.678 1048.45 135.747 Q1048.99 135.794 1049.63 135.909 L1049.66 140.284 Z" fill="#000000" fill-rule="nonzero" fill-opacity="1" /><path clip-path="url(#clip510)" d="M1071.74 137.298 L1071.74 141.28 Q1069.93 140.284 1068.11 139.798 Q1066.3 139.289 1064.45 139.289 Q1060.31 139.289 1058.01 141.928 Q1055.72 144.544 1055.72 149.289 Q1055.72 154.034 1058.01 156.673 Q1060.31 159.289 1064.45 159.289 Q1066.3 159.289 1068.11 158.803 Q1069.93 158.293 1071.74 157.298 L1071.74 161.233 Q1069.96 162.067 1068.04 162.483 Q1066.14 162.9 1063.99 162.9 Q1058.13 162.9 1054.68 159.219 Q1051.23 155.539 1051.23 149.289 Q1051.23 142.946 1054.7 139.312 Q1058.2 135.678 1064.26 135.678 Q1066.23 135.678 1068.11 136.095 Q1069.98 136.488 1071.74 137.298 Z" fill="#000000" fill-rule="nonzero" fill-opacity="1" /><path clip-path="url(#clip510)" d="M1101.32 148.201 L1101.32 150.284 L1081.74 150.284 Q1082.02 154.682 1084.38 156.997 Q1086.76 159.289 1091 159.289 Q1093.45 159.289 1095.74 158.687 Q1098.06 158.085 1100.33 156.881 L1100.33 160.909 Q1098.04 161.881 1095.63 162.391 Q1093.22 162.9 1090.74 162.9 Q1084.54 162.9 1080.91 159.289 Q1077.3 155.678 1077.3 149.52 Q1077.3 143.155 1080.72 139.428 Q1084.17 135.678 1090 135.678 Q1095.24 135.678 1098.27 139.057 Q1101.32 142.414 1101.32 148.201 M1097.06 146.951 Q1097.02 143.456 1095.1 141.372 Q1093.2 139.289 1090.05 139.289 Q1086.49 139.289 1084.33 141.303 Q1082.2 143.317 1081.88 146.974 L1097.06 146.951 Z" fill="#000000" fill-rule="nonzero" fill-opacity="1" /><path clip-path="url(#clip510)" d="M1129.87 146.581 L1129.87 162.229 L1125.61 162.229 L1125.61 146.719 Q1125.61 143.039 1124.17 141.21 Q1122.74 139.382 1119.87 139.382 Q1116.42 139.382 1114.43 141.581 Q1112.43 143.78 1112.43 147.576 L1112.43 162.229 L1108.15 162.229 L1108.15 136.303 L1112.43 136.303 L1112.43 140.331 Q1113.96 137.993 1116.02 136.835 Q1118.11 135.678 1120.81 135.678 Q1125.28 135.678 1127.57 138.456 Q1129.87 141.21 1129.87 146.581 Z" fill="#000000" fill-rule="nonzero" fill-opacity="1" /><path clip-path="url(#clip510)" d="M1142.57 128.942 L1142.57 136.303 L1151.35 136.303 L1151.35 139.613 L1142.57 139.613 L1142.57 153.687 Q1142.57 156.858 1143.43 157.761 Q1144.31 158.664 1146.97 158.664 L1151.35 158.664 L1151.35 162.229 L1146.97 162.229 Q1142.04 162.229 1140.17 160.4 Q1138.29 158.548 1138.29 153.687 L1138.29 139.613 L1135.17 139.613 L1135.17 136.303 L1138.29 136.303 L1138.29 128.942 L1142.57 128.942 Z" fill="#000000" fill-rule="nonzero" fill-opacity="1" /><path clip-path="url(#clip510)" d="M1168.73 149.196 Q1163.57 149.196 1161.58 150.377 Q1159.59 151.557 1159.59 154.405 Q1159.59 156.673 1161.07 158.016 Q1162.57 159.335 1165.14 159.335 Q1168.68 159.335 1170.81 156.835 Q1172.97 154.312 1172.97 150.145 L1172.97 149.196 L1168.73 149.196 M1177.23 147.437 L1177.23 162.229 L1172.97 162.229 L1172.97 158.293 Q1171.51 160.655 1169.33 161.789 Q1167.16 162.9 1164.01 162.9 Q1160.03 162.9 1157.67 160.678 Q1155.33 158.432 1155.33 154.682 Q1155.33 150.307 1158.24 148.085 Q1161.18 145.863 1166.99 145.863 L1172.97 145.863 L1172.97 145.446 Q1172.97 142.507 1171.02 140.909 Q1169.1 139.289 1165.61 139.289 Q1163.38 139.289 1161.28 139.821 Q1159.17 140.354 1157.23 141.419 L1157.23 137.483 Q1159.56 136.581 1161.76 136.141 Q1163.96 135.678 1166.05 135.678 Q1171.67 135.678 1174.45 138.594 Q1177.23 141.511 1177.23 147.437 Z" fill="#000000" fill-rule="nonzero" fill-opacity="1" /><path clip-path="url(#clip510)" d="M1203.06 148.965 Q1203.06 144.335 1201.14 141.789 Q1199.24 139.243 1195.79 139.243 Q1192.36 139.243 1190.44 141.789 Q1188.55 144.335 1188.55 148.965 Q1188.55 153.571 1190.44 156.118 Q1192.36 158.664 1195.79 158.664 Q1199.24 158.664 1201.14 156.118 Q1203.06 153.571 1203.06 148.965 M1207.32 159.011 Q1207.32 165.631 1204.38 168.849 Q1201.44 172.09 1195.37 172.09 Q1193.13 172.09 1191.14 171.742 Q1189.15 171.418 1187.27 170.724 L1187.27 166.58 Q1189.15 167.599 1190.98 168.085 Q1192.8 168.571 1194.7 168.571 Q1198.89 168.571 1200.98 166.372 Q1203.06 164.196 1203.06 159.775 L1203.06 157.668 Q1201.74 159.96 1199.68 161.094 Q1197.62 162.229 1194.75 162.229 Q1189.98 162.229 1187.06 158.594 Q1184.15 154.96 1184.15 148.965 Q1184.15 142.946 1187.06 139.312 Q1189.98 135.678 1194.75 135.678 Q1197.62 135.678 1199.68 136.812 Q1201.74 137.946 1203.06 140.238 L1203.06 136.303 L1207.32 136.303 L1207.32 159.011 Z" fill="#000000" fill-rule="nonzero" fill-opacity="1" /><path clip-path="url(#clip510)" d="M1238.27 148.201 L1238.27 150.284 L1218.68 150.284 Q1218.96 154.682 1221.32 156.997 Q1223.71 159.289 1227.94 159.289 Q1230.4 159.289 1232.69 158.687 Q1235 158.085 1237.27 156.881 L1237.27 160.909 Q1234.98 161.881 1232.57 162.391 Q1230.17 162.9 1227.69 162.9 Q1221.48 162.9 1217.85 159.289 Q1214.24 155.678 1214.24 149.52 Q1214.24 143.155 1217.67 139.428 Q1221.11 135.678 1226.95 135.678 Q1232.18 135.678 1235.21 139.057 Q1238.27 142.414 1238.27 148.201 M1234.01 146.951 Q1233.96 143.456 1232.04 141.372 Q1230.14 139.289 1226.99 139.289 Q1223.43 139.289 1221.28 141.303 Q1219.15 143.317 1218.82 146.974 L1234.01 146.951 Z" fill="#000000" fill-rule="nonzero" fill-opacity="1" /><path clip-path="url(#clip510)" d="M1270.37 139.289 Q1266.95 139.289 1264.96 141.974 Q1262.97 144.636 1262.97 149.289 Q1262.97 153.942 1264.93 156.627 Q1266.92 159.289 1270.37 159.289 Q1273.78 159.289 1275.77 156.604 Q1277.76 153.918 1277.76 149.289 Q1277.76 144.682 1275.77 141.997 Q1273.78 139.289 1270.37 139.289 M1270.37 135.678 Q1275.93 135.678 1279.1 139.289 Q1282.27 142.9 1282.27 149.289 Q1282.27 155.655 1279.1 159.289 Q1275.93 162.9 1270.37 162.9 Q1264.79 162.9 1261.62 159.289 Q1258.48 155.655 1258.48 149.289 Q1258.48 142.9 1261.62 139.289 Q1264.79 135.678 1270.37 135.678 Z" fill="#000000" fill-rule="nonzero" fill-opacity="1" /><path clip-path="url(#clip510)" d="M1302.46 126.21 L1302.46 129.752 L1298.38 129.752 Q1296.09 129.752 1295.19 130.678 Q1294.31 131.604 1294.31 134.011 L1294.31 136.303 L1301.32 136.303 L1301.32 139.613 L1294.31 139.613 L1294.31 162.229 L1290.03 162.229 L1290.03 139.613 L1285.95 139.613 L1285.95 136.303 L1290.03 136.303 L1290.03 134.497 Q1290.03 130.169 1292.04 128.201 Q1294.05 126.21 1298.43 126.21 L1302.46 126.21 Z" fill="#000000" fill-rule="nonzero" fill-opacity="1" /><path clip-path="url(#clip510)" d="M1337.62 137.067 L1337.62 141.094 Q1335.81 140.169 1333.87 139.706 Q1331.92 139.243 1329.84 139.243 Q1326.67 139.243 1325.07 140.215 Q1323.5 141.187 1323.5 143.131 Q1323.5 144.613 1324.63 145.469 Q1325.77 146.303 1329.19 147.067 L1330.65 147.391 Q1335.19 148.363 1337.09 150.145 Q1339.01 151.905 1339.01 155.076 Q1339.01 158.687 1336.14 160.793 Q1333.29 162.9 1328.29 162.9 Q1326.21 162.9 1323.94 162.483 Q1321.69 162.09 1319.19 161.28 L1319.19 156.881 Q1321.55 158.108 1323.85 158.733 Q1326.14 159.335 1328.38 159.335 Q1331.39 159.335 1333.01 158.317 Q1334.63 157.275 1334.63 155.4 Q1334.63 153.664 1333.45 152.738 Q1332.29 151.812 1328.34 150.956 L1326.85 150.608 Q1322.9 149.775 1321.14 148.062 Q1319.38 146.326 1319.38 143.317 Q1319.38 139.659 1321.97 137.669 Q1324.56 135.678 1329.33 135.678 Q1331.69 135.678 1333.78 136.025 Q1335.86 136.372 1337.62 137.067 Z" fill="#000000" fill-rule="nonzero" fill-opacity="1" /><path clip-path="url(#clip510)" d="M1345.79 136.303 L1350.05 136.303 L1350.05 162.229 L1345.79 162.229 L1345.79 136.303 M1345.79 126.21 L1350.05 126.21 L1350.05 131.604 L1345.79 131.604 L1345.79 126.21 Z" fill="#000000" fill-rule="nonzero" fill-opacity="1" /><path clip-path="url(#clip510)" d="M1379.15 141.28 Q1380.74 138.409 1382.97 137.044 Q1385.19 135.678 1388.2 135.678 Q1392.25 135.678 1394.45 138.525 Q1396.65 141.349 1396.65 146.581 L1396.65 162.229 L1392.36 162.229 L1392.36 146.719 Q1392.36 142.993 1391.04 141.187 Q1389.72 139.382 1387.02 139.382 Q1383.71 139.382 1381.78 141.581 Q1379.86 143.78 1379.86 147.576 L1379.86 162.229 L1375.58 162.229 L1375.58 146.719 Q1375.58 142.969 1374.26 141.187 Q1372.94 139.382 1370.19 139.382 Q1366.92 139.382 1365 141.604 Q1363.08 143.803 1363.08 147.576 L1363.08 162.229 L1358.8 162.229 L1358.8 136.303 L1363.08 136.303 L1363.08 140.331 Q1364.54 137.946 1366.58 136.812 Q1368.61 135.678 1371.41 135.678 Q1374.24 135.678 1376.21 137.113 Q1378.2 138.548 1379.15 141.28 Z" fill="#000000" fill-rule="nonzero" fill-opacity="1" /><path clip-path="url(#clip510)" d="M1404.7 151.997 L1404.7 136.303 L1408.96 136.303 L1408.96 151.835 Q1408.96 155.516 1410.4 157.368 Q1411.83 159.196 1414.7 159.196 Q1418.15 159.196 1420.14 156.997 Q1422.16 154.798 1422.16 151.002 L1422.16 136.303 L1426.41 136.303 L1426.41 162.229 L1422.16 162.229 L1422.16 158.247 Q1420.6 160.608 1418.54 161.766 Q1416.51 162.9 1413.8 162.9 Q1409.33 162.9 1407.02 160.122 Q1404.7 157.344 1404.7 151.997 M1415.42 135.678 L1415.42 135.678 Z" fill="#000000" fill-rule="nonzero" fill-opacity="1" /><path clip-path="url(#clip510)" d="M1435.19 126.21 L1439.45 126.21 L1439.45 162.229 L1435.19 162.229 L1435.19 126.21 Z" fill="#000000" fill-rule="nonzero" fill-opacity="1" /><path clip-path="url(#clip510)" d="M1460.14 149.196 Q1454.98 149.196 1452.99 150.377 Q1451 151.557 1451 154.405 Q1451 156.673 1452.48 158.016 Q1453.98 159.335 1456.55 159.335 Q1460.09 159.335 1462.22 156.835 Q1464.38 154.312 1464.38 150.145 L1464.38 149.196 L1460.14 149.196 M1468.64 147.437 L1468.64 162.229 L1464.38 162.229 L1464.38 158.293 Q1462.92 160.655 1460.74 161.789 Q1458.57 162.9 1455.42 162.9 Q1451.44 162.9 1449.08 160.678 Q1446.74 158.432 1446.74 154.682 Q1446.74 150.307 1449.65 148.085 Q1452.59 145.863 1458.4 145.863 L1464.38 145.863 L1464.38 145.446 Q1464.38 142.507 1462.43 140.909 Q1460.51 139.289 1457.02 139.289 Q1454.79 139.289 1452.69 139.821 Q1450.58 140.354 1448.64 141.419 L1448.64 137.483 Q1450.97 136.581 1453.17 136.141 Q1455.37 135.678 1457.46 135.678 Q1463.08 135.678 1465.86 138.594 Q1468.64 141.511 1468.64 147.437 Z" fill="#000000" fill-rule="nonzero" fill-opacity="1" /><path clip-path="url(#clip510)" d="M1481.62 128.942 L1481.62 136.303 L1490.4 136.303 L1490.4 139.613 L1481.62 139.613 L1481.62 153.687 Q1481.62 156.858 1482.48 157.761 Q1483.36 158.664 1486.02 158.664 L1490.4 158.664 L1490.4 162.229 L1486.02 162.229 Q1481.09 162.229 1479.21 160.4 Q1477.34 158.548 1477.34 153.687 L1477.34 139.613 L1474.22 139.613 L1474.22 136.303 L1477.34 136.303 L1477.34 128.942 L1481.62 128.942 Z" fill="#000000" fill-rule="nonzero" fill-opacity="1" /><path clip-path="url(#clip510)" d="M1496 136.303 L1500.26 136.303 L1500.26 162.229 L1496 162.229 L1496 136.303 M1496 126.21 L1500.26 126.21 L1500.26 131.604 L1496 131.604 L1496 126.21 Z" fill="#000000" fill-rule="nonzero" fill-opacity="1" /><path clip-path="url(#clip510)" d="M1519.21 139.289 Q1515.79 139.289 1513.8 141.974 Q1511.81 144.636 1511.81 149.289 Q1511.81 153.942 1513.77 156.627 Q1515.77 159.289 1519.21 159.289 Q1522.62 159.289 1524.61 156.604 Q1526.6 153.918 1526.6 149.289 Q1526.6 144.682 1524.61 141.997 Q1522.62 139.289 1519.21 139.289 M1519.21 135.678 Q1524.77 135.678 1527.94 139.289 Q1531.11 142.9 1531.11 149.289 Q1531.11 155.655 1527.94 159.289 Q1524.77 162.9 1519.21 162.9 Q1513.64 162.9 1510.46 159.289 Q1507.32 155.655 1507.32 149.289 Q1507.32 142.9 1510.46 139.289 Q1513.64 135.678 1519.21 135.678 Z" fill="#000000" fill-rule="nonzero" fill-opacity="1" /><path clip-path="url(#clip510)" d="M1559.72 146.581 L1559.72 162.229 L1555.46 162.229 L1555.46 146.719 Q1555.46 143.039 1554.03 141.21 Q1552.59 139.382 1549.72 139.382 Q1546.27 139.382 1544.28 141.581 Q1542.29 143.78 1542.29 147.576 L1542.29 162.229 L1538.01 162.229 L1538.01 136.303 L1542.29 136.303 L1542.29 140.331 Q1543.82 137.993 1545.88 136.835 Q1547.96 135.678 1550.67 135.678 Q1555.14 135.678 1557.43 138.456 Q1559.72 141.21 1559.72 146.581 Z" fill="#000000" fill-rule="nonzero" fill-opacity="1" /><path clip-path="url(#clip510)" d="M1584.75 137.067 L1584.75 141.094 Q1582.94 140.169 1581 139.706 Q1579.05 139.243 1576.97 139.243 Q1573.8 139.243 1572.2 140.215 Q1570.63 141.187 1570.63 143.131 Q1570.63 144.613 1571.76 145.469 Q1572.9 146.303 1576.32 147.067 L1577.78 147.391 Q1582.32 148.363 1584.21 150.145 Q1586.14 151.905 1586.14 155.076 Q1586.14 158.687 1583.27 160.793 Q1580.42 162.9 1575.42 162.9 Q1573.33 162.9 1571.07 162.483 Q1568.82 162.09 1566.32 161.28 L1566.32 156.881 Q1568.68 158.108 1570.97 158.733 Q1573.27 159.335 1575.51 159.335 Q1578.52 159.335 1580.14 158.317 Q1581.76 157.275 1581.76 155.4 Q1581.76 153.664 1580.58 152.738 Q1579.42 151.812 1575.46 150.956 L1573.98 150.608 Q1570.02 149.775 1568.27 148.062 Q1566.51 146.326 1566.51 143.317 Q1566.51 139.659 1569.1 137.669 Q1571.69 135.678 1576.46 135.678 Q1578.82 135.678 1580.9 136.025 Q1582.99 136.372 1584.75 137.067 Z" fill="#000000" fill-rule="nonzero" fill-opacity="1" /><path clip-path="url(#clip510)" d="M1605.51 136.303 L1609.77 136.303 L1615.09 156.534 L1620.39 136.303 L1625.42 136.303 L1630.74 156.534 L1636.04 136.303 L1640.3 136.303 L1633.52 162.229 L1628.5 162.229 L1622.92 140.979 L1617.32 162.229 L1612.29 162.229 L1605.51 136.303 Z" fill="#000000" fill-rule="nonzero" fill-opacity="1" /><path clip-path="url(#clip510)" d="M1646.76 136.303 L1651.02 136.303 L1651.02 162.229 L1646.76 162.229 L1646.76 136.303 M1646.76 126.21 L1651.02 126.21 L1651.02 131.604 L1646.76 131.604 L1646.76 126.21 Z" fill="#000000" fill-rule="nonzero" fill-opacity="1" /><path clip-path="url(#clip510)" d="M1664.14 128.942 L1664.14 136.303 L1672.92 136.303 L1672.92 139.613 L1664.14 139.613 L1664.14 153.687 Q1664.14 156.858 1665 157.761 Q1665.88 158.664 1668.54 158.664 L1672.92 158.664 L1672.92 162.229 L1668.54 162.229 Q1663.61 162.229 1661.74 160.4 Q1659.86 158.548 1659.86 153.687 L1659.86 139.613 L1656.74 139.613 L1656.74 136.303 L1659.86 136.303 L1659.86 128.942 L1664.14 128.942 Z" fill="#000000" fill-rule="nonzero" fill-opacity="1" /><path clip-path="url(#clip510)" d="M1700.07 146.581 L1700.07 162.229 L1695.81 162.229 L1695.81 146.719 Q1695.81 143.039 1694.38 141.21 Q1692.94 139.382 1690.07 139.382 Q1686.62 139.382 1684.63 141.581 Q1682.64 143.78 1682.64 147.576 L1682.64 162.229 L1678.36 162.229 L1678.36 126.21 L1682.64 126.21 L1682.64 140.331 Q1684.17 137.993 1686.23 136.835 Q1688.31 135.678 1691.02 135.678 Q1695.49 135.678 1697.78 138.456 Q1700.07 141.21 1700.07 146.581 Z" fill="#000000" fill-rule="nonzero" fill-opacity="1" /><path clip-path="url(#clip510)" d="M1743.82 141.28 Q1745.42 138.409 1747.64 137.044 Q1749.86 135.678 1752.87 135.678 Q1756.92 135.678 1759.12 138.525 Q1761.32 141.349 1761.32 146.581 L1761.32 162.229 L1757.04 162.229 L1757.04 146.719 Q1757.04 142.993 1755.72 141.187 Q1754.4 139.382 1751.69 139.382 Q1748.38 139.382 1746.46 141.581 Q1744.54 143.78 1744.54 147.576 L1744.54 162.229 L1740.26 162.229 L1740.26 146.719 Q1740.26 142.969 1738.94 141.187 Q1737.62 139.382 1734.86 139.382 Q1731.6 139.382 1729.68 141.604 Q1727.76 143.803 1727.76 147.576 L1727.76 162.229 L1723.47 162.229 L1723.47 136.303 L1727.76 136.303 L1727.76 140.331 Q1729.21 137.946 1731.25 136.812 Q1733.29 135.678 1736.09 135.678 Q1738.91 135.678 1740.88 137.113 Q1742.87 138.548 1743.82 141.28 Z" fill="#000000" fill-rule="nonzero" fill-opacity="1" /><path clip-path="url(#clip510)" d="M1779.86 139.289 Q1776.44 139.289 1774.44 141.974 Q1772.45 144.636 1772.45 149.289 Q1772.45 153.942 1774.42 156.627 Q1776.41 159.289 1779.86 159.289 Q1783.26 159.289 1785.26 156.604 Q1787.25 153.918 1787.25 149.289 Q1787.25 144.682 1785.26 141.997 Q1783.26 139.289 1779.86 139.289 M1779.86 135.678 Q1785.42 135.678 1788.59 139.289 Q1791.76 142.9 1791.76 149.289 Q1791.76 155.655 1788.59 159.289 Q1785.42 162.9 1779.86 162.9 Q1774.28 162.9 1771.11 159.289 Q1767.96 155.655 1767.96 149.289 Q1767.96 142.9 1771.11 139.289 Q1774.28 135.678 1779.86 135.678 Z" fill="#000000" fill-rule="nonzero" fill-opacity="1" /><path clip-path="url(#clip510)" d="M1820.37 146.581 L1820.37 162.229 L1816.11 162.229 L1816.11 146.719 Q1816.11 143.039 1814.68 141.21 Q1813.24 139.382 1810.37 139.382 Q1806.92 139.382 1804.93 141.581 Q1802.94 143.78 1802.94 147.576 L1802.94 162.229 L1798.66 162.229 L1798.66 136.303 L1802.94 136.303 L1802.94 140.331 Q1804.47 137.993 1806.53 136.835 Q1808.61 135.678 1811.32 135.678 Q1815.79 135.678 1818.08 138.456 Q1820.37 141.21 1820.37 146.581 Z" fill="#000000" fill-rule="nonzero" fill-opacity="1" /><path clip-path="url(#clip510)" d="M1851.04 148.201 L1851.04 150.284 L1831.46 150.284 Q1831.74 154.682 1834.1 156.997 Q1836.48 159.289 1840.72 159.289 Q1843.17 159.289 1845.46 158.687 Q1847.78 158.085 1850.05 156.881 L1850.05 160.909 Q1847.75 161.881 1845.35 162.391 Q1842.94 162.9 1840.46 162.9 Q1834.26 162.9 1830.63 159.289 Q1827.01 155.678 1827.01 149.52 Q1827.01 143.155 1830.44 139.428 Q1833.89 135.678 1839.72 135.678 Q1844.95 135.678 1847.99 139.057 Q1851.04 142.414 1851.04 148.201 M1846.78 146.951 Q1846.74 143.456 1844.81 141.372 Q1842.92 139.289 1839.77 139.289 Q1836.2 139.289 1834.05 141.303 Q1831.92 143.317 1831.6 146.974 L1846.78 146.951 Z" fill="#000000" fill-rule="nonzero" fill-opacity="1" /><path clip-path="url(#clip510)" d="M1868.82 164.636 Q1867.01 169.266 1865.3 170.678 Q1863.59 172.09 1860.72 172.09 L1857.31 172.09 L1857.31 168.525 L1859.81 168.525 Q1861.57 168.525 1862.55 167.692 Q1863.52 166.858 1864.7 163.756 L1865.46 161.812 L1854.98 136.303 L1859.49 136.303 L1867.59 156.581 L1875.69 136.303 L1880.21 136.303 L1868.82 164.636 Z" fill="#000000" fill-rule="nonzero" fill-opacity="1" /><path clip-path="url(#clip510)" d="M1901.71 138.895 L1901.71 134.682 L1931.39 145.446 L1931.39 149.289 L1901.71 160.053 L1901.71 155.84 L1925.56 147.391 L1901.71 138.895 Z" fill="#000000" fill-rule="nonzero" fill-opacity="1" /><path clip-path="url(#clip510)" d="M1955.95 136.303 L1960.21 136.303 L1960.21 162.229 L1955.95 162.229 L1955.95 136.303 M1955.95 126.21 L1960.21 126.21 L1960.21 131.604 L1955.95 131.604 L1955.95 126.21 Z" fill="#000000" fill-rule="nonzero" fill-opacity="1" /><path clip-path="url(#clip510)" d="M1990.67 146.581 L1990.67 162.229 L1986.41 162.229 L1986.41 146.719 Q1986.41 143.039 1984.98 141.21 Q1983.54 139.382 1980.67 139.382 Q1977.22 139.382 1975.23 141.581 Q1973.24 143.78 1973.24 147.576 L1973.24 162.229 L1968.96 162.229 L1968.96 136.303 L1973.24 136.303 L1973.24 140.331 Q1974.77 137.993 1976.83 136.835 Q1978.91 135.678 1981.62 135.678 Q1986.09 135.678 1988.38 138.456 Q1990.67 141.21 1990.67 146.581 Z" fill="#000000" fill-rule="nonzero" fill-opacity="1" /><path clip-path="url(#clip510)" d="M1999.17 136.303 L2003.43 136.303 L2003.43 162.229 L1999.17 162.229 L1999.17 136.303 M1999.17 126.21 L2003.43 126.21 L2003.43 131.604 L1999.17 131.604 L1999.17 126.21 Z" fill="#000000" fill-rule="nonzero" fill-opacity="1" /><path clip-path="url(#clip510)" d="M2016.55 128.942 L2016.55 136.303 L2025.32 136.303 L2025.32 139.613 L2016.55 139.613 L2016.55 153.687 Q2016.55 156.858 2017.41 157.761 Q2018.29 158.664 2020.95 158.664 L2025.32 158.664 L2025.32 162.229 L2020.95 162.229 Q2016.02 162.229 2014.14 160.4 Q2012.27 158.548 2012.27 153.687 L2012.27 139.613 L2009.14 139.613 L2009.14 136.303 L2012.27 136.303 L2012.27 128.942 L2016.55 128.942 Z" fill="#000000" fill-rule="nonzero" fill-opacity="1" /><path clip-path="url(#clip510)" d="M2030.92 136.303 L2035.18 136.303 L2035.18 162.229 L2030.92 162.229 L2030.92 136.303 M2030.92 126.21 L2035.18 126.21 L2035.18 131.604 L2030.92 131.604 L2030.92 126.21 Z" fill="#000000" fill-rule="nonzero" fill-opacity="1" /><path clip-path="url(#clip510)" d="M2055.88 149.196 Q2050.72 149.196 2048.73 150.377 Q2046.74 151.557 2046.74 154.405 Q2046.74 156.673 2048.22 158.016 Q2049.72 159.335 2052.29 159.335 Q2055.83 159.335 2057.96 156.835 Q2060.11 154.312 2060.11 150.145 L2060.11 149.196 L2055.88 149.196 M2064.37 147.437 L2064.37 162.229 L2060.11 162.229 L2060.11 158.293 Q2058.66 160.655 2056.48 161.789 Q2054.3 162.9 2051.16 162.9 Q2047.17 162.9 2044.81 160.678 Q2042.48 158.432 2042.48 154.682 Q2042.48 150.307 2045.39 148.085 Q2048.33 145.863 2054.14 145.863 L2060.11 145.863 L2060.11 145.446 Q2060.11 142.507 2058.17 140.909 Q2056.25 139.289 2052.75 139.289 Q2050.53 139.289 2048.42 139.821 Q2046.32 140.354 2044.37 141.419 L2044.37 137.483 Q2046.71 136.581 2048.91 136.141 Q2051.11 135.678 2053.19 135.678 Q2058.82 135.678 2061.6 138.594 Q2064.37 141.511 2064.37 147.437 Z" fill="#000000" fill-rule="nonzero" fill-opacity="1" /><path clip-path="url(#clip510)" d="M2073.15 126.21 L2077.41 126.21 L2077.41 162.229 L2073.15 162.229 L2073.15 126.21 Z" fill="#000000" fill-rule="nonzero" fill-opacity="1" /><path clip-path="url(#clip510)" d="M2121.57 141.28 Q2123.17 138.409 2125.39 137.044 Q2127.61 135.678 2130.62 135.678 Q2134.67 135.678 2136.87 138.525 Q2139.07 141.349 2139.07 146.581 L2139.07 162.229 L2134.79 162.229 L2134.79 146.719 Q2134.79 142.993 2133.47 141.187 Q2132.15 139.382 2129.44 139.382 Q2126.13 139.382 2124.21 141.581 Q2122.29 143.78 2122.29 147.576 L2122.29 162.229 L2118.01 162.229 L2118.01 146.719 Q2118.01 142.969 2116.69 141.187 Q2115.37 139.382 2112.61 139.382 Q2109.35 139.382 2107.43 141.604 Q2105.51 143.803 2105.51 147.576 L2105.51 162.229 L2101.23 162.229 L2101.23 136.303 L2105.51 136.303 L2105.51 140.331 Q2106.97 137.946 2109 136.812 Q2111.04 135.678 2113.84 135.678 Q2116.67 135.678 2118.63 137.113 Q2120.62 138.548 2121.57 141.28 Z" fill="#000000" fill-rule="nonzero" fill-opacity="1" /><path clip-path="url(#clip510)" d="M2157.61 139.289 Q2154.19 139.289 2152.2 141.974 Q2150.21 144.636 2150.21 149.289 Q2150.21 153.942 2152.17 156.627 Q2154.17 159.289 2157.61 159.289 Q2161.02 159.289 2163.01 156.604 Q2165 153.918 2165 149.289 Q2165 144.682 2163.01 141.997 Q2161.02 139.289 2157.61 139.289 M2157.61 135.678 Q2163.17 135.678 2166.34 139.289 Q2169.51 142.9 2169.51 149.289 Q2169.51 155.655 2166.34 159.289 Q2163.17 162.9 2157.61 162.9 Q2152.04 162.9 2148.86 159.289 Q2145.72 155.655 2145.72 149.289 Q2145.72 142.9 2148.86 139.289 Q2152.04 135.678 2157.61 135.678 Z" fill="#000000" fill-rule="nonzero" fill-opacity="1" /><path clip-path="url(#clip510)" d="M2198.12 146.581 L2198.12 162.229 L2193.86 162.229 L2193.86 146.719 Q2193.86 143.039 2192.43 141.21 Q2190.99 139.382 2188.12 139.382 Q2184.67 139.382 2182.68 141.581 Q2180.69 143.78 2180.69 147.576 L2180.69 162.229 L2176.41 162.229 L2176.41 136.303 L2180.69 136.303 L2180.69 140.331 Q2182.22 137.993 2184.28 136.835 Q2186.36 135.678 2189.07 135.678 Q2193.54 135.678 2195.83 138.456 Q2198.12 141.21 2198.12 146.581 Z" fill="#000000" fill-rule="nonzero" fill-opacity="1" /><path clip-path="url(#clip510)" d="M2228.79 148.201 L2228.79 150.284 L2209.21 150.284 Q2209.49 154.682 2211.85 156.997 Q2214.23 159.289 2218.47 159.289 Q2220.92 159.289 2223.22 158.687 Q2225.53 158.085 2227.8 156.881 L2227.8 160.909 Q2225.51 161.881 2223.1 162.391 Q2220.69 162.9 2218.22 162.9 Q2212.01 162.9 2208.38 159.289 Q2204.77 155.678 2204.77 149.52 Q2204.77 143.155 2208.19 139.428 Q2211.64 135.678 2217.47 135.678 Q2222.71 135.678 2225.74 139.057 Q2228.79 142.414 2228.79 148.201 M2224.54 146.951 Q2224.49 143.456 2222.57 141.372 Q2220.67 139.289 2217.52 139.289 Q2213.96 139.289 2211.8 141.303 Q2209.67 143.317 2209.35 146.974 L2224.54 146.951 Z" fill="#000000" fill-rule="nonzero" fill-opacity="1" /><path clip-path="url(#clip510)" d="M2246.57 164.636 Q2244.77 169.266 2243.05 170.678 Q2241.34 172.09 2238.47 172.09 L2235.07 172.09 L2235.07 168.525 L2237.57 168.525 Q2239.33 168.525 2240.3 167.692 Q2241.27 166.858 2242.45 163.756 L2243.22 161.812 L2232.73 136.303 L2237.24 136.303 L2245.35 156.581 L2253.45 136.303 L2257.96 136.303 L2246.57 164.636 Z" fill="#000000" fill-rule="nonzero" fill-opacity="1" /></svg>
