<?xml version="1.0" encoding="utf-8"?>
<svg xmlns="http://www.w3.org/2000/svg" xmlns:xlink="http://www.w3.org/1999/xlink" width="600" height="400" viewBox="0 0 2400 1600">
<defs>
  <clipPath id="clip920">
    <rect x="0" y="0" width="2400" height="1600"/>
  </clipPath>
</defs>
<path clip-path="url(#clip920)" d="M0 1600 L2400 1600 L2400 0 L0 0  Z" fill="#ffffff" fill-rule="evenodd" fill-opacity="1"/>
<defs>
  <clipPath id="clip921">
    <rect x="480" y="0" width="1681" height="1600"/>
  </clipPath>
</defs>
<path clip-path="url(#clip920)" d="M219.866 1423.18 L2352.76 1423.18 L2352.76 47.2441 L219.866 47.2441  Z" fill="#ffffff" fill-rule="evenodd" fill-opacity="1"/>
<defs>
  <clipPath id="clip922">
    <rect x="219" y="47" width="2134" height="1377"/>
  </clipPath>
</defs>
<polyline clip-path="url(#clip922)" style="stroke:#000000; stroke-linecap:round; stroke-linejoin:round; stroke-width:2; stroke-opacity:0.1; fill:none" points="278.217,1423.18 278.217,47.2441 "/>
<polyline clip-path="url(#clip922)" style="stroke:#000000; stroke-linecap:round; stroke-linejoin:round; stroke-width:2; stroke-opacity:0.1; fill:none" points="781.76,1423.18 781.76,47.2441 "/>
<polyline clip-path="url(#clip922)" style="stroke:#000000; stroke-linecap:round; stroke-linejoin:round; stroke-width:2; stroke-opacity:0.1; fill:none" points="1285.3,1423.18 1285.3,47.2441 "/>
<polyline clip-path="url(#clip922)" style="stroke:#000000; stroke-linecap:round; stroke-linejoin:round; stroke-width:2; stroke-opacity:0.1; fill:none" points="1788.85,1423.18 1788.85,47.2441 "/>
<polyline clip-path="url(#clip922)" style="stroke:#000000; stroke-linecap:round; stroke-linejoin:round; stroke-width:2; stroke-opacity:0.1; fill:none" points="2292.39,1423.18 2292.39,47.2441 "/>
<polyline clip-path="url(#clip920)" style="stroke:#000000; stroke-linecap:round; stroke-linejoin:round; stroke-width:4; stroke-opacity:1; fill:none" points="219.866,1423.18 2352.76,1423.18 "/>
<polyline clip-path="url(#clip920)" style="stroke:#000000; stroke-linecap:round; stroke-linejoin:round; stroke-width:4; stroke-opacity:1; fill:none" points="278.217,1423.18 278.217,1404.28 "/>
<polyline clip-path="url(#clip920)" style="stroke:#000000; stroke-linecap:round; stroke-linejoin:round; stroke-width:4; stroke-opacity:1; fill:none" points="781.76,1423.18 781.76,1404.28 "/>
<polyline clip-path="url(#clip920)" style="stroke:#000000; stroke-linecap:round; stroke-linejoin:round; stroke-width:4; stroke-opacity:1; fill:none" points="1285.3,1423.18 1285.3,1404.28 "/>
<polyline clip-path="url(#clip920)" style="stroke:#000000; stroke-linecap:round; stroke-linejoin:round; stroke-width:4; stroke-opacity:1; fill:none" points="1788.85,1423.18 1788.85,1404.28 "/>
<polyline clip-path="url(#clip920)" style="stroke:#000000; stroke-linecap:round; stroke-linejoin:round; stroke-width:4; stroke-opacity:1; fill:none" points="2292.39,1423.18 2292.39,1404.28 "/>
<path clip-path="url(#clip920)" d="M278.217 1454.1 Q274.606 1454.1 272.777 1457.66 Q270.972 1461.2 270.972 1468.33 Q270.972 1475.44 272.777 1479.01 Q274.606 1482.55 278.217 1482.55 Q281.851 1482.55 283.657 1479.01 Q285.485 1475.44 285.485 1468.33 Q285.485 1461.2 283.657 1457.66 Q281.851 1454.1 278.217 1454.1 M278.217 1450.39 Q284.027 1450.39 287.083 1455 Q290.161 1459.58 290.161 1468.33 Q290.161 1477.06 287.083 1481.67 Q284.027 1486.25 278.217 1486.25 Q272.407 1486.25 269.328 1481.67 Q266.273 1477.06 266.273 1468.33 Q266.273 1459.58 269.328 1455 Q272.407 1450.39 278.217 1450.39 Z" fill="#000000" fill-rule="nonzero" fill-opacity="1" /><path clip-path="url(#clip920)" d="M745.453 1481.64 L761.772 1481.64 L761.772 1485.58 L739.828 1485.58 L739.828 1481.64 Q742.49 1478.89 747.073 1474.26 Q751.68 1469.61 752.86 1468.27 Q755.105 1465.74 755.985 1464.01 Q756.888 1462.25 756.888 1460.56 Q756.888 1457.8 754.943 1456.07 Q753.022 1454.33 749.92 1454.33 Q747.721 1454.33 745.268 1455.09 Q742.837 1455.86 740.059 1457.41 L740.059 1452.69 Q742.883 1451.55 745.337 1450.97 Q747.791 1450.39 749.828 1450.39 Q755.198 1450.39 758.393 1453.08 Q761.587 1455.77 761.587 1460.26 Q761.587 1462.39 760.777 1464.31 Q759.99 1466.2 757.883 1468.8 Q757.305 1469.47 754.203 1472.69 Q751.101 1475.88 745.453 1481.64 Z" fill="#000000" fill-rule="nonzero" fill-opacity="1" /><path clip-path="url(#clip920)" d="M771.633 1451.02 L789.99 1451.02 L789.99 1454.96 L775.916 1454.96 L775.916 1463.43 Q776.934 1463.08 777.953 1462.92 Q778.971 1462.73 779.99 1462.73 Q785.777 1462.73 789.156 1465.9 Q792.536 1469.08 792.536 1474.49 Q792.536 1480.07 789.064 1483.17 Q785.591 1486.25 779.272 1486.25 Q777.096 1486.25 774.828 1485.88 Q772.582 1485.51 770.175 1484.77 L770.175 1480.07 Q772.258 1481.2 774.48 1481.76 Q776.703 1482.32 779.179 1482.32 Q783.184 1482.32 785.522 1480.21 Q787.86 1478.1 787.86 1474.49 Q787.86 1470.88 785.522 1468.77 Q783.184 1466.67 779.179 1466.67 Q777.304 1466.67 775.429 1467.08 Q773.578 1467.5 771.633 1468.38 L771.633 1451.02 Z" fill="#000000" fill-rule="nonzero" fill-opacity="1" /><path clip-path="url(#clip920)" d="M811.749 1454.1 Q808.138 1454.1 806.309 1457.66 Q804.503 1461.2 804.503 1468.33 Q804.503 1475.44 806.309 1479.01 Q808.138 1482.55 811.749 1482.55 Q815.383 1482.55 817.188 1479.01 Q819.017 1475.44 819.017 1468.33 Q819.017 1461.2 817.188 1457.66 Q815.383 1454.1 811.749 1454.1 M811.749 1450.39 Q817.559 1450.39 820.614 1455 Q823.693 1459.58 823.693 1468.33 Q823.693 1477.06 820.614 1481.67 Q817.559 1486.25 811.749 1486.25 Q805.939 1486.25 802.86 1481.67 Q799.804 1477.06 799.804 1468.33 Q799.804 1459.58 802.86 1455 Q805.939 1450.39 811.749 1450.39 Z" fill="#000000" fill-rule="nonzero" fill-opacity="1" /><path clip-path="url(#clip920)" d="M1244.92 1451.02 L1263.28 1451.02 L1263.28 1454.96 L1249.2 1454.96 L1249.2 1463.43 Q1250.22 1463.08 1251.24 1462.92 Q1252.26 1462.73 1253.28 1462.73 Q1259.07 1462.73 1262.45 1465.9 Q1265.82 1469.08 1265.82 1474.49 Q1265.82 1480.07 1262.35 1483.17 Q1258.88 1486.25 1252.56 1486.25 Q1250.39 1486.25 1248.12 1485.88 Q1245.87 1485.51 1243.46 1484.77 L1243.46 1480.07 Q1245.55 1481.2 1247.77 1481.76 Q1249.99 1482.32 1252.47 1482.32 Q1256.47 1482.32 1258.81 1480.21 Q1261.15 1478.1 1261.15 1474.49 Q1261.15 1470.88 1258.81 1468.77 Q1256.47 1466.67 1252.47 1466.67 Q1250.59 1466.67 1248.72 1467.08 Q1246.87 1467.5 1244.92 1468.38 L1244.92 1451.02 Z" fill="#000000" fill-rule="nonzero" fill-opacity="1" /><path clip-path="url(#clip920)" d="M1285.04 1454.1 Q1281.43 1454.1 1279.6 1457.66 Q1277.79 1461.2 1277.79 1468.33 Q1277.79 1475.44 1279.6 1479.01 Q1281.43 1482.55 1285.04 1482.55 Q1288.67 1482.55 1290.48 1479.01 Q1292.31 1475.44 1292.31 1468.33 Q1292.31 1461.2 1290.48 1457.66 Q1288.67 1454.1 1285.04 1454.1 M1285.04 1450.39 Q1290.85 1450.39 1293.9 1455 Q1296.98 1459.58 1296.98 1468.33 Q1296.98 1477.06 1293.9 1481.67 Q1290.85 1486.25 1285.04 1486.25 Q1279.23 1486.25 1276.15 1481.67 Q1273.09 1477.06 1273.09 1468.33 Q1273.09 1459.58 1276.15 1455 Q1279.23 1450.39 1285.04 1450.39 Z" fill="#000000" fill-rule="nonzero" fill-opacity="1" /><path clip-path="url(#clip920)" d="M1315.2 1454.1 Q1311.59 1454.1 1309.76 1457.66 Q1307.95 1461.2 1307.95 1468.33 Q1307.95 1475.44 1309.76 1479.01 Q1311.59 1482.55 1315.2 1482.55 Q1318.83 1482.55 1320.64 1479.01 Q1322.47 1475.44 1322.47 1468.33 Q1322.47 1461.2 1320.64 1457.66 Q1318.83 1454.1 1315.2 1454.1 M1315.2 1450.39 Q1321.01 1450.39 1324.07 1455 Q1327.14 1459.58 1327.14 1468.33 Q1327.14 1477.06 1324.07 1481.67 Q1321.01 1486.25 1315.2 1486.25 Q1309.39 1486.25 1306.31 1481.67 Q1303.26 1477.06 1303.26 1468.33 Q1303.26 1459.58 1306.31 1455 Q1309.39 1450.39 1315.2 1450.39 Z" fill="#000000" fill-rule="nonzero" fill-opacity="1" /><path clip-path="url(#clip920)" d="M1747.12 1451.02 L1769.35 1451.02 L1769.35 1453.01 L1756.8 1485.58 L1751.91 1485.58 L1763.72 1454.96 L1747.12 1454.96 L1747.12 1451.02 Z" fill="#000000" fill-rule="nonzero" fill-opacity="1" /><path clip-path="url(#clip920)" d="M1778.51 1451.02 L1796.87 1451.02 L1796.87 1454.96 L1782.79 1454.96 L1782.79 1463.43 Q1783.81 1463.08 1784.83 1462.92 Q1785.85 1462.73 1786.87 1462.73 Q1792.66 1462.73 1796.04 1465.9 Q1799.41 1469.08 1799.41 1474.49 Q1799.41 1480.07 1795.94 1483.17 Q1792.47 1486.25 1786.15 1486.25 Q1783.97 1486.25 1781.71 1485.88 Q1779.46 1485.51 1777.05 1484.77 L1777.05 1480.07 Q1779.14 1481.2 1781.36 1481.76 Q1783.58 1482.32 1786.06 1482.32 Q1790.06 1482.32 1792.4 1480.21 Q1794.74 1478.1 1794.74 1474.49 Q1794.74 1470.88 1792.4 1468.77 Q1790.06 1466.67 1786.06 1466.67 Q1784.18 1466.67 1782.31 1467.08 Q1780.46 1467.5 1778.51 1468.38 L1778.51 1451.02 Z" fill="#000000" fill-rule="nonzero" fill-opacity="1" /><path clip-path="url(#clip920)" d="M1818.63 1454.1 Q1815.02 1454.1 1813.19 1457.66 Q1811.38 1461.2 1811.38 1468.33 Q1811.38 1475.44 1813.19 1479.01 Q1815.02 1482.55 1818.63 1482.55 Q1822.26 1482.55 1824.07 1479.01 Q1825.9 1475.44 1825.9 1468.33 Q1825.9 1461.2 1824.07 1457.66 Q1822.26 1454.1 1818.63 1454.1 M1818.63 1450.39 Q1824.44 1450.39 1827.49 1455 Q1830.57 1459.58 1830.57 1468.33 Q1830.57 1477.06 1827.49 1481.67 Q1824.44 1486.25 1818.63 1486.25 Q1812.82 1486.25 1809.74 1481.67 Q1806.68 1477.06 1806.68 1468.33 Q1806.68 1459.58 1809.74 1455 Q1812.82 1450.39 1818.63 1450.39 Z" fill="#000000" fill-rule="nonzero" fill-opacity="1" /><path clip-path="url(#clip920)" d="M2236.92 1481.64 L2244.56 1481.64 L2244.56 1455.28 L2236.25 1456.95 L2236.25 1452.69 L2244.51 1451.02 L2249.19 1451.02 L2249.19 1481.64 L2256.82 1481.64 L2256.82 1485.58 L2236.92 1485.58 L2236.92 1481.64 Z" fill="#000000" fill-rule="nonzero" fill-opacity="1" /><path clip-path="url(#clip920)" d="M2276.27 1454.1 Q2272.66 1454.1 2270.83 1457.66 Q2269.02 1461.2 2269.02 1468.33 Q2269.02 1475.44 2270.83 1479.01 Q2272.66 1482.55 2276.27 1482.55 Q2279.9 1482.55 2281.71 1479.01 Q2283.54 1475.44 2283.54 1468.33 Q2283.54 1461.2 2281.71 1457.66 Q2279.9 1454.1 2276.27 1454.1 M2276.27 1450.39 Q2282.08 1450.39 2285.13 1455 Q2288.21 1459.58 2288.21 1468.33 Q2288.21 1477.06 2285.13 1481.67 Q2282.08 1486.25 2276.27 1486.25 Q2270.46 1486.25 2267.38 1481.67 Q2264.32 1477.06 2264.32 1468.33 Q2264.32 1459.58 2267.38 1455 Q2270.46 1450.39 2276.27 1450.39 Z" fill="#000000" fill-rule="nonzero" fill-opacity="1" /><path clip-path="url(#clip920)" d="M2306.43 1454.1 Q2302.82 1454.1 2300.99 1457.66 Q2299.19 1461.2 2299.19 1468.33 Q2299.19 1475.44 2300.99 1479.01 Q2302.82 1482.55 2306.43 1482.55 Q2310.06 1482.55 2311.87 1479.01 Q2313.7 1475.44 2313.7 1468.33 Q2313.7 1461.2 2311.87 1457.66 Q2310.06 1454.1 2306.43 1454.1 M2306.43 1450.39 Q2312.24 1450.39 2315.3 1455 Q2318.37 1459.58 2318.37 1468.33 Q2318.37 1477.06 2315.3 1481.67 Q2312.24 1486.25 2306.43 1486.25 Q2300.62 1486.25 2297.54 1481.67 Q2294.49 1477.06 2294.49 1468.33 Q2294.49 1459.58 2297.54 1455 Q2300.62 1450.39 2306.43 1450.39 Z" fill="#000000" fill-rule="nonzero" fill-opacity="1" /><path clip-path="url(#clip920)" d="M2336.59 1454.1 Q2332.98 1454.1 2331.15 1457.66 Q2329.35 1461.2 2329.35 1468.33 Q2329.35 1475.44 2331.15 1479.01 Q2332.98 1482.55 2336.59 1482.55 Q2340.23 1482.55 2342.03 1479.01 Q2343.86 1475.44 2343.86 1468.33 Q2343.86 1461.2 2342.03 1457.66 Q2340.23 1454.1 2336.59 1454.1 M2336.59 1450.39 Q2342.4 1450.39 2345.46 1455 Q2348.54 1459.58 2348.54 1468.33 Q2348.54 1477.06 2345.46 1481.67 Q2342.4 1486.25 2336.59 1486.25 Q2330.78 1486.25 2327.7 1481.67 Q2324.65 1477.06 2324.65 1468.33 Q2324.65 1459.58 2327.7 1455 Q2330.78 1450.39 2336.59 1450.39 Z" fill="#000000" fill-rule="nonzero" fill-opacity="1" /><path clip-path="url(#clip920)" d="M1211.88 1545.76 Q1213.95 1546.46 1215.89 1548.76 Q1217.86 1551.05 1219.84 1555.06 L1226.36 1568.04 L1219.46 1568.04 L1213.38 1555.85 Q1211.02 1551.08 1208.79 1549.52 Q1206.6 1547.96 1202.78 1547.96 L1195.77 1547.96 L1195.77 1568.04 L1189.35 1568.04 L1189.35 1520.52 L1203.86 1520.52 Q1212.01 1520.52 1216.02 1523.93 Q1220.03 1527.34 1220.03 1534.21 Q1220.03 1538.7 1217.93 1541.66 Q1215.86 1544.62 1211.88 1545.76 M1195.77 1525.81 L1195.77 1542.68 L1203.86 1542.68 Q1208.51 1542.68 1210.86 1540.54 Q1213.25 1538.38 1213.25 1534.21 Q1213.25 1530.04 1210.86 1527.94 Q1208.51 1525.81 1203.86 1525.81 L1195.77 1525.81 Z" fill="#000000" fill-rule="nonzero" fill-opacity="1" /><path clip-path="url(#clip920)" d="M1245.27 1536.5 Q1240.56 1536.5 1237.82 1540.19 Q1235.08 1543.85 1235.08 1550.25 Q1235.08 1556.65 1237.79 1560.34 Q1240.53 1564 1245.27 1564 Q1249.95 1564 1252.68 1560.31 Q1255.42 1556.62 1255.42 1550.25 Q1255.42 1543.92 1252.68 1540.23 Q1249.95 1536.5 1245.27 1536.5 M1245.27 1531.54 Q1252.91 1531.54 1257.27 1536.5 Q1261.63 1541.47 1261.63 1550.25 Q1261.63 1559 1257.27 1564 Q1252.91 1568.97 1245.27 1568.97 Q1237.6 1568.97 1233.24 1564 Q1228.91 1559 1228.91 1550.25 Q1228.91 1541.47 1233.24 1536.5 Q1237.6 1531.54 1245.27 1531.54 Z" fill="#000000" fill-rule="nonzero" fill-opacity="1" /><path clip-path="url(#clip920)" d="M1270.73 1553.98 L1270.73 1532.4 L1276.59 1532.4 L1276.59 1553.75 Q1276.59 1558.81 1278.56 1561.36 Q1280.53 1563.87 1284.48 1563.87 Q1289.22 1563.87 1291.96 1560.85 Q1294.73 1557.83 1294.73 1552.61 L1294.73 1532.4 L1300.59 1532.4 L1300.59 1568.04 L1294.73 1568.04 L1294.73 1562.57 Q1292.6 1565.82 1289.76 1567.41 Q1286.96 1568.97 1283.24 1568.97 Q1277.1 1568.97 1273.91 1565.15 Q1270.73 1561.33 1270.73 1553.98 M1285.47 1531.54 L1285.47 1531.54 Z" fill="#000000" fill-rule="nonzero" fill-opacity="1" /><path clip-path="url(#clip920)" d="M1342.28 1546.53 L1342.28 1568.04 L1336.43 1568.04 L1336.43 1546.72 Q1336.43 1541.66 1334.45 1539.14 Q1332.48 1536.63 1328.53 1536.63 Q1323.79 1536.63 1321.05 1539.65 Q1318.31 1542.68 1318.31 1547.9 L1318.31 1568.04 L1312.43 1568.04 L1312.43 1532.4 L1318.31 1532.4 L1318.31 1537.93 Q1320.42 1534.72 1323.25 1533.13 Q1326.11 1531.54 1329.84 1531.54 Q1335.98 1531.54 1339.13 1535.36 Q1342.28 1539.14 1342.28 1546.53 Z" fill="#000000" fill-rule="nonzero" fill-opacity="1" /><path clip-path="url(#clip920)" d="M1377.42 1537.81 L1377.42 1518.52 L1383.28 1518.52 L1383.28 1568.04 L1377.42 1568.04 L1377.42 1562.7 Q1375.57 1565.88 1372.74 1567.44 Q1369.94 1568.97 1365.99 1568.97 Q1359.53 1568.97 1355.46 1563.81 Q1351.42 1558.65 1351.42 1550.25 Q1351.42 1541.85 1355.46 1536.69 Q1359.53 1531.54 1365.99 1531.54 Q1369.94 1531.54 1372.74 1533.1 Q1375.57 1534.62 1377.42 1537.81 M1357.46 1550.25 Q1357.46 1556.71 1360.11 1560.4 Q1362.78 1564.07 1367.43 1564.07 Q1372.07 1564.07 1374.75 1560.4 Q1377.42 1556.71 1377.42 1550.25 Q1377.42 1543.79 1374.75 1540.13 Q1372.07 1536.44 1367.43 1536.44 Q1362.78 1536.44 1360.11 1540.13 Q1357.46 1543.79 1357.46 1550.25 Z" fill="#000000" fill-rule="nonzero" fill-opacity="1" /><polyline clip-path="url(#clip922)" style="stroke:#000000; stroke-linecap:round; stroke-linejoin:round; stroke-width:2; stroke-opacity:0.1; fill:none" points="219.866,1384.24 2352.76,1384.24 "/>
<polyline clip-path="url(#clip922)" style="stroke:#000000; stroke-linecap:round; stroke-linejoin:round; stroke-width:2; stroke-opacity:0.1; fill:none" points="219.866,1072.58 2352.76,1072.58 "/>
<polyline clip-path="url(#clip922)" style="stroke:#000000; stroke-linecap:round; stroke-linejoin:round; stroke-width:2; stroke-opacity:0.1; fill:none" points="219.866,760.924 2352.76,760.924 "/>
<polyline clip-path="url(#clip922)" style="stroke:#000000; stroke-linecap:round; stroke-linejoin:round; stroke-width:2; stroke-opacity:0.1; fill:none" points="219.866,449.266 2352.76,449.266 "/>
<polyline clip-path="url(#clip922)" style="stroke:#000000; stroke-linecap:round; stroke-linejoin:round; stroke-width:2; stroke-opacity:0.1; fill:none" points="219.866,137.609 2352.76,137.609 "/>
<polyline clip-path="url(#clip920)" style="stroke:#000000; stroke-linecap:round; stroke-linejoin:round; stroke-width:4; stroke-opacity:1; fill:none" points="219.866,1423.18 219.866,47.2441 "/>
<polyline clip-path="url(#clip920)" style="stroke:#000000; stroke-linecap:round; stroke-linejoin:round; stroke-width:4; stroke-opacity:1; fill:none" points="219.866,1384.24 238.764,1384.24 "/>
<polyline clip-path="url(#clip920)" style="stroke:#000000; stroke-linecap:round; stroke-linejoin:round; stroke-width:4; stroke-opacity:1; fill:none" points="219.866,1072.58 238.764,1072.58 "/>
<polyline clip-path="url(#clip920)" style="stroke:#000000; stroke-linecap:round; stroke-linejoin:round; stroke-width:4; stroke-opacity:1; fill:none" points="219.866,760.924 238.764,760.924 "/>
<polyline clip-path="url(#clip920)" style="stroke:#000000; stroke-linecap:round; stroke-linejoin:round; stroke-width:4; stroke-opacity:1; fill:none" points="219.866,449.266 238.764,449.266 "/>
<polyline clip-path="url(#clip920)" style="stroke:#000000; stroke-linecap:round; stroke-linejoin:round; stroke-width:4; stroke-opacity:1; fill:none" points="219.866,137.609 238.764,137.609 "/>
<path clip-path="url(#clip920)" d="M126.691 1370.04 Q123.08 1370.04 121.251 1373.6 Q119.445 1377.14 119.445 1384.27 Q119.445 1391.38 121.251 1394.94 Q123.08 1398.49 126.691 1398.49 Q130.325 1398.49 132.13 1394.94 Q133.959 1391.38 133.959 1384.27 Q133.959 1377.14 132.13 1373.6 Q130.325 1370.04 126.691 1370.04 M126.691 1366.33 Q132.501 1366.33 135.556 1370.94 Q138.635 1375.52 138.635 1384.27 Q138.635 1393 135.556 1397.61 Q132.501 1402.19 126.691 1402.19 Q120.88 1402.19 117.802 1397.61 Q114.746 1393 114.746 1384.27 Q114.746 1375.52 117.802 1370.94 Q120.88 1366.33 126.691 1366.33 Z" fill="#000000" fill-rule="nonzero" fill-opacity="1" /><path clip-path="url(#clip920)" d="M146.853 1395.64 L151.737 1395.64 L151.737 1401.52 L146.853 1401.52 L146.853 1395.64 Z" fill="#000000" fill-rule="nonzero" fill-opacity="1" /><path clip-path="url(#clip920)" d="M171.922 1370.04 Q168.311 1370.04 166.482 1373.6 Q164.677 1377.14 164.677 1384.27 Q164.677 1391.38 166.482 1394.94 Q168.311 1398.49 171.922 1398.49 Q175.556 1398.49 177.362 1394.94 Q179.19 1391.38 179.19 1384.27 Q179.19 1377.14 177.362 1373.6 Q175.556 1370.04 171.922 1370.04 M171.922 1366.33 Q177.732 1366.33 180.788 1370.94 Q183.866 1375.52 183.866 1384.27 Q183.866 1393 180.788 1397.61 Q177.732 1402.19 171.922 1402.19 Q166.112 1402.19 163.033 1397.61 Q159.978 1393 159.978 1384.27 Q159.978 1375.52 163.033 1370.94 Q166.112 1366.33 171.922 1366.33 Z" fill="#000000" fill-rule="nonzero" fill-opacity="1" /><path clip-path="url(#clip920)" d="M128.288 1058.38 Q124.677 1058.38 122.848 1061.94 Q121.043 1065.49 121.043 1072.62 Q121.043 1079.72 122.848 1083.29 Q124.677 1086.83 128.288 1086.83 Q131.922 1086.83 133.728 1083.29 Q135.556 1079.72 135.556 1072.62 Q135.556 1065.49 133.728 1061.94 Q131.922 1058.38 128.288 1058.38 M128.288 1054.68 Q134.098 1054.68 137.154 1059.28 Q140.232 1063.87 140.232 1072.62 Q140.232 1081.34 137.154 1085.95 Q134.098 1090.53 128.288 1090.53 Q122.478 1090.53 119.399 1085.95 Q116.343 1081.34 116.343 1072.62 Q116.343 1063.87 119.399 1059.28 Q122.478 1054.68 128.288 1054.68 Z" fill="#000000" fill-rule="nonzero" fill-opacity="1" /><path clip-path="url(#clip920)" d="M148.45 1083.98 L153.334 1083.98 L153.334 1089.86 L148.45 1089.86 L148.45 1083.98 Z" fill="#000000" fill-rule="nonzero" fill-opacity="1" /><path clip-path="url(#clip920)" d="M167.547 1085.93 L183.866 1085.93 L183.866 1089.86 L161.922 1089.86 L161.922 1085.93 Q164.584 1083.17 169.167 1078.54 Q173.774 1073.89 174.954 1072.55 Q177.2 1070.02 178.079 1068.29 Q178.982 1066.53 178.982 1064.84 Q178.982 1062.08 177.038 1060.35 Q175.116 1058.61 172.014 1058.61 Q169.815 1058.61 167.362 1059.38 Q164.931 1060.14 162.153 1061.69 L162.153 1056.97 Q164.977 1055.83 167.431 1055.25 Q169.885 1054.68 171.922 1054.68 Q177.292 1054.68 180.487 1057.36 Q183.681 1060.05 183.681 1064.54 Q183.681 1066.67 182.871 1068.59 Q182.084 1070.49 179.977 1073.08 Q179.399 1073.75 176.297 1076.97 Q173.195 1080.16 167.547 1085.93 Z" fill="#000000" fill-rule="nonzero" fill-opacity="1" /><path clip-path="url(#clip920)" d="M126.205 746.722 Q122.593 746.722 120.765 750.287 Q118.959 753.829 118.959 760.958 Q118.959 768.065 120.765 771.63 Q122.593 775.171 126.205 775.171 Q129.839 775.171 131.644 771.63 Q133.473 768.065 133.473 760.958 Q133.473 753.829 131.644 750.287 Q129.839 746.722 126.205 746.722 M126.205 743.019 Q132.015 743.019 135.07 747.625 Q138.149 752.208 138.149 760.958 Q138.149 769.685 135.07 774.292 Q132.015 778.875 126.205 778.875 Q120.394 778.875 117.316 774.292 Q114.26 769.685 114.26 760.958 Q114.26 752.208 117.316 747.625 Q120.394 743.019 126.205 743.019 Z" fill="#000000" fill-rule="nonzero" fill-opacity="1" /><path clip-path="url(#clip920)" d="M146.366 772.324 L151.251 772.324 L151.251 778.204 L146.366 778.204 L146.366 772.324 Z" fill="#000000" fill-rule="nonzero" fill-opacity="1" /><path clip-path="url(#clip920)" d="M174.283 747.718 L162.477 766.167 L174.283 766.167 L174.283 747.718 M173.056 743.644 L178.936 743.644 L178.936 766.167 L183.866 766.167 L183.866 770.056 L178.936 770.056 L178.936 778.204 L174.283 778.204 L174.283 770.056 L158.681 770.056 L158.681 765.542 L173.056 743.644 Z" fill="#000000" fill-rule="nonzero" fill-opacity="1" /><path clip-path="url(#clip920)" d="M126.529 435.065 Q122.918 435.065 121.089 438.63 Q119.283 442.172 119.283 449.301 Q119.283 456.408 121.089 459.972 Q122.918 463.514 126.529 463.514 Q130.163 463.514 131.968 459.972 Q133.797 456.408 133.797 449.301 Q133.797 442.172 131.968 438.63 Q130.163 435.065 126.529 435.065 M126.529 431.361 Q132.339 431.361 135.394 435.968 Q138.473 440.551 138.473 449.301 Q138.473 458.028 135.394 462.634 Q132.339 467.218 126.529 467.218 Q120.718 467.218 117.64 462.634 Q114.584 458.028 114.584 449.301 Q114.584 440.551 117.64 435.968 Q120.718 431.361 126.529 431.361 Z" fill="#000000" fill-rule="nonzero" fill-opacity="1" /><path clip-path="url(#clip920)" d="M146.691 460.667 L151.575 460.667 L151.575 466.546 L146.691 466.546 L146.691 460.667 Z" fill="#000000" fill-rule="nonzero" fill-opacity="1" /><path clip-path="url(#clip920)" d="M172.339 447.403 Q169.19 447.403 167.339 449.556 Q165.51 451.709 165.51 455.459 Q165.51 459.185 167.339 461.361 Q169.19 463.514 172.339 463.514 Q175.487 463.514 177.315 461.361 Q179.167 459.185 179.167 455.459 Q179.167 451.709 177.315 449.556 Q175.487 447.403 172.339 447.403 M181.621 432.75 L181.621 437.01 Q179.862 436.176 178.056 435.736 Q176.274 435.297 174.514 435.297 Q169.885 435.297 167.431 438.422 Q165.001 441.547 164.653 447.866 Q166.019 445.852 168.079 444.787 Q170.139 443.699 172.616 443.699 Q177.825 443.699 180.834 446.871 Q183.866 450.019 183.866 455.459 Q183.866 460.783 180.718 464 Q177.57 467.218 172.339 467.218 Q166.343 467.218 163.172 462.634 Q160.001 458.028 160.001 449.301 Q160.001 441.107 163.89 436.246 Q167.778 431.361 174.329 431.361 Q176.089 431.361 177.871 431.709 Q179.676 432.056 181.621 432.75 Z" fill="#000000" fill-rule="nonzero" fill-opacity="1" /><path clip-path="url(#clip920)" d="M126.783 123.408 Q123.172 123.408 121.343 126.973 Q119.538 130.514 119.538 137.644 Q119.538 144.75 121.343 148.315 Q123.172 151.857 126.783 151.857 Q130.417 151.857 132.223 148.315 Q134.052 144.75 134.052 137.644 Q134.052 130.514 132.223 126.973 Q130.417 123.408 126.783 123.408 M126.783 119.704 Q132.593 119.704 135.649 124.311 Q138.728 128.894 138.728 137.644 Q138.728 146.371 135.649 150.977 Q132.593 155.56 126.783 155.56 Q120.973 155.56 117.894 150.977 Q114.839 146.371 114.839 137.644 Q114.839 128.894 117.894 124.311 Q120.973 119.704 126.783 119.704 Z" fill="#000000" fill-rule="nonzero" fill-opacity="1" /><path clip-path="url(#clip920)" d="M146.945 149.01 L151.829 149.01 L151.829 154.889 L146.945 154.889 L146.945 149.01 Z" fill="#000000" fill-rule="nonzero" fill-opacity="1" /><path clip-path="url(#clip920)" d="M172.014 138.477 Q168.681 138.477 166.76 140.26 Q164.862 142.042 164.862 145.167 Q164.862 148.292 166.76 150.074 Q168.681 151.857 172.014 151.857 Q175.348 151.857 177.269 150.074 Q179.19 148.269 179.19 145.167 Q179.19 142.042 177.269 140.26 Q175.371 138.477 172.014 138.477 M167.339 136.486 Q164.329 135.746 162.64 133.686 Q160.973 131.625 160.973 128.662 Q160.973 124.519 163.913 122.112 Q166.876 119.704 172.014 119.704 Q177.176 119.704 180.116 122.112 Q183.056 124.519 183.056 128.662 Q183.056 131.625 181.366 133.686 Q179.7 135.746 176.714 136.486 Q180.093 137.273 181.968 139.565 Q183.866 141.857 183.866 145.167 Q183.866 150.19 180.788 152.875 Q177.732 155.56 172.014 155.56 Q166.297 155.56 163.218 152.875 Q160.163 150.19 160.163 145.167 Q160.163 141.857 162.061 139.565 Q163.959 137.273 167.339 136.486 M165.626 129.102 Q165.626 131.787 167.292 133.292 Q168.982 134.797 172.014 134.797 Q175.024 134.797 176.714 133.292 Q178.426 131.787 178.426 129.102 Q178.426 126.417 176.714 124.912 Q175.024 123.408 172.014 123.408 Q168.982 123.408 167.292 124.912 Q165.626 126.417 165.626 129.102 Z" fill="#000000" fill-rule="nonzero" fill-opacity="1" /><path clip-path="url(#clip920)" d="M21.7677 907.197 L39.6235 907.197 L39.6235 899.113 Q39.6235 894.625 37.3 892.174 Q34.9765 889.724 30.6797 889.724 Q26.4147 889.724 24.0912 892.174 Q21.7677 894.625 21.7677 899.113 L21.7677 907.197 M16.4842 913.627 L16.4842 899.113 Q16.4842 891.124 20.1126 887.05 Q23.7092 882.944 30.6797 882.944 Q37.7138 882.944 41.3104 887.05 Q44.907 891.124 44.907 899.113 L44.907 907.197 L64.0042 907.197 L64.0042 913.627 L16.4842 913.627 Z" fill="#000000" fill-rule="nonzero" fill-opacity="1" /><path clip-path="url(#clip920)" d="M44.7161 846.405 L47.5806 846.405 L47.5806 873.332 Q53.6281 872.95 56.8109 869.703 Q59.9619 866.425 59.9619 860.6 Q59.9619 857.227 59.1344 854.076 Q58.3069 850.893 56.6518 847.774 L62.1899 847.774 Q63.5267 850.925 64.227 854.235 Q64.9272 857.545 64.9272 860.951 Q64.9272 869.481 59.9619 874.478 Q54.9967 879.443 46.5303 879.443 Q37.7774 879.443 32.6531 874.732 Q27.4968 869.99 27.4968 861.969 Q27.4968 854.776 32.1438 850.606 Q36.7589 846.405 44.7161 846.405 M42.9973 852.261 Q38.1912 852.325 35.3266 854.967 Q32.4621 857.577 32.4621 861.905 Q32.4621 866.807 35.2312 869.767 Q38.0002 872.695 43.0292 873.141 L42.9973 852.261 Z" fill="#000000" fill-rule="nonzero" fill-opacity="1" /><path clip-path="url(#clip920)" d="M33.8307 816.136 Q33.2578 817.123 33.0032 818.3 Q32.7167 819.446 32.7167 820.847 Q32.7167 825.812 35.9632 828.485 Q39.1779 831.127 45.2253 831.127 L64.0042 831.127 L64.0042 837.016 L28.3562 837.016 L28.3562 831.127 L33.8944 831.127 Q30.6479 829.281 29.0883 826.321 Q27.4968 823.361 27.4968 819.128 Q27.4968 818.523 27.5923 817.791 Q27.656 817.059 27.8151 816.168 L33.8307 816.136 Z" fill="#000000" fill-rule="nonzero" fill-opacity="1" /><path clip-path="url(#clip920)" d="M29.7248 785.772 L35.1993 785.772 Q33.8307 788.254 33.1623 790.769 Q32.4621 793.251 32.4621 795.798 Q32.4621 801.495 36.0905 804.646 Q39.6872 807.797 46.212 807.797 Q52.7369 807.797 56.3653 804.646 Q59.9619 801.495 59.9619 795.798 Q59.9619 793.251 59.2935 790.769 Q58.5933 788.254 57.2247 785.772 L62.6355 785.772 Q63.7814 788.222 64.3543 790.864 Q64.9272 793.474 64.9272 796.434 Q64.9272 804.487 59.8664 809.229 Q54.8057 813.972 46.212 813.972 Q37.491 813.972 32.4939 809.197 Q27.4968 804.391 27.4968 796.052 Q27.4968 793.347 28.0697 790.769 Q28.6108 788.191 29.7248 785.772 Z" fill="#000000" fill-rule="nonzero" fill-opacity="1" /><path clip-path="url(#clip920)" d="M44.7161 745.095 L47.5806 745.095 L47.5806 772.022 Q53.6281 771.64 56.8109 768.393 Q59.9619 765.115 59.9619 759.29 Q59.9619 755.916 59.1344 752.765 Q58.3069 749.583 56.6518 746.463 L62.1899 746.463 Q63.5267 749.614 64.227 752.925 Q64.9272 756.235 64.9272 759.64 Q64.9272 768.17 59.9619 773.167 Q54.9967 778.133 46.5303 778.133 Q37.7774 778.133 32.6531 773.422 Q27.4968 768.68 27.4968 760.659 Q27.4968 753.466 32.1438 749.296 Q36.7589 745.095 44.7161 745.095 M42.9973 750.951 Q38.1912 751.015 35.3266 753.657 Q32.4621 756.267 32.4621 760.595 Q32.4621 765.497 35.2312 768.457 Q38.0002 771.385 43.0292 771.831 L42.9973 750.951 Z" fill="#000000" fill-rule="nonzero" fill-opacity="1" /><path clip-path="url(#clip920)" d="M42.4881 705.85 L64.0042 705.85 L64.0042 711.707 L42.679 711.707 Q37.6183 711.707 35.1038 713.68 Q32.5894 715.653 32.5894 719.6 Q32.5894 724.343 35.6131 727.08 Q38.6368 729.817 43.8567 729.817 L64.0042 729.817 L64.0042 735.705 L28.3562 735.705 L28.3562 729.817 L33.8944 729.817 Q30.6797 727.716 29.0883 724.884 Q27.4968 722.019 27.4968 718.295 Q27.4968 712.152 31.3163 709.001 Q35.1038 705.85 42.4881 705.85 Z" fill="#000000" fill-rule="nonzero" fill-opacity="1" /><path clip-path="url(#clip920)" d="M18.2347 688.376 L28.3562 688.376 L28.3562 676.313 L32.9077 676.313 L32.9077 688.376 L52.2594 688.376 Q56.6199 688.376 57.8613 687.199 Q59.1026 685.989 59.1026 682.329 L59.1026 676.313 L64.0042 676.313 L64.0042 682.329 Q64.0042 689.108 61.4897 691.686 Q58.9434 694.265 52.2594 694.265 L32.9077 694.265 L32.9077 698.561 L28.3562 698.561 L28.3562 694.265 L18.2347 694.265 L18.2347 688.376 Z" fill="#000000" fill-rule="nonzero" fill-opacity="1" /><path clip-path="url(#clip920)" d="M46.0847 652.41 Q46.0847 659.508 47.7079 662.245 Q49.3312 664.982 53.2461 664.982 Q56.3653 664.982 58.2114 662.945 Q60.0256 660.876 60.0256 657.343 Q60.0256 652.474 56.5881 649.545 Q53.1188 646.585 47.3897 646.585 L46.0847 646.585 L46.0847 652.41 M43.6657 640.729 L64.0042 640.729 L64.0042 646.585 L58.5933 646.585 Q61.8398 648.591 63.3994 651.582 Q64.9272 654.574 64.9272 658.903 Q64.9272 664.378 61.8716 667.624 Q58.7843 670.839 53.6281 670.839 Q47.6125 670.839 44.5569 666.828 Q41.5014 662.786 41.5014 654.797 L41.5014 646.585 L40.9285 646.585 Q36.8862 646.585 34.6901 649.259 Q32.4621 651.901 32.4621 656.707 Q32.4621 659.762 33.1941 662.659 Q33.9262 665.555 35.3903 668.229 L29.9795 668.229 Q28.7381 665.014 28.1334 661.99 Q27.4968 658.967 27.4968 656.102 Q27.4968 648.368 31.5072 644.548 Q35.5176 640.729 43.6657 640.729 Z" fill="#000000" fill-rule="nonzero" fill-opacity="1" /><path clip-path="url(#clip920)" d="M45.7664 605.208 Q39.4007 605.208 35.8996 607.85 Q32.3984 610.46 32.3984 615.202 Q32.3984 619.913 35.8996 622.555 Q39.4007 625.165 45.7664 625.165 Q52.1003 625.165 55.6014 622.555 Q59.1026 619.913 59.1026 615.202 Q59.1026 610.46 55.6014 607.85 Q52.1003 605.208 45.7664 605.208 M59.58 599.352 Q68.683 599.352 73.1071 603.394 Q77.5631 607.436 77.5631 615.775 Q77.5631 618.863 77.0857 621.6 Q76.6401 624.337 75.6852 626.915 L69.9879 626.915 Q71.3884 624.337 72.0568 621.823 Q72.7252 619.308 72.7252 616.698 Q72.7252 610.937 69.7015 608.073 Q66.7096 605.208 60.6303 605.208 L57.7339 605.208 Q60.885 607.023 62.4446 609.855 Q64.0042 612.688 64.0042 616.635 Q64.0042 623.191 59.0071 627.202 Q54.01 631.212 45.7664 631.212 Q37.491 631.212 32.4939 627.202 Q27.4968 623.191 27.4968 616.635 Q27.4968 612.688 29.0564 609.855 Q30.616 607.023 33.7671 605.208 L28.3562 605.208 L28.3562 599.352 L59.58 599.352 Z" fill="#000000" fill-rule="nonzero" fill-opacity="1" /><path clip-path="url(#clip920)" d="M44.7161 556.797 L47.5806 556.797 L47.5806 583.724 Q53.6281 583.342 56.8109 580.096 Q59.9619 576.817 59.9619 570.993 Q59.9619 567.619 59.1344 564.468 Q58.3069 561.285 56.6518 558.166 L62.1899 558.166 Q63.5267 561.317 64.227 564.627 Q64.9272 567.937 64.9272 571.343 Q64.9272 579.873 59.9619 584.87 Q54.9967 589.835 46.5303 589.835 Q37.7774 589.835 32.6531 585.125 Q27.4968 580.382 27.4968 572.361 Q27.4968 565.168 32.1438 560.998 Q36.7589 556.797 44.7161 556.797 M42.9973 562.654 Q38.1912 562.717 35.3266 565.359 Q32.4621 567.969 32.4621 572.298 Q32.4621 577.199 35.2312 580.159 Q38.0002 583.087 43.0292 583.533 L42.9973 562.654 Z" fill="#000000" fill-rule="nonzero" fill-opacity="1" /><polyline clip-path="url(#clip922)" style="stroke:#009af9; stroke-linecap:round; stroke-linejoin:round; stroke-width:4; stroke-opacity:1; fill:none" points="280.231,1384.24 282.245,612.731 284.259,601.355 286.274,406.414 288.288,311.514 290.302,251.676 292.316,213.809 294.33,166.593 296.344,133.246 298.359,117.507 300.373,103.171 302.387,93.198 304.401,90.393 306.415,93.9771 308.43,86.1857 310.444,90.393 312.458,97.717 314.472,98.8078 316.486,90.8605 318.5,89.9256 320.515,93.0421 322.529,98.652 324.543,106.288 326.557,114.391 328.571,121.091 330.585,133.402 332.6,149.296 334.614,155.997 336.628,164.412 338.642,171.112 340.656,176.878 342.67,184.669 344.685,191.37 346.699,199.161 348.713,203.525 350.727,210.693 352.741,221.445 354.756,223.003 356.77,233.6 358.784,240.768 360.798,246.222 362.812,256.039 364.826,264.609 366.841,272.868 368.855,279.569 370.869,294.217 372.883,300.138 374.897,308.086 376.911,316.033 378.926,323.357 380.94,330.057 382.954,336.446 384.968,348.445 386.982,352.964 388.996,360.132 391.011,366.054 393.025,373.845 395.039,378.832 397.053,386.156 399.067,391.142 401.082,395.506 403.096,400.492 405.11,406.569 407.124,410.153 409.138,410.777 411.152,411.868 413.167,415.919 415.181,422.931 417.195,422.776 419.209,428.074 421.223,430.567 423.237,434.93 425.252,436.177 427.266,442.566 429.28,445.527 431.294,450.669 433.308,453.785 435.322,455.967 437.337,461.265 439.351,464.226 441.365,469.524 443.379,471.706 445.393,476.381 447.408,478.562 449.422,482.925 451.436,482.458 453.45,487.6 455.464,491.028 457.478,493.833 459.493,496.638 461.507,502.404 463.521,505.521 465.535,510.507 467.549,510.975 469.563,512.533 471.578,515.338 473.592,519.078 475.606,524.532 477.62,527.648 479.634,531.544 481.648,535.907 483.663,539.18 485.677,541.517 487.691,545.724 489.705,547.75 491.719,551.023 493.734,552.892 495.748,556.944 497.762,558.814 499.776,563.021 501.79,564.891 503.804,568.164 505.819,573.15 507.833,573.618 509.847,576.89 511.861,582.032 513.875,585.772 515.889,587.331 517.904,589.98 519.918,593.096 521.932,593.875 523.946,597.459 525.96,600.42 527.974,601.978 529.989,603.537 532.003,607.121 534.017,609.77 536.031,611.172 538.045,615.38 540.06,617.561 542.074,620.99 544.088,622.86 546.102,625.82 548.116,628.158 550.13,631.586 552.145,633.612 554.159,637.819 556.173,640.78 558.187,643.429 560.201,645.61 562.215,648.727 564.23,652.155 566.244,654.96 568.258,657.921 570.272,661.038 572.286,663.998 574.301,666.18 576.315,668.05 578.329,670.076 580.343,673.504 582.357,676.153 584.371,678.958 586.386,682.23 588.4,685.035 590.414,686.905 592.428,689.243 594.442,693.138 596.456,697.346 598.471,701.085 600.485,703.423 602.499,706.384 604.513,709.033 606.527,713.24 608.541,716.357 610.556,718.694 612.57,721.187 614.584,724.771 616.598,729.135 618.612,732.407 620.627,734.589 622.641,738.017 624.655,740.043 626.669,743.003 628.683,745.185 630.697,746.899 632.712,749.704 634.726,751.73 636.74,754.067 638.754,757.34 640.768,759.054 642.782,761.547 644.797,763.884 646.811,765.599 648.825,767.936 650.839,771.053 652.853,774.325 654.867,776.351 656.882,778.844 658.896,781.961 660.91,784.298 662.924,786.168 664.938,789.596 666.953,791.466 668.967,793.492 670.981,798.011 672.995,800.348 675.009,802.218 677.023,803.621 679.038,806.426 681.052,808.763 683.066,810.945 685.08,813.75 687.094,815.62 689.108,818.424 691.123,821.229 693.137,823.878 695.151,825.593 697.165,827.93 699.179,829.644 701.193,831.202 703.208,832.605 705.222,835.098 707.236,837.591 709.25,839.15 711.264,842.422 713.279,844.604 715.293,845.694 717.307,847.097 719.321,848.967 721.335,851.304 723.349,853.33 725.364,854.888 727.378,856.914 729.392,858.784 731.406,860.654 733.42,862.836 735.434,864.861 737.449,865.952 739.463,868.601 741.477,871.25 743.491,872.809 745.505,874.679 747.519,877.639 749.534,878.886 751.548,880.133 753.562,881.379 755.576,883.717 757.59,884.184 759.605,885.742 761.619,886.677 763.633,887.924 765.647,889.638 767.661,890.729 769.675,891.352 771.69,893.222 773.704,894.625 775.718,896.495 777.732,897.585 779.746,899.3 781.76,899.923 783.775,901.793 785.789,902.728 787.803,904.13 789.817,904.754 791.831,905.844 793.845,906.935 795.86,908.026 797.874,909.117 799.888,910.208 801.902,911.61 803.916,912.077 805.931,913.012 807.945,913.48 809.959,914.103 811.973,914.103 813.987,914.259 816.001,914.882 818.016,915.194 820.03,915.506 822.044,915.973 824.058,916.129 826.072,916.129 828.086,916.597 830.101,916.597 832.115,916.908 834.129,916.908 836.143,917.22 838.157,917.376 840.171,917.843 842.186,917.999 844.2,918.155 846.214,918.155 848.228,918.155 850.242,918.155 852.257,918.311 854.271,918.311 856.285,918.311 858.299,918.622 860.313,918.778 862.327,918.934 864.342,919.09 866.356,919.246 868.37,919.401 870.384,919.401 872.398,919.401 874.412,919.713 876.427,919.713 878.441,920.025 880.455,920.336 882.469,920.648 884.483,920.96 886.498,921.271 888.512,921.739 890.526,922.206 892.54,922.518 894.554,922.985 896.568,923.141 898.583,923.453 900.597,923.92 902.611,924.544 904.625,925.167 906.639,925.479 908.653,925.635 910.668,926.102 912.682,926.414 914.696,926.57 916.71,926.57 918.724,927.349 920.738,927.816 922.753,928.439 924.767,928.907 926.781,929.53 928.795,930.933 930.809,931.556 932.824,932.335 934.838,933.27 936.852,934.049 938.866,934.361 940.88,935.14 942.894,935.452 944.909,936.075 946.923,937.01 948.937,937.789 950.951,938.413 952.965,938.724 954.979,939.192 956.994,939.815 959.008,940.594 961.022,941.062 963.036,941.685 965.05,942.464 967.064,942.776 969.079,944.334 971.093,944.801 973.107,945.425 975.121,945.736 977.135,946.048 979.15,946.36 981.164,947.295 983.178,948.697 985.192,949.321 987.206,949.788 989.22,950.1 991.235,951.035 993.249,951.814 995.263,953.216 997.277,953.216 999.291,953.528 1001.31,954.307 1003.32,954.93 1005.33,955.709 1007.35,956.333 1009.36,956.644 1011.38,957.735 1013.39,958.514 1015.4,959.294 1017.42,959.761 1019.43,961.008 1021.45,961.475 1023.46,961.787 1025.48,962.566 1027.49,962.878 1029.5,963.189 1031.52,964.28 1033.53,964.748 1035.55,965.683 1037.56,965.994 1039.57,966.462 1041.59,967.241 1043.6,967.708 1045.62,968.02 1047.63,969.422 1049.65,970.669 1051.66,971.76 1053.67,972.227 1055.69,972.383 1057.7,972.695 1059.72,972.851 1061.73,973.786 1063.74,974.409 1065.76,975.032 1067.77,975.967 1069.79,976.123 1071.8,977.214 1073.82,977.837 1075.83,977.993 1077.84,979.24 1079.86,979.707 1081.87,980.175 1083.89,980.798 1085.9,981.733 1087.91,982.2 1089.93,982.824 1091.94,983.135 1093.96,983.603 1095.97,984.538 1097.99,985.473 1100,985.94 1102.01,986.564 1104.03,987.343 1106.04,988.122 1108.06,988.901 1110.07,989.836 1112.09,990.303 1114.1,990.927 1116.11,991.862 1118.13,992.173 1120.14,992.641 1122.16,992.641 1124.17,992.797 1126.18,993.42 1128.2,994.043 1130.21,994.667 1132.23,995.446 1134.24,996.225 1136.26,996.381 1138.27,996.537 1140.28,996.692 1142.3,997.316 1144.31,998.095 1146.33,998.251 1148.34,998.718 1150.35,999.342 1152.37,999.809 1154.38,1000.59 1156.4,1001.06 1158.41,1001.37 1160.43,1002.3 1162.44,1002.46 1164.45,1002.77 1166.47,1002.77 1168.48,1003.08 1170.5,1003.24 1172.51,1004.02 1174.52,1004.33 1176.54,1004.33 1178.55,1005.26 1180.57,1005.89 1182.58,1006.35 1184.6,1007.44 1186.61,1008.22 1188.62,1008.54 1190.64,1008.69 1192.65,1008.85 1194.67,1010.09 1196.68,1010.87 1198.69,1011.65 1200.71,1011.96 1202.72,1011.96 1204.74,1012.43 1206.75,1013.52 1208.77,1014.61 1210.78,1014.92 1212.79,1015.39 1214.81,1015.7 1216.82,1016.02 1218.84,1016.64 1220.85,1016.95 1222.86,1017.57 1224.88,1017.73 1226.89,1018.35 1228.91,1018.82 1230.92,1018.98 1232.94,1019.76 1234.95,1019.91 1236.96,1021 1238.98,1022.25 1240.99,1022.4 1243.01,1022.87 1245.02,1023.34 1247.03,1023.96 1249.05,1024.59 1251.06,1024.74 1253.08,1024.9 1255.09,1025.05 1257.11,1025.83 1259.12,1026.3 1261.13,1027.08 1263.15,1027.23 1265.16,1027.39 1267.18,1027.7 1269.19,1028.01 1271.2,1028.48 1273.22,1029.1 1275.23,1029.88 1277.25,1030.04 1279.26,1030.04 1281.28,1030.35 1283.29,1030.51 1285.3,1030.66 1287.32,1030.66 1289.33,1030.82 1291.35,1031.29 1293.36,1031.75 1295.37,1031.91 1297.39,1032.22 1299.4,1032.84 1301.42,1032.84 1303.43,1033.16 1305.45,1033.31 1307.46,1033.31 1309.47,1033.31 1311.49,1033.47 1313.5,1033.62 1315.52,1033.78 1317.53,1034.09 1319.54,1034.25 1321.56,1034.4 1323.57,1034.56 1325.59,1034.71 1327.6,1034.87 1329.62,1034.87 1331.63,1035.34 1333.64,1035.34 1335.66,1035.34 1337.67,1035.34 1339.69,1035.34 1341.7,1035.49 1343.72,1035.65 1345.73,1035.81 1347.74,1035.81 1349.76,1035.81 1351.77,1035.96 1353.79,1035.96 1355.8,1036.12 1357.81,1036.12 1359.83,1036.12 1361.84,1036.12 1363.86,1036.12 1365.87,1036.12 1367.89,1036.12 1369.9,1036.12 1371.91,1036.12 1373.93,1036.12 1375.94,1036.12 1377.96,1036.12 1379.97,1036.12 1381.98,1036.12 1384,1036.12 1386.01,1036.12 1388.03,1036.12 1390.04,1036.12 1392.06,1036.12 1394.07,1036.12 1396.08,1036.12 1398.1,1036.12 1400.11,1036.12 1402.13,1036.12 1404.14,1036.27 1406.15,1036.27 1408.17,1036.27 1410.18,1036.27 1412.2,1036.27 1414.21,1036.27 1416.23,1036.27 1418.24,1036.27 1420.25,1036.27 1422.27,1036.27 1424.28,1036.27 1426.3,1036.27 1428.31,1036.27 1430.32,1036.27 1432.34,1036.27 1434.35,1036.27 1436.37,1036.27 1438.38,1036.27 1440.4,1036.27 1442.41,1036.27 1444.42,1036.27 1446.44,1036.27 1448.45,1036.27 1450.47,1036.27 1452.48,1036.27 1454.49,1036.27 1456.51,1036.27 1458.52,1036.27 1460.54,1036.27 1462.55,1036.27 1464.57,1036.27 1466.58,1036.27 1468.59,1036.27 1470.61,1036.27 1472.62,1036.27 1474.64,1036.27 1476.65,1036.27 1478.66,1036.27 1480.68,1036.27 1482.69,1036.27 1484.71,1036.27 1486.72,1036.27 1488.74,1036.27 1490.75,1036.27 1492.76,1036.27 1494.78,1036.27 1496.79,1036.27 1498.81,1036.27 1500.82,1036.27 1502.83,1036.27 1504.85,1036.27 1506.86,1036.27 1508.88,1036.27 1510.89,1036.27 1512.91,1036.27 1514.92,1036.27 1516.93,1036.27 1518.95,1036.27 1520.96,1036.27 1522.98,1036.27 1524.99,1036.27 1527,1036.27 1529.02,1036.27 1531.03,1036.27 1533.05,1036.27 1535.06,1036.27 1537.08,1036.27 1539.09,1036.27 1541.1,1036.27 1543.12,1036.27 1545.13,1036.27 1547.15,1036.27 1549.16,1036.27 1551.17,1036.27 1553.19,1036.27 1555.2,1036.27 1557.22,1036.27 1559.23,1036.27 1561.25,1036.27 1563.26,1036.27 1565.27,1036.27 1567.29,1036.27 1569.3,1036.27 1571.32,1036.27 1573.33,1036.27 1575.35,1036.27 1577.36,1036.27 1579.37,1036.27 1581.39,1036.27 1583.4,1036.27 1585.42,1036.27 1587.43,1036.27 1589.44,1036.27 1591.46,1036.27 1593.47,1036.27 1595.49,1036.27 1597.5,1036.27 1599.52,1036.27 1601.53,1036.27 1603.54,1036.27 1605.56,1036.27 1607.57,1036.27 1609.59,1036.27 1611.6,1036.27 1613.61,1036.27 1615.63,1036.27 1617.64,1036.27 1619.66,1036.27 1621.67,1036.27 1623.69,1036.27 1625.7,1036.27 1627.71,1036.27 1629.73,1036.27 1631.74,1036.27 1633.76,1036.27 1635.77,1036.27 1637.78,1036.27 1639.8,1036.27 1641.81,1036.27 1643.83,1036.27 1645.84,1036.27 1647.86,1036.27 1649.87,1036.27 1651.88,1036.27 1653.9,1036.27 1655.91,1036.27 1657.93,1036.27 1659.94,1036.27 1661.95,1036.27 1663.97,1036.27 1665.98,1036.27 1668,1036.27 1670.01,1036.27 1672.03,1036.27 1674.04,1036.27 1676.05,1036.27 1678.07,1036.27 1680.08,1036.27 1682.1,1036.27 1684.11,1036.27 1686.12,1036.27 1688.14,1036.27 1690.15,1036.27 1692.17,1036.27 1694.18,1036.27 1696.2,1036.27 1698.21,1036.27 1700.22,1036.27 1702.24,1036.27 1704.25,1036.27 1706.27,1036.27 1708.28,1036.27 1710.29,1036.27 1712.31,1036.27 1714.32,1036.27 1716.34,1036.27 1718.35,1036.27 1720.37,1036.27 1722.38,1036.27 1724.39,1036.27 1726.41,1036.27 1728.42,1036.27 1730.44,1036.27 1732.45,1036.27 1734.46,1036.27 1736.48,1036.27 1738.49,1036.27 1740.51,1036.27 1742.52,1036.27 1744.54,1036.27 1746.55,1036.27 1748.56,1036.27 1750.58,1036.27 1752.59,1036.27 1754.61,1036.27 1756.62,1036.27 1758.63,1036.27 1760.65,1036.27 1762.66,1036.27 1764.68,1036.27 1766.69,1036.27 1768.71,1036.27 1770.72,1036.27 1772.73,1036.27 1774.75,1036.27 1776.76,1036.27 1778.78,1036.27 1780.79,1036.27 1782.81,1036.27 1784.82,1036.27 1786.83,1036.27 1788.85,1036.27 1790.86,1036.27 1792.88,1036.27 1794.89,1036.27 1796.9,1036.27 1798.92,1036.27 1800.93,1036.27 1802.95,1036.27 1804.96,1036.27 1806.98,1036.27 1808.99,1036.27 1811,1036.27 1813.02,1036.27 1815.03,1036.27 1817.05,1036.27 1819.06,1036.27 1821.07,1036.27 1823.09,1036.27 1825.1,1036.27 1827.12,1036.27 1829.13,1036.27 1831.15,1036.27 1833.16,1036.27 1835.17,1036.27 1837.19,1036.27 1839.2,1036.27 1841.22,1036.27 1843.23,1036.27 1845.24,1036.27 1847.26,1036.43 1849.27,1036.43 1851.29,1036.43 1853.3,1036.43 1855.32,1036.43 1857.33,1036.43 1859.34,1036.58 1861.36,1036.58 1863.37,1036.58 1865.39,1036.74 1867.4,1036.74 1869.41,1036.74 1871.43,1036.74 1873.44,1036.74 1875.46,1036.74 1877.47,1036.74 1879.49,1036.74 1881.5,1036.74 1883.51,1036.74 1885.53,1036.74 1887.54,1036.74 1889.56,1036.74 1891.57,1036.74 1893.58,1036.74 1895.6,1036.74 1897.61,1037.05 1899.63,1037.05 1901.64,1037.05 1903.66,1037.05 1905.67,1037.05 1907.68,1037.05 1909.7,1037.05 1911.71,1037.05 1913.73,1037.05 1915.74,1037.21 1917.75,1037.36 1919.77,1037.36 1921.78,1037.36 1923.8,1037.36 1925.81,1037.36 1927.83,1037.36 1929.84,1037.36 1931.85,1037.52 1933.87,1037.83 1935.88,1037.99 1937.9,1038.14 1939.91,1038.14 1941.92,1038.14 1943.94,1038.14 1945.95,1038.3 1947.97,1038.3 1949.98,1038.3 1952,1038.61 1954.01,1038.77 1956.02,1038.77 1958.04,1038.92 1960.05,1038.92 1962.07,1038.92 1964.08,1038.92 1966.09,1039.08 1968.11,1039.23 1970.12,1039.23 1972.14,1039.39 1974.15,1039.39 1976.17,1039.39 1978.18,1039.55 1980.19,1039.7 1982.21,1039.86 1984.22,1039.86 1986.24,1039.86 1988.25,1039.86 1990.26,1040.01 1992.28,1040.01 1994.29,1040.01 1996.31,1040.01 1998.32,1040.01 2000.34,1040.01 2002.35,1040.17 2004.36,1040.64 2006.38,1040.79 2008.39,1041.1 2010.41,1041.26 2012.42,1041.26 2014.44,1041.42 2016.45,1041.57 2018.46,1041.73 2020.48,1041.88 2022.49,1042.19 2024.51,1042.19 2026.52,1042.35 2028.53,1042.35 2030.55,1042.66 2032.56,1042.82 2034.58,1042.82 2036.59,1043.29 2038.61,1043.29 2040.62,1043.29 2042.63,1043.29 2044.65,1043.44 2046.66,1043.75 2048.68,1044.06 2050.69,1044.53 2052.7,1044.84 2054.72,1044.84 2056.73,1045.16 2058.75,1045.16 2060.76,1045.47 2062.78,1045.47 2064.79,1045.62 2066.8,1045.62 2068.82,1045.62 2070.83,1045.78 2072.85,1045.78 2074.86,1045.93 2076.87,1045.93 2078.89,1045.93 2080.9,1046.09 2082.92,1046.25 2084.93,1046.25 2086.95,1046.4 2088.96,1046.56 2090.97,1046.71 2092.99,1046.87 2095,1047.03 2097.02,1047.18 2099.03,1047.18 2101.04,1047.34 2103.06,1047.49 2105.07,1047.96 2107.09,1048.58 2109.1,1048.9 2111.12,1048.9 2113.13,1048.9 2115.14,1049.05 2117.16,1049.05 2119.17,1049.21 2121.19,1049.36 2123.2,1049.36 2125.21,1049.36 2127.23,1049.52 2129.24,1049.52 2131.26,1049.52 2133.27,1049.52 2135.29,1049.52 2137.3,1049.52 2139.31,1049.52 2141.33,1049.83 2143.34,1049.99 2145.36,1049.99 2147.37,1049.99 2149.38,1050.14 2151.4,1050.14 2153.41,1050.3 2155.43,1050.45 2157.44,1050.45 2159.46,1050.45 2161.47,1050.45 2163.48,1050.76 2165.5,1050.76 2167.51,1050.92 2169.53,1050.92 2171.54,1051.39 2173.55,1051.54 2175.57,1051.54 2177.58,1051.54 2179.6,1051.7 2181.61,1051.7 2183.63,1051.7 2185.64,1051.86 2187.65,1052.01 2189.67,1052.17 2191.68,1052.17 2193.7,1052.17 2195.71,1052.32 2197.72,1052.63 2199.74,1052.95 2201.75,1052.95 2203.77,1053.1 2205.78,1053.1 2207.8,1053.1 2209.81,1053.26 2211.82,1053.41 2213.84,1053.57 2215.85,1053.57 2217.87,1053.57 2219.88,1053.73 2221.9,1053.88 2223.91,1054.19 2225.92,1054.19 2227.94,1054.35 2229.95,1054.5 2231.97,1054.97 2233.98,1054.97 2235.99,1054.97 2238.01,1055.28 2240.02,1055.28 2242.04,1055.28 2244.05,1055.44 2246.07,1055.44 2248.08,1055.75 2250.09,1055.75 2252.11,1055.91 2254.12,1055.91 2256.14,1055.91 2258.15,1056.22 2260.16,1056.22 2262.18,1056.37 2264.19,1056.37 2266.21,1056.37 2268.22,1056.37 2270.24,1056.53 2272.25,1056.69 2274.26,1056.84 2276.28,1057 2278.29,1057 2280.31,1057 2282.32,1057.15 2284.33,1057.62 2286.35,1057.62 2288.36,1057.78 2290.38,1057.78 2292.39,1057.78 "/>
<path clip-path="url(#clip920)" d="M789.165 196.789 L2281.66 196.789 L2281.66 93.1086 L789.165 93.1086  Z" fill="#ffffff" fill-rule="evenodd" fill-opacity="1"/>
<polyline clip-path="url(#clip920)" style="stroke:#000000; stroke-linecap:round; stroke-linejoin:round; stroke-width:4; stroke-opacity:1; fill:none" points="789.165,196.789 2281.66,196.789 2281.66,93.1086 789.165,93.1086 789.165,196.789 "/>
<polyline clip-path="url(#clip920)" style="stroke:#009af9; stroke-linecap:round; stroke-linejoin:round; stroke-width:4; stroke-opacity:1; fill:none" points="812.863,144.949 955.056,144.949 "/>
<path clip-path="url(#clip920)" d="M983.431 131.511 L983.431 144.497 L989.31 144.497 Q992.574 144.497 994.356 142.807 Q996.139 141.118 996.139 137.993 Q996.139 134.891 994.356 133.201 Q992.574 131.511 989.31 131.511 L983.431 131.511 M978.755 127.669 L989.31 127.669 Q995.12 127.669 998.083 130.307 Q1001.07 132.923 1001.07 137.993 Q1001.07 143.108 998.083 145.724 Q995.12 148.34 989.31 148.34 L983.431 148.34 L983.431 162.229 L978.755 162.229 L978.755 127.669 Z" fill="#000000" fill-rule="nonzero" fill-opacity="1" /><path clip-path="url(#clip920)" d="M1027.64 148.201 L1027.64 150.284 L1008.06 150.284 Q1008.34 154.682 1010.7 156.997 Q1013.08 159.289 1017.32 159.289 Q1019.77 159.289 1022.06 158.687 Q1024.38 158.085 1026.65 156.881 L1026.65 160.909 Q1024.36 161.881 1021.95 162.391 Q1019.54 162.9 1017.06 162.9 Q1010.86 162.9 1007.23 159.289 Q1003.62 155.678 1003.62 149.52 Q1003.62 143.155 1007.04 139.428 Q1010.49 135.678 1016.32 135.678 Q1021.56 135.678 1024.59 139.057 Q1027.64 142.414 1027.64 148.201 M1023.38 146.951 Q1023.34 143.456 1021.42 141.372 Q1019.52 139.289 1016.37 139.289 Q1012.81 139.289 1010.65 141.303 Q1008.52 143.317 1008.2 146.974 L1023.38 146.951 Z" fill="#000000" fill-rule="nonzero" fill-opacity="1" /><path clip-path="url(#clip920)" d="M1049.66 140.284 Q1048.94 139.868 1048.08 139.682 Q1047.25 139.474 1046.23 139.474 Q1042.62 139.474 1040.68 141.835 Q1038.75 144.173 1038.75 148.571 L1038.75 162.229 L1034.47 162.229 L1034.47 136.303 L1038.75 136.303 L1038.75 140.331 Q1040.1 137.969 1042.25 136.835 Q1044.4 135.678 1047.48 135.678 Q1047.92 135.678 1048.45 135.747 Q1048.99 135.794 1049.63 135.909 L1049.66 140.284 Z" fill="#000000" fill-rule="nonzero" fill-opacity="1" /><path clip-path="url(#clip920)" d="M1071.74 137.298 L1071.74 141.28 Q1069.93 140.284 1068.11 139.798 Q1066.3 139.289 1064.45 139.289 Q1060.31 139.289 1058.01 141.928 Q1055.72 144.544 1055.72 149.289 Q1055.72 154.034 1058.01 156.673 Q1060.31 159.289 1064.45 159.289 Q1066.3 159.289 1068.11 158.803 Q1069.93 158.293 1071.74 157.298 L1071.74 161.233 Q1069.96 162.067 1068.04 162.483 Q1066.14 162.9 1063.99 162.9 Q1058.13 162.9 1054.68 159.219 Q1051.23 155.539 1051.23 149.289 Q1051.23 142.946 1054.7 139.312 Q1058.2 135.678 1064.26 135.678 Q1066.23 135.678 1068.11 136.095 Q1069.98 136.488 1071.74 137.298 Z" fill="#000000" fill-rule="nonzero" fill-opacity="1" /><path clip-path="url(#clip920)" d="M1101.32 148.201 L1101.32 150.284 L1081.74 150.284 Q1082.02 154.682 1084.38 156.997 Q1086.76 159.289 1091 159.289 Q1093.45 159.289 1095.74 158.687 Q1098.06 158.085 1100.33 156.881 L1100.33 160.909 Q1098.04 161.881 1095.63 162.391 Q1093.22 162.9 1090.74 162.9 Q1084.54 162.9 1080.91 159.289 Q1077.3 155.678 1077.3 149.52 Q1077.3 143.155 1080.72 139.428 Q1084.17 135.678 1090 135.678 Q1095.24 135.678 1098.27 139.057 Q1101.32 142.414 1101.32 148.201 M1097.06 146.951 Q1097.02 143.456 1095.1 141.372 Q1093.2 139.289 1090.05 139.289 Q1086.49 139.289 1084.33 141.303 Q1082.2 143.317 1081.88 146.974 L1097.06 146.951 Z" fill="#000000" fill-rule="nonzero" fill-opacity="1" /><path clip-path="url(#clip920)" d="M1129.87 146.581 L1129.87 162.229 L1125.61 162.229 L1125.61 146.719 Q1125.61 143.039 1124.17 141.21 Q1122.74 139.382 1119.87 139.382 Q1116.42 139.382 1114.43 141.581 Q1112.43 143.78 1112.43 147.576 L1112.43 162.229 L1108.15 162.229 L1108.15 136.303 L1112.43 136.303 L1112.43 140.331 Q1113.96 137.993 1116.02 136.835 Q1118.11 135.678 1120.81 135.678 Q1125.28 135.678 1127.57 138.456 Q1129.87 141.21 1129.87 146.581 Z" fill="#000000" fill-rule="nonzero" fill-opacity="1" /><path clip-path="url(#clip920)" d="M1142.57 128.942 L1142.57 136.303 L1151.35 136.303 L1151.35 139.613 L1142.57 139.613 L1142.57 153.687 Q1142.57 156.858 1143.43 157.761 Q1144.31 158.664 1146.97 158.664 L1151.35 158.664 L1151.35 162.229 L1146.97 162.229 Q1142.04 162.229 1140.17 160.4 Q1138.29 158.548 1138.29 153.687 L1138.29 139.613 L1135.17 139.613 L1135.17 136.303 L1138.29 136.303 L1138.29 128.942 L1142.57 128.942 Z" fill="#000000" fill-rule="nonzero" fill-opacity="1" /><path clip-path="url(#clip920)" d="M1168.73 149.196 Q1163.57 149.196 1161.58 150.377 Q1159.59 151.557 1159.59 154.405 Q1159.59 156.673 1161.07 158.016 Q1162.57 159.335 1165.14 159.335 Q1168.68 159.335 1170.81 156.835 Q1172.97 154.312 1172.97 150.145 L1172.97 149.196 L1168.73 149.196 M1177.23 147.437 L1177.23 162.229 L1172.97 162.229 L1172.97 158.293 Q1171.51 160.655 1169.33 161.789 Q1167.16 162.9 1164.01 162.9 Q1160.03 162.9 1157.67 160.678 Q1155.33 158.432 1155.33 154.682 Q1155.33 150.307 1158.24 148.085 Q1161.18 145.863 1166.99 145.863 L1172.97 145.863 L1172.97 145.446 Q1172.97 142.507 1171.02 140.909 Q1169.1 139.289 1165.61 139.289 Q1163.38 139.289 1161.28 139.821 Q1159.17 140.354 1157.23 141.419 L1157.23 137.483 Q1159.56 136.581 1161.76 136.141 Q1163.96 135.678 1166.05 135.678 Q1171.67 135.678 1174.45 138.594 Q1177.23 141.511 1177.23 147.437 Z" fill="#000000" fill-rule="nonzero" fill-opacity="1" /><path clip-path="url(#clip920)" d="M1203.06 148.965 Q1203.06 144.335 1201.14 141.789 Q1199.24 139.243 1195.79 139.243 Q1192.36 139.243 1190.44 141.789 Q1188.55 144.335 1188.55 148.965 Q1188.55 153.571 1190.44 156.118 Q1192.36 158.664 1195.79 158.664 Q1199.24 158.664 1201.14 156.118 Q1203.06 153.571 1203.06 148.965 M1207.32 159.011 Q1207.32 165.631 1204.38 168.849 Q1201.44 172.09 1195.37 172.09 Q1193.13 172.09 1191.14 171.742 Q1189.15 171.418 1187.27 170.724 L1187.27 166.58 Q1189.15 167.599 1190.98 168.085 Q1192.8 168.571 1194.7 168.571 Q1198.89 168.571 1200.98 166.372 Q1203.06 164.196 1203.06 159.775 L1203.06 157.668 Q1201.74 159.96 1199.68 161.094 Q1197.62 162.229 1194.75 162.229 Q1189.98 162.229 1187.06 158.594 Q1184.15 154.96 1184.15 148.965 Q1184.15 142.946 1187.06 139.312 Q1189.98 135.678 1194.75 135.678 Q1197.62 135.678 1199.68 136.812 Q1201.74 137.946 1203.06 140.238 L1203.06 136.303 L1207.32 136.303 L1207.32 159.011 Z" fill="#000000" fill-rule="nonzero" fill-opacity="1" /><path clip-path="url(#clip920)" d="M1238.27 148.201 L1238.27 150.284 L1218.68 150.284 Q1218.96 154.682 1221.32 156.997 Q1223.71 159.289 1227.94 159.289 Q1230.4 159.289 1232.69 158.687 Q1235 158.085 1237.27 156.881 L1237.27 160.909 Q1234.98 161.881 1232.57 162.391 Q1230.17 162.9 1227.69 162.9 Q1221.48 162.9 1217.85 159.289 Q1214.24 155.678 1214.24 149.52 Q1214.24 143.155 1217.67 139.428 Q1221.11 135.678 1226.95 135.678 Q1232.18 135.678 1235.21 139.057 Q1238.27 142.414 1238.27 148.201 M1234.01 146.951 Q1233.96 143.456 1232.04 141.372 Q1230.14 139.289 1226.99 139.289 Q1223.43 139.289 1221.28 141.303 Q1219.15 143.317 1218.82 146.974 L1234.01 146.951 Z" fill="#000000" fill-rule="nonzero" fill-opacity="1" /><path clip-path="url(#clip920)" d="M1270.37 139.289 Q1266.95 139.289 1264.96 141.974 Q1262.97 144.636 1262.97 149.289 Q1262.97 153.942 1264.93 156.627 Q1266.92 159.289 1270.37 159.289 Q1273.78 159.289 1275.77 156.604 Q1277.76 153.918 1277.76 149.289 Q1277.76 144.682 1275.77 141.997 Q1273.78 139.289 1270.37 139.289 M1270.37 135.678 Q1275.93 135.678 1279.1 139.289 Q1282.27 142.9 1282.27 149.289 Q1282.27 155.655 1279.1 159.289 Q1275.93 162.9 1270.37 162.9 Q1264.79 162.9 1261.62 159.289 Q1258.48 155.655 1258.48 149.289 Q1258.48 142.9 1261.62 139.289 Q1264.79 135.678 1270.37 135.678 Z" fill="#000000" fill-rule="nonzero" fill-opacity="1" /><path clip-path="url(#clip920)" d="M1302.46 126.21 L1302.46 129.752 L1298.38 129.752 Q1296.09 129.752 1295.19 130.678 Q1294.31 131.604 1294.31 134.011 L1294.31 136.303 L1301.32 136.303 L1301.32 139.613 L1294.31 139.613 L1294.31 162.229 L1290.03 162.229 L1290.03 139.613 L1285.95 139.613 L1285.95 136.303 L1290.03 136.303 L1290.03 134.497 Q1290.03 130.169 1292.04 128.201 Q1294.05 126.21 1298.43 126.21 L1302.46 126.21 Z" fill="#000000" fill-rule="nonzero" fill-opacity="1" /><path clip-path="url(#clip920)" d="M1337.62 137.067 L1337.62 141.094 Q1335.81 140.169 1333.87 139.706 Q1331.92 139.243 1329.84 139.243 Q1326.67 139.243 1325.07 140.215 Q1323.5 141.187 1323.5 143.131 Q1323.5 144.613 1324.63 145.469 Q1325.77 146.303 1329.19 147.067 L1330.65 147.391 Q1335.19 148.363 1337.09 150.145 Q1339.01 151.905 1339.01 155.076 Q1339.01 158.687 1336.14 160.793 Q1333.29 162.9 1328.29 162.9 Q1326.21 162.9 1323.94 162.483 Q1321.69 162.09 1319.19 161.28 L1319.19 156.881 Q1321.55 158.108 1323.85 158.733 Q1326.14 159.335 1328.38 159.335 Q1331.39 159.335 1333.01 158.317 Q1334.63 157.275 1334.63 155.4 Q1334.63 153.664 1333.45 152.738 Q1332.29 151.812 1328.34 150.956 L1326.85 150.608 Q1322.9 149.775 1321.14 148.062 Q1319.38 146.326 1319.38 143.317 Q1319.38 139.659 1321.97 137.669 Q1324.56 135.678 1329.33 135.678 Q1331.69 135.678 1333.78 136.025 Q1335.86 136.372 1337.62 137.067 Z" fill="#000000" fill-rule="nonzero" fill-opacity="1" /><path clip-path="url(#clip920)" d="M1345.79 136.303 L1350.05 136.303 L1350.05 162.229 L1345.79 162.229 L1345.79 136.303 M1345.79 126.21 L1350.05 126.21 L1350.05 131.604 L1345.79 131.604 L1345.79 126.21 Z" fill="#000000" fill-rule="nonzero" fill-opacity="1" /><path clip-path="url(#clip920)" d="M1379.15 141.28 Q1380.74 138.409 1382.97 137.044 Q1385.19 135.678 1388.2 135.678 Q1392.25 135.678 1394.45 138.525 Q1396.65 141.349 1396.65 146.581 L1396.65 162.229 L1392.36 162.229 L1392.36 146.719 Q1392.36 142.993 1391.04 141.187 Q1389.72 139.382 1387.02 139.382 Q1383.71 139.382 1381.78 141.581 Q1379.86 143.78 1379.86 147.576 L1379.86 162.229 L1375.58 162.229 L1375.58 146.719 Q1375.58 142.969 1374.26 141.187 Q1372.94 139.382 1370.19 139.382 Q1366.92 139.382 1365 141.604 Q1363.08 143.803 1363.08 147.576 L1363.08 162.229 L1358.8 162.229 L1358.8 136.303 L1363.08 136.303 L1363.08 140.331 Q1364.54 137.946 1366.58 136.812 Q1368.61 135.678 1371.41 135.678 Q1374.24 135.678 1376.21 137.113 Q1378.2 138.548 1379.15 141.28 Z" fill="#000000" fill-rule="nonzero" fill-opacity="1" /><path clip-path="url(#clip920)" d="M1404.7 151.997 L1404.7 136.303 L1408.96 136.303 L1408.96 151.835 Q1408.96 155.516 1410.4 157.368 Q1411.83 159.196 1414.7 159.196 Q1418.15 159.196 1420.14 156.997 Q1422.16 154.798 1422.16 151.002 L1422.16 136.303 L1426.41 136.303 L1426.41 162.229 L1422.16 162.229 L1422.16 158.247 Q1420.6 160.608 1418.54 161.766 Q1416.51 162.9 1413.8 162.9 Q1409.33 162.9 1407.02 160.122 Q1404.7 157.344 1404.7 151.997 M1415.42 135.678 L1415.42 135.678 Z" fill="#000000" fill-rule="nonzero" fill-opacity="1" /><path clip-path="url(#clip920)" d="M1435.19 126.21 L1439.45 126.21 L1439.45 162.229 L1435.19 162.229 L1435.19 126.21 Z" fill="#000000" fill-rule="nonzero" fill-opacity="1" /><path clip-path="url(#clip920)" d="M1460.14 149.196 Q1454.98 149.196 1452.99 150.377 Q1451 151.557 1451 154.405 Q1451 156.673 1452.48 158.016 Q1453.98 159.335 1456.55 159.335 Q1460.09 159.335 1462.22 156.835 Q1464.38 154.312 1464.38 150.145 L1464.38 149.196 L1460.14 149.196 M1468.64 147.437 L1468.64 162.229 L1464.38 162.229 L1464.38 158.293 Q1462.92 160.655 1460.74 161.789 Q1458.57 162.9 1455.42 162.9 Q1451.44 162.9 1449.08 160.678 Q1446.74 158.432 1446.74 154.682 Q1446.74 150.307 1449.65 148.085 Q1452.59 145.863 1458.4 145.863 L1464.38 145.863 L1464.38 145.446 Q1464.38 142.507 1462.43 140.909 Q1460.51 139.289 1457.02 139.289 Q1454.79 139.289 1452.69 139.821 Q1450.58 140.354 1448.64 141.419 L1448.64 137.483 Q1450.97 136.581 1453.17 136.141 Q1455.37 135.678 1457.46 135.678 Q1463.08 135.678 1465.86 138.594 Q1468.64 141.511 1468.64 147.437 Z" fill="#000000" fill-rule="nonzero" fill-opacity="1" /><path clip-path="url(#clip920)" d="M1481.62 128.942 L1481.62 136.303 L1490.4 136.303 L1490.4 139.613 L1481.62 139.613 L1481.62 153.687 Q1481.62 156.858 1482.48 157.761 Q1483.36 158.664 1486.02 158.664 L1490.4 158.664 L1490.4 162.229 L1486.02 162.229 Q1481.09 162.229 1479.21 160.4 Q1477.34 158.548 1477.34 153.687 L1477.34 139.613 L1474.22 139.613 L1474.22 136.303 L1477.34 136.303 L1477.34 128.942 L1481.62 128.942 Z" fill="#000000" fill-rule="nonzero" fill-opacity="1" /><path clip-path="url(#clip920)" d="M1496 136.303 L1500.26 136.303 L1500.26 162.229 L1496 162.229 L1496 136.303 M1496 126.21 L1500.26 126.21 L1500.26 131.604 L1496 131.604 L1496 126.21 Z" fill="#000000" fill-rule="nonzero" fill-opacity="1" /><path clip-path="url(#clip920)" d="M1519.21 139.289 Q1515.79 139.289 1513.8 141.974 Q1511.81 144.636 1511.81 149.289 Q1511.81 153.942 1513.77 156.627 Q1515.77 159.289 1519.21 159.289 Q1522.62 159.289 1524.61 156.604 Q1526.6 153.918 1526.6 149.289 Q1526.6 144.682 1524.61 141.997 Q1522.62 139.289 1519.21 139.289 M1519.21 135.678 Q1524.77 135.678 1527.94 139.289 Q1531.11 142.9 1531.11 149.289 Q1531.11 155.655 1527.94 159.289 Q1524.77 162.9 1519.21 162.9 Q1513.64 162.9 1510.46 159.289 Q1507.32 155.655 1507.32 149.289 Q1507.32 142.9 1510.46 139.289 Q1513.64 135.678 1519.21 135.678 Z" fill="#000000" fill-rule="nonzero" fill-opacity="1" /><path clip-path="url(#clip920)" d="M1559.72 146.581 L1559.72 162.229 L1555.46 162.229 L1555.46 146.719 Q1555.46 143.039 1554.03 141.21 Q1552.59 139.382 1549.72 139.382 Q1546.27 139.382 1544.28 141.581 Q1542.29 143.78 1542.29 147.576 L1542.29 162.229 L1538.01 162.229 L1538.01 136.303 L1542.29 136.303 L1542.29 140.331 Q1543.82 137.993 1545.88 136.835 Q1547.96 135.678 1550.67 135.678 Q1555.14 135.678 1557.43 138.456 Q1559.72 141.21 1559.72 146.581 Z" fill="#000000" fill-rule="nonzero" fill-opacity="1" /><path clip-path="url(#clip920)" d="M1584.75 137.067 L1584.75 141.094 Q1582.94 140.169 1581 139.706 Q1579.05 139.243 1576.97 139.243 Q1573.8 139.243 1572.2 140.215 Q1570.63 141.187 1570.63 143.131 Q1570.63 144.613 1571.76 145.469 Q1572.9 146.303 1576.32 147.067 L1577.78 147.391 Q1582.32 148.363 1584.21 150.145 Q1586.14 151.905 1586.14 155.076 Q1586.14 158.687 1583.27 160.793 Q1580.42 162.9 1575.42 162.9 Q1573.33 162.9 1571.07 162.483 Q1568.82 162.09 1566.32 161.28 L1566.32 156.881 Q1568.68 158.108 1570.97 158.733 Q1573.27 159.335 1575.51 159.335 Q1578.52 159.335 1580.14 158.317 Q1581.76 157.275 1581.76 155.4 Q1581.76 153.664 1580.58 152.738 Q1579.42 151.812 1575.46 150.956 L1573.98 150.608 Q1570.02 149.775 1568.27 148.062 Q1566.51 146.326 1566.51 143.317 Q1566.51 139.659 1569.1 137.669 Q1571.69 135.678 1576.46 135.678 Q1578.82 135.678 1580.9 136.025 Q1582.99 136.372 1584.75 137.067 Z" fill="#000000" fill-rule="nonzero" fill-opacity="1" /><path clip-path="url(#clip920)" d="M1605.51 136.303 L1609.77 136.303 L1615.09 156.534 L1620.39 136.303 L1625.42 136.303 L1630.74 156.534 L1636.04 136.303 L1640.3 136.303 L1633.52 162.229 L1628.5 162.229 L1622.92 140.979 L1617.32 162.229 L1612.29 162.229 L1605.51 136.303 Z" fill="#000000" fill-rule="nonzero" fill-opacity="1" /><path clip-path="url(#clip920)" d="M1646.76 136.303 L1651.02 136.303 L1651.02 162.229 L1646.76 162.229 L1646.76 136.303 M1646.76 126.21 L1651.02 126.21 L1651.02 131.604 L1646.76 131.604 L1646.76 126.21 Z" fill="#000000" fill-rule="nonzero" fill-opacity="1" /><path clip-path="url(#clip920)" d="M1664.14 128.942 L1664.14 136.303 L1672.92 136.303 L1672.92 139.613 L1664.14 139.613 L1664.14 153.687 Q1664.14 156.858 1665 157.761 Q1665.88 158.664 1668.54 158.664 L1672.92 158.664 L1672.92 162.229 L1668.54 162.229 Q1663.61 162.229 1661.74 160.4 Q1659.86 158.548 1659.86 153.687 L1659.86 139.613 L1656.74 139.613 L1656.74 136.303 L1659.86 136.303 L1659.86 128.942 L1664.14 128.942 Z" fill="#000000" fill-rule="nonzero" fill-opacity="1" /><path clip-path="url(#clip920)" d="M1700.07 146.581 L1700.07 162.229 L1695.81 162.229 L1695.81 146.719 Q1695.81 143.039 1694.38 141.21 Q1692.94 139.382 1690.07 139.382 Q1686.62 139.382 1684.63 141.581 Q1682.64 143.78 1682.64 147.576 L1682.64 162.229 L1678.36 162.229 L1678.36 126.21 L1682.64 126.21 L1682.64 140.331 Q1684.17 137.993 1686.23 136.835 Q1688.31 135.678 1691.02 135.678 Q1695.49 135.678 1697.78 138.456 Q1700.07 141.21 1700.07 146.581 Z" fill="#000000" fill-rule="nonzero" fill-opacity="1" /><path clip-path="url(#clip920)" d="M1743.82 141.28 Q1745.42 138.409 1747.64 137.044 Q1749.86 135.678 1752.87 135.678 Q1756.92 135.678 1759.12 138.525 Q1761.32 141.349 1761.32 146.581 L1761.32 162.229 L1757.04 162.229 L1757.04 146.719 Q1757.04 142.993 1755.72 141.187 Q1754.4 139.382 1751.69 139.382 Q1748.38 139.382 1746.46 141.581 Q1744.54 143.78 1744.54 147.576 L1744.54 162.229 L1740.26 162.229 L1740.26 146.719 Q1740.26 142.969 1738.94 141.187 Q1737.62 139.382 1734.86 139.382 Q1731.6 139.382 1729.68 141.604 Q1727.76 143.803 1727.76 147.576 L1727.76 162.229 L1723.47 162.229 L1723.47 136.303 L1727.76 136.303 L1727.76 140.331 Q1729.21 137.946 1731.25 136.812 Q1733.29 135.678 1736.09 135.678 Q1738.91 135.678 1740.88 137.113 Q1742.87 138.548 1743.82 141.28 Z" fill="#000000" fill-rule="nonzero" fill-opacity="1" /><path clip-path="url(#clip920)" d="M1779.86 139.289 Q1776.44 139.289 1774.44 141.974 Q1772.45 144.636 1772.45 149.289 Q1772.45 153.942 1774.42 156.627 Q1776.41 159.289 1779.86 159.289 Q1783.26 159.289 1785.26 156.604 Q1787.25 153.918 1787.25 149.289 Q1787.25 144.682 1785.26 141.997 Q1783.26 139.289 1779.86 139.289 M1779.86 135.678 Q1785.42 135.678 1788.59 139.289 Q1791.76 142.9 1791.76 149.289 Q1791.76 155.655 1788.59 159.289 Q1785.42 162.9 1779.86 162.9 Q1774.28 162.9 1771.11 159.289 Q1767.96 155.655 1767.96 149.289 Q1767.96 142.9 1771.11 139.289 Q1774.28 135.678 1779.86 135.678 Z" fill="#000000" fill-rule="nonzero" fill-opacity="1" /><path clip-path="url(#clip920)" d="M1820.37 146.581 L1820.37 162.229 L1816.11 162.229 L1816.11 146.719 Q1816.11 143.039 1814.68 141.21 Q1813.24 139.382 1810.37 139.382 Q1806.92 139.382 1804.93 141.581 Q1802.94 143.78 1802.94 147.576 L1802.94 162.229 L1798.66 162.229 L1798.66 136.303 L1802.94 136.303 L1802.94 140.331 Q1804.47 137.993 1806.53 136.835 Q1808.61 135.678 1811.32 135.678 Q1815.79 135.678 1818.08 138.456 Q1820.37 141.21 1820.37 146.581 Z" fill="#000000" fill-rule="nonzero" fill-opacity="1" /><path clip-path="url(#clip920)" d="M1851.04 148.201 L1851.04 150.284 L1831.46 150.284 Q1831.74 154.682 1834.1 156.997 Q1836.48 159.289 1840.72 159.289 Q1843.17 159.289 1845.46 158.687 Q1847.78 158.085 1850.05 156.881 L1850.05 160.909 Q1847.75 161.881 1845.35 162.391 Q1842.94 162.9 1840.46 162.9 Q1834.26 162.9 1830.63 159.289 Q1827.01 155.678 1827.01 149.52 Q1827.01 143.155 1830.44 139.428 Q1833.89 135.678 1839.72 135.678 Q1844.95 135.678 1847.99 139.057 Q1851.04 142.414 1851.04 148.201 M1846.78 146.951 Q1846.74 143.456 1844.81 141.372 Q1842.92 139.289 1839.77 139.289 Q1836.2 139.289 1834.05 141.303 Q1831.92 143.317 1831.6 146.974 L1846.78 146.951 Z" fill="#000000" fill-rule="nonzero" fill-opacity="1" /><path clip-path="url(#clip920)" d="M1868.82 164.636 Q1867.01 169.266 1865.3 170.678 Q1863.59 172.09 1860.72 172.09 L1857.31 172.09 L1857.31 168.525 L1859.81 168.525 Q1861.57 168.525 1862.55 167.692 Q1863.52 166.858 1864.7 163.756 L1865.46 161.812 L1854.98 136.303 L1859.49 136.303 L1867.59 156.581 L1875.69 136.303 L1880.21 136.303 L1868.82 164.636 Z" fill="#000000" fill-rule="nonzero" fill-opacity="1" /><path clip-path="url(#clip920)" d="M1901.71 138.895 L1901.71 134.682 L1931.39 145.446 L1931.39 149.289 L1901.71 160.053 L1901.71 155.84 L1925.56 147.391 L1901.71 138.895 Z" fill="#000000" fill-rule="nonzero" fill-opacity="1" /><path clip-path="url(#clip920)" d="M1955.95 136.303 L1960.21 136.303 L1960.21 162.229 L1955.95 162.229 L1955.95 136.303 M1955.95 126.21 L1960.21 126.21 L1960.21 131.604 L1955.95 131.604 L1955.95 126.21 Z" fill="#000000" fill-rule="nonzero" fill-opacity="1" /><path clip-path="url(#clip920)" d="M1990.67 146.581 L1990.67 162.229 L1986.41 162.229 L1986.41 146.719 Q1986.41 143.039 1984.98 141.21 Q1983.54 139.382 1980.67 139.382 Q1977.22 139.382 1975.23 141.581 Q1973.24 143.78 1973.24 147.576 L1973.24 162.229 L1968.96 162.229 L1968.96 136.303 L1973.24 136.303 L1973.24 140.331 Q1974.77 137.993 1976.83 136.835 Q1978.91 135.678 1981.62 135.678 Q1986.09 135.678 1988.38 138.456 Q1990.67 141.21 1990.67 146.581 Z" fill="#000000" fill-rule="nonzero" fill-opacity="1" /><path clip-path="url(#clip920)" d="M1999.17 136.303 L2003.43 136.303 L2003.43 162.229 L1999.17 162.229 L1999.17 136.303 M1999.17 126.21 L2003.43 126.21 L2003.43 131.604 L1999.17 131.604 L1999.17 126.21 Z" fill="#000000" fill-rule="nonzero" fill-opacity="1" /><path clip-path="url(#clip920)" d="M2016.55 128.942 L2016.55 136.303 L2025.32 136.303 L2025.32 139.613 L2016.55 139.613 L2016.55 153.687 Q2016.55 156.858 2017.41 157.761 Q2018.29 158.664 2020.95 158.664 L2025.32 158.664 L2025.32 162.229 L2020.95 162.229 Q2016.02 162.229 2014.14 160.4 Q2012.27 158.548 2012.27 153.687 L2012.27 139.613 L2009.14 139.613 L2009.14 136.303 L2012.27 136.303 L2012.27 128.942 L2016.55 128.942 Z" fill="#000000" fill-rule="nonzero" fill-opacity="1" /><path clip-path="url(#clip920)" d="M2030.92 136.303 L2035.18 136.303 L2035.18 162.229 L2030.92 162.229 L2030.92 136.303 M2030.92 126.21 L2035.18 126.21 L2035.18 131.604 L2030.92 131.604 L2030.92 126.21 Z" fill="#000000" fill-rule="nonzero" fill-opacity="1" /><path clip-path="url(#clip920)" d="M2055.88 149.196 Q2050.72 149.196 2048.73 150.377 Q2046.74 151.557 2046.74 154.405 Q2046.74 156.673 2048.22 158.016 Q2049.72 159.335 2052.29 159.335 Q2055.83 159.335 2057.96 156.835 Q2060.11 154.312 2060.11 150.145 L2060.11 149.196 L2055.88 149.196 M2064.37 147.437 L2064.37 162.229 L2060.11 162.229 L2060.11 158.293 Q2058.66 160.655 2056.48 161.789 Q2054.3 162.9 2051.16 162.9 Q2047.17 162.9 2044.81 160.678 Q2042.48 158.432 2042.48 154.682 Q2042.48 150.307 2045.39 148.085 Q2048.33 145.863 2054.14 145.863 L2060.11 145.863 L2060.11 145.446 Q2060.11 142.507 2058.17 140.909 Q2056.25 139.289 2052.75 139.289 Q2050.53 139.289 2048.42 139.821 Q2046.32 140.354 2044.37 141.419 L2044.37 137.483 Q2046.71 136.581 2048.91 136.141 Q2051.11 135.678 2053.19 135.678 Q2058.82 135.678 2061.6 138.594 Q2064.37 141.511 2064.37 147.437 Z" fill="#000000" fill-rule="nonzero" fill-opacity="1" /><path clip-path="url(#clip920)" d="M2073.15 126.21 L2077.41 126.21 L2077.41 162.229 L2073.15 162.229 L2073.15 126.21 Z" fill="#000000" fill-rule="nonzero" fill-opacity="1" /><path clip-path="url(#clip920)" d="M2121.57 141.28 Q2123.17 138.409 2125.39 137.044 Q2127.61 135.678 2130.62 135.678 Q2134.67 135.678 2136.87 138.525 Q2139.07 141.349 2139.07 146.581 L2139.07 162.229 L2134.79 162.229 L2134.79 146.719 Q2134.79 142.993 2133.47 141.187 Q2132.15 139.382 2129.44 139.382 Q2126.13 139.382 2124.21 141.581 Q2122.29 143.78 2122.29 147.576 L2122.29 162.229 L2118.01 162.229 L2118.01 146.719 Q2118.01 142.969 2116.69 141.187 Q2115.37 139.382 2112.61 139.382 Q2109.35 139.382 2107.43 141.604 Q2105.51 143.803 2105.51 147.576 L2105.51 162.229 L2101.23 162.229 L2101.23 136.303 L2105.51 136.303 L2105.51 140.331 Q2106.97 137.946 2109 136.812 Q2111.04 135.678 2113.84 135.678 Q2116.67 135.678 2118.63 137.113 Q2120.62 138.548 2121.57 141.28 Z" fill="#000000" fill-rule="nonzero" fill-opacity="1" /><path clip-path="url(#clip920)" d="M2157.61 139.289 Q2154.19 139.289 2152.2 141.974 Q2150.21 144.636 2150.21 149.289 Q2150.21 153.942 2152.17 156.627 Q2154.17 159.289 2157.61 159.289 Q2161.02 159.289 2163.01 156.604 Q2165 153.918 2165 149.289 Q2165 144.682 2163.01 141.997 Q2161.02 139.289 2157.61 139.289 M2157.61 135.678 Q2163.17 135.678 2166.34 139.289 Q2169.51 142.9 2169.51 149.289 Q2169.51 155.655 2166.34 159.289 Q2163.17 162.9 2157.61 162.9 Q2152.04 162.9 2148.86 159.289 Q2145.72 155.655 2145.72 149.289 Q2145.72 142.9 2148.86 139.289 Q2152.04 135.678 2157.61 135.678 Z" fill="#000000" fill-rule="nonzero" fill-opacity="1" /><path clip-path="url(#clip920)" d="M2198.12 146.581 L2198.12 162.229 L2193.86 162.229 L2193.86 146.719 Q2193.86 143.039 2192.43 141.21 Q2190.99 139.382 2188.12 139.382 Q2184.67 139.382 2182.68 141.581 Q2180.69 143.78 2180.69 147.576 L2180.69 162.229 L2176.41 162.229 L2176.41 136.303 L2180.69 136.303 L2180.69 140.331 Q2182.22 137.993 2184.28 136.835 Q2186.36 135.678 2189.07 135.678 Q2193.54 135.678 2195.83 138.456 Q2198.12 141.21 2198.12 146.581 Z" fill="#000000" fill-rule="nonzero" fill-opacity="1" /><path clip-path="url(#clip920)" d="M2228.79 148.201 L2228.79 150.284 L2209.21 150.284 Q2209.49 154.682 2211.85 156.997 Q2214.23 159.289 2218.47 159.289 Q2220.92 159.289 2223.22 158.687 Q2225.53 158.085 2227.8 156.881 L2227.8 160.909 Q2225.51 161.881 2223.1 162.391 Q2220.69 162.9 2218.22 162.9 Q2212.01 162.9 2208.38 159.289 Q2204.77 155.678 2204.77 149.52 Q2204.77 143.155 2208.19 139.428 Q2211.64 135.678 2217.47 135.678 Q2222.71 135.678 2225.74 139.057 Q2228.79 142.414 2228.79 148.201 M2224.54 146.951 Q2224.49 143.456 2222.57 141.372 Q2220.67 139.289 2217.52 139.289 Q2213.96 139.289 2211.8 141.303 Q2209.67 143.317 2209.35 146.974 L2224.54 146.951 Z" fill="#000000" fill-rule="nonzero" fill-opacity="1" /><path clip-path="url(#clip920)" d="M2246.57 164.636 Q2244.77 169.266 2243.05 170.678 Q2241.34 172.09 2238.47 172.09 L2235.07 172.09 L2235.07 168.525 L2237.57 168.525 Q2239.33 168.525 2240.3 167.692 Q2241.27 166.858 2242.45 163.756 L2243.22 161.812 L2232.73 136.303 L2237.24 136.303 L2245.35 156.581 L2253.45 136.303 L2257.96 136.303 L2246.57 164.636 Z" fill="#000000" fill-rule="nonzero" fill-opacity="1" /></svg>
