<?xml version="1.0" encoding="utf-8"?>
<svg xmlns="http://www.w3.org/2000/svg" xmlns:xlink="http://www.w3.org/1999/xlink" width="600" height="400" viewBox="0 0 2400 1600">
<defs>
  <clipPath id="clip830">
    <rect x="0" y="0" width="2400" height="1600"/>
  </clipPath>
</defs>
<path clip-path="url(#clip830)" d="M0 1600 L2400 1600 L2400 0 L0 0  Z" fill="#ffffff" fill-rule="evenodd" fill-opacity="1"/>
<defs>
  <clipPath id="clip831">
    <rect x="480" y="0" width="1681" height="1600"/>
  </clipPath>
</defs>
<path clip-path="url(#clip830)" d="M232.389 1423.18 L2352.76 1423.18 L2352.76 47.2441 L232.389 47.2441  Z" fill="#ffffff" fill-rule="evenodd" fill-opacity="1"/>
<defs>
  <clipPath id="clip832">
    <rect x="232" y="47" width="2121" height="1377"/>
  </clipPath>
</defs>
<polyline clip-path="url(#clip832)" style="stroke:#000000; stroke-linecap:round; stroke-linejoin:round; stroke-width:2; stroke-opacity:0.1; fill:none" points="290.397,1423.18 290.397,47.2441 "/>
<polyline clip-path="url(#clip832)" style="stroke:#000000; stroke-linecap:round; stroke-linejoin:round; stroke-width:2; stroke-opacity:0.1; fill:none" points="790.984,1423.18 790.984,47.2441 "/>
<polyline clip-path="url(#clip832)" style="stroke:#000000; stroke-linecap:round; stroke-linejoin:round; stroke-width:2; stroke-opacity:0.1; fill:none" points="1291.57,1423.18 1291.57,47.2441 "/>
<polyline clip-path="url(#clip832)" style="stroke:#000000; stroke-linecap:round; stroke-linejoin:round; stroke-width:2; stroke-opacity:0.1; fill:none" points="1792.16,1423.18 1792.16,47.2441 "/>
<polyline clip-path="url(#clip832)" style="stroke:#000000; stroke-linecap:round; stroke-linejoin:round; stroke-width:2; stroke-opacity:0.1; fill:none" points="2292.75,1423.18 2292.75,47.2441 "/>
<polyline clip-path="url(#clip830)" style="stroke:#000000; stroke-linecap:round; stroke-linejoin:round; stroke-width:4; stroke-opacity:1; fill:none" points="232.389,1423.18 2352.76,1423.18 "/>
<polyline clip-path="url(#clip830)" style="stroke:#000000; stroke-linecap:round; stroke-linejoin:round; stroke-width:4; stroke-opacity:1; fill:none" points="290.397,1423.18 290.397,1404.28 "/>
<polyline clip-path="url(#clip830)" style="stroke:#000000; stroke-linecap:round; stroke-linejoin:round; stroke-width:4; stroke-opacity:1; fill:none" points="790.984,1423.18 790.984,1404.28 "/>
<polyline clip-path="url(#clip830)" style="stroke:#000000; stroke-linecap:round; stroke-linejoin:round; stroke-width:4; stroke-opacity:1; fill:none" points="1291.57,1423.18 1291.57,1404.28 "/>
<polyline clip-path="url(#clip830)" style="stroke:#000000; stroke-linecap:round; stroke-linejoin:round; stroke-width:4; stroke-opacity:1; fill:none" points="1792.16,1423.18 1792.16,1404.28 "/>
<polyline clip-path="url(#clip830)" style="stroke:#000000; stroke-linecap:round; stroke-linejoin:round; stroke-width:4; stroke-opacity:1; fill:none" points="2292.75,1423.18 2292.75,1404.28 "/>
<path clip-path="url(#clip830)" d="M290.397 1454.1 Q286.786 1454.1 284.958 1457.66 Q283.152 1461.2 283.152 1468.33 Q283.152 1475.44 284.958 1479.01 Q286.786 1482.55 290.397 1482.55 Q294.032 1482.55 295.837 1479.01 Q297.666 1475.44 297.666 1468.33 Q297.666 1461.2 295.837 1457.66 Q294.032 1454.1 290.397 1454.1 M290.397 1450.39 Q296.208 1450.39 299.263 1455 Q302.342 1459.58 302.342 1468.33 Q302.342 1477.06 299.263 1481.67 Q296.208 1486.25 290.397 1486.25 Q284.587 1486.25 281.509 1481.67 Q278.453 1477.06 278.453 1468.33 Q278.453 1459.58 281.509 1455 Q284.587 1450.39 290.397 1450.39 Z" fill="#000000" fill-rule="nonzero" fill-opacity="1" /><path clip-path="url(#clip830)" d="M754.677 1481.64 L770.996 1481.64 L770.996 1485.58 L749.052 1485.58 L749.052 1481.64 Q751.714 1478.89 756.297 1474.26 Q760.904 1469.61 762.084 1468.27 Q764.329 1465.74 765.209 1464.01 Q766.112 1462.25 766.112 1460.56 Q766.112 1457.8 764.167 1456.07 Q762.246 1454.33 759.144 1454.33 Q756.945 1454.33 754.492 1455.09 Q752.061 1455.86 749.283 1457.41 L749.283 1452.69 Q752.107 1451.55 754.561 1450.97 Q757.015 1450.39 759.052 1450.39 Q764.422 1450.39 767.616 1453.08 Q770.811 1455.77 770.811 1460.26 Q770.811 1462.39 770.001 1464.31 Q769.214 1466.2 767.107 1468.8 Q766.529 1469.47 763.427 1472.69 Q760.325 1475.88 754.677 1481.64 Z" fill="#000000" fill-rule="nonzero" fill-opacity="1" /><path clip-path="url(#clip830)" d="M780.857 1451.02 L799.214 1451.02 L799.214 1454.96 L785.14 1454.96 L785.14 1463.43 Q786.158 1463.08 787.177 1462.92 Q788.195 1462.73 789.214 1462.73 Q795.001 1462.73 798.38 1465.9 Q801.76 1469.08 801.76 1474.49 Q801.76 1480.07 798.288 1483.17 Q794.815 1486.25 788.496 1486.25 Q786.32 1486.25 784.052 1485.88 Q781.806 1485.51 779.399 1484.77 L779.399 1480.07 Q781.482 1481.2 783.704 1481.76 Q785.927 1482.32 788.403 1482.32 Q792.408 1482.32 794.746 1480.21 Q797.084 1478.1 797.084 1474.49 Q797.084 1470.88 794.746 1468.77 Q792.408 1466.67 788.403 1466.67 Q786.528 1466.67 784.653 1467.08 Q782.802 1467.5 780.857 1468.38 L780.857 1451.02 Z" fill="#000000" fill-rule="nonzero" fill-opacity="1" /><path clip-path="url(#clip830)" d="M820.973 1454.1 Q817.362 1454.1 815.533 1457.66 Q813.727 1461.2 813.727 1468.33 Q813.727 1475.44 815.533 1479.01 Q817.362 1482.55 820.973 1482.55 Q824.607 1482.55 826.412 1479.01 Q828.241 1475.44 828.241 1468.33 Q828.241 1461.2 826.412 1457.66 Q824.607 1454.1 820.973 1454.1 M820.973 1450.39 Q826.783 1450.39 829.838 1455 Q832.917 1459.58 832.917 1468.33 Q832.917 1477.06 829.838 1481.67 Q826.783 1486.25 820.973 1486.25 Q815.163 1486.25 812.084 1481.67 Q809.028 1477.06 809.028 1468.33 Q809.028 1459.58 812.084 1455 Q815.163 1450.39 820.973 1450.39 Z" fill="#000000" fill-rule="nonzero" fill-opacity="1" /><path clip-path="url(#clip830)" d="M1251.19 1451.02 L1269.55 1451.02 L1269.55 1454.96 L1255.47 1454.96 L1255.47 1463.43 Q1256.49 1463.08 1257.51 1462.92 Q1258.53 1462.73 1259.55 1462.73 Q1265.33 1462.73 1268.71 1465.9 Q1272.09 1469.08 1272.09 1474.49 Q1272.09 1480.07 1268.62 1483.17 Q1265.15 1486.25 1258.83 1486.25 Q1256.65 1486.25 1254.38 1485.88 Q1252.14 1485.51 1249.73 1484.77 L1249.73 1480.07 Q1251.81 1481.2 1254.04 1481.76 Q1256.26 1482.32 1258.74 1482.32 Q1262.74 1482.32 1265.08 1480.21 Q1267.42 1478.1 1267.42 1474.49 Q1267.42 1470.88 1265.08 1468.77 Q1262.74 1466.67 1258.74 1466.67 Q1256.86 1466.67 1254.99 1467.08 Q1253.13 1467.5 1251.19 1468.38 L1251.19 1451.02 Z" fill="#000000" fill-rule="nonzero" fill-opacity="1" /><path clip-path="url(#clip830)" d="M1291.31 1454.1 Q1287.69 1454.1 1285.87 1457.66 Q1284.06 1461.2 1284.06 1468.33 Q1284.06 1475.44 1285.87 1479.01 Q1287.69 1482.55 1291.31 1482.55 Q1294.94 1482.55 1296.75 1479.01 Q1298.57 1475.44 1298.57 1468.33 Q1298.57 1461.2 1296.75 1457.66 Q1294.94 1454.1 1291.31 1454.1 M1291.31 1450.39 Q1297.12 1450.39 1300.17 1455 Q1303.25 1459.58 1303.25 1468.33 Q1303.25 1477.06 1300.17 1481.67 Q1297.12 1486.25 1291.31 1486.25 Q1285.5 1486.25 1282.42 1481.67 Q1279.36 1477.06 1279.36 1468.33 Q1279.36 1459.58 1282.42 1455 Q1285.5 1450.39 1291.31 1450.39 Z" fill="#000000" fill-rule="nonzero" fill-opacity="1" /><path clip-path="url(#clip830)" d="M1321.47 1454.1 Q1317.86 1454.1 1316.03 1457.66 Q1314.22 1461.2 1314.22 1468.33 Q1314.22 1475.44 1316.03 1479.01 Q1317.86 1482.55 1321.47 1482.55 Q1325.1 1482.55 1326.91 1479.01 Q1328.74 1475.44 1328.74 1468.33 Q1328.74 1461.2 1326.91 1457.66 Q1325.1 1454.1 1321.47 1454.1 M1321.47 1450.39 Q1327.28 1450.39 1330.33 1455 Q1333.41 1459.58 1333.41 1468.33 Q1333.41 1477.06 1330.33 1481.67 Q1327.28 1486.25 1321.47 1486.25 Q1315.66 1486.25 1312.58 1481.67 Q1309.52 1477.06 1309.52 1468.33 Q1309.52 1459.58 1312.58 1455 Q1315.66 1450.39 1321.47 1450.39 Z" fill="#000000" fill-rule="nonzero" fill-opacity="1" /><path clip-path="url(#clip830)" d="M1750.43 1451.02 L1772.66 1451.02 L1772.66 1453.01 L1760.11 1485.58 L1755.23 1485.58 L1767.03 1454.96 L1750.43 1454.96 L1750.43 1451.02 Z" fill="#000000" fill-rule="nonzero" fill-opacity="1" /><path clip-path="url(#clip830)" d="M1781.82 1451.02 L1800.18 1451.02 L1800.18 1454.96 L1786.11 1454.96 L1786.11 1463.43 Q1787.12 1463.08 1788.14 1462.92 Q1789.16 1462.73 1790.18 1462.73 Q1795.97 1462.73 1799.35 1465.9 Q1802.73 1469.08 1802.73 1474.49 Q1802.73 1480.07 1799.25 1483.17 Q1795.78 1486.25 1789.46 1486.25 Q1787.29 1486.25 1785.02 1485.88 Q1782.77 1485.51 1780.36 1484.77 L1780.36 1480.07 Q1782.45 1481.2 1784.67 1481.76 Q1786.89 1482.32 1789.37 1482.32 Q1793.37 1482.32 1795.71 1480.21 Q1798.05 1478.1 1798.05 1474.49 Q1798.05 1470.88 1795.71 1468.77 Q1793.37 1466.67 1789.37 1466.67 Q1787.49 1466.67 1785.62 1467.08 Q1783.77 1467.5 1781.82 1468.38 L1781.82 1451.02 Z" fill="#000000" fill-rule="nonzero" fill-opacity="1" /><path clip-path="url(#clip830)" d="M1821.94 1454.1 Q1818.33 1454.1 1816.5 1457.66 Q1814.69 1461.2 1814.69 1468.33 Q1814.69 1475.44 1816.5 1479.01 Q1818.33 1482.55 1821.94 1482.55 Q1825.57 1482.55 1827.38 1479.01 Q1829.21 1475.44 1829.21 1468.33 Q1829.21 1461.2 1827.38 1457.66 Q1825.57 1454.1 1821.94 1454.1 M1821.94 1450.39 Q1827.75 1450.39 1830.8 1455 Q1833.88 1459.58 1833.88 1468.33 Q1833.88 1477.06 1830.8 1481.67 Q1827.75 1486.25 1821.94 1486.25 Q1816.13 1486.25 1813.05 1481.67 Q1809.99 1477.06 1809.99 1468.33 Q1809.99 1459.58 1813.05 1455 Q1816.13 1450.39 1821.94 1450.39 Z" fill="#000000" fill-rule="nonzero" fill-opacity="1" /><path clip-path="url(#clip830)" d="M2237.27 1481.64 L2244.91 1481.64 L2244.91 1455.28 L2236.6 1456.95 L2236.6 1452.69 L2244.86 1451.02 L2249.54 1451.02 L2249.54 1481.64 L2257.18 1481.64 L2257.18 1485.58 L2237.27 1485.58 L2237.27 1481.64 Z" fill="#000000" fill-rule="nonzero" fill-opacity="1" /><path clip-path="url(#clip830)" d="M2276.62 1454.1 Q2273.01 1454.1 2271.18 1457.66 Q2269.38 1461.2 2269.38 1468.33 Q2269.38 1475.44 2271.18 1479.01 Q2273.01 1482.55 2276.62 1482.55 Q2280.26 1482.55 2282.06 1479.01 Q2283.89 1475.44 2283.89 1468.33 Q2283.89 1461.2 2282.06 1457.66 Q2280.26 1454.1 2276.62 1454.1 M2276.62 1450.39 Q2282.43 1450.39 2285.49 1455 Q2288.57 1459.58 2288.57 1468.33 Q2288.57 1477.06 2285.49 1481.67 Q2282.43 1486.25 2276.62 1486.25 Q2270.81 1486.25 2267.73 1481.67 Q2264.68 1477.06 2264.68 1468.33 Q2264.68 1459.58 2267.73 1455 Q2270.81 1450.39 2276.62 1450.39 Z" fill="#000000" fill-rule="nonzero" fill-opacity="1" /><path clip-path="url(#clip830)" d="M2306.78 1454.1 Q2303.17 1454.1 2301.35 1457.66 Q2299.54 1461.2 2299.54 1468.33 Q2299.54 1475.44 2301.35 1479.01 Q2303.17 1482.55 2306.78 1482.55 Q2310.42 1482.55 2312.22 1479.01 Q2314.05 1475.44 2314.05 1468.33 Q2314.05 1461.2 2312.22 1457.66 Q2310.42 1454.1 2306.78 1454.1 M2306.78 1450.39 Q2312.59 1450.39 2315.65 1455 Q2318.73 1459.58 2318.73 1468.33 Q2318.73 1477.06 2315.65 1481.67 Q2312.59 1486.25 2306.78 1486.25 Q2300.97 1486.25 2297.9 1481.67 Q2294.84 1477.06 2294.84 1468.33 Q2294.84 1459.58 2297.9 1455 Q2300.97 1450.39 2306.78 1450.39 Z" fill="#000000" fill-rule="nonzero" fill-opacity="1" /><path clip-path="url(#clip830)" d="M2336.95 1454.1 Q2333.34 1454.1 2331.51 1457.66 Q2329.7 1461.2 2329.7 1468.33 Q2329.7 1475.44 2331.51 1479.01 Q2333.34 1482.55 2336.95 1482.55 Q2340.58 1482.55 2342.39 1479.01 Q2344.22 1475.44 2344.22 1468.33 Q2344.22 1461.2 2342.39 1457.66 Q2340.58 1454.1 2336.95 1454.1 M2336.95 1450.39 Q2342.76 1450.39 2345.81 1455 Q2348.89 1459.58 2348.89 1468.33 Q2348.89 1477.06 2345.81 1481.67 Q2342.76 1486.25 2336.95 1486.25 Q2331.14 1486.25 2328.06 1481.67 Q2325 1477.06 2325 1468.33 Q2325 1459.58 2328.06 1455 Q2331.14 1450.39 2336.95 1450.39 Z" fill="#000000" fill-rule="nonzero" fill-opacity="1" /><path clip-path="url(#clip830)" d="M1218.14 1545.76 Q1220.21 1546.46 1222.15 1548.76 Q1224.13 1551.05 1226.1 1555.06 L1232.62 1568.04 L1225.72 1568.04 L1219.64 1555.85 Q1217.28 1551.08 1215.05 1549.52 Q1212.86 1547.96 1209.04 1547.96 L1202.04 1547.96 L1202.04 1568.04 L1195.61 1568.04 L1195.61 1520.52 L1210.12 1520.52 Q1218.27 1520.52 1222.28 1523.93 Q1226.29 1527.34 1226.29 1534.21 Q1226.29 1538.7 1224.19 1541.66 Q1222.12 1544.62 1218.14 1545.76 M1202.04 1525.81 L1202.04 1542.68 L1210.12 1542.68 Q1214.77 1542.68 1217.12 1540.54 Q1219.51 1538.38 1219.51 1534.21 Q1219.51 1530.04 1217.12 1527.94 Q1214.77 1525.81 1210.12 1525.81 L1202.04 1525.81 Z" fill="#000000" fill-rule="nonzero" fill-opacity="1" /><path clip-path="url(#clip830)" d="M1251.53 1536.5 Q1246.82 1536.5 1244.08 1540.19 Q1241.34 1543.85 1241.34 1550.25 Q1241.34 1556.65 1244.05 1560.34 Q1246.79 1564 1251.53 1564 Q1256.21 1564 1258.95 1560.31 Q1261.68 1556.62 1261.68 1550.25 Q1261.68 1543.92 1258.95 1540.23 Q1256.21 1536.5 1251.53 1536.5 M1251.53 1531.54 Q1259.17 1531.54 1263.53 1536.5 Q1267.89 1541.47 1267.89 1550.25 Q1267.89 1559 1263.53 1564 Q1259.17 1568.97 1251.53 1568.97 Q1243.86 1568.97 1239.5 1564 Q1235.17 1559 1235.17 1550.25 Q1235.17 1541.47 1239.5 1536.5 Q1243.86 1531.54 1251.53 1531.54 Z" fill="#000000" fill-rule="nonzero" fill-opacity="1" /><path clip-path="url(#clip830)" d="M1276.99 1553.98 L1276.99 1532.4 L1282.85 1532.4 L1282.85 1553.75 Q1282.85 1558.81 1284.82 1561.36 Q1286.8 1563.87 1290.74 1563.87 Q1295.48 1563.87 1298.22 1560.85 Q1300.99 1557.83 1300.99 1552.61 L1300.99 1532.4 L1306.85 1532.4 L1306.85 1568.04 L1300.99 1568.04 L1300.99 1562.57 Q1298.86 1565.82 1296.03 1567.41 Q1293.23 1568.97 1289.5 1568.97 Q1283.36 1568.97 1280.18 1565.15 Q1276.99 1561.33 1276.99 1553.98 M1291.73 1531.54 L1291.73 1531.54 Z" fill="#000000" fill-rule="nonzero" fill-opacity="1" /><path clip-path="url(#clip830)" d="M1348.54 1546.53 L1348.54 1568.04 L1342.69 1568.04 L1342.69 1546.72 Q1342.69 1541.66 1340.71 1539.14 Q1338.74 1536.63 1334.79 1536.63 Q1330.05 1536.63 1327.31 1539.65 Q1324.58 1542.68 1324.58 1547.9 L1324.58 1568.04 L1318.69 1568.04 L1318.69 1532.4 L1324.58 1532.4 L1324.58 1537.93 Q1326.68 1534.72 1329.51 1533.13 Q1332.37 1531.54 1336.1 1531.54 Q1342.24 1531.54 1345.39 1535.36 Q1348.54 1539.14 1348.54 1546.53 Z" fill="#000000" fill-rule="nonzero" fill-opacity="1" /><path clip-path="url(#clip830)" d="M1383.68 1537.81 L1383.68 1518.52 L1389.54 1518.52 L1389.54 1568.04 L1383.68 1568.04 L1383.68 1562.7 Q1381.84 1565.88 1379 1567.44 Q1376.2 1568.97 1372.26 1568.97 Q1365.79 1568.97 1361.72 1563.81 Q1357.68 1558.65 1357.68 1550.25 Q1357.68 1541.85 1361.72 1536.69 Q1365.79 1531.54 1372.26 1531.54 Q1376.2 1531.54 1379 1533.1 Q1381.84 1534.62 1383.68 1537.81 M1363.73 1550.25 Q1363.73 1556.71 1366.37 1560.4 Q1369.04 1564.07 1373.69 1564.07 Q1378.33 1564.07 1381.01 1560.4 Q1383.68 1556.71 1383.68 1550.25 Q1383.68 1543.79 1381.01 1540.13 Q1378.33 1536.44 1373.69 1536.44 Q1369.04 1536.44 1366.37 1540.13 Q1363.73 1543.79 1363.73 1550.25 Z" fill="#000000" fill-rule="nonzero" fill-opacity="1" /><polyline clip-path="url(#clip832)" style="stroke:#000000; stroke-linecap:round; stroke-linejoin:round; stroke-width:2; stroke-opacity:0.1; fill:none" points="232.389,1284.39 2352.76,1284.39 "/>
<polyline clip-path="url(#clip832)" style="stroke:#000000; stroke-linecap:round; stroke-linejoin:round; stroke-width:2; stroke-opacity:0.1; fill:none" points="232.389,999.102 2352.76,999.102 "/>
<polyline clip-path="url(#clip832)" style="stroke:#000000; stroke-linecap:round; stroke-linejoin:round; stroke-width:2; stroke-opacity:0.1; fill:none" points="232.389,713.815 2352.76,713.815 "/>
<polyline clip-path="url(#clip832)" style="stroke:#000000; stroke-linecap:round; stroke-linejoin:round; stroke-width:2; stroke-opacity:0.1; fill:none" points="232.389,428.529 2352.76,428.529 "/>
<polyline clip-path="url(#clip832)" style="stroke:#000000; stroke-linecap:round; stroke-linejoin:round; stroke-width:2; stroke-opacity:0.1; fill:none" points="232.389,143.243 2352.76,143.243 "/>
<polyline clip-path="url(#clip830)" style="stroke:#000000; stroke-linecap:round; stroke-linejoin:round; stroke-width:4; stroke-opacity:1; fill:none" points="232.389,1423.18 232.389,47.2441 "/>
<polyline clip-path="url(#clip830)" style="stroke:#000000; stroke-linecap:round; stroke-linejoin:round; stroke-width:4; stroke-opacity:1; fill:none" points="232.389,1284.39 251.287,1284.39 "/>
<polyline clip-path="url(#clip830)" style="stroke:#000000; stroke-linecap:round; stroke-linejoin:round; stroke-width:4; stroke-opacity:1; fill:none" points="232.389,999.102 251.287,999.102 "/>
<polyline clip-path="url(#clip830)" style="stroke:#000000; stroke-linecap:round; stroke-linejoin:round; stroke-width:4; stroke-opacity:1; fill:none" points="232.389,713.815 251.287,713.815 "/>
<polyline clip-path="url(#clip830)" style="stroke:#000000; stroke-linecap:round; stroke-linejoin:round; stroke-width:4; stroke-opacity:1; fill:none" points="232.389,428.529 251.287,428.529 "/>
<polyline clip-path="url(#clip830)" style="stroke:#000000; stroke-linecap:round; stroke-linejoin:round; stroke-width:4; stroke-opacity:1; fill:none" points="232.389,143.243 251.287,143.243 "/>
<path clip-path="url(#clip830)" d="M154.862 1282.52 Q151.714 1282.52 149.862 1284.68 Q148.033 1286.83 148.033 1290.58 Q148.033 1294.31 149.862 1296.48 Q151.714 1298.64 154.862 1298.64 Q158.01 1298.64 159.839 1296.48 Q161.69 1294.31 161.69 1290.58 Q161.69 1286.83 159.839 1284.68 Q158.01 1282.52 154.862 1282.52 M164.144 1267.87 L164.144 1272.13 Q162.385 1271.3 160.579 1270.86 Q158.797 1270.42 157.038 1270.42 Q152.408 1270.42 149.954 1273.54 Q147.524 1276.67 147.177 1282.99 Q148.542 1280.97 150.603 1279.91 Q152.663 1278.82 155.14 1278.82 Q160.348 1278.82 163.357 1281.99 Q166.39 1285.14 166.39 1290.58 Q166.39 1295.9 163.241 1299.12 Q160.093 1302.34 154.862 1302.34 Q148.866 1302.34 145.695 1297.76 Q142.524 1293.15 142.524 1284.42 Q142.524 1276.23 146.413 1271.37 Q150.302 1266.48 156.853 1266.48 Q158.612 1266.48 160.394 1266.83 Q162.2 1267.18 164.144 1267.87 Z" fill="#000000" fill-rule="nonzero" fill-opacity="1" /><path clip-path="url(#clip830)" d="M184.445 1270.19 Q180.834 1270.19 179.005 1273.75 Q177.2 1277.29 177.2 1284.42 Q177.2 1291.53 179.005 1295.09 Q180.834 1298.64 184.445 1298.64 Q188.079 1298.64 189.885 1295.09 Q191.713 1291.53 191.713 1284.42 Q191.713 1277.29 189.885 1273.75 Q188.079 1270.19 184.445 1270.19 M184.445 1266.48 Q190.255 1266.48 193.311 1271.09 Q196.389 1275.67 196.389 1284.42 Q196.389 1293.15 193.311 1297.76 Q190.255 1302.34 184.445 1302.34 Q178.635 1302.34 175.556 1297.76 Q172.501 1293.15 172.501 1284.42 Q172.501 1275.67 175.556 1271.09 Q178.635 1266.48 184.445 1266.48 Z" fill="#000000" fill-rule="nonzero" fill-opacity="1" /><path clip-path="url(#clip830)" d="M154.283 999.97 Q150.95 999.97 149.028 1001.75 Q147.13 1003.53 147.13 1006.66 Q147.13 1009.78 149.028 1011.57 Q150.95 1013.35 154.283 1013.35 Q157.616 1013.35 159.538 1011.57 Q161.459 1009.76 161.459 1006.66 Q161.459 1003.53 159.538 1001.75 Q157.64 999.97 154.283 999.97 M149.607 997.979 Q146.598 997.238 144.908 995.178 Q143.241 993.118 143.241 990.155 Q143.241 986.012 146.181 983.604 Q149.144 981.197 154.283 981.197 Q159.445 981.197 162.385 983.604 Q165.325 986.012 165.325 990.155 Q165.325 993.118 163.635 995.178 Q161.968 997.238 158.982 997.979 Q162.362 998.766 164.237 1001.06 Q166.135 1003.35 166.135 1006.66 Q166.135 1011.68 163.056 1014.37 Q160.001 1017.05 154.283 1017.05 Q148.566 1017.05 145.487 1014.37 Q142.431 1011.68 142.431 1006.66 Q142.431 1003.35 144.329 1001.06 Q146.228 998.766 149.607 997.979 M147.894 990.595 Q147.894 993.28 149.561 994.785 Q151.251 996.289 154.283 996.289 Q157.292 996.289 158.982 994.785 Q160.695 993.28 160.695 990.595 Q160.695 987.91 158.982 986.405 Q157.292 984.9 154.283 984.9 Q151.251 984.9 149.561 986.405 Q147.894 987.91 147.894 990.595 Z" fill="#000000" fill-rule="nonzero" fill-opacity="1" /><path clip-path="url(#clip830)" d="M184.445 984.9 Q180.834 984.9 179.005 988.465 Q177.2 992.007 177.2 999.137 Q177.2 1006.24 179.005 1009.81 Q180.834 1013.35 184.445 1013.35 Q188.079 1013.35 189.885 1009.81 Q191.713 1006.24 191.713 999.137 Q191.713 992.007 189.885 988.465 Q188.079 984.9 184.445 984.9 M184.445 981.197 Q190.255 981.197 193.311 985.803 Q196.389 990.387 196.389 999.137 Q196.389 1007.86 193.311 1012.47 Q190.255 1017.05 184.445 1017.05 Q178.635 1017.05 175.556 1012.47 Q172.501 1007.86 172.501 999.137 Q172.501 990.387 175.556 985.803 Q178.635 981.197 184.445 981.197 Z" fill="#000000" fill-rule="nonzero" fill-opacity="1" /><path clip-path="url(#clip830)" d="M114.931 727.16 L122.57 727.16 L122.57 700.795 L114.26 702.461 L114.26 698.202 L122.524 696.535 L127.2 696.535 L127.2 727.16 L134.839 727.16 L134.839 731.095 L114.931 731.095 L114.931 727.16 Z" fill="#000000" fill-rule="nonzero" fill-opacity="1" /><path clip-path="url(#clip830)" d="M154.283 699.614 Q150.672 699.614 148.843 703.179 Q147.038 706.721 147.038 713.85 Q147.038 720.957 148.843 724.521 Q150.672 728.063 154.283 728.063 Q157.917 728.063 159.723 724.521 Q161.552 720.957 161.552 713.85 Q161.552 706.721 159.723 703.179 Q157.917 699.614 154.283 699.614 M154.283 695.911 Q160.093 695.911 163.149 700.517 Q166.227 705.1 166.227 713.85 Q166.227 722.577 163.149 727.183 Q160.093 731.767 154.283 731.767 Q148.473 731.767 145.394 727.183 Q142.339 722.577 142.339 713.85 Q142.339 705.1 145.394 700.517 Q148.473 695.911 154.283 695.911 Z" fill="#000000" fill-rule="nonzero" fill-opacity="1" /><path clip-path="url(#clip830)" d="M184.445 699.614 Q180.834 699.614 179.005 703.179 Q177.2 706.721 177.2 713.85 Q177.2 720.957 179.005 724.521 Q180.834 728.063 184.445 728.063 Q188.079 728.063 189.885 724.521 Q191.713 720.957 191.713 713.85 Q191.713 706.721 189.885 703.179 Q188.079 699.614 184.445 699.614 M184.445 695.911 Q190.255 695.911 193.311 700.517 Q196.389 705.1 196.389 713.85 Q196.389 722.577 193.311 727.183 Q190.255 731.767 184.445 731.767 Q178.635 731.767 175.556 727.183 Q172.501 722.577 172.501 713.85 Q172.501 705.1 175.556 700.517 Q178.635 695.911 184.445 695.911 Z" fill="#000000" fill-rule="nonzero" fill-opacity="1" /><path clip-path="url(#clip830)" d="M114.931 441.874 L122.57 441.874 L122.57 415.508 L114.26 417.175 L114.26 412.916 L122.524 411.249 L127.2 411.249 L127.2 441.874 L134.839 441.874 L134.839 445.809 L114.931 445.809 L114.931 441.874 Z" fill="#000000" fill-rule="nonzero" fill-opacity="1" /><path clip-path="url(#clip830)" d="M148.311 441.874 L164.63 441.874 L164.63 445.809 L142.686 445.809 L142.686 441.874 Q145.348 439.119 149.931 434.49 Q154.538 429.837 155.718 428.494 Q157.964 425.971 158.843 424.235 Q159.746 422.476 159.746 420.786 Q159.746 418.032 157.802 416.295 Q155.88 414.559 152.778 414.559 Q150.579 414.559 148.126 415.323 Q145.695 416.087 142.917 417.638 L142.917 412.916 Q145.741 411.782 148.195 411.203 Q150.649 410.624 152.686 410.624 Q158.056 410.624 161.251 413.309 Q164.445 415.995 164.445 420.485 Q164.445 422.615 163.635 424.536 Q162.848 426.434 160.741 429.027 Q160.163 429.698 157.061 432.916 Q153.959 436.11 148.311 441.874 Z" fill="#000000" fill-rule="nonzero" fill-opacity="1" /><path clip-path="url(#clip830)" d="M184.445 414.328 Q180.834 414.328 179.005 417.893 Q177.2 421.434 177.2 428.564 Q177.2 435.67 179.005 439.235 Q180.834 442.777 184.445 442.777 Q188.079 442.777 189.885 439.235 Q191.713 435.67 191.713 428.564 Q191.713 421.434 189.885 417.893 Q188.079 414.328 184.445 414.328 M184.445 410.624 Q190.255 410.624 193.311 415.231 Q196.389 419.814 196.389 428.564 Q196.389 437.291 193.311 441.897 Q190.255 446.481 184.445 446.481 Q178.635 446.481 175.556 441.897 Q172.501 437.291 172.501 428.564 Q172.501 419.814 175.556 415.231 Q178.635 410.624 184.445 410.624 Z" fill="#000000" fill-rule="nonzero" fill-opacity="1" /><path clip-path="url(#clip830)" d="M114.931 156.588 L122.57 156.588 L122.57 130.222 L114.26 131.889 L114.26 127.63 L122.524 125.963 L127.2 125.963 L127.2 156.588 L134.839 156.588 L134.839 160.523 L114.931 160.523 L114.931 156.588 Z" fill="#000000" fill-rule="nonzero" fill-opacity="1" /><path clip-path="url(#clip830)" d="M157.13 130.037 L145.325 148.486 L157.13 148.486 L157.13 130.037 M155.903 125.963 L161.783 125.963 L161.783 148.486 L166.714 148.486 L166.714 152.375 L161.783 152.375 L161.783 160.523 L157.13 160.523 L157.13 152.375 L141.529 152.375 L141.529 147.861 L155.903 125.963 Z" fill="#000000" fill-rule="nonzero" fill-opacity="1" /><path clip-path="url(#clip830)" d="M184.445 129.042 Q180.834 129.042 179.005 132.606 Q177.2 136.148 177.2 143.278 Q177.2 150.384 179.005 153.949 Q180.834 157.491 184.445 157.491 Q188.079 157.491 189.885 153.949 Q191.713 150.384 191.713 143.278 Q191.713 136.148 189.885 132.606 Q188.079 129.042 184.445 129.042 M184.445 125.338 Q190.255 125.338 193.311 129.944 Q196.389 134.528 196.389 143.278 Q196.389 152.004 193.311 156.611 Q190.255 161.194 184.445 161.194 Q178.635 161.194 175.556 156.611 Q172.501 152.004 172.501 143.278 Q172.501 134.528 175.556 129.944 Q178.635 125.338 184.445 125.338 Z" fill="#000000" fill-rule="nonzero" fill-opacity="1" /><path clip-path="url(#clip830)" d="M16.4842 893.798 L16.4842 884.217 L48.8219 872.091 L16.4842 859.9 L16.4842 850.32 L64.0042 850.32 L64.0042 856.59 L22.277 856.59 L54.8694 868.844 L54.8694 875.305 L22.277 887.559 L64.0042 887.559 L64.0042 893.798 L16.4842 893.798 Z" fill="#000000" fill-rule="nonzero" fill-opacity="1" /><path clip-path="url(#clip830)" d="M32.4621 823.998 Q32.4621 828.708 36.1542 831.446 Q39.8145 834.183 46.212 834.183 Q52.6095 834.183 56.3017 831.477 Q59.9619 828.74 59.9619 823.998 Q59.9619 819.319 56.2698 816.582 Q52.5777 813.844 46.212 813.844 Q39.8781 813.844 36.186 816.582 Q32.4621 819.319 32.4621 823.998 M27.4968 823.998 Q27.4968 816.359 32.4621 811.998 Q37.4273 807.638 46.212 807.638 Q54.9649 807.638 59.9619 811.998 Q64.9272 816.359 64.9272 823.998 Q64.9272 831.668 59.9619 836.029 Q54.9649 840.358 46.212 840.358 Q37.4273 840.358 32.4621 836.029 Q27.4968 831.668 27.4968 823.998 Z" fill="#000000" fill-rule="nonzero" fill-opacity="1" /><path clip-path="url(#clip830)" d="M42.4881 768.298 L64.0042 768.298 L64.0042 774.154 L42.679 774.154 Q37.6183 774.154 35.1038 776.128 Q32.5894 778.101 32.5894 782.048 Q32.5894 786.79 35.6131 789.527 Q38.6368 792.265 43.8567 792.265 L64.0042 792.265 L64.0042 798.153 L28.3562 798.153 L28.3562 792.265 L33.8944 792.265 Q30.6797 790.164 29.0883 787.331 Q27.4968 784.467 27.4968 780.743 Q27.4968 774.6 31.3163 771.449 Q35.1038 768.298 42.4881 768.298 Z" fill="#000000" fill-rule="nonzero" fill-opacity="1" /><path clip-path="url(#clip830)" d="M44.7161 726.125 L47.5806 726.125 L47.5806 753.052 Q53.6281 752.67 56.8109 749.423 Q59.9619 746.145 59.9619 740.32 Q59.9619 736.947 59.1344 733.796 Q58.3069 730.613 56.6518 727.494 L62.1899 727.494 Q63.5267 730.645 64.227 733.955 Q64.9272 737.265 64.9272 740.671 Q64.9272 749.201 59.9619 754.198 Q54.9967 759.163 46.5303 759.163 Q37.7774 759.163 32.6531 754.452 Q27.4968 749.71 27.4968 741.689 Q27.4968 734.496 32.1438 730.326 Q36.7589 726.125 44.7161 726.125 M42.9973 731.981 Q38.1912 732.045 35.3266 734.687 Q32.4621 737.297 32.4621 741.625 Q32.4621 746.527 35.2312 749.487 Q38.0002 752.415 43.0292 752.861 L42.9973 731.981 Z" fill="#000000" fill-rule="nonzero" fill-opacity="1" /><path clip-path="url(#clip830)" d="M67.3143 701.681 Q73.68 704.163 75.6216 706.519 Q77.5631 708.874 77.5631 712.821 L77.5631 717.499 L72.6615 717.499 L72.6615 714.062 Q72.6615 711.643 71.5157 710.306 Q70.3699 708.969 66.1048 707.346 L63.4312 706.296 L28.3562 720.714 L28.3562 714.508 L56.238 703.368 L28.3562 692.228 L28.3562 686.021 L67.3143 701.681 Z" fill="#000000" fill-rule="nonzero" fill-opacity="1" /><path clip-path="url(#clip830)" d="M14.5426 643.148 Q21.8632 647.413 29.0246 649.482 Q36.186 651.551 43.5384 651.551 Q50.8908 651.551 58.1159 649.482 Q65.3091 647.381 72.5979 643.148 L72.5979 648.241 Q65.1182 653.015 57.8931 655.402 Q50.668 657.757 43.5384 657.757 Q36.4406 657.757 29.2474 655.402 Q22.0542 653.047 14.5426 648.241 L14.5426 643.148 Z" fill="#000000" fill-rule="nonzero" fill-opacity="1" /><path clip-path="url(#clip830)" d="M73.5845 615.903 L73.5845 619.086 L64.0042 619.117 Q63.9405 622.459 63.2403 625.801 Q62.5082 629.143 61.0759 632.517 L55.3468 632.517 Q57.3838 629.271 58.4342 625.961 Q59.4527 622.619 59.4845 619.086 L44.9707 619.086 Q43.8249 626.12 41.0876 629.334 Q38.3504 632.517 33.5761 632.517 Q28.388 632.517 25.3961 629.048 Q22.4043 625.579 21.9587 619.086 L14.479 619.086 L14.479 615.903 L21.8632 615.903 Q21.9905 612.943 22.4998 610.174 Q22.9772 607.404 23.8365 604.763 L29.4065 604.763 Q28.0697 607.404 27.3377 610.205 Q26.6056 612.974 26.4783 615.903 L40.0691 615.903 Q41.1831 608.678 44.0477 605.272 Q46.9122 601.866 51.8775 601.866 Q57.2565 601.866 60.3757 605.495 Q63.4631 609.091 63.9405 615.903 L73.5845 615.903 M39.4962 619.086 L26.4465 619.086 Q26.8603 622.778 28.5472 624.719 Q30.2341 626.661 33.035 626.661 Q35.7722 626.661 37.3 624.878 Q38.8278 623.064 39.4962 619.086 M45.6073 615.903 L59.389 615.903 Q58.8479 611.86 57.0974 609.823 Q55.3468 607.755 52.4822 607.755 Q49.6813 607.755 48.0262 609.728 Q46.3712 611.67 45.6073 615.903 Z" fill="#000000" fill-rule="nonzero" fill-opacity="1" /><path clip-path="url(#clip830)" d="M14.5426 591.236 L14.5426 586.143 Q22.0542 581.369 29.2474 579.013 Q36.4406 576.626 43.5384 576.626 Q50.668 576.626 57.8931 579.013 Q65.1182 581.369 72.5979 586.143 L72.5979 591.236 Q65.3091 587.002 58.1159 584.934 Q50.8908 582.833 43.5384 582.833 Q36.186 582.833 29.0246 584.934 Q21.8632 587.002 14.5426 591.236 Z" fill="#000000" fill-rule="nonzero" fill-opacity="1" /><polyline clip-path="url(#clip832)" style="stroke:#009af9; stroke-linecap:round; stroke-linejoin:round; stroke-width:4; stroke-opacity:1; fill:none" points="292.4,713.815 294.402,728.08 296.404,699.551 298.407,699.551 300.409,685.287 302.411,685.287 304.414,685.287 306.416,671.023 308.419,671.023 310.421,656.758 312.423,656.758 314.426,642.494 316.428,642.494 318.43,628.23 320.433,628.23 322.435,613.965 324.437,613.965 326.44,599.701 328.442,599.701 330.444,585.437 332.447,585.437 334.449,585.437 336.451,571.172 338.454,571.172 340.456,556.908 342.458,556.908 344.461,542.644 346.463,542.644 348.465,528.379 350.468,528.379 352.47,514.115 354.473,514.115 356.475,499.851 358.477,499.851 360.48,499.851 362.482,485.586 364.484,485.586 366.487,471.322 368.489,471.322 370.491,457.058 372.494,457.058 374.496,457.058 376.498,442.794 378.501,442.794 380.503,428.529 382.505,428.529 384.508,414.265 386.51,414.265 388.512,400.001 390.515,400.001 392.517,400.001 394.519,385.736 396.522,385.736 398.524,371.472 400.527,371.472 402.529,357.208 404.531,357.208 406.534,357.208 408.536,342.943 410.538,342.943 412.541,328.679 414.543,328.679 416.545,328.679 418.548,314.415 420.55,314.415 422.552,300.15 424.555,300.15 426.557,285.886 428.559,285.886 430.562,285.886 432.564,271.622 434.566,271.622 436.569,257.357 438.571,257.357 440.573,257.357 442.576,243.093 444.578,243.093 446.581,228.829 448.583,228.829 450.585,228.829 452.588,228.829 454.59,214.565 456.592,214.565 458.595,200.3 460.597,200.3 462.599,186.036 464.602,186.036 466.604,186.036 468.606,171.772 470.609,171.772 472.611,171.772 474.613,157.507 476.616,157.507 478.618,143.243 480.62,143.243 482.623,143.243 484.625,143.243 486.627,128.979 488.63,128.979 490.632,128.979 492.635,114.714 494.637,114.714 496.639,114.714 498.642,114.714 500.644,100.45 502.646,114.714 504.649,100.45 506.651,100.45 508.653,100.45 510.656,86.1857 512.658,100.45 514.66,100.45 516.663,100.45 518.665,114.714 520.667,114.714 522.67,114.714 524.672,136.111 526.674,171.772 528.677,228.829 530.679,228.829 532.682,243.093 534.684,285.886 536.686,321.547 538.689,378.604 540.691,635.362 542.693,778.005 544.696,1241.6 546.698,1241.6 548.7,1241.6 550.703,1241.6 552.705,1241.6 554.707,1255.86 556.71,1255.86 558.712,1255.86 560.714,1255.86 562.717,1255.86 564.719,1255.86 566.721,1270.12 568.724,1270.12 570.726,1270.12 572.728,1270.12 574.731,1270.12 576.733,1284.39 578.736,1284.39 580.738,1284.39 582.74,1284.39 584.743,1284.39 586.745,1284.39 588.747,1284.39 590.75,1298.65 592.752,1298.65 594.754,1298.65 596.757,1298.65 598.759,1298.65 600.761,1298.65 602.764,1298.65 604.766,1312.92 606.768,1312.92 608.771,1312.92 610.773,1312.92 612.775,1312.92 614.778,1320.05 616.78,1327.18 618.782,1327.18 620.785,1327.18 622.787,1327.18 624.79,1327.18 626.792,1327.18 628.794,1327.18 630.797,1327.18 632.799,1327.18 634.801,1327.18 636.804,1327.18 638.806,1327.18 640.808,1327.18 642.811,1341.45 644.813,1341.45 646.815,1341.45 648.818,1341.45 650.82,1341.45 652.822,1341.45 654.825,1341.45 656.827,1341.45 658.829,1341.45 660.832,1341.45 662.834,1341.45 664.836,1341.45 666.839,1341.45 668.841,1341.45 670.844,1341.45 672.846,1341.45 674.848,1341.45 676.851,1341.45 678.853,1341.45 680.855,1341.45 682.858,1341.45 684.86,1341.45 686.862,1341.45 688.865,1341.45 690.867,1341.45 692.869,1341.45 694.872,1341.45 696.874,1341.45 698.876,1341.45 700.879,1341.45 702.881,1341.45 704.883,1341.45 706.886,1341.45 708.888,1341.45 710.89,1341.45 712.893,1341.45 714.895,1341.45 716.898,1341.45 718.9,1341.45 720.902,1341.45 722.905,1341.45 724.907,1341.45 726.909,1341.45 728.912,1341.45 730.914,1341.45 732.916,1341.45 734.919,1341.45 736.921,1341.45 738.923,1341.45 740.926,1341.45 742.928,1341.45 744.93,1341.45 746.933,1341.45 748.935,1341.45 750.937,1341.45 752.94,1341.45 754.942,1341.45 756.944,1341.45 758.947,1341.45 760.949,1341.45 762.952,1341.45 764.954,1341.45 766.956,1341.45 768.959,1341.45 770.961,1341.45 772.963,1341.45 774.966,1341.45 776.968,1341.45 778.97,1341.45 780.973,1341.45 782.975,1341.45 784.977,1341.45 786.98,1341.45 788.982,1341.45 790.984,1341.45 792.987,1341.45 794.989,1341.45 796.991,1341.45 798.994,1341.45 800.996,1341.45 802.999,1341.45 805.001,1341.45 807.003,1341.45 809.006,1341.45 811.008,1341.45 813.01,1341.45 815.013,1341.45 817.015,1341.45 819.017,1341.45 821.02,1341.45 823.022,1341.45 825.024,1341.45 827.027,1341.45 829.029,1341.45 831.031,1341.45 833.034,1341.45 835.036,1341.45 837.038,1341.45 839.041,1341.45 841.043,1341.45 843.045,1341.45 845.048,1341.45 847.05,1341.45 849.053,1341.45 851.055,1341.45 853.057,1341.45 855.06,1341.45 857.062,1341.45 859.064,1341.45 861.067,1341.45 863.069,1341.45 865.071,1341.45 867.074,1341.45 869.076,1341.45 871.078,1341.45 873.081,1341.45 875.083,1341.45 877.085,1341.45 879.088,1341.45 881.09,1341.45 883.092,1341.45 885.095,1341.45 887.097,1341.45 889.099,1341.45 891.102,1341.45 893.104,1341.45 895.107,1341.45 897.109,1341.45 899.111,1341.45 901.114,1341.45 903.116,1341.45 905.118,1341.45 907.121,1341.45 909.123,1341.45 911.125,1341.45 913.128,1341.45 915.13,1341.45 917.132,1341.45 919.135,1341.45 921.137,1341.45 923.139,1341.45 925.142,1341.45 927.144,1341.45 929.146,1341.45 931.149,1341.45 933.151,1341.45 935.153,1341.45 937.156,1341.45 939.158,1341.45 941.161,1341.45 943.163,1341.45 945.165,1341.45 947.168,1341.45 949.17,1341.45 951.172,1341.45 953.175,1341.45 955.177,1355.71 957.179,1355.71 959.182,1355.71 961.184,1355.71 963.186,1355.71 965.189,1355.71 967.191,1355.71 969.193,1355.71 971.196,1355.71 973.198,1355.71 975.2,1355.71 977.203,1355.71 979.205,1355.71 981.207,1355.71 983.21,1355.71 985.212,1355.71 987.215,1355.71 989.217,1355.71 991.219,1355.71 993.222,1355.71 995.224,1355.71 997.226,1355.71 999.229,1355.71 1001.23,1355.71 1003.23,1355.71 1005.24,1355.71 1007.24,1355.71 1009.24,1355.71 1011.24,1355.71 1013.25,1355.71 1015.25,1355.71 1017.25,1355.71 1019.25,1362.84 1021.25,1369.97 1023.26,1369.97 1025.26,1369.97 1027.26,1369.97 1029.26,1369.97 1031.27,1369.97 1033.27,1369.97 1035.27,1369.97 1037.27,1369.97 1039.28,1369.97 1041.28,1369.97 1043.28,1369.97 1045.28,1369.97 1047.28,1369.97 1049.29,1369.97 1051.29,1369.97 1053.29,1369.97 1055.29,1369.97 1057.3,1369.97 1059.3,1369.97 1061.3,1369.97 1063.3,1369.97 1065.31,1369.97 1067.31,1369.97 1069.31,1369.97 1071.31,1369.97 1073.32,1369.97 1075.32,1369.97 1077.32,1369.97 1079.32,1369.97 1081.32,1369.97 1083.33,1369.97 1085.33,1369.97 1087.33,1369.97 1089.33,1369.97 1091.34,1369.97 1093.34,1369.97 1095.34,1369.97 1097.34,1369.97 1099.35,1369.97 1101.35,1369.97 1103.35,1369.97 1105.35,1369.97 1107.36,1384.24 1109.36,1384.24 1111.36,1384.24 1113.36,1384.24 1115.36,1384.24 1117.37,1384.24 1119.37,1384.24 1121.37,1384.24 1123.37,1384.24 1125.38,1384.24 1127.38,1384.24 1129.38,1384.24 1131.38,1384.24 1133.39,1384.24 1135.39,1384.24 1137.39,1384.24 1139.39,1384.24 1141.4,1384.24 1143.4,1384.24 1145.4,1384.24 1147.4,1384.24 1149.4,1384.24 1151.41,1384.24 1153.41,1384.24 1155.41,1384.24 1157.41,1384.24 1159.42,1384.24 1161.42,1384.24 1163.42,1384.24 1165.42,1384.24 1167.43,1384.24 1169.43,1384.24 1171.43,1384.24 1173.43,1384.24 1175.44,1384.24 1177.44,1384.24 1179.44,1384.24 1181.44,1384.24 1183.44,1384.24 1185.45,1384.24 1187.45,1384.24 1189.45,1384.24 1191.45,1384.24 1193.46,1384.24 1195.46,1384.24 1197.46,1384.24 1199.46,1384.24 1201.47,1384.24 1203.47,1384.24 1205.47,1384.24 1207.47,1384.24 1209.48,1384.24 1211.48,1384.24 1213.48,1384.24 1215.48,1384.24 1217.48,1384.24 1219.49,1384.24 1221.49,1384.24 1223.49,1384.24 1225.49,1384.24 1227.5,1384.24 1229.5,1384.24 1231.5,1384.24 1233.5,1384.24 1235.51,1384.24 1237.51,1384.24 1239.51,1384.24 1241.51,1384.24 1243.52,1384.24 1245.52,1384.24 1247.52,1384.24 1249.52,1384.24 1251.52,1384.24 1253.53,1384.24 1255.53,1384.24 1257.53,1384.24 1259.53,1384.24 1261.54,1384.24 1263.54,1384.24 1265.54,1384.24 1267.54,1384.24 1269.55,1384.24 1271.55,1384.24 1273.55,1384.24 1275.55,1384.24 1277.56,1384.24 1279.56,1384.24 1281.56,1384.24 1283.56,1384.24 1285.56,1384.24 1287.57,1384.24 1289.57,1384.24 1291.57,1384.24 1293.57,1384.24 1295.58,1384.24 1297.58,1384.24 1299.58,1384.24 1301.58,1384.24 1303.59,1384.24 1305.59,1384.24 1307.59,1384.24 1309.59,1384.24 1311.59,1384.24 1313.6,1384.24 1315.6,1384.24 1317.6,1384.24 1319.6,1384.24 1321.61,1384.24 1323.61,1384.24 1325.61,1384.24 1327.61,1384.24 1329.62,1384.24 1331.62,1384.24 1333.62,1384.24 1335.62,1384.24 1337.63,1384.24 1339.63,1384.24 1341.63,1384.24 1343.63,1384.24 1345.63,1384.24 1347.64,1384.24 1349.64,1384.24 1351.64,1384.24 1353.64,1384.24 1355.65,1384.24 1357.65,1384.24 1359.65,1384.24 1361.65,1384.24 1363.66,1384.24 1365.66,1384.24 1367.66,1384.24 1369.66,1384.24 1371.67,1384.24 1373.67,1384.24 1375.67,1384.24 1377.67,1384.24 1379.67,1384.24 1381.68,1384.24 1383.68,1384.24 1385.68,1384.24 1387.68,1384.24 1389.69,1384.24 1391.69,1384.24 1393.69,1384.24 1395.69,1384.24 1397.7,1384.24 1399.7,1384.24 1401.7,1384.24 1403.7,1384.24 1405.71,1384.24 1407.71,1384.24 1409.71,1384.24 1411.71,1384.24 1413.71,1384.24 1415.72,1384.24 1417.72,1384.24 1419.72,1384.24 1421.72,1384.24 1423.73,1384.24 1425.73,1384.24 1427.73,1384.24 1429.73,1384.24 1431.74,1384.24 1433.74,1384.24 1435.74,1384.24 1437.74,1384.24 1439.75,1384.24 1441.75,1384.24 1443.75,1384.24 1445.75,1384.24 1447.75,1384.24 1449.76,1384.24 1451.76,1384.24 1453.76,1384.24 1455.76,1384.24 1457.77,1384.24 1459.77,1384.24 1461.77,1384.24 1463.77,1384.24 1465.78,1384.24 1467.78,1384.24 1469.78,1384.24 1471.78,1384.24 1473.79,1384.24 1475.79,1384.24 1477.79,1384.24 1479.79,1384.24 1481.79,1384.24 1483.8,1384.24 1485.8,1384.24 1487.8,1384.24 1489.8,1384.24 1491.81,1384.24 1493.81,1384.24 1495.81,1384.24 1497.81,1384.24 1499.82,1384.24 1501.82,1384.24 1503.82,1384.24 1505.82,1384.24 1507.83,1384.24 1509.83,1384.24 1511.83,1384.24 1513.83,1384.24 1515.83,1384.24 1517.84,1384.24 1519.84,1384.24 1521.84,1384.24 1523.84,1384.24 1525.85,1384.24 1527.85,1384.24 1529.85,1384.24 1531.85,1384.24 1533.86,1384.24 1535.86,1384.24 1537.86,1384.24 1539.86,1384.24 1541.86,1384.24 1543.87,1384.24 1545.87,1384.24 1547.87,1384.24 1549.87,1384.24 1551.88,1384.24 1553.88,1384.24 1555.88,1384.24 1557.88,1384.24 1559.89,1384.24 1561.89,1384.24 1563.89,1384.24 1565.89,1384.24 1567.9,1384.24 1569.9,1384.24 1571.9,1384.24 1573.9,1384.24 1575.9,1384.24 1577.91,1384.24 1579.91,1384.24 1581.91,1384.24 1583.91,1384.24 1585.92,1384.24 1587.92,1384.24 1589.92,1384.24 1591.92,1384.24 1593.93,1384.24 1595.93,1384.24 1597.93,1384.24 1599.93,1384.24 1601.94,1384.24 1603.94,1384.24 1605.94,1384.24 1607.94,1384.24 1609.94,1384.24 1611.95,1384.24 1613.95,1384.24 1615.95,1384.24 1617.95,1384.24 1619.96,1384.24 1621.96,1384.24 1623.96,1384.24 1625.96,1384.24 1627.97,1384.24 1629.97,1384.24 1631.97,1384.24 1633.97,1384.24 1635.98,1384.24 1637.98,1384.24 1639.98,1384.24 1641.98,1384.24 1643.98,1384.24 1645.99,1384.24 1647.99,1384.24 1649.99,1384.24 1651.99,1384.24 1654,1384.24 1656,1384.24 1658,1384.24 1660,1384.24 1662.01,1384.24 1664.01,1384.24 1666.01,1384.24 1668.01,1384.24 1670.02,1384.24 1672.02,1384.24 1674.02,1384.24 1676.02,1384.24 1678.02,1384.24 1680.03,1384.24 1682.03,1384.24 1684.03,1384.24 1686.03,1384.24 1688.04,1384.24 1690.04,1384.24 1692.04,1384.24 1694.04,1384.24 1696.05,1384.24 1698.05,1384.24 1700.05,1384.24 1702.05,1384.24 1704.06,1384.24 1706.06,1384.24 1708.06,1384.24 1710.06,1384.24 1712.06,1384.24 1714.07,1384.24 1716.07,1384.24 1718.07,1384.24 1720.07,1384.24 1722.08,1384.24 1724.08,1384.24 1726.08,1384.24 1728.08,1384.24 1730.09,1384.24 1732.09,1384.24 1734.09,1384.24 1736.09,1384.24 1738.1,1384.24 1740.1,1384.24 1742.1,1384.24 1744.1,1384.24 1746.1,1384.24 1748.11,1384.24 1750.11,1384.24 1752.11,1384.24 1754.11,1384.24 1756.12,1384.24 1758.12,1384.24 1760.12,1384.24 1762.12,1384.24 1764.13,1384.24 1766.13,1384.24 1768.13,1384.24 1770.13,1384.24 1772.14,1384.24 1774.14,1384.24 1776.14,1384.24 1778.14,1384.24 1780.14,1384.24 1782.15,1384.24 1784.15,1384.24 1786.15,1384.24 1788.15,1384.24 1790.16,1384.24 1792.16,1384.24 1794.16,1384.24 1796.16,1384.24 1798.17,1384.24 1800.17,1384.24 1802.17,1384.24 1804.17,1384.24 1806.17,1384.24 1808.18,1384.24 1810.18,1384.24 1812.18,1384.24 1814.18,1384.24 1816.19,1384.24 1818.19,1384.24 1820.19,1384.24 1822.19,1384.24 1824.2,1384.24 1826.2,1384.24 1828.2,1384.24 1830.2,1384.24 1832.21,1384.24 1834.21,1384.24 1836.21,1384.24 1838.21,1384.24 1840.21,1384.24 1842.22,1384.24 1844.22,1384.24 1846.22,1384.24 1848.22,1384.24 1850.23,1384.24 1852.23,1384.24 1854.23,1384.24 1856.23,1384.24 1858.24,1384.24 1860.24,1384.24 1862.24,1384.24 1864.24,1384.24 1866.25,1384.24 1868.25,1384.24 1870.25,1384.24 1872.25,1384.24 1874.25,1384.24 1876.26,1384.24 1878.26,1384.24 1880.26,1384.24 1882.26,1384.24 1884.27,1384.24 1886.27,1384.24 1888.27,1384.24 1890.27,1384.24 1892.28,1384.24 1894.28,1384.24 1896.28,1384.24 1898.28,1384.24 1900.29,1384.24 1902.29,1384.24 1904.29,1384.24 1906.29,1384.24 1908.29,1384.24 1910.3,1384.24 1912.3,1384.24 1914.3,1384.24 1916.3,1384.24 1918.31,1384.24 1920.31,1384.24 1922.31,1384.24 1924.31,1384.24 1926.32,1384.24 1928.32,1384.24 1930.32,1384.24 1932.32,1384.24 1934.33,1384.24 1936.33,1384.24 1938.33,1384.24 1940.33,1384.24 1942.33,1384.24 1944.34,1384.24 1946.34,1384.24 1948.34,1384.24 1950.34,1384.24 1952.35,1384.24 1954.35,1384.24 1956.35,1384.24 1958.35,1384.24 1960.36,1384.24 1962.36,1384.24 1964.36,1384.24 1966.36,1384.24 1968.37,1384.24 1970.37,1384.24 1972.37,1384.24 1974.37,1384.24 1976.37,1384.24 1978.38,1384.24 1980.38,1384.24 1982.38,1384.24 1984.38,1384.24 1986.39,1384.24 1988.39,1384.24 1990.39,1384.24 1992.39,1384.24 1994.4,1384.24 1996.4,1384.24 1998.4,1384.24 2000.4,1384.24 2002.41,1384.24 2004.41,1384.24 2006.41,1384.24 2008.41,1384.24 2010.41,1384.24 2012.42,1384.24 2014.42,1384.24 2016.42,1384.24 2018.42,1384.24 2020.43,1384.24 2022.43,1384.24 2024.43,1384.24 2026.43,1384.24 2028.44,1384.24 2030.44,1384.24 2032.44,1384.24 2034.44,1384.24 2036.44,1384.24 2038.45,1384.24 2040.45,1384.24 2042.45,1384.24 2044.45,1384.24 2046.46,1384.24 2048.46,1384.24 2050.46,1384.24 2052.46,1384.24 2054.47,1384.24 2056.47,1384.24 2058.47,1384.24 2060.47,1384.24 2062.48,1384.24 2064.48,1384.24 2066.48,1384.24 2068.48,1384.24 2070.48,1384.24 2072.49,1384.24 2074.49,1384.24 2076.49,1384.24 2078.49,1384.24 2080.5,1384.24 2082.5,1384.24 2084.5,1384.24 2086.5,1384.24 2088.51,1384.24 2090.51,1384.24 2092.51,1384.24 2094.51,1384.24 2096.52,1384.24 2098.52,1384.24 2100.52,1384.24 2102.52,1384.24 2104.52,1384.24 2106.53,1384.24 2108.53,1384.24 2110.53,1384.24 2112.53,1384.24 2114.54,1384.24 2116.54,1384.24 2118.54,1384.24 2120.54,1384.24 2122.55,1384.24 2124.55,1384.24 2126.55,1384.24 2128.55,1384.24 2130.56,1384.24 2132.56,1384.24 2134.56,1384.24 2136.56,1384.24 2138.56,1384.24 2140.57,1384.24 2142.57,1384.24 2144.57,1384.24 2146.57,1384.24 2148.58,1384.24 2150.58,1384.24 2152.58,1384.24 2154.58,1384.24 2156.59,1384.24 2158.59,1384.24 2160.59,1384.24 2162.59,1384.24 2164.6,1384.24 2166.6,1384.24 2168.6,1384.24 2170.6,1384.24 2172.6,1384.24 2174.61,1384.24 2176.61,1384.24 2178.61,1384.24 2180.61,1384.24 2182.62,1384.24 2184.62,1384.24 2186.62,1384.24 2188.62,1384.24 2190.63,1384.24 2192.63,1384.24 2194.63,1384.24 2196.63,1384.24 2198.64,1384.24 2200.64,1384.24 2202.64,1384.24 2204.64,1384.24 2206.64,1384.24 2208.65,1384.24 2210.65,1384.24 2212.65,1384.24 2214.65,1384.24 2216.66,1384.24 2218.66,1384.24 2220.66,1384.24 2222.66,1384.24 2224.67,1384.24 2226.67,1384.24 2228.67,1384.24 2230.67,1384.24 2232.68,1384.24 2234.68,1384.24 2236.68,1384.24 2238.68,1384.24 2240.68,1384.24 2242.69,1384.24 2244.69,1384.24 2246.69,1384.24 2248.69,1384.24 2250.7,1384.24 2252.7,1384.24 2254.7,1384.24 2256.7,1384.24 2258.71,1384.24 2260.71,1384.24 2262.71,1384.24 2264.71,1384.24 2266.72,1384.24 2268.72,1384.24 2270.72,1384.24 2272.72,1384.24 2274.72,1384.24 2276.73,1384.24 2278.73,1384.24 2280.73,1384.24 2282.73,1384.24 2284.74,1384.24 2286.74,1384.24 2288.74,1384.24 2290.74,1384.24 2292.75,1384.24 "/>
<polyline clip-path="url(#clip832)" style="stroke:#e26f46; stroke-linecap:round; stroke-linejoin:round; stroke-width:4; stroke-opacity:1; fill:none" points="292.4,713.815 294.402,713.955 296.404,713.754 298.407,713.069 300.409,713.392 302.411,712.891 304.414,713.904 306.416,712.44 308.419,710.888 310.421,710.743 312.423,710.197 314.426,710.023 316.428,710.399 318.43,710.576 320.433,710.09 322.435,710.59 324.437,711.781 326.44,712.381 328.442,712.465 330.444,711.991 332.447,712.316 334.449,711.71 336.451,712.128 338.454,712.121 340.456,711.326 342.458,712.516 344.461,714.669 346.463,714.89 348.465,714.997 350.468,715.146 352.47,714.306 354.473,714.387 356.475,714.372 358.477,715.28 360.48,715.721 362.482,714.756 364.484,714.83 366.487,714.029 368.489,714.517 370.491,714.994 372.494,713.589 374.496,714.861 376.498,713.875 378.501,713.507 380.503,714.496 382.505,714.942 384.508,714.857 386.51,714.599 388.512,713.166 390.515,712.813 392.517,712.931 394.519,711.632 396.522,712.038 398.524,711.941 400.527,711.663 402.529,710.901 404.531,710.956 406.534,711.458 408.536,711.947 410.538,713.171 412.541,712.756 414.543,713.077 416.545,714.838 418.548,715.191 420.55,713.37 422.552,712.098 424.555,712.336 426.557,712.838 428.559,712.553 430.562,712.356 432.564,711.395 434.566,713.125 436.569,712.677 438.571,713.176 440.573,714.553 442.576,714.861 444.578,715.453 446.581,714.85 448.583,717.012 450.585,717.685 452.588,718.096 454.59,716.223 456.592,716.891 458.595,715.46 460.597,714.924 462.599,712.633 464.602,713.527 466.604,713.925 468.606,713.338 470.609,712.375 472.611,712.422 474.613,714.455 476.616,714.296 478.618,712.202 480.62,710.138 482.623,710.359 484.625,709.453 486.627,709.746 488.63,710.458 490.632,711.208 492.635,711.948 494.637,712.055 496.639,711.799 498.642,711.774 500.644,710.482 502.646,710.789 504.649,708.914 506.651,708.551 508.653,707.911 510.656,708.1 512.658,707.973 514.66,707.639 516.663,707.872 518.665,707.043 520.667,707.044 522.67,707.31 524.672,708.722 526.674,708.215 528.677,707.645 530.679,707.267 532.682,704.699 534.684,704.435 536.686,704.196 538.689,704.204 540.691,702.555 542.693,703.48 544.696,702.642 546.698,701.438 548.7,701.833 550.703,701.398 552.705,701.284 554.707,700.946 556.71,700.655 558.712,700.456 560.714,701.779 562.717,700.123 564.719,701.802 566.721,701.558 568.724,700.953 570.726,700.969 572.728,701.339 574.731,702.755 576.733,702.388 578.736,702.475 580.738,702.085 582.74,702.353 584.743,700.737 586.745,701.257 588.747,700.822 590.75,701.15 592.752,700.858 594.754,700.483 596.757,701 598.759,700.553 600.761,700.446 602.764,700.099 604.766,702.611 606.768,703.163 608.771,703.644 610.773,703.166 612.775,704.489 614.778,704.351 616.78,705.174 618.782,704.572 620.785,704.579 622.787,705.16 624.79,706.459 626.792,707.772 628.794,708.625 630.797,708.755 632.799,708.409 634.801,708.108 636.804,707.615 638.806,707.548 640.808,707.379 642.811,707.869 644.813,707.041 646.815,706.748 648.818,707.589 650.82,705.601 652.822,706.438 654.825,705.93 656.827,704.775 658.829,705.862 660.832,706.372 662.834,706.83 664.836,706.123 666.839,706.464 668.841,707.582 670.844,707.961 672.846,707.181 674.848,707.9 676.851,707.817 678.853,708.986 680.855,709.609 682.858,709.535 684.86,708.502 686.862,708.535 688.865,707.973 690.867,708.205 692.869,708.11 694.872,707.749 696.874,708.436 698.876,708.401 700.879,708.934 702.881,709.64 704.883,708.598 706.886,708.826 708.888,707.931 710.89,707.786 712.893,707.154 714.895,708.29 716.898,707.466 718.9,707.031 720.902,707.33 722.905,707.643 724.907,706.699 726.909,705.35 728.912,705.999 730.914,705.508 732.916,704.565 734.919,704.773 736.921,705.026 738.923,704.474 740.926,704.364 742.928,705.01 744.93,703.885 746.933,703.237 748.935,703.791 750.937,704.3 752.94,704.462 754.942,704.925 756.944,705.298 758.947,703.588 760.949,703.026 762.952,702.156 764.954,701.731 766.956,700.795 768.959,700.632 770.961,699.892 772.963,699.381 774.966,699.116 776.968,697.992 778.97,698.146 780.973,698.43 782.975,698.848 784.977,698.658 786.98,697.524 788.982,697.995 790.984,697.439 792.987,697.511 794.989,697.798 796.991,697.828 798.994,697.874 800.996,699.623 802.999,700.244 805.001,700.645 807.003,700.51 809.006,701.598 811.008,702.353 813.01,702.435 815.013,703.234 817.015,703.477 819.017,703.722 821.02,703.508 823.022,704.38 825.024,704.688 827.027,704.32 829.029,704.752 831.031,704.766 833.034,705.35 835.036,704.497 837.038,704.124 839.041,705.069 841.043,705.154 843.045,704.795 845.048,704.517 847.05,704.945 849.053,706.284 851.055,706.387 853.057,707.02 855.06,708.603 857.062,708.325 859.064,708.843 861.067,709.115 863.069,708.472 865.071,708.552 867.074,709.061 869.076,709.257 871.078,709.412 873.081,710.49 875.083,710.553 877.085,711.365 879.088,711.331 881.09,711.335 883.092,711.331 885.095,711.66 887.097,712.238 889.099,712.246 891.102,713.627 893.104,713.738 895.107,713.41 897.109,713.291 899.111,715.066 901.114,715.436 903.116,715.865 905.118,715.342 907.121,715.253 909.123,714.546 911.125,714.805 913.128,715.798 915.13,714.922 917.132,714.279 919.135,713.763 921.137,713.691 923.139,712.858 925.142,712.493 927.144,711.324 929.146,712.206 931.149,712.572 933.151,712.449 935.153,712.614 937.156,714.105 939.158,714.783 941.161,714.995 943.163,714.59 945.165,714.649 947.168,713.965 949.17,714.075 951.172,714.012 953.175,714.129 955.177,714.542 957.179,715.273 959.182,714.493 961.184,714.747 963.186,714.5 965.189,714.609 967.191,714.242 969.193,714.747 971.196,714.165 973.198,714.399 975.2,713.774 977.203,713.418 979.205,713.152 981.207,713.392 983.21,713.239 985.212,712.82 987.215,713.546 989.217,714.051 991.219,714.174 993.222,713.914 995.224,714.145 997.226,714.573 999.229,714.309 1001.23,714.417 1003.23,714.727 1005.24,713.382 1007.24,714.034 1009.24,714.833 1011.24,715.512 1013.25,714.502 1015.25,713.604 1017.25,712.535 1019.25,713.395 1021.25,714.475 1023.26,714.533 1025.26,714.801 1027.26,715.283 1029.26,714.295 1031.27,714.38 1033.27,714.082 1035.27,713.276 1037.27,713.433 1039.28,714.199 1041.28,714.121 1043.28,714.382 1045.28,713.985 1047.28,713.346 1049.29,713.616 1051.29,713.017 1053.29,713.928 1055.29,716.082 1057.3,716.323 1059.3,716.422 1061.3,716.036 1063.3,714.858 1065.31,714.643 1067.31,713.922 1069.31,714.279 1071.31,713.948 1073.32,713.311 1075.32,714.577 1077.32,714.673 1079.32,715.038 1081.32,714.475 1083.33,714.784 1085.33,714.904 1087.33,714.88 1089.33,714.788 1091.34,715.409 1093.34,714.713 1095.34,714.459 1097.34,715.599 1099.35,714.596 1101.35,715.296 1103.35,715.273 1105.35,715.944 1107.36,715.494 1109.36,716.627 1111.36,716.272 1113.36,716.996 1115.36,718.128 1117.37,717.812 1119.37,717.457 1121.37,717.367 1123.37,717.32 1125.38,717.392 1127.38,716.019 1129.38,714.995 1131.38,715.901 1133.39,715.172 1135.39,714.785 1137.39,714.185 1139.39,714.934 1141.4,715.527 1143.4,714.681 1145.4,713.857 1147.4,713.228 1149.4,713.466 1151.41,712.733 1153.41,713.554 1155.41,712.951 1157.41,712.224 1159.42,712.058 1161.42,712.58 1163.42,711.871 1165.42,712.343 1167.43,712.349 1169.43,711.361 1171.43,710.147 1173.43,709.846 1175.44,708.218 1177.44,707.872 1179.44,708.379 1181.44,708.272 1183.44,707.823 1185.45,708.513 1187.45,707.924 1189.45,708.24 1191.45,709.095 1193.46,709.386 1195.46,708.566 1197.46,707.894 1199.46,708.151 1201.47,709.185 1203.47,710.257 1205.47,709.876 1207.47,709.75 1209.48,708.26 1211.48,708.108 1213.48,709.481 1215.48,709.609 1217.48,709.625 1219.49,709.957 1221.49,708.682 1223.49,708.421 1225.49,708.941 1227.5,708.556 1229.5,707.759 1231.5,708.023 1233.5,707.572 1235.51,707.218 1237.51,707.526 1239.51,708.145 1241.51,707.501 1243.52,709 1245.52,708.638 1247.52,709.091 1249.52,708.379 1251.52,708.546 1253.53,709.576 1255.53,710.576 1257.53,708.859 1259.53,708.09 1261.54,707.444 1263.54,708.067 1265.54,708.098 1267.54,708.13 1269.55,708.201 1271.55,706.528 1273.55,706.803 1275.55,707.118 1277.56,707.014 1279.56,708.01 1281.56,708.502 1283.56,707.79 1285.56,707 1287.57,706.554 1289.57,706.004 1291.57,705.103 1293.57,704.907 1295.58,705.033 1297.58,705.568 1299.58,706.14 1301.58,706.275 1303.59,706.522 1305.59,707.217 1307.59,705.703 1309.59,706.148 1311.59,706.611 1313.6,706.24 1315.6,705.934 1317.6,706.703 1319.6,706.235 1321.61,705.817 1323.61,706.385 1325.61,706.477 1327.61,706.504 1329.62,706.461 1331.62,705.926 1333.62,705.04 1335.62,704.471 1337.63,704.897 1339.63,705.321 1341.63,705.053 1343.63,704.528 1345.63,704.729 1347.64,704.816 1349.64,705.333 1351.64,705.347 1353.64,705.595 1355.65,705.059 1357.65,705.106 1359.65,705.439 1361.65,705.785 1363.66,705.96 1365.66,706.324 1367.66,705.682 1369.66,705.156 1371.67,705.605 1373.67,705.83 1375.67,705.926 1377.67,705.123 1379.67,705.32 1381.68,705.274 1383.68,705.462 1385.68,705.595 1387.68,705.596 1389.69,706.033 1391.69,706.101 1393.69,706.783 1395.69,706.81 1397.7,708.11 1399.7,708.242 1401.7,707.749 1403.7,708.746 1405.71,709.492 1407.71,710.886 1409.71,710.991 1411.71,711.405 1413.71,711.89 1415.72,711.563 1417.72,712.472 1419.72,711.456 1421.72,711.505 1423.73,711.117 1425.73,711.731 1427.73,712.274 1429.73,712.927 1431.74,712.614 1433.74,711.904 1435.74,710.981 1437.74,711.349 1439.75,711.078 1441.75,710.79 1443.75,709.618 1445.75,710.154 1447.75,710.496 1449.76,710.585 1451.76,710.539 1453.76,710.539 1455.76,710.58 1457.77,710.399 1459.77,710.62 1461.77,711.379 1463.77,711.082 1465.78,711.299 1467.78,711.061 1469.78,711.027 1471.78,710.234 1473.79,709.533 1475.79,709.217 1477.79,710.456 1479.79,710.77 1481.79,711.088 1483.8,710.997 1485.8,711.172 1487.8,710.717 1489.8,710.81 1491.81,711.172 1493.81,711.897 1495.81,711.057 1497.81,711.138 1499.82,711.595 1501.82,711.459 1503.82,711.488 1505.82,711.818 1507.83,711.074 1509.83,711.505 1511.83,711.321 1513.83,711.231 1515.83,711.984 1517.84,711.155 1519.84,712.218 1521.84,712.462 1523.84,712.094 1525.85,712.202 1527.85,712.06 1529.85,712.226 1531.85,712.396 1533.86,712.699 1535.86,713.052 1537.86,712.674 1539.86,712.791 1541.86,712.262 1543.87,713.135 1545.87,712.231 1547.87,712.9 1549.87,713.333 1551.88,714.251 1553.88,714.671 1555.88,714.64 1557.88,714.018 1559.89,714.281 1561.89,714.552 1563.89,713.967 1565.89,713.694 1567.9,713.238 1569.9,713.128 1571.9,713.229 1573.9,713.674 1575.9,712.998 1577.91,712.776 1579.91,712.734 1581.91,712.888 1583.91,712.897 1585.92,713.613 1587.92,712.764 1589.92,712.716 1591.92,711.609 1593.93,711.5 1595.93,712.191 1597.93,712.864 1599.93,712.723 1601.94,711.983 1603.94,711.157 1605.94,711.027 1607.94,710.18 1609.94,710.194 1611.95,710.657 1613.95,711.068 1615.95,711.452 1617.95,710.759 1619.96,711.09 1621.96,710.272 1623.96,710.328 1625.96,709.667 1627.97,710.463 1629.97,709.93 1631.97,709.23 1633.97,708.328 1635.98,708.406 1637.98,707.501 1639.98,707.92 1641.98,707.041 1643.98,707.213 1645.99,707.609 1647.99,708.277 1649.99,708.658 1651.99,708.558 1654,708.09 1656,709.281 1658,709.22 1660,708.422 1662.01,708.036 1664.01,707.17 1666.01,705.857 1668.01,706.138 1670.02,706.051 1672.02,706.327 1674.02,707.016 1676.02,706.927 1678.02,705.953 1680.03,706.167 1682.03,706.797 1684.03,706.748 1686.03,706.95 1688.04,707.374 1690.04,706.213 1692.04,705.977 1694.04,706.07 1696.05,705.301 1698.05,706.07 1700.05,706.023 1702.05,705.093 1704.06,704.397 1706.06,704.087 1708.06,704.003 1710.06,703.793 1712.06,702.97 1714.07,703.046 1716.07,702.662 1718.07,702.839 1720.07,702.872 1722.08,703.16 1724.08,702.823 1726.08,703.066 1728.08,703.026 1730.09,702.992 1732.09,702.716 1734.09,703.43 1736.09,703.511 1738.1,705.007 1740.1,704.314 1742.1,704.258 1744.1,703.781 1746.1,704.836 1748.11,705.305 1750.11,704.512 1752.11,704.415 1754.11,704.575 1756.12,705.264 1758.12,705.22 1760.12,705.555 1762.12,706.164 1764.13,705.869 1766.13,706.099 1768.13,705.536 1770.13,705.465 1772.14,704.84 1774.14,704.558 1776.14,704.788 1778.14,704.388 1780.14,704.227 1782.15,704.421 1784.15,704.147 1786.15,703.893 1788.15,703.975 1790.16,703.615 1792.16,703.461 1794.16,703.564 1796.16,704.023 1798.17,703.395 1800.17,703.287 1802.17,704.267 1804.17,705.462 1806.17,704.926 1808.18,704.675 1810.18,705.063 1812.18,705.459 1814.18,704.89 1816.19,704.838 1818.19,704.845 1820.19,704.783 1822.19,704.973 1824.2,703.608 1826.2,703.425 1828.2,703.886 1830.2,703.39 1832.21,704.464 1834.21,704.83 1836.21,704.007 1838.21,703.699 1840.21,703.337 1842.22,703.632 1844.22,703.151 1846.22,702.856 1848.22,703.047 1850.23,703.381 1852.23,703.023 1854.23,703.207 1856.23,703.756 1858.24,703.597 1860.24,704.087 1862.24,703.815 1864.24,703.848 1866.25,703.718 1868.25,703.287 1870.25,703.194 1872.25,702.918 1874.25,702.461 1876.26,701.788 1878.26,701.321 1880.26,700.836 1882.26,700.985 1884.27,700.035 1886.27,699.631 1888.27,699.504 1890.27,699.575 1892.28,700.46 1894.28,699.304 1896.28,699.46 1898.28,700.501 1900.29,700.286 1902.29,699.467 1904.29,699.023 1906.29,698.802 1908.29,698.828 1910.3,699.379 1912.3,699.052 1914.3,698.945 1916.3,699.575 1918.31,698.557 1920.31,698.717 1922.31,697.979 1924.31,698.243 1926.32,697.332 1928.32,697.32 1930.32,696.907 1932.32,697.747 1934.33,697.607 1936.33,697.451 1938.33,698.453 1940.33,697.884 1942.33,696.895 1944.34,696.33 1946.34,696.446 1948.34,696.822 1950.34,695.958 1952.35,696.042 1954.35,697.036 1956.35,696.477 1958.35,694.688 1960.36,694.677 1962.36,694.553 1964.36,694.757 1966.36,695.31 1968.37,695.335 1970.37,694.393 1972.37,693.861 1974.37,694.65 1976.37,694.671 1978.38,694.439 1980.38,694.245 1982.38,693.758 1984.38,694.306 1986.39,693.015 1988.39,692.931 1990.39,692.736 1992.39,692.188 1994.4,691.751 1996.4,691.45 1998.4,690.499 2000.4,690.12 2002.41,689.58 2004.41,690.786 2006.41,692.108 2008.41,692.826 2010.41,693.129 2012.42,693.218 2014.42,692.054 2016.42,692.646 2018.42,693.024 2020.43,694.009 2022.43,693.49 2024.43,693.408 2026.43,692.604 2028.44,692.552 2030.44,693.633 2032.44,694.168 2034.44,693.619 2036.44,692.677 2038.45,693.04 2040.45,693.054 2042.45,692.962 2044.45,692.961 2046.46,694.202 2048.46,694.202 2050.46,695.637 2052.46,696.477 2054.47,698.021 2056.47,696.183 2058.47,696.061 2060.47,696.228 2062.48,696.516 2064.48,695.898 2066.48,696.879 2068.48,696.015 2070.48,695.055 2072.49,694.975 2074.49,694.88 2076.49,694.236 2078.49,694.128 2080.5,693.586 2082.5,693.908 2084.5,693.962 2086.5,694.129 2088.51,694.497 2090.51,694.452 2092.51,693.855 2094.51,694.329 2096.52,694.298 2098.52,693.47 2100.52,693.517 2102.52,694.763 2104.52,695.366 2106.53,697.373 2108.53,698.357 2110.53,698.36 2112.53,698.239 2114.54,697.859 2116.54,697.887 2118.54,696.868 2120.54,696.253 2122.55,696.743 2124.55,696.462 2126.55,696.359 2128.55,695.496 2130.56,694.383 2132.56,694.348 2134.56,694.315 2136.56,693.028 2138.56,693.119 2140.57,693.018 2142.57,693.536 2144.57,693.818 2146.57,693.44 2148.58,693.228 2150.58,693.429 2152.58,692.363 2154.58,692.499 2156.59,692.766 2158.59,691.373 2160.59,690.653 2162.59,691.152 2164.6,692.108 2166.6,691.442 2168.6,691.372 2170.6,691.525 2172.6,691.851 2174.61,691.439 2176.61,691.9 2178.61,691.097 2180.61,690.62 2182.62,689.861 2184.62,689.284 2186.62,689.986 2188.62,689.94 2190.63,690.374 2192.63,690.874 2194.63,690.817 2196.63,691.528 2198.64,692.088 2200.64,692.704 2202.64,692.627 2204.64,691.532 2206.64,690.686 2208.65,690.779 2210.65,690.693 2212.65,690.95 2214.65,691.179 2216.66,690.322 2218.66,690.92 2220.66,690.478 2222.66,690.595 2224.67,691.473 2226.67,691.01 2228.67,691.353 2230.67,691.195 2232.68,691.739 2234.68,692.007 2236.68,691.757 2238.68,692.529 2240.68,692.197 2242.69,691.961 2244.69,692.172 2246.69,691.954 2248.69,692.86 2250.7,693.211 2252.7,692.175 2254.7,691.565 2256.7,691.172 2258.71,692.062 2260.71,691.249 2262.71,691.607 2264.71,691.787 2266.72,691.666 2268.72,690.518 2270.72,690.51 2272.72,691.224 2274.72,690.893 2276.73,690.546 2278.73,690.505 2280.73,690.522 2282.73,691.971 2284.74,692.744 2286.74,691.823 2288.74,692.254 2290.74,692.5 2292.75,692.788 "/>
<path clip-path="url(#clip830)" d="M1906.29 248.629 L2282.08 248.629 L2282.08 93.1086 L1906.29 93.1086  Z" fill="#ffffff" fill-rule="evenodd" fill-opacity="1"/>
<polyline clip-path="url(#clip830)" style="stroke:#000000; stroke-linecap:round; stroke-linejoin:round; stroke-width:4; stroke-opacity:1; fill:none" points="1906.29,248.629 2282.08,248.629 2282.08,93.1086 1906.29,93.1086 1906.29,248.629 "/>
<polyline clip-path="url(#clip830)" style="stroke:#009af9; stroke-linecap:round; stroke-linejoin:round; stroke-width:4; stroke-opacity:1; fill:none" points="1929.85,144.949 2071.21,144.949 "/>
<path clip-path="url(#clip830)" d="M2094.77 127.669 L2101.74 127.669 L2110.56 151.187 L2119.42 127.669 L2126.39 127.669 L2126.39 162.229 L2121.83 162.229 L2121.83 131.882 L2112.92 155.585 L2108.22 155.585 L2099.31 131.882 L2099.31 162.229 L2094.77 162.229 L2094.77 127.669 Z" fill="#000000" fill-rule="nonzero" fill-opacity="1" /><path clip-path="url(#clip830)" d="M2157.66 148.201 L2157.66 150.284 L2138.08 150.284 Q2138.36 154.682 2140.72 156.997 Q2143.1 159.289 2147.34 159.289 Q2149.79 159.289 2152.08 158.687 Q2154.4 158.085 2156.67 156.881 L2156.67 160.909 Q2154.37 161.881 2151.97 162.391 Q2149.56 162.9 2147.08 162.9 Q2140.88 162.9 2137.24 159.289 Q2133.63 155.678 2133.63 149.52 Q2133.63 143.155 2137.06 139.428 Q2140.51 135.678 2146.34 135.678 Q2151.57 135.678 2154.61 139.057 Q2157.66 142.414 2157.66 148.201 M2153.4 146.951 Q2153.36 143.456 2151.43 141.372 Q2149.54 139.289 2146.39 139.289 Q2142.82 139.289 2140.67 141.303 Q2138.54 143.317 2138.22 146.974 L2153.4 146.951 Z" fill="#000000" fill-rule="nonzero" fill-opacity="1" /><path clip-path="url(#clip830)" d="M2181.71 140.238 L2181.71 126.21 L2185.97 126.21 L2185.97 162.229 L2181.71 162.229 L2181.71 158.34 Q2180.37 160.655 2178.31 161.789 Q2176.27 162.9 2173.4 162.9 Q2168.7 162.9 2165.74 159.15 Q2162.8 155.4 2162.8 149.289 Q2162.8 143.178 2165.74 139.428 Q2168.7 135.678 2173.4 135.678 Q2176.27 135.678 2178.31 136.812 Q2180.37 137.923 2181.71 140.238 M2167.2 149.289 Q2167.2 153.988 2169.12 156.673 Q2171.06 159.335 2174.44 159.335 Q2177.82 159.335 2179.77 156.673 Q2181.71 153.988 2181.71 149.289 Q2181.71 144.59 2179.77 141.928 Q2177.82 139.243 2174.44 139.243 Q2171.06 139.243 2169.12 141.928 Q2167.2 144.59 2167.2 149.289 Z" fill="#000000" fill-rule="nonzero" fill-opacity="1" /><path clip-path="url(#clip830)" d="M2194.74 136.303 L2199 136.303 L2199 162.229 L2194.74 162.229 L2194.74 136.303 M2194.74 126.21 L2199 126.21 L2199 131.604 L2194.74 131.604 L2194.74 126.21 Z" fill="#000000" fill-rule="nonzero" fill-opacity="1" /><path clip-path="url(#clip830)" d="M2219.7 149.196 Q2214.54 149.196 2212.55 150.377 Q2210.55 151.557 2210.55 154.405 Q2210.55 156.673 2212.04 158.016 Q2213.54 159.335 2216.11 159.335 Q2219.65 159.335 2221.78 156.835 Q2223.93 154.312 2223.93 150.145 L2223.93 149.196 L2219.7 149.196 M2228.19 147.437 L2228.19 162.229 L2223.93 162.229 L2223.93 158.293 Q2222.48 160.655 2220.3 161.789 Q2218.12 162.9 2214.98 162.9 Q2210.99 162.9 2208.63 160.678 Q2206.3 158.432 2206.3 154.682 Q2206.3 150.307 2209.21 148.085 Q2212.15 145.863 2217.96 145.863 L2223.93 145.863 L2223.93 145.446 Q2223.93 142.507 2221.99 140.909 Q2220.07 139.289 2216.57 139.289 Q2214.35 139.289 2212.24 139.821 Q2210.14 140.354 2208.19 141.419 L2208.19 137.483 Q2210.53 136.581 2212.73 136.141 Q2214.93 135.678 2217.01 135.678 Q2222.64 135.678 2225.42 138.594 Q2228.19 141.511 2228.19 147.437 Z" fill="#000000" fill-rule="nonzero" fill-opacity="1" /><path clip-path="url(#clip830)" d="M2258.52 146.581 L2258.52 162.229 L2254.26 162.229 L2254.26 146.719 Q2254.26 143.039 2252.82 141.21 Q2251.39 139.382 2248.52 139.382 Q2245.07 139.382 2243.08 141.581 Q2241.09 143.78 2241.09 147.576 L2241.09 162.229 L2236.8 162.229 L2236.8 136.303 L2241.09 136.303 L2241.09 140.331 Q2242.61 137.993 2244.67 136.835 Q2246.76 135.678 2249.47 135.678 Q2253.93 135.678 2256.23 138.456 Q2258.52 141.21 2258.52 146.581 Z" fill="#000000" fill-rule="nonzero" fill-opacity="1" /><polyline clip-path="url(#clip830)" style="stroke:#e26f46; stroke-linecap:round; stroke-linejoin:round; stroke-width:4; stroke-opacity:1; fill:none" points="1929.85,196.789 2071.21,196.789 "/>
<path clip-path="url(#clip830)" d="M2094.77 179.509 L2101.74 179.509 L2110.56 203.027 L2119.42 179.509 L2126.39 179.509 L2126.39 214.069 L2121.83 214.069 L2121.83 183.722 L2112.92 207.425 L2108.22 207.425 L2099.31 183.722 L2099.31 214.069 L2094.77 214.069 L2094.77 179.509 Z" fill="#000000" fill-rule="nonzero" fill-opacity="1" /><path clip-path="url(#clip830)" d="M2157.66 200.041 L2157.66 202.124 L2138.08 202.124 Q2138.36 206.522 2140.72 208.837 Q2143.1 211.129 2147.34 211.129 Q2149.79 211.129 2152.08 210.527 Q2154.4 209.925 2156.67 208.721 L2156.67 212.749 Q2154.37 213.721 2151.97 214.231 Q2149.56 214.74 2147.08 214.74 Q2140.88 214.74 2137.24 211.129 Q2133.63 207.518 2133.63 201.36 Q2133.63 194.995 2137.06 191.268 Q2140.51 187.518 2146.34 187.518 Q2151.57 187.518 2154.61 190.897 Q2157.66 194.254 2157.66 200.041 M2153.4 198.791 Q2153.36 195.296 2151.43 193.212 Q2149.54 191.129 2146.39 191.129 Q2142.82 191.129 2140.67 193.143 Q2138.54 195.157 2138.22 198.814 L2153.4 198.791 Z" fill="#000000" fill-rule="nonzero" fill-opacity="1" /><path clip-path="url(#clip830)" d="M2176.43 201.036 Q2171.27 201.036 2169.28 202.217 Q2167.29 203.397 2167.29 206.245 Q2167.29 208.513 2168.77 209.856 Q2170.28 211.175 2172.85 211.175 Q2176.39 211.175 2178.52 208.675 Q2180.67 206.152 2180.67 201.985 L2180.67 201.036 L2176.43 201.036 M2184.93 199.277 L2184.93 214.069 L2180.67 214.069 L2180.67 210.133 Q2179.21 212.495 2177.04 213.629 Q2174.86 214.74 2171.71 214.74 Q2167.73 214.74 2165.37 212.518 Q2163.03 210.272 2163.03 206.522 Q2163.03 202.147 2165.95 199.925 Q2168.89 197.703 2174.7 197.703 L2180.67 197.703 L2180.67 197.286 Q2180.67 194.347 2178.73 192.749 Q2176.8 191.129 2173.31 191.129 Q2171.09 191.129 2168.98 191.661 Q2166.87 192.194 2164.93 193.259 L2164.93 189.323 Q2167.27 188.421 2169.47 187.981 Q2171.67 187.518 2173.75 187.518 Q2179.37 187.518 2182.15 190.434 Q2184.93 193.351 2184.93 199.277 Z" fill="#000000" fill-rule="nonzero" fill-opacity="1" /><path clip-path="url(#clip830)" d="M2215.25 198.421 L2215.25 214.069 L2210.99 214.069 L2210.99 198.559 Q2210.99 194.879 2209.56 193.05 Q2208.12 191.222 2205.25 191.222 Q2201.8 191.222 2199.81 193.421 Q2197.82 195.62 2197.82 199.416 L2197.82 214.069 L2193.54 214.069 L2193.54 188.143 L2197.82 188.143 L2197.82 192.171 Q2199.35 189.833 2201.41 188.675 Q2203.49 187.518 2206.2 187.518 Q2210.67 187.518 2212.96 190.296 Q2215.25 193.05 2215.25 198.421 Z" fill="#000000" fill-rule="nonzero" fill-opacity="1" /></svg>
