<?xml version="1.0" encoding="utf-8"?>
<svg xmlns="http://www.w3.org/2000/svg" xmlns:xlink="http://www.w3.org/1999/xlink" width="600" height="400" viewBox="0 0 2400 1600">
<defs>
  <clipPath id="clip730">
    <rect x="0" y="0" width="2400" height="1600"/>
  </clipPath>
</defs>
<path clip-path="url(#clip730)" d="M0 1600 L2400 1600 L2400 0 L0 0  Z" fill="#ffffff" fill-rule="evenodd" fill-opacity="1"/>
<defs>
  <clipPath id="clip731">
    <rect x="480" y="0" width="1681" height="1600"/>
  </clipPath>
</defs>
<path clip-path="url(#clip730)" d="M232.389 1423.18 L2352.76 1423.18 L2352.76 47.2441 L232.389 47.2441  Z" fill="#ffffff" fill-rule="evenodd" fill-opacity="1"/>
<defs>
  <clipPath id="clip732">
    <rect x="232" y="47" width="2121" height="1377"/>
  </clipPath>
</defs>
<polyline clip-path="url(#clip732)" style="stroke:#000000; stroke-linecap:round; stroke-linejoin:round; stroke-width:2; stroke-opacity:0.1; fill:none" points="290.397,1423.18 290.397,47.2441 "/>
<polyline clip-path="url(#clip732)" style="stroke:#000000; stroke-linecap:round; stroke-linejoin:round; stroke-width:2; stroke-opacity:0.1; fill:none" points="790.984,1423.18 790.984,47.2441 "/>
<polyline clip-path="url(#clip732)" style="stroke:#000000; stroke-linecap:round; stroke-linejoin:round; stroke-width:2; stroke-opacity:0.1; fill:none" points="1291.57,1423.18 1291.57,47.2441 "/>
<polyline clip-path="url(#clip732)" style="stroke:#000000; stroke-linecap:round; stroke-linejoin:round; stroke-width:2; stroke-opacity:0.1; fill:none" points="1792.16,1423.18 1792.16,47.2441 "/>
<polyline clip-path="url(#clip732)" style="stroke:#000000; stroke-linecap:round; stroke-linejoin:round; stroke-width:2; stroke-opacity:0.1; fill:none" points="2292.75,1423.18 2292.75,47.2441 "/>
<polyline clip-path="url(#clip730)" style="stroke:#000000; stroke-linecap:round; stroke-linejoin:round; stroke-width:4; stroke-opacity:1; fill:none" points="232.389,1423.18 2352.76,1423.18 "/>
<polyline clip-path="url(#clip730)" style="stroke:#000000; stroke-linecap:round; stroke-linejoin:round; stroke-width:4; stroke-opacity:1; fill:none" points="290.397,1423.18 290.397,1404.28 "/>
<polyline clip-path="url(#clip730)" style="stroke:#000000; stroke-linecap:round; stroke-linejoin:round; stroke-width:4; stroke-opacity:1; fill:none" points="790.984,1423.18 790.984,1404.28 "/>
<polyline clip-path="url(#clip730)" style="stroke:#000000; stroke-linecap:round; stroke-linejoin:round; stroke-width:4; stroke-opacity:1; fill:none" points="1291.57,1423.18 1291.57,1404.28 "/>
<polyline clip-path="url(#clip730)" style="stroke:#000000; stroke-linecap:round; stroke-linejoin:round; stroke-width:4; stroke-opacity:1; fill:none" points="1792.16,1423.18 1792.16,1404.28 "/>
<polyline clip-path="url(#clip730)" style="stroke:#000000; stroke-linecap:round; stroke-linejoin:round; stroke-width:4; stroke-opacity:1; fill:none" points="2292.75,1423.18 2292.75,1404.28 "/>
<path clip-path="url(#clip730)" d="M290.397 1454.1 Q286.786 1454.1 284.958 1457.66 Q283.152 1461.2 283.152 1468.33 Q283.152 1475.44 284.958 1479.01 Q286.786 1482.55 290.397 1482.55 Q294.032 1482.55 295.837 1479.01 Q297.666 1475.44 297.666 1468.33 Q297.666 1461.2 295.837 1457.66 Q294.032 1454.1 290.397 1454.1 M290.397 1450.39 Q296.208 1450.39 299.263 1455 Q302.342 1459.58 302.342 1468.33 Q302.342 1477.06 299.263 1481.67 Q296.208 1486.25 290.397 1486.25 Q284.587 1486.25 281.509 1481.67 Q278.453 1477.06 278.453 1468.33 Q278.453 1459.58 281.509 1455 Q284.587 1450.39 290.397 1450.39 Z" fill="#000000" fill-rule="nonzero" fill-opacity="1" /><path clip-path="url(#clip730)" d="M754.677 1481.64 L770.996 1481.64 L770.996 1485.58 L749.052 1485.58 L749.052 1481.64 Q751.714 1478.89 756.297 1474.26 Q760.904 1469.61 762.084 1468.27 Q764.329 1465.74 765.209 1464.01 Q766.112 1462.25 766.112 1460.56 Q766.112 1457.8 764.167 1456.07 Q762.246 1454.33 759.144 1454.33 Q756.945 1454.33 754.492 1455.09 Q752.061 1455.86 749.283 1457.41 L749.283 1452.69 Q752.107 1451.55 754.561 1450.97 Q757.015 1450.39 759.052 1450.39 Q764.422 1450.39 767.616 1453.08 Q770.811 1455.77 770.811 1460.26 Q770.811 1462.39 770.001 1464.31 Q769.214 1466.2 767.107 1468.8 Q766.529 1469.47 763.427 1472.69 Q760.325 1475.88 754.677 1481.64 Z" fill="#000000" fill-rule="nonzero" fill-opacity="1" /><path clip-path="url(#clip730)" d="M780.857 1451.02 L799.214 1451.02 L799.214 1454.96 L785.14 1454.96 L785.14 1463.43 Q786.158 1463.08 787.177 1462.92 Q788.195 1462.73 789.214 1462.73 Q795.001 1462.73 798.38 1465.9 Q801.76 1469.08 801.76 1474.49 Q801.76 1480.07 798.288 1483.17 Q794.815 1486.25 788.496 1486.25 Q786.32 1486.25 784.052 1485.88 Q781.806 1485.51 779.399 1484.77 L779.399 1480.07 Q781.482 1481.2 783.704 1481.76 Q785.927 1482.32 788.403 1482.32 Q792.408 1482.32 794.746 1480.21 Q797.084 1478.1 797.084 1474.49 Q797.084 1470.88 794.746 1468.77 Q792.408 1466.67 788.403 1466.67 Q786.528 1466.67 784.653 1467.08 Q782.802 1467.5 780.857 1468.38 L780.857 1451.02 Z" fill="#000000" fill-rule="nonzero" fill-opacity="1" /><path clip-path="url(#clip730)" d="M820.973 1454.1 Q817.362 1454.1 815.533 1457.66 Q813.727 1461.2 813.727 1468.33 Q813.727 1475.44 815.533 1479.01 Q817.362 1482.55 820.973 1482.55 Q824.607 1482.55 826.412 1479.01 Q828.241 1475.44 828.241 1468.33 Q828.241 1461.2 826.412 1457.66 Q824.607 1454.1 820.973 1454.1 M820.973 1450.39 Q826.783 1450.39 829.838 1455 Q832.917 1459.58 832.917 1468.33 Q832.917 1477.06 829.838 1481.67 Q826.783 1486.25 820.973 1486.25 Q815.163 1486.25 812.084 1481.67 Q809.028 1477.06 809.028 1468.33 Q809.028 1459.58 812.084 1455 Q815.163 1450.39 820.973 1450.39 Z" fill="#000000" fill-rule="nonzero" fill-opacity="1" /><path clip-path="url(#clip730)" d="M1251.19 1451.02 L1269.55 1451.02 L1269.55 1454.96 L1255.47 1454.96 L1255.47 1463.43 Q1256.49 1463.08 1257.51 1462.92 Q1258.53 1462.73 1259.55 1462.73 Q1265.33 1462.73 1268.71 1465.9 Q1272.09 1469.08 1272.09 1474.49 Q1272.09 1480.07 1268.62 1483.17 Q1265.15 1486.25 1258.83 1486.25 Q1256.65 1486.25 1254.38 1485.88 Q1252.14 1485.51 1249.73 1484.77 L1249.73 1480.07 Q1251.81 1481.2 1254.04 1481.76 Q1256.26 1482.32 1258.74 1482.32 Q1262.74 1482.32 1265.08 1480.21 Q1267.42 1478.1 1267.42 1474.49 Q1267.42 1470.88 1265.08 1468.77 Q1262.74 1466.67 1258.74 1466.67 Q1256.86 1466.67 1254.99 1467.08 Q1253.13 1467.5 1251.19 1468.38 L1251.19 1451.02 Z" fill="#000000" fill-rule="nonzero" fill-opacity="1" /><path clip-path="url(#clip730)" d="M1291.31 1454.1 Q1287.69 1454.1 1285.87 1457.66 Q1284.06 1461.2 1284.06 1468.33 Q1284.06 1475.44 1285.87 1479.01 Q1287.69 1482.55 1291.31 1482.55 Q1294.94 1482.55 1296.75 1479.01 Q1298.57 1475.44 1298.57 1468.33 Q1298.57 1461.2 1296.75 1457.66 Q1294.94 1454.1 1291.31 1454.1 M1291.31 1450.39 Q1297.12 1450.39 1300.17 1455 Q1303.25 1459.58 1303.25 1468.33 Q1303.25 1477.06 1300.17 1481.67 Q1297.12 1486.25 1291.31 1486.25 Q1285.5 1486.25 1282.42 1481.67 Q1279.36 1477.06 1279.36 1468.33 Q1279.36 1459.58 1282.42 1455 Q1285.5 1450.39 1291.31 1450.39 Z" fill="#000000" fill-rule="nonzero" fill-opacity="1" /><path clip-path="url(#clip730)" d="M1321.47 1454.1 Q1317.86 1454.1 1316.03 1457.66 Q1314.22 1461.2 1314.22 1468.33 Q1314.22 1475.44 1316.03 1479.01 Q1317.86 1482.55 1321.47 1482.55 Q1325.1 1482.55 1326.91 1479.01 Q1328.74 1475.44 1328.74 1468.33 Q1328.74 1461.2 1326.91 1457.66 Q1325.1 1454.1 1321.47 1454.1 M1321.47 1450.39 Q1327.28 1450.39 1330.33 1455 Q1333.41 1459.58 1333.41 1468.33 Q1333.41 1477.06 1330.33 1481.67 Q1327.28 1486.25 1321.47 1486.25 Q1315.66 1486.25 1312.58 1481.67 Q1309.52 1477.06 1309.52 1468.33 Q1309.52 1459.58 1312.58 1455 Q1315.66 1450.39 1321.47 1450.39 Z" fill="#000000" fill-rule="nonzero" fill-opacity="1" /><path clip-path="url(#clip730)" d="M1750.43 1451.02 L1772.66 1451.02 L1772.66 1453.01 L1760.11 1485.58 L1755.23 1485.58 L1767.03 1454.96 L1750.43 1454.96 L1750.43 1451.02 Z" fill="#000000" fill-rule="nonzero" fill-opacity="1" /><path clip-path="url(#clip730)" d="M1781.82 1451.02 L1800.18 1451.02 L1800.18 1454.96 L1786.11 1454.96 L1786.11 1463.43 Q1787.12 1463.08 1788.14 1462.92 Q1789.16 1462.73 1790.18 1462.73 Q1795.97 1462.73 1799.35 1465.9 Q1802.73 1469.08 1802.73 1474.49 Q1802.73 1480.07 1799.25 1483.17 Q1795.78 1486.25 1789.46 1486.25 Q1787.29 1486.25 1785.02 1485.88 Q1782.77 1485.51 1780.36 1484.77 L1780.36 1480.07 Q1782.45 1481.2 1784.67 1481.76 Q1786.89 1482.32 1789.37 1482.32 Q1793.37 1482.32 1795.71 1480.21 Q1798.05 1478.1 1798.05 1474.49 Q1798.05 1470.88 1795.71 1468.77 Q1793.37 1466.67 1789.37 1466.67 Q1787.49 1466.67 1785.62 1467.08 Q1783.77 1467.5 1781.82 1468.38 L1781.82 1451.02 Z" fill="#000000" fill-rule="nonzero" fill-opacity="1" /><path clip-path="url(#clip730)" d="M1821.94 1454.1 Q1818.33 1454.1 1816.5 1457.66 Q1814.69 1461.2 1814.69 1468.33 Q1814.69 1475.44 1816.5 1479.01 Q1818.33 1482.55 1821.94 1482.55 Q1825.57 1482.55 1827.38 1479.01 Q1829.21 1475.44 1829.21 1468.33 Q1829.21 1461.2 1827.38 1457.66 Q1825.57 1454.1 1821.94 1454.1 M1821.94 1450.39 Q1827.75 1450.39 1830.8 1455 Q1833.88 1459.58 1833.88 1468.33 Q1833.88 1477.06 1830.8 1481.67 Q1827.75 1486.25 1821.94 1486.25 Q1816.13 1486.25 1813.05 1481.67 Q1809.99 1477.06 1809.99 1468.33 Q1809.99 1459.58 1813.05 1455 Q1816.13 1450.39 1821.94 1450.39 Z" fill="#000000" fill-rule="nonzero" fill-opacity="1" /><path clip-path="url(#clip730)" d="M2237.27 1481.64 L2244.91 1481.64 L2244.91 1455.28 L2236.6 1456.95 L2236.6 1452.69 L2244.86 1451.02 L2249.54 1451.02 L2249.54 1481.64 L2257.18 1481.64 L2257.18 1485.58 L2237.27 1485.58 L2237.27 1481.64 Z" fill="#000000" fill-rule="nonzero" fill-opacity="1" /><path clip-path="url(#clip730)" d="M2276.62 1454.1 Q2273.01 1454.1 2271.18 1457.66 Q2269.38 1461.2 2269.38 1468.33 Q2269.38 1475.44 2271.18 1479.01 Q2273.01 1482.55 2276.62 1482.55 Q2280.26 1482.55 2282.06 1479.01 Q2283.89 1475.44 2283.89 1468.33 Q2283.89 1461.2 2282.06 1457.66 Q2280.26 1454.1 2276.62 1454.1 M2276.62 1450.39 Q2282.43 1450.39 2285.49 1455 Q2288.57 1459.58 2288.57 1468.33 Q2288.57 1477.06 2285.49 1481.67 Q2282.43 1486.25 2276.62 1486.25 Q2270.81 1486.25 2267.73 1481.67 Q2264.68 1477.06 2264.68 1468.33 Q2264.68 1459.58 2267.73 1455 Q2270.81 1450.39 2276.62 1450.39 Z" fill="#000000" fill-rule="nonzero" fill-opacity="1" /><path clip-path="url(#clip730)" d="M2306.78 1454.1 Q2303.17 1454.1 2301.35 1457.66 Q2299.54 1461.2 2299.54 1468.33 Q2299.54 1475.44 2301.35 1479.01 Q2303.17 1482.55 2306.78 1482.55 Q2310.42 1482.55 2312.22 1479.01 Q2314.05 1475.44 2314.05 1468.33 Q2314.05 1461.2 2312.22 1457.66 Q2310.42 1454.1 2306.78 1454.1 M2306.78 1450.39 Q2312.59 1450.39 2315.65 1455 Q2318.73 1459.58 2318.73 1468.33 Q2318.73 1477.06 2315.65 1481.67 Q2312.59 1486.25 2306.78 1486.25 Q2300.97 1486.25 2297.9 1481.67 Q2294.84 1477.06 2294.84 1468.33 Q2294.84 1459.58 2297.9 1455 Q2300.97 1450.39 2306.78 1450.39 Z" fill="#000000" fill-rule="nonzero" fill-opacity="1" /><path clip-path="url(#clip730)" d="M2336.95 1454.1 Q2333.34 1454.1 2331.51 1457.66 Q2329.7 1461.2 2329.7 1468.33 Q2329.7 1475.44 2331.51 1479.01 Q2333.34 1482.55 2336.95 1482.55 Q2340.58 1482.55 2342.39 1479.01 Q2344.22 1475.44 2344.22 1468.33 Q2344.22 1461.2 2342.39 1457.66 Q2340.58 1454.1 2336.95 1454.1 M2336.95 1450.39 Q2342.76 1450.39 2345.81 1455 Q2348.89 1459.58 2348.89 1468.33 Q2348.89 1477.06 2345.81 1481.67 Q2342.76 1486.25 2336.95 1486.25 Q2331.14 1486.25 2328.06 1481.67 Q2325 1477.06 2325 1468.33 Q2325 1459.58 2328.06 1455 Q2331.14 1450.39 2336.95 1450.39 Z" fill="#000000" fill-rule="nonzero" fill-opacity="1" /><path clip-path="url(#clip730)" d="M1218.14 1545.76 Q1220.21 1546.46 1222.15 1548.76 Q1224.13 1551.05 1226.1 1555.06 L1232.62 1568.04 L1225.72 1568.04 L1219.64 1555.85 Q1217.28 1551.08 1215.05 1549.52 Q1212.86 1547.96 1209.04 1547.96 L1202.04 1547.96 L1202.04 1568.04 L1195.61 1568.04 L1195.61 1520.52 L1210.12 1520.52 Q1218.27 1520.52 1222.28 1523.93 Q1226.29 1527.34 1226.29 1534.21 Q1226.29 1538.7 1224.19 1541.66 Q1222.12 1544.62 1218.14 1545.76 M1202.04 1525.81 L1202.04 1542.68 L1210.12 1542.68 Q1214.77 1542.68 1217.12 1540.54 Q1219.51 1538.38 1219.51 1534.21 Q1219.51 1530.04 1217.12 1527.94 Q1214.77 1525.81 1210.12 1525.81 L1202.04 1525.81 Z" fill="#000000" fill-rule="nonzero" fill-opacity="1" /><path clip-path="url(#clip730)" d="M1251.53 1536.5 Q1246.82 1536.5 1244.08 1540.19 Q1241.34 1543.85 1241.34 1550.25 Q1241.34 1556.65 1244.05 1560.34 Q1246.79 1564 1251.53 1564 Q1256.21 1564 1258.95 1560.31 Q1261.68 1556.62 1261.68 1550.25 Q1261.68 1543.92 1258.95 1540.23 Q1256.21 1536.5 1251.53 1536.5 M1251.53 1531.54 Q1259.17 1531.54 1263.53 1536.5 Q1267.89 1541.47 1267.89 1550.25 Q1267.89 1559 1263.53 1564 Q1259.17 1568.97 1251.53 1568.97 Q1243.86 1568.97 1239.5 1564 Q1235.17 1559 1235.17 1550.25 Q1235.17 1541.47 1239.5 1536.5 Q1243.86 1531.54 1251.53 1531.54 Z" fill="#000000" fill-rule="nonzero" fill-opacity="1" /><path clip-path="url(#clip730)" d="M1276.99 1553.98 L1276.99 1532.4 L1282.85 1532.4 L1282.85 1553.75 Q1282.85 1558.81 1284.82 1561.36 Q1286.8 1563.87 1290.74 1563.87 Q1295.48 1563.87 1298.22 1560.85 Q1300.99 1557.83 1300.99 1552.61 L1300.99 1532.4 L1306.85 1532.4 L1306.85 1568.04 L1300.99 1568.04 L1300.99 1562.57 Q1298.86 1565.82 1296.03 1567.41 Q1293.23 1568.97 1289.5 1568.97 Q1283.36 1568.97 1280.18 1565.15 Q1276.99 1561.33 1276.99 1553.98 M1291.73 1531.54 L1291.73 1531.54 Z" fill="#000000" fill-rule="nonzero" fill-opacity="1" /><path clip-path="url(#clip730)" d="M1348.54 1546.53 L1348.54 1568.04 L1342.69 1568.04 L1342.69 1546.72 Q1342.69 1541.66 1340.71 1539.14 Q1338.74 1536.63 1334.79 1536.63 Q1330.05 1536.63 1327.31 1539.65 Q1324.58 1542.68 1324.58 1547.9 L1324.58 1568.04 L1318.69 1568.04 L1318.69 1532.4 L1324.58 1532.4 L1324.58 1537.93 Q1326.68 1534.72 1329.51 1533.13 Q1332.37 1531.54 1336.1 1531.54 Q1342.24 1531.54 1345.39 1535.36 Q1348.54 1539.14 1348.54 1546.53 Z" fill="#000000" fill-rule="nonzero" fill-opacity="1" /><path clip-path="url(#clip730)" d="M1383.68 1537.81 L1383.68 1518.52 L1389.54 1518.52 L1389.54 1568.04 L1383.68 1568.04 L1383.68 1562.7 Q1381.84 1565.88 1379 1567.44 Q1376.2 1568.97 1372.26 1568.97 Q1365.79 1568.97 1361.72 1563.81 Q1357.68 1558.65 1357.68 1550.25 Q1357.68 1541.85 1361.72 1536.69 Q1365.79 1531.54 1372.26 1531.54 Q1376.2 1531.54 1379 1533.1 Q1381.84 1534.62 1383.68 1537.81 M1363.73 1550.25 Q1363.73 1556.71 1366.37 1560.4 Q1369.04 1564.07 1373.69 1564.07 Q1378.33 1564.07 1381.01 1560.4 Q1383.68 1556.71 1383.68 1550.25 Q1383.68 1543.79 1381.01 1540.13 Q1378.33 1536.44 1373.69 1536.44 Q1369.04 1536.44 1366.37 1540.13 Q1363.73 1543.79 1363.73 1550.25 Z" fill="#000000" fill-rule="nonzero" fill-opacity="1" /><polyline clip-path="url(#clip732)" style="stroke:#000000; stroke-linecap:round; stroke-linejoin:round; stroke-width:2; stroke-opacity:0.1; fill:none" points="232.389,1282.14 2352.76,1282.14 "/>
<polyline clip-path="url(#clip732)" style="stroke:#000000; stroke-linecap:round; stroke-linejoin:round; stroke-width:2; stroke-opacity:0.1; fill:none" points="232.389,990.447 2352.76,990.447 "/>
<polyline clip-path="url(#clip732)" style="stroke:#000000; stroke-linecap:round; stroke-linejoin:round; stroke-width:2; stroke-opacity:0.1; fill:none" points="232.389,698.75 2352.76,698.75 "/>
<polyline clip-path="url(#clip732)" style="stroke:#000000; stroke-linecap:round; stroke-linejoin:round; stroke-width:2; stroke-opacity:0.1; fill:none" points="232.389,407.053 2352.76,407.053 "/>
<polyline clip-path="url(#clip732)" style="stroke:#000000; stroke-linecap:round; stroke-linejoin:round; stroke-width:2; stroke-opacity:0.1; fill:none" points="232.389,115.355 2352.76,115.355 "/>
<polyline clip-path="url(#clip730)" style="stroke:#000000; stroke-linecap:round; stroke-linejoin:round; stroke-width:4; stroke-opacity:1; fill:none" points="232.389,1423.18 232.389,47.2441 "/>
<polyline clip-path="url(#clip730)" style="stroke:#000000; stroke-linecap:round; stroke-linejoin:round; stroke-width:4; stroke-opacity:1; fill:none" points="232.389,1282.14 251.287,1282.14 "/>
<polyline clip-path="url(#clip730)" style="stroke:#000000; stroke-linecap:round; stroke-linejoin:round; stroke-width:4; stroke-opacity:1; fill:none" points="232.389,990.447 251.287,990.447 "/>
<polyline clip-path="url(#clip730)" style="stroke:#000000; stroke-linecap:round; stroke-linejoin:round; stroke-width:4; stroke-opacity:1; fill:none" points="232.389,698.75 251.287,698.75 "/>
<polyline clip-path="url(#clip730)" style="stroke:#000000; stroke-linecap:round; stroke-linejoin:round; stroke-width:4; stroke-opacity:1; fill:none" points="232.389,407.053 251.287,407.053 "/>
<polyline clip-path="url(#clip730)" style="stroke:#000000; stroke-linecap:round; stroke-linejoin:round; stroke-width:4; stroke-opacity:1; fill:none" points="232.389,115.355 251.287,115.355 "/>
<path clip-path="url(#clip730)" d="M154.862 1280.28 Q151.714 1280.28 149.862 1282.43 Q148.033 1284.59 148.033 1288.34 Q148.033 1292.06 149.862 1294.24 Q151.714 1296.39 154.862 1296.39 Q158.01 1296.39 159.839 1294.24 Q161.69 1292.06 161.69 1288.34 Q161.69 1284.59 159.839 1282.43 Q158.01 1280.28 154.862 1280.28 M164.144 1265.63 L164.144 1269.89 Q162.385 1269.05 160.579 1268.61 Q158.797 1268.17 157.038 1268.17 Q152.408 1268.17 149.954 1271.3 Q147.524 1274.42 147.177 1280.74 Q148.542 1278.73 150.603 1277.67 Q152.663 1276.58 155.14 1276.58 Q160.348 1276.58 163.357 1279.75 Q166.39 1282.9 166.39 1288.34 Q166.39 1293.66 163.241 1296.88 Q160.093 1300.1 154.862 1300.1 Q148.866 1300.1 145.695 1295.51 Q142.524 1290.91 142.524 1282.18 Q142.524 1273.98 146.413 1269.12 Q150.302 1264.24 156.853 1264.24 Q158.612 1264.24 160.394 1264.59 Q162.2 1264.93 164.144 1265.63 Z" fill="#000000" fill-rule="nonzero" fill-opacity="1" /><path clip-path="url(#clip730)" d="M184.445 1267.94 Q180.834 1267.94 179.005 1271.51 Q177.2 1275.05 177.2 1282.18 Q177.2 1289.29 179.005 1292.85 Q180.834 1296.39 184.445 1296.39 Q188.079 1296.39 189.885 1292.85 Q191.713 1289.29 191.713 1282.18 Q191.713 1275.05 189.885 1271.51 Q188.079 1267.94 184.445 1267.94 M184.445 1264.24 Q190.255 1264.24 193.311 1268.85 Q196.389 1273.43 196.389 1282.18 Q196.389 1290.91 193.311 1295.51 Q190.255 1300.1 184.445 1300.1 Q178.635 1300.1 175.556 1295.51 Q172.501 1290.91 172.501 1282.18 Q172.501 1273.43 175.556 1268.85 Q178.635 1264.24 184.445 1264.24 Z" fill="#000000" fill-rule="nonzero" fill-opacity="1" /><path clip-path="url(#clip730)" d="M154.283 991.315 Q150.95 991.315 149.028 993.097 Q147.13 994.88 147.13 998.005 Q147.13 1001.13 149.028 1002.91 Q150.95 1004.69 154.283 1004.69 Q157.616 1004.69 159.538 1002.91 Q161.459 1001.11 161.459 998.005 Q161.459 994.88 159.538 993.097 Q157.64 991.315 154.283 991.315 M149.607 989.324 Q146.598 988.584 144.908 986.523 Q143.241 984.463 143.241 981.5 Q143.241 977.357 146.181 974.949 Q149.144 972.542 154.283 972.542 Q159.445 972.542 162.385 974.949 Q165.325 977.357 165.325 981.5 Q165.325 984.463 163.635 986.523 Q161.968 988.584 158.982 989.324 Q162.362 990.111 164.237 992.403 Q166.135 994.695 166.135 998.005 Q166.135 1003.03 163.056 1005.71 Q160.001 1008.4 154.283 1008.4 Q148.566 1008.4 145.487 1005.71 Q142.431 1003.03 142.431 998.005 Q142.431 994.695 144.329 992.403 Q146.228 990.111 149.607 989.324 M147.894 981.94 Q147.894 984.625 149.561 986.13 Q151.251 987.635 154.283 987.635 Q157.292 987.635 158.982 986.13 Q160.695 984.625 160.695 981.94 Q160.695 979.255 158.982 977.75 Q157.292 976.246 154.283 976.246 Q151.251 976.246 149.561 977.75 Q147.894 979.255 147.894 981.94 Z" fill="#000000" fill-rule="nonzero" fill-opacity="1" /><path clip-path="url(#clip730)" d="M184.445 976.246 Q180.834 976.246 179.005 979.811 Q177.2 983.352 177.2 990.482 Q177.2 997.588 179.005 1001.15 Q180.834 1004.69 184.445 1004.69 Q188.079 1004.69 189.885 1001.15 Q191.713 997.588 191.713 990.482 Q191.713 983.352 189.885 979.811 Q188.079 976.246 184.445 976.246 M184.445 972.542 Q190.255 972.542 193.311 977.148 Q196.389 981.732 196.389 990.482 Q196.389 999.209 193.311 1003.82 Q190.255 1008.4 184.445 1008.4 Q178.635 1008.4 175.556 1003.82 Q172.501 999.209 172.501 990.482 Q172.501 981.732 175.556 977.148 Q178.635 972.542 184.445 972.542 Z" fill="#000000" fill-rule="nonzero" fill-opacity="1" /><path clip-path="url(#clip730)" d="M114.931 712.095 L122.57 712.095 L122.57 685.729 L114.26 687.396 L114.26 683.136 L122.524 681.47 L127.2 681.47 L127.2 712.095 L134.839 712.095 L134.839 716.03 L114.931 716.03 L114.931 712.095 Z" fill="#000000" fill-rule="nonzero" fill-opacity="1" /><path clip-path="url(#clip730)" d="M154.283 684.549 Q150.672 684.549 148.843 688.113 Q147.038 691.655 147.038 698.785 Q147.038 705.891 148.843 709.456 Q150.672 712.997 154.283 712.997 Q157.917 712.997 159.723 709.456 Q161.552 705.891 161.552 698.785 Q161.552 691.655 159.723 688.113 Q157.917 684.549 154.283 684.549 M154.283 680.845 Q160.093 680.845 163.149 685.451 Q166.227 690.035 166.227 698.785 Q166.227 707.511 163.149 712.118 Q160.093 716.701 154.283 716.701 Q148.473 716.701 145.394 712.118 Q142.339 707.511 142.339 698.785 Q142.339 690.035 145.394 685.451 Q148.473 680.845 154.283 680.845 Z" fill="#000000" fill-rule="nonzero" fill-opacity="1" /><path clip-path="url(#clip730)" d="M184.445 684.549 Q180.834 684.549 179.005 688.113 Q177.2 691.655 177.2 698.785 Q177.2 705.891 179.005 709.456 Q180.834 712.997 184.445 712.997 Q188.079 712.997 189.885 709.456 Q191.713 705.891 191.713 698.785 Q191.713 691.655 189.885 688.113 Q188.079 684.549 184.445 684.549 M184.445 680.845 Q190.255 680.845 193.311 685.451 Q196.389 690.035 196.389 698.785 Q196.389 707.511 193.311 712.118 Q190.255 716.701 184.445 716.701 Q178.635 716.701 175.556 712.118 Q172.501 707.511 172.501 698.785 Q172.501 690.035 175.556 685.451 Q178.635 680.845 184.445 680.845 Z" fill="#000000" fill-rule="nonzero" fill-opacity="1" /><path clip-path="url(#clip730)" d="M114.931 420.397 L122.57 420.397 L122.57 394.032 L114.26 395.698 L114.26 391.439 L122.524 389.773 L127.2 389.773 L127.2 420.397 L134.839 420.397 L134.839 424.333 L114.931 424.333 L114.931 420.397 Z" fill="#000000" fill-rule="nonzero" fill-opacity="1" /><path clip-path="url(#clip730)" d="M148.311 420.397 L164.63 420.397 L164.63 424.333 L142.686 424.333 L142.686 420.397 Q145.348 417.643 149.931 413.013 Q154.538 408.36 155.718 407.018 Q157.964 404.495 158.843 402.759 Q159.746 400.999 159.746 399.31 Q159.746 396.555 157.802 394.819 Q155.88 393.083 152.778 393.083 Q150.579 393.083 148.126 393.847 Q145.695 394.611 142.917 396.161 L142.917 391.439 Q145.741 390.305 148.195 389.726 Q150.649 389.148 152.686 389.148 Q158.056 389.148 161.251 391.833 Q164.445 394.518 164.445 399.009 Q164.445 401.138 163.635 403.06 Q162.848 404.958 160.741 407.55 Q160.163 408.222 157.061 411.439 Q153.959 414.634 148.311 420.397 Z" fill="#000000" fill-rule="nonzero" fill-opacity="1" /><path clip-path="url(#clip730)" d="M184.445 392.851 Q180.834 392.851 179.005 396.416 Q177.2 399.958 177.2 407.087 Q177.2 414.194 179.005 417.759 Q180.834 421.3 184.445 421.3 Q188.079 421.3 189.885 417.759 Q191.713 414.194 191.713 407.087 Q191.713 399.958 189.885 396.416 Q188.079 392.851 184.445 392.851 M184.445 389.148 Q190.255 389.148 193.311 393.754 Q196.389 398.337 196.389 407.087 Q196.389 415.814 193.311 420.421 Q190.255 425.004 184.445 425.004 Q178.635 425.004 175.556 420.421 Q172.501 415.814 172.501 407.087 Q172.501 398.337 175.556 393.754 Q178.635 389.148 184.445 389.148 Z" fill="#000000" fill-rule="nonzero" fill-opacity="1" /><path clip-path="url(#clip730)" d="M114.931 128.7 L122.57 128.7 L122.57 102.335 L114.26 104.001 L114.26 99.7421 L122.524 98.0754 L127.2 98.0754 L127.2 128.7 L134.839 128.7 L134.839 132.635 L114.931 132.635 L114.931 128.7 Z" fill="#000000" fill-rule="nonzero" fill-opacity="1" /><path clip-path="url(#clip730)" d="M157.13 102.149 L145.325 120.598 L157.13 120.598 L157.13 102.149 M155.903 98.0754 L161.783 98.0754 L161.783 120.598 L166.714 120.598 L166.714 124.487 L161.783 124.487 L161.783 132.635 L157.13 132.635 L157.13 124.487 L141.529 124.487 L141.529 119.973 L155.903 98.0754 Z" fill="#000000" fill-rule="nonzero" fill-opacity="1" /><path clip-path="url(#clip730)" d="M184.445 101.154 Q180.834 101.154 179.005 104.719 Q177.2 108.261 177.2 115.39 Q177.2 122.497 179.005 126.061 Q180.834 129.603 184.445 129.603 Q188.079 129.603 189.885 126.061 Q191.713 122.497 191.713 115.39 Q191.713 108.261 189.885 104.719 Q188.079 101.154 184.445 101.154 M184.445 97.4504 Q190.255 97.4504 193.311 102.057 Q196.389 106.64 196.389 115.39 Q196.389 124.117 193.311 128.723 Q190.255 133.307 184.445 133.307 Q178.635 133.307 175.556 128.723 Q172.501 124.117 172.501 115.39 Q172.501 106.64 175.556 102.057 Q178.635 97.4504 184.445 97.4504 Z" fill="#000000" fill-rule="nonzero" fill-opacity="1" /><path clip-path="url(#clip730)" d="M16.4842 893.798 L16.4842 884.217 L48.8219 872.091 L16.4842 859.9 L16.4842 850.32 L64.0042 850.32 L64.0042 856.59 L22.277 856.59 L54.8694 868.844 L54.8694 875.305 L22.277 887.559 L64.0042 887.559 L64.0042 893.798 L16.4842 893.798 Z" fill="#000000" fill-rule="nonzero" fill-opacity="1" /><path clip-path="url(#clip730)" d="M32.4621 823.998 Q32.4621 828.708 36.1542 831.446 Q39.8145 834.183 46.212 834.183 Q52.6095 834.183 56.3017 831.477 Q59.9619 828.74 59.9619 823.998 Q59.9619 819.319 56.2698 816.582 Q52.5777 813.844 46.212 813.844 Q39.8781 813.844 36.186 816.582 Q32.4621 819.319 32.4621 823.998 M27.4968 823.998 Q27.4968 816.359 32.4621 811.998 Q37.4273 807.638 46.212 807.638 Q54.9649 807.638 59.9619 811.998 Q64.9272 816.359 64.9272 823.998 Q64.9272 831.668 59.9619 836.029 Q54.9649 840.358 46.212 840.358 Q37.4273 840.358 32.4621 836.029 Q27.4968 831.668 27.4968 823.998 Z" fill="#000000" fill-rule="nonzero" fill-opacity="1" /><path clip-path="url(#clip730)" d="M42.4881 768.298 L64.0042 768.298 L64.0042 774.154 L42.679 774.154 Q37.6183 774.154 35.1038 776.128 Q32.5894 778.101 32.5894 782.048 Q32.5894 786.79 35.6131 789.527 Q38.6368 792.265 43.8567 792.265 L64.0042 792.265 L64.0042 798.153 L28.3562 798.153 L28.3562 792.265 L33.8944 792.265 Q30.6797 790.164 29.0883 787.331 Q27.4968 784.467 27.4968 780.743 Q27.4968 774.6 31.3163 771.449 Q35.1038 768.298 42.4881 768.298 Z" fill="#000000" fill-rule="nonzero" fill-opacity="1" /><path clip-path="url(#clip730)" d="M44.7161 726.125 L47.5806 726.125 L47.5806 753.052 Q53.6281 752.67 56.8109 749.423 Q59.9619 746.145 59.9619 740.32 Q59.9619 736.947 59.1344 733.796 Q58.3069 730.613 56.6518 727.494 L62.1899 727.494 Q63.5267 730.645 64.227 733.955 Q64.9272 737.265 64.9272 740.671 Q64.9272 749.201 59.9619 754.198 Q54.9967 759.163 46.5303 759.163 Q37.7774 759.163 32.6531 754.452 Q27.4968 749.71 27.4968 741.689 Q27.4968 734.496 32.1438 730.326 Q36.7589 726.125 44.7161 726.125 M42.9973 731.981 Q38.1912 732.045 35.3266 734.687 Q32.4621 737.297 32.4621 741.625 Q32.4621 746.527 35.2312 749.487 Q38.0002 752.415 43.0292 752.861 L42.9973 731.981 Z" fill="#000000" fill-rule="nonzero" fill-opacity="1" /><path clip-path="url(#clip730)" d="M67.3143 701.681 Q73.68 704.163 75.6216 706.519 Q77.5631 708.874 77.5631 712.821 L77.5631 717.499 L72.6615 717.499 L72.6615 714.062 Q72.6615 711.643 71.5157 710.306 Q70.3699 708.969 66.1048 707.346 L63.4312 706.296 L28.3562 720.714 L28.3562 714.508 L56.238 703.368 L28.3562 692.228 L28.3562 686.021 L67.3143 701.681 Z" fill="#000000" fill-rule="nonzero" fill-opacity="1" /><path clip-path="url(#clip730)" d="M14.5426 643.148 Q21.8632 647.413 29.0246 649.482 Q36.186 651.551 43.5384 651.551 Q50.8908 651.551 58.1159 649.482 Q65.3091 647.381 72.5979 643.148 L72.5979 648.241 Q65.1182 653.015 57.8931 655.402 Q50.668 657.757 43.5384 657.757 Q36.4406 657.757 29.2474 655.402 Q22.0542 653.047 14.5426 648.241 L14.5426 643.148 Z" fill="#000000" fill-rule="nonzero" fill-opacity="1" /><path clip-path="url(#clip730)" d="M73.5845 615.903 L73.5845 619.086 L64.0042 619.117 Q63.9405 622.459 63.2403 625.801 Q62.5082 629.143 61.0759 632.517 L55.3468 632.517 Q57.3838 629.271 58.4342 625.961 Q59.4527 622.619 59.4845 619.086 L44.9707 619.086 Q43.8249 626.12 41.0876 629.334 Q38.3504 632.517 33.5761 632.517 Q28.388 632.517 25.3961 629.048 Q22.4043 625.579 21.9587 619.086 L14.479 619.086 L14.479 615.903 L21.8632 615.903 Q21.9905 612.943 22.4998 610.174 Q22.9772 607.404 23.8365 604.763 L29.4065 604.763 Q28.0697 607.404 27.3377 610.205 Q26.6056 612.974 26.4783 615.903 L40.0691 615.903 Q41.1831 608.678 44.0477 605.272 Q46.9122 601.866 51.8775 601.866 Q57.2565 601.866 60.3757 605.495 Q63.4631 609.091 63.9405 615.903 L73.5845 615.903 M39.4962 619.086 L26.4465 619.086 Q26.8603 622.778 28.5472 624.719 Q30.2341 626.661 33.035 626.661 Q35.7722 626.661 37.3 624.878 Q38.8278 623.064 39.4962 619.086 M45.6073 615.903 L59.389 615.903 Q58.8479 611.86 57.0974 609.823 Q55.3468 607.755 52.4822 607.755 Q49.6813 607.755 48.0262 609.728 Q46.3712 611.67 45.6073 615.903 Z" fill="#000000" fill-rule="nonzero" fill-opacity="1" /><path clip-path="url(#clip730)" d="M14.5426 591.236 L14.5426 586.143 Q22.0542 581.369 29.2474 579.013 Q36.4406 576.626 43.5384 576.626 Q50.668 576.626 57.8931 579.013 Q65.1182 581.369 72.5979 586.143 L72.5979 591.236 Q65.3091 587.002 58.1159 584.934 Q50.8908 582.833 43.5384 582.833 Q36.186 582.833 29.0246 584.934 Q21.8632 587.002 14.5426 591.236 Z" fill="#000000" fill-rule="nonzero" fill-opacity="1" /><polyline clip-path="url(#clip732)" style="stroke:#009af9; stroke-linecap:round; stroke-linejoin:round; stroke-width:4; stroke-opacity:1; fill:none" points="292.4,698.75 294.402,713.335 296.404,684.165 298.407,684.165 300.409,684.165 302.411,669.58 304.414,669.58 306.416,654.995 308.419,654.995 310.421,640.41 312.423,640.41 314.426,625.826 316.428,625.826 318.43,611.241 320.433,611.241 322.435,596.656 324.437,596.656 326.44,582.071 328.442,582.071 330.444,567.486 332.447,567.486 334.449,567.486 336.451,552.901 338.454,552.901 340.456,538.316 342.458,538.316 344.461,523.731 346.463,523.731 348.465,509.147 350.468,509.147 352.47,494.562 354.473,494.562 356.475,494.562 358.477,479.977 360.48,479.977 362.482,465.392 364.484,465.392 366.487,450.807 368.489,450.807 370.491,436.222 372.494,436.222 374.496,436.222 376.498,421.637 378.501,421.637 380.503,407.053 382.505,407.053 384.508,392.468 386.51,392.468 388.512,392.468 390.515,377.883 392.517,377.883 394.519,363.298 396.522,363.298 398.524,348.713 400.527,348.713 402.529,348.713 404.531,334.128 406.534,334.128 408.536,319.543 410.538,319.543 412.541,304.959 414.543,304.959 416.545,304.959 418.548,290.374 420.55,290.374 422.552,275.789 424.555,275.789 426.557,261.204 428.559,261.204 430.562,261.204 432.564,246.619 434.566,246.619 436.569,232.034 438.571,232.034 440.573,232.034 442.576,217.449 444.578,217.449 446.581,202.865 448.583,202.865 450.585,202.865 452.588,188.28 454.59,188.28 456.592,188.28 458.595,173.695 460.597,173.695 462.599,173.695 464.602,159.11 466.604,159.11 468.606,144.525 470.609,144.525 472.611,144.525 474.613,144.525 476.616,129.94 478.618,129.94 480.62,129.94 482.623,115.355 484.625,115.355 486.627,115.355 488.63,115.355 490.632,115.355 492.635,100.771 494.637,100.771 496.639,100.771 498.642,100.771 500.644,100.771 502.646,100.771 504.649,100.771 506.651,86.1857 508.653,100.771 510.656,115.355 512.658,115.355 514.66,115.355 516.663,115.355 518.665,115.355 520.667,159.11 522.67,195.572 524.672,188.28 526.674,275.789 528.677,319.543 530.679,334.128 532.682,713.335 534.684,786.259 536.686,1238.39 538.689,1238.39 540.691,1238.39 542.693,1238.39 544.696,1238.39 546.698,1252.97 548.7,1252.97 550.703,1252.97 552.705,1252.97 554.707,1252.97 556.71,1252.97 558.712,1267.56 560.714,1267.56 562.717,1267.56 564.719,1267.56 566.721,1267.56 568.724,1267.56 570.726,1282.14 572.728,1282.14 574.731,1282.14 576.733,1282.14 578.736,1282.14 580.738,1282.14 582.74,1296.73 584.743,1296.73 586.745,1296.73 588.747,1296.73 590.75,1296.73 592.752,1296.73 594.754,1311.31 596.757,1311.31 598.759,1311.31 600.761,1311.31 602.764,1311.31 604.766,1311.31 606.768,1325.9 608.771,1325.9 610.773,1325.9 612.775,1325.9 614.778,1325.9 616.78,1325.9 618.782,1325.9 620.785,1325.9 622.787,1325.9 624.79,1340.48 626.792,1340.48 628.794,1340.48 630.797,1340.48 632.799,1340.48 634.801,1340.48 636.804,1340.48 638.806,1340.48 640.808,1340.48 642.811,1340.48 644.813,1340.48 646.815,1340.48 648.818,1340.48 650.82,1340.48 652.822,1340.48 654.825,1340.48 656.827,1340.48 658.829,1340.48 660.832,1340.48 662.834,1340.48 664.836,1340.48 666.839,1340.48 668.841,1340.48 670.844,1340.48 672.846,1340.48 674.848,1340.48 676.851,1340.48 678.853,1340.48 680.855,1340.48 682.858,1340.48 684.86,1340.48 686.862,1340.48 688.865,1340.48 690.867,1340.48 692.869,1340.48 694.872,1340.48 696.874,1340.48 698.876,1340.48 700.879,1340.48 702.881,1340.48 704.883,1340.48 706.886,1340.48 708.888,1340.48 710.89,1340.48 712.893,1340.48 714.895,1340.48 716.898,1340.48 718.9,1340.48 720.902,1340.48 722.905,1340.48 724.907,1340.48 726.909,1340.48 728.912,1340.48 730.914,1340.48 732.916,1340.48 734.919,1340.48 736.921,1340.48 738.923,1340.48 740.926,1340.48 742.928,1340.48 744.93,1340.48 746.933,1340.48 748.935,1340.48 750.937,1340.48 752.94,1340.48 754.942,1340.48 756.944,1340.48 758.947,1340.48 760.949,1340.48 762.952,1340.48 764.954,1340.48 766.956,1340.48 768.959,1340.48 770.961,1340.48 772.963,1340.48 774.966,1340.48 776.968,1340.48 778.97,1340.48 780.973,1340.48 782.975,1340.48 784.977,1340.48 786.98,1340.48 788.982,1340.48 790.984,1340.48 792.987,1340.48 794.989,1340.48 796.991,1340.48 798.994,1340.48 800.996,1340.48 802.999,1340.48 805.001,1340.48 807.003,1340.48 809.006,1340.48 811.008,1340.48 813.01,1340.48 815.013,1340.48 817.015,1340.48 819.017,1340.48 821.02,1340.48 823.022,1340.48 825.024,1340.48 827.027,1340.48 829.029,1340.48 831.031,1340.48 833.034,1340.48 835.036,1340.48 837.038,1340.48 839.041,1340.48 841.043,1340.48 843.045,1340.48 845.048,1340.48 847.05,1340.48 849.053,1340.48 851.055,1340.48 853.057,1340.48 855.06,1340.48 857.062,1340.48 859.064,1340.48 861.067,1340.48 863.069,1340.48 865.071,1340.48 867.074,1340.48 869.076,1340.48 871.078,1340.48 873.081,1340.48 875.083,1340.48 877.085,1340.48 879.088,1340.48 881.09,1340.48 883.092,1340.48 885.095,1340.48 887.097,1340.48 889.099,1340.48 891.102,1340.48 893.104,1340.48 895.107,1340.48 897.109,1340.48 899.111,1340.48 901.114,1340.48 903.116,1340.48 905.118,1340.48 907.121,1340.48 909.123,1340.48 911.125,1340.48 913.128,1340.48 915.13,1340.48 917.132,1340.48 919.135,1340.48 921.137,1340.48 923.139,1340.48 925.142,1340.48 927.144,1340.48 929.146,1340.48 931.149,1340.48 933.151,1340.48 935.153,1340.48 937.156,1340.48 939.158,1355.07 941.161,1355.07 943.163,1355.07 945.165,1355.07 947.168,1355.07 949.17,1355.07 951.172,1355.07 953.175,1355.07 955.177,1355.07 957.179,1355.07 959.182,1355.07 961.184,1355.07 963.186,1355.07 965.189,1355.07 967.191,1355.07 969.193,1355.07 971.196,1355.07 973.198,1355.07 975.2,1355.07 977.203,1355.07 979.205,1355.07 981.207,1355.07 983.21,1355.07 985.212,1355.07 987.215,1355.07 989.217,1355.07 991.219,1355.07 993.222,1355.07 995.224,1355.07 997.226,1355.07 999.229,1355.07 1001.23,1355.07 1003.23,1355.07 1005.24,1369.65 1007.24,1369.65 1009.24,1369.65 1011.24,1369.65 1013.25,1369.65 1015.25,1369.65 1017.25,1369.65 1019.25,1369.65 1021.25,1369.65 1023.26,1369.65 1025.26,1369.65 1027.26,1369.65 1029.26,1369.65 1031.27,1369.65 1033.27,1369.65 1035.27,1369.65 1037.27,1369.65 1039.28,1369.65 1041.28,1369.65 1043.28,1369.65 1045.28,1369.65 1047.28,1369.65 1049.29,1369.65 1051.29,1369.65 1053.29,1369.65 1055.29,1369.65 1057.3,1369.65 1059.3,1369.65 1061.3,1369.65 1063.3,1369.65 1065.31,1369.65 1067.31,1369.65 1069.31,1369.65 1071.31,1369.65 1073.32,1369.65 1075.32,1369.65 1077.32,1369.65 1079.32,1369.65 1081.32,1369.65 1083.33,1376.95 1085.33,1384.24 1087.33,1384.24 1089.33,1384.24 1091.34,1384.24 1093.34,1384.24 1095.34,1384.24 1097.34,1384.24 1099.35,1384.24 1101.35,1384.24 1103.35,1384.24 1105.35,1384.24 1107.36,1384.24 1109.36,1384.24 1111.36,1384.24 1113.36,1384.24 1115.36,1384.24 1117.37,1384.24 1119.37,1384.24 1121.37,1384.24 1123.37,1384.24 1125.38,1384.24 1127.38,1384.24 1129.38,1384.24 1131.38,1384.24 1133.39,1384.24 1135.39,1384.24 1137.39,1384.24 1139.39,1384.24 1141.4,1384.24 1143.4,1384.24 1145.4,1384.24 1147.4,1384.24 1149.4,1384.24 1151.41,1384.24 1153.41,1384.24 1155.41,1384.24 1157.41,1384.24 1159.42,1384.24 1161.42,1384.24 1163.42,1384.24 1165.42,1384.24 1167.43,1384.24 1169.43,1384.24 1171.43,1384.24 1173.43,1384.24 1175.44,1384.24 1177.44,1384.24 1179.44,1384.24 1181.44,1384.24 1183.44,1384.24 1185.45,1384.24 1187.45,1384.24 1189.45,1384.24 1191.45,1384.24 1193.46,1384.24 1195.46,1384.24 1197.46,1384.24 1199.46,1384.24 1201.47,1384.24 1203.47,1384.24 1205.47,1384.24 1207.47,1384.24 1209.48,1384.24 1211.48,1384.24 1213.48,1384.24 1215.48,1384.24 1217.48,1384.24 1219.49,1384.24 1221.49,1384.24 1223.49,1384.24 1225.49,1384.24 1227.5,1384.24 1229.5,1384.24 1231.5,1384.24 1233.5,1384.24 1235.51,1384.24 1237.51,1384.24 1239.51,1384.24 1241.51,1384.24 1243.52,1384.24 1245.52,1384.24 1247.52,1384.24 1249.52,1384.24 1251.52,1384.24 1253.53,1384.24 1255.53,1384.24 1257.53,1384.24 1259.53,1384.24 1261.54,1384.24 1263.54,1384.24 1265.54,1384.24 1267.54,1384.24 1269.55,1384.24 1271.55,1384.24 1273.55,1384.24 1275.55,1384.24 1277.56,1384.24 1279.56,1384.24 1281.56,1384.24 1283.56,1384.24 1285.56,1384.24 1287.57,1384.24 1289.57,1384.24 1291.57,1384.24 1293.57,1384.24 1295.58,1384.24 1297.58,1384.24 1299.58,1384.24 1301.58,1384.24 1303.59,1384.24 1305.59,1384.24 1307.59,1384.24 1309.59,1384.24 1311.59,1384.24 1313.6,1384.24 1315.6,1384.24 1317.6,1384.24 1319.6,1384.24 1321.61,1384.24 1323.61,1384.24 1325.61,1384.24 1327.61,1384.24 1329.62,1384.24 1331.62,1384.24 1333.62,1384.24 1335.62,1384.24 1337.63,1384.24 1339.63,1384.24 1341.63,1384.24 1343.63,1384.24 1345.63,1384.24 1347.64,1384.24 1349.64,1384.24 1351.64,1384.24 1353.64,1384.24 1355.65,1384.24 1357.65,1384.24 1359.65,1384.24 1361.65,1384.24 1363.66,1384.24 1365.66,1384.24 1367.66,1384.24 1369.66,1384.24 1371.67,1384.24 1373.67,1384.24 1375.67,1384.24 1377.67,1384.24 1379.67,1384.24 1381.68,1384.24 1383.68,1384.24 1385.68,1384.24 1387.68,1384.24 1389.69,1384.24 1391.69,1384.24 1393.69,1384.24 1395.69,1384.24 1397.7,1384.24 1399.7,1384.24 1401.7,1384.24 1403.7,1384.24 1405.71,1384.24 1407.71,1384.24 1409.71,1384.24 1411.71,1384.24 1413.71,1384.24 1415.72,1384.24 1417.72,1384.24 1419.72,1384.24 1421.72,1384.24 1423.73,1384.24 1425.73,1384.24 1427.73,1384.24 1429.73,1384.24 1431.74,1384.24 1433.74,1384.24 1435.74,1384.24 1437.74,1384.24 1439.75,1384.24 1441.75,1384.24 1443.75,1384.24 1445.75,1384.24 1447.75,1384.24 1449.76,1384.24 1451.76,1384.24 1453.76,1384.24 1455.76,1384.24 1457.77,1384.24 1459.77,1384.24 1461.77,1384.24 1463.77,1384.24 1465.78,1384.24 1467.78,1384.24 1469.78,1384.24 1471.78,1384.24 1473.79,1384.24 1475.79,1384.24 1477.79,1384.24 1479.79,1384.24 1481.79,1384.24 1483.8,1384.24 1485.8,1384.24 1487.8,1384.24 1489.8,1384.24 1491.81,1384.24 1493.81,1384.24 1495.81,1384.24 1497.81,1384.24 1499.82,1384.24 1501.82,1384.24 1503.82,1384.24 1505.82,1384.24 1507.83,1384.24 1509.83,1384.24 1511.83,1384.24 1513.83,1384.24 1515.83,1384.24 1517.84,1384.24 1519.84,1384.24 1521.84,1384.24 1523.84,1384.24 1525.85,1384.24 1527.85,1384.24 1529.85,1384.24 1531.85,1384.24 1533.86,1384.24 1535.86,1384.24 1537.86,1384.24 1539.86,1384.24 1541.86,1384.24 1543.87,1384.24 1545.87,1384.24 1547.87,1384.24 1549.87,1384.24 1551.88,1384.24 1553.88,1384.24 1555.88,1384.24 1557.88,1384.24 1559.89,1384.24 1561.89,1384.24 1563.89,1384.24 1565.89,1384.24 1567.9,1384.24 1569.9,1384.24 1571.9,1384.24 1573.9,1384.24 1575.9,1384.24 1577.91,1384.24 1579.91,1384.24 1581.91,1384.24 1583.91,1384.24 1585.92,1384.24 1587.92,1384.24 1589.92,1384.24 1591.92,1384.24 1593.93,1384.24 1595.93,1384.24 1597.93,1384.24 1599.93,1384.24 1601.94,1384.24 1603.94,1384.24 1605.94,1384.24 1607.94,1384.24 1609.94,1384.24 1611.95,1384.24 1613.95,1384.24 1615.95,1384.24 1617.95,1384.24 1619.96,1384.24 1621.96,1384.24 1623.96,1384.24 1625.96,1384.24 1627.97,1384.24 1629.97,1384.24 1631.97,1384.24 1633.97,1384.24 1635.98,1384.24 1637.98,1384.24 1639.98,1384.24 1641.98,1384.24 1643.98,1384.24 1645.99,1384.24 1647.99,1384.24 1649.99,1384.24 1651.99,1384.24 1654,1384.24 1656,1384.24 1658,1384.24 1660,1384.24 1662.01,1384.24 1664.01,1384.24 1666.01,1384.24 1668.01,1384.24 1670.02,1384.24 1672.02,1384.24 1674.02,1384.24 1676.02,1384.24 1678.02,1384.24 1680.03,1384.24 1682.03,1384.24 1684.03,1384.24 1686.03,1384.24 1688.04,1384.24 1690.04,1384.24 1692.04,1384.24 1694.04,1384.24 1696.05,1384.24 1698.05,1384.24 1700.05,1384.24 1702.05,1384.24 1704.06,1384.24 1706.06,1384.24 1708.06,1384.24 1710.06,1384.24 1712.06,1384.24 1714.07,1384.24 1716.07,1384.24 1718.07,1384.24 1720.07,1384.24 1722.08,1384.24 1724.08,1384.24 1726.08,1384.24 1728.08,1384.24 1730.09,1384.24 1732.09,1384.24 1734.09,1384.24 1736.09,1384.24 1738.1,1384.24 1740.1,1384.24 1742.1,1384.24 1744.1,1384.24 1746.1,1384.24 1748.11,1384.24 1750.11,1384.24 1752.11,1384.24 1754.11,1384.24 1756.12,1384.24 1758.12,1384.24 1760.12,1384.24 1762.12,1384.24 1764.13,1384.24 1766.13,1384.24 1768.13,1384.24 1770.13,1384.24 1772.14,1384.24 1774.14,1384.24 1776.14,1384.24 1778.14,1384.24 1780.14,1384.24 1782.15,1384.24 1784.15,1384.24 1786.15,1384.24 1788.15,1384.24 1790.16,1384.24 1792.16,1384.24 1794.16,1384.24 1796.16,1384.24 1798.17,1384.24 1800.17,1384.24 1802.17,1384.24 1804.17,1384.24 1806.17,1384.24 1808.18,1384.24 1810.18,1384.24 1812.18,1384.24 1814.18,1384.24 1816.19,1384.24 1818.19,1384.24 1820.19,1384.24 1822.19,1384.24 1824.2,1384.24 1826.2,1384.24 1828.2,1384.24 1830.2,1384.24 1832.21,1384.24 1834.21,1384.24 1836.21,1384.24 1838.21,1384.24 1840.21,1384.24 1842.22,1384.24 1844.22,1384.24 1846.22,1384.24 1848.22,1384.24 1850.23,1384.24 1852.23,1384.24 1854.23,1384.24 1856.23,1384.24 1858.24,1384.24 1860.24,1384.24 1862.24,1384.24 1864.24,1384.24 1866.25,1384.24 1868.25,1384.24 1870.25,1384.24 1872.25,1384.24 1874.25,1384.24 1876.26,1384.24 1878.26,1384.24 1880.26,1384.24 1882.26,1384.24 1884.27,1384.24 1886.27,1384.24 1888.27,1384.24 1890.27,1384.24 1892.28,1384.24 1894.28,1384.24 1896.28,1384.24 1898.28,1384.24 1900.29,1384.24 1902.29,1384.24 1904.29,1384.24 1906.29,1384.24 1908.29,1384.24 1910.3,1384.24 1912.3,1384.24 1914.3,1384.24 1916.3,1384.24 1918.31,1384.24 1920.31,1384.24 1922.31,1384.24 1924.31,1384.24 1926.32,1384.24 1928.32,1384.24 1930.32,1384.24 1932.32,1384.24 1934.33,1384.24 1936.33,1384.24 1938.33,1384.24 1940.33,1384.24 1942.33,1384.24 1944.34,1384.24 1946.34,1384.24 1948.34,1384.24 1950.34,1384.24 1952.35,1384.24 1954.35,1384.24 1956.35,1384.24 1958.35,1384.24 1960.36,1384.24 1962.36,1384.24 1964.36,1384.24 1966.36,1384.24 1968.37,1384.24 1970.37,1384.24 1972.37,1384.24 1974.37,1384.24 1976.37,1384.24 1978.38,1384.24 1980.38,1384.24 1982.38,1384.24 1984.38,1384.24 1986.39,1384.24 1988.39,1384.24 1990.39,1384.24 1992.39,1384.24 1994.4,1384.24 1996.4,1384.24 1998.4,1384.24 2000.4,1384.24 2002.41,1384.24 2004.41,1384.24 2006.41,1384.24 2008.41,1384.24 2010.41,1384.24 2012.42,1384.24 2014.42,1384.24 2016.42,1384.24 2018.42,1384.24 2020.43,1384.24 2022.43,1384.24 2024.43,1384.24 2026.43,1384.24 2028.44,1384.24 2030.44,1384.24 2032.44,1384.24 2034.44,1384.24 2036.44,1384.24 2038.45,1384.24 2040.45,1384.24 2042.45,1384.24 2044.45,1384.24 2046.46,1384.24 2048.46,1384.24 2050.46,1384.24 2052.46,1384.24 2054.47,1384.24 2056.47,1384.24 2058.47,1384.24 2060.47,1384.24 2062.48,1384.24 2064.48,1384.24 2066.48,1384.24 2068.48,1384.24 2070.48,1384.24 2072.49,1384.24 2074.49,1384.24 2076.49,1384.24 2078.49,1384.24 2080.5,1384.24 2082.5,1384.24 2084.5,1384.24 2086.5,1384.24 2088.51,1384.24 2090.51,1384.24 2092.51,1384.24 2094.51,1384.24 2096.52,1384.24 2098.52,1384.24 2100.52,1384.24 2102.52,1384.24 2104.52,1384.24 2106.53,1384.24 2108.53,1384.24 2110.53,1384.24 2112.53,1384.24 2114.54,1384.24 2116.54,1384.24 2118.54,1384.24 2120.54,1384.24 2122.55,1384.24 2124.55,1384.24 2126.55,1384.24 2128.55,1384.24 2130.56,1384.24 2132.56,1384.24 2134.56,1384.24 2136.56,1384.24 2138.56,1384.24 2140.57,1384.24 2142.57,1384.24 2144.57,1384.24 2146.57,1384.24 2148.58,1384.24 2150.58,1384.24 2152.58,1384.24 2154.58,1384.24 2156.59,1384.24 2158.59,1384.24 2160.59,1384.24 2162.59,1384.24 2164.6,1384.24 2166.6,1384.24 2168.6,1384.24 2170.6,1384.24 2172.6,1384.24 2174.61,1384.24 2176.61,1384.24 2178.61,1384.24 2180.61,1384.24 2182.62,1384.24 2184.62,1384.24 2186.62,1384.24 2188.62,1384.24 2190.63,1384.24 2192.63,1384.24 2194.63,1384.24 2196.63,1384.24 2198.64,1384.24 2200.64,1384.24 2202.64,1384.24 2204.64,1384.24 2206.64,1384.24 2208.65,1384.24 2210.65,1384.24 2212.65,1384.24 2214.65,1384.24 2216.66,1384.24 2218.66,1384.24 2220.66,1384.24 2222.66,1384.24 2224.67,1384.24 2226.67,1384.24 2228.67,1384.24 2230.67,1384.24 2232.68,1384.24 2234.68,1384.24 2236.68,1384.24 2238.68,1384.24 2240.68,1384.24 2242.69,1384.24 2244.69,1384.24 2246.69,1384.24 2248.69,1384.24 2250.7,1384.24 2252.7,1384.24 2254.7,1384.24 2256.7,1384.24 2258.71,1384.24 2260.71,1384.24 2262.71,1384.24 2264.71,1384.24 2266.72,1384.24 2268.72,1384.24 2270.72,1384.24 2272.72,1384.24 2274.72,1384.24 2276.73,1384.24 2278.73,1384.24 2280.73,1384.24 2282.73,1384.24 2284.74,1384.24 2286.74,1384.24 2288.74,1384.24 2290.74,1384.24 2292.75,1384.24 "/>
<polyline clip-path="url(#clip732)" style="stroke:#e26f46; stroke-linecap:round; stroke-linejoin:round; stroke-width:4; stroke-opacity:1; fill:none" points="292.4,698.75 294.402,698.805 296.404,698.699 298.407,698.318 300.409,698.89 302.411,699.323 304.414,699.537 306.416,698.977 308.419,699.68 310.421,698.759 312.423,697.918 314.426,697.525 316.428,697.189 318.43,697.08 320.433,695.764 322.435,694.599 324.437,693.466 326.44,692.707 328.442,692.372 330.444,692.642 332.447,691.775 334.449,691.743 336.451,691.087 338.454,690.728 340.456,691.856 342.458,692.623 344.461,692.951 346.463,693.041 348.465,693.536 350.468,692.728 352.47,693.613 354.473,694.544 356.475,694.929 358.477,695.286 360.48,695.964 362.482,696.61 364.484,697.568 366.487,697.727 368.489,697.991 370.491,696.575 372.494,696.823 374.496,697.141 376.498,697.003 378.501,697.395 380.503,696.895 382.505,696.734 384.508,696.276 386.51,695.168 388.512,696.406 390.515,695.249 392.517,695.207 394.519,694.606 396.522,694.904 398.524,695.43 400.527,696.257 402.529,696.174 404.531,696.262 406.534,697.09 408.536,697.191 410.538,697.631 412.541,698.436 414.543,698.003 416.545,697.265 418.548,697.023 420.55,698.417 422.552,699.688 424.555,700.213 426.557,699.491 428.559,699.68 430.562,700.621 432.564,701.232 434.566,701.546 436.569,701.953 438.571,702.524 440.573,703.911 442.576,703.534 444.578,704.137 446.581,705.115 448.583,706.626 450.585,705.772 452.588,705.545 454.59,706.736 456.592,706.723 458.595,707.911 460.597,706.945 462.599,707 464.602,706.543 466.604,706.852 468.606,706.715 470.609,707.143 472.611,705.759 474.613,705.791 476.616,706.187 478.618,707.297 480.62,708.089 482.623,706.941 484.625,706.61 486.627,707.76 488.63,708.885 490.632,709.882 492.635,708.974 494.637,709.484 496.639,709.232 498.642,709.684 500.644,709.252 502.646,709.268 504.649,707.9 506.651,707.765 508.653,707.426 510.656,706.882 512.658,707.056 514.66,706.388 516.663,706.01 518.665,704.523 520.667,705.19 522.67,705.911 524.672,705.377 526.674,705.355 528.677,705.558 530.679,704.117 532.682,704.467 534.684,704.677 536.686,704.206 538.689,704.127 540.691,703.792 542.693,704.369 544.696,704.187 546.698,703.162 548.7,703.55 550.703,704.232 552.705,704.747 554.707,704.094 556.71,702.33 558.712,703.01 560.714,702.829 562.717,703.992 564.719,704.132 566.721,702.618 568.724,702.925 570.726,703.058 572.728,701.874 574.731,701.897 576.733,703.23 578.736,702.909 580.738,701.659 582.74,702.068 584.743,703.607 586.745,703.074 588.747,701.606 590.75,701.47 592.752,701.874 594.754,702.625 596.757,702.589 598.759,702.25 600.761,702.354 602.764,702.72 604.766,702.256 606.768,701.184 608.771,700.128 610.773,699.766 612.775,700.114 614.778,701.008 616.78,700.434 618.782,699.177 620.785,701.276 622.787,703.153 624.79,704.362 626.792,704.714 628.794,703.733 630.797,703.57 632.799,703.366 634.801,704.209 636.804,704.334 638.806,703.768 640.808,703.999 642.811,704.594 644.813,704.827 646.815,706.974 648.818,707.178 650.82,707.022 652.822,707.311 654.825,706.397 656.827,706.954 658.829,707.86 660.832,708.103 662.834,706.169 664.836,706.974 666.839,707.349 668.841,707.114 670.844,707.14 672.846,707.59 674.848,707.594 676.851,707.095 678.853,706.874 680.855,708.978 682.858,708.264 684.86,708.357 686.862,708.408 688.865,708.18 690.867,708.379 692.869,708.501 694.872,707.404 696.874,708.175 698.876,707.21 700.879,706.421 702.881,705.809 704.883,705.723 706.886,705.77 708.888,705.26 710.89,705.097 712.893,705.335 714.895,705.7 716.898,705.753 718.9,706.869 720.902,706.636 722.905,706.048 724.907,705.694 726.909,705.98 728.912,705.104 730.914,704.652 732.916,704.218 734.919,703.436 736.921,704.002 738.923,704.47 740.926,705.51 742.928,705.185 744.93,705.637 746.933,704.934 748.935,705.939 750.937,706.35 752.94,705.917 754.942,704.785 756.944,705.711 758.947,705.319 760.949,706.136 762.952,705.253 764.954,705.173 766.956,705.255 768.959,706.086 770.961,707.245 772.963,706.548 774.966,706.713 776.968,706.812 778.97,707.966 780.973,707.031 782.975,707.496 784.977,707.451 786.98,707.876 788.982,707.997 790.984,707.604 792.987,708.154 794.989,708.444 796.991,708 798.994,708.619 800.996,709.373 802.999,708.072 805.001,708.24 807.003,707.053 809.006,706.439 811.008,706.432 813.01,705.53 815.013,705.268 817.015,705.856 819.017,706.168 821.02,707.155 823.022,706.578 825.024,706.06 827.027,706.115 829.029,706.405 831.031,706.036 833.034,705.627 835.036,704.676 837.038,704.905 839.041,705.083 841.043,704.611 843.045,704.671 845.048,703.808 847.05,704.065 849.053,703.696 851.055,702.749 853.057,702.578 855.06,701.559 857.062,702.689 859.064,702.424 861.067,702.505 863.069,701.859 865.071,702.164 867.074,702.065 869.076,700.992 871.078,701.608 873.081,699.927 875.083,699.682 877.085,698.601 879.088,699.109 881.09,699.416 883.092,698.76 885.095,698.197 887.097,697.56 889.099,697.99 891.102,698.446 893.104,698.694 895.107,698.789 897.109,697.913 899.111,698.581 901.114,698.775 903.116,697.819 905.118,698.072 907.121,698.156 909.123,697.914 911.125,697.37 913.128,696.718 915.13,697.564 917.132,698.355 919.135,699.256 921.137,699.237 923.139,700.395 925.142,700.738 927.144,700.946 929.146,701.234 931.149,701.272 933.151,700.86 935.153,700.714 937.156,698.826 939.158,699.294 941.161,699.462 943.163,699.816 945.165,699.966 947.168,699.278 949.17,698.328 951.172,696.157 953.175,696.161 955.177,695.84 957.179,695.462 959.182,696.654 961.184,696.596 963.186,696.723 965.189,697.361 967.191,697.455 969.193,698.11 971.196,699.135 973.198,698.785 975.2,698.855 977.203,699.693 979.205,699.467 981.207,699.313 983.21,700.751 985.212,700.103 987.215,699.556 989.217,699.816 991.219,699.944 993.222,700.134 995.224,701.232 997.226,702.495 999.229,702.174 1001.23,701.238 1003.23,701.01 1005.24,700.598 1007.24,700.237 1009.24,699.316 1011.24,699.658 1013.25,700.192 1015.25,699.011 1017.25,698.995 1019.25,699.001 1021.25,699.637 1023.26,699.71 1025.26,700.006 1027.26,699.861 1029.26,700.051 1031.27,700.087 1033.27,700.569 1035.27,701.334 1037.27,701.168 1039.28,702.412 1041.28,701.054 1043.28,702.593 1045.28,702.104 1047.28,702.548 1049.29,701.715 1051.29,701.199 1053.29,701.245 1055.29,702.085 1057.3,702.288 1059.3,704.094 1061.3,703.751 1063.3,703.793 1065.31,703.041 1067.31,702.666 1069.31,702.599 1071.31,702.89 1073.32,703.195 1075.32,704.61 1077.32,703.923 1079.32,703.067 1081.32,703.293 1083.33,703.838 1085.33,703.486 1087.33,703.919 1089.33,704.059 1091.34,703.658 1093.34,704.318 1095.34,704.597 1097.34,704.663 1099.35,703.876 1101.35,704.403 1103.35,705.568 1105.35,705.405 1107.36,704.381 1109.36,705.154 1111.36,705.854 1113.36,705.641 1115.36,705.578 1117.37,705.062 1119.37,705.546 1121.37,706.287 1123.37,707.171 1125.38,707.477 1127.38,707.703 1129.38,707.502 1131.38,708.491 1133.39,706.362 1135.39,706.08 1137.39,706.697 1139.39,706.757 1141.4,707.349 1143.4,708.379 1145.4,708.37 1147.4,707.916 1149.4,707.654 1151.41,707.571 1153.41,707.524 1155.41,707.238 1157.41,707.165 1159.42,706.817 1161.42,706.696 1163.42,706.015 1165.42,705.584 1167.43,706.283 1169.43,705.004 1171.43,704.676 1173.43,703.188 1175.44,703.521 1177.44,704.263 1179.44,705.306 1181.44,705.161 1183.44,705.188 1185.45,704.515 1187.45,703.764 1189.45,703.292 1191.45,703.663 1193.46,702.993 1195.46,703.329 1197.46,704.028 1199.46,704.027 1201.47,702.86 1203.47,702.739 1205.47,702.981 1207.47,703.236 1209.48,702.591 1211.48,702.575 1213.48,703.055 1215.48,702.552 1217.48,701.213 1219.49,701.814 1221.49,701.178 1223.49,699.752 1225.49,699.112 1227.5,699.446 1229.5,699.088 1231.5,699.257 1233.5,698.064 1235.51,697.568 1237.51,697.996 1239.51,699.393 1241.51,700.103 1243.52,699.809 1245.52,698.995 1247.52,699.705 1249.52,699.997 1251.52,699.816 1253.53,700.216 1255.53,700.07 1257.53,700.307 1259.53,701.199 1261.54,702.195 1263.54,702.326 1265.54,702.467 1267.54,702.234 1269.55,704.159 1271.55,704.667 1273.55,704.716 1275.55,704.62 1277.56,705.204 1279.56,706.827 1281.56,705.551 1283.56,703.99 1285.56,703.346 1287.57,702.873 1289.57,702.663 1291.57,702.438 1293.57,702.117 1295.58,701.547 1297.58,702.36 1299.58,701.913 1301.58,701.821 1303.59,700.623 1305.59,701.25 1307.59,701.273 1309.59,700.878 1311.59,700.98 1313.6,701.986 1315.6,701.664 1317.6,701.279 1319.6,700.458 1321.61,700.615 1323.61,700.111 1325.61,700.86 1327.61,701.633 1329.62,701.541 1331.62,701.801 1333.62,702.177 1335.62,702.896 1337.63,704.213 1339.63,705.061 1341.63,706.108 1343.63,705.963 1345.63,705.676 1347.64,706.836 1349.64,706.602 1351.64,707.388 1353.64,707.706 1355.65,707.575 1357.65,708.517 1359.65,706.806 1361.65,706.649 1363.66,706.225 1365.66,706.239 1367.66,706.22 1369.66,705.119 1371.67,705.454 1373.67,704.972 1375.67,704.47 1377.67,704.727 1379.67,703.114 1381.68,703.503 1383.68,703.398 1385.68,704.657 1387.68,705.301 1389.69,705.361 1391.69,704.26 1393.69,704.743 1395.69,704.754 1397.7,703.923 1399.7,704.327 1401.7,704.804 1403.7,705.084 1405.71,705.625 1407.71,704.827 1409.71,705.207 1411.71,704.7 1413.71,705.632 1415.72,704.817 1417.72,704.353 1419.72,703.36 1421.72,702.269 1423.73,702.831 1425.73,702.994 1427.73,703.294 1429.73,704.267 1431.74,704.474 1433.74,704.124 1435.74,704.162 1437.74,704.4 1439.75,704.493 1441.75,704.311 1443.75,704.473 1445.75,705.489 1447.75,704.816 1449.76,705.307 1451.76,706.111 1453.76,706.718 1455.76,706.55 1457.77,706.427 1459.77,706.462 1461.77,706.85 1463.77,706.78 1465.78,706.239 1467.78,705.697 1469.78,706.226 1471.78,707.167 1473.79,707.633 1475.79,708.198 1477.79,708.275 1479.79,707.19 1481.79,707.585 1483.8,706.7 1485.8,707.617 1487.8,707.2 1489.8,707.701 1491.81,706.947 1493.81,706.693 1495.81,706.101 1497.81,706.881 1499.82,706.064 1501.82,705.812 1503.82,704.798 1505.82,704.296 1507.83,704.377 1509.83,703.847 1511.83,703.391 1513.83,702.842 1515.83,702.952 1517.84,703.205 1519.84,703.281 1521.84,701.941 1523.84,700.904 1525.85,700.445 1527.85,700.735 1529.85,700.898 1531.85,700.793 1533.86,700.608 1535.86,700.496 1537.86,700.436 1539.86,700.208 1541.86,700.579 1543.87,700.153 1545.87,700.361 1547.87,701.381 1549.87,701.671 1551.88,702.885 1553.88,703.623 1555.88,702.978 1557.88,702.96 1559.89,703.733 1561.89,703.378 1563.89,704.194 1565.89,703.604 1567.9,703.035 1569.9,703.086 1571.9,702.438 1573.9,702.266 1575.9,701.983 1577.91,702.556 1579.91,701.584 1581.91,702.227 1583.91,700.85 1585.92,701.258 1587.92,701.203 1589.92,701.667 1591.92,701.862 1593.93,702.065 1595.93,702.698 1597.93,704.193 1599.93,704.574 1601.94,704.655 1603.94,704.546 1605.94,704.867 1607.94,704.562 1609.94,704.753 1611.95,704.75 1613.95,705.366 1615.95,705.568 1617.95,705.176 1619.96,704.795 1621.96,705.418 1623.96,705.271 1625.96,705.192 1627.97,705.732 1629.97,705.145 1631.97,705.574 1633.97,706.392 1635.98,706.827 1637.98,706.865 1639.98,706.98 1641.98,706.769 1643.98,707.46 1645.99,707.402 1647.99,707.692 1649.99,707.441 1651.99,707.803 1654,707.281 1656,706.944 1658,707.11 1660,707.05 1662.01,707.498 1664.01,707.317 1666.01,708.522 1668.01,708.529 1670.02,709.273 1672.02,709.573 1674.02,709.503 1676.02,709.093 1678.02,708.188 1680.03,708.691 1682.03,707.327 1684.03,706.548 1686.03,706.022 1688.04,706.578 1690.04,706.858 1692.04,707.097 1694.04,707.655 1696.05,708.538 1698.05,708.348 1700.05,708.172 1702.05,708.424 1704.06,708.598 1706.06,708.901 1708.06,708.243 1710.06,707.508 1712.06,707.441 1714.07,707.158 1716.07,707.122 1718.07,706.468 1720.07,705.265 1722.08,704.582 1724.08,704.601 1726.08,704.514 1728.08,705.104 1730.09,705.01 1732.09,704.591 1734.09,704.558 1736.09,704.072 1738.1,703.808 1740.1,704.873 1742.1,704.609 1744.1,704.343 1746.1,704.463 1748.11,703.785 1750.11,703.168 1752.11,703.987 1754.11,703.983 1756.12,703.901 1758.12,703.806 1760.12,703.729 1762.12,703.847 1764.13,704.533 1766.13,703.771 1768.13,703.08 1770.13,703.475 1772.14,703.275 1774.14,703.445 1776.14,702.158 1778.14,701.996 1780.14,702.045 1782.15,702.138 1784.15,702.806 1786.15,703.265 1788.15,703.623 1790.16,704.867 1792.16,704.33 1794.16,704.493 1796.16,704.05 1798.17,704.081 1800.17,704.412 1802.17,704.457 1804.17,704.927 1806.17,703.925 1808.18,703.421 1810.18,703.226 1812.18,703.545 1814.18,703.449 1816.19,702.664 1818.19,702.977 1820.19,703.612 1822.19,702.812 1824.2,703.168 1826.2,703.497 1828.2,703.397 1830.2,703.627 1832.21,704.19 1834.21,704.078 1836.21,704.563 1838.21,705.363 1840.21,704.159 1842.22,704.528 1844.22,703.793 1846.22,703.919 1848.22,704.511 1850.23,704.986 1852.23,705.145 1854.23,705.667 1856.23,704.906 1858.24,706.179 1860.24,704.947 1862.24,704.415 1864.24,703.757 1866.25,703.653 1868.25,703.275 1870.25,703.736 1872.25,704.056 1874.25,704.34 1876.26,705.759 1878.26,706.235 1880.26,706.99 1882.26,707.218 1884.27,708.602 1886.27,708.557 1888.27,708.701 1890.27,707.45 1892.28,707.814 1894.28,708.323 1896.28,708.348 1898.28,708.5 1900.29,707.773 1902.29,707.397 1904.29,707.264 1906.29,707.327 1908.29,707.129 1910.3,706.481 1912.3,706.367 1914.3,706.007 1916.3,706.933 1918.31,706.776 1920.31,707.488 1922.31,707.636 1924.31,706.742 1926.32,705.943 1928.32,706.041 1930.32,705.183 1932.32,704.6 1934.33,704.908 1936.33,704.4 1938.33,704.289 1940.33,703.346 1942.33,702.332 1944.34,701.947 1946.34,701.323 1948.34,701.563 1950.34,701.015 1952.35,701.168 1954.35,700.394 1956.35,700.713 1958.35,700.29 1960.36,700.442 1962.36,700.03 1964.36,698.985 1966.36,699.298 1968.37,699.93 1970.37,699.583 1972.37,698.368 1974.37,698.766 1976.37,699.943 1978.38,700.449 1980.38,700.353 1982.38,700.65 1984.38,700.526 1986.39,702.113 1988.39,701.629 1990.39,701.191 1992.39,700.197 1994.4,699.696 1996.4,699.575 1998.4,699.734 2000.4,698.476 2002.41,698.344 2004.41,698.435 2006.41,697.789 2008.41,697.611 2010.41,697.151 2012.42,697.154 2014.42,696.199 2016.42,696.113 2018.42,695.888 2020.43,695.982 2022.43,695.363 2024.43,695.306 2026.43,696.425 2028.44,696.858 2030.44,697.755 2032.44,697.937 2034.44,697.541 2036.44,697.977 2038.45,698.25 2040.45,698.689 2042.45,697.503 2044.45,696.892 2046.46,696.017 2048.46,695.767 2050.46,696.321 2052.46,695.629 2054.47,696.345 2056.47,696.585 2058.47,696.653 2060.47,695.511 2062.48,694.835 2064.48,694.913 2066.48,694.574 2068.48,693.555 2070.48,693.674 2072.49,694.29 2074.49,694.004 2076.49,693.597 2078.49,694.109 2080.5,693.623 2082.5,693.326 2084.5,693.072 2086.5,694.255 2088.51,692.624 2090.51,693.238 2092.51,693.928 2094.51,692.579 2096.52,692.71 2098.52,692.136 2100.52,691.866 2102.52,692.198 2104.52,692.372 2106.53,692.537 2108.53,691.994 2110.53,691.813 2112.53,691.242 2114.54,691.259 2116.54,691.405 2118.54,691.126 2120.54,691.796 2122.55,691.43 2124.55,690.997 2126.55,690.737 2128.55,690.471 2130.56,690.49 2132.56,689.24 2134.56,688.209 2136.56,688.457 2138.56,688.313 2140.57,688.955 2142.57,688.656 2144.57,688.546 2146.57,688.75 2148.58,688.758 2150.58,689.197 2152.58,688.513 2154.58,688.192 2156.59,688.311 2158.59,687.986 2160.59,687.521 2162.59,687.641 2164.6,687.983 2166.6,688.132 2168.6,688.909 2170.6,688.322 2172.6,688.463 2174.61,687.218 2176.61,687.81 2178.61,688.272 2180.61,687.49 2182.62,688.007 2184.62,688.163 2186.62,686.538 2188.62,686.752 2190.63,687.674 2192.63,687.143 2194.63,687.028 2196.63,685.791 2198.64,685.023 2200.64,685.075 2202.64,684.553 2204.64,685.682 2206.64,685.136 2208.65,684.802 2210.65,685.588 2212.65,685.24 2214.65,685.691 2216.66,686.7 2218.66,687.568 2220.66,687.476 2222.66,687.951 2224.67,687.223 2226.67,686.617 2228.67,686.039 2230.67,685.771 2232.68,685.507 2234.68,684.274 2236.68,684.502 2238.68,683.649 2240.68,683.252 2242.69,683.23 2244.69,683.917 2246.69,684.295 2248.69,685.062 2250.7,685.437 2252.7,684.84 2254.7,685.047 2256.7,685.196 2258.71,685.831 2260.71,685.784 2262.71,686.287 2264.71,685.699 2266.72,686.109 2268.72,684.706 2270.72,684.021 2272.72,682.813 2274.72,682.73 2276.73,682.062 2278.73,681.457 2280.73,682.024 2282.73,680.809 2284.74,680.385 2286.74,680.748 2288.74,680.558 2290.74,681.26 2292.75,680.965 "/>
<path clip-path="url(#clip730)" d="M1906.29 248.629 L2282.08 248.629 L2282.08 93.1086 L1906.29 93.1086  Z" fill="#ffffff" fill-rule="evenodd" fill-opacity="1"/>
<polyline clip-path="url(#clip730)" style="stroke:#000000; stroke-linecap:round; stroke-linejoin:round; stroke-width:4; stroke-opacity:1; fill:none" points="1906.29,248.629 2282.08,248.629 2282.08,93.1086 1906.29,93.1086 1906.29,248.629 "/>
<polyline clip-path="url(#clip730)" style="stroke:#009af9; stroke-linecap:round; stroke-linejoin:round; stroke-width:4; stroke-opacity:1; fill:none" points="1929.85,144.949 2071.21,144.949 "/>
<path clip-path="url(#clip730)" d="M2094.77 127.669 L2101.74 127.669 L2110.56 151.187 L2119.42 127.669 L2126.39 127.669 L2126.39 162.229 L2121.83 162.229 L2121.83 131.882 L2112.92 155.585 L2108.22 155.585 L2099.31 131.882 L2099.31 162.229 L2094.77 162.229 L2094.77 127.669 Z" fill="#000000" fill-rule="nonzero" fill-opacity="1" /><path clip-path="url(#clip730)" d="M2157.66 148.201 L2157.66 150.284 L2138.08 150.284 Q2138.36 154.682 2140.72 156.997 Q2143.1 159.289 2147.34 159.289 Q2149.79 159.289 2152.08 158.687 Q2154.4 158.085 2156.67 156.881 L2156.67 160.909 Q2154.37 161.881 2151.97 162.391 Q2149.56 162.9 2147.08 162.9 Q2140.88 162.9 2137.24 159.289 Q2133.63 155.678 2133.63 149.52 Q2133.63 143.155 2137.06 139.428 Q2140.51 135.678 2146.34 135.678 Q2151.57 135.678 2154.61 139.057 Q2157.66 142.414 2157.66 148.201 M2153.4 146.951 Q2153.36 143.456 2151.43 141.372 Q2149.54 139.289 2146.39 139.289 Q2142.82 139.289 2140.67 141.303 Q2138.54 143.317 2138.22 146.974 L2153.4 146.951 Z" fill="#000000" fill-rule="nonzero" fill-opacity="1" /><path clip-path="url(#clip730)" d="M2181.71 140.238 L2181.71 126.21 L2185.97 126.21 L2185.97 162.229 L2181.71 162.229 L2181.71 158.34 Q2180.37 160.655 2178.31 161.789 Q2176.27 162.9 2173.4 162.9 Q2168.7 162.9 2165.74 159.15 Q2162.8 155.4 2162.8 149.289 Q2162.8 143.178 2165.74 139.428 Q2168.7 135.678 2173.4 135.678 Q2176.27 135.678 2178.31 136.812 Q2180.37 137.923 2181.71 140.238 M2167.2 149.289 Q2167.2 153.988 2169.12 156.673 Q2171.06 159.335 2174.44 159.335 Q2177.82 159.335 2179.77 156.673 Q2181.71 153.988 2181.71 149.289 Q2181.71 144.59 2179.77 141.928 Q2177.82 139.243 2174.44 139.243 Q2171.06 139.243 2169.12 141.928 Q2167.2 144.59 2167.2 149.289 Z" fill="#000000" fill-rule="nonzero" fill-opacity="1" /><path clip-path="url(#clip730)" d="M2194.74 136.303 L2199 136.303 L2199 162.229 L2194.74 162.229 L2194.74 136.303 M2194.74 126.21 L2199 126.21 L2199 131.604 L2194.74 131.604 L2194.74 126.21 Z" fill="#000000" fill-rule="nonzero" fill-opacity="1" /><path clip-path="url(#clip730)" d="M2219.7 149.196 Q2214.54 149.196 2212.55 150.377 Q2210.55 151.557 2210.55 154.405 Q2210.55 156.673 2212.04 158.016 Q2213.54 159.335 2216.11 159.335 Q2219.65 159.335 2221.78 156.835 Q2223.93 154.312 2223.93 150.145 L2223.93 149.196 L2219.7 149.196 M2228.19 147.437 L2228.19 162.229 L2223.93 162.229 L2223.93 158.293 Q2222.48 160.655 2220.3 161.789 Q2218.12 162.9 2214.98 162.9 Q2210.99 162.9 2208.63 160.678 Q2206.3 158.432 2206.3 154.682 Q2206.3 150.307 2209.21 148.085 Q2212.15 145.863 2217.96 145.863 L2223.93 145.863 L2223.93 145.446 Q2223.93 142.507 2221.99 140.909 Q2220.07 139.289 2216.57 139.289 Q2214.35 139.289 2212.24 139.821 Q2210.14 140.354 2208.19 141.419 L2208.19 137.483 Q2210.53 136.581 2212.73 136.141 Q2214.93 135.678 2217.01 135.678 Q2222.64 135.678 2225.42 138.594 Q2228.19 141.511 2228.19 147.437 Z" fill="#000000" fill-rule="nonzero" fill-opacity="1" /><path clip-path="url(#clip730)" d="M2258.52 146.581 L2258.52 162.229 L2254.26 162.229 L2254.26 146.719 Q2254.26 143.039 2252.82 141.21 Q2251.39 139.382 2248.52 139.382 Q2245.07 139.382 2243.08 141.581 Q2241.09 143.78 2241.09 147.576 L2241.09 162.229 L2236.8 162.229 L2236.8 136.303 L2241.09 136.303 L2241.09 140.331 Q2242.61 137.993 2244.67 136.835 Q2246.76 135.678 2249.47 135.678 Q2253.93 135.678 2256.23 138.456 Q2258.52 141.21 2258.52 146.581 Z" fill="#000000" fill-rule="nonzero" fill-opacity="1" /><polyline clip-path="url(#clip730)" style="stroke:#e26f46; stroke-linecap:round; stroke-linejoin:round; stroke-width:4; stroke-opacity:1; fill:none" points="1929.85,196.789 2071.21,196.789 "/>
<path clip-path="url(#clip730)" d="M2094.77 179.509 L2101.74 179.509 L2110.56 203.027 L2119.42 179.509 L2126.39 179.509 L2126.39 214.069 L2121.83 214.069 L2121.83 183.722 L2112.92 207.425 L2108.22 207.425 L2099.31 183.722 L2099.31 214.069 L2094.77 214.069 L2094.77 179.509 Z" fill="#000000" fill-rule="nonzero" fill-opacity="1" /><path clip-path="url(#clip730)" d="M2157.66 200.041 L2157.66 202.124 L2138.08 202.124 Q2138.36 206.522 2140.72 208.837 Q2143.1 211.129 2147.34 211.129 Q2149.79 211.129 2152.08 210.527 Q2154.4 209.925 2156.67 208.721 L2156.67 212.749 Q2154.37 213.721 2151.97 214.231 Q2149.56 214.74 2147.08 214.74 Q2140.88 214.74 2137.24 211.129 Q2133.63 207.518 2133.63 201.36 Q2133.63 194.995 2137.06 191.268 Q2140.51 187.518 2146.34 187.518 Q2151.57 187.518 2154.61 190.897 Q2157.66 194.254 2157.66 200.041 M2153.4 198.791 Q2153.36 195.296 2151.43 193.212 Q2149.54 191.129 2146.39 191.129 Q2142.82 191.129 2140.67 193.143 Q2138.54 195.157 2138.22 198.814 L2153.4 198.791 Z" fill="#000000" fill-rule="nonzero" fill-opacity="1" /><path clip-path="url(#clip730)" d="M2176.43 201.036 Q2171.27 201.036 2169.28 202.217 Q2167.29 203.397 2167.29 206.245 Q2167.29 208.513 2168.77 209.856 Q2170.28 211.175 2172.85 211.175 Q2176.39 211.175 2178.52 208.675 Q2180.67 206.152 2180.67 201.985 L2180.67 201.036 L2176.43 201.036 M2184.93 199.277 L2184.93 214.069 L2180.67 214.069 L2180.67 210.133 Q2179.21 212.495 2177.04 213.629 Q2174.86 214.74 2171.71 214.74 Q2167.73 214.74 2165.37 212.518 Q2163.03 210.272 2163.03 206.522 Q2163.03 202.147 2165.95 199.925 Q2168.89 197.703 2174.7 197.703 L2180.67 197.703 L2180.67 197.286 Q2180.67 194.347 2178.73 192.749 Q2176.8 191.129 2173.31 191.129 Q2171.09 191.129 2168.98 191.661 Q2166.87 192.194 2164.93 193.259 L2164.93 189.323 Q2167.27 188.421 2169.47 187.981 Q2171.67 187.518 2173.75 187.518 Q2179.37 187.518 2182.15 190.434 Q2184.93 193.351 2184.93 199.277 Z" fill="#000000" fill-rule="nonzero" fill-opacity="1" /><path clip-path="url(#clip730)" d="M2215.25 198.421 L2215.25 214.069 L2210.99 214.069 L2210.99 198.559 Q2210.99 194.879 2209.56 193.05 Q2208.12 191.222 2205.25 191.222 Q2201.8 191.222 2199.81 193.421 Q2197.82 195.62 2197.82 199.416 L2197.82 214.069 L2193.54 214.069 L2193.54 188.143 L2197.82 188.143 L2197.82 192.171 Q2199.35 189.833 2201.41 188.675 Q2203.49 187.518 2206.2 187.518 Q2210.67 187.518 2212.96 190.296 Q2215.25 193.05 2215.25 198.421 Z" fill="#000000" fill-rule="nonzero" fill-opacity="1" /></svg>
