<?xml version="1.0" encoding="utf-8"?>
<svg xmlns="http://www.w3.org/2000/svg" xmlns:xlink="http://www.w3.org/1999/xlink" width="600" height="400" viewBox="0 0 2400 1600">
<defs>
  <clipPath id="clip800">
    <rect x="0" y="0" width="2400" height="1600"/>
  </clipPath>
</defs>
<path clip-path="url(#clip800)" d="M0 1600 L2400 1600 L2400 0 L0 0  Z" fill="#ffffff" fill-rule="evenodd" fill-opacity="1"/>
<defs>
  <clipPath id="clip801">
    <rect x="480" y="0" width="1681" height="1600"/>
  </clipPath>
</defs>
<path clip-path="url(#clip800)" d="M219.542 1423.18 L2352.76 1423.18 L2352.76 47.2441 L219.542 47.2441  Z" fill="#ffffff" fill-rule="evenodd" fill-opacity="1"/>
<defs>
  <clipPath id="clip802">
    <rect x="219" y="47" width="2134" height="1377"/>
  </clipPath>
</defs>
<polyline clip-path="url(#clip802)" style="stroke:#000000; stroke-linecap:round; stroke-linejoin:round; stroke-width:2; stroke-opacity:0.1; fill:none" points="269.803,1423.18 269.803,47.2441 "/>
<polyline clip-path="url(#clip802)" style="stroke:#000000; stroke-linecap:round; stroke-linejoin:round; stroke-width:2; stroke-opacity:0.1; fill:none" points="775.448,1423.18 775.448,47.2441 "/>
<polyline clip-path="url(#clip802)" style="stroke:#000000; stroke-linecap:round; stroke-linejoin:round; stroke-width:2; stroke-opacity:0.1; fill:none" points="1281.09,1423.18 1281.09,47.2441 "/>
<polyline clip-path="url(#clip802)" style="stroke:#000000; stroke-linecap:round; stroke-linejoin:round; stroke-width:2; stroke-opacity:0.1; fill:none" points="1786.74,1423.18 1786.74,47.2441 "/>
<polyline clip-path="url(#clip802)" style="stroke:#000000; stroke-linecap:round; stroke-linejoin:round; stroke-width:2; stroke-opacity:0.1; fill:none" points="2292.38,1423.18 2292.38,47.2441 "/>
<polyline clip-path="url(#clip800)" style="stroke:#000000; stroke-linecap:round; stroke-linejoin:round; stroke-width:4; stroke-opacity:1; fill:none" points="219.542,1423.18 2352.76,1423.18 "/>
<polyline clip-path="url(#clip800)" style="stroke:#000000; stroke-linecap:round; stroke-linejoin:round; stroke-width:4; stroke-opacity:1; fill:none" points="269.803,1423.18 269.803,1404.28 "/>
<polyline clip-path="url(#clip800)" style="stroke:#000000; stroke-linecap:round; stroke-linejoin:round; stroke-width:4; stroke-opacity:1; fill:none" points="775.448,1423.18 775.448,1404.28 "/>
<polyline clip-path="url(#clip800)" style="stroke:#000000; stroke-linecap:round; stroke-linejoin:round; stroke-width:4; stroke-opacity:1; fill:none" points="1281.09,1423.18 1281.09,1404.28 "/>
<polyline clip-path="url(#clip800)" style="stroke:#000000; stroke-linecap:round; stroke-linejoin:round; stroke-width:4; stroke-opacity:1; fill:none" points="1786.74,1423.18 1786.74,1404.28 "/>
<polyline clip-path="url(#clip800)" style="stroke:#000000; stroke-linecap:round; stroke-linejoin:round; stroke-width:4; stroke-opacity:1; fill:none" points="2292.38,1423.18 2292.38,1404.28 "/>
<path clip-path="url(#clip800)" d="M269.803 1454.1 Q266.192 1454.1 264.363 1457.66 Q262.558 1461.2 262.558 1468.33 Q262.558 1475.44 264.363 1479.01 Q266.192 1482.55 269.803 1482.55 Q273.438 1482.55 275.243 1479.01 Q277.072 1475.44 277.072 1468.33 Q277.072 1461.2 275.243 1457.66 Q273.438 1454.1 269.803 1454.1 M269.803 1450.39 Q275.613 1450.39 278.669 1455 Q281.748 1459.58 281.748 1468.33 Q281.748 1477.06 278.669 1481.67 Q275.613 1486.25 269.803 1486.25 Q263.993 1486.25 260.914 1481.67 Q257.859 1477.06 257.859 1468.33 Q257.859 1459.58 260.914 1455 Q263.993 1450.39 269.803 1450.39 Z" fill="#000000" fill-rule="nonzero" fill-opacity="1" /><path clip-path="url(#clip800)" d="M750.147 1451.02 L768.504 1451.02 L768.504 1454.96 L754.43 1454.96 L754.43 1463.43 Q755.448 1463.08 756.467 1462.92 Q757.485 1462.73 758.504 1462.73 Q764.291 1462.73 767.67 1465.9 Q771.05 1469.08 771.05 1474.49 Q771.05 1480.07 767.578 1483.17 Q764.105 1486.25 757.786 1486.25 Q755.61 1486.25 753.342 1485.88 Q751.096 1485.51 748.689 1484.77 L748.689 1480.07 Q750.772 1481.2 752.994 1481.76 Q755.217 1482.32 757.693 1482.32 Q761.698 1482.32 764.036 1480.21 Q766.374 1478.1 766.374 1474.49 Q766.374 1470.88 764.036 1468.77 Q761.698 1466.67 757.693 1466.67 Q755.818 1466.67 753.943 1467.08 Q752.092 1467.5 750.147 1468.38 L750.147 1451.02 Z" fill="#000000" fill-rule="nonzero" fill-opacity="1" /><path clip-path="url(#clip800)" d="M790.263 1454.1 Q786.652 1454.1 784.823 1457.66 Q783.017 1461.2 783.017 1468.33 Q783.017 1475.44 784.823 1479.01 Q786.652 1482.55 790.263 1482.55 Q793.897 1482.55 795.702 1479.01 Q797.531 1475.44 797.531 1468.33 Q797.531 1461.2 795.702 1457.66 Q793.897 1454.1 790.263 1454.1 M790.263 1450.39 Q796.073 1450.39 799.128 1455 Q802.207 1459.58 802.207 1468.33 Q802.207 1477.06 799.128 1481.67 Q796.073 1486.25 790.263 1486.25 Q784.453 1486.25 781.374 1481.67 Q778.318 1477.06 778.318 1468.33 Q778.318 1459.58 781.374 1455 Q784.453 1450.39 790.263 1450.39 Z" fill="#000000" fill-rule="nonzero" fill-opacity="1" /><path clip-path="url(#clip800)" d="M1240.7 1481.64 L1248.34 1481.64 L1248.34 1455.28 L1240.03 1456.95 L1240.03 1452.69 L1248.29 1451.02 L1252.97 1451.02 L1252.97 1481.64 L1260.61 1481.64 L1260.61 1485.58 L1240.7 1485.58 L1240.7 1481.64 Z" fill="#000000" fill-rule="nonzero" fill-opacity="1" /><path clip-path="url(#clip800)" d="M1280.05 1454.1 Q1276.44 1454.1 1274.61 1457.66 Q1272.81 1461.2 1272.81 1468.33 Q1272.81 1475.44 1274.61 1479.01 Q1276.44 1482.55 1280.05 1482.55 Q1283.69 1482.55 1285.49 1479.01 Q1287.32 1475.44 1287.32 1468.33 Q1287.32 1461.2 1285.49 1457.66 Q1283.69 1454.1 1280.05 1454.1 M1280.05 1450.39 Q1285.86 1450.39 1288.92 1455 Q1292 1459.58 1292 1468.33 Q1292 1477.06 1288.92 1481.67 Q1285.86 1486.25 1280.05 1486.25 Q1274.24 1486.25 1271.16 1481.67 Q1268.11 1477.06 1268.11 1468.33 Q1268.11 1459.58 1271.16 1455 Q1274.24 1450.39 1280.05 1450.39 Z" fill="#000000" fill-rule="nonzero" fill-opacity="1" /><path clip-path="url(#clip800)" d="M1310.21 1454.1 Q1306.6 1454.1 1304.77 1457.66 Q1302.97 1461.2 1302.97 1468.33 Q1302.97 1475.44 1304.77 1479.01 Q1306.6 1482.55 1310.21 1482.55 Q1313.85 1482.55 1315.65 1479.01 Q1317.48 1475.44 1317.48 1468.33 Q1317.48 1461.2 1315.65 1457.66 Q1313.85 1454.1 1310.21 1454.1 M1310.21 1450.39 Q1316.02 1450.39 1319.08 1455 Q1322.16 1459.58 1322.16 1468.33 Q1322.16 1477.06 1319.08 1481.67 Q1316.02 1486.25 1310.21 1486.25 Q1304.4 1486.25 1301.32 1481.67 Q1298.27 1477.06 1298.27 1468.33 Q1298.27 1459.58 1301.32 1455 Q1304.4 1450.39 1310.21 1450.39 Z" fill="#000000" fill-rule="nonzero" fill-opacity="1" /><path clip-path="url(#clip800)" d="M1746.34 1481.64 L1753.98 1481.64 L1753.98 1455.28 L1745.67 1456.95 L1745.67 1452.69 L1753.94 1451.02 L1758.61 1451.02 L1758.61 1481.64 L1766.25 1481.64 L1766.25 1485.58 L1746.34 1485.58 L1746.34 1481.64 Z" fill="#000000" fill-rule="nonzero" fill-opacity="1" /><path clip-path="url(#clip800)" d="M1775.74 1451.02 L1794.1 1451.02 L1794.1 1454.96 L1780.02 1454.96 L1780.02 1463.43 Q1781.04 1463.08 1782.06 1462.92 Q1783.08 1462.73 1784.1 1462.73 Q1789.89 1462.73 1793.27 1465.9 Q1796.64 1469.08 1796.64 1474.49 Q1796.64 1480.07 1793.17 1483.17 Q1789.7 1486.25 1783.38 1486.25 Q1781.2 1486.25 1778.94 1485.88 Q1776.69 1485.51 1774.28 1484.77 L1774.28 1480.07 Q1776.37 1481.2 1778.59 1481.76 Q1780.81 1482.32 1783.29 1482.32 Q1787.29 1482.32 1789.63 1480.21 Q1791.97 1478.1 1791.97 1474.49 Q1791.97 1470.88 1789.63 1468.77 Q1787.29 1466.67 1783.29 1466.67 Q1781.41 1466.67 1779.54 1467.08 Q1777.69 1467.5 1775.74 1468.38 L1775.74 1451.02 Z" fill="#000000" fill-rule="nonzero" fill-opacity="1" /><path clip-path="url(#clip800)" d="M1815.86 1454.1 Q1812.25 1454.1 1810.42 1457.66 Q1808.61 1461.2 1808.61 1468.33 Q1808.61 1475.44 1810.42 1479.01 Q1812.25 1482.55 1815.86 1482.55 Q1819.49 1482.55 1821.3 1479.01 Q1823.13 1475.44 1823.13 1468.33 Q1823.13 1461.2 1821.3 1457.66 Q1819.49 1454.1 1815.86 1454.1 M1815.86 1450.39 Q1821.67 1450.39 1824.72 1455 Q1827.8 1459.58 1827.8 1468.33 Q1827.8 1477.06 1824.72 1481.67 Q1821.67 1486.25 1815.86 1486.25 Q1810.05 1486.25 1806.97 1481.67 Q1803.91 1477.06 1803.91 1468.33 Q1803.91 1459.58 1806.97 1455 Q1810.05 1450.39 1815.86 1450.39 Z" fill="#000000" fill-rule="nonzero" fill-opacity="1" /><path clip-path="url(#clip800)" d="M2256.07 1481.64 L2272.39 1481.64 L2272.39 1485.58 L2250.45 1485.58 L2250.45 1481.64 Q2253.11 1478.89 2257.69 1474.26 Q2262.3 1469.61 2263.48 1468.27 Q2265.73 1465.74 2266.61 1464.01 Q2267.51 1462.25 2267.51 1460.56 Q2267.51 1457.8 2265.56 1456.07 Q2263.64 1454.33 2260.54 1454.33 Q2258.34 1454.33 2255.89 1455.09 Q2253.46 1455.86 2250.68 1457.41 L2250.68 1452.69 Q2253.5 1451.55 2255.96 1450.97 Q2258.41 1450.39 2260.45 1450.39 Q2265.82 1450.39 2269.01 1453.08 Q2272.21 1455.77 2272.21 1460.26 Q2272.21 1462.39 2271.4 1464.31 Q2270.61 1466.2 2268.5 1468.8 Q2267.93 1469.47 2264.82 1472.69 Q2261.72 1475.88 2256.07 1481.64 Z" fill="#000000" fill-rule="nonzero" fill-opacity="1" /><path clip-path="url(#clip800)" d="M2292.21 1454.1 Q2288.6 1454.1 2286.77 1457.66 Q2284.96 1461.2 2284.96 1468.33 Q2284.96 1475.44 2286.77 1479.01 Q2288.6 1482.55 2292.21 1482.55 Q2295.84 1482.55 2297.65 1479.01 Q2299.48 1475.44 2299.48 1468.33 Q2299.48 1461.2 2297.65 1457.66 Q2295.84 1454.1 2292.21 1454.1 M2292.21 1450.39 Q2298.02 1450.39 2301.07 1455 Q2304.15 1459.58 2304.15 1468.33 Q2304.15 1477.06 2301.07 1481.67 Q2298.02 1486.25 2292.21 1486.25 Q2286.4 1486.25 2283.32 1481.67 Q2280.26 1477.06 2280.26 1468.33 Q2280.26 1459.58 2283.32 1455 Q2286.4 1450.39 2292.21 1450.39 Z" fill="#000000" fill-rule="nonzero" fill-opacity="1" /><path clip-path="url(#clip800)" d="M2322.37 1454.1 Q2318.76 1454.1 2316.93 1457.66 Q2315.12 1461.2 2315.12 1468.33 Q2315.12 1475.44 2316.93 1479.01 Q2318.76 1482.55 2322.37 1482.55 Q2326 1482.55 2327.81 1479.01 Q2329.64 1475.44 2329.64 1468.33 Q2329.64 1461.2 2327.81 1457.66 Q2326 1454.1 2322.37 1454.1 M2322.37 1450.39 Q2328.18 1450.39 2331.24 1455 Q2334.31 1459.58 2334.31 1468.33 Q2334.31 1477.06 2331.24 1481.67 Q2328.18 1486.25 2322.37 1486.25 Q2316.56 1486.25 2313.48 1481.67 Q2310.43 1477.06 2310.43 1468.33 Q2310.43 1459.58 2313.48 1455 Q2316.56 1450.39 2322.37 1450.39 Z" fill="#000000" fill-rule="nonzero" fill-opacity="1" /><path clip-path="url(#clip800)" d="M1211.72 1545.76 Q1213.79 1546.46 1215.73 1548.76 Q1217.7 1551.05 1219.68 1555.06 L1226.2 1568.04 L1219.29 1568.04 L1213.21 1555.85 Q1210.86 1551.08 1208.63 1549.52 Q1206.43 1547.96 1202.62 1547.96 L1195.61 1547.96 L1195.61 1568.04 L1189.18 1568.04 L1189.18 1520.52 L1203.7 1520.52 Q1211.85 1520.52 1215.86 1523.93 Q1219.87 1527.34 1219.87 1534.21 Q1219.87 1538.7 1217.77 1541.66 Q1215.7 1544.62 1211.72 1545.76 M1195.61 1525.81 L1195.61 1542.68 L1203.7 1542.68 Q1208.34 1542.68 1210.7 1540.54 Q1213.09 1538.38 1213.09 1534.21 Q1213.09 1530.04 1210.7 1527.94 Q1208.34 1525.81 1203.7 1525.81 L1195.61 1525.81 Z" fill="#000000" fill-rule="nonzero" fill-opacity="1" /><path clip-path="url(#clip800)" d="M1245.11 1536.5 Q1240.4 1536.5 1237.66 1540.19 Q1234.92 1543.85 1234.92 1550.25 Q1234.92 1556.65 1237.63 1560.34 Q1240.36 1564 1245.11 1564 Q1249.78 1564 1252.52 1560.31 Q1255.26 1556.62 1255.26 1550.25 Q1255.26 1543.92 1252.52 1540.23 Q1249.78 1536.5 1245.11 1536.5 M1245.11 1531.54 Q1252.75 1531.54 1257.11 1536.5 Q1261.47 1541.47 1261.47 1550.25 Q1261.47 1559 1257.11 1564 Q1252.75 1568.97 1245.11 1568.97 Q1237.44 1568.97 1233.07 1564 Q1228.75 1559 1228.75 1550.25 Q1228.75 1541.47 1233.07 1536.5 Q1237.44 1531.54 1245.11 1531.54 Z" fill="#000000" fill-rule="nonzero" fill-opacity="1" /><path clip-path="url(#clip800)" d="M1270.57 1553.98 L1270.57 1532.4 L1276.43 1532.4 L1276.43 1553.75 Q1276.43 1558.81 1278.4 1561.36 Q1280.37 1563.87 1284.32 1563.87 Q1289.06 1563.87 1291.8 1560.85 Q1294.57 1557.83 1294.57 1552.61 L1294.57 1532.4 L1300.42 1532.4 L1300.42 1568.04 L1294.57 1568.04 L1294.57 1562.57 Q1292.44 1565.82 1289.6 1567.41 Q1286.8 1568.97 1283.08 1568.97 Q1276.93 1568.97 1273.75 1565.15 Q1270.57 1561.33 1270.57 1553.98 M1285.31 1531.54 L1285.31 1531.54 Z" fill="#000000" fill-rule="nonzero" fill-opacity="1" /><path clip-path="url(#clip800)" d="M1342.12 1546.53 L1342.12 1568.04 L1336.26 1568.04 L1336.26 1546.72 Q1336.26 1541.66 1334.29 1539.14 Q1332.32 1536.63 1328.37 1536.63 Q1323.63 1536.63 1320.89 1539.65 Q1318.15 1542.68 1318.15 1547.9 L1318.15 1568.04 L1312.26 1568.04 L1312.26 1532.4 L1318.15 1532.4 L1318.15 1537.93 Q1320.25 1534.72 1323.09 1533.13 Q1325.95 1531.54 1329.67 1531.54 Q1335.82 1531.54 1338.97 1535.36 Q1342.12 1539.14 1342.12 1546.53 Z" fill="#000000" fill-rule="nonzero" fill-opacity="1" /><path clip-path="url(#clip800)" d="M1377.26 1537.81 L1377.26 1518.52 L1383.11 1518.52 L1383.11 1568.04 L1377.26 1568.04 L1377.26 1562.7 Q1375.41 1565.88 1372.58 1567.44 Q1369.78 1568.97 1365.83 1568.97 Q1359.37 1568.97 1355.3 1563.81 Q1351.25 1558.65 1351.25 1550.25 Q1351.25 1541.85 1355.3 1536.69 Q1359.37 1531.54 1365.83 1531.54 Q1369.78 1531.54 1372.58 1533.1 Q1375.41 1534.62 1377.26 1537.81 M1357.3 1550.25 Q1357.3 1556.71 1359.94 1560.4 Q1362.62 1564.07 1367.26 1564.07 Q1371.91 1564.07 1374.58 1560.4 Q1377.26 1556.71 1377.26 1550.25 Q1377.26 1543.79 1374.58 1540.13 Q1371.91 1536.44 1367.26 1536.44 Q1362.62 1536.44 1359.94 1540.13 Q1357.3 1543.79 1357.3 1550.25 Z" fill="#000000" fill-rule="nonzero" fill-opacity="1" /><polyline clip-path="url(#clip802)" style="stroke:#000000; stroke-linecap:round; stroke-linejoin:round; stroke-width:2; stroke-opacity:0.1; fill:none" points="219.542,1219.56 2352.76,1219.56 "/>
<polyline clip-path="url(#clip802)" style="stroke:#000000; stroke-linecap:round; stroke-linejoin:round; stroke-width:2; stroke-opacity:0.1; fill:none" points="219.542,992.884 2352.76,992.884 "/>
<polyline clip-path="url(#clip802)" style="stroke:#000000; stroke-linecap:round; stroke-linejoin:round; stroke-width:2; stroke-opacity:0.1; fill:none" points="219.542,766.21 2352.76,766.21 "/>
<polyline clip-path="url(#clip802)" style="stroke:#000000; stroke-linecap:round; stroke-linejoin:round; stroke-width:2; stroke-opacity:0.1; fill:none" points="219.542,539.535 2352.76,539.535 "/>
<polyline clip-path="url(#clip802)" style="stroke:#000000; stroke-linecap:round; stroke-linejoin:round; stroke-width:2; stroke-opacity:0.1; fill:none" points="219.542,312.86 2352.76,312.86 "/>
<polyline clip-path="url(#clip802)" style="stroke:#000000; stroke-linecap:round; stroke-linejoin:round; stroke-width:2; stroke-opacity:0.1; fill:none" points="219.542,86.1857 2352.76,86.1857 "/>
<polyline clip-path="url(#clip800)" style="stroke:#000000; stroke-linecap:round; stroke-linejoin:round; stroke-width:4; stroke-opacity:1; fill:none" points="219.542,1423.18 219.542,47.2441 "/>
<polyline clip-path="url(#clip800)" style="stroke:#000000; stroke-linecap:round; stroke-linejoin:round; stroke-width:4; stroke-opacity:1; fill:none" points="219.542,1219.56 238.44,1219.56 "/>
<polyline clip-path="url(#clip800)" style="stroke:#000000; stroke-linecap:round; stroke-linejoin:round; stroke-width:4; stroke-opacity:1; fill:none" points="219.542,992.884 238.44,992.884 "/>
<polyline clip-path="url(#clip800)" style="stroke:#000000; stroke-linecap:round; stroke-linejoin:round; stroke-width:4; stroke-opacity:1; fill:none" points="219.542,766.21 238.44,766.21 "/>
<polyline clip-path="url(#clip800)" style="stroke:#000000; stroke-linecap:round; stroke-linejoin:round; stroke-width:4; stroke-opacity:1; fill:none" points="219.542,539.535 238.44,539.535 "/>
<polyline clip-path="url(#clip800)" style="stroke:#000000; stroke-linecap:round; stroke-linejoin:round; stroke-width:4; stroke-opacity:1; fill:none" points="219.542,312.86 238.44,312.86 "/>
<polyline clip-path="url(#clip800)" style="stroke:#000000; stroke-linecap:round; stroke-linejoin:round; stroke-width:4; stroke-opacity:1; fill:none" points="219.542,86.1857 238.44,86.1857 "/>
<path clip-path="url(#clip800)" d="M127.362 1205.36 Q123.751 1205.36 121.922 1208.92 Q120.117 1212.46 120.117 1219.59 Q120.117 1226.7 121.922 1230.27 Q123.751 1233.81 127.362 1233.81 Q130.996 1233.81 132.802 1230.27 Q134.63 1226.7 134.63 1219.59 Q134.63 1212.46 132.802 1208.92 Q130.996 1205.36 127.362 1205.36 M127.362 1201.65 Q133.172 1201.65 136.228 1206.26 Q139.306 1210.84 139.306 1219.59 Q139.306 1228.32 136.228 1232.93 Q133.172 1237.51 127.362 1237.51 Q121.552 1237.51 118.473 1232.93 Q115.418 1228.32 115.418 1219.59 Q115.418 1210.84 118.473 1206.26 Q121.552 1201.65 127.362 1201.65 Z" fill="#000000" fill-rule="nonzero" fill-opacity="1" /><path clip-path="url(#clip800)" d="M147.524 1230.96 L152.408 1230.96 L152.408 1236.84 L147.524 1236.84 L147.524 1230.96 Z" fill="#000000" fill-rule="nonzero" fill-opacity="1" /><path clip-path="url(#clip800)" d="M162.64 1202.28 L180.996 1202.28 L180.996 1206.21 L166.922 1206.21 L166.922 1214.69 Q167.94 1214.34 168.959 1214.18 Q169.977 1213.99 170.996 1213.99 Q176.783 1213.99 180.163 1217.16 Q183.542 1220.33 183.542 1225.75 Q183.542 1231.33 180.07 1234.43 Q176.598 1237.51 170.278 1237.51 Q168.102 1237.51 165.834 1237.14 Q163.589 1236.77 161.181 1236.03 L161.181 1231.33 Q163.265 1232.46 165.487 1233.02 Q167.709 1233.58 170.186 1233.58 Q174.19 1233.58 176.528 1231.47 Q178.866 1229.36 178.866 1225.75 Q178.866 1222.14 176.528 1220.03 Q174.19 1217.93 170.186 1217.93 Q168.311 1217.93 166.436 1218.34 Q164.584 1218.76 162.64 1219.64 L162.64 1202.28 Z" fill="#000000" fill-rule="nonzero" fill-opacity="1" /><path clip-path="url(#clip800)" d="M126.205 978.683 Q122.593 978.683 120.765 982.248 Q118.959 985.79 118.959 992.919 Q118.959 1000.03 120.765 1003.59 Q122.593 1007.13 126.205 1007.13 Q129.839 1007.13 131.644 1003.59 Q133.473 1000.03 133.473 992.919 Q133.473 985.79 131.644 982.248 Q129.839 978.683 126.205 978.683 M126.205 974.979 Q132.015 974.979 135.07 979.586 Q138.149 984.169 138.149 992.919 Q138.149 1001.65 135.07 1006.25 Q132.015 1010.84 126.205 1010.84 Q120.394 1010.84 117.316 1006.25 Q114.26 1001.65 114.26 992.919 Q114.26 984.169 117.316 979.586 Q120.394 974.979 126.205 974.979 Z" fill="#000000" fill-rule="nonzero" fill-opacity="1" /><path clip-path="url(#clip800)" d="M146.366 1004.28 L151.251 1004.28 L151.251 1010.16 L146.366 1010.16 L146.366 1004.28 Z" fill="#000000" fill-rule="nonzero" fill-opacity="1" /><path clip-path="url(#clip800)" d="M172.014 991.021 Q168.866 991.021 167.015 993.174 Q165.186 995.327 165.186 999.077 Q165.186 1002.8 167.015 1004.98 Q168.866 1007.13 172.014 1007.13 Q175.163 1007.13 176.991 1004.98 Q178.843 1002.8 178.843 999.077 Q178.843 995.327 176.991 993.174 Q175.163 991.021 172.014 991.021 M181.297 976.368 L181.297 980.628 Q179.538 979.794 177.732 979.354 Q175.95 978.915 174.19 978.915 Q169.561 978.915 167.107 982.04 Q164.677 985.165 164.329 991.484 Q165.695 989.47 167.755 988.405 Q169.815 987.317 172.292 987.317 Q177.501 987.317 180.51 990.489 Q183.542 993.637 183.542 999.077 Q183.542 1004.4 180.394 1007.62 Q177.246 1010.84 172.014 1010.84 Q166.019 1010.84 162.848 1006.25 Q159.677 1001.65 159.677 992.919 Q159.677 984.725 163.565 979.864 Q167.454 974.979 174.005 974.979 Q175.764 974.979 177.547 975.327 Q179.352 975.674 181.297 976.368 Z" fill="#000000" fill-rule="nonzero" fill-opacity="1" /><path clip-path="url(#clip800)" d="M127.269 752.008 Q123.658 752.008 121.83 755.573 Q120.024 759.115 120.024 766.244 Q120.024 773.351 121.83 776.916 Q123.658 780.457 127.269 780.457 Q130.904 780.457 132.709 776.916 Q134.538 773.351 134.538 766.244 Q134.538 759.115 132.709 755.573 Q130.904 752.008 127.269 752.008 M127.269 748.305 Q133.08 748.305 136.135 752.911 Q139.214 757.495 139.214 766.244 Q139.214 774.971 136.135 779.578 Q133.08 784.161 127.269 784.161 Q121.459 784.161 118.381 779.578 Q115.325 774.971 115.325 766.244 Q115.325 757.495 118.381 752.911 Q121.459 748.305 127.269 748.305 Z" fill="#000000" fill-rule="nonzero" fill-opacity="1" /><path clip-path="url(#clip800)" d="M147.431 777.61 L152.316 777.61 L152.316 783.49 L147.431 783.49 L147.431 777.61 Z" fill="#000000" fill-rule="nonzero" fill-opacity="1" /><path clip-path="url(#clip800)" d="M161.32 748.93 L183.542 748.93 L183.542 750.92 L170.996 783.49 L166.112 783.49 L177.917 752.865 L161.32 752.865 L161.32 748.93 Z" fill="#000000" fill-rule="nonzero" fill-opacity="1" /><path clip-path="url(#clip800)" d="M126.459 525.334 Q122.848 525.334 121.019 528.899 Q119.214 532.44 119.214 539.57 Q119.214 546.676 121.019 550.241 Q122.848 553.783 126.459 553.783 Q130.093 553.783 131.899 550.241 Q133.728 546.676 133.728 539.57 Q133.728 532.44 131.899 528.899 Q130.093 525.334 126.459 525.334 M126.459 521.63 Q132.269 521.63 135.325 526.237 Q138.404 530.82 138.404 539.57 Q138.404 548.297 135.325 552.903 Q132.269 557.486 126.459 557.486 Q120.649 557.486 117.57 552.903 Q114.515 548.297 114.515 539.57 Q114.515 530.82 117.57 526.237 Q120.649 521.63 126.459 521.63 Z" fill="#000000" fill-rule="nonzero" fill-opacity="1" /><path clip-path="url(#clip800)" d="M146.621 550.935 L151.505 550.935 L151.505 556.815 L146.621 556.815 L146.621 550.935 Z" fill="#000000" fill-rule="nonzero" fill-opacity="1" /><path clip-path="url(#clip800)" d="M171.69 540.403 Q168.357 540.403 166.436 542.185 Q164.538 543.968 164.538 547.093 Q164.538 550.218 166.436 552 Q168.357 553.783 171.69 553.783 Q175.024 553.783 176.945 552 Q178.866 550.195 178.866 547.093 Q178.866 543.968 176.945 542.185 Q175.047 540.403 171.69 540.403 M167.015 538.412 Q164.005 537.672 162.315 535.611 Q160.649 533.551 160.649 530.588 Q160.649 526.445 163.589 524.037 Q166.552 521.63 171.69 521.63 Q176.852 521.63 179.792 524.037 Q182.732 526.445 182.732 530.588 Q182.732 533.551 181.042 535.611 Q179.376 537.672 176.389 538.412 Q179.769 539.199 181.644 541.491 Q183.542 543.783 183.542 547.093 Q183.542 552.116 180.464 554.801 Q177.408 557.486 171.69 557.486 Q165.973 557.486 162.894 554.801 Q159.839 552.116 159.839 547.093 Q159.839 543.783 161.737 541.491 Q163.635 539.199 167.015 538.412 M165.302 531.028 Q165.302 533.713 166.968 535.218 Q168.658 536.723 171.69 536.723 Q174.7 536.723 176.389 535.218 Q178.102 533.713 178.102 531.028 Q178.102 528.343 176.389 526.838 Q174.7 525.334 171.69 525.334 Q168.658 525.334 166.968 526.838 Q165.302 528.343 165.302 531.028 Z" fill="#000000" fill-rule="nonzero" fill-opacity="1" /><path clip-path="url(#clip800)" d="M126.552 298.659 Q122.941 298.659 121.112 302.224 Q119.306 305.765 119.306 312.895 Q119.306 320.002 121.112 323.566 Q122.941 327.108 126.552 327.108 Q130.186 327.108 131.992 323.566 Q133.82 320.002 133.82 312.895 Q133.82 305.765 131.992 302.224 Q130.186 298.659 126.552 298.659 M126.552 294.955 Q132.362 294.955 135.417 299.562 Q138.496 304.145 138.496 312.895 Q138.496 321.622 135.417 326.228 Q132.362 330.812 126.552 330.812 Q120.742 330.812 117.663 326.228 Q114.607 321.622 114.607 312.895 Q114.607 304.145 117.663 299.562 Q120.742 294.955 126.552 294.955 Z" fill="#000000" fill-rule="nonzero" fill-opacity="1" /><path clip-path="url(#clip800)" d="M146.714 324.261 L151.598 324.261 L151.598 330.14 L146.714 330.14 L146.714 324.261 Z" fill="#000000" fill-rule="nonzero" fill-opacity="1" /><path clip-path="url(#clip800)" d="M161.922 329.423 L161.922 325.164 Q163.681 325.997 165.487 326.437 Q167.292 326.876 169.028 326.876 Q173.658 326.876 176.089 323.775 Q178.542 320.65 178.889 314.307 Q177.547 316.298 175.487 317.363 Q173.427 318.427 170.927 318.427 Q165.741 318.427 162.709 315.302 Q159.7 312.154 159.7 306.715 Q159.7 301.391 162.848 298.173 Q165.996 294.955 171.227 294.955 Q177.223 294.955 180.371 299.562 Q183.542 304.145 183.542 312.895 Q183.542 321.066 179.653 325.951 Q175.788 330.812 169.237 330.812 Q167.477 330.812 165.672 330.464 Q163.866 330.117 161.922 329.423 M171.227 314.77 Q174.376 314.77 176.204 312.617 Q178.056 310.465 178.056 306.715 Q178.056 302.988 176.204 300.835 Q174.376 298.659 171.227 298.659 Q168.079 298.659 166.227 300.835 Q164.399 302.988 164.399 306.715 Q164.399 310.465 166.227 312.617 Q168.079 314.77 171.227 314.77 Z" fill="#000000" fill-rule="nonzero" fill-opacity="1" /><path clip-path="url(#clip800)" d="M117.177 99.5305 L124.816 99.5305 L124.816 73.1649 L116.506 74.8316 L116.506 70.5723 L124.769 68.9057 L129.445 68.9057 L129.445 99.5305 L137.084 99.5305 L137.084 103.466 L117.177 103.466 L117.177 99.5305 Z" fill="#000000" fill-rule="nonzero" fill-opacity="1" /><path clip-path="url(#clip800)" d="M146.529 97.5861 L151.413 97.5861 L151.413 103.466 L146.529 103.466 L146.529 97.5861 Z" fill="#000000" fill-rule="nonzero" fill-opacity="1" /><path clip-path="url(#clip800)" d="M171.598 71.9844 Q167.987 71.9844 166.158 75.5492 Q164.352 79.0908 164.352 86.2204 Q164.352 93.3268 166.158 96.8916 Q167.987 100.433 171.598 100.433 Q175.232 100.433 177.038 96.8916 Q178.866 93.3268 178.866 86.2204 Q178.866 79.0908 177.038 75.5492 Q175.232 71.9844 171.598 71.9844 M171.598 68.2807 Q177.408 68.2807 180.464 72.8871 Q183.542 77.4704 183.542 86.2204 Q183.542 94.9472 180.464 99.5537 Q177.408 104.137 171.598 104.137 Q165.788 104.137 162.709 99.5537 Q159.653 94.9472 159.653 86.2204 Q159.653 77.4704 162.709 72.8871 Q165.788 68.2807 171.598 68.2807 Z" fill="#000000" fill-rule="nonzero" fill-opacity="1" /><path clip-path="url(#clip800)" d="M21.7677 907.197 L39.6235 907.197 L39.6235 899.113 Q39.6235 894.625 37.3 892.174 Q34.9765 889.724 30.6797 889.724 Q26.4147 889.724 24.0912 892.174 Q21.7677 894.625 21.7677 899.113 L21.7677 907.197 M16.4842 913.627 L16.4842 899.113 Q16.4842 891.124 20.1126 887.05 Q23.7092 882.944 30.6797 882.944 Q37.7138 882.944 41.3104 887.05 Q44.907 891.124 44.907 899.113 L44.907 907.197 L64.0042 907.197 L64.0042 913.627 L16.4842 913.627 Z" fill="#000000" fill-rule="nonzero" fill-opacity="1" /><path clip-path="url(#clip800)" d="M44.7161 846.405 L47.5806 846.405 L47.5806 873.332 Q53.6281 872.95 56.8109 869.703 Q59.9619 866.425 59.9619 860.6 Q59.9619 857.227 59.1344 854.076 Q58.3069 850.893 56.6518 847.774 L62.1899 847.774 Q63.5267 850.925 64.227 854.235 Q64.9272 857.545 64.9272 860.951 Q64.9272 869.481 59.9619 874.478 Q54.9967 879.443 46.5303 879.443 Q37.7774 879.443 32.6531 874.732 Q27.4968 869.99 27.4968 861.969 Q27.4968 854.776 32.1438 850.606 Q36.7589 846.405 44.7161 846.405 M42.9973 852.261 Q38.1912 852.325 35.3266 854.967 Q32.4621 857.577 32.4621 861.905 Q32.4621 866.807 35.2312 869.767 Q38.0002 872.695 43.0292 873.141 L42.9973 852.261 Z" fill="#000000" fill-rule="nonzero" fill-opacity="1" /><path clip-path="url(#clip800)" d="M33.8307 816.136 Q33.2578 817.123 33.0032 818.3 Q32.7167 819.446 32.7167 820.847 Q32.7167 825.812 35.9632 828.485 Q39.1779 831.127 45.2253 831.127 L64.0042 831.127 L64.0042 837.016 L28.3562 837.016 L28.3562 831.127 L33.8944 831.127 Q30.6479 829.281 29.0883 826.321 Q27.4968 823.361 27.4968 819.128 Q27.4968 818.523 27.5923 817.791 Q27.656 817.059 27.8151 816.168 L33.8307 816.136 Z" fill="#000000" fill-rule="nonzero" fill-opacity="1" /><path clip-path="url(#clip800)" d="M29.7248 785.772 L35.1993 785.772 Q33.8307 788.254 33.1623 790.769 Q32.4621 793.251 32.4621 795.798 Q32.4621 801.495 36.0905 804.646 Q39.6872 807.797 46.212 807.797 Q52.7369 807.797 56.3653 804.646 Q59.9619 801.495 59.9619 795.798 Q59.9619 793.251 59.2935 790.769 Q58.5933 788.254 57.2247 785.772 L62.6355 785.772 Q63.7814 788.222 64.3543 790.864 Q64.9272 793.474 64.9272 796.434 Q64.9272 804.487 59.8664 809.229 Q54.8057 813.972 46.212 813.972 Q37.491 813.972 32.4939 809.197 Q27.4968 804.391 27.4968 796.052 Q27.4968 793.347 28.0697 790.769 Q28.6108 788.191 29.7248 785.772 Z" fill="#000000" fill-rule="nonzero" fill-opacity="1" /><path clip-path="url(#clip800)" d="M44.7161 745.095 L47.5806 745.095 L47.5806 772.022 Q53.6281 771.64 56.8109 768.393 Q59.9619 765.115 59.9619 759.29 Q59.9619 755.916 59.1344 752.765 Q58.3069 749.583 56.6518 746.463 L62.1899 746.463 Q63.5267 749.614 64.227 752.925 Q64.9272 756.235 64.9272 759.64 Q64.9272 768.17 59.9619 773.167 Q54.9967 778.133 46.5303 778.133 Q37.7774 778.133 32.6531 773.422 Q27.4968 768.68 27.4968 760.659 Q27.4968 753.466 32.1438 749.296 Q36.7589 745.095 44.7161 745.095 M42.9973 750.951 Q38.1912 751.015 35.3266 753.657 Q32.4621 756.267 32.4621 760.595 Q32.4621 765.497 35.2312 768.457 Q38.0002 771.385 43.0292 771.831 L42.9973 750.951 Z" fill="#000000" fill-rule="nonzero" fill-opacity="1" /><path clip-path="url(#clip800)" d="M42.4881 705.85 L64.0042 705.85 L64.0042 711.707 L42.679 711.707 Q37.6183 711.707 35.1038 713.68 Q32.5894 715.653 32.5894 719.6 Q32.5894 724.343 35.6131 727.08 Q38.6368 729.817 43.8567 729.817 L64.0042 729.817 L64.0042 735.705 L28.3562 735.705 L28.3562 729.817 L33.8944 729.817 Q30.6797 727.716 29.0883 724.884 Q27.4968 722.019 27.4968 718.295 Q27.4968 712.152 31.3163 709.001 Q35.1038 705.85 42.4881 705.85 Z" fill="#000000" fill-rule="nonzero" fill-opacity="1" /><path clip-path="url(#clip800)" d="M18.2347 688.376 L28.3562 688.376 L28.3562 676.313 L32.9077 676.313 L32.9077 688.376 L52.2594 688.376 Q56.6199 688.376 57.8613 687.199 Q59.1026 685.989 59.1026 682.329 L59.1026 676.313 L64.0042 676.313 L64.0042 682.329 Q64.0042 689.108 61.4897 691.686 Q58.9434 694.265 52.2594 694.265 L32.9077 694.265 L32.9077 698.561 L28.3562 698.561 L28.3562 694.265 L18.2347 694.265 L18.2347 688.376 Z" fill="#000000" fill-rule="nonzero" fill-opacity="1" /><path clip-path="url(#clip800)" d="M46.0847 652.41 Q46.0847 659.508 47.7079 662.245 Q49.3312 664.982 53.2461 664.982 Q56.3653 664.982 58.2114 662.945 Q60.0256 660.876 60.0256 657.343 Q60.0256 652.474 56.5881 649.545 Q53.1188 646.585 47.3897 646.585 L46.0847 646.585 L46.0847 652.41 M43.6657 640.729 L64.0042 640.729 L64.0042 646.585 L58.5933 646.585 Q61.8398 648.591 63.3994 651.582 Q64.9272 654.574 64.9272 658.903 Q64.9272 664.378 61.8716 667.624 Q58.7843 670.839 53.6281 670.839 Q47.6125 670.839 44.5569 666.828 Q41.5014 662.786 41.5014 654.797 L41.5014 646.585 L40.9285 646.585 Q36.8862 646.585 34.6901 649.259 Q32.4621 651.901 32.4621 656.707 Q32.4621 659.762 33.1941 662.659 Q33.9262 665.555 35.3903 668.229 L29.9795 668.229 Q28.7381 665.014 28.1334 661.99 Q27.4968 658.967 27.4968 656.102 Q27.4968 648.368 31.5072 644.548 Q35.5176 640.729 43.6657 640.729 Z" fill="#000000" fill-rule="nonzero" fill-opacity="1" /><path clip-path="url(#clip800)" d="M45.7664 605.208 Q39.4007 605.208 35.8996 607.85 Q32.3984 610.46 32.3984 615.202 Q32.3984 619.913 35.8996 622.555 Q39.4007 625.165 45.7664 625.165 Q52.1003 625.165 55.6014 622.555 Q59.1026 619.913 59.1026 615.202 Q59.1026 610.46 55.6014 607.85 Q52.1003 605.208 45.7664 605.208 M59.58 599.352 Q68.683 599.352 73.1071 603.394 Q77.5631 607.436 77.5631 615.775 Q77.5631 618.863 77.0857 621.6 Q76.6401 624.337 75.6852 626.915 L69.9879 626.915 Q71.3884 624.337 72.0568 621.823 Q72.7252 619.308 72.7252 616.698 Q72.7252 610.937 69.7015 608.073 Q66.7096 605.208 60.6303 605.208 L57.7339 605.208 Q60.885 607.023 62.4446 609.855 Q64.0042 612.688 64.0042 616.635 Q64.0042 623.191 59.0071 627.202 Q54.01 631.212 45.7664 631.212 Q37.491 631.212 32.4939 627.202 Q27.4968 623.191 27.4968 616.635 Q27.4968 612.688 29.0564 609.855 Q30.616 607.023 33.7671 605.208 L28.3562 605.208 L28.3562 599.352 L59.58 599.352 Z" fill="#000000" fill-rule="nonzero" fill-opacity="1" /><path clip-path="url(#clip800)" d="M44.7161 556.797 L47.5806 556.797 L47.5806 583.724 Q53.6281 583.342 56.8109 580.096 Q59.9619 576.817 59.9619 570.993 Q59.9619 567.619 59.1344 564.468 Q58.3069 561.285 56.6518 558.166 L62.1899 558.166 Q63.5267 561.317 64.227 564.627 Q64.9272 567.937 64.9272 571.343 Q64.9272 579.873 59.9619 584.87 Q54.9967 589.835 46.5303 589.835 Q37.7774 589.835 32.6531 585.125 Q27.4968 580.382 27.4968 572.361 Q27.4968 565.168 32.1438 560.998 Q36.7589 556.797 44.7161 556.797 M42.9973 562.654 Q38.1912 562.717 35.3266 565.359 Q32.4621 567.969 32.4621 572.298 Q32.4621 577.199 35.2312 580.159 Q38.0002 583.087 43.0292 583.533 L42.9973 562.654 Z" fill="#000000" fill-rule="nonzero" fill-opacity="1" /><polyline clip-path="url(#clip802)" style="stroke:#009af9; stroke-linecap:round; stroke-linejoin:round; stroke-width:4; stroke-opacity:1; fill:none" points="279.916,86.1857 290.029,1212.76 300.142,653.099 310.255,1221.49 320.368,792.051 330.481,1222.62 340.594,870.14 350.706,1215.59 360.819,910.035 370.932,1214.23 381.045,933.382 391.158,1215.37 401.271,960.357 411.384,1210.38 421.497,976.791 431.61,1204.83 441.722,988.238 451.835,1208.57 461.948,1001.95 472.061,1210.83 482.174,1011.7 492.287,1209.25 502.4,1023.15 512.513,1215.71 522.626,1031.76 532.738,1213.33 542.851,1039.01 552.964,1221.37 563.077,1047.63 573.19,1223.3 583.303,1053.18 593.416,1212.99 603.529,1048.53 613.642,1212.99 623.755,1057.83 633.867,1212.31 643.98,1060.77 654.093,1211.51 664.206,1058.85 674.319,1209.59 684.432,1064.06 694.545,1208.23 704.658,1071.54 714.771,1208.79 724.883,1077.89 734.996,1219.56 745.109,1088.77 755.222,1221.26 765.335,1091.83 775.448,1216.73 785.561,1093.53 795.674,1210.27 805.787,1094.66 815.9,1213.44 826.012,1099.76 836.125,1213.55 846.238,1104.86 856.351,1216.5 866.464,1108.04 876.577,1224.09 886.69,1113.93 896.803,1224.32 906.916,1112 917.028,1221.03 927.141,1119.03 937.254,1226.13 947.367,1120.28 957.48,1225.79 967.593,1124.92 977.706,1227.61 987.819,1121.52 997.932,1230.55 1008.04,1125.49 1018.16,1229.31 1028.27,1129.57 1038.38,1232.93 1048.5,1138.75 1058.61,1237.69 1068.72,1141.7 1078.83,1240.41 1088.95,1144.64 1099.06,1236.33 1109.17,1146 1119.29,1244.27 1129.4,1156.09 1139.51,1248.35 1149.62,1156.2 1159.74,1247.78 1169.85,1155.18 1179.96,1246.65 1190.08,1160.28 1200.19,1253.79 1210.3,1170.03 1220.42,1253.33 1230.53,1173.43 1240.64,1255.49 1250.75,1178.53 1260.87,1259.45 1270.98,1181.25 1281.09,1254.24 1291.21,1176.15 1301.32,1255.71 1311.43,1183.52 1321.54,1258.43 1331.66,1185.33 1341.77,1262.4 1351.88,1185.44 1362,1265.12 1372.11,1195.87 1382.22,1269.31 1392.33,1203.69 1402.45,1276.34 1412.56,1209.36 1422.67,1280.53 1432.79,1210.83 1442.9,1280.53 1453.01,1215.03 1463.12,1284.84 1473.24,1221.83 1483.35,1286.43 1493.46,1221.49 1503.58,1290.85 1513.69,1224.89 1523.8,1290.28 1533.91,1231.8 1544.03,1294.93 1554.14,1229.42 1564.25,1293 1574.37,1230.67 1584.48,1295.72 1594.59,1236.79 1604.71,1296.52 1614.82,1235.54 1624.93,1299.35 1635.04,1239.85 1645.16,1300.48 1655.27,1242.23 1665.38,1303.66 1675.5,1243.93 1685.61,1306.6 1695.72,1247.89 1705.83,1308.64 1715.95,1250.61 1726.06,1311.93 1736.17,1257.3 1746.29,1315.44 1756.4,1261.04 1766.51,1321.56 1776.62,1265.35 1786.74,1321.56 1796.85,1268.41 1806.96,1326.1 1817.08,1271.58 1827.19,1328.82 1837.3,1274.53 1847.41,1328.48 1857.53,1278.49 1867.64,1334.03 1877.75,1282.01 1887.87,1334.37 1897.98,1291.41 1908.09,1340.94 1918.2,1293 1928.32,1342.76 1938.43,1297.76 1948.54,1344.8 1958.66,1298.9 1968.77,1349.33 1978.88,1304.79 1989,1352.28 1999.11,1305.81 2009.22,1350.24 2019.33,1304.56 2029.45,1352.16 2039.56,1306.49 2049.67,1354.88 2059.79,1311.93 2069.9,1355.34 2080.01,1310 2090.12,1356.92 2100.24,1312.61 2110.35,1361.91 2120.46,1319.64 2130.58,1365.31 2140.69,1320.2 2150.8,1365.31 2160.91,1324.06 2171.03,1368.14 2181.14,1328.02 2191.25,1372.56 2201.37,1332.78 2211.48,1376.19 2221.59,1334.71 2231.7,1376.19 2241.82,1338 2251.93,1380.38 2262.04,1340.6 2272.16,1382.42 2282.27,1344.46 2292.38,1384.24 "/>
<path clip-path="url(#clip800)" d="M749.399 196.789 L2281.65 196.789 L2281.65 93.1086 L749.399 93.1086  Z" fill="#ffffff" fill-rule="evenodd" fill-opacity="1"/>
<polyline clip-path="url(#clip800)" style="stroke:#000000; stroke-linecap:round; stroke-linejoin:round; stroke-width:4; stroke-opacity:1; fill:none" points="749.399,196.789 2281.65,196.789 2281.65,93.1086 749.399,93.1086 749.399,196.789 "/>
<polyline clip-path="url(#clip800)" style="stroke:#009af9; stroke-linecap:round; stroke-linejoin:round; stroke-width:4; stroke-opacity:1; fill:none" points="773.102,144.949 915.316,144.949 "/>
<path clip-path="url(#clip800)" d="M943.694 131.511 L943.694 144.497 L949.574 144.497 Q952.838 144.497 954.62 142.807 Q956.402 141.118 956.402 137.993 Q956.402 134.891 954.62 133.201 Q952.838 131.511 949.574 131.511 L943.694 131.511 M939.018 127.669 L949.574 127.669 Q955.384 127.669 958.347 130.307 Q961.333 132.923 961.333 137.993 Q961.333 143.108 958.347 145.724 Q955.384 148.34 949.574 148.34 L943.694 148.34 L943.694 162.229 L939.018 162.229 L939.018 127.669 Z" fill="#000000" fill-rule="nonzero" fill-opacity="1" /><path clip-path="url(#clip800)" d="M987.907 148.201 L987.907 150.284 L968.324 150.284 Q968.601 154.682 970.963 156.997 Q973.347 159.289 977.583 159.289 Q980.037 159.289 982.328 158.687 Q984.643 158.085 986.912 156.881 L986.912 160.909 Q984.62 161.881 982.213 162.391 Q979.805 162.9 977.328 162.9 Q971.125 162.9 967.49 159.289 Q963.879 155.678 963.879 149.52 Q963.879 143.155 967.305 139.428 Q970.754 135.678 976.588 135.678 Q981.819 135.678 984.851 139.057 Q987.907 142.414 987.907 148.201 M983.648 146.951 Q983.601 143.456 981.68 141.372 Q979.782 139.289 976.634 139.289 Q973.069 139.289 970.916 141.303 Q968.787 143.317 968.463 146.974 L983.648 146.951 Z" fill="#000000" fill-rule="nonzero" fill-opacity="1" /><path clip-path="url(#clip800)" d="M1009.92 140.284 Q1009.2 139.868 1008.35 139.682 Q1007.51 139.474 1006.49 139.474 Q1002.88 139.474 1000.94 141.835 Q999.018 144.173 999.018 148.571 L999.018 162.229 L994.736 162.229 L994.736 136.303 L999.018 136.303 L999.018 140.331 Q1000.36 137.969 1002.51 136.835 Q1004.67 135.678 1007.74 135.678 Q1008.18 135.678 1008.72 135.747 Q1009.25 135.794 1009.9 135.909 L1009.92 140.284 Z" fill="#000000" fill-rule="nonzero" fill-opacity="1" /><path clip-path="url(#clip800)" d="M1032 137.298 L1032 141.28 Q1030.2 140.284 1028.37 139.798 Q1026.56 139.289 1024.71 139.289 Q1020.57 139.289 1018.28 141.928 Q1015.99 144.544 1015.99 149.289 Q1015.99 154.034 1018.28 156.673 Q1020.57 159.289 1024.71 159.289 Q1026.56 159.289 1028.37 158.803 Q1030.2 158.293 1032 157.298 L1032 161.233 Q1030.22 162.067 1028.3 162.483 Q1026.4 162.9 1024.25 162.9 Q1018.39 162.9 1014.94 159.219 Q1011.49 155.539 1011.49 149.289 Q1011.49 142.946 1014.97 139.312 Q1018.46 135.678 1024.53 135.678 Q1026.49 135.678 1028.37 136.095 Q1030.24 136.488 1032 137.298 Z" fill="#000000" fill-rule="nonzero" fill-opacity="1" /><path clip-path="url(#clip800)" d="M1061.59 148.201 L1061.59 150.284 L1042 150.284 Q1042.28 154.682 1044.64 156.997 Q1047.03 159.289 1051.26 159.289 Q1053.72 159.289 1056.01 158.687 Q1058.32 158.085 1060.59 156.881 L1060.59 160.909 Q1058.3 161.881 1055.89 162.391 Q1053.49 162.9 1051.01 162.9 Q1044.8 162.9 1041.17 159.289 Q1037.56 155.678 1037.56 149.52 Q1037.56 143.155 1040.99 139.428 Q1044.43 135.678 1050.27 135.678 Q1055.5 135.678 1058.53 139.057 Q1061.59 142.414 1061.59 148.201 M1057.33 146.951 Q1057.28 143.456 1055.36 141.372 Q1053.46 139.289 1050.31 139.289 Q1046.75 139.289 1044.6 141.303 Q1042.47 143.317 1042.14 146.974 L1057.33 146.951 Z" fill="#000000" fill-rule="nonzero" fill-opacity="1" /><path clip-path="url(#clip800)" d="M1090.13 146.581 L1090.13 162.229 L1085.87 162.229 L1085.87 146.719 Q1085.87 143.039 1084.43 141.21 Q1083 139.382 1080.13 139.382 Q1076.68 139.382 1074.69 141.581 Q1072.7 143.78 1072.7 147.576 L1072.7 162.229 L1068.42 162.229 L1068.42 136.303 L1072.7 136.303 L1072.7 140.331 Q1074.23 137.993 1076.29 136.835 Q1078.37 135.678 1081.08 135.678 Q1085.55 135.678 1087.84 138.456 Q1090.13 141.21 1090.13 146.581 Z" fill="#000000" fill-rule="nonzero" fill-opacity="1" /><path clip-path="url(#clip800)" d="M1102.84 128.942 L1102.84 136.303 L1111.61 136.303 L1111.61 139.613 L1102.84 139.613 L1102.84 153.687 Q1102.84 156.858 1103.69 157.761 Q1104.57 158.664 1107.23 158.664 L1111.61 158.664 L1111.61 162.229 L1107.23 162.229 Q1102.3 162.229 1100.43 160.4 Q1098.55 158.548 1098.55 153.687 L1098.55 139.613 L1095.43 139.613 L1095.43 136.303 L1098.55 136.303 L1098.55 128.942 L1102.84 128.942 Z" fill="#000000" fill-rule="nonzero" fill-opacity="1" /><path clip-path="url(#clip800)" d="M1128.99 149.196 Q1123.83 149.196 1121.84 150.377 Q1119.85 151.557 1119.85 154.405 Q1119.85 156.673 1121.33 158.016 Q1122.84 159.335 1125.41 159.335 Q1128.95 159.335 1131.08 156.835 Q1133.23 154.312 1133.23 150.145 L1133.23 149.196 L1128.99 149.196 M1137.49 147.437 L1137.49 162.229 L1133.23 162.229 L1133.23 158.293 Q1131.77 160.655 1129.6 161.789 Q1127.42 162.9 1124.27 162.9 Q1120.29 162.9 1117.93 160.678 Q1115.59 158.432 1115.59 154.682 Q1115.59 150.307 1118.51 148.085 Q1121.45 145.863 1127.26 145.863 L1133.23 145.863 L1133.23 145.446 Q1133.23 142.507 1131.29 140.909 Q1129.36 139.289 1125.87 139.289 Q1123.65 139.289 1121.54 139.821 Q1119.43 140.354 1117.49 141.419 L1117.49 137.483 Q1119.83 136.581 1122.03 136.141 Q1124.23 135.678 1126.31 135.678 Q1131.93 135.678 1134.71 138.594 Q1137.49 141.511 1137.49 147.437 Z" fill="#000000" fill-rule="nonzero" fill-opacity="1" /><path clip-path="url(#clip800)" d="M1163.32 148.965 Q1163.32 144.335 1161.4 141.789 Q1159.5 139.243 1156.05 139.243 Q1152.63 139.243 1150.71 141.789 Q1148.81 144.335 1148.81 148.965 Q1148.81 153.571 1150.71 156.118 Q1152.63 158.664 1156.05 158.664 Q1159.5 158.664 1161.4 156.118 Q1163.32 153.571 1163.32 148.965 M1167.58 159.011 Q1167.58 165.631 1164.64 168.849 Q1161.7 172.09 1155.64 172.09 Q1153.39 172.09 1151.4 171.742 Q1149.41 171.418 1147.54 170.724 L1147.54 166.58 Q1149.41 167.599 1151.24 168.085 Q1153.07 168.571 1154.97 168.571 Q1159.16 168.571 1161.24 166.372 Q1163.32 164.196 1163.32 159.775 L1163.32 157.668 Q1162 159.96 1159.94 161.094 Q1157.88 162.229 1155.01 162.229 Q1150.24 162.229 1147.33 158.594 Q1144.41 154.96 1144.41 148.965 Q1144.41 142.946 1147.33 139.312 Q1150.24 135.678 1155.01 135.678 Q1157.88 135.678 1159.94 136.812 Q1162 137.946 1163.32 140.238 L1163.32 136.303 L1167.58 136.303 L1167.58 159.011 Z" fill="#000000" fill-rule="nonzero" fill-opacity="1" /><path clip-path="url(#clip800)" d="M1198.53 148.201 L1198.53 150.284 L1178.95 150.284 Q1179.23 154.682 1181.59 156.997 Q1183.97 159.289 1188.21 159.289 Q1190.66 159.289 1192.95 158.687 Q1195.27 158.085 1197.54 156.881 L1197.54 160.909 Q1195.24 161.881 1192.84 162.391 Q1190.43 162.9 1187.95 162.9 Q1181.75 162.9 1178.11 159.289 Q1174.5 155.678 1174.5 149.52 Q1174.5 143.155 1177.93 139.428 Q1181.38 135.678 1187.21 135.678 Q1192.44 135.678 1195.48 139.057 Q1198.53 142.414 1198.53 148.201 M1194.27 146.951 Q1194.23 143.456 1192.3 141.372 Q1190.41 139.289 1187.26 139.289 Q1183.69 139.289 1181.54 141.303 Q1179.41 143.317 1179.09 146.974 L1194.27 146.951 Z" fill="#000000" fill-rule="nonzero" fill-opacity="1" /><path clip-path="url(#clip800)" d="M1230.64 139.289 Q1227.21 139.289 1225.22 141.974 Q1223.23 144.636 1223.23 149.289 Q1223.23 153.942 1225.2 156.627 Q1227.19 159.289 1230.64 159.289 Q1234.04 159.289 1236.03 156.604 Q1238.02 153.918 1238.02 149.289 Q1238.02 144.682 1236.03 141.997 Q1234.04 139.289 1230.64 139.289 M1230.64 135.678 Q1236.19 135.678 1239.36 139.289 Q1242.54 142.9 1242.54 149.289 Q1242.54 155.655 1239.36 159.289 Q1236.19 162.9 1230.64 162.9 Q1225.06 162.9 1221.89 159.289 Q1218.74 155.655 1218.74 149.289 Q1218.74 142.9 1221.89 139.289 Q1225.06 135.678 1230.64 135.678 Z" fill="#000000" fill-rule="nonzero" fill-opacity="1" /><path clip-path="url(#clip800)" d="M1262.72 126.21 L1262.72 129.752 L1258.65 129.752 Q1256.35 129.752 1255.45 130.678 Q1254.57 131.604 1254.57 134.011 L1254.57 136.303 L1261.59 136.303 L1261.59 139.613 L1254.57 139.613 L1254.57 162.229 L1250.29 162.229 L1250.29 139.613 L1246.22 139.613 L1246.22 136.303 L1250.29 136.303 L1250.29 134.497 Q1250.29 130.169 1252.3 128.201 Q1254.32 126.21 1258.69 126.21 L1262.72 126.21 Z" fill="#000000" fill-rule="nonzero" fill-opacity="1" /><path clip-path="url(#clip800)" d="M1297.88 137.067 L1297.88 141.094 Q1296.08 140.169 1294.13 139.706 Q1292.19 139.243 1290.1 139.243 Q1286.93 139.243 1285.34 140.215 Q1283.76 141.187 1283.76 143.131 Q1283.76 144.613 1284.9 145.469 Q1286.03 146.303 1289.46 147.067 L1290.91 147.391 Q1295.45 148.363 1297.35 150.145 Q1299.27 151.905 1299.27 155.076 Q1299.27 158.687 1296.4 160.793 Q1293.55 162.9 1288.55 162.9 Q1286.47 162.9 1284.2 162.483 Q1281.96 162.09 1279.46 161.28 L1279.46 156.881 Q1281.82 158.108 1284.11 158.733 Q1286.4 159.335 1288.65 159.335 Q1291.66 159.335 1293.28 158.317 Q1294.9 157.275 1294.9 155.4 Q1294.9 153.664 1293.72 152.738 Q1292.56 151.812 1288.6 150.956 L1287.12 150.608 Q1283.16 149.775 1281.4 148.062 Q1279.64 146.326 1279.64 143.317 Q1279.64 139.659 1282.23 137.669 Q1284.83 135.678 1289.6 135.678 Q1291.96 135.678 1294.04 136.025 Q1296.12 136.372 1297.88 137.067 Z" fill="#000000" fill-rule="nonzero" fill-opacity="1" /><path clip-path="url(#clip800)" d="M1306.05 136.303 L1310.31 136.303 L1310.31 162.229 L1306.05 162.229 L1306.05 136.303 M1306.05 126.21 L1310.31 126.21 L1310.31 131.604 L1306.05 131.604 L1306.05 126.21 Z" fill="#000000" fill-rule="nonzero" fill-opacity="1" /><path clip-path="url(#clip800)" d="M1339.41 141.28 Q1341.01 138.409 1343.23 137.044 Q1345.45 135.678 1348.46 135.678 Q1352.51 135.678 1354.71 138.525 Q1356.91 141.349 1356.91 146.581 L1356.91 162.229 L1352.63 162.229 L1352.63 146.719 Q1352.63 142.993 1351.31 141.187 Q1349.99 139.382 1347.28 139.382 Q1343.97 139.382 1342.05 141.581 Q1340.13 143.78 1340.13 147.576 L1340.13 162.229 L1335.84 162.229 L1335.84 146.719 Q1335.84 142.969 1334.53 141.187 Q1333.21 139.382 1330.45 139.382 Q1327.19 139.382 1325.27 141.604 Q1323.34 143.803 1323.34 147.576 L1323.34 162.229 L1319.06 162.229 L1319.06 136.303 L1323.34 136.303 L1323.34 140.331 Q1324.8 137.946 1326.84 136.812 Q1328.88 135.678 1331.68 135.678 Q1334.5 135.678 1336.47 137.113 Q1338.46 138.548 1339.41 141.28 Z" fill="#000000" fill-rule="nonzero" fill-opacity="1" /><path clip-path="url(#clip800)" d="M1364.97 151.997 L1364.97 136.303 L1369.22 136.303 L1369.22 151.835 Q1369.22 155.516 1370.66 157.368 Q1372.09 159.196 1374.97 159.196 Q1378.41 159.196 1380.4 156.997 Q1382.42 154.798 1382.42 151.002 L1382.42 136.303 L1386.68 136.303 L1386.68 162.229 L1382.42 162.229 L1382.42 158.247 Q1380.87 160.608 1378.81 161.766 Q1376.77 162.9 1374.06 162.9 Q1369.59 162.9 1367.28 160.122 Q1364.97 157.344 1364.97 151.997 M1375.68 135.678 L1375.68 135.678 Z" fill="#000000" fill-rule="nonzero" fill-opacity="1" /><path clip-path="url(#clip800)" d="M1395.45 126.21 L1399.71 126.21 L1399.71 162.229 L1395.45 162.229 L1395.45 126.21 Z" fill="#000000" fill-rule="nonzero" fill-opacity="1" /><path clip-path="url(#clip800)" d="M1420.4 149.196 Q1415.24 149.196 1413.25 150.377 Q1411.26 151.557 1411.26 154.405 Q1411.26 156.673 1412.74 158.016 Q1414.25 159.335 1416.82 159.335 Q1420.36 159.335 1422.49 156.835 Q1424.64 154.312 1424.64 150.145 L1424.64 149.196 L1420.4 149.196 M1428.9 147.437 L1428.9 162.229 L1424.64 162.229 L1424.64 158.293 Q1423.18 160.655 1421.01 161.789 Q1418.83 162.9 1415.68 162.9 Q1411.7 162.9 1409.34 160.678 Q1407 158.432 1407 154.682 Q1407 150.307 1409.92 148.085 Q1412.86 145.863 1418.67 145.863 L1424.64 145.863 L1424.64 145.446 Q1424.64 142.507 1422.7 140.909 Q1420.77 139.289 1417.28 139.289 Q1415.06 139.289 1412.95 139.821 Q1410.84 140.354 1408.9 141.419 L1408.9 137.483 Q1411.24 136.581 1413.44 136.141 Q1415.64 135.678 1417.72 135.678 Q1423.34 135.678 1426.12 138.594 Q1428.9 141.511 1428.9 147.437 Z" fill="#000000" fill-rule="nonzero" fill-opacity="1" /><path clip-path="url(#clip800)" d="M1441.89 128.942 L1441.89 136.303 L1450.66 136.303 L1450.66 139.613 L1441.89 139.613 L1441.89 153.687 Q1441.89 156.858 1442.74 157.761 Q1443.62 158.664 1446.28 158.664 L1450.66 158.664 L1450.66 162.229 L1446.28 162.229 Q1441.35 162.229 1439.48 160.4 Q1437.6 158.548 1437.6 153.687 L1437.6 139.613 L1434.48 139.613 L1434.48 136.303 L1437.6 136.303 L1437.6 128.942 L1441.89 128.942 Z" fill="#000000" fill-rule="nonzero" fill-opacity="1" /><path clip-path="url(#clip800)" d="M1456.26 136.303 L1460.52 136.303 L1460.52 162.229 L1456.26 162.229 L1456.26 136.303 M1456.26 126.21 L1460.52 126.21 L1460.52 131.604 L1456.26 131.604 L1456.26 126.21 Z" fill="#000000" fill-rule="nonzero" fill-opacity="1" /><path clip-path="url(#clip800)" d="M1479.48 139.289 Q1476.05 139.289 1474.06 141.974 Q1472.07 144.636 1472.07 149.289 Q1472.07 153.942 1474.04 156.627 Q1476.03 159.289 1479.48 159.289 Q1482.88 159.289 1484.87 156.604 Q1486.86 153.918 1486.86 149.289 Q1486.86 144.682 1484.87 141.997 Q1482.88 139.289 1479.48 139.289 M1479.48 135.678 Q1485.03 135.678 1488.21 139.289 Q1491.38 142.9 1491.38 149.289 Q1491.38 155.655 1488.21 159.289 Q1485.03 162.9 1479.48 162.9 Q1473.9 162.9 1470.73 159.289 Q1467.58 155.655 1467.58 149.289 Q1467.58 142.9 1470.73 139.289 Q1473.9 135.678 1479.48 135.678 Z" fill="#000000" fill-rule="nonzero" fill-opacity="1" /><path clip-path="url(#clip800)" d="M1519.99 146.581 L1519.99 162.229 L1515.73 162.229 L1515.73 146.719 Q1515.73 143.039 1514.29 141.21 Q1512.86 139.382 1509.99 139.382 Q1506.54 139.382 1504.55 141.581 Q1502.56 143.78 1502.56 147.576 L1502.56 162.229 L1498.27 162.229 L1498.27 136.303 L1502.56 136.303 L1502.56 140.331 Q1504.08 137.993 1506.14 136.835 Q1508.23 135.678 1510.94 135.678 Q1515.4 135.678 1517.7 138.456 Q1519.99 141.21 1519.99 146.581 Z" fill="#000000" fill-rule="nonzero" fill-opacity="1" /><path clip-path="url(#clip800)" d="M1545.01 137.067 L1545.01 141.094 Q1543.2 140.169 1541.26 139.706 Q1539.32 139.243 1537.23 139.243 Q1534.06 139.243 1532.46 140.215 Q1530.89 141.187 1530.89 143.131 Q1530.89 144.613 1532.02 145.469 Q1533.16 146.303 1536.58 147.067 L1538.04 147.391 Q1542.58 148.363 1544.48 150.145 Q1546.4 151.905 1546.4 155.076 Q1546.4 158.687 1543.53 160.793 Q1540.68 162.9 1535.68 162.9 Q1533.6 162.9 1531.33 162.483 Q1529.08 162.09 1526.58 161.28 L1526.58 156.881 Q1528.95 158.108 1531.24 158.733 Q1533.53 159.335 1535.77 159.335 Q1538.78 159.335 1540.4 158.317 Q1542.02 157.275 1542.02 155.4 Q1542.02 153.664 1540.84 152.738 Q1539.69 151.812 1535.73 150.956 L1534.25 150.608 Q1530.29 149.775 1528.53 148.062 Q1526.77 146.326 1526.77 143.317 Q1526.77 139.659 1529.36 137.669 Q1531.95 135.678 1536.72 135.678 Q1539.08 135.678 1541.17 136.025 Q1543.25 136.372 1545.01 137.067 Z" fill="#000000" fill-rule="nonzero" fill-opacity="1" /><path clip-path="url(#clip800)" d="M1565.77 136.303 L1570.03 136.303 L1575.36 156.534 L1580.66 136.303 L1585.68 136.303 L1591.01 156.534 L1596.31 136.303 L1600.57 136.303 L1593.78 162.229 L1588.76 162.229 L1583.18 140.979 L1577.58 162.229 L1572.56 162.229 L1565.77 136.303 Z" fill="#000000" fill-rule="nonzero" fill-opacity="1" /><path clip-path="url(#clip800)" d="M1607.02 136.303 L1611.28 136.303 L1611.28 162.229 L1607.02 162.229 L1607.02 136.303 M1607.02 126.21 L1611.28 126.21 L1611.28 131.604 L1607.02 131.604 L1607.02 126.21 Z" fill="#000000" fill-rule="nonzero" fill-opacity="1" /><path clip-path="url(#clip800)" d="M1624.41 128.942 L1624.41 136.303 L1633.18 136.303 L1633.18 139.613 L1624.41 139.613 L1624.41 153.687 Q1624.41 156.858 1625.26 157.761 Q1626.14 158.664 1628.81 158.664 L1633.18 158.664 L1633.18 162.229 L1628.81 162.229 Q1623.88 162.229 1622 160.4 Q1620.13 158.548 1620.13 153.687 L1620.13 139.613 L1617 139.613 L1617 136.303 L1620.13 136.303 L1620.13 128.942 L1624.41 128.942 Z" fill="#000000" fill-rule="nonzero" fill-opacity="1" /><path clip-path="url(#clip800)" d="M1660.33 146.581 L1660.33 162.229 L1656.07 162.229 L1656.07 146.719 Q1656.07 143.039 1654.64 141.21 Q1653.2 139.382 1650.33 139.382 Q1646.88 139.382 1644.89 141.581 Q1642.9 143.78 1642.9 147.576 L1642.9 162.229 L1638.62 162.229 L1638.62 126.21 L1642.9 126.21 L1642.9 140.331 Q1644.43 137.993 1646.49 136.835 Q1648.57 135.678 1651.28 135.678 Q1655.75 135.678 1658.04 138.456 Q1660.33 141.21 1660.33 146.581 Z" fill="#000000" fill-rule="nonzero" fill-opacity="1" /><path clip-path="url(#clip800)" d="M1704.08 141.28 Q1705.68 138.409 1707.9 137.044 Q1710.13 135.678 1713.13 135.678 Q1717.19 135.678 1719.38 138.525 Q1721.58 141.349 1721.58 146.581 L1721.58 162.229 L1717.3 162.229 L1717.3 146.719 Q1717.3 142.993 1715.98 141.187 Q1714.66 139.382 1711.95 139.382 Q1708.64 139.382 1706.72 141.581 Q1704.8 143.78 1704.8 147.576 L1704.8 162.229 L1700.52 162.229 L1700.52 146.719 Q1700.52 142.969 1699.2 141.187 Q1697.88 139.382 1695.13 139.382 Q1691.86 139.382 1689.94 141.604 Q1688.02 143.803 1688.02 147.576 L1688.02 162.229 L1683.74 162.229 L1683.74 136.303 L1688.02 136.303 L1688.02 140.331 Q1689.48 137.946 1691.51 136.812 Q1693.55 135.678 1696.35 135.678 Q1699.18 135.678 1701.14 137.113 Q1703.13 138.548 1704.08 141.28 Z" fill="#000000" fill-rule="nonzero" fill-opacity="1" /><path clip-path="url(#clip800)" d="M1740.13 139.289 Q1736.7 139.289 1734.71 141.974 Q1732.72 144.636 1732.72 149.289 Q1732.72 153.942 1734.69 156.627 Q1736.68 159.289 1740.13 159.289 Q1743.53 159.289 1745.52 156.604 Q1747.51 153.918 1747.51 149.289 Q1747.51 144.682 1745.52 141.997 Q1743.53 139.289 1740.13 139.289 M1740.13 135.678 Q1745.68 135.678 1748.85 139.289 Q1752.02 142.9 1752.02 149.289 Q1752.02 155.655 1748.85 159.289 Q1745.68 162.9 1740.13 162.9 Q1734.55 162.9 1731.38 159.289 Q1728.23 155.655 1728.23 149.289 Q1728.23 142.9 1731.38 139.289 Q1734.55 135.678 1740.13 135.678 Z" fill="#000000" fill-rule="nonzero" fill-opacity="1" /><path clip-path="url(#clip800)" d="M1780.63 146.581 L1780.63 162.229 L1776.37 162.229 L1776.37 146.719 Q1776.37 143.039 1774.94 141.21 Q1773.5 139.382 1770.63 139.382 Q1767.19 139.382 1765.19 141.581 Q1763.2 143.78 1763.2 147.576 L1763.2 162.229 L1758.92 162.229 L1758.92 136.303 L1763.2 136.303 L1763.2 140.331 Q1764.73 137.993 1766.79 136.835 Q1768.87 135.678 1771.58 135.678 Q1776.05 135.678 1778.34 138.456 Q1780.63 141.21 1780.63 146.581 Z" fill="#000000" fill-rule="nonzero" fill-opacity="1" /><path clip-path="url(#clip800)" d="M1811.31 148.201 L1811.31 150.284 L1791.72 150.284 Q1792 154.682 1794.36 156.997 Q1796.75 159.289 1800.98 159.289 Q1803.43 159.289 1805.73 158.687 Q1808.04 158.085 1810.31 156.881 L1810.31 160.909 Q1808.02 161.881 1805.61 162.391 Q1803.2 162.9 1800.73 162.9 Q1794.52 162.9 1790.89 159.289 Q1787.28 155.678 1787.28 149.52 Q1787.28 143.155 1790.7 139.428 Q1794.15 135.678 1799.99 135.678 Q1805.22 135.678 1808.25 139.057 Q1811.31 142.414 1811.31 148.201 M1807.05 146.951 Q1807 143.456 1805.08 141.372 Q1803.18 139.289 1800.03 139.289 Q1796.47 139.289 1794.31 141.303 Q1792.19 143.317 1791.86 146.974 L1807.05 146.951 Z" fill="#000000" fill-rule="nonzero" fill-opacity="1" /><path clip-path="url(#clip800)" d="M1829.08 164.636 Q1827.28 169.266 1825.56 170.678 Q1823.85 172.09 1820.98 172.09 L1817.58 172.09 L1817.58 168.525 L1820.08 168.525 Q1821.84 168.525 1822.81 167.692 Q1823.78 166.858 1824.96 163.756 L1825.73 161.812 L1815.24 136.303 L1819.75 136.303 L1827.86 156.581 L1835.96 136.303 L1840.47 136.303 L1829.08 164.636 Z" fill="#000000" fill-rule="nonzero" fill-opacity="1" /><path clip-path="url(#clip800)" d="M1861.98 138.895 L1861.98 134.682 L1891.65 145.446 L1891.65 149.289 L1861.98 160.053 L1861.98 155.84 L1885.82 147.391 L1861.98 138.895 Z" fill="#000000" fill-rule="nonzero" fill-opacity="1" /><path clip-path="url(#clip800)" d="M1901.7 140.701 L1931.37 140.701 L1931.37 144.59 L1901.7 144.59 L1901.7 140.701 M1901.7 150.145 L1931.37 150.145 L1931.37 154.081 L1901.7 154.081 L1901.7 150.145 Z" fill="#000000" fill-rule="nonzero" fill-opacity="1" /><path clip-path="url(#clip800)" d="M1955.93 136.303 L1960.19 136.303 L1960.19 162.229 L1955.93 162.229 L1955.93 136.303 M1955.93 126.21 L1960.19 126.21 L1960.19 131.604 L1955.93 131.604 L1955.93 126.21 Z" fill="#000000" fill-rule="nonzero" fill-opacity="1" /><path clip-path="url(#clip800)" d="M1990.66 146.581 L1990.66 162.229 L1986.4 162.229 L1986.4 146.719 Q1986.4 143.039 1984.96 141.21 Q1983.53 139.382 1980.66 139.382 Q1977.21 139.382 1975.22 141.581 Q1973.23 143.78 1973.23 147.576 L1973.23 162.229 L1968.94 162.229 L1968.94 136.303 L1973.23 136.303 L1973.23 140.331 Q1974.75 137.993 1976.81 136.835 Q1978.9 135.678 1981.61 135.678 Q1986.07 135.678 1988.36 138.456 Q1990.66 141.21 1990.66 146.581 Z" fill="#000000" fill-rule="nonzero" fill-opacity="1" /><path clip-path="url(#clip800)" d="M1999.15 136.303 L2003.41 136.303 L2003.41 162.229 L1999.15 162.229 L1999.15 136.303 M1999.15 126.21 L2003.41 126.21 L2003.41 131.604 L1999.15 131.604 L1999.15 126.21 Z" fill="#000000" fill-rule="nonzero" fill-opacity="1" /><path clip-path="url(#clip800)" d="M2016.54 128.942 L2016.54 136.303 L2025.31 136.303 L2025.31 139.613 L2016.54 139.613 L2016.54 153.687 Q2016.54 156.858 2017.39 157.761 Q2018.27 158.664 2020.93 158.664 L2025.31 158.664 L2025.31 162.229 L2020.93 162.229 Q2016 162.229 2014.13 160.4 Q2012.25 158.548 2012.25 153.687 L2012.25 139.613 L2009.13 139.613 L2009.13 136.303 L2012.25 136.303 L2012.25 128.942 L2016.54 128.942 Z" fill="#000000" fill-rule="nonzero" fill-opacity="1" /><path clip-path="url(#clip800)" d="M2030.91 136.303 L2035.17 136.303 L2035.17 162.229 L2030.91 162.229 L2030.91 136.303 M2030.91 126.21 L2035.17 126.21 L2035.17 131.604 L2030.91 131.604 L2030.91 126.21 Z" fill="#000000" fill-rule="nonzero" fill-opacity="1" /><path clip-path="url(#clip800)" d="M2055.86 149.196 Q2050.7 149.196 2048.71 150.377 Q2046.72 151.557 2046.72 154.405 Q2046.72 156.673 2048.2 158.016 Q2049.71 159.335 2052.28 159.335 Q2055.82 159.335 2057.95 156.835 Q2060.1 154.312 2060.1 150.145 L2060.1 149.196 L2055.86 149.196 M2064.36 147.437 L2064.36 162.229 L2060.1 162.229 L2060.1 158.293 Q2058.64 160.655 2056.47 161.789 Q2054.29 162.9 2051.14 162.9 Q2047.16 162.9 2044.8 160.678 Q2042.46 158.432 2042.46 154.682 Q2042.46 150.307 2045.38 148.085 Q2048.32 145.863 2054.13 145.863 L2060.1 145.863 L2060.1 145.446 Q2060.1 142.507 2058.16 140.909 Q2056.23 139.289 2052.74 139.289 Q2050.52 139.289 2048.41 139.821 Q2046.3 140.354 2044.36 141.419 L2044.36 137.483 Q2046.7 136.581 2048.9 136.141 Q2051.1 135.678 2053.18 135.678 Q2058.8 135.678 2061.58 138.594 Q2064.36 141.511 2064.36 147.437 Z" fill="#000000" fill-rule="nonzero" fill-opacity="1" /><path clip-path="url(#clip800)" d="M2073.13 126.21 L2077.39 126.21 L2077.39 162.229 L2073.13 162.229 L2073.13 126.21 Z" fill="#000000" fill-rule="nonzero" fill-opacity="1" /><path clip-path="url(#clip800)" d="M2121.56 141.28 Q2123.16 138.409 2125.38 137.044 Q2127.6 135.678 2130.61 135.678 Q2134.66 135.678 2136.86 138.525 Q2139.06 141.349 2139.06 146.581 L2139.06 162.229 L2134.78 162.229 L2134.78 146.719 Q2134.78 142.993 2133.46 141.187 Q2132.14 139.382 2129.43 139.382 Q2126.12 139.382 2124.2 141.581 Q2122.28 143.78 2122.28 147.576 L2122.28 162.229 L2117.99 162.229 L2117.99 146.719 Q2117.99 142.969 2116.67 141.187 Q2115.35 139.382 2112.6 139.382 Q2109.34 139.382 2107.41 141.604 Q2105.49 143.803 2105.49 147.576 L2105.49 162.229 L2101.21 162.229 L2101.21 136.303 L2105.49 136.303 L2105.49 140.331 Q2106.95 137.946 2108.99 136.812 Q2111.03 135.678 2113.83 135.678 Q2116.65 135.678 2118.62 137.113 Q2120.61 138.548 2121.56 141.28 Z" fill="#000000" fill-rule="nonzero" fill-opacity="1" /><path clip-path="url(#clip800)" d="M2157.6 139.289 Q2154.17 139.289 2152.18 141.974 Q2150.19 144.636 2150.19 149.289 Q2150.19 153.942 2152.16 156.627 Q2154.15 159.289 2157.6 159.289 Q2161 159.289 2162.99 156.604 Q2164.98 153.918 2164.98 149.289 Q2164.98 144.682 2162.99 141.997 Q2161 139.289 2157.6 139.289 M2157.6 135.678 Q2163.16 135.678 2166.33 139.289 Q2169.5 142.9 2169.5 149.289 Q2169.5 155.655 2166.33 159.289 Q2163.16 162.9 2157.6 162.9 Q2152.02 162.9 2148.85 159.289 Q2145.7 155.655 2145.7 149.289 Q2145.7 142.9 2148.85 139.289 Q2152.02 135.678 2157.6 135.678 Z" fill="#000000" fill-rule="nonzero" fill-opacity="1" /><path clip-path="url(#clip800)" d="M2198.11 146.581 L2198.11 162.229 L2193.85 162.229 L2193.85 146.719 Q2193.85 143.039 2192.41 141.21 Q2190.98 139.382 2188.11 139.382 Q2184.66 139.382 2182.67 141.581 Q2180.68 143.78 2180.68 147.576 L2180.68 162.229 L2176.4 162.229 L2176.4 136.303 L2180.68 136.303 L2180.68 140.331 Q2182.21 137.993 2184.27 136.835 Q2186.35 135.678 2189.06 135.678 Q2193.53 135.678 2195.82 138.456 Q2198.11 141.21 2198.11 146.581 Z" fill="#000000" fill-rule="nonzero" fill-opacity="1" /><path clip-path="url(#clip800)" d="M2228.78 148.201 L2228.78 150.284 L2209.2 150.284 Q2209.47 154.682 2211.84 156.997 Q2214.22 159.289 2218.46 159.289 Q2220.91 159.289 2223.2 158.687 Q2225.52 158.085 2227.78 156.881 L2227.78 160.909 Q2225.49 161.881 2223.09 162.391 Q2220.68 162.9 2218.2 162.9 Q2212 162.9 2208.36 159.289 Q2204.75 155.678 2204.75 149.52 Q2204.75 143.155 2208.18 139.428 Q2211.63 135.678 2217.46 135.678 Q2222.69 135.678 2225.72 139.057 Q2228.78 142.414 2228.78 148.201 M2224.52 146.951 Q2224.47 143.456 2222.55 141.372 Q2220.65 139.289 2217.51 139.289 Q2213.94 139.289 2211.79 141.303 Q2209.66 143.317 2209.34 146.974 L2224.52 146.951 Z" fill="#000000" fill-rule="nonzero" fill-opacity="1" /><path clip-path="url(#clip800)" d="M2246.56 164.636 Q2244.75 169.266 2243.04 170.678 Q2241.33 172.09 2238.46 172.09 L2235.05 172.09 L2235.05 168.525 L2237.55 168.525 Q2239.31 168.525 2240.28 167.692 Q2241.26 166.858 2242.44 163.756 L2243.2 161.812 L2232.72 136.303 L2237.23 136.303 L2245.33 156.581 L2253.43 136.303 L2257.95 136.303 L2246.56 164.636 Z" fill="#000000" fill-rule="nonzero" fill-opacity="1" /></svg>
