<?xml version="1.0" encoding="utf-8"?>
<svg xmlns="http://www.w3.org/2000/svg" xmlns:xlink="http://www.w3.org/1999/xlink" width="672" height="480" viewBox="0 0 2688 1920">
<defs>
  <clipPath id="clip450">
    <rect x="0" y="0" width="2688" height="1920"/>
  </clipPath>
</defs>
<path clip-path="url(#clip450)" d="
M0 1920 L2688 1920 L2688 0 L0 0  Z
  " fill="#ffffff" fill-rule="evenodd" fill-opacity="1"/>
<defs>
  <clipPath id="clip451">
    <rect x="537" y="0" width="1883" height="1883"/>
  </clipPath>
</defs>
<path clip-path="url(#clip450)" d="
M226.141 1734.12 L2640.76 1734.12 L2640.76 47.2441 L226.141 47.2441  Z
  " fill="#ffffff" fill-rule="evenodd" fill-opacity="1"/>
<defs>
  <clipPath id="clip452">
    <rect x="226" y="47" width="2416" height="1688"/>
  </clipPath>
</defs>
<polyline clip-path="url(#clip452)" style="stroke:#000000; stroke-linecap:round; stroke-linejoin:round; stroke-width:2; stroke-opacity:0.1; fill:none" points="
  294.388,1734.12 294.388,47.2441 
  "/>
<polyline clip-path="url(#clip452)" style="stroke:#000000; stroke-linecap:round; stroke-linejoin:round; stroke-width:2; stroke-opacity:0.1; fill:none" points="
  749.994,1734.12 749.994,47.2441 
  "/>
<polyline clip-path="url(#clip452)" style="stroke:#000000; stroke-linecap:round; stroke-linejoin:round; stroke-width:2; stroke-opacity:0.1; fill:none" points="
  1205.6,1734.12 1205.6,47.2441 
  "/>
<polyline clip-path="url(#clip452)" style="stroke:#000000; stroke-linecap:round; stroke-linejoin:round; stroke-width:2; stroke-opacity:0.1; fill:none" points="
  1661.21,1734.12 1661.21,47.2441 
  "/>
<polyline clip-path="url(#clip452)" style="stroke:#000000; stroke-linecap:round; stroke-linejoin:round; stroke-width:2; stroke-opacity:0.1; fill:none" points="
  2116.81,1734.12 2116.81,47.2441 
  "/>
<polyline clip-path="url(#clip452)" style="stroke:#000000; stroke-linecap:round; stroke-linejoin:round; stroke-width:2; stroke-opacity:0.1; fill:none" points="
  2572.42,1734.12 2572.42,47.2441 
  "/>
<polyline clip-path="url(#clip450)" style="stroke:#000000; stroke-linecap:round; stroke-linejoin:round; stroke-width:4; stroke-opacity:1; fill:none" points="
  226.141,1734.12 2640.76,1734.12 
  "/>
<polyline clip-path="url(#clip450)" style="stroke:#000000; stroke-linecap:round; stroke-linejoin:round; stroke-width:4; stroke-opacity:1; fill:none" points="
  294.388,1734.12 294.388,1715.22 
  "/>
<polyline clip-path="url(#clip450)" style="stroke:#000000; stroke-linecap:round; stroke-linejoin:round; stroke-width:4; stroke-opacity:1; fill:none" points="
  749.994,1734.12 749.994,1715.22 
  "/>
<polyline clip-path="url(#clip450)" style="stroke:#000000; stroke-linecap:round; stroke-linejoin:round; stroke-width:4; stroke-opacity:1; fill:none" points="
  1205.6,1734.12 1205.6,1715.22 
  "/>
<polyline clip-path="url(#clip450)" style="stroke:#000000; stroke-linecap:round; stroke-linejoin:round; stroke-width:4; stroke-opacity:1; fill:none" points="
  1661.21,1734.12 1661.21,1715.22 
  "/>
<polyline clip-path="url(#clip450)" style="stroke:#000000; stroke-linecap:round; stroke-linejoin:round; stroke-width:4; stroke-opacity:1; fill:none" points="
  2116.81,1734.12 2116.81,1715.22 
  "/>
<polyline clip-path="url(#clip450)" style="stroke:#000000; stroke-linecap:round; stroke-linejoin:round; stroke-width:4; stroke-opacity:1; fill:none" points="
  2572.42,1734.12 2572.42,1715.22 
  "/>
<path clip-path="url(#clip450)" d="M294.388 1767.34 Q290.777 1767.34 288.948 1770.9 Q287.142 1774.45 287.142 1781.58 Q287.142 1788.68 288.948 1792.25 Q290.777 1795.79 294.388 1795.79 Q298.022 1795.79 299.827 1792.25 Q301.656 1788.68 301.656 1781.58 Q301.656 1774.45 299.827 1770.9 Q298.022 1767.34 294.388 1767.34 M294.388 1763.64 Q300.198 1763.64 303.253 1768.24 Q306.332 1772.83 306.332 1781.58 Q306.332 1790.3 303.253 1794.91 Q300.198 1799.49 294.388 1799.49 Q288.577 1799.49 285.499 1794.91 Q282.443 1790.3 282.443 1781.58 Q282.443 1772.83 285.499 1768.24 Q288.577 1763.64 294.388 1763.64 Z" fill="#000000" fill-rule="evenodd" fill-opacity="1" /><path clip-path="url(#clip450)" d="M740.271 1764.26 L758.628 1764.26 L758.628 1768.2 L744.554 1768.2 L744.554 1776.67 Q745.572 1776.32 746.591 1776.16 Q747.609 1775.97 748.628 1775.97 Q754.415 1775.97 757.795 1779.15 Q761.174 1782.32 761.174 1787.73 Q761.174 1793.31 757.702 1796.41 Q754.23 1799.49 747.91 1799.49 Q745.734 1799.49 743.466 1799.12 Q741.221 1798.75 738.813 1798.01 L738.813 1793.31 Q740.896 1794.45 743.119 1795 Q745.341 1795.56 747.818 1795.56 Q751.822 1795.56 754.16 1793.45 Q756.498 1791.34 756.498 1787.73 Q756.498 1784.12 754.16 1782.02 Q751.822 1779.91 747.818 1779.91 Q745.943 1779.91 744.068 1780.33 Q742.216 1780.74 740.271 1781.62 L740.271 1764.26 Z" fill="#000000" fill-rule="evenodd" fill-opacity="1" /><path clip-path="url(#clip450)" d="M1180.29 1794.89 L1187.93 1794.89 L1187.93 1768.52 L1179.62 1770.19 L1179.62 1765.93 L1187.88 1764.26 L1192.56 1764.26 L1192.56 1794.89 L1200.19 1794.89 L1200.19 1798.82 L1180.29 1798.82 L1180.29 1794.89 Z" fill="#000000" fill-rule="evenodd" fill-opacity="1" /><path clip-path="url(#clip450)" d="M1219.64 1767.34 Q1216.03 1767.34 1214.2 1770.9 Q1212.39 1774.45 1212.39 1781.58 Q1212.39 1788.68 1214.2 1792.25 Q1216.03 1795.79 1219.64 1795.79 Q1223.27 1795.79 1225.08 1792.25 Q1226.91 1788.68 1226.91 1781.58 Q1226.91 1774.45 1225.08 1770.9 Q1223.27 1767.34 1219.64 1767.34 M1219.64 1763.64 Q1225.45 1763.64 1228.5 1768.24 Q1231.58 1772.83 1231.58 1781.58 Q1231.58 1790.3 1228.5 1794.91 Q1225.45 1799.49 1219.64 1799.49 Q1213.83 1799.49 1210.75 1794.91 Q1207.69 1790.3 1207.69 1781.58 Q1207.69 1772.83 1210.75 1768.24 Q1213.83 1763.64 1219.64 1763.64 Z" fill="#000000" fill-rule="evenodd" fill-opacity="1" /><path clip-path="url(#clip450)" d="M1636.39 1794.89 L1644.03 1794.89 L1644.03 1768.52 L1635.72 1770.19 L1635.72 1765.93 L1643.98 1764.26 L1648.66 1764.26 L1648.66 1794.89 L1656.3 1794.89 L1656.3 1798.82 L1636.39 1798.82 L1636.39 1794.89 Z" fill="#000000" fill-rule="evenodd" fill-opacity="1" /><path clip-path="url(#clip450)" d="M1665.79 1764.26 L1684.15 1764.26 L1684.15 1768.2 L1670.07 1768.2 L1670.07 1776.67 Q1671.09 1776.32 1672.11 1776.16 Q1673.13 1775.97 1674.15 1775.97 Q1679.93 1775.97 1683.31 1779.15 Q1686.69 1782.32 1686.69 1787.73 Q1686.69 1793.31 1683.22 1796.41 Q1679.75 1799.49 1673.43 1799.49 Q1671.25 1799.49 1668.98 1799.12 Q1666.74 1798.75 1664.33 1798.01 L1664.33 1793.31 Q1666.41 1794.45 1668.64 1795 Q1670.86 1795.56 1673.34 1795.56 Q1677.34 1795.56 1679.68 1793.45 Q1682.02 1791.34 1682.02 1787.73 Q1682.02 1784.12 1679.68 1782.02 Q1677.34 1779.91 1673.34 1779.91 Q1671.46 1779.91 1669.59 1780.33 Q1667.73 1780.74 1665.79 1781.62 L1665.79 1764.26 Z" fill="#000000" fill-rule="evenodd" fill-opacity="1" /><path clip-path="url(#clip450)" d="M2095.58 1794.89 L2111.9 1794.89 L2111.9 1798.82 L2089.96 1798.82 L2089.96 1794.89 Q2092.62 1792.13 2097.21 1787.5 Q2101.81 1782.85 2102.99 1781.51 Q2105.24 1778.98 2106.12 1777.25 Q2107.02 1775.49 2107.02 1773.8 Q2107.02 1771.04 2105.08 1769.31 Q2103.15 1767.57 2100.05 1767.57 Q2097.85 1767.57 2095.4 1768.34 Q2092.97 1769.1 2090.19 1770.65 L2090.19 1765.93 Q2093.02 1764.79 2095.47 1764.21 Q2097.92 1763.64 2099.96 1763.64 Q2105.33 1763.64 2108.52 1766.32 Q2111.72 1769.01 2111.72 1773.5 Q2111.72 1775.63 2110.91 1777.55 Q2110.12 1779.45 2108.02 1782.04 Q2107.44 1782.71 2104.33 1785.93 Q2101.23 1789.12 2095.58 1794.89 Z" fill="#000000" fill-rule="evenodd" fill-opacity="1" /><path clip-path="url(#clip450)" d="M2131.72 1767.34 Q2128.11 1767.34 2126.28 1770.9 Q2124.47 1774.45 2124.47 1781.58 Q2124.47 1788.68 2126.28 1792.25 Q2128.11 1795.79 2131.72 1795.79 Q2135.35 1795.79 2137.16 1792.25 Q2138.99 1788.68 2138.99 1781.58 Q2138.99 1774.45 2137.16 1770.9 Q2135.35 1767.34 2131.72 1767.34 M2131.72 1763.64 Q2137.53 1763.64 2140.58 1768.24 Q2143.66 1772.83 2143.66 1781.58 Q2143.66 1790.3 2140.58 1794.91 Q2137.53 1799.49 2131.72 1799.49 Q2125.91 1799.49 2122.83 1794.91 Q2119.77 1790.3 2119.77 1781.58 Q2119.77 1772.83 2122.83 1768.24 Q2125.91 1763.64 2131.72 1763.64 Z" fill="#000000" fill-rule="evenodd" fill-opacity="1" /><path clip-path="url(#clip450)" d="M2551.69 1794.89 L2568.01 1794.89 L2568.01 1798.82 L2546.06 1798.82 L2546.06 1794.89 Q2548.73 1792.13 2553.31 1787.5 Q2557.92 1782.85 2559.1 1781.51 Q2561.34 1778.98 2562.22 1777.25 Q2563.12 1775.49 2563.12 1773.8 Q2563.12 1771.04 2561.18 1769.31 Q2559.26 1767.57 2556.16 1767.57 Q2553.96 1767.57 2551.5 1768.34 Q2549.07 1769.1 2546.3 1770.65 L2546.3 1765.93 Q2549.12 1764.79 2551.57 1764.21 Q2554.03 1763.64 2556.06 1763.64 Q2561.43 1763.64 2564.63 1766.32 Q2567.82 1769.01 2567.82 1773.5 Q2567.82 1775.63 2567.01 1777.55 Q2566.23 1779.45 2564.12 1782.04 Q2563.54 1782.71 2560.44 1785.93 Q2557.34 1789.12 2551.69 1794.89 Z" fill="#000000" fill-rule="evenodd" fill-opacity="1" /><path clip-path="url(#clip450)" d="M2577.87 1764.26 L2596.23 1764.26 L2596.23 1768.2 L2582.15 1768.2 L2582.15 1776.67 Q2583.17 1776.32 2584.19 1776.16 Q2585.21 1775.97 2586.23 1775.97 Q2592.01 1775.97 2595.39 1779.15 Q2598.77 1782.32 2598.77 1787.73 Q2598.77 1793.31 2595.3 1796.41 Q2591.83 1799.49 2585.51 1799.49 Q2583.33 1799.49 2581.06 1799.12 Q2578.82 1798.75 2576.41 1798.01 L2576.41 1793.31 Q2578.49 1794.45 2580.72 1795 Q2582.94 1795.56 2585.42 1795.56 Q2589.42 1795.56 2591.76 1793.45 Q2594.1 1791.34 2594.1 1787.73 Q2594.1 1784.12 2591.76 1782.02 Q2589.42 1779.91 2585.42 1779.91 Q2583.54 1779.91 2581.67 1780.33 Q2579.81 1780.74 2577.87 1781.62 L2577.87 1764.26 Z" fill="#000000" fill-rule="evenodd" fill-opacity="1" /><path clip-path="url(#clip450)" d="M1159.01 1842.11 L1150.29 1865.76 L1167.76 1865.76 L1159.01 1842.11 M1155.38 1835.78 L1162.67 1835.78 L1180.78 1883.3 L1174.09 1883.3 L1169.76 1871.11 L1148.34 1871.11 L1144.02 1883.3 L1137.24 1883.3 L1155.38 1835.78 Z" fill="#000000" fill-rule="evenodd" fill-opacity="1" /><path clip-path="url(#clip450)" d="M1217.09 1861.78 L1217.09 1883.3 L1211.24 1883.3 L1211.24 1861.98 Q1211.24 1856.92 1209.26 1854.4 Q1207.29 1851.89 1203.34 1851.89 Q1198.6 1851.89 1195.86 1854.91 Q1193.13 1857.93 1193.13 1863.15 L1193.13 1883.3 L1187.24 1883.3 L1187.24 1847.65 L1193.13 1847.65 L1193.13 1853.19 Q1195.23 1849.98 1198.06 1848.39 Q1200.92 1846.79 1204.65 1846.79 Q1210.79 1846.79 1213.94 1850.61 Q1217.09 1854.4 1217.09 1861.78 Z" fill="#000000" fill-rule="evenodd" fill-opacity="1" /><path clip-path="url(#clip450)" d="M1252.23 1865.06 Q1252.23 1858.7 1249.59 1855.2 Q1246.98 1851.7 1242.24 1851.7 Q1237.53 1851.7 1234.89 1855.2 Q1232.28 1858.7 1232.28 1865.06 Q1232.28 1871.4 1234.89 1874.9 Q1237.53 1878.4 1242.24 1878.4 Q1246.98 1878.4 1249.59 1874.9 Q1252.23 1871.4 1252.23 1865.06 M1258.09 1878.88 Q1258.09 1887.98 1254.05 1892.4 Q1250 1896.86 1241.67 1896.86 Q1238.58 1896.86 1235.84 1896.38 Q1233.1 1895.94 1230.53 1894.98 L1230.53 1889.28 Q1233.1 1890.69 1235.62 1891.35 Q1238.13 1892.02 1240.74 1892.02 Q1246.5 1892.02 1249.37 1889 Q1252.23 1886.01 1252.23 1879.93 L1252.23 1877.03 Q1250.42 1880.18 1247.59 1881.74 Q1244.75 1883.3 1240.81 1883.3 Q1234.25 1883.3 1230.24 1878.3 Q1226.23 1873.31 1226.23 1865.06 Q1226.23 1856.79 1230.24 1851.79 Q1234.25 1846.79 1240.81 1846.79 Q1244.75 1846.79 1247.59 1848.35 Q1250.42 1849.91 1252.23 1853.06 L1252.23 1847.65 L1258.09 1847.65 L1258.09 1878.88 Z" fill="#000000" fill-rule="evenodd" fill-opacity="1" /><path clip-path="url(#clip450)" d="M1270.15 1833.78 L1276.01 1833.78 L1276.01 1883.3 L1270.15 1883.3 L1270.15 1833.78 Z" fill="#000000" fill-rule="evenodd" fill-opacity="1" /><path clip-path="url(#clip450)" d="M1318.75 1864.01 L1318.75 1866.88 L1291.83 1866.88 Q1292.21 1872.92 1295.46 1876.11 Q1298.73 1879.26 1304.56 1879.26 Q1307.93 1879.26 1311.08 1878.43 Q1314.27 1877.6 1317.39 1875.95 L1317.39 1881.49 Q1314.23 1882.82 1310.92 1883.52 Q1307.61 1884.22 1304.21 1884.22 Q1295.68 1884.22 1290.68 1879.26 Q1285.72 1874.29 1285.72 1865.83 Q1285.72 1857.07 1290.43 1851.95 Q1295.17 1846.79 1303.19 1846.79 Q1310.38 1846.79 1314.55 1851.44 Q1318.75 1856.06 1318.75 1864.01 M1312.9 1862.29 Q1312.83 1857.49 1310.19 1854.62 Q1307.58 1851.76 1303.25 1851.76 Q1298.35 1851.76 1295.39 1854.53 Q1292.46 1857.3 1292.02 1862.33 L1312.9 1862.29 Z" fill="#000000" fill-rule="evenodd" fill-opacity="1" /><path clip-path="url(#clip450)" d="M1362.9 1851.76 Q1358.19 1851.76 1355.45 1855.45 Q1352.72 1859.11 1352.72 1865.51 Q1352.72 1871.91 1355.42 1875.6 Q1358.16 1879.26 1362.9 1879.26 Q1367.58 1879.26 1370.32 1875.57 Q1373.05 1871.87 1373.05 1865.51 Q1373.05 1859.17 1370.32 1855.48 Q1367.58 1851.76 1362.9 1851.76 M1362.9 1846.79 Q1370.54 1846.79 1374.9 1851.76 Q1379.26 1856.72 1379.26 1865.51 Q1379.26 1874.26 1374.9 1879.26 Q1370.54 1884.22 1362.9 1884.22 Q1355.23 1884.22 1350.87 1879.26 Q1346.54 1874.26 1346.54 1865.51 Q1346.54 1856.72 1350.87 1851.76 Q1355.23 1846.79 1362.9 1846.79 Z" fill="#000000" fill-rule="evenodd" fill-opacity="1" /><path clip-path="url(#clip450)" d="M1407.01 1833.78 L1407.01 1838.65 L1401.41 1838.65 Q1398.26 1838.65 1397.02 1839.92 Q1395.81 1841.19 1395.81 1844.5 L1395.81 1847.65 L1405.46 1847.65 L1405.46 1852.2 L1395.81 1852.2 L1395.81 1883.3 L1389.92 1883.3 L1389.92 1852.2 L1384.32 1852.2 L1384.32 1847.65 L1389.92 1847.65 L1389.92 1845.17 Q1389.92 1839.22 1392.69 1836.51 Q1395.46 1833.78 1401.48 1833.78 L1407.01 1833.78 Z" fill="#000000" fill-rule="evenodd" fill-opacity="1" /><path clip-path="url(#clip450)" d="M1448.84 1865.38 Q1441.74 1865.38 1439 1867 Q1436.27 1868.63 1436.27 1872.54 Q1436.27 1875.66 1438.3 1877.51 Q1440.37 1879.32 1443.9 1879.32 Q1448.77 1879.32 1451.7 1875.88 Q1454.66 1872.42 1454.66 1866.69 L1454.66 1865.38 L1448.84 1865.38 M1460.52 1862.96 L1460.52 1883.3 L1454.66 1883.3 L1454.66 1877.89 Q1452.66 1881.14 1449.66 1882.7 Q1446.67 1884.22 1442.34 1884.22 Q1436.87 1884.22 1433.62 1881.17 Q1430.41 1878.08 1430.41 1872.92 Q1430.41 1866.91 1434.42 1863.85 Q1438.46 1860.8 1446.45 1860.8 L1454.66 1860.8 L1454.66 1860.23 Q1454.66 1856.18 1451.99 1853.99 Q1449.35 1851.76 1444.54 1851.76 Q1441.48 1851.76 1438.59 1852.49 Q1435.69 1853.22 1433.02 1854.69 L1433.02 1849.28 Q1436.23 1848.03 1439.26 1847.43 Q1442.28 1846.79 1445.15 1846.79 Q1452.88 1846.79 1456.7 1850.8 Q1460.52 1854.81 1460.52 1862.96 Z" fill="#000000" fill-rule="evenodd" fill-opacity="1" /><path clip-path="url(#clip450)" d="M1478.37 1837.53 L1478.37 1847.65 L1490.44 1847.65 L1490.44 1852.2 L1478.37 1852.2 L1478.37 1871.56 Q1478.37 1875.92 1479.55 1877.16 Q1480.76 1878.4 1484.42 1878.4 L1490.44 1878.4 L1490.44 1883.3 L1484.42 1883.3 Q1477.64 1883.3 1475.06 1880.79 Q1472.49 1878.24 1472.49 1871.56 L1472.49 1852.2 L1468.19 1852.2 L1468.19 1847.65 L1472.49 1847.65 L1472.49 1837.53 L1478.37 1837.53 Z" fill="#000000" fill-rule="evenodd" fill-opacity="1" /><path clip-path="url(#clip450)" d="M1503.93 1837.53 L1503.93 1847.65 L1516 1847.65 L1516 1852.2 L1503.93 1852.2 L1503.93 1871.56 Q1503.93 1875.92 1505.11 1877.16 Q1506.32 1878.4 1509.98 1878.4 L1516 1878.4 L1516 1883.3 L1509.98 1883.3 Q1503.2 1883.3 1500.62 1880.79 Q1498.04 1878.24 1498.04 1871.56 L1498.04 1852.2 L1493.75 1852.2 L1493.75 1847.65 L1498.04 1847.65 L1498.04 1837.53 L1503.93 1837.53 Z" fill="#000000" fill-rule="evenodd" fill-opacity="1" /><path clip-path="url(#clip450)" d="M1539.9 1865.38 Q1532.8 1865.38 1530.06 1867 Q1527.33 1868.63 1527.33 1872.54 Q1527.33 1875.66 1529.36 1877.51 Q1531.43 1879.32 1534.97 1879.32 Q1539.84 1879.32 1542.76 1875.88 Q1545.72 1872.42 1545.72 1866.69 L1545.72 1865.38 L1539.9 1865.38 M1551.58 1862.96 L1551.58 1883.3 L1545.72 1883.3 L1545.72 1877.89 Q1543.72 1881.14 1540.73 1882.7 Q1537.73 1884.22 1533.41 1884.22 Q1527.93 1884.22 1524.68 1881.17 Q1521.47 1878.08 1521.47 1872.92 Q1521.47 1866.91 1525.48 1863.85 Q1529.52 1860.8 1537.51 1860.8 L1545.72 1860.8 L1545.72 1860.23 Q1545.72 1856.18 1543.05 1853.99 Q1540.41 1851.76 1535.6 1851.76 Q1532.55 1851.76 1529.65 1852.49 Q1526.75 1853.22 1524.08 1854.69 L1524.08 1849.28 Q1527.29 1848.03 1530.32 1847.43 Q1533.34 1846.79 1536.21 1846.79 Q1543.94 1846.79 1547.76 1850.8 Q1551.58 1854.81 1551.58 1862.96 Z" fill="#000000" fill-rule="evenodd" fill-opacity="1" /><path clip-path="url(#clip450)" d="M1589.3 1849.02 L1589.3 1854.5 Q1586.81 1853.13 1584.3 1852.46 Q1581.82 1851.76 1579.27 1851.76 Q1573.57 1851.76 1570.42 1855.39 Q1567.27 1858.98 1567.27 1865.51 Q1567.27 1872.03 1570.42 1875.66 Q1573.57 1879.26 1579.27 1879.26 Q1581.82 1879.26 1584.3 1878.59 Q1586.81 1877.89 1589.3 1876.52 L1589.3 1881.93 Q1586.85 1883.08 1584.2 1883.65 Q1581.59 1884.22 1578.63 1884.22 Q1570.58 1884.22 1565.84 1879.16 Q1561.1 1874.1 1561.1 1865.51 Q1561.1 1856.79 1565.87 1851.79 Q1570.68 1846.79 1579.02 1846.79 Q1581.72 1846.79 1584.3 1847.37 Q1586.88 1847.91 1589.3 1849.02 Z" fill="#000000" fill-rule="evenodd" fill-opacity="1" /><path clip-path="url(#clip450)" d="M1599.26 1833.78 L1605.15 1833.78 L1605.15 1863.03 L1622.62 1847.65 L1630.1 1847.65 L1611.19 1864.33 L1630.9 1883.3 L1623.26 1883.3 L1605.15 1865.89 L1605.15 1883.3 L1599.26 1883.3 L1599.26 1833.78 Z" fill="#000000" fill-rule="evenodd" fill-opacity="1" /><path clip-path="url(#clip450)" d="M1657.41 1833.78 L1670.91 1833.78 L1670.91 1838.33 L1663.27 1838.33 L1663.27 1887.34 L1670.91 1887.34 L1670.91 1891.89 L1657.41 1891.89 L1657.41 1833.78 Z" fill="#000000" fill-rule="evenodd" fill-opacity="1" /><path clip-path="url(#clip450)" d="M1693.54 1839.03 Q1690.99 1839.03 1689.24 1840.81 Q1687.49 1842.56 1687.49 1845.11 Q1687.49 1847.62 1689.24 1849.37 Q1690.99 1851.09 1693.54 1851.09 Q1696.08 1851.09 1697.83 1849.37 Q1699.58 1847.62 1699.58 1845.11 Q1699.58 1842.59 1697.8 1840.81 Q1696.05 1839.03 1693.54 1839.03 M1693.54 1834.92 Q1695.57 1834.92 1697.45 1835.72 Q1699.33 1836.48 1700.7 1837.95 Q1702.16 1839.38 1702.89 1841.19 Q1703.62 1843.01 1703.62 1845.11 Q1703.62 1849.31 1700.66 1852.24 Q1697.74 1855.13 1693.47 1855.13 Q1689.17 1855.13 1686.31 1852.27 Q1683.45 1849.4 1683.45 1845.11 Q1683.45 1840.84 1686.37 1837.88 Q1689.3 1834.92 1693.54 1834.92 Z" fill="#000000" fill-rule="evenodd" fill-opacity="1" /><path clip-path="url(#clip450)" d="M1729.66 1833.78 L1729.66 1891.89 L1716.17 1891.89 L1716.17 1887.34 L1723.77 1887.34 L1723.77 1838.33 L1716.17 1838.33 L1716.17 1833.78 L1729.66 1833.78 Z" fill="#000000" fill-rule="evenodd" fill-opacity="1" /><polyline clip-path="url(#clip452)" style="stroke:#000000; stroke-linecap:round; stroke-linejoin:round; stroke-width:2; stroke-opacity:0.1; fill:none" points="
  226.141,1455.43 2640.76,1455.43 
  "/>
<polyline clip-path="url(#clip452)" style="stroke:#000000; stroke-linecap:round; stroke-linejoin:round; stroke-width:2; stroke-opacity:0.1; fill:none" points="
  226.141,1094.82 2640.76,1094.82 
  "/>
<polyline clip-path="url(#clip452)" style="stroke:#000000; stroke-linecap:round; stroke-linejoin:round; stroke-width:2; stroke-opacity:0.1; fill:none" points="
  226.141,734.206 2640.76,734.206 
  "/>
<polyline clip-path="url(#clip452)" style="stroke:#000000; stroke-linecap:round; stroke-linejoin:round; stroke-width:2; stroke-opacity:0.1; fill:none" points="
  226.141,373.594 2640.76,373.594 
  "/>
<polyline clip-path="url(#clip450)" style="stroke:#000000; stroke-linecap:round; stroke-linejoin:round; stroke-width:4; stroke-opacity:1; fill:none" points="
  226.141,1734.12 226.141,47.2441 
  "/>
<polyline clip-path="url(#clip450)" style="stroke:#000000; stroke-linecap:round; stroke-linejoin:round; stroke-width:4; stroke-opacity:1; fill:none" points="
  226.141,1455.43 245.038,1455.43 
  "/>
<polyline clip-path="url(#clip450)" style="stroke:#000000; stroke-linecap:round; stroke-linejoin:round; stroke-width:4; stroke-opacity:1; fill:none" points="
  226.141,1094.82 245.038,1094.82 
  "/>
<polyline clip-path="url(#clip450)" style="stroke:#000000; stroke-linecap:round; stroke-linejoin:round; stroke-width:4; stroke-opacity:1; fill:none" points="
  226.141,734.206 245.038,734.206 
  "/>
<polyline clip-path="url(#clip450)" style="stroke:#000000; stroke-linecap:round; stroke-linejoin:round; stroke-width:4; stroke-opacity:1; fill:none" points="
  226.141,373.594 245.038,373.594 
  "/>
<path clip-path="url(#clip450)" d="M128.645 1441.23 Q125.034 1441.23 123.205 1444.79 Q121.4 1448.34 121.4 1455.47 Q121.4 1462.57 123.205 1466.14 Q125.034 1469.68 128.645 1469.68 Q132.279 1469.68 134.085 1466.14 Q135.913 1462.57 135.913 1455.47 Q135.913 1448.34 134.085 1444.79 Q132.279 1441.23 128.645 1441.23 M128.645 1437.53 Q134.455 1437.53 137.511 1442.13 Q140.589 1446.72 140.589 1455.47 Q140.589 1464.19 137.511 1468.8 Q134.455 1473.38 128.645 1473.38 Q122.835 1473.38 119.756 1468.8 Q116.701 1464.19 116.701 1455.47 Q116.701 1446.72 119.756 1442.13 Q122.835 1437.53 128.645 1437.53 Z" fill="#000000" fill-rule="evenodd" fill-opacity="1" /><path clip-path="url(#clip450)" d="M148.807 1466.83 L153.691 1466.83 L153.691 1472.71 L148.807 1472.71 L148.807 1466.83 Z" fill="#000000" fill-rule="evenodd" fill-opacity="1" /><path clip-path="url(#clip450)" d="M173.876 1441.23 Q170.265 1441.23 168.436 1444.79 Q166.631 1448.34 166.631 1455.47 Q166.631 1462.57 168.436 1466.14 Q170.265 1469.68 173.876 1469.68 Q177.51 1469.68 179.316 1466.14 Q181.145 1462.57 181.145 1455.47 Q181.145 1448.34 179.316 1444.79 Q177.51 1441.23 173.876 1441.23 M173.876 1437.53 Q179.686 1437.53 182.742 1442.13 Q185.821 1446.72 185.821 1455.47 Q185.821 1464.19 182.742 1468.8 Q179.686 1473.38 173.876 1473.38 Q168.066 1473.38 164.987 1468.8 Q161.932 1464.19 161.932 1455.47 Q161.932 1446.72 164.987 1442.13 Q168.066 1437.53 173.876 1437.53 Z" fill="#000000" fill-rule="evenodd" fill-opacity="1" /><path clip-path="url(#clip450)" d="M130.242 1080.62 Q126.631 1080.62 124.802 1084.18 Q122.997 1087.72 122.997 1094.85 Q122.997 1101.96 124.802 1105.52 Q126.631 1109.07 130.242 1109.07 Q133.876 1109.07 135.682 1105.52 Q137.511 1101.96 137.511 1094.85 Q137.511 1087.72 135.682 1084.18 Q133.876 1080.62 130.242 1080.62 M130.242 1076.91 Q136.052 1076.91 139.108 1081.52 Q142.187 1086.1 142.187 1094.85 Q142.187 1103.58 139.108 1108.19 Q136.052 1112.77 130.242 1112.77 Q124.432 1112.77 121.353 1108.19 Q118.298 1103.58 118.298 1094.85 Q118.298 1086.1 121.353 1081.52 Q124.432 1076.91 130.242 1076.91 Z" fill="#000000" fill-rule="evenodd" fill-opacity="1" /><path clip-path="url(#clip450)" d="M150.404 1106.22 L155.288 1106.22 L155.288 1112.1 L150.404 1112.1 L150.404 1106.22 Z" fill="#000000" fill-rule="evenodd" fill-opacity="1" /><path clip-path="url(#clip450)" d="M169.501 1108.16 L185.821 1108.16 L185.821 1112.1 L163.876 1112.1 L163.876 1108.16 Q166.538 1105.41 171.122 1100.78 Q175.728 1096.13 176.909 1094.78 Q179.154 1092.26 180.034 1090.52 Q180.936 1088.77 180.936 1087.08 Q180.936 1084.32 178.992 1082.58 Q177.071 1080.85 173.969 1080.85 Q171.77 1080.85 169.316 1081.61 Q166.885 1082.38 164.108 1083.93 L164.108 1079.21 Q166.932 1078.07 169.385 1077.49 Q171.839 1076.91 173.876 1076.91 Q179.247 1076.91 182.441 1079.6 Q185.635 1082.28 185.635 1086.77 Q185.635 1088.9 184.825 1090.83 Q184.038 1092.72 181.932 1095.32 Q181.353 1095.99 178.251 1099.21 Q175.149 1102.4 169.501 1108.16 Z" fill="#000000" fill-rule="evenodd" fill-opacity="1" /><path clip-path="url(#clip450)" d="M128.159 720.005 Q124.548 720.005 122.719 723.57 Q120.913 727.112 120.913 734.241 Q120.913 741.348 122.719 744.912 Q124.548 748.454 128.159 748.454 Q131.793 748.454 133.599 744.912 Q135.427 741.348 135.427 734.241 Q135.427 727.112 133.599 723.57 Q131.793 720.005 128.159 720.005 M128.159 716.301 Q133.969 716.301 137.025 720.908 Q140.103 725.491 140.103 734.241 Q140.103 742.968 137.025 747.574 Q133.969 752.158 128.159 752.158 Q122.349 752.158 119.27 747.574 Q116.214 742.968 116.214 734.241 Q116.214 725.491 119.27 720.908 Q122.349 716.301 128.159 716.301 Z" fill="#000000" fill-rule="evenodd" fill-opacity="1" /><path clip-path="url(#clip450)" d="M148.321 745.607 L153.205 745.607 L153.205 751.486 L148.321 751.486 L148.321 745.607 Z" fill="#000000" fill-rule="evenodd" fill-opacity="1" /><path clip-path="url(#clip450)" d="M176.237 721 L164.432 739.449 L176.237 739.449 L176.237 721 M175.01 716.926 L180.89 716.926 L180.89 739.449 L185.821 739.449 L185.821 743.338 L180.89 743.338 L180.89 751.486 L176.237 751.486 L176.237 743.338 L160.636 743.338 L160.636 738.824 L175.01 716.926 Z" fill="#000000" fill-rule="evenodd" fill-opacity="1" /><path clip-path="url(#clip450)" d="M128.483 359.393 Q124.872 359.393 123.043 362.958 Q121.238 366.499 121.238 373.629 Q121.238 380.735 123.043 384.3 Q124.872 387.842 128.483 387.842 Q132.117 387.842 133.923 384.3 Q135.751 380.735 135.751 373.629 Q135.751 366.499 133.923 362.958 Q132.117 359.393 128.483 359.393 M128.483 355.689 Q134.293 355.689 137.349 360.296 Q140.427 364.879 140.427 373.629 Q140.427 382.356 137.349 386.962 Q134.293 391.546 128.483 391.546 Q122.673 391.546 119.594 386.962 Q116.539 382.356 116.539 373.629 Q116.539 364.879 119.594 360.296 Q122.673 355.689 128.483 355.689 Z" fill="#000000" fill-rule="evenodd" fill-opacity="1" /><path clip-path="url(#clip450)" d="M148.645 384.995 L153.529 384.995 L153.529 390.874 L148.645 390.874 L148.645 384.995 Z" fill="#000000" fill-rule="evenodd" fill-opacity="1" /><path clip-path="url(#clip450)" d="M174.293 371.731 Q171.145 371.731 169.293 373.884 Q167.464 376.036 167.464 379.786 Q167.464 383.513 169.293 385.689 Q171.145 387.842 174.293 387.842 Q177.441 387.842 179.27 385.689 Q181.122 383.513 181.122 379.786 Q181.122 376.036 179.27 373.884 Q177.441 371.731 174.293 371.731 M183.575 357.078 L183.575 361.337 Q181.816 360.504 180.01 360.064 Q178.228 359.624 176.469 359.624 Q171.839 359.624 169.385 362.749 Q166.955 365.874 166.608 372.194 Q167.973 370.18 170.034 369.115 Q172.094 368.027 174.571 368.027 Q179.779 368.027 182.788 371.198 Q185.821 374.347 185.821 379.786 Q185.821 385.11 182.672 388.328 Q179.524 391.546 174.293 391.546 Q168.297 391.546 165.126 386.962 Q161.955 382.356 161.955 373.629 Q161.955 365.435 165.844 360.574 Q169.733 355.689 176.284 355.689 Q178.043 355.689 179.825 356.037 Q181.631 356.384 183.575 357.078 Z" fill="#000000" fill-rule="evenodd" fill-opacity="1" /><path clip-path="url(#clip450)" d="M17.7787 1024.97 L24.5582 1024.97 Q21.5345 1028.21 20.0386 1031.9 Q18.5426 1035.56 18.5426 1039.7 Q18.5426 1047.85 23.5397 1052.18 Q28.5049 1056.51 37.9262 1056.51 Q47.3156 1056.51 52.3127 1052.18 Q57.2779 1047.85 57.2779 1039.7 Q57.2779 1035.56 55.782 1031.9 Q54.2861 1028.21 51.2623 1024.97 L57.9782 1024.97 Q60.2698 1028.34 61.4156 1032.13 Q62.5615 1035.88 62.5615 1040.08 Q62.5615 1050.87 55.973 1057.08 Q49.3526 1063.29 37.9262 1063.29 Q26.4679 1063.29 19.8794 1057.08 Q13.2591 1050.87 13.2591 1040.08 Q13.2591 1035.82 14.4049 1032.06 Q15.5189 1028.28 17.7787 1024.97 Z" fill="#000000" fill-rule="evenodd" fill-opacity="1" /><path clip-path="url(#clip450)" d="M30.0964 1001.48 Q30.0964 1006.19 33.7885 1008.92 Q37.4488 1011.66 43.8463 1011.66 Q50.2438 1011.66 53.9359 1008.96 Q57.5962 1006.22 57.5962 1001.48 Q57.5962 996.797 53.9041 994.06 Q50.212 991.322 43.8463 991.322 Q37.5124 991.322 33.8203 994.06 Q30.0964 996.797 30.0964 1001.48 M25.1311 1001.48 Q25.1311 993.837 30.0964 989.476 Q35.0616 985.116 43.8463 985.116 Q52.5991 985.116 57.5962 989.476 Q62.5615 993.837 62.5615 1001.48 Q62.5615 1009.15 57.5962 1013.51 Q52.5991 1017.84 43.8463 1017.84 Q35.0616 1017.84 30.0964 1013.51 Q25.1311 1009.15 25.1311 1001.48 Z" fill="#000000" fill-rule="evenodd" fill-opacity="1" /><path clip-path="url(#clip450)" d="M42.3504 944.916 L45.2149 944.916 L45.2149 971.843 Q51.2623 971.461 54.4452 968.215 Q57.5962 964.937 57.5962 959.112 Q57.5962 955.738 56.7687 952.587 Q55.9411 949.404 54.2861 946.285 L59.8242 946.285 Q61.161 949.436 61.8612 952.746 Q62.5615 956.056 62.5615 959.462 Q62.5615 967.992 57.5962 972.989 Q52.631 977.954 44.1646 977.954 Q35.4117 977.954 30.2873 973.244 Q25.1311 968.501 25.1311 960.481 Q25.1311 953.287 29.7781 949.118 Q34.3932 944.916 42.3504 944.916 M40.6316 950.773 Q35.8255 950.836 32.9609 953.478 Q30.0964 956.088 30.0964 960.417 Q30.0964 965.318 32.8654 968.279 Q35.6345 971.207 40.6634 971.652 L40.6316 950.773 Z" fill="#000000" fill-rule="evenodd" fill-opacity="1" /><path clip-path="url(#clip450)" d="M12.1132 917.257 L16.983 917.257 L16.983 922.859 Q16.983 926.01 18.2562 927.252 Q19.5293 928.461 22.8395 928.461 L25.9905 928.461 L25.9905 918.817 L30.542 918.817 L30.542 928.461 L61.6384 928.461 L61.6384 934.349 L30.542 934.349 L30.542 939.951 L25.9905 939.951 L25.9905 934.349 L23.5079 934.349 Q17.5559 934.349 14.8505 931.58 Q12.1132 928.811 12.1132 922.796 L12.1132 917.257 Z" fill="#000000" fill-rule="evenodd" fill-opacity="1" /><path clip-path="url(#clip450)" d="M12.1132 894.309 L16.983 894.309 L16.983 899.911 Q16.983 903.062 18.2562 904.303 Q19.5293 905.513 22.8395 905.513 L25.9905 905.513 L25.9905 895.869 L30.542 895.869 L30.542 905.513 L61.6384 905.513 L61.6384 911.401 L30.542 911.401 L30.542 917.003 L25.9905 917.003 L25.9905 911.401 L23.5079 911.401 Q17.5559 911.401 14.8505 908.632 Q12.1132 905.863 12.1132 899.847 L12.1132 894.309 Z" fill="#000000" fill-rule="evenodd" fill-opacity="1" /><path clip-path="url(#clip450)" d="M25.9905 889.407 L25.9905 883.551 L61.6384 883.551 L61.6384 889.407 L25.9905 889.407 M12.1132 889.407 L12.1132 883.551 L19.5293 883.551 L19.5293 889.407 L12.1132 889.407 Z" fill="#000000" fill-rule="evenodd" fill-opacity="1" /><path clip-path="url(#clip450)" d="M27.3591 845.643 L32.8336 845.643 Q31.465 848.126 30.7966 850.64 Q30.0964 853.123 30.0964 855.669 Q30.0964 861.366 33.7248 864.517 Q37.3214 867.669 43.8463 867.669 Q50.3711 867.669 53.9996 864.517 Q57.5962 861.366 57.5962 855.669 Q57.5962 853.123 56.9278 850.64 Q56.2276 848.126 54.859 845.643 L60.2698 845.643 Q61.4156 848.094 61.9886 850.736 Q62.5615 853.346 62.5615 856.306 Q62.5615 864.358 57.5007 869.101 Q52.44 873.843 43.8463 873.843 Q35.1253 873.843 30.1282 869.069 Q25.1311 864.263 25.1311 855.924 Q25.1311 853.218 25.704 850.64 Q26.2451 848.062 27.3591 845.643 Z" fill="#000000" fill-rule="evenodd" fill-opacity="1" /><path clip-path="url(#clip450)" d="M25.9905 835.458 L25.9905 829.602 L61.6384 829.602 L61.6384 835.458 L25.9905 835.458 M12.1132 835.458 L12.1132 829.602 L19.5293 829.602 L19.5293 835.458 L12.1132 835.458 Z" fill="#000000" fill-rule="evenodd" fill-opacity="1" /><path clip-path="url(#clip450)" d="M42.3504 786.856 L45.2149 786.856 L45.2149 813.783 Q51.2623 813.401 54.4452 810.154 Q57.5962 806.876 57.5962 801.051 Q57.5962 797.678 56.7687 794.527 Q55.9411 791.344 54.2861 788.224 L59.8242 788.224 Q61.161 791.376 61.8612 794.686 Q62.5615 797.996 62.5615 801.402 Q62.5615 809.932 57.5962 814.929 Q52.631 819.894 44.1646 819.894 Q35.4117 819.894 30.2873 815.183 Q25.1311 810.441 25.1311 802.42 Q25.1311 795.227 29.7781 791.057 Q34.3932 786.856 42.3504 786.856 M40.6316 792.712 Q35.8255 792.776 32.9609 795.418 Q30.0964 798.028 30.0964 802.356 Q30.0964 807.258 32.8654 810.218 Q35.6345 813.146 40.6634 813.592 L40.6316 792.712 Z" fill="#000000" fill-rule="evenodd" fill-opacity="1" /><path clip-path="url(#clip450)" d="M40.1224 747.611 L61.6384 747.611 L61.6384 753.468 L40.3133 753.468 Q35.2526 753.468 32.7381 755.441 Q30.2237 757.414 30.2237 761.361 Q30.2237 766.104 33.2474 768.841 Q36.2711 771.578 41.491 771.578 L61.6384 771.578 L61.6384 777.466 L25.9905 777.466 L25.9905 771.578 L31.5287 771.578 Q28.314 769.477 26.7225 766.645 Q25.1311 763.78 25.1311 760.056 Q25.1311 753.913 28.9505 750.762 Q32.7381 747.611 40.1224 747.611 Z" fill="#000000" fill-rule="evenodd" fill-opacity="1" /><path clip-path="url(#clip450)" d="M15.869 730.137 L25.9905 730.137 L25.9905 718.074 L30.542 718.074 L30.542 730.137 L49.8937 730.137 Q54.2542 730.137 55.4955 728.96 Q56.7368 727.75 56.7368 724.09 L56.7368 718.074 L61.6384 718.074 L61.6384 724.09 Q61.6384 730.869 59.124 733.448 Q56.5777 736.026 49.8937 736.026 L30.542 736.026 L30.542 740.323 L25.9905 740.323 L25.9905 736.026 L15.869 736.026 L15.869 730.137 Z" fill="#000000" fill-rule="evenodd" fill-opacity="1" /><polyline clip-path="url(#clip452)" style="stroke:#009af9; stroke-linecap:round; stroke-linejoin:round; stroke-width:4; stroke-opacity:1; fill:none" points="
  294.479,1456.08 749.994,1264.54 1205.6,1081.07 1661.21,884.965 2116.81,489.691 2572.42,94.9858 
  "/>
<polyline clip-path="url(#clip452)" style="stroke:#e26f46; stroke-linecap:round; stroke-linejoin:round; stroke-width:4; stroke-opacity:1; fill:none" points="
  294.479,1433.1 749.994,1467.76 1205.6,1563.96 1661.21,1686.38 2116.81,1664.81 2572.42,1094.82 
  "/>
<path clip-path="url(#clip450)" d="
M1946.56 1677.89 L2560.27 1677.89 L2560.27 1522.37 L1946.56 1522.37  Z
  " fill="#ffffff" fill-rule="evenodd" fill-opacity="1"/>
<polyline clip-path="url(#clip450)" style="stroke:#000000; stroke-linecap:round; stroke-linejoin:round; stroke-width:4; stroke-opacity:1; fill:none" points="
  1946.56,1677.89 2560.27,1677.89 2560.27,1522.37 1946.56,1522.37 1946.56,1677.89 
  "/>
<polyline clip-path="url(#clip450)" style="stroke:#009af9; stroke-linecap:round; stroke-linejoin:round; stroke-width:4; stroke-opacity:1; fill:none" points="
  1973.39,1574.21 2134.37,1574.21 
  "/>
<path clip-path="url(#clip450)" d="M2161.2 1556.93 L2165.87 1556.93 L2165.87 1587.55 L2182.7 1587.55 L2182.7 1591.49 L2161.2 1591.49 L2161.2 1556.93 Z" fill="#000000" fill-rule="evenodd" fill-opacity="1" /><path clip-path="url(#clip450)" d="M2187.42 1565.56 L2191.68 1565.56 L2191.68 1591.49 L2187.42 1591.49 L2187.42 1565.56 M2187.42 1555.47 L2191.68 1555.47 L2191.68 1560.86 L2187.42 1560.86 L2187.42 1555.47 Z" fill="#000000" fill-rule="evenodd" fill-opacity="1" /><path clip-path="url(#clip450)" d="M2213.72 1555.47 L2213.72 1559.01 L2209.65 1559.01 Q2207.35 1559.01 2206.45 1559.94 Q2205.57 1560.86 2205.57 1563.27 L2205.57 1565.56 L2212.58 1565.56 L2212.58 1568.87 L2205.57 1568.87 L2205.57 1591.49 L2201.29 1591.49 L2201.29 1568.87 L2197.21 1568.87 L2197.21 1565.56 L2201.29 1565.56 L2201.29 1563.76 Q2201.29 1559.43 2203.3 1557.46 Q2205.32 1555.47 2209.69 1555.47 L2213.72 1555.47 Z" fill="#000000" fill-rule="evenodd" fill-opacity="1" /><path clip-path="url(#clip450)" d="M2220.66 1558.2 L2220.66 1565.56 L2229.44 1565.56 L2229.44 1568.87 L2220.66 1568.87 L2220.66 1582.95 Q2220.66 1586.12 2221.52 1587.02 Q2222.4 1587.92 2225.06 1587.92 L2229.44 1587.92 L2229.44 1591.49 L2225.06 1591.49 Q2220.13 1591.49 2218.26 1589.66 Q2216.38 1587.81 2216.38 1582.95 L2216.38 1568.87 L2213.26 1568.87 L2213.26 1565.56 L2216.38 1565.56 L2216.38 1558.2 L2220.66 1558.2 Z" fill="#000000" fill-rule="evenodd" fill-opacity="1" /><path clip-path="url(#clip450)" d="M2268.77 1566.56 L2268.77 1570.54 Q2266.96 1569.54 2265.13 1569.06 Q2263.33 1568.55 2261.47 1568.55 Q2257.33 1568.55 2255.04 1571.19 Q2252.75 1573.8 2252.75 1578.55 Q2252.75 1583.29 2255.04 1585.93 Q2257.33 1588.55 2261.47 1588.55 Q2263.33 1588.55 2265.13 1588.06 Q2266.96 1587.55 2268.77 1586.56 L2268.77 1590.49 Q2266.98 1591.33 2265.06 1591.74 Q2263.16 1592.16 2261.01 1592.16 Q2255.15 1592.16 2251.71 1588.48 Q2248.26 1584.8 2248.26 1578.55 Q2248.26 1572.21 2251.73 1568.57 Q2255.22 1564.94 2261.29 1564.94 Q2263.26 1564.94 2265.13 1565.35 Q2267.01 1565.75 2268.77 1566.56 Z" fill="#000000" fill-rule="evenodd" fill-opacity="1" /><path clip-path="url(#clip450)" d="M2286.22 1568.55 Q2282.79 1568.55 2280.8 1571.23 Q2278.81 1573.9 2278.81 1578.55 Q2278.81 1583.2 2280.78 1585.89 Q2282.77 1588.55 2286.22 1588.55 Q2289.62 1588.55 2291.61 1585.86 Q2293.6 1583.18 2293.6 1578.55 Q2293.6 1573.94 2291.61 1571.26 Q2289.62 1568.55 2286.22 1568.55 M2286.22 1564.94 Q2291.77 1564.94 2294.95 1568.55 Q2298.12 1572.16 2298.12 1578.55 Q2298.12 1584.91 2294.95 1588.55 Q2291.77 1592.16 2286.22 1592.16 Q2280.64 1592.16 2277.47 1588.55 Q2274.32 1584.91 2274.32 1578.55 Q2274.32 1572.16 2277.47 1568.55 Q2280.64 1564.94 2286.22 1564.94 Z" fill="#000000" fill-rule="evenodd" fill-opacity="1" /><path clip-path="url(#clip450)" d="M2327.35 1577.46 L2327.35 1579.54 L2307.77 1579.54 Q2308.05 1583.94 2310.41 1586.26 Q2312.79 1588.55 2317.03 1588.55 Q2319.48 1588.55 2321.77 1587.95 Q2324.09 1587.34 2326.36 1586.14 L2326.36 1590.17 Q2324.07 1591.14 2321.66 1591.65 Q2319.25 1592.16 2316.77 1592.16 Q2310.57 1592.16 2306.94 1588.55 Q2303.33 1584.94 2303.33 1578.78 Q2303.33 1572.41 2306.75 1568.69 Q2310.2 1564.94 2316.03 1564.94 Q2321.26 1564.94 2324.3 1568.32 Q2327.35 1571.67 2327.35 1577.46 M2323.09 1576.21 Q2323.05 1572.71 2321.13 1570.63 Q2319.23 1568.55 2316.08 1568.55 Q2312.51 1568.55 2310.36 1570.56 Q2308.23 1572.58 2307.91 1576.23 L2323.09 1576.21 Z" fill="#000000" fill-rule="evenodd" fill-opacity="1" /><path clip-path="url(#clip450)" d="M2347.47 1555.47 L2347.47 1559.01 L2343.39 1559.01 Q2341.1 1559.01 2340.2 1559.94 Q2339.32 1560.86 2339.32 1563.27 L2339.32 1565.56 L2346.33 1565.56 L2346.33 1568.87 L2339.32 1568.87 L2339.32 1591.49 L2335.04 1591.49 L2335.04 1568.87 L2330.96 1568.87 L2330.96 1565.56 L2335.04 1565.56 L2335.04 1563.76 Q2335.04 1559.43 2337.05 1557.46 Q2339.07 1555.47 2343.44 1555.47 L2347.47 1555.47 Z" fill="#000000" fill-rule="evenodd" fill-opacity="1" /><path clip-path="url(#clip450)" d="M2364.16 1555.47 L2364.16 1559.01 L2360.08 1559.01 Q2357.79 1559.01 2356.89 1559.94 Q2356.01 1560.86 2356.01 1563.27 L2356.01 1565.56 L2363.02 1565.56 L2363.02 1568.87 L2356.01 1568.87 L2356.01 1591.49 L2351.73 1591.49 L2351.73 1568.87 L2347.65 1568.87 L2347.65 1565.56 L2351.73 1565.56 L2351.73 1563.76 Q2351.73 1559.43 2353.74 1557.46 Q2355.76 1555.47 2360.13 1555.47 L2364.16 1555.47 Z" fill="#000000" fill-rule="evenodd" fill-opacity="1" /><path clip-path="url(#clip450)" d="M2367.72 1565.56 L2371.98 1565.56 L2371.98 1591.49 L2367.72 1591.49 L2367.72 1565.56 M2367.72 1555.47 L2371.98 1555.47 L2371.98 1560.86 L2367.72 1560.86 L2367.72 1555.47 Z" fill="#000000" fill-rule="evenodd" fill-opacity="1" /><path clip-path="url(#clip450)" d="M2399.55 1566.56 L2399.55 1570.54 Q2397.75 1569.54 2395.92 1569.06 Q2394.11 1568.55 2392.26 1568.55 Q2388.12 1568.55 2385.82 1571.19 Q2383.53 1573.8 2383.53 1578.55 Q2383.53 1583.29 2385.82 1585.93 Q2388.12 1588.55 2392.26 1588.55 Q2394.11 1588.55 2395.92 1588.06 Q2397.75 1587.55 2399.55 1586.56 L2399.55 1590.49 Q2397.77 1591.33 2395.85 1591.74 Q2393.95 1592.16 2391.8 1592.16 Q2385.94 1592.16 2382.49 1588.48 Q2379.04 1584.8 2379.04 1578.55 Q2379.04 1572.21 2382.51 1568.57 Q2386.01 1564.94 2392.07 1564.94 Q2394.04 1564.94 2395.92 1565.35 Q2397.79 1565.75 2399.55 1566.56 Z" fill="#000000" fill-rule="evenodd" fill-opacity="1" /><path clip-path="url(#clip450)" d="M2406.96 1565.56 L2411.22 1565.56 L2411.22 1591.49 L2406.96 1591.49 L2406.96 1565.56 M2406.96 1555.47 L2411.22 1555.47 L2411.22 1560.86 L2406.96 1560.86 L2406.96 1555.47 Z" fill="#000000" fill-rule="evenodd" fill-opacity="1" /><path clip-path="url(#clip450)" d="M2442.31 1577.46 L2442.31 1579.54 L2422.72 1579.54 Q2423 1583.94 2425.36 1586.26 Q2427.75 1588.55 2431.98 1588.55 Q2434.44 1588.55 2436.73 1587.95 Q2439.04 1587.34 2441.31 1586.14 L2441.31 1590.17 Q2439.02 1591.14 2436.61 1591.65 Q2434.2 1592.16 2431.73 1592.16 Q2425.52 1592.16 2421.89 1588.55 Q2418.28 1584.94 2418.28 1578.78 Q2418.28 1572.41 2421.7 1568.69 Q2425.15 1564.94 2430.99 1564.94 Q2436.22 1564.94 2439.25 1568.32 Q2442.31 1571.67 2442.31 1577.46 M2438.05 1576.21 Q2438 1572.71 2436.08 1570.63 Q2434.18 1568.55 2431.03 1568.55 Q2427.47 1568.55 2425.32 1570.56 Q2423.19 1572.58 2422.86 1576.23 L2438.05 1576.21 Z" fill="#000000" fill-rule="evenodd" fill-opacity="1" /><path clip-path="url(#clip450)" d="M2470.85 1575.84 L2470.85 1591.49 L2466.59 1591.49 L2466.59 1575.98 Q2466.59 1572.3 2465.15 1570.47 Q2463.72 1568.64 2460.85 1568.64 Q2457.4 1568.64 2455.41 1570.84 Q2453.42 1573.04 2453.42 1576.84 L2453.42 1591.49 L2449.13 1591.49 L2449.13 1565.56 L2453.42 1565.56 L2453.42 1569.59 Q2454.94 1567.25 2457 1566.09 Q2459.09 1564.94 2461.8 1564.94 Q2466.26 1564.94 2468.56 1567.71 Q2470.85 1570.47 2470.85 1575.84 Z" fill="#000000" fill-rule="evenodd" fill-opacity="1" /><path clip-path="url(#clip450)" d="M2483.56 1558.2 L2483.56 1565.56 L2492.33 1565.56 L2492.33 1568.87 L2483.56 1568.87 L2483.56 1582.95 Q2483.56 1586.12 2484.41 1587.02 Q2485.29 1587.92 2487.95 1587.92 L2492.33 1587.92 L2492.33 1591.49 L2487.95 1591.49 Q2483.02 1591.49 2481.15 1589.66 Q2479.27 1587.81 2479.27 1582.95 L2479.27 1568.87 L2476.15 1568.87 L2476.15 1565.56 L2479.27 1565.56 L2479.27 1558.2 L2483.56 1558.2 Z" fill="#000000" fill-rule="evenodd" fill-opacity="1" /><polyline clip-path="url(#clip450)" style="stroke:#e26f46; stroke-linecap:round; stroke-linejoin:round; stroke-width:4; stroke-opacity:1; fill:none" points="
  1973.39,1626.05 2134.37,1626.05 
  "/>
<path clip-path="url(#clip450)" d="M2165.87 1612.61 L2165.87 1639.49 L2171.52 1639.49 Q2178.67 1639.49 2181.98 1636.24 Q2185.32 1633 2185.32 1626.01 Q2185.32 1619.07 2181.98 1615.85 Q2178.67 1612.61 2171.52 1612.61 L2165.87 1612.61 M2161.2 1608.77 L2170.8 1608.77 Q2180.85 1608.77 2185.55 1612.96 Q2190.25 1617.12 2190.25 1626.01 Q2190.25 1634.95 2185.52 1639.14 Q2180.8 1643.33 2170.8 1643.33 L2161.2 1643.33 L2161.2 1608.77 Z" fill="#000000" fill-rule="evenodd" fill-opacity="1" /><path clip-path="url(#clip450)" d="M2212.54 1621.38 Q2211.82 1620.97 2210.96 1620.78 Q2210.13 1620.57 2209.11 1620.57 Q2205.5 1620.57 2203.56 1622.93 Q2201.64 1625.27 2201.64 1629.67 L2201.64 1643.33 L2197.35 1643.33 L2197.35 1617.4 L2201.64 1617.4 L2201.64 1621.43 Q2202.98 1619.07 2205.13 1617.93 Q2207.28 1616.78 2210.36 1616.78 Q2210.8 1616.78 2211.33 1616.85 Q2211.87 1616.89 2212.52 1617.01 L2212.54 1621.38 Z" fill="#000000" fill-rule="evenodd" fill-opacity="1" /><path clip-path="url(#clip450)" d="M2228.79 1630.3 Q2223.63 1630.3 2221.64 1631.48 Q2219.65 1632.66 2219.65 1635.5 Q2219.65 1637.77 2221.13 1639.11 Q2222.63 1640.43 2225.2 1640.43 Q2228.74 1640.43 2230.87 1637.93 Q2233.02 1635.41 2233.02 1631.24 L2233.02 1630.3 L2228.79 1630.3 M2237.28 1628.54 L2237.28 1643.33 L2233.02 1643.33 L2233.02 1639.39 Q2231.57 1641.75 2229.39 1642.89 Q2227.21 1644 2224.07 1644 Q2220.08 1644 2217.72 1641.78 Q2215.39 1639.53 2215.39 1635.78 Q2215.39 1631.41 2218.3 1629.18 Q2221.24 1626.96 2227.05 1626.96 L2233.02 1626.96 L2233.02 1626.55 Q2233.02 1623.61 2231.08 1622.01 Q2229.16 1620.39 2225.66 1620.39 Q2223.44 1620.39 2221.33 1620.92 Q2219.23 1621.45 2217.28 1622.52 L2217.28 1618.58 Q2219.62 1617.68 2221.82 1617.24 Q2224.02 1616.78 2226.1 1616.78 Q2231.73 1616.78 2234.51 1619.69 Q2237.28 1622.61 2237.28 1628.54 Z" fill="#000000" fill-rule="evenodd" fill-opacity="1" /><path clip-path="url(#clip450)" d="M2263.12 1630.06 Q2263.12 1625.43 2261.2 1622.89 Q2259.3 1620.34 2255.85 1620.34 Q2252.42 1620.34 2250.5 1622.89 Q2248.6 1625.43 2248.6 1630.06 Q2248.6 1634.67 2250.5 1637.22 Q2252.42 1639.76 2255.85 1639.76 Q2259.3 1639.76 2261.2 1637.22 Q2263.12 1634.67 2263.12 1630.06 M2267.38 1640.11 Q2267.38 1646.73 2264.44 1649.95 Q2261.5 1653.19 2255.43 1653.19 Q2253.19 1653.19 2251.2 1652.84 Q2249.21 1652.52 2247.33 1651.82 L2247.33 1647.68 Q2249.21 1648.7 2251.03 1649.18 Q2252.86 1649.67 2254.76 1649.67 Q2258.95 1649.67 2261.03 1647.47 Q2263.12 1645.3 2263.12 1640.87 L2263.12 1638.77 Q2261.8 1641.06 2259.74 1642.19 Q2257.68 1643.33 2254.81 1643.33 Q2250.04 1643.33 2247.12 1639.69 Q2244.21 1636.06 2244.21 1630.06 Q2244.21 1624.05 2247.12 1620.41 Q2250.04 1616.78 2254.81 1616.78 Q2257.68 1616.78 2259.74 1617.91 Q2261.8 1619.05 2263.12 1621.34 L2263.12 1617.4 L2267.38 1617.4 L2267.38 1640.11 Z" fill="#000000" fill-rule="evenodd" fill-opacity="1" /><path clip-path="url(#clip450)" d="M2309.88 1618.4 L2309.88 1622.38 Q2308.07 1621.38 2306.24 1620.9 Q2304.44 1620.39 2302.58 1620.39 Q2298.44 1620.39 2296.15 1623.03 Q2293.86 1625.64 2293.86 1630.39 Q2293.86 1635.13 2296.15 1637.77 Q2298.44 1640.39 2302.58 1640.39 Q2304.44 1640.39 2306.24 1639.9 Q2308.07 1639.39 2309.88 1638.4 L2309.88 1642.33 Q2308.09 1643.17 2306.17 1643.58 Q2304.27 1644 2302.12 1644 Q2296.27 1644 2292.82 1640.32 Q2289.37 1636.64 2289.37 1630.39 Q2289.37 1624.05 2292.84 1620.41 Q2296.33 1616.78 2302.4 1616.78 Q2304.37 1616.78 2306.24 1617.19 Q2308.12 1617.59 2309.88 1618.4 Z" fill="#000000" fill-rule="evenodd" fill-opacity="1" /><path clip-path="url(#clip450)" d="M2327.33 1620.39 Q2323.9 1620.39 2321.91 1623.07 Q2319.92 1625.74 2319.92 1630.39 Q2319.92 1635.04 2321.89 1637.73 Q2323.88 1640.39 2327.33 1640.39 Q2330.73 1640.39 2332.72 1637.7 Q2334.71 1635.02 2334.71 1630.39 Q2334.71 1625.78 2332.72 1623.1 Q2330.73 1620.39 2327.33 1620.39 M2327.33 1616.78 Q2332.89 1616.78 2336.06 1620.39 Q2339.23 1624 2339.23 1630.39 Q2339.23 1636.75 2336.06 1640.39 Q2332.89 1644 2327.33 1644 Q2321.75 1644 2318.58 1640.39 Q2315.43 1636.75 2315.43 1630.39 Q2315.43 1624 2318.58 1620.39 Q2321.75 1616.78 2327.33 1616.78 Z" fill="#000000" fill-rule="evenodd" fill-opacity="1" /><path clip-path="url(#clip450)" d="M2368.46 1629.3 L2368.46 1631.38 L2348.88 1631.38 Q2349.16 1635.78 2351.52 1638.1 Q2353.9 1640.39 2358.14 1640.39 Q2360.59 1640.39 2362.89 1639.79 Q2365.2 1639.18 2367.47 1637.98 L2367.47 1642.01 Q2365.18 1642.98 2362.77 1643.49 Q2360.36 1644 2357.89 1644 Q2351.68 1644 2348.05 1640.39 Q2344.44 1636.78 2344.44 1630.62 Q2344.44 1624.25 2347.86 1620.53 Q2351.31 1616.78 2357.14 1616.78 Q2362.38 1616.78 2365.41 1620.16 Q2368.46 1623.51 2368.46 1629.3 M2364.2 1628.05 Q2364.16 1624.55 2362.24 1622.47 Q2360.34 1620.39 2357.19 1620.39 Q2353.63 1620.39 2351.47 1622.4 Q2349.34 1624.42 2349.02 1628.07 L2364.2 1628.05 Z" fill="#000000" fill-rule="evenodd" fill-opacity="1" /><path clip-path="url(#clip450)" d="M2388.58 1607.31 L2388.58 1610.85 L2384.51 1610.85 Q2382.21 1610.85 2381.31 1611.78 Q2380.43 1612.7 2380.43 1615.11 L2380.43 1617.4 L2387.45 1617.4 L2387.45 1620.71 L2380.43 1620.71 L2380.43 1643.33 L2376.15 1643.33 L2376.15 1620.71 L2372.07 1620.71 L2372.07 1617.4 L2376.15 1617.4 L2376.15 1615.6 Q2376.15 1611.27 2378.16 1609.3 Q2380.18 1607.31 2384.55 1607.31 L2388.58 1607.31 Z" fill="#000000" fill-rule="evenodd" fill-opacity="1" /><path clip-path="url(#clip450)" d="M2405.27 1607.31 L2405.27 1610.85 L2401.2 1610.85 Q2398.9 1610.85 2398 1611.78 Q2397.12 1612.7 2397.12 1615.11 L2397.12 1617.4 L2404.13 1617.4 L2404.13 1620.71 L2397.12 1620.71 L2397.12 1643.33 L2392.84 1643.33 L2392.84 1620.71 L2388.76 1620.71 L2388.76 1617.4 L2392.84 1617.4 L2392.84 1615.6 Q2392.84 1611.27 2394.85 1609.3 Q2396.87 1607.31 2401.24 1607.31 L2405.27 1607.31 Z" fill="#000000" fill-rule="evenodd" fill-opacity="1" /><path clip-path="url(#clip450)" d="M2408.83 1617.4 L2413.09 1617.4 L2413.09 1643.33 L2408.83 1643.33 L2408.83 1617.4 M2408.83 1607.31 L2413.09 1607.31 L2413.09 1612.7 L2408.83 1612.7 L2408.83 1607.31 Z" fill="#000000" fill-rule="evenodd" fill-opacity="1" /><path clip-path="url(#clip450)" d="M2440.66 1618.4 L2440.66 1622.38 Q2438.86 1621.38 2437.03 1620.9 Q2435.22 1620.39 2433.37 1620.39 Q2429.23 1620.39 2426.94 1623.03 Q2424.64 1625.64 2424.64 1630.39 Q2424.64 1635.13 2426.94 1637.77 Q2429.23 1640.39 2433.37 1640.39 Q2435.22 1640.39 2437.03 1639.9 Q2438.86 1639.39 2440.66 1638.4 L2440.66 1642.33 Q2438.88 1643.17 2436.96 1643.58 Q2435.06 1644 2432.91 1644 Q2427.05 1644 2423.6 1640.32 Q2420.15 1636.64 2420.15 1630.39 Q2420.15 1624.05 2423.63 1620.41 Q2427.12 1616.78 2433.19 1616.78 Q2435.15 1616.78 2437.03 1617.19 Q2438.9 1617.59 2440.66 1618.4 Z" fill="#000000" fill-rule="evenodd" fill-opacity="1" /><path clip-path="url(#clip450)" d="M2448.07 1617.4 L2452.33 1617.4 L2452.33 1643.33 L2448.07 1643.33 L2448.07 1617.4 M2448.07 1607.31 L2452.33 1607.31 L2452.33 1612.7 L2448.07 1612.7 L2448.07 1607.31 Z" fill="#000000" fill-rule="evenodd" fill-opacity="1" /><path clip-path="url(#clip450)" d="M2483.42 1629.3 L2483.42 1631.38 L2463.83 1631.38 Q2464.11 1635.78 2466.47 1638.1 Q2468.86 1640.39 2473.09 1640.39 Q2475.55 1640.39 2477.84 1639.79 Q2480.15 1639.18 2482.42 1637.98 L2482.42 1642.01 Q2480.13 1642.98 2477.72 1643.49 Q2475.31 1644 2472.84 1644 Q2466.63 1644 2463 1640.39 Q2459.39 1636.78 2459.39 1630.62 Q2459.39 1624.25 2462.82 1620.53 Q2466.26 1616.78 2472.1 1616.78 Q2477.33 1616.78 2480.36 1620.16 Q2483.42 1623.51 2483.42 1629.3 M2479.16 1628.05 Q2479.11 1624.55 2477.19 1622.47 Q2475.29 1620.39 2472.14 1620.39 Q2468.58 1620.39 2466.43 1622.4 Q2464.3 1624.42 2463.97 1628.07 L2479.16 1628.05 Z" fill="#000000" fill-rule="evenodd" fill-opacity="1" /><path clip-path="url(#clip450)" d="M2511.96 1627.68 L2511.96 1643.33 L2507.7 1643.33 L2507.7 1627.82 Q2507.7 1624.14 2506.26 1622.31 Q2504.83 1620.48 2501.96 1620.48 Q2498.51 1620.48 2496.52 1622.68 Q2494.53 1624.88 2494.53 1628.68 L2494.53 1643.33 L2490.25 1643.33 L2490.25 1617.4 L2494.53 1617.4 L2494.53 1621.43 Q2496.06 1619.09 2498.12 1617.93 Q2500.2 1616.78 2502.91 1616.78 Q2507.37 1616.78 2509.67 1619.55 Q2511.96 1622.31 2511.96 1627.68 Z" fill="#000000" fill-rule="evenodd" fill-opacity="1" /><path clip-path="url(#clip450)" d="M2524.67 1610.04 L2524.67 1617.4 L2533.44 1617.4 L2533.44 1620.71 L2524.67 1620.71 L2524.67 1634.79 Q2524.67 1637.96 2525.52 1638.86 Q2526.4 1639.76 2529.06 1639.76 L2533.44 1639.76 L2533.44 1643.33 L2529.06 1643.33 Q2524.13 1643.33 2522.26 1641.5 Q2520.38 1639.65 2520.38 1634.79 L2520.38 1620.71 L2517.26 1620.71 L2517.26 1617.4 L2520.38 1617.4 L2520.38 1610.04 L2524.67 1610.04 Z" fill="#000000" fill-rule="evenodd" fill-opacity="1" /></svg>
