<?xml version="1.0" encoding="utf-8"?>
<svg xmlns="http://www.w3.org/2000/svg" xmlns:xlink="http://www.w3.org/1999/xlink" width="672" height="480" viewBox="0 0 2688 1920">
<defs>
  <clipPath id="clip650">
    <rect x="0" y="0" width="2688" height="1920"/>
  </clipPath>
</defs>
<path clip-path="url(#clip650)" d="
M0 1920 L2688 1920 L2688 0 L0 0  Z
  " fill="#ffffff" fill-rule="evenodd" fill-opacity="1"/>
<defs>
  <clipPath id="clip651">
    <rect x="537" y="0" width="1883" height="1883"/>
  </clipPath>
</defs>
<path clip-path="url(#clip650)" d="
M225.654 1734.12 L2640.76 1734.12 L2640.76 47.2441 L225.654 47.2441  Z
  " fill="#ffffff" fill-rule="evenodd" fill-opacity="1"/>
<defs>
  <clipPath id="clip652">
    <rect x="225" y="47" width="2416" height="1688"/>
  </clipPath>
</defs>
<polyline clip-path="url(#clip652)" style="stroke:#000000; stroke-linecap:round; stroke-linejoin:round; stroke-width:2; stroke-opacity:0.1; fill:none" points="
  293.941,1734.12 293.941,47.2441 
  "/>
<polyline clip-path="url(#clip652)" style="stroke:#000000; stroke-linecap:round; stroke-linejoin:round; stroke-width:2; stroke-opacity:0.1; fill:none" points="
  944.931,1734.12 944.931,47.2441 
  "/>
<polyline clip-path="url(#clip652)" style="stroke:#000000; stroke-linecap:round; stroke-linejoin:round; stroke-width:2; stroke-opacity:0.1; fill:none" points="
  1595.92,1734.12 1595.92,47.2441 
  "/>
<polyline clip-path="url(#clip652)" style="stroke:#000000; stroke-linecap:round; stroke-linejoin:round; stroke-width:2; stroke-opacity:0.1; fill:none" points="
  2246.91,1734.12 2246.91,47.2441 
  "/>
<polyline clip-path="url(#clip650)" style="stroke:#000000; stroke-linecap:round; stroke-linejoin:round; stroke-width:4; stroke-opacity:1; fill:none" points="
  225.654,1734.12 2640.76,1734.12 
  "/>
<polyline clip-path="url(#clip650)" style="stroke:#000000; stroke-linecap:round; stroke-linejoin:round; stroke-width:4; stroke-opacity:1; fill:none" points="
  293.941,1734.12 293.941,1715.22 
  "/>
<polyline clip-path="url(#clip650)" style="stroke:#000000; stroke-linecap:round; stroke-linejoin:round; stroke-width:4; stroke-opacity:1; fill:none" points="
  944.931,1734.12 944.931,1715.22 
  "/>
<polyline clip-path="url(#clip650)" style="stroke:#000000; stroke-linecap:round; stroke-linejoin:round; stroke-width:4; stroke-opacity:1; fill:none" points="
  1595.92,1734.12 1595.92,1715.22 
  "/>
<polyline clip-path="url(#clip650)" style="stroke:#000000; stroke-linecap:round; stroke-linejoin:round; stroke-width:4; stroke-opacity:1; fill:none" points="
  2246.91,1734.12 2246.91,1715.22 
  "/>
<path clip-path="url(#clip650)" d="M293.941 1767.34 Q290.33 1767.34 288.501 1770.9 Q286.696 1774.45 286.696 1781.58 Q286.696 1788.68 288.501 1792.25 Q290.33 1795.79 293.941 1795.79 Q297.576 1795.79 299.381 1792.25 Q301.21 1788.68 301.21 1781.58 Q301.21 1774.45 299.381 1770.9 Q297.576 1767.34 293.941 1767.34 M293.941 1763.64 Q299.751 1763.64 302.807 1768.24 Q305.886 1772.83 305.886 1781.58 Q305.886 1790.3 302.807 1794.91 Q299.751 1799.49 293.941 1799.49 Q288.131 1799.49 285.052 1794.91 Q281.997 1790.3 281.997 1781.58 Q281.997 1772.83 285.052 1768.24 Q288.131 1763.64 293.941 1763.64 Z" fill="#000000" fill-rule="evenodd" fill-opacity="1" /><path clip-path="url(#clip650)" d="M919.618 1794.89 L927.257 1794.89 L927.257 1768.52 L918.947 1770.19 L918.947 1765.93 L927.211 1764.26 L931.887 1764.26 L931.887 1794.89 L939.526 1794.89 L939.526 1798.82 L919.618 1798.82 L919.618 1794.89 Z" fill="#000000" fill-rule="evenodd" fill-opacity="1" /><path clip-path="url(#clip650)" d="M958.97 1767.34 Q955.359 1767.34 953.53 1770.9 Q951.725 1774.45 951.725 1781.58 Q951.725 1788.68 953.53 1792.25 Q955.359 1795.79 958.97 1795.79 Q962.604 1795.79 964.41 1792.25 Q966.238 1788.68 966.238 1781.58 Q966.238 1774.45 964.41 1770.9 Q962.604 1767.34 958.97 1767.34 M958.97 1763.64 Q964.78 1763.64 967.836 1768.24 Q970.914 1772.83 970.914 1781.58 Q970.914 1790.3 967.836 1794.91 Q964.78 1799.49 958.97 1799.49 Q953.16 1799.49 950.081 1794.91 Q947.026 1790.3 947.026 1781.58 Q947.026 1772.83 950.081 1768.24 Q953.16 1763.64 958.97 1763.64 Z" fill="#000000" fill-rule="evenodd" fill-opacity="1" /><path clip-path="url(#clip650)" d="M1574.69 1794.89 L1591.01 1794.89 L1591.01 1798.82 L1569.07 1798.82 L1569.07 1794.89 Q1571.73 1792.13 1576.31 1787.5 Q1580.92 1782.85 1582.1 1781.51 Q1584.35 1778.98 1585.23 1777.25 Q1586.13 1775.49 1586.13 1773.8 Q1586.13 1771.04 1584.18 1769.31 Q1582.26 1767.57 1579.16 1767.57 Q1576.96 1767.57 1574.51 1768.34 Q1572.08 1769.1 1569.3 1770.65 L1569.3 1765.93 Q1572.12 1764.79 1574.58 1764.21 Q1577.03 1763.64 1579.07 1763.64 Q1584.44 1763.64 1587.63 1766.32 Q1590.83 1769.01 1590.83 1773.5 Q1590.83 1775.63 1590.02 1777.55 Q1589.23 1779.45 1587.12 1782.04 Q1586.55 1782.71 1583.44 1785.93 Q1580.34 1789.12 1574.69 1794.89 Z" fill="#000000" fill-rule="evenodd" fill-opacity="1" /><path clip-path="url(#clip650)" d="M1610.83 1767.34 Q1607.22 1767.34 1605.39 1770.9 Q1603.58 1774.45 1603.58 1781.58 Q1603.58 1788.68 1605.39 1792.25 Q1607.22 1795.79 1610.83 1795.79 Q1614.46 1795.79 1616.27 1792.25 Q1618.1 1788.68 1618.1 1781.58 Q1618.1 1774.45 1616.27 1770.9 Q1614.46 1767.34 1610.83 1767.34 M1610.83 1763.64 Q1616.64 1763.64 1619.69 1768.24 Q1622.77 1772.83 1622.77 1781.58 Q1622.77 1790.3 1619.69 1794.91 Q1616.64 1799.49 1610.83 1799.49 Q1605.02 1799.49 1601.94 1794.91 Q1598.88 1790.3 1598.88 1781.58 Q1598.88 1772.83 1601.94 1768.24 Q1605.02 1763.64 1610.83 1763.64 Z" fill="#000000" fill-rule="evenodd" fill-opacity="1" /><path clip-path="url(#clip650)" d="M2235.75 1780.19 Q2239.11 1780.9 2240.98 1783.17 Q2242.88 1785.44 2242.88 1788.77 Q2242.88 1793.89 2239.36 1796.69 Q2235.84 1799.49 2229.36 1799.49 Q2227.19 1799.49 2224.87 1799.05 Q2222.58 1798.64 2220.13 1797.78 L2220.13 1793.27 Q2222.07 1794.4 2224.39 1794.98 Q2226.7 1795.56 2229.22 1795.56 Q2233.62 1795.56 2235.91 1793.82 Q2238.23 1792.08 2238.23 1788.77 Q2238.23 1785.72 2236.08 1784.01 Q2233.95 1782.27 2230.13 1782.27 L2226.1 1782.27 L2226.1 1778.43 L2230.31 1778.43 Q2233.76 1778.43 2235.59 1777.06 Q2237.42 1775.67 2237.42 1773.08 Q2237.42 1770.42 2235.52 1769.01 Q2233.65 1767.57 2230.13 1767.57 Q2228.21 1767.57 2226.01 1767.99 Q2223.81 1768.4 2221.17 1769.28 L2221.17 1765.12 Q2223.83 1764.38 2226.15 1764.01 Q2228.48 1763.64 2230.54 1763.64 Q2235.87 1763.64 2238.97 1766.07 Q2242.07 1768.47 2242.07 1772.59 Q2242.07 1775.46 2240.43 1777.46 Q2238.78 1779.42 2235.75 1780.19 Z" fill="#000000" fill-rule="evenodd" fill-opacity="1" /><path clip-path="url(#clip650)" d="M2261.75 1767.34 Q2258.14 1767.34 2256.31 1770.9 Q2254.5 1774.45 2254.5 1781.58 Q2254.5 1788.68 2256.31 1792.25 Q2258.14 1795.79 2261.75 1795.79 Q2265.38 1795.79 2267.19 1792.25 Q2269.02 1788.68 2269.02 1781.58 Q2269.02 1774.45 2267.19 1770.9 Q2265.38 1767.34 2261.75 1767.34 M2261.75 1763.64 Q2267.56 1763.64 2270.61 1768.24 Q2273.69 1772.83 2273.69 1781.58 Q2273.69 1790.3 2270.61 1794.91 Q2267.56 1799.49 2261.75 1799.49 Q2255.94 1799.49 2252.86 1794.91 Q2249.8 1790.3 2249.8 1781.58 Q2249.8 1772.83 2252.86 1768.24 Q2255.94 1763.64 2261.75 1763.64 Z" fill="#000000" fill-rule="evenodd" fill-opacity="1" /><path clip-path="url(#clip650)" d="M1158.76 1842.11 L1150.04 1865.76 L1167.52 1865.76 L1158.76 1842.11 M1155.14 1835.78 L1162.42 1835.78 L1180.53 1883.3 L1173.85 1883.3 L1169.52 1871.11 L1148.1 1871.11 L1143.77 1883.3 L1136.99 1883.3 L1155.14 1835.78 Z" fill="#000000" fill-rule="evenodd" fill-opacity="1" /><path clip-path="url(#clip650)" d="M1216.85 1861.78 L1216.85 1883.3 L1210.99 1883.3 L1210.99 1861.98 Q1210.99 1856.92 1209.02 1854.4 Q1207.05 1851.89 1203.1 1851.89 Q1198.36 1851.89 1195.62 1854.91 Q1192.88 1857.93 1192.88 1863.15 L1192.88 1883.3 L1187 1883.3 L1187 1847.65 L1192.88 1847.65 L1192.88 1853.19 Q1194.98 1849.98 1197.82 1848.39 Q1200.68 1846.79 1204.41 1846.79 Q1210.55 1846.79 1213.7 1850.61 Q1216.85 1854.4 1216.85 1861.78 Z" fill="#000000" fill-rule="evenodd" fill-opacity="1" /><path clip-path="url(#clip650)" d="M1251.99 1865.06 Q1251.99 1858.7 1249.35 1855.2 Q1246.74 1851.7 1242 1851.7 Q1237.28 1851.7 1234.64 1855.2 Q1232.03 1858.7 1232.03 1865.06 Q1232.03 1871.4 1234.64 1874.9 Q1237.28 1878.4 1242 1878.4 Q1246.74 1878.4 1249.35 1874.9 Q1251.99 1871.4 1251.99 1865.06 M1257.85 1878.88 Q1257.85 1887.98 1253.8 1892.4 Q1249.76 1896.86 1241.42 1896.86 Q1238.33 1896.86 1235.6 1896.38 Q1232.86 1895.94 1230.28 1894.98 L1230.28 1889.28 Q1232.86 1890.69 1235.37 1891.35 Q1237.89 1892.02 1240.5 1892.02 Q1246.26 1892.02 1249.12 1889 Q1251.99 1886.01 1251.99 1879.93 L1251.99 1877.03 Q1250.18 1880.18 1247.34 1881.74 Q1244.51 1883.3 1240.56 1883.3 Q1234.01 1883.3 1230 1878.3 Q1225.99 1873.31 1225.99 1865.06 Q1225.99 1856.79 1230 1851.79 Q1234.01 1846.79 1240.56 1846.79 Q1244.51 1846.79 1247.34 1848.35 Q1250.18 1849.91 1251.99 1853.06 L1251.99 1847.65 L1257.85 1847.65 L1257.85 1878.88 Z" fill="#000000" fill-rule="evenodd" fill-opacity="1" /><path clip-path="url(#clip650)" d="M1269.91 1833.78 L1275.77 1833.78 L1275.77 1883.3 L1269.91 1883.3 L1269.91 1833.78 Z" fill="#000000" fill-rule="evenodd" fill-opacity="1" /><path clip-path="url(#clip650)" d="M1318.51 1864.01 L1318.51 1866.88 L1291.58 1866.88 Q1291.97 1872.92 1295.21 1876.11 Q1298.49 1879.26 1304.32 1879.26 Q1307.69 1879.26 1310.84 1878.43 Q1314.02 1877.6 1317.14 1875.95 L1317.14 1881.49 Q1313.99 1882.82 1310.68 1883.52 Q1307.37 1884.22 1303.97 1884.22 Q1295.44 1884.22 1290.44 1879.26 Q1285.47 1874.29 1285.47 1865.83 Q1285.47 1857.07 1290.18 1851.95 Q1294.93 1846.79 1302.95 1846.79 Q1310.14 1846.79 1314.31 1851.44 Q1318.51 1856.06 1318.51 1864.01 M1312.65 1862.29 Q1312.59 1857.49 1309.95 1854.62 Q1307.34 1851.76 1303.01 1851.76 Q1298.11 1851.76 1295.15 1854.53 Q1292.22 1857.3 1291.78 1862.33 L1312.65 1862.29 Z" fill="#000000" fill-rule="evenodd" fill-opacity="1" /><path clip-path="url(#clip650)" d="M1362.66 1851.76 Q1357.95 1851.76 1355.21 1855.45 Q1352.47 1859.11 1352.47 1865.51 Q1352.47 1871.91 1355.18 1875.6 Q1357.91 1879.26 1362.66 1879.26 Q1367.34 1879.26 1370.07 1875.57 Q1372.81 1871.87 1372.81 1865.51 Q1372.81 1859.17 1370.07 1855.48 Q1367.34 1851.76 1362.66 1851.76 M1362.66 1846.79 Q1370.3 1846.79 1374.66 1851.76 Q1379.02 1856.72 1379.02 1865.51 Q1379.02 1874.26 1374.66 1879.26 Q1370.3 1884.22 1362.66 1884.22 Q1354.99 1884.22 1350.63 1879.26 Q1346.3 1874.26 1346.3 1865.51 Q1346.3 1856.72 1350.63 1851.76 Q1354.99 1846.79 1362.66 1846.79 Z" fill="#000000" fill-rule="evenodd" fill-opacity="1" /><path clip-path="url(#clip650)" d="M1406.77 1833.78 L1406.77 1838.65 L1401.17 1838.65 Q1398.02 1838.65 1396.78 1839.92 Q1395.57 1841.19 1395.57 1844.5 L1395.57 1847.65 L1405.21 1847.65 L1405.21 1852.2 L1395.57 1852.2 L1395.57 1883.3 L1389.68 1883.3 L1389.68 1852.2 L1384.08 1852.2 L1384.08 1847.65 L1389.68 1847.65 L1389.68 1845.17 Q1389.68 1839.22 1392.45 1836.51 Q1395.22 1833.78 1401.23 1833.78 L1406.77 1833.78 Z" fill="#000000" fill-rule="evenodd" fill-opacity="1" /><path clip-path="url(#clip650)" d="M1448.59 1865.38 Q1441.5 1865.38 1438.76 1867 Q1436.02 1868.63 1436.02 1872.54 Q1436.02 1875.66 1438.06 1877.51 Q1440.13 1879.32 1443.66 1879.32 Q1448.53 1879.32 1451.46 1875.88 Q1454.42 1872.42 1454.42 1866.69 L1454.42 1865.38 L1448.59 1865.38 M1460.28 1862.96 L1460.28 1883.3 L1454.42 1883.3 L1454.42 1877.89 Q1452.41 1881.14 1449.42 1882.7 Q1446.43 1884.22 1442.1 1884.22 Q1436.63 1884.22 1433.38 1881.17 Q1430.17 1878.08 1430.17 1872.92 Q1430.17 1866.91 1434.18 1863.85 Q1438.22 1860.8 1446.21 1860.8 L1454.42 1860.8 L1454.42 1860.23 Q1454.42 1856.18 1451.75 1853.99 Q1449.1 1851.76 1444.3 1851.76 Q1441.24 1851.76 1438.35 1852.49 Q1435.45 1853.22 1432.78 1854.69 L1432.78 1849.28 Q1435.99 1848.03 1439.01 1847.43 Q1442.04 1846.79 1444.9 1846.79 Q1452.64 1846.79 1456.46 1850.8 Q1460.28 1854.81 1460.28 1862.96 Z" fill="#000000" fill-rule="evenodd" fill-opacity="1" /><path clip-path="url(#clip650)" d="M1478.13 1837.53 L1478.13 1847.65 L1490.19 1847.65 L1490.19 1852.2 L1478.13 1852.2 L1478.13 1871.56 Q1478.13 1875.92 1479.31 1877.16 Q1480.52 1878.4 1484.18 1878.4 L1490.19 1878.4 L1490.19 1883.3 L1484.18 1883.3 Q1477.4 1883.3 1474.82 1880.79 Q1472.24 1878.24 1472.24 1871.56 L1472.24 1852.2 L1467.95 1852.2 L1467.95 1847.65 L1472.24 1847.65 L1472.24 1837.53 L1478.13 1837.53 Z" fill="#000000" fill-rule="evenodd" fill-opacity="1" /><path clip-path="url(#clip650)" d="M1503.69 1837.53 L1503.69 1847.65 L1515.75 1847.65 L1515.75 1852.2 L1503.69 1852.2 L1503.69 1871.56 Q1503.69 1875.92 1504.87 1877.16 Q1506.08 1878.4 1509.74 1878.4 L1515.75 1878.4 L1515.75 1883.3 L1509.74 1883.3 Q1502.96 1883.3 1500.38 1880.79 Q1497.8 1878.24 1497.8 1871.56 L1497.8 1852.2 L1493.5 1852.2 L1493.5 1847.65 L1497.8 1847.65 L1497.8 1837.53 L1503.69 1837.53 Z" fill="#000000" fill-rule="evenodd" fill-opacity="1" /><path clip-path="url(#clip650)" d="M1539.66 1865.38 Q1532.56 1865.38 1529.82 1867 Q1527.08 1868.63 1527.08 1872.54 Q1527.08 1875.66 1529.12 1877.51 Q1531.19 1879.32 1534.72 1879.32 Q1539.59 1879.32 1542.52 1875.88 Q1545.48 1872.42 1545.48 1866.69 L1545.48 1865.38 L1539.66 1865.38 M1551.34 1862.96 L1551.34 1883.3 L1545.48 1883.3 L1545.48 1877.89 Q1543.48 1881.14 1540.48 1882.7 Q1537.49 1884.22 1533.16 1884.22 Q1527.69 1884.22 1524.44 1881.17 Q1521.23 1878.08 1521.23 1872.92 Q1521.23 1866.91 1525.24 1863.85 Q1529.28 1860.8 1537.27 1860.8 L1545.48 1860.8 L1545.48 1860.23 Q1545.48 1856.18 1542.81 1853.99 Q1540.16 1851.76 1535.36 1851.76 Q1532.3 1851.76 1529.41 1852.49 Q1526.51 1853.22 1523.84 1854.69 L1523.84 1849.28 Q1527.05 1848.03 1530.08 1847.43 Q1533.1 1846.79 1535.96 1846.79 Q1543.7 1846.79 1547.52 1850.8 Q1551.34 1854.81 1551.34 1862.96 Z" fill="#000000" fill-rule="evenodd" fill-opacity="1" /><path clip-path="url(#clip650)" d="M1589.05 1849.02 L1589.05 1854.5 Q1586.57 1853.13 1584.06 1852.46 Q1581.57 1851.76 1579.03 1851.76 Q1573.33 1851.76 1570.18 1855.39 Q1567.03 1858.98 1567.03 1865.51 Q1567.03 1872.03 1570.18 1875.66 Q1573.33 1879.26 1579.03 1879.26 Q1581.57 1879.26 1584.06 1878.59 Q1586.57 1877.89 1589.05 1876.52 L1589.05 1881.93 Q1586.6 1883.08 1583.96 1883.65 Q1581.35 1884.22 1578.39 1884.22 Q1570.34 1884.22 1565.6 1879.16 Q1560.85 1874.1 1560.85 1865.51 Q1560.85 1856.79 1565.63 1851.79 Q1570.43 1846.79 1578.77 1846.79 Q1581.48 1846.79 1584.06 1847.37 Q1586.63 1847.91 1589.05 1849.02 Z" fill="#000000" fill-rule="evenodd" fill-opacity="1" /><path clip-path="url(#clip650)" d="M1599.02 1833.78 L1604.9 1833.78 L1604.9 1863.03 L1622.38 1847.65 L1629.86 1847.65 L1610.95 1864.33 L1630.65 1883.3 L1623.01 1883.3 L1604.9 1865.89 L1604.9 1883.3 L1599.02 1883.3 L1599.02 1833.78 Z" fill="#000000" fill-rule="evenodd" fill-opacity="1" /><path clip-path="url(#clip650)" d="M1657.17 1833.78 L1670.66 1833.78 L1670.66 1838.33 L1663.02 1838.33 L1663.02 1887.34 L1670.66 1887.34 L1670.66 1891.89 L1657.17 1891.89 L1657.17 1833.78 Z" fill="#000000" fill-rule="evenodd" fill-opacity="1" /><path clip-path="url(#clip650)" d="M1693.29 1839.03 Q1690.75 1839.03 1689 1840.81 Q1687.24 1842.56 1687.24 1845.11 Q1687.24 1847.62 1689 1849.37 Q1690.75 1851.09 1693.29 1851.09 Q1695.84 1851.09 1697.59 1849.37 Q1699.34 1847.62 1699.34 1845.11 Q1699.34 1842.59 1697.56 1840.81 Q1695.81 1839.03 1693.29 1839.03 M1693.29 1834.92 Q1695.33 1834.92 1697.21 1835.72 Q1699.08 1836.48 1700.45 1837.95 Q1701.92 1839.38 1702.65 1841.19 Q1703.38 1843.01 1703.38 1845.11 Q1703.38 1849.31 1700.42 1852.24 Q1697.49 1855.13 1693.23 1855.13 Q1688.93 1855.13 1686.07 1852.27 Q1683.2 1849.4 1683.2 1845.11 Q1683.2 1840.84 1686.13 1837.88 Q1689.06 1834.92 1693.29 1834.92 Z" fill="#000000" fill-rule="evenodd" fill-opacity="1" /><path clip-path="url(#clip650)" d="M1729.42 1833.78 L1729.42 1891.89 L1715.92 1891.89 L1715.92 1887.34 L1723.53 1887.34 L1723.53 1838.33 L1715.92 1838.33 L1715.92 1833.78 L1729.42 1833.78 Z" fill="#000000" fill-rule="evenodd" fill-opacity="1" /><polyline clip-path="url(#clip652)" style="stroke:#000000; stroke-linecap:round; stroke-linejoin:round; stroke-width:2; stroke-opacity:0.1; fill:none" points="
  225.654,1503.72 2640.76,1503.72 
  "/>
<polyline clip-path="url(#clip652)" style="stroke:#000000; stroke-linecap:round; stroke-linejoin:round; stroke-width:2; stroke-opacity:0.1; fill:none" points="
  225.654,1159.99 2640.76,1159.99 
  "/>
<polyline clip-path="url(#clip652)" style="stroke:#000000; stroke-linecap:round; stroke-linejoin:round; stroke-width:2; stroke-opacity:0.1; fill:none" points="
  225.654,816.255 2640.76,816.255 
  "/>
<polyline clip-path="url(#clip652)" style="stroke:#000000; stroke-linecap:round; stroke-linejoin:round; stroke-width:2; stroke-opacity:0.1; fill:none" points="
  225.654,472.522 2640.76,472.522 
  "/>
<polyline clip-path="url(#clip652)" style="stroke:#000000; stroke-linecap:round; stroke-linejoin:round; stroke-width:2; stroke-opacity:0.1; fill:none" points="
  225.654,128.79 2640.76,128.79 
  "/>
<polyline clip-path="url(#clip650)" style="stroke:#000000; stroke-linecap:round; stroke-linejoin:round; stroke-width:4; stroke-opacity:1; fill:none" points="
  225.654,1734.12 225.654,47.2441 
  "/>
<polyline clip-path="url(#clip650)" style="stroke:#000000; stroke-linecap:round; stroke-linejoin:round; stroke-width:4; stroke-opacity:1; fill:none" points="
  225.654,1503.72 244.552,1503.72 
  "/>
<polyline clip-path="url(#clip650)" style="stroke:#000000; stroke-linecap:round; stroke-linejoin:round; stroke-width:4; stroke-opacity:1; fill:none" points="
  225.654,1159.99 244.552,1159.99 
  "/>
<polyline clip-path="url(#clip650)" style="stroke:#000000; stroke-linecap:round; stroke-linejoin:round; stroke-width:4; stroke-opacity:1; fill:none" points="
  225.654,816.255 244.552,816.255 
  "/>
<polyline clip-path="url(#clip650)" style="stroke:#000000; stroke-linecap:round; stroke-linejoin:round; stroke-width:4; stroke-opacity:1; fill:none" points="
  225.654,472.522 244.552,472.522 
  "/>
<polyline clip-path="url(#clip650)" style="stroke:#000000; stroke-linecap:round; stroke-linejoin:round; stroke-width:4; stroke-opacity:1; fill:none" points="
  225.654,128.79 244.552,128.79 
  "/>
<path clip-path="url(#clip650)" d="M128.159 1489.52 Q124.548 1489.52 122.719 1493.08 Q120.913 1496.62 120.913 1503.75 Q120.913 1510.86 122.719 1514.43 Q124.548 1517.97 128.159 1517.97 Q131.793 1517.97 133.599 1514.43 Q135.427 1510.86 135.427 1503.75 Q135.427 1496.62 133.599 1493.08 Q131.793 1489.52 128.159 1489.52 M128.159 1485.81 Q133.969 1485.81 137.025 1490.42 Q140.103 1495 140.103 1503.75 Q140.103 1512.48 137.025 1517.09 Q133.969 1521.67 128.159 1521.67 Q122.349 1521.67 119.27 1517.09 Q116.214 1512.48 116.214 1503.75 Q116.214 1495 119.27 1490.42 Q122.349 1485.81 128.159 1485.81 Z" fill="#000000" fill-rule="evenodd" fill-opacity="1" /><path clip-path="url(#clip650)" d="M148.321 1515.12 L153.205 1515.12 L153.205 1521 L148.321 1521 L148.321 1515.12 Z" fill="#000000" fill-rule="evenodd" fill-opacity="1" /><path clip-path="url(#clip650)" d="M173.39 1489.52 Q169.779 1489.52 167.95 1493.08 Q166.145 1496.62 166.145 1503.75 Q166.145 1510.86 167.95 1514.43 Q169.779 1517.97 173.39 1517.97 Q177.024 1517.97 178.83 1514.43 Q180.659 1510.86 180.659 1503.75 Q180.659 1496.62 178.83 1493.08 Q177.024 1489.52 173.39 1489.52 M173.39 1485.81 Q179.2 1485.81 182.256 1490.42 Q185.334 1495 185.334 1503.75 Q185.334 1512.48 182.256 1517.09 Q179.2 1521.67 173.39 1521.67 Q167.58 1521.67 164.501 1517.09 Q161.446 1512.48 161.446 1503.75 Q161.446 1495 164.501 1490.42 Q167.58 1485.81 173.39 1485.81 Z" fill="#000000" fill-rule="evenodd" fill-opacity="1" /><path clip-path="url(#clip650)" d="M129.154 1145.79 Q125.543 1145.79 123.714 1149.35 Q121.909 1152.89 121.909 1160.02 Q121.909 1167.13 123.714 1170.69 Q125.543 1174.23 129.154 1174.23 Q132.788 1174.23 134.594 1170.69 Q136.423 1167.13 136.423 1160.02 Q136.423 1152.89 134.594 1149.35 Q132.788 1145.79 129.154 1145.79 M129.154 1142.08 Q134.964 1142.08 138.02 1146.69 Q141.099 1151.27 141.099 1160.02 Q141.099 1168.75 138.02 1173.36 Q134.964 1177.94 129.154 1177.94 Q123.344 1177.94 120.265 1173.36 Q117.21 1168.75 117.21 1160.02 Q117.21 1151.27 120.265 1146.69 Q123.344 1142.08 129.154 1142.08 Z" fill="#000000" fill-rule="evenodd" fill-opacity="1" /><path clip-path="url(#clip650)" d="M149.316 1171.39 L154.2 1171.39 L154.2 1177.27 L149.316 1177.27 L149.316 1171.39 Z" fill="#000000" fill-rule="evenodd" fill-opacity="1" /><path clip-path="url(#clip650)" d="M164.432 1142.71 L182.788 1142.71 L182.788 1146.64 L168.714 1146.64 L168.714 1155.11 Q169.733 1154.77 170.751 1154.61 Q171.77 1154.42 172.788 1154.42 Q178.575 1154.42 181.955 1157.59 Q185.334 1160.76 185.334 1166.18 Q185.334 1171.76 181.862 1174.86 Q178.39 1177.94 172.071 1177.94 Q169.895 1177.94 167.626 1177.57 Q165.381 1177.2 162.973 1176.46 L162.973 1171.76 Q165.057 1172.89 167.279 1173.45 Q169.501 1174 171.978 1174 Q175.983 1174 178.321 1171.9 Q180.659 1169.79 180.659 1166.18 Q180.659 1162.57 178.321 1160.46 Q175.983 1158.36 171.978 1158.36 Q170.103 1158.36 168.228 1158.77 Q166.376 1159.19 164.432 1160.07 L164.432 1142.71 Z" fill="#000000" fill-rule="evenodd" fill-opacity="1" /><path clip-path="url(#clip650)" d="M118.969 829.6 L126.608 829.6 L126.608 803.234 L118.298 804.901 L118.298 800.642 L126.562 798.975 L131.238 798.975 L131.238 829.6 L138.876 829.6 L138.876 833.535 L118.969 833.535 L118.969 829.6 Z" fill="#000000" fill-rule="evenodd" fill-opacity="1" /><path clip-path="url(#clip650)" d="M148.321 827.655 L153.205 827.655 L153.205 833.535 L148.321 833.535 L148.321 827.655 Z" fill="#000000" fill-rule="evenodd" fill-opacity="1" /><path clip-path="url(#clip650)" d="M173.39 802.054 Q169.779 802.054 167.95 805.618 Q166.145 809.16 166.145 816.29 Q166.145 823.396 167.95 826.961 Q169.779 830.503 173.39 830.503 Q177.024 830.503 178.83 826.961 Q180.659 823.396 180.659 816.29 Q180.659 809.16 178.83 805.618 Q177.024 802.054 173.39 802.054 M173.39 798.35 Q179.2 798.35 182.256 802.956 Q185.334 807.54 185.334 816.29 Q185.334 825.016 182.256 829.623 Q179.2 834.206 173.39 834.206 Q167.58 834.206 164.501 829.623 Q161.446 825.016 161.446 816.29 Q161.446 807.54 164.501 802.956 Q167.58 798.35 173.39 798.35 Z" fill="#000000" fill-rule="evenodd" fill-opacity="1" /><path clip-path="url(#clip650)" d="M119.964 485.867 L127.603 485.867 L127.603 459.502 L119.293 461.168 L119.293 456.909 L127.557 455.242 L132.233 455.242 L132.233 485.867 L139.872 485.867 L139.872 489.802 L119.964 489.802 L119.964 485.867 Z" fill="#000000" fill-rule="evenodd" fill-opacity="1" /><path clip-path="url(#clip650)" d="M149.316 483.923 L154.2 483.923 L154.2 489.802 L149.316 489.802 L149.316 483.923 Z" fill="#000000" fill-rule="evenodd" fill-opacity="1" /><path clip-path="url(#clip650)" d="M164.432 455.242 L182.788 455.242 L182.788 459.178 L168.714 459.178 L168.714 467.65 Q169.733 467.303 170.751 467.141 Q171.77 466.955 172.788 466.955 Q178.575 466.955 181.955 470.127 Q185.334 473.298 185.334 478.715 Q185.334 484.293 181.862 487.395 Q178.39 490.474 172.071 490.474 Q169.895 490.474 167.626 490.103 Q165.381 489.733 162.973 488.992 L162.973 484.293 Q165.057 485.428 167.279 485.983 Q169.501 486.539 171.978 486.539 Q175.983 486.539 178.321 484.432 Q180.659 482.326 180.659 478.715 Q180.659 475.103 178.321 472.997 Q175.983 470.891 171.978 470.891 Q170.103 470.891 168.228 471.307 Q166.376 471.724 164.432 472.604 L164.432 455.242 Z" fill="#000000" fill-rule="evenodd" fill-opacity="1" /><path clip-path="url(#clip650)" d="M122.187 142.135 L138.506 142.135 L138.506 146.07 L116.562 146.07 L116.562 142.135 Q119.224 139.38 123.807 134.751 Q128.413 130.098 129.594 128.755 Q131.839 126.232 132.719 124.496 Q133.622 122.737 133.622 121.047 Q133.622 118.292 131.677 116.556 Q129.756 114.82 126.654 114.82 Q124.455 114.82 122.001 115.584 Q119.571 116.348 116.793 117.899 L116.793 113.177 Q119.617 112.042 122.071 111.464 Q124.525 110.885 126.562 110.885 Q131.932 110.885 135.126 113.57 Q138.321 116.255 138.321 120.746 Q138.321 122.876 137.511 124.797 Q136.724 126.695 134.617 129.288 Q134.038 129.959 130.937 133.177 Q127.835 136.371 122.187 142.135 Z" fill="#000000" fill-rule="evenodd" fill-opacity="1" /><path clip-path="url(#clip650)" d="M148.321 140.19 L153.205 140.19 L153.205 146.07 L148.321 146.07 L148.321 140.19 Z" fill="#000000" fill-rule="evenodd" fill-opacity="1" /><path clip-path="url(#clip650)" d="M173.39 114.589 Q169.779 114.589 167.95 118.154 Q166.145 121.695 166.145 128.825 Q166.145 135.931 167.95 139.496 Q169.779 143.038 173.39 143.038 Q177.024 143.038 178.83 139.496 Q180.659 135.931 180.659 128.825 Q180.659 121.695 178.83 118.154 Q177.024 114.589 173.39 114.589 M173.39 110.885 Q179.2 110.885 182.256 115.492 Q185.334 120.075 185.334 128.825 Q185.334 137.552 182.256 142.158 Q179.2 146.741 173.39 146.741 Q167.58 146.741 164.501 142.158 Q161.446 137.552 161.446 128.825 Q161.446 120.075 164.501 115.492 Q167.58 110.885 173.39 110.885 Z" fill="#000000" fill-rule="evenodd" fill-opacity="1" /><path clip-path="url(#clip650)" d="M17.7787 1024.97 L24.5582 1024.97 Q21.5345 1028.21 20.0386 1031.9 Q18.5426 1035.56 18.5426 1039.7 Q18.5426 1047.85 23.5397 1052.18 Q28.5049 1056.51 37.9262 1056.51 Q47.3156 1056.51 52.3127 1052.18 Q57.2779 1047.85 57.2779 1039.7 Q57.2779 1035.56 55.782 1031.9 Q54.2861 1028.21 51.2623 1024.97 L57.9782 1024.97 Q60.2698 1028.34 61.4156 1032.13 Q62.5615 1035.88 62.5615 1040.08 Q62.5615 1050.87 55.973 1057.08 Q49.3526 1063.29 37.9262 1063.29 Q26.4679 1063.29 19.8794 1057.08 Q13.2591 1050.87 13.2591 1040.08 Q13.2591 1035.82 14.4049 1032.06 Q15.5189 1028.28 17.7787 1024.97 Z" fill="#000000" fill-rule="evenodd" fill-opacity="1" /><path clip-path="url(#clip650)" d="M30.0964 1001.48 Q30.0964 1006.19 33.7885 1008.92 Q37.4488 1011.66 43.8463 1011.66 Q50.2438 1011.66 53.9359 1008.96 Q57.5962 1006.22 57.5962 1001.48 Q57.5962 996.797 53.9041 994.06 Q50.212 991.322 43.8463 991.322 Q37.5124 991.322 33.8203 994.06 Q30.0964 996.797 30.0964 1001.48 M25.1311 1001.48 Q25.1311 993.837 30.0964 989.476 Q35.0616 985.116 43.8463 985.116 Q52.5991 985.116 57.5962 989.476 Q62.5615 993.837 62.5615 1001.48 Q62.5615 1009.15 57.5962 1013.51 Q52.5991 1017.84 43.8463 1017.84 Q35.0616 1017.84 30.0964 1013.51 Q25.1311 1009.15 25.1311 1001.48 Z" fill="#000000" fill-rule="evenodd" fill-opacity="1" /><path clip-path="url(#clip650)" d="M42.3504 944.916 L45.2149 944.916 L45.2149 971.843 Q51.2623 971.461 54.4452 968.215 Q57.5962 964.937 57.5962 959.112 Q57.5962 955.738 56.7687 952.587 Q55.9411 949.404 54.2861 946.285 L59.8242 946.285 Q61.161 949.436 61.8612 952.746 Q62.5615 956.056 62.5615 959.462 Q62.5615 967.992 57.5962 972.989 Q52.631 977.954 44.1646 977.954 Q35.4117 977.954 30.2873 973.244 Q25.1311 968.501 25.1311 960.481 Q25.1311 953.287 29.7781 949.118 Q34.3932 944.916 42.3504 944.916 M40.6316 950.773 Q35.8255 950.836 32.9609 953.478 Q30.0964 956.088 30.0964 960.417 Q30.0964 965.318 32.8654 968.279 Q35.6345 971.207 40.6634 971.652 L40.6316 950.773 Z" fill="#000000" fill-rule="evenodd" fill-opacity="1" /><path clip-path="url(#clip650)" d="M12.1132 917.257 L16.983 917.257 L16.983 922.859 Q16.983 926.01 18.2562 927.252 Q19.5293 928.461 22.8395 928.461 L25.9905 928.461 L25.9905 918.817 L30.542 918.817 L30.542 928.461 L61.6384 928.461 L61.6384 934.349 L30.542 934.349 L30.542 939.951 L25.9905 939.951 L25.9905 934.349 L23.5079 934.349 Q17.5559 934.349 14.8505 931.58 Q12.1132 928.811 12.1132 922.796 L12.1132 917.257 Z" fill="#000000" fill-rule="evenodd" fill-opacity="1" /><path clip-path="url(#clip650)" d="M12.1132 894.309 L16.983 894.309 L16.983 899.911 Q16.983 903.062 18.2562 904.303 Q19.5293 905.513 22.8395 905.513 L25.9905 905.513 L25.9905 895.869 L30.542 895.869 L30.542 905.513 L61.6384 905.513 L61.6384 911.401 L30.542 911.401 L30.542 917.003 L25.9905 917.003 L25.9905 911.401 L23.5079 911.401 Q17.5559 911.401 14.8505 908.632 Q12.1132 905.863 12.1132 899.847 L12.1132 894.309 Z" fill="#000000" fill-rule="evenodd" fill-opacity="1" /><path clip-path="url(#clip650)" d="M25.9905 889.407 L25.9905 883.551 L61.6384 883.551 L61.6384 889.407 L25.9905 889.407 M12.1132 889.407 L12.1132 883.551 L19.5293 883.551 L19.5293 889.407 L12.1132 889.407 Z" fill="#000000" fill-rule="evenodd" fill-opacity="1" /><path clip-path="url(#clip650)" d="M27.3591 845.643 L32.8336 845.643 Q31.465 848.126 30.7966 850.64 Q30.0964 853.123 30.0964 855.669 Q30.0964 861.366 33.7248 864.517 Q37.3214 867.669 43.8463 867.669 Q50.3711 867.669 53.9996 864.517 Q57.5962 861.366 57.5962 855.669 Q57.5962 853.123 56.9278 850.64 Q56.2276 848.126 54.859 845.643 L60.2698 845.643 Q61.4156 848.094 61.9886 850.736 Q62.5615 853.346 62.5615 856.306 Q62.5615 864.358 57.5007 869.101 Q52.44 873.843 43.8463 873.843 Q35.1253 873.843 30.1282 869.069 Q25.1311 864.263 25.1311 855.924 Q25.1311 853.218 25.704 850.64 Q26.2451 848.062 27.3591 845.643 Z" fill="#000000" fill-rule="evenodd" fill-opacity="1" /><path clip-path="url(#clip650)" d="M25.9905 835.458 L25.9905 829.602 L61.6384 829.602 L61.6384 835.458 L25.9905 835.458 M12.1132 835.458 L12.1132 829.602 L19.5293 829.602 L19.5293 835.458 L12.1132 835.458 Z" fill="#000000" fill-rule="evenodd" fill-opacity="1" /><path clip-path="url(#clip650)" d="M42.3504 786.856 L45.2149 786.856 L45.2149 813.783 Q51.2623 813.401 54.4452 810.154 Q57.5962 806.876 57.5962 801.051 Q57.5962 797.678 56.7687 794.527 Q55.9411 791.344 54.2861 788.224 L59.8242 788.224 Q61.161 791.376 61.8612 794.686 Q62.5615 797.996 62.5615 801.402 Q62.5615 809.932 57.5962 814.929 Q52.631 819.894 44.1646 819.894 Q35.4117 819.894 30.2873 815.183 Q25.1311 810.441 25.1311 802.42 Q25.1311 795.227 29.7781 791.057 Q34.3932 786.856 42.3504 786.856 M40.6316 792.712 Q35.8255 792.776 32.9609 795.418 Q30.0964 798.028 30.0964 802.356 Q30.0964 807.258 32.8654 810.218 Q35.6345 813.146 40.6634 813.592 L40.6316 792.712 Z" fill="#000000" fill-rule="evenodd" fill-opacity="1" /><path clip-path="url(#clip650)" d="M40.1224 747.611 L61.6384 747.611 L61.6384 753.468 L40.3133 753.468 Q35.2526 753.468 32.7381 755.441 Q30.2237 757.414 30.2237 761.361 Q30.2237 766.104 33.2474 768.841 Q36.2711 771.578 41.491 771.578 L61.6384 771.578 L61.6384 777.466 L25.9905 777.466 L25.9905 771.578 L31.5287 771.578 Q28.314 769.477 26.7225 766.645 Q25.1311 763.78 25.1311 760.056 Q25.1311 753.913 28.9505 750.762 Q32.7381 747.611 40.1224 747.611 Z" fill="#000000" fill-rule="evenodd" fill-opacity="1" /><path clip-path="url(#clip650)" d="M15.869 730.137 L25.9905 730.137 L25.9905 718.074 L30.542 718.074 L30.542 730.137 L49.8937 730.137 Q54.2542 730.137 55.4955 728.96 Q56.7368 727.75 56.7368 724.09 L56.7368 718.074 L61.6384 718.074 L61.6384 724.09 Q61.6384 730.869 59.124 733.448 Q56.5777 736.026 49.8937 736.026 L30.542 736.026 L30.542 740.323 L25.9905 740.323 L25.9905 736.026 L15.869 736.026 L15.869 730.137 Z" fill="#000000" fill-rule="evenodd" fill-opacity="1" /><polyline clip-path="url(#clip652)" style="stroke:#009af9; stroke-linecap:round; stroke-linejoin:round; stroke-width:4; stroke-opacity:1; fill:none" points="
  294.006,1505.25 619.436,1201.02 944.931,929.345 1270.43,707.783 1595.92,439.558 1921.41,94.9858 2246.91,251.556 2572.4,1686.38 
  "/>
<polyline clip-path="url(#clip652)" style="stroke:#e26f46; stroke-linecap:round; stroke-linejoin:round; stroke-width:4; stroke-opacity:1; fill:none" points="
  294.006,1495.2 619.436,1488.31 944.931,1468.99 1270.43,1436.78 1595.92,1330.25 1921.41,951.201 2246.91,738.372 2572.4,1369.3 
  "/>
<path clip-path="url(#clip650)" d="
M1946.5 1677.89 L2560.25 1677.89 L2560.25 1522.37 L1946.5 1522.37  Z
  " fill="#ffffff" fill-rule="evenodd" fill-opacity="1"/>
<polyline clip-path="url(#clip650)" style="stroke:#000000; stroke-linecap:round; stroke-linejoin:round; stroke-width:4; stroke-opacity:1; fill:none" points="
  1946.5,1677.89 2560.25,1677.89 2560.25,1522.37 1946.5,1522.37 1946.5,1677.89 
  "/>
<polyline clip-path="url(#clip650)" style="stroke:#009af9; stroke-linecap:round; stroke-linejoin:round; stroke-width:4; stroke-opacity:1; fill:none" points="
  1973.33,1574.21 2134.34,1574.21 
  "/>
<path clip-path="url(#clip650)" d="M2161.17 1556.93 L2165.85 1556.93 L2165.85 1587.55 L2182.68 1587.55 L2182.68 1591.49 L2161.17 1591.49 L2161.17 1556.93 Z" fill="#000000" fill-rule="evenodd" fill-opacity="1" /><path clip-path="url(#clip650)" d="M2187.4 1565.56 L2191.66 1565.56 L2191.66 1591.49 L2187.4 1591.49 L2187.4 1565.56 M2187.4 1555.47 L2191.66 1555.47 L2191.66 1560.86 L2187.4 1560.86 L2187.4 1555.47 Z" fill="#000000" fill-rule="evenodd" fill-opacity="1" /><path clip-path="url(#clip650)" d="M2213.7 1555.47 L2213.7 1559.01 L2209.62 1559.01 Q2207.33 1559.01 2206.43 1559.94 Q2205.55 1560.86 2205.55 1563.27 L2205.55 1565.56 L2212.56 1565.56 L2212.56 1568.87 L2205.55 1568.87 L2205.55 1591.49 L2201.27 1591.49 L2201.27 1568.87 L2197.19 1568.87 L2197.19 1565.56 L2201.27 1565.56 L2201.27 1563.76 Q2201.27 1559.43 2203.28 1557.46 Q2205.29 1555.47 2209.67 1555.47 L2213.7 1555.47 Z" fill="#000000" fill-rule="evenodd" fill-opacity="1" /><path clip-path="url(#clip650)" d="M2220.64 1558.2 L2220.64 1565.56 L2229.42 1565.56 L2229.42 1568.87 L2220.64 1568.87 L2220.64 1582.95 Q2220.64 1586.12 2221.5 1587.02 Q2222.38 1587.92 2225.04 1587.92 L2229.42 1587.92 L2229.42 1591.49 L2225.04 1591.49 Q2220.11 1591.49 2218.23 1589.66 Q2216.36 1587.81 2216.36 1582.95 L2216.36 1568.87 L2213.23 1568.87 L2213.23 1565.56 L2216.36 1565.56 L2216.36 1558.2 L2220.64 1558.2 Z" fill="#000000" fill-rule="evenodd" fill-opacity="1" /><path clip-path="url(#clip650)" d="M2268.74 1566.56 L2268.74 1570.54 Q2266.94 1569.54 2265.11 1569.06 Q2263.3 1568.55 2261.45 1568.55 Q2257.31 1568.55 2255.02 1571.19 Q2252.73 1573.8 2252.73 1578.55 Q2252.73 1583.29 2255.02 1585.93 Q2257.31 1588.55 2261.45 1588.55 Q2263.3 1588.55 2265.11 1588.06 Q2266.94 1587.55 2268.74 1586.56 L2268.74 1590.49 Q2266.96 1591.33 2265.04 1591.74 Q2263.14 1592.16 2260.99 1592.16 Q2255.13 1592.16 2251.68 1588.48 Q2248.23 1584.8 2248.23 1578.55 Q2248.23 1572.21 2251.71 1568.57 Q2255.2 1564.94 2261.27 1564.94 Q2263.23 1564.94 2265.11 1565.35 Q2266.98 1565.75 2268.74 1566.56 Z" fill="#000000" fill-rule="evenodd" fill-opacity="1" /><path clip-path="url(#clip650)" d="M2286.2 1568.55 Q2282.77 1568.55 2280.78 1571.23 Q2278.79 1573.9 2278.79 1578.55 Q2278.79 1583.2 2280.76 1585.89 Q2282.75 1588.55 2286.2 1588.55 Q2289.6 1588.55 2291.59 1585.86 Q2293.58 1583.18 2293.58 1578.55 Q2293.58 1573.94 2291.59 1571.26 Q2289.6 1568.55 2286.2 1568.55 M2286.2 1564.94 Q2291.75 1564.94 2294.92 1568.55 Q2298.1 1572.16 2298.1 1578.55 Q2298.1 1584.91 2294.92 1588.55 Q2291.75 1592.16 2286.2 1592.16 Q2280.62 1592.16 2277.45 1588.55 Q2274.3 1584.91 2274.3 1578.55 Q2274.3 1572.16 2277.45 1568.55 Q2280.62 1564.94 2286.2 1564.94 Z" fill="#000000" fill-rule="evenodd" fill-opacity="1" /><path clip-path="url(#clip650)" d="M2327.33 1577.46 L2327.33 1579.54 L2307.75 1579.54 Q2308.03 1583.94 2310.39 1586.26 Q2312.77 1588.55 2317.01 1588.55 Q2319.46 1588.55 2321.75 1587.95 Q2324.07 1587.34 2326.34 1586.14 L2326.34 1590.17 Q2324.04 1591.14 2321.64 1591.65 Q2319.23 1592.16 2316.75 1592.16 Q2310.55 1592.16 2306.91 1588.55 Q2303.3 1584.94 2303.3 1578.78 Q2303.3 1572.41 2306.73 1568.69 Q2310.18 1564.94 2316.01 1564.94 Q2321.24 1564.94 2324.28 1568.32 Q2327.33 1571.67 2327.33 1577.46 M2323.07 1576.21 Q2323.03 1572.71 2321.1 1570.63 Q2319.21 1568.55 2316.06 1568.55 Q2312.49 1568.55 2310.34 1570.56 Q2308.21 1572.58 2307.89 1576.23 L2323.07 1576.21 Z" fill="#000000" fill-rule="evenodd" fill-opacity="1" /><path clip-path="url(#clip650)" d="M2347.45 1555.47 L2347.45 1559.01 L2343.37 1559.01 Q2341.08 1559.01 2340.18 1559.94 Q2339.3 1560.86 2339.3 1563.27 L2339.3 1565.56 L2346.31 1565.56 L2346.31 1568.87 L2339.3 1568.87 L2339.3 1591.49 L2335.02 1591.49 L2335.02 1568.87 L2330.94 1568.87 L2330.94 1565.56 L2335.02 1565.56 L2335.02 1563.76 Q2335.02 1559.43 2337.03 1557.46 Q2339.04 1555.47 2343.42 1555.47 L2347.45 1555.47 Z" fill="#000000" fill-rule="evenodd" fill-opacity="1" /><path clip-path="url(#clip650)" d="M2364.14 1555.47 L2364.14 1559.01 L2360.06 1559.01 Q2357.77 1559.01 2356.87 1559.94 Q2355.99 1560.86 2355.99 1563.27 L2355.99 1565.56 L2363 1565.56 L2363 1568.87 L2355.99 1568.87 L2355.99 1591.49 L2351.71 1591.49 L2351.71 1568.87 L2347.63 1568.87 L2347.63 1565.56 L2351.71 1565.56 L2351.71 1563.76 Q2351.71 1559.43 2353.72 1557.46 Q2355.73 1555.47 2360.11 1555.47 L2364.14 1555.47 Z" fill="#000000" fill-rule="evenodd" fill-opacity="1" /><path clip-path="url(#clip650)" d="M2367.7 1565.56 L2371.96 1565.56 L2371.96 1591.49 L2367.7 1591.49 L2367.7 1565.56 M2367.7 1555.47 L2371.96 1555.47 L2371.96 1560.86 L2367.7 1560.86 L2367.7 1555.47 Z" fill="#000000" fill-rule="evenodd" fill-opacity="1" /><path clip-path="url(#clip650)" d="M2399.53 1566.56 L2399.53 1570.54 Q2397.72 1569.54 2395.9 1569.06 Q2394.09 1568.55 2392.24 1568.55 Q2388.09 1568.55 2385.8 1571.19 Q2383.51 1573.8 2383.51 1578.55 Q2383.51 1583.29 2385.8 1585.93 Q2388.09 1588.55 2392.24 1588.55 Q2394.09 1588.55 2395.9 1588.06 Q2397.72 1587.55 2399.53 1586.56 L2399.53 1590.49 Q2397.75 1591.33 2395.83 1591.74 Q2393.93 1592.16 2391.78 1592.16 Q2385.92 1592.16 2382.47 1588.48 Q2379.02 1584.8 2379.02 1578.55 Q2379.02 1572.21 2382.49 1568.57 Q2385.99 1564.94 2392.05 1564.94 Q2394.02 1564.94 2395.9 1565.35 Q2397.77 1565.75 2399.53 1566.56 Z" fill="#000000" fill-rule="evenodd" fill-opacity="1" /><path clip-path="url(#clip650)" d="M2406.94 1565.56 L2411.2 1565.56 L2411.2 1591.49 L2406.94 1591.49 L2406.94 1565.56 M2406.94 1555.47 L2411.2 1555.47 L2411.2 1560.86 L2406.94 1560.86 L2406.94 1555.47 Z" fill="#000000" fill-rule="evenodd" fill-opacity="1" /><path clip-path="url(#clip650)" d="M2442.28 1577.46 L2442.28 1579.54 L2422.7 1579.54 Q2422.98 1583.94 2425.34 1586.26 Q2427.72 1588.55 2431.96 1588.55 Q2434.41 1588.55 2436.71 1587.95 Q2439.02 1587.34 2441.29 1586.14 L2441.29 1590.17 Q2439 1591.14 2436.59 1591.65 Q2434.18 1592.16 2431.71 1592.16 Q2425.5 1592.16 2421.87 1588.55 Q2418.26 1584.94 2418.26 1578.78 Q2418.26 1572.41 2421.68 1568.69 Q2425.13 1564.94 2430.96 1564.94 Q2436.2 1564.94 2439.23 1568.32 Q2442.28 1571.67 2442.28 1577.46 M2438.03 1576.21 Q2437.98 1572.71 2436.06 1570.63 Q2434.16 1568.55 2431.01 1568.55 Q2427.45 1568.55 2425.29 1570.56 Q2423.16 1572.58 2422.84 1576.23 L2438.03 1576.21 Z" fill="#000000" fill-rule="evenodd" fill-opacity="1" /><path clip-path="url(#clip650)" d="M2470.83 1575.84 L2470.83 1591.49 L2466.57 1591.49 L2466.57 1575.98 Q2466.57 1572.3 2465.13 1570.47 Q2463.7 1568.64 2460.83 1568.64 Q2457.38 1568.64 2455.39 1570.84 Q2453.4 1573.04 2453.4 1576.84 L2453.4 1591.49 L2449.11 1591.49 L2449.11 1565.56 L2453.4 1565.56 L2453.4 1569.59 Q2454.92 1567.25 2456.98 1566.09 Q2459.07 1564.94 2461.77 1564.94 Q2466.24 1564.94 2468.53 1567.71 Q2470.83 1570.47 2470.83 1575.84 Z" fill="#000000" fill-rule="evenodd" fill-opacity="1" /><path clip-path="url(#clip650)" d="M2483.53 1558.2 L2483.53 1565.56 L2492.31 1565.56 L2492.31 1568.87 L2483.53 1568.87 L2483.53 1582.95 Q2483.53 1586.12 2484.39 1587.02 Q2485.27 1587.92 2487.93 1587.92 L2492.31 1587.92 L2492.31 1591.49 L2487.93 1591.49 Q2483 1591.49 2481.13 1589.66 Q2479.25 1587.81 2479.25 1582.95 L2479.25 1568.87 L2476.13 1568.87 L2476.13 1565.56 L2479.25 1565.56 L2479.25 1558.2 L2483.53 1558.2 Z" fill="#000000" fill-rule="evenodd" fill-opacity="1" /><polyline clip-path="url(#clip650)" style="stroke:#e26f46; stroke-linecap:round; stroke-linejoin:round; stroke-width:4; stroke-opacity:1; fill:none" points="
  1973.33,1626.05 2134.34,1626.05 
  "/>
<path clip-path="url(#clip650)" d="M2165.85 1612.61 L2165.85 1639.49 L2171.5 1639.49 Q2178.65 1639.49 2181.96 1636.24 Q2185.29 1633 2185.29 1626.01 Q2185.29 1619.07 2181.96 1615.85 Q2178.65 1612.61 2171.5 1612.61 L2165.85 1612.61 M2161.17 1608.77 L2170.78 1608.77 Q2180.83 1608.77 2185.53 1612.96 Q2190.23 1617.12 2190.23 1626.01 Q2190.23 1634.95 2185.5 1639.14 Q2180.78 1643.33 2170.78 1643.33 L2161.17 1643.33 L2161.17 1608.77 Z" fill="#000000" fill-rule="evenodd" fill-opacity="1" /><path clip-path="url(#clip650)" d="M2212.52 1621.38 Q2211.8 1620.97 2210.94 1620.78 Q2210.11 1620.57 2209.09 1620.57 Q2205.48 1620.57 2203.54 1622.93 Q2201.61 1625.27 2201.61 1629.67 L2201.61 1643.33 L2197.33 1643.33 L2197.33 1617.4 L2201.61 1617.4 L2201.61 1621.43 Q2202.96 1619.07 2205.11 1617.93 Q2207.26 1616.78 2210.34 1616.78 Q2210.78 1616.78 2211.31 1616.85 Q2211.85 1616.89 2212.49 1617.01 L2212.52 1621.38 Z" fill="#000000" fill-rule="evenodd" fill-opacity="1" /><path clip-path="url(#clip650)" d="M2228.77 1630.3 Q2223.6 1630.3 2221.61 1631.48 Q2219.62 1632.66 2219.62 1635.5 Q2219.62 1637.77 2221.1 1639.11 Q2222.61 1640.43 2225.18 1640.43 Q2228.72 1640.43 2230.85 1637.93 Q2233 1635.41 2233 1631.24 L2233 1630.3 L2228.77 1630.3 M2237.26 1628.54 L2237.26 1643.33 L2233 1643.33 L2233 1639.39 Q2231.54 1641.75 2229.37 1642.89 Q2227.19 1644 2224.04 1644 Q2220.06 1644 2217.7 1641.78 Q2215.36 1639.53 2215.36 1635.78 Q2215.36 1631.41 2218.28 1629.18 Q2221.22 1626.96 2227.03 1626.96 L2233 1626.96 L2233 1626.55 Q2233 1623.61 2231.06 1622.01 Q2229.14 1620.39 2225.64 1620.39 Q2223.42 1620.39 2221.31 1620.92 Q2219.21 1621.45 2217.26 1622.52 L2217.26 1618.58 Q2219.6 1617.68 2221.8 1617.24 Q2224 1616.78 2226.08 1616.78 Q2231.71 1616.78 2234.48 1619.69 Q2237.26 1622.61 2237.26 1628.54 Z" fill="#000000" fill-rule="evenodd" fill-opacity="1" /><path clip-path="url(#clip650)" d="M2263.1 1630.06 Q2263.1 1625.43 2261.17 1622.89 Q2259.28 1620.34 2255.83 1620.34 Q2252.4 1620.34 2250.48 1622.89 Q2248.58 1625.43 2248.58 1630.06 Q2248.58 1634.67 2250.48 1637.22 Q2252.4 1639.76 2255.83 1639.76 Q2259.28 1639.76 2261.17 1637.22 Q2263.1 1634.67 2263.1 1630.06 M2267.35 1640.11 Q2267.35 1646.73 2264.41 1649.95 Q2261.48 1653.19 2255.41 1653.19 Q2253.16 1653.19 2251.17 1652.84 Q2249.18 1652.52 2247.31 1651.82 L2247.31 1647.68 Q2249.18 1648.7 2251.01 1649.18 Q2252.84 1649.67 2254.74 1649.67 Q2258.93 1649.67 2261.01 1647.47 Q2263.1 1645.3 2263.1 1640.87 L2263.1 1638.77 Q2261.78 1641.06 2259.72 1642.19 Q2257.66 1643.33 2254.79 1643.33 Q2250.02 1643.33 2247.1 1639.69 Q2244.18 1636.06 2244.18 1630.06 Q2244.18 1624.05 2247.1 1620.41 Q2250.02 1616.78 2254.79 1616.78 Q2257.66 1616.78 2259.72 1617.91 Q2261.78 1619.05 2263.1 1621.34 L2263.1 1617.4 L2267.35 1617.4 L2267.35 1640.11 Z" fill="#000000" fill-rule="evenodd" fill-opacity="1" /><path clip-path="url(#clip650)" d="M2309.85 1618.4 L2309.85 1622.38 Q2308.05 1621.38 2306.22 1620.9 Q2304.41 1620.39 2302.56 1620.39 Q2298.42 1620.39 2296.13 1623.03 Q2293.84 1625.64 2293.84 1630.39 Q2293.84 1635.13 2296.13 1637.77 Q2298.42 1640.39 2302.56 1640.39 Q2304.41 1640.39 2306.22 1639.9 Q2308.05 1639.39 2309.85 1638.4 L2309.85 1642.33 Q2308.07 1643.17 2306.15 1643.58 Q2304.25 1644 2302.1 1644 Q2296.24 1644 2292.79 1640.32 Q2289.35 1636.64 2289.35 1630.39 Q2289.35 1624.05 2292.82 1620.41 Q2296.31 1616.78 2302.38 1616.78 Q2304.35 1616.78 2306.22 1617.19 Q2308.1 1617.59 2309.85 1618.4 Z" fill="#000000" fill-rule="evenodd" fill-opacity="1" /><path clip-path="url(#clip650)" d="M2327.31 1620.39 Q2323.88 1620.39 2321.89 1623.07 Q2319.9 1625.74 2319.9 1630.39 Q2319.9 1635.04 2321.87 1637.73 Q2323.86 1640.39 2327.31 1640.39 Q2330.71 1640.39 2332.7 1637.7 Q2334.69 1635.02 2334.69 1630.39 Q2334.69 1625.78 2332.7 1623.1 Q2330.71 1620.39 2327.31 1620.39 M2327.31 1616.78 Q2332.86 1616.78 2336.03 1620.39 Q2339.21 1624 2339.21 1630.39 Q2339.21 1636.75 2336.03 1640.39 Q2332.86 1644 2327.31 1644 Q2321.73 1644 2318.56 1640.39 Q2315.41 1636.75 2315.41 1630.39 Q2315.41 1624 2318.56 1620.39 Q2321.73 1616.78 2327.31 1616.78 Z" fill="#000000" fill-rule="evenodd" fill-opacity="1" /><path clip-path="url(#clip650)" d="M2368.44 1629.3 L2368.44 1631.38 L2348.86 1631.38 Q2349.14 1635.78 2351.5 1638.1 Q2353.88 1640.39 2358.12 1640.39 Q2360.57 1640.39 2362.86 1639.79 Q2365.18 1639.18 2367.45 1637.98 L2367.45 1642.01 Q2365.16 1642.98 2362.75 1643.49 Q2360.34 1644 2357.86 1644 Q2351.66 1644 2348.03 1640.39 Q2344.41 1636.78 2344.41 1630.62 Q2344.41 1624.25 2347.84 1620.53 Q2351.29 1616.78 2357.12 1616.78 Q2362.35 1616.78 2365.39 1620.16 Q2368.44 1623.51 2368.44 1629.3 M2364.18 1628.05 Q2364.14 1624.55 2362.22 1622.47 Q2360.32 1620.39 2357.17 1620.39 Q2353.6 1620.39 2351.45 1622.4 Q2349.32 1624.42 2349 1628.07 L2364.18 1628.05 Z" fill="#000000" fill-rule="evenodd" fill-opacity="1" /><path clip-path="url(#clip650)" d="M2388.56 1607.31 L2388.56 1610.85 L2384.48 1610.85 Q2382.19 1610.85 2381.29 1611.78 Q2380.41 1612.7 2380.41 1615.11 L2380.41 1617.4 L2387.42 1617.4 L2387.42 1620.71 L2380.41 1620.71 L2380.41 1643.33 L2376.13 1643.33 L2376.13 1620.71 L2372.05 1620.71 L2372.05 1617.4 L2376.13 1617.4 L2376.13 1615.6 Q2376.13 1611.27 2378.14 1609.3 Q2380.15 1607.31 2384.53 1607.31 L2388.56 1607.31 Z" fill="#000000" fill-rule="evenodd" fill-opacity="1" /><path clip-path="url(#clip650)" d="M2405.25 1607.31 L2405.25 1610.85 L2401.17 1610.85 Q2398.88 1610.85 2397.98 1611.78 Q2397.1 1612.7 2397.1 1615.11 L2397.1 1617.4 L2404.11 1617.4 L2404.11 1620.71 L2397.1 1620.71 L2397.1 1643.33 L2392.82 1643.33 L2392.82 1620.71 L2388.74 1620.71 L2388.74 1617.4 L2392.82 1617.4 L2392.82 1615.6 Q2392.82 1611.27 2394.83 1609.3 Q2396.84 1607.31 2401.22 1607.31 L2405.25 1607.31 Z" fill="#000000" fill-rule="evenodd" fill-opacity="1" /><path clip-path="url(#clip650)" d="M2408.81 1617.4 L2413.07 1617.4 L2413.07 1643.33 L2408.81 1643.33 L2408.81 1617.4 M2408.81 1607.31 L2413.07 1607.31 L2413.07 1612.7 L2408.81 1612.7 L2408.81 1607.31 Z" fill="#000000" fill-rule="evenodd" fill-opacity="1" /><path clip-path="url(#clip650)" d="M2440.64 1618.4 L2440.64 1622.38 Q2438.84 1621.38 2437.01 1620.9 Q2435.2 1620.39 2433.35 1620.39 Q2429.21 1620.39 2426.91 1623.03 Q2424.62 1625.64 2424.62 1630.39 Q2424.62 1635.13 2426.91 1637.77 Q2429.21 1640.39 2433.35 1640.39 Q2435.2 1640.39 2437.01 1639.9 Q2438.84 1639.39 2440.64 1638.4 L2440.64 1642.33 Q2438.86 1643.17 2436.94 1643.58 Q2435.04 1644 2432.89 1644 Q2427.03 1644 2423.58 1640.32 Q2420.13 1636.64 2420.13 1630.39 Q2420.13 1624.05 2423.6 1620.41 Q2427.1 1616.78 2433.16 1616.78 Q2435.13 1616.78 2437.01 1617.19 Q2438.88 1617.59 2440.64 1618.4 Z" fill="#000000" fill-rule="evenodd" fill-opacity="1" /><path clip-path="url(#clip650)" d="M2448.05 1617.4 L2452.31 1617.4 L2452.31 1643.33 L2448.05 1643.33 L2448.05 1617.4 M2448.05 1607.31 L2452.31 1607.31 L2452.31 1612.7 L2448.05 1612.7 L2448.05 1607.31 Z" fill="#000000" fill-rule="evenodd" fill-opacity="1" /><path clip-path="url(#clip650)" d="M2483.4 1629.3 L2483.4 1631.38 L2463.81 1631.38 Q2464.09 1635.78 2466.45 1638.1 Q2468.84 1640.39 2473.07 1640.39 Q2475.52 1640.39 2477.82 1639.79 Q2480.13 1639.18 2482.4 1637.98 L2482.4 1642.01 Q2480.11 1642.98 2477.7 1643.49 Q2475.29 1644 2472.82 1644 Q2466.61 1644 2462.98 1640.39 Q2459.37 1636.78 2459.37 1630.62 Q2459.37 1624.25 2462.79 1620.53 Q2466.24 1616.78 2472.08 1616.78 Q2477.31 1616.78 2480.34 1620.16 Q2483.4 1623.51 2483.4 1629.3 M2479.14 1628.05 Q2479.09 1624.55 2477.17 1622.47 Q2475.27 1620.39 2472.12 1620.39 Q2468.56 1620.39 2466.4 1622.4 Q2464.27 1624.42 2463.95 1628.07 L2479.14 1628.05 Z" fill="#000000" fill-rule="evenodd" fill-opacity="1" /><path clip-path="url(#clip650)" d="M2511.94 1627.68 L2511.94 1643.33 L2507.68 1643.33 L2507.68 1627.82 Q2507.68 1624.14 2506.24 1622.31 Q2504.81 1620.48 2501.94 1620.48 Q2498.49 1620.48 2496.5 1622.68 Q2494.51 1624.88 2494.51 1628.68 L2494.51 1643.33 L2490.22 1643.33 L2490.22 1617.4 L2494.51 1617.4 L2494.51 1621.43 Q2496.03 1619.09 2498.09 1617.93 Q2500.18 1616.78 2502.89 1616.78 Q2507.35 1616.78 2509.65 1619.55 Q2511.94 1622.31 2511.94 1627.68 Z" fill="#000000" fill-rule="evenodd" fill-opacity="1" /><path clip-path="url(#clip650)" d="M2524.64 1610.04 L2524.64 1617.4 L2533.42 1617.4 L2533.42 1620.71 L2524.64 1620.71 L2524.64 1634.79 Q2524.64 1637.96 2525.5 1638.86 Q2526.38 1639.76 2529.04 1639.76 L2533.42 1639.76 L2533.42 1643.33 L2529.04 1643.33 Q2524.11 1643.33 2522.24 1641.5 Q2520.36 1639.65 2520.36 1634.79 L2520.36 1620.71 L2517.24 1620.71 L2517.24 1617.4 L2520.36 1617.4 L2520.36 1610.04 L2524.64 1610.04 Z" fill="#000000" fill-rule="evenodd" fill-opacity="1" /></svg>
