<?xml version="1.0" encoding="utf-8"?>
<svg xmlns="http://www.w3.org/2000/svg" xmlns:xlink="http://www.w3.org/1999/xlink" width="672" height="480" viewBox="0 0 2688 1920">
<defs>
  <clipPath id="clip580">
    <rect x="0" y="0" width="2688" height="1920"/>
  </clipPath>
</defs>
<path clip-path="url(#clip580)" d="
M0 1920 L2688 1920 L2688 0 L0 0  Z
  " fill="#ffffff" fill-rule="evenodd" fill-opacity="1"/>
<defs>
  <clipPath id="clip581">
    <rect x="537" y="0" width="1883" height="1883"/>
  </clipPath>
</defs>
<path clip-path="url(#clip580)" d="
M262.251 1734.12 L2640.76 1734.12 L2640.76 47.2441 L262.251 47.2441  Z
  " fill="#ffffff" fill-rule="evenodd" fill-opacity="1"/>
<defs>
  <clipPath id="clip582">
    <rect x="262" y="47" width="2380" height="1688"/>
  </clipPath>
</defs>
<polyline clip-path="url(#clip582)" style="stroke:#000000; stroke-linecap:round; stroke-linejoin:round; stroke-width:2; stroke-opacity:0.1; fill:none" points="
  329.418,1734.12 329.418,47.2441 
  "/>
<polyline clip-path="url(#clip582)" style="stroke:#000000; stroke-linecap:round; stroke-linejoin:round; stroke-width:2; stroke-opacity:0.1; fill:none" points="
  1077.43,1734.12 1077.43,47.2441 
  "/>
<polyline clip-path="url(#clip582)" style="stroke:#000000; stroke-linecap:round; stroke-linejoin:round; stroke-width:2; stroke-opacity:0.1; fill:none" points="
  1825.43,1734.12 1825.43,47.2441 
  "/>
<polyline clip-path="url(#clip582)" style="stroke:#000000; stroke-linecap:round; stroke-linejoin:round; stroke-width:2; stroke-opacity:0.1; fill:none" points="
  2573.44,1734.12 2573.44,47.2441 
  "/>
<polyline clip-path="url(#clip580)" style="stroke:#000000; stroke-linecap:round; stroke-linejoin:round; stroke-width:4; stroke-opacity:1; fill:none" points="
  262.251,1734.12 2640.76,1734.12 
  "/>
<polyline clip-path="url(#clip580)" style="stroke:#000000; stroke-linecap:round; stroke-linejoin:round; stroke-width:4; stroke-opacity:1; fill:none" points="
  329.418,1734.12 329.418,1715.22 
  "/>
<polyline clip-path="url(#clip580)" style="stroke:#000000; stroke-linecap:round; stroke-linejoin:round; stroke-width:4; stroke-opacity:1; fill:none" points="
  1077.43,1734.12 1077.43,1715.22 
  "/>
<polyline clip-path="url(#clip580)" style="stroke:#000000; stroke-linecap:round; stroke-linejoin:round; stroke-width:4; stroke-opacity:1; fill:none" points="
  1825.43,1734.12 1825.43,1715.22 
  "/>
<polyline clip-path="url(#clip580)" style="stroke:#000000; stroke-linecap:round; stroke-linejoin:round; stroke-width:4; stroke-opacity:1; fill:none" points="
  2573.44,1734.12 2573.44,1715.22 
  "/>
<path clip-path="url(#clip580)" d="M329.418 1767.34 Q325.807 1767.34 323.978 1770.9 Q322.173 1774.45 322.173 1781.58 Q322.173 1788.68 323.978 1792.25 Q325.807 1795.79 329.418 1795.79 Q333.052 1795.79 334.858 1792.25 Q336.687 1788.68 336.687 1781.58 Q336.687 1774.45 334.858 1770.9 Q333.052 1767.34 329.418 1767.34 M329.418 1763.64 Q335.228 1763.64 338.284 1768.24 Q341.362 1772.83 341.362 1781.58 Q341.362 1790.3 338.284 1794.91 Q335.228 1799.49 329.418 1799.49 Q323.608 1799.49 320.529 1794.91 Q317.474 1790.3 317.474 1781.58 Q317.474 1772.83 320.529 1768.24 Q323.608 1763.64 329.418 1763.64 Z" fill="#000000" fill-rule="evenodd" fill-opacity="1" /><path clip-path="url(#clip580)" d="M1067.7 1764.26 L1086.06 1764.26 L1086.06 1768.2 L1071.99 1768.2 L1071.99 1776.67 Q1073 1776.32 1074.02 1776.16 Q1075.04 1775.97 1076.06 1775.97 Q1081.85 1775.97 1085.23 1779.15 Q1088.61 1782.32 1088.61 1787.73 Q1088.61 1793.31 1085.13 1796.41 Q1081.66 1799.49 1075.34 1799.49 Q1073.17 1799.49 1070.9 1799.12 Q1068.65 1798.75 1066.24 1798.01 L1066.24 1793.31 Q1068.33 1794.45 1070.55 1795 Q1072.77 1795.56 1075.25 1795.56 Q1079.25 1795.56 1081.59 1793.45 Q1083.93 1791.34 1083.93 1787.73 Q1083.93 1784.12 1081.59 1782.02 Q1079.25 1779.91 1075.25 1779.91 Q1073.37 1779.91 1071.5 1780.33 Q1069.65 1780.74 1067.7 1781.62 L1067.7 1764.26 Z" fill="#000000" fill-rule="evenodd" fill-opacity="1" /><path clip-path="url(#clip580)" d="M1800.12 1794.89 L1807.76 1794.89 L1807.76 1768.52 L1799.45 1770.19 L1799.45 1765.93 L1807.71 1764.26 L1812.39 1764.26 L1812.39 1794.89 L1820.03 1794.89 L1820.03 1798.82 L1800.12 1798.82 L1800.12 1794.89 Z" fill="#000000" fill-rule="evenodd" fill-opacity="1" /><path clip-path="url(#clip580)" d="M1839.47 1767.34 Q1835.86 1767.34 1834.03 1770.9 Q1832.23 1774.45 1832.23 1781.58 Q1832.23 1788.68 1834.03 1792.25 Q1835.86 1795.79 1839.47 1795.79 Q1843.11 1795.79 1844.91 1792.25 Q1846.74 1788.68 1846.74 1781.58 Q1846.74 1774.45 1844.91 1770.9 Q1843.11 1767.34 1839.47 1767.34 M1839.47 1763.64 Q1845.28 1763.64 1848.34 1768.24 Q1851.42 1772.83 1851.42 1781.58 Q1851.42 1790.3 1848.34 1794.91 Q1845.28 1799.49 1839.47 1799.49 Q1833.66 1799.49 1830.58 1794.91 Q1827.53 1790.3 1827.53 1781.58 Q1827.53 1772.83 1830.58 1768.24 Q1833.66 1763.64 1839.47 1763.64 Z" fill="#000000" fill-rule="evenodd" fill-opacity="1" /><path clip-path="url(#clip580)" d="M2548.63 1794.89 L2556.26 1794.89 L2556.26 1768.52 L2547.95 1770.19 L2547.95 1765.93 L2556.22 1764.26 L2560.89 1764.26 L2560.89 1794.89 L2568.53 1794.89 L2568.53 1798.82 L2548.63 1798.82 L2548.63 1794.89 Z" fill="#000000" fill-rule="evenodd" fill-opacity="1" /><path clip-path="url(#clip580)" d="M2578.02 1764.26 L2596.38 1764.26 L2596.38 1768.2 L2582.31 1768.2 L2582.31 1776.67 Q2583.32 1776.32 2584.34 1776.16 Q2585.36 1775.97 2586.38 1775.97 Q2592.17 1775.97 2595.55 1779.15 Q2598.93 1782.32 2598.93 1787.73 Q2598.93 1793.31 2595.45 1796.41 Q2591.98 1799.49 2585.66 1799.49 Q2583.49 1799.49 2581.22 1799.12 Q2578.97 1798.75 2576.56 1798.01 L2576.56 1793.31 Q2578.65 1794.45 2580.87 1795 Q2583.09 1795.56 2585.57 1795.56 Q2589.57 1795.56 2591.91 1793.45 Q2594.25 1791.34 2594.25 1787.73 Q2594.25 1784.12 2591.91 1782.02 Q2589.57 1779.91 2585.57 1779.91 Q2583.69 1779.91 2581.82 1780.33 Q2579.97 1780.74 2578.02 1781.62 L2578.02 1764.26 Z" fill="#000000" fill-rule="evenodd" fill-opacity="1" /><path clip-path="url(#clip580)" d="M1177.06 1842.11 L1168.34 1865.76 L1185.82 1865.76 L1177.06 1842.11 M1173.43 1835.78 L1180.72 1835.78 L1198.83 1883.3 L1192.15 1883.3 L1187.82 1871.11 L1166.4 1871.11 L1162.07 1883.3 L1155.29 1883.3 L1173.43 1835.78 Z" fill="#000000" fill-rule="evenodd" fill-opacity="1" /><path clip-path="url(#clip580)" d="M1235.15 1861.78 L1235.15 1883.3 L1229.29 1883.3 L1229.29 1861.98 Q1229.29 1856.92 1227.32 1854.4 Q1225.35 1851.89 1221.4 1851.89 Q1216.66 1851.89 1213.92 1854.91 Q1211.18 1857.93 1211.18 1863.15 L1211.18 1883.3 L1205.29 1883.3 L1205.29 1847.65 L1211.18 1847.65 L1211.18 1853.19 Q1213.28 1849.98 1216.12 1848.39 Q1218.98 1846.79 1222.7 1846.79 Q1228.85 1846.79 1232 1850.61 Q1235.15 1854.4 1235.15 1861.78 Z" fill="#000000" fill-rule="evenodd" fill-opacity="1" /><path clip-path="url(#clip580)" d="M1270.29 1865.06 Q1270.29 1858.7 1267.65 1855.2 Q1265.04 1851.7 1260.29 1851.7 Q1255.58 1851.7 1252.94 1855.2 Q1250.33 1858.7 1250.33 1865.06 Q1250.33 1871.4 1252.94 1874.9 Q1255.58 1878.4 1260.29 1878.4 Q1265.04 1878.4 1267.65 1874.9 Q1270.29 1871.4 1270.29 1865.06 M1276.14 1878.88 Q1276.14 1887.98 1272.1 1892.4 Q1268.06 1896.86 1259.72 1896.86 Q1256.63 1896.86 1253.9 1896.38 Q1251.16 1895.94 1248.58 1894.98 L1248.58 1889.28 Q1251.16 1890.69 1253.67 1891.35 Q1256.19 1892.02 1258.8 1892.02 Q1264.56 1892.02 1267.42 1889 Q1270.29 1886.01 1270.29 1879.93 L1270.29 1877.03 Q1268.47 1880.18 1265.64 1881.74 Q1262.81 1883.3 1258.86 1883.3 Q1252.3 1883.3 1248.29 1878.3 Q1244.28 1873.31 1244.28 1865.06 Q1244.28 1856.79 1248.29 1851.79 Q1252.3 1846.79 1258.86 1846.79 Q1262.81 1846.79 1265.64 1848.35 Q1268.47 1849.91 1270.29 1853.06 L1270.29 1847.65 L1276.14 1847.65 L1276.14 1878.88 Z" fill="#000000" fill-rule="evenodd" fill-opacity="1" /><path clip-path="url(#clip580)" d="M1288.21 1833.78 L1294.06 1833.78 L1294.06 1883.3 L1288.21 1883.3 L1288.21 1833.78 Z" fill="#000000" fill-rule="evenodd" fill-opacity="1" /><path clip-path="url(#clip580)" d="M1336.81 1864.01 L1336.81 1866.88 L1309.88 1866.88 Q1310.26 1872.92 1313.51 1876.11 Q1316.79 1879.26 1322.61 1879.26 Q1325.99 1879.26 1329.14 1878.43 Q1332.32 1877.6 1335.44 1875.95 L1335.44 1881.49 Q1332.29 1882.82 1328.98 1883.52 Q1325.67 1884.22 1322.26 1884.22 Q1313.73 1884.22 1308.74 1879.26 Q1303.77 1874.29 1303.77 1865.83 Q1303.77 1857.07 1308.48 1851.95 Q1313.22 1846.79 1321.25 1846.79 Q1328.44 1846.79 1332.61 1851.44 Q1336.81 1856.06 1336.81 1864.01 M1330.95 1862.29 Q1330.89 1857.49 1328.25 1854.62 Q1325.64 1851.76 1321.31 1851.76 Q1316.41 1851.76 1313.45 1854.53 Q1310.52 1857.3 1310.07 1862.33 L1330.95 1862.29 Z" fill="#000000" fill-rule="evenodd" fill-opacity="1" /><path clip-path="url(#clip580)" d="M1380.96 1851.76 Q1376.25 1851.76 1373.51 1855.45 Q1370.77 1859.11 1370.77 1865.51 Q1370.77 1871.91 1373.48 1875.6 Q1376.21 1879.26 1380.96 1879.26 Q1385.63 1879.26 1388.37 1875.57 Q1391.11 1871.87 1391.11 1865.51 Q1391.11 1859.17 1388.37 1855.48 Q1385.63 1851.76 1380.96 1851.76 M1380.96 1846.79 Q1388.59 1846.79 1392.96 1851.76 Q1397.32 1856.72 1397.32 1865.51 Q1397.32 1874.26 1392.96 1879.26 Q1388.59 1884.22 1380.96 1884.22 Q1373.29 1884.22 1368.92 1879.26 Q1364.6 1874.26 1364.6 1865.51 Q1364.6 1856.72 1368.92 1851.76 Q1373.29 1846.79 1380.96 1846.79 Z" fill="#000000" fill-rule="evenodd" fill-opacity="1" /><path clip-path="url(#clip580)" d="M1425.07 1833.78 L1425.07 1838.65 L1419.47 1838.65 Q1416.32 1838.65 1415.08 1839.92 Q1413.87 1841.19 1413.87 1844.5 L1413.87 1847.65 L1423.51 1847.65 L1423.51 1852.2 L1413.87 1852.2 L1413.87 1883.3 L1407.98 1883.3 L1407.98 1852.2 L1402.38 1852.2 L1402.38 1847.65 L1407.98 1847.65 L1407.98 1845.17 Q1407.98 1839.22 1410.75 1836.51 Q1413.52 1833.78 1419.53 1833.78 L1425.07 1833.78 Z" fill="#000000" fill-rule="evenodd" fill-opacity="1" /><path clip-path="url(#clip580)" d="M1466.89 1865.38 Q1459.8 1865.38 1457.06 1867 Q1454.32 1868.63 1454.32 1872.54 Q1454.32 1875.66 1456.36 1877.51 Q1458.43 1879.32 1461.96 1879.32 Q1466.83 1879.32 1469.76 1875.88 Q1472.72 1872.42 1472.72 1866.69 L1472.72 1865.38 L1466.89 1865.38 M1478.57 1862.96 L1478.57 1883.3 L1472.72 1883.3 L1472.72 1877.89 Q1470.71 1881.14 1467.72 1882.7 Q1464.73 1884.22 1460.4 1884.22 Q1454.93 1884.22 1451.68 1881.17 Q1448.46 1878.08 1448.46 1872.92 Q1448.46 1866.91 1452.47 1863.85 Q1456.52 1860.8 1464.51 1860.8 L1472.72 1860.8 L1472.72 1860.23 Q1472.72 1856.18 1470.04 1853.99 Q1467.4 1851.76 1462.6 1851.76 Q1459.54 1851.76 1456.64 1852.49 Q1453.75 1853.22 1451.07 1854.69 L1451.07 1849.28 Q1454.29 1848.03 1457.31 1847.43 Q1460.34 1846.79 1463.2 1846.79 Q1470.94 1846.79 1474.75 1850.8 Q1478.57 1854.81 1478.57 1862.96 Z" fill="#000000" fill-rule="evenodd" fill-opacity="1" /><path clip-path="url(#clip580)" d="M1496.43 1837.53 L1496.43 1847.65 L1508.49 1847.65 L1508.49 1852.2 L1496.43 1852.2 L1496.43 1871.56 Q1496.43 1875.92 1497.61 1877.16 Q1498.82 1878.4 1502.48 1878.4 L1508.49 1878.4 L1508.49 1883.3 L1502.48 1883.3 Q1495.7 1883.3 1493.12 1880.79 Q1490.54 1878.24 1490.54 1871.56 L1490.54 1852.2 L1486.24 1852.2 L1486.24 1847.65 L1490.54 1847.65 L1490.54 1837.53 L1496.43 1837.53 Z" fill="#000000" fill-rule="evenodd" fill-opacity="1" /><path clip-path="url(#clip580)" d="M1521.99 1837.53 L1521.99 1847.65 L1534.05 1847.65 L1534.05 1852.2 L1521.99 1852.2 L1521.99 1871.56 Q1521.99 1875.92 1523.17 1877.16 Q1524.38 1878.4 1528.04 1878.4 L1534.05 1878.4 L1534.05 1883.3 L1528.04 1883.3 Q1521.26 1883.3 1518.68 1880.79 Q1516.1 1878.24 1516.1 1871.56 L1516.1 1852.2 L1511.8 1852.2 L1511.8 1847.65 L1516.1 1847.65 L1516.1 1837.53 L1521.99 1837.53 Z" fill="#000000" fill-rule="evenodd" fill-opacity="1" /><path clip-path="url(#clip580)" d="M1557.95 1865.38 Q1550.86 1865.38 1548.12 1867 Q1545.38 1868.63 1545.38 1872.54 Q1545.38 1875.66 1547.42 1877.51 Q1549.49 1879.32 1553.02 1879.32 Q1557.89 1879.32 1560.82 1875.88 Q1563.78 1872.42 1563.78 1866.69 L1563.78 1865.38 L1557.95 1865.38 M1569.64 1862.96 L1569.64 1883.3 L1563.78 1883.3 L1563.78 1877.89 Q1561.77 1881.14 1558.78 1882.7 Q1555.79 1884.22 1551.46 1884.22 Q1545.99 1884.22 1542.74 1881.17 Q1539.53 1878.08 1539.53 1872.92 Q1539.53 1866.91 1543.54 1863.85 Q1547.58 1860.8 1555.57 1860.8 L1563.78 1860.8 L1563.78 1860.23 Q1563.78 1856.18 1561.11 1853.99 Q1558.46 1851.76 1553.66 1851.76 Q1550.6 1851.76 1547.71 1852.49 Q1544.81 1853.22 1542.14 1854.69 L1542.14 1849.28 Q1545.35 1848.03 1548.37 1847.43 Q1551.4 1846.79 1554.26 1846.79 Q1562 1846.79 1565.82 1850.8 Q1569.64 1854.81 1569.64 1862.96 Z" fill="#000000" fill-rule="evenodd" fill-opacity="1" /><path clip-path="url(#clip580)" d="M1607.35 1849.02 L1607.35 1854.5 Q1604.87 1853.13 1602.36 1852.46 Q1599.87 1851.76 1597.33 1851.76 Q1591.63 1851.76 1588.48 1855.39 Q1585.33 1858.98 1585.33 1865.51 Q1585.33 1872.03 1588.48 1875.66 Q1591.63 1879.26 1597.33 1879.26 Q1599.87 1879.26 1602.36 1878.59 Q1604.87 1877.89 1607.35 1876.52 L1607.35 1881.93 Q1604.9 1883.08 1602.26 1883.65 Q1599.65 1884.22 1596.69 1884.22 Q1588.64 1884.22 1583.89 1879.16 Q1579.15 1874.1 1579.15 1865.51 Q1579.15 1856.79 1583.93 1851.79 Q1588.73 1846.79 1597.07 1846.79 Q1599.78 1846.79 1602.36 1847.37 Q1604.93 1847.91 1607.35 1849.02 Z" fill="#000000" fill-rule="evenodd" fill-opacity="1" /><path clip-path="url(#clip580)" d="M1617.31 1833.78 L1623.2 1833.78 L1623.2 1863.03 L1640.68 1847.65 L1648.16 1847.65 L1629.25 1864.33 L1648.95 1883.3 L1641.31 1883.3 L1623.2 1865.89 L1623.2 1883.3 L1617.31 1883.3 L1617.31 1833.78 Z" fill="#000000" fill-rule="evenodd" fill-opacity="1" /><path clip-path="url(#clip580)" d="M1675.47 1833.78 L1688.96 1833.78 L1688.96 1838.33 L1681.32 1838.33 L1681.32 1887.34 L1688.96 1887.34 L1688.96 1891.89 L1675.47 1891.89 L1675.47 1833.78 Z" fill="#000000" fill-rule="evenodd" fill-opacity="1" /><path clip-path="url(#clip580)" d="M1711.59 1839.03 Q1709.04 1839.03 1707.29 1840.81 Q1705.54 1842.56 1705.54 1845.11 Q1705.54 1847.62 1707.29 1849.37 Q1709.04 1851.09 1711.59 1851.09 Q1714.14 1851.09 1715.89 1849.37 Q1717.64 1847.62 1717.64 1845.11 Q1717.64 1842.59 1715.86 1840.81 Q1714.11 1839.03 1711.59 1839.03 M1711.59 1834.92 Q1713.63 1834.92 1715.51 1835.72 Q1717.38 1836.48 1718.75 1837.95 Q1720.22 1839.38 1720.95 1841.19 Q1721.68 1843.01 1721.68 1845.11 Q1721.68 1849.31 1718.72 1852.24 Q1715.79 1855.13 1711.53 1855.13 Q1707.23 1855.13 1704.37 1852.27 Q1701.5 1849.4 1701.5 1845.11 Q1701.5 1840.84 1704.43 1837.88 Q1707.36 1834.92 1711.59 1834.92 Z" fill="#000000" fill-rule="evenodd" fill-opacity="1" /><path clip-path="url(#clip580)" d="M1747.72 1833.78 L1747.72 1891.89 L1734.22 1891.89 L1734.22 1887.34 L1741.83 1887.34 L1741.83 1838.33 L1734.22 1838.33 L1734.22 1833.78 L1747.72 1833.78 Z" fill="#000000" fill-rule="evenodd" fill-opacity="1" /><polyline clip-path="url(#clip582)" style="stroke:#000000; stroke-linecap:round; stroke-linejoin:round; stroke-width:2; stroke-opacity:0.1; fill:none" points="
  262.251,1457.89 2640.76,1457.89 
  "/>
<polyline clip-path="url(#clip582)" style="stroke:#000000; stroke-linecap:round; stroke-linejoin:round; stroke-width:2; stroke-opacity:0.1; fill:none" points="
  262.251,1134.43 2640.76,1134.43 
  "/>
<polyline clip-path="url(#clip582)" style="stroke:#000000; stroke-linecap:round; stroke-linejoin:round; stroke-width:2; stroke-opacity:0.1; fill:none" points="
  262.251,810.957 2640.76,810.957 
  "/>
<polyline clip-path="url(#clip582)" style="stroke:#000000; stroke-linecap:round; stroke-linejoin:round; stroke-width:2; stroke-opacity:0.1; fill:none" points="
  262.251,487.489 2640.76,487.489 
  "/>
<polyline clip-path="url(#clip582)" style="stroke:#000000; stroke-linecap:round; stroke-linejoin:round; stroke-width:2; stroke-opacity:0.1; fill:none" points="
  262.251,164.02 2640.76,164.02 
  "/>
<polyline clip-path="url(#clip580)" style="stroke:#000000; stroke-linecap:round; stroke-linejoin:round; stroke-width:4; stroke-opacity:1; fill:none" points="
  262.251,1734.12 262.251,47.2441 
  "/>
<polyline clip-path="url(#clip580)" style="stroke:#000000; stroke-linecap:round; stroke-linejoin:round; stroke-width:4; stroke-opacity:1; fill:none" points="
  262.251,1457.89 281.149,1457.89 
  "/>
<polyline clip-path="url(#clip580)" style="stroke:#000000; stroke-linecap:round; stroke-linejoin:round; stroke-width:4; stroke-opacity:1; fill:none" points="
  262.251,1134.43 281.149,1134.43 
  "/>
<polyline clip-path="url(#clip580)" style="stroke:#000000; stroke-linecap:round; stroke-linejoin:round; stroke-width:4; stroke-opacity:1; fill:none" points="
  262.251,810.957 281.149,810.957 
  "/>
<polyline clip-path="url(#clip580)" style="stroke:#000000; stroke-linecap:round; stroke-linejoin:round; stroke-width:4; stroke-opacity:1; fill:none" points="
  262.251,487.489 281.149,487.489 
  "/>
<polyline clip-path="url(#clip580)" style="stroke:#000000; stroke-linecap:round; stroke-linejoin:round; stroke-width:4; stroke-opacity:1; fill:none" points="
  262.251,164.02 281.149,164.02 
  "/>
<path clip-path="url(#clip580)" d="M116.214 1458.35 L145.89 1458.35 L145.89 1462.28 L116.214 1462.28 L116.214 1458.35 Z" fill="#000000" fill-rule="evenodd" fill-opacity="1" /><path clip-path="url(#clip580)" d="M165.983 1443.69 Q162.372 1443.69 160.543 1447.26 Q158.737 1450.8 158.737 1457.93 Q158.737 1465.04 160.543 1468.6 Q162.372 1472.14 165.983 1472.14 Q169.617 1472.14 171.422 1468.6 Q173.251 1465.04 173.251 1457.93 Q173.251 1450.8 171.422 1447.26 Q169.617 1443.69 165.983 1443.69 M165.983 1439.99 Q171.793 1439.99 174.848 1444.6 Q177.927 1449.18 177.927 1457.93 Q177.927 1466.66 174.848 1471.26 Q171.793 1475.85 165.983 1475.85 Q160.173 1475.85 157.094 1471.26 Q154.038 1466.66 154.038 1457.93 Q154.038 1449.18 157.094 1444.6 Q160.173 1439.99 165.983 1439.99 Z" fill="#000000" fill-rule="evenodd" fill-opacity="1" /><path clip-path="url(#clip580)" d="M186.145 1469.29 L191.029 1469.29 L191.029 1475.17 L186.145 1475.17 L186.145 1469.29 Z" fill="#000000" fill-rule="evenodd" fill-opacity="1" /><path clip-path="url(#clip580)" d="M202.024 1471.24 L209.663 1471.24 L209.663 1444.87 L201.353 1446.54 L201.353 1442.28 L209.617 1440.61 L214.293 1440.61 L214.293 1471.24 L221.931 1471.24 L221.931 1475.17 L202.024 1475.17 L202.024 1471.24 Z" fill="#000000" fill-rule="evenodd" fill-opacity="1" /><path clip-path="url(#clip580)" d="M164.756 1120.22 Q161.145 1120.22 159.316 1123.79 Q157.511 1127.33 157.511 1134.46 Q157.511 1141.57 159.316 1145.13 Q161.145 1148.67 164.756 1148.67 Q168.39 1148.67 170.196 1145.13 Q172.024 1141.57 172.024 1134.46 Q172.024 1127.33 170.196 1123.79 Q168.39 1120.22 164.756 1120.22 M164.756 1116.52 Q170.566 1116.52 173.622 1121.13 Q176.7 1125.71 176.7 1134.46 Q176.7 1143.19 173.622 1147.79 Q170.566 1152.38 164.756 1152.38 Q158.946 1152.38 155.867 1147.79 Q152.811 1143.19 152.811 1134.46 Q152.811 1125.71 155.867 1121.13 Q158.946 1116.52 164.756 1116.52 Z" fill="#000000" fill-rule="evenodd" fill-opacity="1" /><path clip-path="url(#clip580)" d="M184.918 1145.83 L189.802 1145.83 L189.802 1151.71 L184.918 1151.71 L184.918 1145.83 Z" fill="#000000" fill-rule="evenodd" fill-opacity="1" /><path clip-path="url(#clip580)" d="M209.987 1120.22 Q206.376 1120.22 204.547 1123.79 Q202.742 1127.33 202.742 1134.46 Q202.742 1141.57 204.547 1145.13 Q206.376 1148.67 209.987 1148.67 Q213.621 1148.67 215.427 1145.13 Q217.256 1141.57 217.256 1134.46 Q217.256 1127.33 215.427 1123.79 Q213.621 1120.22 209.987 1120.22 M209.987 1116.52 Q215.797 1116.52 218.853 1121.13 Q221.931 1125.71 221.931 1134.46 Q221.931 1143.19 218.853 1147.79 Q215.797 1152.38 209.987 1152.38 Q204.177 1152.38 201.098 1147.79 Q198.043 1143.19 198.043 1134.46 Q198.043 1125.71 201.098 1121.13 Q204.177 1116.52 209.987 1116.52 Z" fill="#000000" fill-rule="evenodd" fill-opacity="1" /><path clip-path="url(#clip580)" d="M165.983 796.756 Q162.372 796.756 160.543 800.321 Q158.737 803.862 158.737 810.992 Q158.737 818.098 160.543 821.663 Q162.372 825.205 165.983 825.205 Q169.617 825.205 171.422 821.663 Q173.251 818.098 173.251 810.992 Q173.251 803.862 171.422 800.321 Q169.617 796.756 165.983 796.756 M165.983 793.052 Q171.793 793.052 174.848 797.659 Q177.927 802.242 177.927 810.992 Q177.927 819.719 174.848 824.325 Q171.793 828.909 165.983 828.909 Q160.173 828.909 157.094 824.325 Q154.038 819.719 154.038 810.992 Q154.038 802.242 157.094 797.659 Q160.173 793.052 165.983 793.052 Z" fill="#000000" fill-rule="evenodd" fill-opacity="1" /><path clip-path="url(#clip580)" d="M186.145 822.358 L191.029 822.358 L191.029 828.237 L186.145 828.237 L186.145 822.358 Z" fill="#000000" fill-rule="evenodd" fill-opacity="1" /><path clip-path="url(#clip580)" d="M202.024 824.302 L209.663 824.302 L209.663 797.937 L201.353 799.603 L201.353 795.344 L209.617 793.677 L214.293 793.677 L214.293 824.302 L221.931 824.302 L221.931 828.237 L202.024 828.237 L202.024 824.302 Z" fill="#000000" fill-rule="evenodd" fill-opacity="1" /><path clip-path="url(#clip580)" d="M166.353 473.287 Q162.742 473.287 160.913 476.852 Q159.108 480.394 159.108 487.523 Q159.108 494.63 160.913 498.195 Q162.742 501.736 166.353 501.736 Q169.987 501.736 171.793 498.195 Q173.622 494.63 173.622 487.523 Q173.622 480.394 171.793 476.852 Q169.987 473.287 166.353 473.287 M166.353 469.584 Q172.163 469.584 175.219 474.19 Q178.297 478.773 178.297 487.523 Q178.297 496.25 175.219 500.857 Q172.163 505.44 166.353 505.44 Q160.543 505.44 157.464 500.857 Q154.409 496.25 154.409 487.523 Q154.409 478.773 157.464 474.19 Q160.543 469.584 166.353 469.584 Z" fill="#000000" fill-rule="evenodd" fill-opacity="1" /><path clip-path="url(#clip580)" d="M186.515 498.889 L191.399 498.889 L191.399 504.769 L186.515 504.769 L186.515 498.889 Z" fill="#000000" fill-rule="evenodd" fill-opacity="1" /><path clip-path="url(#clip580)" d="M205.612 500.834 L221.931 500.834 L221.931 504.769 L199.987 504.769 L199.987 500.834 Q202.649 498.079 207.232 493.449 Q211.839 488.797 213.019 487.454 Q215.265 484.931 216.144 483.195 Q217.047 481.436 217.047 479.746 Q217.047 476.991 215.103 475.255 Q213.182 473.519 210.08 473.519 Q207.881 473.519 205.427 474.283 Q202.996 475.047 200.219 476.598 L200.219 471.875 Q203.043 470.741 205.496 470.162 Q207.95 469.584 209.987 469.584 Q215.357 469.584 218.552 472.269 Q221.746 474.954 221.746 479.445 Q221.746 481.574 220.936 483.496 Q220.149 485.394 218.043 487.986 Q217.464 488.658 214.362 491.875 Q211.26 495.07 205.612 500.834 Z" fill="#000000" fill-rule="evenodd" fill-opacity="1" /><path clip-path="url(#clip580)" d="M165.404 149.819 Q161.793 149.819 159.964 153.384 Q158.159 156.925 158.159 164.055 Q158.159 171.161 159.964 174.726 Q161.793 178.268 165.404 178.268 Q169.038 178.268 170.844 174.726 Q172.672 171.161 172.672 164.055 Q172.672 156.925 170.844 153.384 Q169.038 149.819 165.404 149.819 M165.404 146.115 Q171.214 146.115 174.27 150.722 Q177.348 155.305 177.348 164.055 Q177.348 172.782 174.27 177.388 Q171.214 181.971 165.404 181.971 Q159.594 181.971 156.515 177.388 Q153.46 172.782 153.46 164.055 Q153.46 155.305 156.515 150.722 Q159.594 146.115 165.404 146.115 Z" fill="#000000" fill-rule="evenodd" fill-opacity="1" /><path clip-path="url(#clip580)" d="M185.566 175.421 L190.45 175.421 L190.45 181.3 L185.566 181.3 L185.566 175.421 Z" fill="#000000" fill-rule="evenodd" fill-opacity="1" /><path clip-path="url(#clip580)" d="M214.802 162.666 Q218.158 163.384 220.033 165.652 Q221.931 167.921 221.931 171.254 Q221.931 176.37 218.413 179.171 Q214.894 181.971 208.413 181.971 Q206.237 181.971 203.922 181.532 Q201.631 181.115 199.177 180.258 L199.177 175.745 Q201.121 176.879 203.436 177.458 Q205.751 178.036 208.274 178.036 Q212.672 178.036 214.964 176.3 Q217.279 174.564 217.279 171.254 Q217.279 168.198 215.126 166.485 Q212.996 164.749 209.177 164.749 L205.149 164.749 L205.149 160.907 L209.362 160.907 Q212.811 160.907 214.64 159.541 Q216.469 158.152 216.469 155.56 Q216.469 152.898 214.57 151.485 Q212.695 150.05 209.177 150.05 Q207.256 150.05 205.057 150.467 Q202.857 150.884 200.219 151.763 L200.219 147.597 Q202.881 146.856 205.195 146.486 Q207.533 146.115 209.594 146.115 Q214.918 146.115 218.019 148.546 Q221.121 150.953 221.121 155.073 Q221.121 157.944 219.478 159.935 Q217.834 161.902 214.802 162.666 Z" fill="#000000" fill-rule="evenodd" fill-opacity="1" /><path clip-path="url(#clip580)" d="M17.7787 1024.97 L24.5582 1024.97 Q21.5345 1028.21 20.0386 1031.9 Q18.5426 1035.56 18.5426 1039.7 Q18.5426 1047.85 23.5397 1052.18 Q28.5049 1056.51 37.9262 1056.51 Q47.3156 1056.51 52.3127 1052.18 Q57.2779 1047.85 57.2779 1039.7 Q57.2779 1035.56 55.782 1031.9 Q54.2861 1028.21 51.2623 1024.97 L57.9782 1024.97 Q60.2698 1028.34 61.4156 1032.13 Q62.5615 1035.88 62.5615 1040.08 Q62.5615 1050.87 55.973 1057.08 Q49.3526 1063.29 37.9262 1063.29 Q26.4679 1063.29 19.8794 1057.08 Q13.2591 1050.87 13.2591 1040.08 Q13.2591 1035.82 14.4049 1032.06 Q15.5189 1028.28 17.7787 1024.97 Z" fill="#000000" fill-rule="evenodd" fill-opacity="1" /><path clip-path="url(#clip580)" d="M30.0964 1001.48 Q30.0964 1006.19 33.7885 1008.92 Q37.4488 1011.66 43.8463 1011.66 Q50.2438 1011.66 53.9359 1008.96 Q57.5962 1006.22 57.5962 1001.48 Q57.5962 996.797 53.9041 994.06 Q50.212 991.322 43.8463 991.322 Q37.5124 991.322 33.8203 994.06 Q30.0964 996.797 30.0964 1001.48 M25.1311 1001.48 Q25.1311 993.837 30.0964 989.476 Q35.0616 985.116 43.8463 985.116 Q52.5991 985.116 57.5962 989.476 Q62.5615 993.837 62.5615 1001.48 Q62.5615 1009.15 57.5962 1013.51 Q52.5991 1017.84 43.8463 1017.84 Q35.0616 1017.84 30.0964 1013.51 Q25.1311 1009.15 25.1311 1001.48 Z" fill="#000000" fill-rule="evenodd" fill-opacity="1" /><path clip-path="url(#clip580)" d="M42.3504 944.916 L45.2149 944.916 L45.2149 971.843 Q51.2623 971.461 54.4452 968.215 Q57.5962 964.937 57.5962 959.112 Q57.5962 955.738 56.7687 952.587 Q55.9411 949.404 54.2861 946.285 L59.8242 946.285 Q61.161 949.436 61.8612 952.746 Q62.5615 956.056 62.5615 959.462 Q62.5615 967.992 57.5962 972.989 Q52.631 977.954 44.1646 977.954 Q35.4117 977.954 30.2873 973.244 Q25.1311 968.501 25.1311 960.481 Q25.1311 953.287 29.7781 949.118 Q34.3932 944.916 42.3504 944.916 M40.6316 950.773 Q35.8255 950.836 32.9609 953.478 Q30.0964 956.088 30.0964 960.417 Q30.0964 965.318 32.8654 968.279 Q35.6345 971.207 40.6634 971.652 L40.6316 950.773 Z" fill="#000000" fill-rule="evenodd" fill-opacity="1" /><path clip-path="url(#clip580)" d="M12.1132 917.257 L16.983 917.257 L16.983 922.859 Q16.983 926.01 18.2562 927.252 Q19.5293 928.461 22.8395 928.461 L25.9905 928.461 L25.9905 918.817 L30.542 918.817 L30.542 928.461 L61.6384 928.461 L61.6384 934.349 L30.542 934.349 L30.542 939.951 L25.9905 939.951 L25.9905 934.349 L23.5079 934.349 Q17.5559 934.349 14.8505 931.58 Q12.1132 928.811 12.1132 922.796 L12.1132 917.257 Z" fill="#000000" fill-rule="evenodd" fill-opacity="1" /><path clip-path="url(#clip580)" d="M12.1132 894.309 L16.983 894.309 L16.983 899.911 Q16.983 903.062 18.2562 904.303 Q19.5293 905.513 22.8395 905.513 L25.9905 905.513 L25.9905 895.869 L30.542 895.869 L30.542 905.513 L61.6384 905.513 L61.6384 911.401 L30.542 911.401 L30.542 917.003 L25.9905 917.003 L25.9905 911.401 L23.5079 911.401 Q17.5559 911.401 14.8505 908.632 Q12.1132 905.863 12.1132 899.847 L12.1132 894.309 Z" fill="#000000" fill-rule="evenodd" fill-opacity="1" /><path clip-path="url(#clip580)" d="M25.9905 889.407 L25.9905 883.551 L61.6384 883.551 L61.6384 889.407 L25.9905 889.407 M12.1132 889.407 L12.1132 883.551 L19.5293 883.551 L19.5293 889.407 L12.1132 889.407 Z" fill="#000000" fill-rule="evenodd" fill-opacity="1" /><path clip-path="url(#clip580)" d="M27.3591 845.643 L32.8336 845.643 Q31.465 848.126 30.7966 850.64 Q30.0964 853.123 30.0964 855.669 Q30.0964 861.366 33.7248 864.517 Q37.3214 867.669 43.8463 867.669 Q50.3711 867.669 53.9996 864.517 Q57.5962 861.366 57.5962 855.669 Q57.5962 853.123 56.9278 850.64 Q56.2276 848.126 54.859 845.643 L60.2698 845.643 Q61.4156 848.094 61.9886 850.736 Q62.5615 853.346 62.5615 856.306 Q62.5615 864.358 57.5007 869.101 Q52.44 873.843 43.8463 873.843 Q35.1253 873.843 30.1282 869.069 Q25.1311 864.263 25.1311 855.924 Q25.1311 853.218 25.704 850.64 Q26.2451 848.062 27.3591 845.643 Z" fill="#000000" fill-rule="evenodd" fill-opacity="1" /><path clip-path="url(#clip580)" d="M25.9905 835.458 L25.9905 829.602 L61.6384 829.602 L61.6384 835.458 L25.9905 835.458 M12.1132 835.458 L12.1132 829.602 L19.5293 829.602 L19.5293 835.458 L12.1132 835.458 Z" fill="#000000" fill-rule="evenodd" fill-opacity="1" /><path clip-path="url(#clip580)" d="M42.3504 786.856 L45.2149 786.856 L45.2149 813.783 Q51.2623 813.401 54.4452 810.154 Q57.5962 806.876 57.5962 801.051 Q57.5962 797.678 56.7687 794.527 Q55.9411 791.344 54.2861 788.224 L59.8242 788.224 Q61.161 791.376 61.8612 794.686 Q62.5615 797.996 62.5615 801.402 Q62.5615 809.932 57.5962 814.929 Q52.631 819.894 44.1646 819.894 Q35.4117 819.894 30.2873 815.183 Q25.1311 810.441 25.1311 802.42 Q25.1311 795.227 29.7781 791.057 Q34.3932 786.856 42.3504 786.856 M40.6316 792.712 Q35.8255 792.776 32.9609 795.418 Q30.0964 798.028 30.0964 802.356 Q30.0964 807.258 32.8654 810.218 Q35.6345 813.146 40.6634 813.592 L40.6316 792.712 Z" fill="#000000" fill-rule="evenodd" fill-opacity="1" /><path clip-path="url(#clip580)" d="M40.1224 747.611 L61.6384 747.611 L61.6384 753.468 L40.3133 753.468 Q35.2526 753.468 32.7381 755.441 Q30.2237 757.414 30.2237 761.361 Q30.2237 766.104 33.2474 768.841 Q36.2711 771.578 41.491 771.578 L61.6384 771.578 L61.6384 777.466 L25.9905 777.466 L25.9905 771.578 L31.5287 771.578 Q28.314 769.477 26.7225 766.645 Q25.1311 763.78 25.1311 760.056 Q25.1311 753.913 28.9505 750.762 Q32.7381 747.611 40.1224 747.611 Z" fill="#000000" fill-rule="evenodd" fill-opacity="1" /><path clip-path="url(#clip580)" d="M15.869 730.137 L25.9905 730.137 L25.9905 718.074 L30.542 718.074 L30.542 730.137 L49.8937 730.137 Q54.2542 730.137 55.4955 728.96 Q56.7368 727.75 56.7368 724.09 L56.7368 718.074 L61.6384 718.074 L61.6384 724.09 Q61.6384 730.869 59.124 733.448 Q56.5777 736.026 49.8937 736.026 L30.542 736.026 L30.542 740.323 L25.9905 740.323 L25.9905 736.026 L15.869 736.026 L15.869 730.137 Z" fill="#000000" fill-rule="evenodd" fill-opacity="1" /><polyline clip-path="url(#clip582)" style="stroke:#009af9; stroke-linecap:round; stroke-linejoin:round; stroke-width:4; stroke-opacity:1; fill:none" points="
  329.568,1095.6 703.422,1021.9 1077.43,1527.16 1451.43,670.603 1825.43,1238.79 2199.44,1686.38 2573.44,94.9858 
  "/>
<path clip-path="url(#clip580)" d="
M1992.49 1677.89 L2561.47 1677.89 L2561.47 1574.21 L1992.49 1574.21  Z
  " fill="#ffffff" fill-rule="evenodd" fill-opacity="1"/>
<polyline clip-path="url(#clip580)" style="stroke:#000000; stroke-linecap:round; stroke-linejoin:round; stroke-width:4; stroke-opacity:1; fill:none" points="
  1992.49,1677.89 2561.47,1677.89 2561.47,1574.21 1992.49,1574.21 1992.49,1677.89 
  "/>
<polyline clip-path="url(#clip580)" style="stroke:#009af9; stroke-linecap:round; stroke-linejoin:round; stroke-width:4; stroke-opacity:1; fill:none" points="
  2018.92,1626.05 2177.48,1626.05 
  "/>
<path clip-path="url(#clip580)" d="M2203.91 1608.77 L2208.59 1608.77 L2208.59 1639.39 L2225.42 1639.39 L2225.42 1643.33 L2203.91 1643.33 L2203.91 1608.77 Z" fill="#000000" fill-rule="evenodd" fill-opacity="1" /><path clip-path="url(#clip580)" d="M2230.14 1617.4 L2234.4 1617.4 L2234.4 1643.33 L2230.14 1643.33 L2230.14 1617.4 M2230.14 1607.31 L2234.4 1607.31 L2234.4 1612.7 L2230.14 1612.7 L2230.14 1607.31 Z" fill="#000000" fill-rule="evenodd" fill-opacity="1" /><path clip-path="url(#clip580)" d="M2256.43 1607.31 L2256.43 1610.85 L2252.36 1610.85 Q2250.07 1610.85 2249.17 1611.78 Q2248.29 1612.7 2248.29 1615.11 L2248.29 1617.4 L2255.3 1617.4 L2255.3 1620.71 L2248.29 1620.71 L2248.29 1643.33 L2244 1643.33 L2244 1620.71 L2239.93 1620.71 L2239.93 1617.4 L2244 1617.4 L2244 1615.6 Q2244 1611.27 2246.02 1609.3 Q2248.03 1607.31 2252.41 1607.31 L2256.43 1607.31 Z" fill="#000000" fill-rule="evenodd" fill-opacity="1" /><path clip-path="url(#clip580)" d="M2263.38 1610.04 L2263.38 1617.4 L2272.15 1617.4 L2272.15 1620.71 L2263.38 1620.71 L2263.38 1634.79 Q2263.38 1637.96 2264.24 1638.86 Q2265.12 1639.76 2267.78 1639.76 L2272.15 1639.76 L2272.15 1643.33 L2267.78 1643.33 Q2262.85 1643.33 2260.97 1641.5 Q2259.1 1639.65 2259.1 1634.79 L2259.1 1620.71 L2255.97 1620.71 L2255.97 1617.4 L2259.1 1617.4 L2259.1 1610.04 L2263.38 1610.04 Z" fill="#000000" fill-rule="evenodd" fill-opacity="1" /><path clip-path="url(#clip580)" d="M2311.48 1618.4 L2311.48 1622.38 Q2309.68 1621.38 2307.85 1620.9 Q2306.04 1620.39 2304.19 1620.39 Q2300.05 1620.39 2297.75 1623.03 Q2295.46 1625.64 2295.46 1630.39 Q2295.46 1635.13 2297.75 1637.77 Q2300.05 1640.39 2304.19 1640.39 Q2306.04 1640.39 2307.85 1639.9 Q2309.68 1639.39 2311.48 1638.4 L2311.48 1642.33 Q2309.7 1643.17 2307.78 1643.58 Q2305.88 1644 2303.73 1644 Q2297.87 1644 2294.42 1640.32 Q2290.97 1636.64 2290.97 1630.39 Q2290.97 1624.05 2294.44 1620.41 Q2297.94 1616.78 2304 1616.78 Q2305.97 1616.78 2307.85 1617.19 Q2309.72 1617.59 2311.48 1618.4 Z" fill="#000000" fill-rule="evenodd" fill-opacity="1" /><path clip-path="url(#clip580)" d="M2328.93 1620.39 Q2325.51 1620.39 2323.52 1623.07 Q2321.53 1625.74 2321.53 1630.39 Q2321.53 1635.04 2323.49 1637.73 Q2325.49 1640.39 2328.93 1640.39 Q2332.34 1640.39 2334.33 1637.7 Q2336.32 1635.02 2336.32 1630.39 Q2336.32 1625.78 2334.33 1623.1 Q2332.34 1620.39 2328.93 1620.39 M2328.93 1616.78 Q2334.49 1616.78 2337.66 1620.39 Q2340.83 1624 2340.83 1630.39 Q2340.83 1636.75 2337.66 1640.39 Q2334.49 1644 2328.93 1644 Q2323.36 1644 2320.18 1640.39 Q2317.04 1636.75 2317.04 1630.39 Q2317.04 1624 2320.18 1620.39 Q2323.36 1616.78 2328.93 1616.78 Z" fill="#000000" fill-rule="evenodd" fill-opacity="1" /><path clip-path="url(#clip580)" d="M2370.07 1629.3 L2370.07 1631.38 L2350.49 1631.38 Q2350.76 1635.78 2353.12 1638.1 Q2355.51 1640.39 2359.74 1640.39 Q2362.2 1640.39 2364.49 1639.79 Q2366.8 1639.18 2369.07 1637.98 L2369.07 1642.01 Q2366.78 1642.98 2364.37 1643.49 Q2361.97 1644 2359.49 1644 Q2353.29 1644 2349.65 1640.39 Q2346.04 1636.78 2346.04 1630.62 Q2346.04 1624.25 2349.47 1620.53 Q2352.92 1616.78 2358.75 1616.78 Q2363.98 1616.78 2367.01 1620.16 Q2370.07 1623.51 2370.07 1629.3 M2365.81 1628.05 Q2365.76 1624.55 2363.84 1622.47 Q2361.94 1620.39 2358.8 1620.39 Q2355.23 1620.39 2353.08 1622.4 Q2350.95 1624.42 2350.62 1628.07 L2365.81 1628.05 Z" fill="#000000" fill-rule="evenodd" fill-opacity="1" /><path clip-path="url(#clip580)" d="M2390.18 1607.31 L2390.18 1610.85 L2386.11 1610.85 Q2383.82 1610.85 2382.92 1611.78 Q2382.04 1612.7 2382.04 1615.11 L2382.04 1617.4 L2389.05 1617.4 L2389.05 1620.71 L2382.04 1620.71 L2382.04 1643.33 L2377.75 1643.33 L2377.75 1620.71 L2373.68 1620.71 L2373.68 1617.4 L2377.75 1617.4 L2377.75 1615.6 Q2377.75 1611.27 2379.77 1609.3 Q2381.78 1607.31 2386.16 1607.31 L2390.18 1607.31 Z" fill="#000000" fill-rule="evenodd" fill-opacity="1" /><path clip-path="url(#clip580)" d="M2406.87 1607.31 L2406.87 1610.85 L2402.8 1610.85 Q2400.51 1610.85 2399.61 1611.78 Q2398.73 1612.7 2398.73 1615.11 L2398.73 1617.4 L2405.74 1617.4 L2405.74 1620.71 L2398.73 1620.71 L2398.73 1643.33 L2394.44 1643.33 L2394.44 1620.71 L2390.37 1620.71 L2390.37 1617.4 L2394.44 1617.4 L2394.44 1615.6 Q2394.44 1611.27 2396.46 1609.3 Q2398.47 1607.31 2402.85 1607.31 L2406.87 1607.31 Z" fill="#000000" fill-rule="evenodd" fill-opacity="1" /><path clip-path="url(#clip580)" d="M2410.44 1617.4 L2414.7 1617.4 L2414.7 1643.33 L2410.44 1643.33 L2410.44 1617.4 M2410.44 1607.31 L2414.7 1607.31 L2414.7 1612.7 L2410.44 1612.7 L2410.44 1607.31 Z" fill="#000000" fill-rule="evenodd" fill-opacity="1" /><path clip-path="url(#clip580)" d="M2442.27 1618.4 L2442.27 1622.38 Q2440.46 1621.38 2438.63 1620.9 Q2436.83 1620.39 2434.98 1620.39 Q2430.83 1620.39 2428.54 1623.03 Q2426.25 1625.64 2426.25 1630.39 Q2426.25 1635.13 2428.54 1637.77 Q2430.83 1640.39 2434.98 1640.39 Q2436.83 1640.39 2438.63 1639.9 Q2440.46 1639.39 2442.27 1638.4 L2442.27 1642.33 Q2440.48 1643.17 2438.56 1643.58 Q2436.67 1644 2434.51 1644 Q2428.66 1644 2425.21 1640.32 Q2421.76 1636.64 2421.76 1630.39 Q2421.76 1624.05 2425.23 1620.41 Q2428.73 1616.78 2434.79 1616.78 Q2436.76 1616.78 2438.63 1617.19 Q2440.51 1617.59 2442.27 1618.4 Z" fill="#000000" fill-rule="evenodd" fill-opacity="1" /><path clip-path="url(#clip580)" d="M2449.67 1617.4 L2453.93 1617.4 L2453.93 1643.33 L2449.67 1643.33 L2449.67 1617.4 M2449.67 1607.31 L2453.93 1607.31 L2453.93 1612.7 L2449.67 1612.7 L2449.67 1607.31 Z" fill="#000000" fill-rule="evenodd" fill-opacity="1" /><path clip-path="url(#clip580)" d="M2485.02 1629.3 L2485.02 1631.38 L2465.44 1631.38 Q2465.72 1635.78 2468.08 1638.1 Q2470.46 1640.39 2474.7 1640.39 Q2477.15 1640.39 2479.44 1639.79 Q2481.76 1639.18 2484.03 1637.98 L2484.03 1642.01 Q2481.73 1642.98 2479.33 1643.49 Q2476.92 1644 2474.44 1644 Q2468.24 1644 2464.61 1640.39 Q2460.99 1636.78 2460.99 1630.62 Q2460.99 1624.25 2464.42 1620.53 Q2467.87 1616.78 2473.7 1616.78 Q2478.93 1616.78 2481.97 1620.16 Q2485.02 1623.51 2485.02 1629.3 M2480.76 1628.05 Q2480.72 1624.55 2478.79 1622.47 Q2476.9 1620.39 2473.75 1620.39 Q2470.18 1620.39 2468.03 1622.4 Q2465.9 1624.42 2465.58 1628.07 L2480.76 1628.05 Z" fill="#000000" fill-rule="evenodd" fill-opacity="1" /><path clip-path="url(#clip580)" d="M2513.56 1627.68 L2513.56 1643.33 L2509.3 1643.33 L2509.3 1627.82 Q2509.3 1624.14 2507.87 1622.31 Q2506.43 1620.48 2503.56 1620.48 Q2500.11 1620.48 2498.12 1622.68 Q2496.13 1624.88 2496.13 1628.68 L2496.13 1643.33 L2491.85 1643.33 L2491.85 1617.4 L2496.13 1617.4 L2496.13 1621.43 Q2497.66 1619.09 2499.72 1617.93 Q2501.8 1616.78 2504.51 1616.78 Q2508.98 1616.78 2511.27 1619.55 Q2513.56 1622.31 2513.56 1627.68 Z" fill="#000000" fill-rule="evenodd" fill-opacity="1" /><path clip-path="url(#clip580)" d="M2526.27 1610.04 L2526.27 1617.4 L2535.04 1617.4 L2535.04 1620.71 L2526.27 1620.71 L2526.27 1634.79 Q2526.27 1637.96 2527.13 1638.86 Q2528.01 1639.76 2530.67 1639.76 L2535.04 1639.76 L2535.04 1643.33 L2530.67 1643.33 Q2525.74 1643.33 2523.86 1641.5 Q2521.99 1639.65 2521.99 1634.79 L2521.99 1620.71 L2518.86 1620.71 L2518.86 1617.4 L2521.99 1617.4 L2521.99 1610.04 L2526.27 1610.04 Z" fill="#000000" fill-rule="evenodd" fill-opacity="1" /></svg>
