<?xml version="1.0" encoding="utf-8"?>
<svg xmlns="http://www.w3.org/2000/svg" xmlns:xlink="http://www.w3.org/1999/xlink" width="672" height="480" viewBox="0 0 2688 1920">
<defs>
  <clipPath id="clip040">
    <rect x="0" y="0" width="2688" height="1920"/>
  </clipPath>
</defs>
<path clip-path="url(#clip040)" d="
M0 1920 L2688 1920 L2688 0 L0 0  Z
  " fill="#ffffff" fill-rule="evenodd" fill-opacity="1"/>
<defs>
  <clipPath id="clip041">
    <rect x="537" y="0" width="1883" height="1883"/>
  </clipPath>
</defs>
<path clip-path="url(#clip040)" d="
M189.154 1800.78 L2640.76 1800.78 L2640.76 47.2441 L189.154 47.2441  Z
  " fill="#ffffff" fill-rule="evenodd" fill-opacity="1"/>
<defs>
  <clipPath id="clip042">
    <rect x="189" y="47" width="2453" height="1755"/>
  </clipPath>
</defs>
<polyline clip-path="url(#clip042)" style="stroke:#000000; stroke-linecap:round; stroke-linejoin:round; stroke-width:2; stroke-opacity:0.1; fill:none" points="
  258.423,1800.78 258.423,47.2441 
  "/>
<polyline clip-path="url(#clip042)" style="stroke:#000000; stroke-linecap:round; stroke-linejoin:round; stroke-width:2; stroke-opacity:0.1; fill:none" points="
  836.66,1800.78 836.66,47.2441 
  "/>
<polyline clip-path="url(#clip042)" style="stroke:#000000; stroke-linecap:round; stroke-linejoin:round; stroke-width:2; stroke-opacity:0.1; fill:none" points="
  1414.9,1800.78 1414.9,47.2441 
  "/>
<polyline clip-path="url(#clip042)" style="stroke:#000000; stroke-linecap:round; stroke-linejoin:round; stroke-width:2; stroke-opacity:0.1; fill:none" points="
  1993.13,1800.78 1993.13,47.2441 
  "/>
<polyline clip-path="url(#clip042)" style="stroke:#000000; stroke-linecap:round; stroke-linejoin:round; stroke-width:2; stroke-opacity:0.1; fill:none" points="
  2571.37,1800.78 2571.37,47.2441 
  "/>
<polyline clip-path="url(#clip040)" style="stroke:#000000; stroke-linecap:round; stroke-linejoin:round; stroke-width:4; stroke-opacity:1; fill:none" points="
  189.154,1800.78 2640.76,1800.78 
  "/>
<polyline clip-path="url(#clip040)" style="stroke:#000000; stroke-linecap:round; stroke-linejoin:round; stroke-width:4; stroke-opacity:1; fill:none" points="
  258.423,1800.78 258.423,1781.88 
  "/>
<polyline clip-path="url(#clip040)" style="stroke:#000000; stroke-linecap:round; stroke-linejoin:round; stroke-width:4; stroke-opacity:1; fill:none" points="
  836.66,1800.78 836.66,1781.88 
  "/>
<polyline clip-path="url(#clip040)" style="stroke:#000000; stroke-linecap:round; stroke-linejoin:round; stroke-width:4; stroke-opacity:1; fill:none" points="
  1414.9,1800.78 1414.9,1781.88 
  "/>
<polyline clip-path="url(#clip040)" style="stroke:#000000; stroke-linecap:round; stroke-linejoin:round; stroke-width:4; stroke-opacity:1; fill:none" points="
  1993.13,1800.78 1993.13,1781.88 
  "/>
<polyline clip-path="url(#clip040)" style="stroke:#000000; stroke-linecap:round; stroke-linejoin:round; stroke-width:4; stroke-opacity:1; fill:none" points="
  2571.37,1800.78 2571.37,1781.88 
  "/>
<path clip-path="url(#clip040)" d="M258.423 1834 Q254.812 1834 252.984 1837.57 Q251.178 1841.11 251.178 1848.24 Q251.178 1855.34 252.984 1858.91 Q254.812 1862.45 258.423 1862.45 Q262.058 1862.45 263.863 1858.91 Q265.692 1855.34 265.692 1848.24 Q265.692 1841.11 263.863 1837.57 Q262.058 1834 258.423 1834 M258.423 1830.3 Q264.233 1830.3 267.289 1834.9 Q270.368 1839.49 270.368 1848.24 Q270.368 1856.96 267.289 1861.57 Q264.233 1866.15 258.423 1866.15 Q252.613 1866.15 249.534 1861.57 Q246.479 1856.96 246.479 1848.24 Q246.479 1839.49 249.534 1834.9 Q252.613 1830.3 258.423 1830.3 Z" fill="#000000" fill-rule="evenodd" fill-opacity="1" /><path clip-path="url(#clip040)" d="M826.938 1830.92 L845.294 1830.92 L845.294 1834.86 L831.22 1834.86 L831.22 1843.33 Q832.239 1842.98 833.257 1842.82 Q834.276 1842.64 835.294 1842.64 Q841.081 1842.64 844.461 1845.81 Q847.841 1848.98 847.841 1854.4 Q847.841 1859.97 844.369 1863.08 Q840.896 1866.15 834.577 1866.15 Q832.401 1866.15 830.132 1865.78 Q827.887 1865.41 825.48 1864.67 L825.48 1859.97 Q827.563 1861.11 829.785 1861.66 Q832.007 1862.22 834.484 1862.22 Q838.489 1862.22 840.827 1860.11 Q843.165 1858.01 843.165 1854.4 Q843.165 1850.78 840.827 1848.68 Q838.489 1846.57 834.484 1846.57 Q832.609 1846.57 830.734 1846.99 Q828.882 1847.4 826.938 1848.28 L826.938 1830.92 Z" fill="#000000" fill-rule="evenodd" fill-opacity="1" /><path clip-path="url(#clip040)" d="M1389.58 1861.55 L1397.22 1861.55 L1397.22 1835.18 L1388.91 1836.85 L1388.91 1832.59 L1397.18 1830.92 L1401.85 1830.92 L1401.85 1861.55 L1409.49 1861.55 L1409.49 1865.48 L1389.58 1865.48 L1389.58 1861.55 Z" fill="#000000" fill-rule="evenodd" fill-opacity="1" /><path clip-path="url(#clip040)" d="M1428.94 1834 Q1425.33 1834 1423.5 1837.57 Q1421.69 1841.11 1421.69 1848.24 Q1421.69 1855.34 1423.5 1858.91 Q1425.33 1862.45 1428.94 1862.45 Q1432.57 1862.45 1434.38 1858.91 Q1436.2 1855.34 1436.2 1848.24 Q1436.2 1841.11 1434.38 1837.57 Q1432.57 1834 1428.94 1834 M1428.94 1830.3 Q1434.75 1830.3 1437.8 1834.9 Q1440.88 1839.49 1440.88 1848.24 Q1440.88 1856.96 1437.8 1861.57 Q1434.75 1866.15 1428.94 1866.15 Q1423.13 1866.15 1420.05 1861.57 Q1416.99 1856.96 1416.99 1848.24 Q1416.99 1839.49 1420.05 1834.9 Q1423.13 1830.3 1428.94 1830.3 Z" fill="#000000" fill-rule="evenodd" fill-opacity="1" /><path clip-path="url(#clip040)" d="M1968.32 1861.55 L1975.96 1861.55 L1975.96 1835.18 L1967.65 1836.85 L1967.65 1832.59 L1975.91 1830.92 L1980.59 1830.92 L1980.59 1861.55 L1988.23 1861.55 L1988.23 1865.48 L1968.32 1865.48 L1968.32 1861.55 Z" fill="#000000" fill-rule="evenodd" fill-opacity="1" /><path clip-path="url(#clip040)" d="M1997.72 1830.92 L2016.07 1830.92 L2016.07 1834.86 L2002 1834.86 L2002 1843.33 Q2003.02 1842.98 2004.04 1842.82 Q2005.06 1842.64 2006.07 1842.64 Q2011.86 1842.64 2015.24 1845.81 Q2018.62 1848.98 2018.62 1854.4 Q2018.62 1859.97 2015.15 1863.08 Q2011.68 1866.15 2005.36 1866.15 Q2003.18 1866.15 2000.91 1865.78 Q1998.67 1865.41 1996.26 1864.67 L1996.26 1859.97 Q1998.34 1861.11 2000.56 1861.66 Q2002.79 1862.22 2005.26 1862.22 Q2009.27 1862.22 2011.61 1860.11 Q2013.94 1858.01 2013.94 1854.4 Q2013.94 1850.78 2011.61 1848.68 Q2009.27 1846.57 2005.26 1846.57 Q2003.39 1846.57 2001.51 1846.99 Q1999.66 1847.4 1997.72 1848.28 L1997.72 1830.92 Z" fill="#000000" fill-rule="evenodd" fill-opacity="1" /><path clip-path="url(#clip040)" d="M2550.14 1861.55 L2566.46 1861.55 L2566.46 1865.48 L2544.52 1865.48 L2544.52 1861.55 Q2547.18 1858.79 2551.76 1854.16 Q2556.37 1849.51 2557.55 1848.17 Q2559.8 1845.65 2560.68 1843.91 Q2561.58 1842.15 2561.58 1840.46 Q2561.58 1837.71 2559.63 1835.97 Q2557.71 1834.23 2554.61 1834.23 Q2552.41 1834.23 2549.96 1835 Q2547.53 1835.76 2544.75 1837.31 L2544.75 1832.59 Q2547.57 1831.46 2550.03 1830.88 Q2552.48 1830.3 2554.52 1830.3 Q2559.89 1830.3 2563.08 1832.98 Q2566.28 1835.67 2566.28 1840.16 Q2566.28 1842.29 2565.47 1844.21 Q2564.68 1846.11 2562.57 1848.7 Q2562 1849.37 2558.89 1852.59 Q2555.79 1855.78 2550.14 1861.55 Z" fill="#000000" fill-rule="evenodd" fill-opacity="1" /><path clip-path="url(#clip040)" d="M2586.28 1834 Q2582.67 1834 2580.84 1837.57 Q2579.03 1841.11 2579.03 1848.24 Q2579.03 1855.34 2580.84 1858.91 Q2582.67 1862.45 2586.28 1862.45 Q2589.91 1862.45 2591.72 1858.91 Q2593.55 1855.34 2593.55 1848.24 Q2593.55 1841.11 2591.72 1837.57 Q2589.91 1834 2586.28 1834 M2586.28 1830.3 Q2592.09 1830.3 2595.14 1834.9 Q2598.22 1839.49 2598.22 1848.24 Q2598.22 1856.96 2595.14 1861.57 Q2592.09 1866.15 2586.28 1866.15 Q2580.47 1866.15 2577.39 1861.57 Q2574.33 1856.96 2574.33 1848.24 Q2574.33 1839.49 2577.39 1834.9 Q2580.47 1830.3 2586.28 1830.3 Z" fill="#000000" fill-rule="evenodd" fill-opacity="1" /><polyline clip-path="url(#clip042)" style="stroke:#000000; stroke-linecap:round; stroke-linejoin:round; stroke-width:2; stroke-opacity:0.1; fill:none" points="
  189.154,1775.58 2640.76,1775.58 
  "/>
<polyline clip-path="url(#clip042)" style="stroke:#000000; stroke-linecap:round; stroke-linejoin:round; stroke-width:2; stroke-opacity:0.1; fill:none" points="
  189.154,1401.23 2640.76,1401.23 
  "/>
<polyline clip-path="url(#clip042)" style="stroke:#000000; stroke-linecap:round; stroke-linejoin:round; stroke-width:2; stroke-opacity:0.1; fill:none" points="
  189.154,1026.88 2640.76,1026.88 
  "/>
<polyline clip-path="url(#clip042)" style="stroke:#000000; stroke-linecap:round; stroke-linejoin:round; stroke-width:2; stroke-opacity:0.1; fill:none" points="
  189.154,652.537 2640.76,652.537 
  "/>
<polyline clip-path="url(#clip042)" style="stroke:#000000; stroke-linecap:round; stroke-linejoin:round; stroke-width:2; stroke-opacity:0.1; fill:none" points="
  189.154,278.19 2640.76,278.19 
  "/>
<polyline clip-path="url(#clip040)" style="stroke:#000000; stroke-linecap:round; stroke-linejoin:round; stroke-width:4; stroke-opacity:1; fill:none" points="
  189.154,1800.78 189.154,47.2441 
  "/>
<polyline clip-path="url(#clip040)" style="stroke:#000000; stroke-linecap:round; stroke-linejoin:round; stroke-width:4; stroke-opacity:1; fill:none" points="
  189.154,1775.58 208.052,1775.58 
  "/>
<polyline clip-path="url(#clip040)" style="stroke:#000000; stroke-linecap:round; stroke-linejoin:round; stroke-width:4; stroke-opacity:1; fill:none" points="
  189.154,1401.23 208.052,1401.23 
  "/>
<polyline clip-path="url(#clip040)" style="stroke:#000000; stroke-linecap:round; stroke-linejoin:round; stroke-width:4; stroke-opacity:1; fill:none" points="
  189.154,1026.88 208.052,1026.88 
  "/>
<polyline clip-path="url(#clip040)" style="stroke:#000000; stroke-linecap:round; stroke-linejoin:round; stroke-width:4; stroke-opacity:1; fill:none" points="
  189.154,652.537 208.052,652.537 
  "/>
<polyline clip-path="url(#clip040)" style="stroke:#000000; stroke-linecap:round; stroke-linejoin:round; stroke-width:4; stroke-opacity:1; fill:none" points="
  189.154,278.19 208.052,278.19 
  "/>
<path clip-path="url(#clip040)" d="M61.4965 1761.38 Q57.8854 1761.38 56.0567 1764.94 Q54.2512 1768.48 54.2512 1775.61 Q54.2512 1782.72 56.0567 1786.28 Q57.8854 1789.83 61.4965 1789.83 Q65.1307 1789.83 66.9363 1786.28 Q68.765 1782.72 68.765 1775.61 Q68.765 1768.48 66.9363 1764.94 Q65.1307 1761.38 61.4965 1761.38 M61.4965 1757.67 Q67.3067 1757.67 70.3622 1762.28 Q73.4409 1766.86 73.4409 1775.61 Q73.4409 1784.34 70.3622 1788.95 Q67.3067 1793.53 61.4965 1793.53 Q55.6864 1793.53 52.6077 1788.95 Q49.5521 1784.34 49.5521 1775.61 Q49.5521 1766.86 52.6077 1762.28 Q55.6864 1757.67 61.4965 1757.67 Z" fill="#000000" fill-rule="evenodd" fill-opacity="1" /><path clip-path="url(#clip040)" d="M81.6584 1786.98 L86.5427 1786.98 L86.5427 1792.86 L81.6584 1792.86 L81.6584 1786.98 Z" fill="#000000" fill-rule="evenodd" fill-opacity="1" /><path clip-path="url(#clip040)" d="M106.728 1761.38 Q103.117 1761.38 101.288 1764.94 Q99.4824 1768.48 99.4824 1775.61 Q99.4824 1782.72 101.288 1786.28 Q103.117 1789.83 106.728 1789.83 Q110.362 1789.83 112.168 1786.28 Q113.996 1782.72 113.996 1775.61 Q113.996 1768.48 112.168 1764.94 Q110.362 1761.38 106.728 1761.38 M106.728 1757.67 Q112.538 1757.67 115.593 1762.28 Q118.672 1766.86 118.672 1775.61 Q118.672 1784.34 115.593 1788.95 Q112.538 1793.53 106.728 1793.53 Q100.918 1793.53 97.8389 1788.95 Q94.7834 1784.34 94.7834 1775.61 Q94.7834 1766.86 97.8389 1762.28 Q100.918 1757.67 106.728 1757.67 Z" fill="#000000" fill-rule="evenodd" fill-opacity="1" /><path clip-path="url(#clip040)" d="M136.89 1761.38 Q133.279 1761.38 131.45 1764.94 Q129.644 1768.48 129.644 1775.61 Q129.644 1782.72 131.45 1786.28 Q133.279 1789.83 136.89 1789.83 Q140.524 1789.83 142.329 1786.28 Q144.158 1782.72 144.158 1775.61 Q144.158 1768.48 142.329 1764.94 Q140.524 1761.38 136.89 1761.38 M136.89 1757.67 Q142.7 1757.67 145.755 1762.28 Q148.834 1766.86 148.834 1775.61 Q148.834 1784.34 145.755 1788.95 Q142.7 1793.53 136.89 1793.53 Q131.079 1793.53 128.001 1788.95 Q124.945 1784.34 124.945 1775.61 Q124.945 1766.86 128.001 1762.28 Q131.079 1757.67 136.89 1757.67 Z" fill="#000000" fill-rule="evenodd" fill-opacity="1" /><path clip-path="url(#clip040)" d="M62.4919 1387.03 Q58.8808 1387.03 57.0521 1390.59 Q55.2465 1394.14 55.2465 1401.27 Q55.2465 1408.37 57.0521 1411.94 Q58.8808 1415.48 62.4919 1415.48 Q66.1261 1415.48 67.9317 1411.94 Q69.7604 1408.37 69.7604 1401.27 Q69.7604 1394.14 67.9317 1390.59 Q66.1261 1387.03 62.4919 1387.03 M62.4919 1383.33 Q68.302 1383.33 71.3576 1387.93 Q74.4363 1392.52 74.4363 1401.27 Q74.4363 1409.99 71.3576 1414.6 Q68.302 1419.18 62.4919 1419.18 Q56.6817 1419.18 53.603 1414.6 Q50.5475 1409.99 50.5475 1401.27 Q50.5475 1392.52 53.603 1387.93 Q56.6817 1383.33 62.4919 1383.33 Z" fill="#000000" fill-rule="evenodd" fill-opacity="1" /><path clip-path="url(#clip040)" d="M82.6538 1412.63 L87.538 1412.63 L87.538 1418.51 L82.6538 1418.51 L82.6538 1412.63 Z" fill="#000000" fill-rule="evenodd" fill-opacity="1" /><path clip-path="url(#clip040)" d="M101.751 1414.58 L118.07 1414.58 L118.07 1418.51 L96.126 1418.51 L96.126 1414.58 Q98.788 1411.82 103.371 1407.19 Q107.978 1402.54 109.158 1401.2 Q111.404 1398.67 112.283 1396.94 Q113.186 1395.18 113.186 1393.49 Q113.186 1390.73 111.242 1389 Q109.32 1387.26 106.218 1387.26 Q104.019 1387.26 101.566 1388.02 Q99.1352 1388.79 96.3574 1390.34 L96.3574 1385.62 Q99.1815 1384.48 101.635 1383.9 Q104.089 1383.33 106.126 1383.33 Q111.496 1383.33 114.691 1386.01 Q117.885 1388.7 117.885 1393.19 Q117.885 1395.32 117.075 1397.24 Q116.288 1399.14 114.181 1401.73 Q113.603 1402.4 110.501 1405.62 Q107.399 1408.81 101.751 1414.58 Z" fill="#000000" fill-rule="evenodd" fill-opacity="1" /><path clip-path="url(#clip040)" d="M127.931 1383.95 L146.288 1383.95 L146.288 1387.89 L132.214 1387.89 L132.214 1396.36 Q133.232 1396.01 134.251 1395.85 Q135.269 1395.66 136.288 1395.66 Q142.075 1395.66 145.454 1398.84 Q148.834 1402.01 148.834 1407.42 Q148.834 1413 145.362 1416.1 Q141.89 1419.18 135.57 1419.18 Q133.394 1419.18 131.126 1418.81 Q128.88 1418.44 126.473 1417.7 L126.473 1413 Q128.556 1414.14 130.779 1414.69 Q133.001 1415.25 135.478 1415.25 Q139.482 1415.25 141.82 1413.14 Q144.158 1411.03 144.158 1407.42 Q144.158 1403.81 141.82 1401.71 Q139.482 1399.6 135.478 1399.6 Q133.603 1399.6 131.728 1400.02 Q129.876 1400.43 127.931 1401.31 L127.931 1383.95 Z" fill="#000000" fill-rule="evenodd" fill-opacity="1" /><path clip-path="url(#clip040)" d="M61.4965 1012.68 Q57.8854 1012.68 56.0567 1016.25 Q54.2512 1019.79 54.2512 1026.92 Q54.2512 1034.03 56.0567 1037.59 Q57.8854 1041.13 61.4965 1041.13 Q65.1307 1041.13 66.9363 1037.59 Q68.765 1034.03 68.765 1026.92 Q68.765 1019.79 66.9363 1016.25 Q65.1307 1012.68 61.4965 1012.68 M61.4965 1008.98 Q67.3067 1008.98 70.3622 1013.59 Q73.4409 1018.17 73.4409 1026.92 Q73.4409 1035.65 70.3622 1040.25 Q67.3067 1044.84 61.4965 1044.84 Q55.6864 1044.84 52.6077 1040.25 Q49.5521 1035.65 49.5521 1026.92 Q49.5521 1018.17 52.6077 1013.59 Q55.6864 1008.98 61.4965 1008.98 Z" fill="#000000" fill-rule="evenodd" fill-opacity="1" /><path clip-path="url(#clip040)" d="M81.6584 1038.28 L86.5427 1038.28 L86.5427 1044.16 L81.6584 1044.16 L81.6584 1038.28 Z" fill="#000000" fill-rule="evenodd" fill-opacity="1" /><path clip-path="url(#clip040)" d="M96.7741 1009.6 L115.13 1009.6 L115.13 1013.54 L101.056 1013.54 L101.056 1022.01 Q102.075 1021.66 103.094 1021.5 Q104.112 1021.32 105.131 1021.32 Q110.918 1021.32 114.297 1024.49 Q117.677 1027.66 117.677 1033.08 Q117.677 1038.65 114.205 1041.76 Q110.732 1044.84 104.413 1044.84 Q102.237 1044.84 99.9685 1044.46 Q97.7232 1044.09 95.3158 1043.35 L95.3158 1038.65 Q97.3991 1039.79 99.6213 1040.34 Q101.844 1040.9 104.32 1040.9 Q108.325 1040.9 110.663 1038.79 Q113.001 1036.69 113.001 1033.08 Q113.001 1029.46 110.663 1027.36 Q108.325 1025.25 104.32 1025.25 Q102.445 1025.25 100.57 1025.67 Q98.7185 1026.09 96.7741 1026.96 L96.7741 1009.6 Z" fill="#000000" fill-rule="evenodd" fill-opacity="1" /><path clip-path="url(#clip040)" d="M136.89 1012.68 Q133.279 1012.68 131.45 1016.25 Q129.644 1019.79 129.644 1026.92 Q129.644 1034.03 131.45 1037.59 Q133.279 1041.13 136.89 1041.13 Q140.524 1041.13 142.329 1037.59 Q144.158 1034.03 144.158 1026.92 Q144.158 1019.79 142.329 1016.25 Q140.524 1012.68 136.89 1012.68 M136.89 1008.98 Q142.7 1008.98 145.755 1013.59 Q148.834 1018.17 148.834 1026.92 Q148.834 1035.65 145.755 1040.25 Q142.7 1044.84 136.89 1044.84 Q131.079 1044.84 128.001 1040.25 Q124.945 1035.65 124.945 1026.92 Q124.945 1018.17 128.001 1013.59 Q131.079 1008.98 136.89 1008.98 Z" fill="#000000" fill-rule="evenodd" fill-opacity="1" /><path clip-path="url(#clip040)" d="M62.4919 638.335 Q58.8808 638.335 57.0521 641.9 Q55.2465 645.442 55.2465 652.572 Q55.2465 659.678 57.0521 663.243 Q58.8808 666.784 62.4919 666.784 Q66.1261 666.784 67.9317 663.243 Q69.7604 659.678 69.7604 652.572 Q69.7604 645.442 67.9317 641.9 Q66.1261 638.335 62.4919 638.335 M62.4919 634.632 Q68.302 634.632 71.3576 639.238 Q74.4363 643.822 74.4363 652.572 Q74.4363 661.298 71.3576 665.905 Q68.302 670.488 62.4919 670.488 Q56.6817 670.488 53.603 665.905 Q50.5475 661.298 50.5475 652.572 Q50.5475 643.822 53.603 639.238 Q56.6817 634.632 62.4919 634.632 Z" fill="#000000" fill-rule="evenodd" fill-opacity="1" /><path clip-path="url(#clip040)" d="M82.6538 663.937 L87.538 663.937 L87.538 669.817 L82.6538 669.817 L82.6538 663.937 Z" fill="#000000" fill-rule="evenodd" fill-opacity="1" /><path clip-path="url(#clip040)" d="M96.5426 635.257 L118.765 635.257 L118.765 637.248 L106.218 669.817 L101.334 669.817 L113.14 639.192 L96.5426 639.192 L96.5426 635.257 Z" fill="#000000" fill-rule="evenodd" fill-opacity="1" /><path clip-path="url(#clip040)" d="M127.931 635.257 L146.288 635.257 L146.288 639.192 L132.214 639.192 L132.214 647.664 Q133.232 647.317 134.251 647.155 Q135.269 646.97 136.288 646.97 Q142.075 646.97 145.454 650.141 Q148.834 653.312 148.834 658.729 Q148.834 664.308 145.362 667.409 Q141.89 670.488 135.57 670.488 Q133.394 670.488 131.126 670.118 Q128.88 669.747 126.473 669.007 L126.473 664.308 Q128.556 665.442 130.779 665.997 Q133.001 666.553 135.478 666.553 Q139.482 666.553 141.82 664.446 Q144.158 662.34 144.158 658.729 Q144.158 655.118 141.82 653.011 Q139.482 650.905 135.478 650.905 Q133.603 650.905 131.728 651.322 Q129.876 651.738 127.931 652.618 L127.931 635.257 Z" fill="#000000" fill-rule="evenodd" fill-opacity="1" /><path clip-path="url(#clip040)" d="M52.3067 291.535 L59.9456 291.535 L59.9456 265.169 L51.6354 266.836 L51.6354 262.576 L59.8993 260.91 L64.5752 260.91 L64.5752 291.535 L72.214 291.535 L72.214 295.47 L52.3067 295.47 L52.3067 291.535 Z" fill="#000000" fill-rule="evenodd" fill-opacity="1" /><path clip-path="url(#clip040)" d="M81.6584 289.59 L86.5427 289.59 L86.5427 295.47 L81.6584 295.47 L81.6584 289.59 Z" fill="#000000" fill-rule="evenodd" fill-opacity="1" /><path clip-path="url(#clip040)" d="M106.728 263.988 Q103.117 263.988 101.288 267.553 Q99.4824 271.095 99.4824 278.224 Q99.4824 285.331 101.288 288.896 Q103.117 292.437 106.728 292.437 Q110.362 292.437 112.168 288.896 Q113.996 285.331 113.996 278.224 Q113.996 271.095 112.168 267.553 Q110.362 263.988 106.728 263.988 M106.728 260.285 Q112.538 260.285 115.593 264.891 Q118.672 269.474 118.672 278.224 Q118.672 286.951 115.593 291.558 Q112.538 296.141 106.728 296.141 Q100.918 296.141 97.8389 291.558 Q94.7834 286.951 94.7834 278.224 Q94.7834 269.474 97.8389 264.891 Q100.918 260.285 106.728 260.285 Z" fill="#000000" fill-rule="evenodd" fill-opacity="1" /><path clip-path="url(#clip040)" d="M136.89 263.988 Q133.279 263.988 131.45 267.553 Q129.644 271.095 129.644 278.224 Q129.644 285.331 131.45 288.896 Q133.279 292.437 136.89 292.437 Q140.524 292.437 142.329 288.896 Q144.158 285.331 144.158 278.224 Q144.158 271.095 142.329 267.553 Q140.524 263.988 136.89 263.988 M136.89 260.285 Q142.7 260.285 145.755 264.891 Q148.834 269.474 148.834 278.224 Q148.834 286.951 145.755 291.558 Q142.7 296.141 136.89 296.141 Q131.079 296.141 128.001 291.558 Q124.945 286.951 124.945 278.224 Q124.945 269.474 128.001 264.891 Q131.079 260.285 136.89 260.285 Z" fill="#000000" fill-rule="evenodd" fill-opacity="1" /><polyline clip-path="url(#clip042)" style="stroke:#009af9; stroke-linecap:round; stroke-linejoin:round; stroke-width:4; stroke-opacity:1; fill:none" points="
  258.539,1751.15 836.66,1053.79 1414.9,431.508 1993.13,96.8724 2571.37,1171.43 
  "/>
<path clip-path="url(#clip040)" d="
M270.874 209.375 L568.465 209.375 L568.465 105.695 L270.874 105.695  Z
  " fill="#ffffff" fill-rule="evenodd" fill-opacity="1"/>
<polyline clip-path="url(#clip040)" style="stroke:#000000; stroke-linecap:round; stroke-linejoin:round; stroke-width:4; stroke-opacity:1; fill:none" points="
  270.874,209.375 568.465,209.375 568.465,105.695 270.874,105.695 270.874,209.375 
  "/>
<polyline clip-path="url(#clip040)" style="stroke:#009af9; stroke-linecap:round; stroke-linejoin:round; stroke-width:4; stroke-opacity:1; fill:none" points="
  298.114,157.535 461.554,157.535 
  "/>
<path clip-path="url(#clip040)" d="M502.637 177.223 Q500.831 181.852 499.118 183.264 Q497.405 184.676 494.535 184.676 L491.132 184.676 L491.132 181.112 L493.632 181.112 Q495.391 181.112 496.364 180.278 Q497.336 179.445 498.516 176.343 L499.28 174.399 L488.794 148.889 L493.308 148.889 L501.41 169.167 L509.512 148.889 L514.026 148.889 L502.637 177.223 Z" fill="#000000" fill-rule="evenodd" fill-opacity="1" /><path clip-path="url(#clip040)" d="M521.317 170.88 L528.956 170.88 L528.956 144.515 L520.646 146.181 L520.646 141.922 L528.91 140.255 L533.586 140.255 L533.586 170.88 L541.225 170.88 L541.225 174.815 L521.317 174.815 L521.317 170.88 Z" fill="#000000" fill-rule="evenodd" fill-opacity="1" /></svg>
